<?xml version="1.0" encoding="iso-8859-1"?>
<!-- Generator: Adobe Illustrator 19.0.0, SVG Export Plug-In . SVG Version: 6.00 Build 0)  -->
<svg version="1.1" id="Capa_1" xmlns="http://www.w3.org/2000/svg" xmlns:xlink="http://www.w3.org/1999/xlink" x="0px" y="0px"
	 viewBox="0 0 121.668 121.668" style="enable-background:new 0 0 121.668 121.668;" xml:space="preserve">
	<path d="M60.834,121.668C27.29,121.668,0,94.378,0,60.834S27.29,0,60.834,0s60.834,27.29,60.834,60.834
		S94.378,121.668,60.834,121.668z M60.834,6C30.599,6,6,30.599,6,60.834s24.599,54.834,54.834,54.834s54.834-24.599,54.834-54.834
		S91.07,6,60.834,6z"/>
	<path d="M79.455,82.633c0,9.043-8.426,16.375-18.82,16.375s-18.819-7.332-18.819-16.375H79.455z M41.04,67.824l-20.371-8.436
		l2.296-5.544l20.371,8.436L41.04,67.824z M82.938,67.82l-2.295-5.542l20.371-8.434l2.295,5.542L82.938,67.82z"/>
</svg>
