<?xml version="1.0" encoding="iso-8859-1"?>
<!-- Generator: Adobe Illustrator 19.0.0, SVG Export Plug-In . SVG Version: 6.00 Build 0)  -->
<svg version="1.1" id="Capa_1" xmlns="http://www.w3.org/2000/svg" xmlns:xlink="http://www.w3.org/1999/xlink" x="0px" y="0px"
	 viewBox="0 0 121.669 121.669" style="enable-background:new 0 0 121.669 121.669;" xml:space="preserve">
	<path d="M60.834,121.669C27.291,121.669,0,94.378,0,60.834S27.291,0,60.834,0s60.834,27.29,60.834,60.834
		S94.378,121.669,60.834,121.669z M60.834,6C30.599,6,6,30.599,6,60.834c0,30.237,24.599,54.835,54.834,54.835
		s54.834-24.599,54.834-54.835S91.07,6,60.834,6z"/>
	<circle cx="26.828" cy="60.835" r="8.364"/>
	<circle cx="94.842" cy="60.835" r="8.364"/>
	<path d="M79.456,82.632c0,9.043-8.426,16.375-18.82,16.375s-18.819-7.332-18.819-16.375H79.456z"/>
</svg>
