<?xml version="1.0" encoding="iso-8859-1"?>
<!-- Generator: Adobe Illustrator 19.0.0, SVG Export Plug-In . SVG Version: 6.00 Build 0)  -->
<svg version="1.1" id="Capa_1" xmlns="http://www.w3.org/2000/svg" xmlns:xlink="http://www.w3.org/1999/xlink" x="0px" y="0px"
	 viewBox="0 0 121.67 121.67" style="enable-background:new 0 0 121.67 121.67;" xml:space="preserve">
	<path d="M60.835,121.67c-33.544,0-60.834-27.291-60.834-60.836C0.001,27.29,27.291,0,60.835,0s60.834,27.29,60.834,60.834
		C121.669,94.379,94.379,121.67,60.835,121.67z M60.835,6C30.6,6,6.001,30.599,6.001,60.834c0,30.236,24.599,54.836,54.834,54.836
		c30.234,0,54.834-24.6,54.834-54.836C115.669,30.599,91.071,6,60.835,6z"/>
	<path d="M79.456,82.632c0,9.043-8.426,16.375-18.82,16.375s-18.819-7.332-18.819-16.375H79.456z"/>
	<path d="M46.383,66.219h-6c0-5.439-3.697-9.861-8.242-9.861s-8.242,4.423-8.242,9.861h-6c0-8.747,6.389-15.861,14.242-15.861
		S46.383,57.472,46.383,66.219z"/>
	<path d="M103.773,66.219h-6c0-5.439-3.697-9.861-8.242-9.861s-8.242,4.423-8.242,9.861h-6c0-8.747,6.389-15.861,14.242-15.861
		C97.383,50.358,103.773,57.472,103.773,66.219z"/>
</svg>
