<?xml version="1.0" encoding="iso-8859-1"?>
<!-- Generator: Adobe Illustrator 19.0.0, SVG Export Plug-In . SVG Version: 6.00 Build 0)  -->
<svg version="1.1" id="Capa_1" xmlns="http://www.w3.org/2000/svg" xmlns:xlink="http://www.w3.org/1999/xlink" x="0px" y="0px"
	 viewBox="0 0 121.67 121.67" style="enable-background:new 0 0 121.67 121.67;" xml:space="preserve">
	<path d="M60.835,121.67c-33.544,0-60.834-27.291-60.834-60.836C0.001,27.29,27.291,0,60.835,0s60.834,27.29,60.834,60.834
		C121.669,94.379,94.379,121.67,60.835,121.67z M60.835,6C30.6,6,6.001,30.599,6.001,60.834c0,30.236,24.599,54.836,54.834,54.836
		s54.834-24.6,54.834-54.836S91.071,6,60.835,6z"/>
	<path d="M83.308,83.968H37.966v6h17.605c0.621,7.825,6.584,13.986,13.834,13.986s13.213-6.161,13.834-13.986h0.068L83.308,83.968
		L83.308,83.968z M69.406,97.955c-3.967,0-7.25-3.478-7.805-7.986h15.608C76.655,94.477,73.371,97.955,69.406,97.955z"/>
	<path d="M32.271,48.027c-2.475,0-5.4,3.479-6.47,5.709c-1.071-2.231-3.993-5.701-6.466-5.701c-3.541,0-7.028,2.26-6.629,8.127
		c0.376,5.506,13.09,12.471,13.101,12.477v-0.012c0.164-0.09,12.72-7,13.093-12.473C39.3,50.287,35.812,48.027,32.271,48.027z"/>
	<path d="M101.938,48.027c-2.476,0-5.4,3.479-6.471,5.709c-1.071-2.231-3.992-5.701-6.465-5.701c-3.541,0-7.029,2.26-6.629,8.127
		c0.375,5.506,13.09,12.471,13.1,12.477v-0.012c0.164-0.09,12.721-7,13.094-12.473C108.966,50.287,105.479,48.027,101.938,48.027z"/>
</svg>
