<?xml version="1.0" encoding="iso-8859-1"?>
<!-- Generator: Adobe Illustrator 19.0.0, SVG Export Plug-In . SVG Version: 6.00 Build 0)  -->
<svg version="1.1" id="Capa_1" xmlns="http://www.w3.org/2000/svg" xmlns:xlink="http://www.w3.org/1999/xlink" x="0px" y="0px"
	 viewBox="0 0 121.669 121.669" style="enable-background:new 0 0 121.669 121.669;" xml:space="preserve">
	<path d="M60.835,121.669c-33.544,0-60.834-27.29-60.834-60.835C0.001,27.29,27.291,0,60.835,0s60.834,27.29,60.834,60.834
		C121.669,94.379,94.379,121.669,60.835,121.669z M60.835,6C30.6,6,6.001,30.599,6.001,60.834c0,30.236,24.599,54.835,54.834,54.835
		s54.834-24.599,54.834-54.835C115.669,30.599,91.071,6,60.835,6z"/>
	<path d="M83.307,83.971H37.965v6H55.57c0.621,7.825,6.584,13.986,13.834,13.986s13.213-6.161,13.834-13.986h0.068L83.307,83.971
		L83.307,83.971z M69.405,97.957c-3.967,0-7.25-3.478-7.805-7.986h15.608C76.654,94.48,73.37,97.957,69.405,97.957z"/>
	<polygon points="21.779,72.61 18.872,67.362 30.657,60.835 18.872,54.308 21.779,49.059 43.041,60.835"/>
	<polygon points="99.891,72.61 78.628,60.835 99.891,49.059 102.797,54.308 91.013,60.835 102.797,67.362"/>
</svg>
