<?xml version="1.0" encoding="iso-8859-1"?>
<!-- Generator: Adobe Illustrator 19.0.0, SVG Export Plug-In . SVG Version: 6.00 Build 0)  -->
<svg version="1.1" id="Capa_1" xmlns="http://www.w3.org/2000/svg" xmlns:xlink="http://www.w3.org/1999/xlink" x="0px" y="0px"
	 viewBox="0 0 121.669 121.669" style="enable-background:new 0 0 121.669 121.669;" xml:space="preserve">
	<path d="M60.834,121.669C27.291,121.669,0,94.378,0,60.834S27.291,0,60.834,0s60.834,27.29,60.834,60.834
		S94.378,121.669,60.834,121.669z M60.834,6C30.599,6,6,30.599,6,60.834c0,30.237,24.599,54.835,54.834,54.835
		s54.834-24.599,54.834-54.835S91.07,6,60.834,6z"/>
	<circle cx="94.842" cy="60.835" r="8.364"/>
	<path d="M60.636,100.435c-10.04,0-18.208-7.281-18.208-16.23h6c0,5.641,5.477,10.23,12.208,10.23s12.208-4.59,12.208-10.23h6
		C78.844,93.153,70.676,100.435,60.636,100.435z"/>
	<polygon points="21.778,72.609 18.872,67.361 30.656,60.834 18.872,54.308 21.778,49.059 43.041,60.834"/>
</svg>
