<?xml version="1.0" encoding="iso-8859-1"?>
<!-- Generator: Adobe Illustrator 19.0.0, SVG Export Plug-In . SVG Version: 6.00 Build 0)  -->
<svg version="1.1" id="Layer_1" xmlns="http://www.w3.org/2000/svg" xmlns:xlink="http://www.w3.org/1999/xlink" x="0px" y="0px"
	 viewBox="0 0 512 512" style="enable-background:new 0 0 512 512;" xml:space="preserve">
	<path d="M256,0C114.623,0,0,114.614,0,256c0,141.377,114.623,256,256,256c141.386,0,256-114.623,256-256
		C512,114.614,397.39,0,256,0z M255.624,81.04c33.305,0,60.306,26.993,60.306,60.297c0,33.305-27.001,60.306-60.306,60.306
		c-33.309,0-60.311-27.001-60.311-60.306C195.313,108.032,222.315,81.04,255.624,81.04z M316.948,407.505
		c-2.523,2.227-5.657,3.32-8.778,3.32c-3.678,0-7.339-1.523-9.964-4.497c-4.851-5.502-4.325-13.895,1.177-18.742
		c5.409-4.767,6.078-12.133,5.688-17.471c-0.832-11.451-6.6-20.052-8.649-21.389c-0.721-0.469-1.381-1.014-1.983-1.589
		c-10.075,7.95-23.04,12.748-37.196,12.748c-15.183,0-28.962-5.555-39.307-14.572c-0.987,1.328-2.227,2.501-3.732,3.413
		c-2.054,1.35-7.817,9.951-8.649,21.393c-0.385,5.338,0.283,12.7,5.692,17.467c5.502,4.851,6.029,13.24,1.182,18.742
		c-2.625,2.975-6.286,4.497-9.964,4.497c-3.121,0-6.255-1.093-8.778-3.32c-10.832-9.543-15.993-23.863-14.536-40.303
		c1.558-17.582,10.3-34.509,21.26-41.171c0.876-0.531,1.797-0.921,2.731-1.231c-2.514-6.144-3.953-12.792-3.953-19.773H315.31
		c0,7.587-1.629,14.815-4.577,21.384c10.716,6.874,19.22,23.487,20.751,40.781C332.936,383.637,327.775,397.952,316.948,407.505z
		 M364.147,296.905c-2.302,1.585-4.922,2.342-7.516,2.342c-4.223,0-8.379-2.01-10.951-5.75
		c-24.08-34.978-55.574-54.242-88.68-54.242c-33.106,0-64.6,19.264-88.68,54.242c-4.161,6.038-12.434,7.569-18.467,3.408
		c-6.042-4.156-7.565-12.425-3.408-18.467c29.184-42.392,68.446-65.742,110.555-65.742c42.109,0,81.372,23.345,110.555,65.742
		C371.712,284.484,370.185,292.749,364.147,296.905z"/>
</svg>
