<?xml version="1.0" encoding="iso-8859-1"?>
<!-- Generator: Adobe Illustrator 19.0.0, SVG Export Plug-In . SVG Version: 6.00 Build 0)  -->
<svg version="1.1" id="Layer_1" xmlns="http://www.w3.org/2000/svg" xmlns:xlink="http://www.w3.org/1999/xlink" x="0px" y="0px"
	 viewBox="0 0 512 512" style="enable-background:new 0 0 512 512;" xml:space="preserve">
	<path d="M333.164,260.94h19.804v13.718c-6.086,4.869-11.394,6.193-17.48,6.193c-19.251,0-26.661-13.164-26.661-25.886
		c0-15.935,10.066-28.546,26.661-28.546c6.746,0,14.492,2.767,19.693,7.746l9.074-9.296c-7.968-7.853-18.365-11.841-28.768-11.841
		c-27.325,0-40.936,20.14-40.936,41.936c0,20.357,11.841,39.497,40.936,39.497c13.607,0,23.234-5.201,30.87-13.939v-32.636h-33.19
		L333.164,260.94z"/>
	<polygon points="269.631,263.264 231.688,215.246 219.847,215.246 219.847,292.691 234.45,292.691 234.45,240.472
		275.164,292.806 275.164,292.691 284.243,292.691 284.243,215.139 269.631,215.139 			"/>
	<path d="M147.147,292.691h57.973v-14.382h-43.477v-17.48h41.932v-13.607h-41.932v-17.817h43.477v-14.16h-57.973
		C147.147,241.025,147.147,266.916,147.147,292.691z"/>
	<path d="M255.993,0C114.625,0,0.002,114.614,0.002,256c0,141.377,114.623,256,255.996,256c141.386,0,256-114.623,256-256
		C511.998,114.614,397.383,0,255.993,0z M255.993,386.572c-27.041,0-53.631-6.224-76.897-17.994l-7.627-3.86l-6.671,5.343
		c-2.895,2.315-16.196,12.412-31.822,15.572c7.304-14.089,8.875-28.073,8.525-38.824l-0.164-5.024l-3.448-3.656
		c-22.159-23.491-33.871-51.887-33.871-82.124c0-72.001,68.176-130.581,151.974-130.581c83.802,0,151.978,58.58,151.978,130.581
		C407.976,328.001,339.8,386.572,255.993,386.572z"/>
</svg>
