<?xml version="1.0" encoding="iso-8859-1"?>
<!-- Generator: Adobe Illustrator 19.0.0, SVG Export Plug-In . SVG Version: 6.00 Build 0)  -->
<svg version="1.1" id="Layer_1" xmlns="http://www.w3.org/2000/svg" xmlns:xlink="http://www.w3.org/1999/xlink" x="0px" y="0px"
	 viewBox="0 0 512 512" style="enable-background:new 0 0 512 512;" xml:space="preserve">
	<path d="M256,0C114.623,0,0,114.614,0,256c0,141.377,114.623,256,256,256c141.386,0,256-114.623,256-256
		C512,114.614,397.386,0,256,0z M257.713,259.789v29.126c0,4.148-3.377,7.521-7.525,7.521h-39.772v49.926H131.86v-63.794
		l-4.882-3.984c-18.542-15.138-29.175-37.532-29.175-61.435c0-43.72,35.571-79.291,79.291-79.291
		c35.226,0,66.326,23.407,76.126,57.101l1.005,22.203l21.22,29.746L257.713,259.789z M341.931,300.729l-18.777-18.777
		c11.978-11.982,11.978-31.477-0.004-43.459l18.786-18.777C364.267,242.052,364.267,278.398,341.931,300.729z M358.999,310.229
		c27.572-27.572,27.572-72.443,0-100.02l18.777-18.777c37.926,37.93,37.926,99.648,0,137.574L358.999,310.229z M418.965,355.52
		l-18.777-18.777c42.189-42.197,42.189-110.852,0-153.04l18.777-18.777C471.511,217.468,471.516,302.969,418.965,355.52z"/>
</svg>
