<?xml version="1.0" encoding="iso-8859-1"?>
<!-- Generator: Adobe Illustrator 19.0.0, SVG Export Plug-In . SVG Version: 6.00 Build 0)  -->
<svg version="1.1" id="Layer_1" xmlns="http://www.w3.org/2000/svg" xmlns:xlink="http://www.w3.org/1999/xlink" x="0px" y="0px"
	 viewBox="0 0 512 512" style="enable-background:new 0 0 512 512;" xml:space="preserve">
	<path d="M256,0C114.623,0,0,114.614,0,256c0,141.377,114.623,256,256,256c141.386,0,256-114.623,256-256
		C512,114.614,397.386,0,256,0z M343.17,397.231H167.285L138.092,243.15c19.552,45.367,64.688,77.211,117.137,77.211
		c52.445,0,97.577-31.831,117.133-77.184L343.17,397.231z M157.219,216.937c0,0,196.03,0,196.03,0
		c-10.832,44.07-50.656,76.866-98.02,76.866C207.871,293.802,168.046,261.006,157.219,216.937z M131.971,192.857
		c-0.004-25.045,20.309-45.362,45.367-45.362c8.592,0,16.599,2.439,23.447,6.587c8.964-23.08,31.331-39.466,57.575-39.466
		c25.873,0,48.005,15.918,57.216,38.479c6.051-3.068,12.868-4.843,20.118-4.843c24.624,0,44.588,19.981,44.588,44.601
		L131.971,192.857z"/>
</svg>
