<?xml version="1.0" encoding="iso-8859-1"?>
<!-- Generator: Adobe Illustrator 19.0.0, SVG Export Plug-In . SVG Version: 6.00 Build 0)  -->
<svg version="1.1" id="Layer_1" xmlns="http://www.w3.org/2000/svg" xmlns:xlink="http://www.w3.org/1999/xlink" x="0px" y="0px"
	 viewBox="0 0 512 512" style="enable-background:new 0 0 512 512;" xml:space="preserve">
	<path d="M256,0C114.623,0,0,114.623,0,256c0,141.386,114.623,256,256,256c141.386,0,256-114.614,256-256
		C512,114.623,397.386,0,256,0z M385.434,349.642c0,19.769-16.024,35.792-35.788,35.792H162.358
		c-19.764,0-35.788-16.024-35.788-35.792V162.358c0-19.764,16.024-35.788,35.788-35.788h187.292
		c19.764,0,35.788,16.024,35.788,35.788L385.434,349.642z"/>
	<polygon points="298.237,236.918 269.036,266.115 269.036,195.326 242.477,195.326 242.477,265.561 213.829,236.918
		195.048,255.695 237.254,297.896 237.245,297.905 256.022,316.682 256.031,316.674 256.044,316.682 274.821,297.905
		274.813,297.896 317.014,255.695"/>
</svg>
