<?xml version="1.0" encoding="iso-8859-1"?>
<!-- Generator: Adobe Illustrator 19.0.0, SVG Export Plug-In . SVG Version: 6.00 Build 0)  -->
<svg version="1.1" id="Layer_1" xmlns="http://www.w3.org/2000/svg" xmlns:xlink="http://www.w3.org/1999/xlink" x="0px" y="0px"
	 viewBox="0 0 512 512" style="enable-background:new 0 0 512 512;" xml:space="preserve">
			<polygon points="149.69,319.692 356.317,319.692 253.003,265.172"/>
			<path d="M256,0C114.614,0,0,114.614,0,256s114.614,256,256,256s256-114.614,256-256S397.386,0,256,0z M428.101,338.589
				c-2.258,4.825-7.042,7.658-12.04,7.658c-0.589,0-1.177-0.111-1.771-0.19c-0.615,0.089-1.226,0.19-1.868,0.19H90.738
				c-0.137,0-0.266-0.04-0.398-0.049c-0.124,0.009-0.248,0.049-0.372,0.049c-4.997,0-9.782-2.837-12.04-7.658
				c-3.103-6.649-0.239-14.545,6.405-17.653l155.17-78.645v-46.186h0.111v-3.214c18.799,0,28.329-6.109,28.329-18.162
				c0-10.013-8.149-18.162-18.162-18.162c-10.013,0-18.162,8.149-18.162,18.162H205.06c0-24.66,20.061-44.721,44.721-44.721
				c24.66,0,44.721,20.065,44.721,44.721c0,16.002-7.932,32.787-28.449,40.445v26.882l155.634,78.884
				C428.34,324.048,431.199,331.949,428.101,338.589z"/>
</svg>
