<?xml version="1.0" encoding="iso-8859-1"?>
<!-- Generator: Adobe Illustrator 19.0.0, SVG Export Plug-In . SVG Version: 6.00 Build 0)  -->
<svg version="1.1" id="Layer_1" xmlns="http://www.w3.org/2000/svg" xmlns:xlink="http://www.w3.org/1999/xlink" x="0px" y="0px"
	 viewBox="0 0 512 512" style="enable-background:new 0 0 512 512;" xml:space="preserve">
	<path d="M256,0C114.623,0,0,114.614,0,256c0,141.377,114.623,256,256,256c141.386,0,256-114.623,256-256
		C512,114.61,397.386,0,256,0z M372.155,349.642c0,12.412-10.097,22.509-22.509,22.509H162.354
		c-12.412,0-22.509-10.097-22.509-22.509V162.354c0-12.412,10.097-22.513,22.509-22.513h187.292
		c12.412,0,22.509,10.101,22.509,22.513V349.642z"/>
	<polygon points="274.821,214.095 256.04,195.318 256.031,195.326 256.022,195.318 237.241,214.095 237.25,214.104
		195.048,256.305 213.825,275.083 242.477,246.439 242.477,316.674 269.036,316.674 269.036,245.886 298.237,275.083
		317.014,256.305 274.813,214.104"/>
</svg>
