<?xml version="1.0" encoding="iso-8859-1"?>
<!-- Generator: Adobe Illustrator 19.0.0, SVG Export Plug-In . SVG Version: 6.00 Build 0)  -->
<svg version="1.1" id="Layer_1" xmlns="http://www.w3.org/2000/svg" xmlns:xlink="http://www.w3.org/1999/xlink" x="0px" y="0px"
	 viewBox="0 0 512 512" style="enable-background:new 0 0 512 512;" xml:space="preserve">
	<path d="M256,0C114.623,0,0,114.614,0,256c0,141.377,114.623,256,256,256c141.386,0,256-114.623,256-256
		C512,114.614,397.386,0,256,0z M391.428,225.329c-20.605,20.601-50.01,27.028-76.104,19.295l-70.691,70.686
		c7.733,26.098,1.306,55.512-19.299,76.109c-20.667,20.676-50.187,27.072-76.357,19.224c0.89-0.695,1.757-1.425,2.572-2.249
		l25.766-25.766c10.933-10.933,10.933-28.648,0-39.577l-12.089-12.089c-10.933-10.938-28.653-10.938-39.577,0l-25.775,25.762
		c-0.814,0.823-1.554,1.678-2.249,2.567c-7.839-26.16-1.439-55.685,19.229-76.356c20.601-20.592,50.001-27.032,76.104-19.295
		l70.686-70.686c-7.729-26.103-1.301-55.512,19.299-76.113c20.676-20.663,50.196-27.068,76.356-19.22
		c-0.89,0.695-1.753,1.43-2.567,2.249l-25.766,25.771c-10.933,10.929-10.933,28.644,0,39.577l12.093,12.089
		c10.933,10.933,28.648,10.933,39.577,0l25.771-25.766c0.814-0.814,1.549-1.678,2.244-2.567
		C418.495,175.133,412.104,204.653,391.428,225.329z"/>
</svg>
