<?xml version="1.0" encoding="iso-8859-1"?>
<!-- Generator: Adobe Illustrator 19.0.0, SVG Export Plug-In . SVG Version: 6.00 Build 0)  -->
<svg version="1.1" id="Layer_1" xmlns="http://www.w3.org/2000/svg" xmlns:xlink="http://www.w3.org/1999/xlink" x="0px" y="0px"
	 viewBox="0 0 512 512" style="enable-background:new 0 0 512 512;" xml:space="preserve">
	<path d="M256,0C114.623,0,0,114.614,0,256c0,141.377,114.623,256,256,256c141.386,0,256-114.623,256-256
		C512,114.614,397.386,0,256,0z M101.273,199.319c9.096-9.101,23.863-9.101,32.955,0.009c-9.096-9.114-9.096-23.863,0-32.964
		c9.101-9.11,23.863-9.11,32.968,0c9.105,9.101,9.105,23.859,0,32.964c-1.067,1.062-2.222,1.996-3.431,2.815l18.905,18.905
		c20.034-14.222,45.057-22.686,72.218-22.686c62.794,0,114.189,45.159,118.709,102.411h-31.41
		c-4.227-42.096-41.755-75.144-87.303-75.144v26.559c30.808,0,56.305,21.172,60.492,48.585H136.158
		c1.545-19.574,8.574-37.722,19.662-53.149l-18.768-18.764c-0.814,1.204-1.748,2.364-2.82,3.43c-9.096,9.105-23.859,9.101-32.955,0
		C92.163,223.178,92.163,208.429,101.273,199.319z M399.563,369.109c-37.452,22.008-87.808,34.128-141.797,34.128
		c-53.985,0-104.345-12.12-141.797-34.128c-13.558-7.968-33.641-22.265-44.172-41.777h371.933
		C433.2,346.84,413.122,361.142,399.563,369.109z"/>
</svg>
