<?xml version="1.0" encoding="iso-8859-1"?>
<!-- Generator: Adobe Illustrator 19.0.0, SVG Export Plug-In . SVG Version: 6.00 Build 0)  -->
<svg version="1.1" id="Layer_1" xmlns="http://www.w3.org/2000/svg" xmlns:xlink="http://www.w3.org/1999/xlink" x="0px" y="0px"
	 viewBox="0 0 512 512" style="enable-background:new 0 0 512 512;" xml:space="preserve">
	<path d="M256,0C114.623,0,0,114.614,0,256c0,141.377,114.623,256,256,256c141.386,0,256-114.623,256-256
		C512,114.614,397.39,0,256,0z M138.708,149.853c0-9.353,7.591-16.94,16.944-16.94h69.659c9.358,0,16.949,7.587,16.949,16.94
		v108.161H138.504L138.708,149.853z M374.89,292.594c-2.855,29.87-24.859,65.029-85.696,69.526l12.492,23.217h7.507
		c8.362,0,15.134,6.777,15.134,15.134c0,8.366-6.772,15.134-15.134,15.134H187.12c-8.362,0-15.134-6.768-15.134-15.134
		c0-7.839,5.98-14.205,13.607-14.975v-24.934c-25.023-8.291-44.265-40.29-47.155-67.84l0.013-8.149h237.582L374.89,292.594z"/>
</svg>
