<?xml version="1.0" encoding="iso-8859-1"?>
<!-- Generator: Adobe Illustrator 19.0.0, SVG Export Plug-In . SVG Version: 6.00 Build 0)  -->
<svg version="1.1" id="Layer_1" xmlns="http://www.w3.org/2000/svg" xmlns:xlink="http://www.w3.org/1999/xlink" x="0px" y="0px"
	 viewBox="0 0 512 512" style="enable-background:new 0 0 512 512;" xml:space="preserve">
	<path d="M172.176,358.393c-7.259,0-13.169,5.905-13.169,13.16c0,7.264,5.905,13.169,13.169,13.169
		c7.259,0,13.164-5.905,13.164-13.169C185.336,364.298,179.431,358.393,172.176,358.393z"/>
	<path d="M309.525,358.393c-7.259,0-13.164,5.905-13.164,13.16c0,7.264,5.905,13.169,13.164,13.169
		c7.255,0,13.16-5.905,13.16-13.169C322.68,364.298,316.775,358.393,309.525,358.393z"/>
	<path d="M256,0C114.623,0,0,114.614,0,256c0,141.377,114.623,256,256,256c141.386,0,256-114.623,256-256
		C512,114.614,397.386,0,256,0z M392.91,193.578c-5.666,6.618-7.277,16.971-7.667,25.054l-0.084,10.995v2.001
		c0,42.95-22.048,81.172-56.132,105.367c12.053,6.826,20.211,19.746,20.211,34.557c0,21.902-17.817,39.728-39.719,39.728
		c-21.902,0-39.723-17.821-39.723-39.728c0-3.515,0.505-6.91,1.368-10.154c-8.999,1.678-18.295,2.572-27.811,2.572
		c-11.403,0-22.482-1.297-33.11-3.678c1.058,3.577,1.651,7.348,1.651,11.261c0,21.902-17.817,39.728-39.723,39.728
		s-39.727-17.821-39.727-39.728c0-15.988,9.521-29.772,23.181-36.058c-32.902-24.257-54.078-61.78-54.078-103.858
		c0-49.395,20.123-132.263,154.882-132.263h13.279v118.979h88.635c0.376-12.124,3.205-28.989,14.395-42.051
		c6.95-8.118,20.034-17.799,42.875-17.799l0.004,26.559C405.247,185.062,397.819,187.846,392.91,193.578z"/>
	<path d="M129.049,244.907c7.14,52.077,55.663,92.5,114.305,92.5c58.646,0,107.205-40.418,114.34-92.495l-114.544-0.004H129.049z"/>
</svg>
