<?xml version="1.0" encoding="iso-8859-1"?>
<!-- Generator: Adobe Illustrator 19.0.0, SVG Export Plug-In . SVG Version: 6.00 Build 0)  -->
<svg version="1.1" id="Layer_1" xmlns="http://www.w3.org/2000/svg" xmlns:xlink="http://www.w3.org/1999/xlink" x="0px" y="0px"
	 viewBox="0 0 512 512" style="enable-background:new 0 0 512 512;" xml:space="preserve">
	<path d="M254.893,351.492c39.776,0,72.138-32.362,72.138-72.138c0-39.776-32.362-72.138-72.138-72.138
		s-72.138,32.357-72.138,72.138C182.755,319.135,215.117,351.492,254.893,351.492z M254.893,233.775
		c25.133,0,45.579,20.446,45.579,45.579c0,25.133-20.446,45.579-45.579,45.579c-25.133,0-45.579-20.446-45.579-45.579
		C209.314,254.221,229.76,233.775,254.893,233.775z"/>
	<path d="M256,0C114.623,0,0,114.614,0,256c0,141.377,114.623,256,256,256c141.386,0,256-114.623,256-256
		C512,114.614,397.386,0,256,0z M367.441,365.542c0,5.573-4.528,10.106-10.101,10.106H154.665
		c-5.573,0-10.106-4.533-10.106-10.106V191.405h222.881V365.542z M144.559,164.85v-20.3c0-5.573,4.533-10.106,10.106-10.106
		h202.67c5.573,0,10.101,4.533,10.101,10.106l0.004,20.3H144.559z"/>
</svg>
