<?xml version="1.0" encoding="iso-8859-1"?>
<!-- Generator: Adobe Illustrator 19.0.0, SVG Export Plug-In . SVG Version: 6.00 Build 0)  -->
<svg version="1.1" id="Layer_1" xmlns="http://www.w3.org/2000/svg" xmlns:xlink="http://www.w3.org/1999/xlink" x="0px" y="0px"
	 viewBox="0 0 512 512" style="enable-background:new 0 0 512 512;" xml:space="preserve">
	<path d="M256,0C114.615,0,0,114.615,0,256s114.615,256,256,256s256-114.615,256-256S397.385,0,256,0z M254.973,432.906
		c-68.786,0-124.747-55.962-124.747-124.745c0-64.317,102.627-196.122,114.33-210.941c2.521-3.188,6.359-5.048,10.423-5.048
		c4.064,0,7.904,1.86,10.419,5.048c11.701,14.819,114.328,146.621,114.328,210.941
		C379.725,376.945,323.763,432.906,254.973,432.906z"/>
	<path d="M156.785,308.161c0,54.142,44.046,98.186,98.188,98.186c54.144,0,98.193-44.044,98.193-98.186
		c0-42.033-63.452-134.881-98.186-180.946C220.244,173.292,156.785,266.158,156.785,308.161z M300.061,308.174
		c0-7.335,5.944-13.28,13.28-13.28c7.335,0,13.28,5.944,13.28,13.28c0,39.497-32.14,71.632-71.648,71.632
		c-7.334,0-13.28-5.944-13.28-13.28s5.946-13.28,13.28-13.28C279.835,353.248,300.061,333.025,300.061,308.174z"/>
</svg>
