<?xml version="1.0" encoding="iso-8859-1"?>
<!-- Generator: Adobe Illustrator 19.0.0, SVG Export Plug-In . SVG Version: 6.00 Build 0)  -->
<svg version="1.1" id="Capa_1" xmlns="http://www.w3.org/2000/svg" xmlns:xlink="http://www.w3.org/1999/xlink" x="0px" y="0px"
	 viewBox="0 0 115.668 115.668" style="enable-background:new 0 0 115.668 115.668;" xml:space="preserve">
	<path d="M57.635,83.265c-3.275,0-5.939,2.664-5.939,5.939s2.665,5.939,5.939,5.939c3.275,0,5.939-2.664,5.939-5.939
		S60.91,83.265,57.635,83.265z"/>
	<path d="M57.834,0C25.893,0,0,25.893,0,57.834c0,31.94,25.893,57.834,57.834,57.834c31.94,0,57.834-25.894,57.834-57.834
		C115.668,25.893,89.775,0,57.834,0z M40.621,54.512l-4.243,4.243l-6.113-6.113l-6.115,6.113l-4.243-4.243l6.114-6.114
		l-6.114-6.113l4.243-4.243l6.115,6.113l6.113-6.113l4.243,4.243l-6.113,6.113L40.621,54.512z M57.635,101.144
		c-6.583,0-11.939-5.355-11.939-11.938s5.356-11.941,11.939-11.941s11.939,5.356,11.939,11.939S64.218,101.144,57.635,101.144z
		 M95.362,54.512l-4.244,4.243l-6.112-6.113l-6.114,6.113l-4.242-4.243l6.113-6.114l-6.113-6.113l4.242-4.243l6.114,6.113
		l6.112-6.113l4.244,4.243l-6.113,6.113L95.362,54.512z"/>
</svg>
