<?xml version="1.0" encoding="iso-8859-1"?>
<!-- Generator: Adobe Illustrator 19.0.0, SVG Export Plug-In . SVG Version: 6.00 Build 0)  -->
<svg version="1.1" id="Capa_1" xmlns="http://www.w3.org/2000/svg" xmlns:xlink="http://www.w3.org/1999/xlink" x="0px" y="0px"
	 viewBox="0 0 115.668 115.668" style="enable-background:new 0 0 115.668 115.668;" xml:space="preserve">
	<path d="M57.834,0C25.893,0,0,25.893,0,57.834c0,31.94,25.893,57.834,57.834,57.834c31.94,0,57.834-25.894,57.834-57.834
		C115.668,25.893,89.775,0,57.834,0z M23.828,66.199c-4.619,0-8.364-3.745-8.364-8.364s3.745-8.364,8.364-8.364
		c4.62,0,8.364,3.745,8.364,8.364S28.448,66.199,23.828,66.199z M57.635,97.437c-10.04,0-18.208-7.281-18.208-16.231h6
		c0,5.642,5.477,10.231,12.208,10.231c6.73,0,12.208-4.591,12.208-10.231h6C75.843,90.153,67.675,97.437,57.635,97.437z
		 M91.841,66.199c-4.619,0-8.364-3.745-8.364-8.364s3.745-8.364,8.364-8.364s8.364,3.745,8.364,8.364S96.46,66.199,91.841,66.199z"
		/>
</svg>
