<?xml version="1.0" encoding="iso-8859-1"?>
<!-- Generator: Adobe Illustrator 19.0.0, SVG Export Plug-In . SVG Version: 6.00 Build 0)  -->
<svg version="1.1" id="Capa_1" xmlns="http://www.w3.org/2000/svg" xmlns:xlink="http://www.w3.org/1999/xlink" x="0px" y="0px"
	 viewBox="0 0 115.668 115.668" style="enable-background:new 0 0 115.668 115.668;" xml:space="preserve">
	<path d="M57.834,0C25.893,0,0,25.893,0,57.834s25.893,57.834,57.834,57.834c31.94,0,57.834-25.893,57.834-57.834S89.775,0,57.834,0
		z M29.139,53.358c-4.545,0-8.242,4.423-8.242,9.86h-6c0-8.746,6.389-15.86,14.242-15.86s14.242,7.114,14.242,15.86h-6
		C37.381,57.779,33.684,53.358,29.139,53.358z M57.635,97.436c-10.041,0-18.209-7.281-18.209-16.231h6
		c0,5.642,5.477,10.231,12.209,10.231c6.731,0,12.207-4.591,12.207-10.231h6C75.842,90.152,67.674,97.436,57.635,97.436z
		 M94.771,63.218c0-5.438-3.697-9.86-8.242-9.86s-8.242,4.423-8.242,9.86h-6c0-8.746,6.389-15.86,14.242-15.86
		s14.242,7.114,14.242,15.86H94.771z"/>
</svg>
