<?xml version="1.0" encoding="iso-8859-1"?>
<!-- Generator: Adobe Illustrator 19.0.0, SVG Export Plug-In . SVG Version: 6.00 Build 0)  -->
<svg version="1.1" id="Capa_1" xmlns="http://www.w3.org/2000/svg" xmlns:xlink="http://www.w3.org/1999/xlink" x="0px" y="0px"
	 viewBox="0 0 115.668 115.668" style="enable-background:new 0 0 115.668 115.668;" xml:space="preserve">
	<path d="M57.834,0C25.894,0,0,25.893,0,57.834s25.894,57.834,57.834,57.834c31.941,0,57.834-25.893,57.834-57.834
		S89.775,0,57.834,0z M37.381,63.218c0-5.438-3.697-9.86-8.242-9.86s-8.242,4.423-8.242,9.86h-6c0-8.746,6.389-15.86,14.242-15.86
		s14.242,7.114,14.242,15.86H37.381z M67.845,99.934c-0.523,1.084-1.229,1.998-2.111,2.74c-0.885,0.744-1.898,1.309-3.048,1.695
		c-1.147,0.387-2.353,0.58-3.608,0.58c-1.448,0-2.773-0.217-3.978-0.648c-1.204-0.433-2.235-1.064-3.096-1.894
		c-0.861-0.828-1.525-1.841-1.989-3.034c-0.465-1.193-0.684-2.557-0.656-4.087h4.578c0.037,0.721,0.162,1.399,0.376,2.037
		c0.215,0.637,0.529,1.194,0.944,1.667c0.414,0.475,0.929,0.85,1.545,1.128c0.614,0.276,1.341,0.417,2.18,0.417
		c0.664,0,1.282-0.1,1.854-0.303c0.568-0.198,1.064-0.484,1.488-0.854c0.424-0.368,0.756-0.813,0.998-1.332
		c0.241-0.52,0.362-1.094,0.362-1.722c0-0.857-0.169-1.56-0.507-2.106c-0.336-0.546-0.782-0.97-1.34-1.27
		c-0.555-0.301-1.186-0.495-1.887-0.582c-0.701-0.086-1.42-0.102-2.159-0.047v-3.717c0.064,0.008,0.114,0.013,0.149,0.013
		c0.037,0,0.069,0,0.096,0c0.028,0,0.061-0.002,0.097-0.007c0.037-0.004,0.091-0.006,0.164-0.006c0.593,0,1.18-0.051,1.763-0.151
		s1.108-0.275,1.572-0.526c0.465-0.251,0.842-0.594,1.128-1.031s0.432-0.998,0.432-1.682c0-0.563-0.115-1.066-0.343-1.51
		c-0.229-0.441-0.53-0.814-0.909-1.121s-0.816-0.537-1.313-0.697c-0.497-0.158-1.016-0.238-1.553-0.238
		c-0.737,0-1.39,0.117-1.953,0.354c-0.566,0.237-1.037,0.567-1.415,0.992c-0.378,0.423-0.663,0.928-0.854,1.516
		c-0.192,0.589-0.283,1.229-0.274,1.921h-4.562c0.055-1.356,0.308-2.6,0.76-3.725c0.45-1.125,1.068-2.094,1.858-2.905
		c0.786-0.81,1.724-1.44,2.808-1.894c1.085-0.45,2.284-0.676,3.596-0.676c0.683,0,1.369,0.072,2.058,0.22
		c0.688,0.146,1.351,0.358,1.987,0.642c0.639,0.283,1.232,0.633,1.783,1.047c0.552,0.414,1.033,0.895,1.442,1.44
		c0.409,0.547,0.733,1.157,0.97,1.832s0.356,1.407,0.356,2.2c0,0.639-0.079,1.25-0.233,1.839c-0.154,0.588-0.388,1.123-0.703,1.606
		c-0.313,0.481-0.705,0.9-1.176,1.256c-0.47,0.356-1.015,0.619-1.633,0.793v0.015c0.738,0.165,1.396,0.433,1.98,0.807
		s1.08,0.827,1.49,1.359c0.409,0.532,0.726,1.133,0.943,1.799c0.219,0.664,0.327,1.369,0.327,2.118
		C68.631,97.605,68.368,98.85,67.845,99.934z M94.77,63.218c0-5.438-3.696-9.86-8.241-9.86s-8.242,4.423-8.242,9.86h-6
		c0-8.746,6.389-15.86,14.242-15.86s14.241,7.114,14.241,15.86H94.77z"/>
</svg>
