<?xml version="1.0" encoding="iso-8859-1"?>
<!-- Generator: Adobe Illustrator 19.0.0, SVG Export Plug-In . SVG Version: 6.00 Build 0)  -->
<svg version="1.1" id="Capa_1" xmlns="http://www.w3.org/2000/svg" xmlns:xlink="http://www.w3.org/1999/xlink" x="0px" y="0px"
	 viewBox="0 0 115.67 115.67" style="enable-background:new 0 0 115.67 115.67;" xml:space="preserve">
	<path d="M66.406,94.955c3.966,0,7.249-3.478,7.804-7.986H58.601C59.156,91.478,62.439,94.955,66.406,94.955z"/>
	<path d="M57.835,0C25.896,0,0.001,25.895,0.001,57.834s25.895,57.836,57.834,57.836c31.941,0,57.834-25.896,57.834-57.836
		S89.777,0,57.835,0z M22.807,65.627v0.012c-0.011-0.006-12.725-6.971-13.101-12.477c-0.399-5.867,3.088-8.127,6.629-8.127
		c2.473,0,5.395,3.47,6.466,5.701c1.069-2.23,3.995-5.709,6.47-5.709c3.541,0,7.029,2.26,6.629,8.127
		C35.527,58.627,22.971,65.537,22.807,65.627z M80.308,86.969H80.24c-0.621,7.825-6.584,13.986-13.834,13.986
		s-13.213-6.161-13.834-13.986H34.966v-6h45.342V86.969z M92.473,65.627v0.012c-0.01-0.006-12.725-6.971-13.1-12.477
		c-0.4-5.867,3.088-8.127,6.629-8.127c2.473,0,5.394,3.47,6.465,5.701c1.07-2.23,3.995-5.709,6.471-5.709
		c3.541,0,7.028,2.26,6.629,8.127C105.194,58.627,92.637,65.537,92.473,65.627z"/>
</svg>
