<?xml version="1.0" encoding="iso-8859-1"?>
<!-- Generator: Adobe Illustrator 19.0.0, SVG Export Plug-In . SVG Version: 6.00 Build 0)  -->
<svg version="1.1" id="Capa_1" xmlns="http://www.w3.org/2000/svg" xmlns:xlink="http://www.w3.org/1999/xlink" x="0px" y="0px"
	 viewBox="0 0 115.669 115.669" style="enable-background:new 0 0 115.669 115.669;" xml:space="preserve">
	<path d="M57.834,0C25.896,0,0.001,25.894,0.001,57.834c0,31.939,25.895,57.835,57.834,57.835c31.941,0,57.834-25.896,57.834-57.835
		C115.669,25.894,89.777,0,57.834,0z M23.828,66.199c-4.618,0-8.363-3.745-8.363-8.364c0-4.62,3.745-8.364,8.363-8.364
		c4.621,0,8.365,3.744,8.365,8.364C32.194,62.454,28.449,66.199,23.828,66.199z M67.992,92.317l-4.243,4.243l-6.113-6.113
		l-6.115,6.113l-4.242-4.243l6.113-6.113l-6.113-6.113l4.242-4.243l6.115,6.113l6.113-6.113l4.243,4.243l-6.113,6.113L67.992,92.317
		z M91.842,66.199c-4.619,0-8.364-3.745-8.364-8.364c0-4.62,3.745-8.364,8.364-8.364s8.364,3.744,8.364,8.364
		C100.206,62.454,96.461,66.199,91.842,66.199z"/>
</svg>
