<?xml version="1.0" encoding="iso-8859-1"?>
<!-- Generator: Adobe Illustrator 19.0.0, SVG Export Plug-In . SVG Version: 6.00 Build 0)  -->
<svg version="1.1" id="Capa_1" xmlns="http://www.w3.org/2000/svg" xmlns:xlink="http://www.w3.org/1999/xlink" x="0px" y="0px"
	 viewBox="0 0 115.668 115.668" style="enable-background:new 0 0 115.668 115.668;" xml:space="preserve">
	<path d="M66.405,94.957c3.965,0,7.248-3.478,7.803-7.986H58.599C59.155,91.48,62.437,94.957,66.405,94.957z"/>
	<path d="M57.834,0C25.893,0,0,25.893,0,57.834c0,31.94,25.893,57.834,57.834,57.834c31.94,0,57.834-25.894,57.834-57.834
		C115.668,25.893,89.775,0,57.834,0z M15.871,64.362l11.785-6.527l-11.785-6.527l2.907-5.249L40.04,57.835L18.778,69.61
		L15.871,64.362z M66.403,100.957c-7.25,0-13.212-6.161-13.833-13.986H34.964v-6h45.342l0.017,5.968
		C79.701,94.765,73.653,100.957,66.403,100.957z M96.89,69.61L75.627,57.835L96.89,46.059l2.906,5.249l-11.784,6.527l11.784,6.527
		L96.89,69.61z"/>
</svg>
