<?xml version="1.0" encoding="utf-8"?>
<!-- Generator: Adobe Illustrator 22.1.0, SVG Export Plug-In . SVG Version: 6.00 Build 0)  -->
<svg version="1.1" xmlns="http://www.w3.org/2000/svg" xmlns:xlink="http://www.w3.org/1999/xlink" x="0px" y="0px"
	 viewBox="0 0 443.5 414" style="enable-background:new 0 0 443.5 414;" xml:space="preserve">
<style type="text/css">
	.st0{fill:#84B7AB;}
	.st1{opacity:0.2;fill-rule:evenodd;clip-rule:evenodd;fill:#ADADAD;}
	.st2{fill:#FFCEBB;}
	.st3{fill:#FFFFFF;}
	.st4{fill:#1E1E1E;}
	.st5{fill:#E26640;}
	.st6{fill:#53C1D4;}
	.st7{fill:#008CAF;}
	.st8{fill:#004B61;}
	.st9{fill:none;stroke:#003846;stroke-miterlimit:10;}
	.st10{fill:#D8D8D8;}
	.st11{fill:#FFA27C;}
	.st12{fill:#EDEDED;}
	.st13{fill:#F7BDAA;}
	.st14{fill:#466DA5;}
	.st15{fill:#232020;}
	.st16{fill:#C93131;}
	.st17{opacity:0.5;}
	.st18{fill:#FFA49F;}
	.st19{fill:#A51613;}
	.st20{fill:#FFFCF3;}
	.st21{fill:#BABABA;}
	.st22{fill:#FFD8B8;}
	.st23{clip-path:url(#SVGID_2_);}
	.st24{fill:#381B0B;}
	.st25{fill:#911717;}
	.st26{fill:#F7C74D;}
	.st27{fill:#EF9797;}
	.st28{fill:#84817F;}
	.st29{fill:#9E9D9D;}
	.st30{fill:#824082;}
	.st31{fill:none;stroke:#FFFFFF;stroke-width:0.5;stroke-linecap:round;stroke-linejoin:round;stroke-miterlimit:10;}
	.st32{clip-path:url(#SVGID_4_);}
	.st33{fill:#F4F4F4;}
	.st34{fill:#D8A636;}
	.st35{fill:none;stroke:#BABABA;stroke-width:0.75;stroke-linecap:round;stroke-linejoin:round;stroke-miterlimit:10;}
	.st36{fill:#003846;}
	.st37{fill:#FFCD00;}
	.st38{fill:#3A1E0B;}
	.st39{fill:#6A0202;}
	.st40{fill:#924B91;}
	.st41{clip-path:url(#SVGID_6_);}
	.st42{clip-path:url(#SVGID_8_);}
</style>
<g id="BACKGROUND">
	<path class="st0" d="M438.1,391.3c0,12.6-98.1,22.7-219.1,22.7S0,403.9,0,391.3c0-12.6,98.1-22.7,219.1-22.7
		S438.1,378.8,438.1,391.3z"/>
	<polygon class="st1" points="13.3,15.4 414.8,22.4 389.8,360.3 44.8,345.4 	"/>
</g>
<g id="OBJECTS">
	<g>
		<g>
			<g>
				<path class="st2" d="M354.8,284.1c0,8.5-1.4,25.8-1.9,33.8c-1,17.5,0,43.7-1.6,57.1c-7.5-1.5-23.3-9.2-24.7-4.5
					c-1.5,5.1,21.5,11.3,32.5,13.8l0.8-1.4c-1.5-28.5,6.1-70.8,6.1-98.8H354.8z"/>
			</g>
			<g>
				<path class="st3" d="M360.9,363.9c-0.1,0.8-0.1,1.6-0.2,2.4c-0.1,3.3-0.3,7.3-2.8,9.7c-1.4,1.3-3.2,1.3-4.9,0.7
					c-1-0.3-2.5-0.8-3-1.7c-0.5-0.9,0.1-2.4,0-3.4c-0.1-2.4,0-4.7,0.2-7c0.3-3,0.6-6,0.7-9.1c0-1.5-1.5-5.2,1.1-4.4
					c1,0.3,1.8,0.9,2.9,1.1c1.8,0.4,4.8,0.6,6.5-0.3c0.8,0.6,0.9,1.5,0.8,2.5C361.9,357.6,361.3,360.7,360.9,363.9z"/>
			</g>
			<g>
				<path class="st4" d="M360.6,374.6c-0.2-0.1-0.5-0.2-0.8-0.4c-3.2-1.1-7.8,1.8-10.3-2.5c-3.9,1.4-10.5-2.7-14.4-3.5
					c-2-0.4-5.7-1.5-8-0.9c-4.4,1.2-0.6,5.4,1.3,7.3c2.8,2.8,7.2,3.8,10.9,5c6.9,2.1,14.1,3.3,21.1,5.3c0.2,0.1,0.9-6.2,0.9-6.7
					C361.4,375.9,361.6,375.1,360.6,374.6z"/>
			</g>
			<g>
				<path class="st5" d="M299.5,159c0.7,10.4,0.6,7,0.7,9.9c0.3,11.7,1.4,23.4,2.7,35c1.8,16.1,3.1,32.4,8.6,47.8
					c2.4,6.8,4.8,13.2,8.7,19.3c1.7,2.6,3.5,7,6.3,8.4c0-1.8,0.2-4,0.8-5.5c1.1,0.8,14.8,12,11.6,4.6c4.7,1.8,7.1,8.1,13,7.9
					c0-1.3-0.3-2.6-0.9-3.7c4.4,3.6,8.9,7.6,14.9,8.1c3.5,0.3,6.8-0.7,4.7-4.8c7.9,4,13.4,6.3,22.5,6c7.2-0.2,10.9-3.9,13.6-10.4
					c3.3,4.6,5.6-2.5,5.1-5.2c1.7,9.2,12.1,0,9.8-6.6c1.5,1.3,3.7,4.1,5.9,2.7c1.9-1.3,1.3-4.6,0.3-6.3c1.6,1.4,4.3,5.2,6.1,2.5
					c1.1-1.8-1-5-1.9-6.3c3.9,1.4,7.4,3.2,11.4,0.9c-4.2-7.8-8.2-14.4-11.6-22.7c-6.9-16.8-13.6-34.9-18.3-52.5
					c-3.5-13-5.6-25.7-6.9-39c-1.3-13.9-3.3-29.4-11.9-40.9c-4.8-6.4-9-11.5-16.8-14.6c-7.3-2.9-15.2-3.4-22.9-3.2
					c-8.6,0.2-18.5,2.7-26.2,6.7c-9.6,5-21.4,9-28,18c-9,12.3-15.3,32.3-11.7,47.7c2.7-5,4.7-10.7,7.3-16v1c-1,5.3-1,11.3,0.3,16.3
					C297.5,162.4,298.1,160.4,299.5,159"/>
			</g>
			<g>
				<path class="st6" d="M404.5,191.7c8,5.8,12,15.2,13.9,24.6c2.9,14.3,5.1,32.5-5.9,44.1c-6.6,7.2-16,13.7-26,14.6
					c-9.7,0.8-18.9-6.5-24.6-13.8c-4.3-5.6-8.1-12-10.1-18.7c-3.2-10.8-2.3-22.7,1.6-33.1c3.6-9.8,9.4-20.7,20.3-23.4
					C383.5,183.3,396.2,185.7,404.5,191.7z"/>
			</g>
			<g>
				<path class="st7" d="M367.3,271.4c1.6,0.8,3.3,1.3,5.3,1.5c4.9,0.6,9.6-0.2,14.3-1.9c7.6-2.7,13.6-8.4,16.9-15.7
					c9.7-21.3,2.7-39.7-10.7-57c-9.3-11.7-23.7-14.3-36.3-5c-9.7,7-11.3,20.7-11.3,31.7c0,11.2,2,23.3,8.4,32.7
					c2.3,3.5,3.7,6.5,7,9.2C363,268.8,365,270.3,367.3,271.4z"/>
			</g>
			<g>
				<path class="st4" d="M429.5,339c-0.2-0.4-0.3-0.8-0.4-1.2c-1.1-4-0.8-8.6-0.5-12.6c0.3-3.7,0.3-6.4-0.6-10.1
					c-0.4-1.7-1.4-4.7-0.5-6.4c1-1.9,4.3-3.2,6.1-4c3-1.2,4-0.5,4.7,2.5c1.8,8.2,1.8,15.4,0.1,23.5c-0.5,2.5-2.5,13.3-6.9,10.9
					C430.5,341,429.9,340,429.5,339z"/>
			</g>
			<g>
				<path class="st3" d="M419.4,332.6c-0.4,0.2-0.9,0.2-1.3,0.2c-3.7-0.5-3.6-5.6-3.3-8.4c0.5-4.6,4.6-7.1,7.8-9.8
					c2.1-1.7,5.4-7.1,8.4-4.6c1.2,1,1.7,2.9,1.6,4.4c-0.1,3.4-2.8,5.9-4.8,8.4C426.3,324.8,422.6,331.4,419.4,332.6z"/>
			</g>
			<g>
				<path class="st2" d="M402.2,349.4c2.1-0.2,4.2-2.4,5.6-3.7c4.1-3.7,7.2-8.2,10.9-12.3c2.4-2.7,4.5-6.9,1.8-10.3
					c-2.9-3.6-7.4,0.8-9.6,2.8c-2.1,1.9-5.4,3.8-6.6,6.5c-2.3-7-4.7-14.2-7.1-21.3c-1-3-2-10.3-4.3-11.3c-4.5-1.9-9.2,2.6-9.8,6.9
					c-0.7,5.2,3.4,11.7,5,16.6c1.1,3.3,2.5,6.4,3.8,9.6c1.3,3,2.6,6.1,4,9c1.2,2.5,2.4,7.4,5.9,7.7
					C401.9,349.4,402,349.4,402.2,349.4z"/>
			</g>
			<path class="st8" d="M340.7,278.9c-0.9,4.7-2,9.4-2.9,14.4c-0.4,2.5-3.6,10.3-2.2,12.6c0.7,1.3,6.7,3.5,8.5,4.4
				c3.6,1.8,6.7,3.5,10.7,4.4c10.8,2.5,22.9,0.6,33.5-2c5.6-1.3,11.7-2.9,16.4-5.8c2.9-1.8,4.3-4.5,6.5-6.7
				c-1.6-6.3-5.6-11.7-7.6-17.7c-1.6-4.7-2.9-9.4-5.2-14.1c-1.3-2.9-2.4-7.4-4.7-14.4c0,0-16.8,14.6-49.2,6.7
				C344.5,260.5,341.4,275.5,340.7,278.9z"/>
			<path class="st9" d="M381.3,259c2.2,13.1,5.6,25.4,9,37.5c1.1,4,2.7,10.8,3.8,13.7"/>
			<path class="st9" d="M389.8,255.3c4.9,12.6,7.7,22.4,11.3,33.2c1.1,3.1,4.7,13.5,5.8,15.6"/>
			<path class="st9" d="M369,261.5c2.7,17.1,5.2,36,6.5,52.5"/>
			<path class="st9" d="M355.9,261.7c-0.6,11.8,0.6,23.3-1.4,34.8c-0.9,5.2-1.3,12.6-2.2,16.4"/>
			<path class="st9" d="M340,307.3c2.5-8.5,4.7-18.2,6.3-27.4c0.9-6.1,0.7-13.5,3.1-19.3"/>
			<g>
				<path class="st10" d="M324.1,215.8c0.1-3.1-0.4-6.4-1.9-9.2c-0.8-1.4-1.8-2.6-3.1-3.5c-0.8-0.6-1.2-0.9-2-0.3
					c-0.5,0.4-0.9,0.9-1.2,1.5c-1.3,3.3-0.8,7.6-0.4,11.1c0.3,2.6,0.5,7.3,2.7,9.2C322.7,228.6,324.1,218.9,324.1,215.8z"/>
			</g>
			<g>
				<path class="st2" d="M309.9,213c-5.7-1.6-11.2-3.7-16-7.1c-4.9-3.4-9.3-7.5-12.6-12.5c-7.2-11.3-11.8-24.1-15.6-37
					c-1.7-5.7-2.7-11.7-4.7-16.7c-1.2-3-3-5.8-4.5-8.7c-0.8-1.4-1.5-2.8-2.2-4.3c-0.6-1.5-1.4-2.9-1.7-4.5c-0.1-0.7-0.4-1.7-0.1-2.3
					c0.5-1,1.7,0.3,2.2,0.8c0.8,0.9,1.2,2.1,1.7,3.1c0.4,0.9,0.5,2,1.2,2.7c0.2,0.2,0.8,0.8,1.1,0.7c0.3-0.1,0.2-0.7,0.2-0.9
					c-0.1-1.6-0.5-3.3-1-4.9c-0.5-1.6-1.1-3.1-1-4.9c0.1-0.7,0.3-1.5,0.7-2.1c0.3-0.4,1.3-1.4,1.9-0.9c-0.8-0.6,0.4-1.9,0.8-2.3
					c0.4-0.4,0.6-0.6,1.1-0.5c0.7,0.1,1.2,0.6,1.7,1.1c2.3-7.7,7.3,11,7.7,14c-0.7-4,4.6-8.1,4.3-1.7c-0.2,3.7-0.3,6.7-1.6,9.7
					c-2,5.7-3.7,6.3-2.3,12c1.3,5,3,9.7,4.7,14.3c2.6,7.4,6,14.5,10.6,20.8c3.5,4.8,8.1,10.1,13,13.6c4.2,3,8.7,5.1,13.4,7.1
					c4.1,1.8,8.2,2.7,12.5,3.5c3.6,0.7,16.8,1.4,15.8,7.2c-0.4,2.3-3,2.9-5,3.6c-8.3,2.7-18-0.7-26-2.9
					C310.1,213.1,310,213,309.9,213z"/>
			</g>
			<g>
				<path class="st11" d="M264.5,137l0-0.6l0-0.6c0.1-0.4,0.2-0.8,0.3-1.1c0.2-0.4,0.3-0.7,0.6-1c0.2-0.3,0.5-0.6,0.8-0.9
					c0.3-0.3,0.6-0.5,0.9-0.7c0.3-0.2,0.7-0.4,1.1-0.5c0.4-0.1,0.8-0.2,1.2-0.3c0.2,0,0.4,0,0.6,0l0.6,0l-0.5,0.5
					c0.1-1.2,0.1-2.5,0.3-3.7c0.1-1.2,0.3-2.4,0.5-3.6c0.1,1.2,0.2,2.4,0.2,3.7c0,1.2,0,2.4,0,3.6l0,0.5l-0.5,0l-0.5,0
					c-0.2,0-0.3,0-0.5,0c-0.3,0-0.7,0.1-1,0.2c-0.3,0.1-0.6,0.3-0.9,0.4c-0.3,0.2-0.6,0.4-0.9,0.6c-0.3,0.2-0.5,0.5-0.8,0.7
					c-0.2,0.3-0.5,0.5-0.6,0.9c-0.2,0.3-0.4,0.6-0.5,1C264.6,136.3,264.5,136.7,264.5,137z"/>
			</g>
			<g>
				<path class="st11" d="M259.5,113.2c0,0,0.3,0.7,0.7,1.8c0.4,1.1,0.8,2.5,1.2,4c0.4,1.5,0.6,2.9,0.8,4.1c0.1,1.1,0.2,1.9,0.2,1.9
					s-0.3-0.7-0.7-1.8c-0.4-1.1-0.8-2.5-1.2-4c-0.4-1.5-0.6-2.9-0.8-4.1C259.5,114,259.5,113.2,259.5,113.2z"/>
			</g>
			<g>
				<path class="st11" d="M263.2,111.4c0,0,0.3,0.7,0.6,1.9c0.1,0.3,0.2,0.6,0.2,0.9c0.1,0.3,0.2,0.6,0.3,1c0.2,0.7,0.4,1.4,0.6,2.1
					c0.4,1.5,0.7,3,0.9,4.1c0.2,1.1,0.2,1.9,0.2,1.9s-0.4-0.7-0.8-1.8c-0.4-1.1-0.9-2.5-1.3-4c-0.2-0.8-0.3-1.5-0.5-2.2
					c-0.1-0.7-0.2-1.4-0.2-2C263.2,112.2,263.2,111.4,263.2,111.4z"/>
			</g>
			<g>
				<path class="st11" d="M259.5,127.5c0,0,0.1-0.1,0.2-0.4c0.2-0.2,0.4-0.5,0.7-0.9c0.3-0.3,0.7-0.7,1.2-1c0.4-0.4,1-0.7,1.5-1
					c0.3-0.1,0.6-0.3,0.8-0.4c0.3-0.1,0.6-0.2,0.8-0.3c0.5-0.2,1-0.3,1.5-0.4c0.9-0.2,1.5-0.2,1.5-0.2s-0.5,0.3-1.3,0.8
					c-0.8,0.4-1.8,1-2.9,1.5c-0.5,0.3-1,0.5-1.5,0.8c-0.2,0.1-0.5,0.3-0.7,0.4c-0.2,0.1-0.4,0.3-0.6,0.4c-0.4,0.2-0.7,0.4-0.9,0.6
					C259.7,127.4,259.5,127.5,259.5,127.5z"/>
			</g>
			<g>
				<path class="st12" d="M361.1,197.6c4.5-0.7,15.2-6.5,18.8-3c2,2.2,4.1,11.2,4.8,14c2.3,9.4,3.4,15.6,5.4,22.8
					c2.2,7.4,4.9,15.1,5.8,22.7c0.4,3.6-2,5.8-4.7,8.3c-5.8,5.6-16.2,10.1-24.3,10.6c-7,0.2-14.4-1.3-20.9-3.6c-4.5-1.6-4.3-2-4.3-7
					c0-9.7,0.9-19.3,0.7-29c0-3.9,0.3-7.2-0.7-7.5c-1.7-0.5-5.8-1-10-0.8c-3.6,0.1-8.7,0.7-12.1,0.3c1.8-0.4,2.3-8.6,1.9-10.8
					c-1.1-6-1.9-10.8-3.7-12.2l4.3-0.7C322.1,201.9,352.1,198.7,361.1,197.6z"/>
			</g>
			<g>
				<path class="st6" d="M390.5,208.1c-4.3,0.9-11.5,3.1-14.6,6.5c-3.8,4-6.2,15.8-4.4,21c4.7,13,22.8,5.8,31.1-1
					c5.6,6.5-1.3,9-7,11.5c-5.2,2.2-9.9,4-15.7,3.6c-6.3-0.4-12.3-2.5-15-8.5c-2.5-5.6-2.7-13-0.7-18.6c2.9-9.7,13.5-17.7,22.7-20.2
					C387,202.3,389.4,205.8,390.5,208.1z"/>
			</g>
			<path class="st6" d="M342.5,237.4c-2.2-0.9-5-3.6-5.9-4.9c-1.8-2.7-2.8-6.6-3.5-9.8c-1-4.7,0-8.9,1.2-13.5
				c0.7-2.4,1.6-5.4,3.3-7.3c0.7-0.8,1.4-1.6,2.2-2.3c1.5-1.2,2.7-0.1,3.4,1.5c1.1,2.5-0.7,4.9-1.5,7.1c-1.6,4.1-1.9,9.1-1.5,13.5
				c0.1,1.6,0.6,3.4,1.2,4.9c0.3,0.6,0.6,1.1,0.9,1.5L342.5,237.4z"/>
			<g>
				<path class="st3" d="M360.4,193.1c-3.9,1.4-8,2.4-11.9,3.5c-2,0.5-4,1.1-6,1.5c-0.7,0.1-1.4,0-2.1,0.2c-0.9,0.2-1.7,1-2.7,1.1
					c0.1,0.7,4.8,9.9,6.1,11.3c5.1-3,5.1-3,9-5.2c1.6-0.9,7.2,5.5,11.1,8.5c5.4-5.6,16.5-16.9,23-21.4c-1.1-1.8-9.3-4-11.5-4.5
					c-0.4,0-4.5,1.8-5.4,2C367,191.1,363.6,192,360.4,193.1z"/>
			</g>
			<path class="st13" d="M355.7,191c-1.9,0.7-4,2.5-5.4,3.9c-1.6,1.5-2.9,3.9-2,6.2c1,2.6,4.4,3,6.9,2.9c4.3-0.2,10.2-3.4,12.7-6.8
				c2.7-3.6,3-7.3-2.3-8.1C362.1,188.5,359,189.7,355.7,191z"/>
			<g>
				<path class="st14" d="M330.1,96.4c3.9-3.4,24.5-4.4,30.5-3.2c8.5,1.8,16.5,6.3,22,13.5c9.5,12.4,13.2,41.8,10.1,46
					c-0.6-3.2-5.5-24.7-13.5-33c-23.2-24.2-57.2-19.3-57.2-19.3S329,97.5,330.1,96.4z"/>
			</g>
			<g>
				<path class="st2" d="M303,152.4c4.7,13.5,1.3,31,10.3,42.7c8.3,10.6,24.5,10.8,36.4,8.8c10.8-1.8,23.1-9.7,31-16.8
					c3.6-3.6,6.7-7.4,10.1-11c1.3-1.3,1.3-1.6,2.9-2.2c1.8-0.9,3.4-0.9,5.4-2.5c4.7-3.6,9.2-10.3,7-16.4c-3.8-9.2-13.5-1.1-16.2,4.5
					c-0.1-3.2,0.3-4.9-3.4-10.1c-1.1-1.5-17.9-19.3-21.8-23.8c-3.1-3.6-5.2-8.5-8.3-11.9c-1.8,4-3.6,8.8-6.5,12.1
					c-4,4.5-4.7,1.3-4.5-2.9c-0.4,2-1.6,5.9-3.4,4.7c-1.1-3.1,0.9-7.6,2-10.8c-2.9,7-12.4,14-19.9,20.3
					C316.3,143.7,303,152.4,303,152.4z"/>
			</g>
			<g>
				<path class="st15" d="M328.4,172.5c0.8-1.9-0.2-4.1-2.4-4c-1.9,0.1-2.4,2.4-1.8,3.9C324.9,174.1,327.7,174.2,328.4,172.5
					C328.4,172.5,328.4,172.5,328.4,172.5z"/>
			</g>
			<g>
				<path class="st5" d="M314.4,148.6c0.7-2.2,2.5-3.6,4.7-4"/>
			</g>
			<g>
				<path class="st5" d="M352.8,134.9c2-0.9,4.3,0.7,5.8,2.2"/>
			</g>
			<g>
				<path class="st15" d="M362.7,160.5c-0.9-1.8-3.7-2.7-4.7-0.5c-0.9,2.2,0.7,5.3,3.2,4.2C362.8,163.6,363.4,162.1,362.7,160.5z"/>
			</g>
			<g>
				<path class="st11" d="M334.2,170.6c-0.6,0.9-1.3,1.7-2,2.5c-0.3,0.4-0.7,0.8-1,1.2c-0.2,0.2-0.3,0.4-0.4,0.6
					c-0.1,0.2-0.1,0.4-0.2,0.6l0,0l0,0.5l0.1,0.5l0.2,0.5l0.3,0.4c0.1,0.1,0.2,0.3,0.3,0.4l0.4,0.4c0.3,0.2,0.6,0.4,0.9,0.6l0.5,0.2
					l0.5,0.2c0.4,0.1,0.7,0.2,1.1,0.2l0.6,0c0.2,0,0.4-0.1,0.6-0.1l0.6-0.2l0.5-0.3c-0.1,0.1-0.3,0.3-0.5,0.4
					c-0.2,0.1-0.4,0.2-0.5,0.3c-0.2,0.1-0.4,0.2-0.6,0.2c-0.2,0-0.4,0.1-0.6,0.1c-0.4,0-0.9,0-1.3,0l-0.6-0.1l-0.6-0.2
					c-0.4-0.2-0.8-0.4-1.2-0.6c-0.4-0.3-0.7-0.6-1-0.9c-0.1-0.2-0.3-0.4-0.4-0.6c-0.1-0.2-0.2-0.4-0.3-0.6l-0.1-0.7l0.1-0.7v0
					l-0.1,0c0.1-0.3,0.1-0.7,0.3-0.9c0.2-0.2,0.3-0.5,0.5-0.7c0.4-0.4,0.8-0.8,1.2-1.2c0.4-0.4,0.8-0.7,1.3-1
					C333.3,171.3,333.7,171,334.2,170.6z"/>
			</g>
			<g>
				<path class="st16" d="M336.4,187.5c3.6,3.8,9.7,5.2,13.9,1.3c3.8-3.1,7.2-9.2,5.4-14.4c-4.5,5-11.6,10.6-18.7,12.6L336.4,187.5z
					"/>
			</g>
			<g class="st17">
				<path class="st18" d="M374.8,163.4c-0.1-2.1-2.4-2.2-3.9-1.7c-1.6,0.6-4.5,3.6-1.9,4.8C370.9,167.4,375,165.9,374.8,163.4z"/>
			</g>
			<g class="st17">
				<path class="st18" d="M321.8,179.4c-1-1.8-4.4-1-5.6,0.1c-1.1,1-1.1,2.9,0.2,3.8C318.4,184.7,323.4,182.2,321.8,179.4z"/>
			</g>
		</g>
		<g>
			<g>
				<path class="st19" d="M265.3,180.4c25,8,49.5,18,74.5,26.5c12,4,28.5,6.5,30,20c2,16.5,1,34.5,1,51.5c0,28,1.5,95,1.5,100.5
					c0,9.5,0,6.5-8,6.5c-5,0-12.1,0.8-17.1,2.8c-2,0.5-6.1,2.4-7.1,4.4c0.5,6,1,13.1-3.7,12.2c-54.3-10.7-116.6-34.9-116.6-40.9
					c0-20.1-7.1-174.9-4.6-180.4c2.3-4.9,9-8.2,13.9-9.3C241.3,171.4,254,176.8,265.3,180.4z"/>
			</g>
			<path class="st20" d="M220.8,193.4c31.5,16,67.5,21.4,100,34.4c4.5,1.8,10.8,4,12,5.1c6.4,5.7,7.1,165.2,7.6,165.7
				c5.3-4.5,19.6-12.2,25.6-13.2c0.6-9.8-3.6-135.6-3.6-150.6c0-6.5,1.6-9.9-3.4-14.4c-6.5-5-110.1-44.1-122.1-42.1
				c-5,1-26,9-15,15.5"/>
			<g>
				<path class="st21" d="M226.8,184.4c0,0,0.7,0.2,1.9,0.5c1.2,0.4,3,0.8,5,1.5c2.1,0.6,4.5,1.3,7.1,2.2c2.6,0.8,5.3,1.7,8.1,2.6
					c2.7,0.9,5.5,1.9,8.1,2.7c2.6,0.9,5,1.7,7,2.5c2,0.7,3.7,1.4,4.9,1.8c1.2,0.5,1.9,0.7,1.9,0.7s-0.7-0.2-1.9-0.5
					c-1.2-0.4-3-0.8-5-1.5c-2.1-0.6-4.5-1.3-7.1-2.2c-2.6-0.8-5.3-1.7-8.1-2.6c-2.7-0.9-5.5-1.9-8.1-2.7c-2.6-0.9-4.9-1.7-7-2.5
					c-2-0.7-3.7-1.4-4.9-1.8C227.5,184.6,226.8,184.4,226.8,184.4z"/>
			</g>
			<g>
				<path class="st21" d="M231.8,181.4c0,0,1,0.3,2.7,0.9c1.7,0.6,4.2,1.4,7.2,2.5c3,1.1,6.4,2.2,10.1,3.6c3.7,1.3,7.6,2.8,11.5,4.2
					c3.9,1.4,7.9,2.8,11.6,4c3.7,1.3,7.1,2.6,10.1,3.6c3,1.1,5.4,2,7.1,2.6c1.7,0.7,2.7,1,2.7,1s-1-0.3-2.8-0.8
					c-1.7-0.6-4.2-1.3-7.2-2.3c-3-1-6.5-2.1-10.2-3.3c-3.7-1.3-7.7-2.6-11.6-3.9c-3.9-1.5-7.8-3-11.5-4.3c-3.7-1.4-7.1-2.7-10-3.9
					c-2.9-1.1-5.3-2.1-7-2.8C232.8,181.8,231.8,181.4,231.8,181.4z"/>
			</g>
			<g>
				<path class="st21" d="M332.8,232.9c0,0,0.2-0.5,0.5-1.3c0.1-0.2,0.2-0.4,0.3-0.7c0.1-0.2,0.3-0.5,0.4-0.8
					c0.2-0.3,0.3-0.6,0.5-0.9c0.2-0.3,0.4-0.6,0.6-0.9c0.2-0.3,0.5-0.6,0.7-0.9c0.3-0.3,0.6-0.6,0.9-0.9c0.3-0.3,0.7-0.6,1-0.9
					c0.4-0.3,0.7-0.6,1.2-0.8c0.8-0.5,1.7-1,2.6-1.3c0.5-0.2,0.9-0.4,1.4-0.5c0.5-0.1,1-0.3,1.5-0.4c1-0.2,2-0.5,2.9-0.6
					c1-0.2,1.9-0.2,2.9-0.3c0.9-0.1,1.8-0.1,2.7-0.1c0.9,0,1.7,0,2.4,0c1.5,0,2.7,0.1,3.6,0.1c0.9,0.1,1.4,0.1,1.4,0.1
					s-0.5,0-1.4,0.1c-0.9,0.1-2.1,0.1-3.6,0.2c-0.7,0-1.5,0.1-2.4,0.2c-0.8,0.1-1.7,0.2-2.7,0.3c-0.9,0.1-1.9,0.2-2.8,0.4
					c-1,0.1-1.9,0.4-2.9,0.6c-0.5,0.1-0.9,0.3-1.4,0.4c-0.5,0.1-0.9,0.3-1.4,0.5c-0.4,0.2-0.9,0.3-1.3,0.5c-0.4,0.2-0.8,0.4-1.2,0.6
					c-0.4,0.2-0.8,0.5-1.1,0.7c-0.4,0.2-0.7,0.5-1,0.7c-0.3,0.3-0.6,0.5-0.9,0.8c-0.3,0.3-0.5,0.6-0.8,0.8c-0.5,0.5-0.9,1.1-1.2,1.6
					c-0.2,0.2-0.3,0.5-0.5,0.7c-0.1,0.2-0.2,0.4-0.3,0.6C333,232.4,332.8,232.9,332.8,232.9z"/>
			</g>
			<g>
				<path class="st21" d="M347.3,222.4c0,0,0,0.5,0.1,1.5c0,0.9,0.1,2.3,0.2,3.9c0,1.6,0.1,3.5,0.2,5.4c0,2,0,4.1,0.1,6.2
					c0,2.1,0,4.3-0.1,6.2c0,2-0.1,3.9-0.2,5.4c0,1.6-0.1,2.9-0.2,3.9c-0.1,0.9-0.1,1.5-0.1,1.5s0-0.5-0.1-1.5c0-0.9-0.1-2.3-0.2-3.9
					c0-1.6-0.1-3.5-0.2-5.4c0-2,0-4.1-0.1-6.2c0-2.1,0-4.3,0.1-6.2c0-2,0.1-3.9,0.2-5.4c0-1.6,0.1-2.9,0.2-3.9
					C347.3,222.9,347.3,222.4,347.3,222.4z"/>
			</g>
			<g>
				<path class="st21" d="M344.7,222.9c0,0,0,1.1,0,3c0,1.9,0,4.6,0,7.8c0,3.2-0.1,7,0,11.1c0,4,0.1,8.4,0.1,12.7
					c0,4.3,0.1,8.6,0.1,12.7c0.1,4,0,7.8,0,11.1c0,3.2-0.1,5.9-0.1,7.8c0,1.9-0.1,3-0.1,3s0-1.1-0.1-3c-0.1-1.9-0.2-4.6-0.3-7.8
					c-0.1-3.2-0.2-7-0.3-11.1c-0.1-4-0.2-8.4-0.2-12.7c0-4.3,0-8.6,0-12.7c0-2,0.1-4,0.1-5.8c0.1-1.9,0.1-3.6,0.2-5.2
					c0.1-3.2,0.3-5.9,0.4-7.8C344.7,224,344.7,222.9,344.7,222.9z"/>
			</g>
			<g>
				<path class="st21" d="M348.2,393.3c0,0-0.1-1.4-0.2-3.9c-0.1-2.5-0.4-6.1-0.6-10.3c-0.1-2.1-0.2-4.5-0.4-6.9
					c-0.1-2.5-0.3-5-0.4-7.7c-0.2-5.4-0.5-11.1-0.6-16.8c-0.1-2.9-0.1-5.7-0.2-8.5c-0.1-2.8-0.1-5.6-0.1-8.3c0-2.7-0.1-5.3-0.1-7.7
					c0-2.5,0.1-4.8,0.1-6.9c0-2.1,0-4.1,0.1-5.9c0.1-1.7,0.2-3.3,0.3-4.5c0.2-2.5,0.3-3.9,0.3-3.9s0,1.4-0.1,3.9
					c0,1.2-0.1,2.8-0.1,4.5c0,1.7,0.1,3.7,0.1,5.8c0,2.1,0.1,4.5,0.1,6.9c0.1,2.5,0.1,5,0.2,7.7c0.1,2.7,0.1,5.4,0.2,8.3
					c0.1,2.8,0.2,5.7,0.3,8.5c0.3,11.4,0.7,22.9,0.9,31.4c0.1,4.3,0.2,7.9,0.2,10.4C348.2,391.9,348.2,393.3,348.2,393.3z"/>
			</g>
			<g>
				<path class="st21" d="M352.1,390.4c0,0-0.1-0.8-0.2-2.1c-0.1-1.4-0.3-3.3-0.4-5.6c-0.1-1.2-0.2-2.4-0.2-3.7
					c0-1.3-0.1-2.7-0.1-4.2c0-2.9-0.1-6-0.1-9.1c0-3.1,0-6.2,0-9.1c0-1.5,0-2.9,0-4.2c0-1.3,0-2.6,0-3.8c0-2.3,0.1-4.3,0.1-5.6
					c0-1.4,0.1-2.1,0.1-2.1s0.1,0.8,0.1,2.1c0.1,1.4,0.2,3.3,0.3,5.6c0,1.2,0.1,2.4,0.1,3.8c0,1.3,0.1,2.7,0.1,4.2
					c0,2.9,0.1,6,0.1,9.1c0,3.1,0,6.2,0,9.1c0,1.5,0,2.9,0,4.2c0,1.3,0,2.6,0,3.8c0,2.3,0,4.3,0,5.6
					C352.1,389.6,352.1,390.4,352.1,390.4z"/>
			</g>
			<g>
				<path class="st21" d="M303,210c0,0,0.6,0.2,1.8,0.5c1.1,0.3,2.7,0.7,4.7,1.3c1.9,0.6,4.2,1.2,6.6,1.9c2.4,0.7,4.9,1.5,7.5,2.3
					c2.5,0.8,5.1,1.6,7.4,2.5c2.4,0.8,4.6,1.6,6.4,2.3c1.9,0.7,3.4,1.3,4.5,1.7c1.1,0.4,1.7,0.7,1.7,0.7s-0.6-0.2-1.8-0.5
					c-1.1-0.3-2.7-0.8-4.6-1.4c-1.9-0.6-4.2-1.2-6.5-2c-2.4-0.8-4.9-1.6-7.5-2.4c-2.5-0.8-5.1-1.6-7.5-2.4c-2.4-0.8-4.6-1.6-6.5-2.2
					c-1.9-0.6-3.5-1.2-4.6-1.6C303.6,210.2,303,210,303,210z"/>
			</g>
			<g>
				<path class="st21" d="M221.6,186.1C221.5,186.1,221.6,186.1,221.6,186.1l0.2,0.1l0.3,0.1l0.5,0.2l1.1,0.5
					c0.7,0.3,1.4,0.7,2.1,1.1l0,0c2.4,0.9,4.9,1.7,7.3,2.7c2.4,0.8,4.9,1.7,7.3,2.6c2.4,0.8,4.9,1.7,7.3,2.6
					c1.2,0.4,2.4,0.8,3.7,1.3c1.2,0.5,2.4,0.9,3.6,1.4c-1.3-0.3-2.5-0.6-3.8-1c-1.3-0.3-2.5-0.7-3.7-1c-2.5-0.7-5-1.5-7.4-2.3
					c-2.4-0.9-4.9-1.7-7.3-2.7c-2.4-1-4.8-2-7.1-3.1l0,0l0,0c-0.6-0.4-1.3-0.8-2-1.3l-1-0.6l-0.5-0.3l-0.2-0.2L221.6,186.1
					C221.5,186.1,221.5,186.1,221.6,186.1z"/>
			</g>
			<g>
				<path class="st21" d="M343.8,218.9c0,0,0.2,0,0.5,0.1c0.3,0,0.7,0.1,1.1,0.2c0.9,0.2,2.2,0.4,3.4,0.8c1.2,0.3,2.4,0.7,3.3,1.1
					c0.9,0.4,1.5,0.7,1.5,0.7c0,0-0.7,0-1.6-0.1c-1-0.1-2.2-0.4-3.4-0.7c-1.2-0.3-2.4-0.8-3.3-1.2c-0.2-0.1-0.4-0.2-0.6-0.3
					c-0.2-0.1-0.3-0.2-0.4-0.2C343.9,219,343.8,218.9,343.8,218.9z"/>
			</g>
			<g>
				<path class="st21" d="M354.1,222.1c0,0,0.2,0.8,0.4,2.1c0.2,1.3,0.3,2.9,0.4,4.6c0.1,1.7,0,3.4,0,4.6c-0.1,1.3-0.2,2.1-0.2,2.1
					s-0.2-0.8-0.4-2.1c-0.2-1.3-0.3-2.9-0.4-4.6c-0.1-1.7,0-3.4,0-4.6C353.9,223,354.1,222.1,354.1,222.1z"/>
			</g>
		</g>
		<g>
			<g>
				<path class="st2" d="M300.6,257.8c0.3-0.2,0.3-0.7-0.2-1.7c-0.4-0.8-5.2-5.1-3.1-5.9c1.5-0.6,3.2,1,4.3,2c1.3,1.3,2.2,2,3.8,2.6
					c2,0.8,4,1.7,5.7,3c1.8,1.3,3.6,4.4,6,4.5c2,0.1,4.9-0.9,7-1.3c4.8-0.9,12.3-3,17-4.3c15.7-4,28.7-30.1,35.7-42.1
					c13,3.5,2.3,22.5-3.7,28.5c-8,6.5-10.8,17.2-25.6,22.2c-5.5,1.9-14.2,3.1-19.9,4.1c-8.9,1.5-17.4,4.5-26.6,3.9
					c-1.8-0.1-12.6-2.5-11.1-5.2c-1.9-1.8-5.9-1.9-6.2-5.4c0-0.1,1.2,0,1.4,0c-3.6-0.6,0-2.8,1.6-3.2c-0.8-0.6-2.1-1.1-2-2.4
					c0.2-1.4,6.6,0,7.5,0.2c1.9,0.4,3.9,0.6,5.8,0.7C299.2,258,300.2,258.2,300.6,257.8z"/>
			</g>
			<g>
				<path class="st11" d="M286.6,259.5c0,0,0.8,0.1,2,0.3c0.6,0.1,1.3,0.2,2.1,0.3c0.7,0.1,1.5,0.3,2.3,0.4c0.8,0.2,1.6,0.3,2.3,0.5
					c0.7,0.2,1.4,0.3,2,0.5c1.2,0.3,2,0.6,2,0.6s-0.8,0-2.1,0c-0.6,0-1.3-0.1-2.1-0.2c-0.8-0.1-1.6-0.3-2.4-0.4
					c-0.8-0.2-1.6-0.3-2.3-0.6c-0.7-0.2-1.4-0.4-2-0.6C287.4,259.9,286.6,259.5,286.6,259.5z"/>
			</g>
			<g>
				<path class="st11" d="M285,262.7c0,0,0.9,0,2.2,0.2c0.7,0.1,1.4,0.2,2.2,0.4c0.8,0.2,1.7,0.4,2.5,0.6c0.8,0.2,1.7,0.4,2.5,0.6
					c0.4,0.1,0.8,0.2,1.1,0.3c0.4,0.1,0.7,0.2,1,0.2c1.3,0.3,2.1,0.6,2.1,0.6s-0.9,0-2.2,0c-0.3,0-0.7,0-1.1-0.1
					c-0.4,0-0.8-0.1-1.2-0.2c-0.8-0.1-1.7-0.3-2.6-0.5c-0.8-0.2-1.7-0.5-2.5-0.7c-0.8-0.3-1.5-0.5-2.1-0.7
					C285.8,263.1,285,262.7,285,262.7z"/>
			</g>
			<g>
				<path class="st11" d="M289.9,268.2c0,0,0.7,0,1.7,0c0.5,0,1.1,0.1,1.7,0.2c0.6,0,1.3,0.1,1.9,0.2c0.6,0.1,1.3,0.2,1.9,0.2
					c0.6,0.1,1.2,0.2,1.7,0.3c1,0.1,1.6,0.3,1.6,0.3s-0.7,0.2-1.7,0.3c-0.5,0-1.1,0.1-1.7,0c-0.3,0-0.6,0-1,0c-0.3,0-0.7-0.1-1-0.1
					c-0.7-0.1-1.3-0.2-1.9-0.3c-0.6-0.2-1.2-0.3-1.6-0.5C290.5,268.5,289.9,268.2,289.9,268.2z"/>
			</g>
			<g>
				<path class="st3" d="M384.8,235.6c3.3-5.6,5.2-12.2,3-18.3c-0.7-2.1-2.5-5.8-4.7-6.8c-3.5-1.6-6.3,0.8-8.8,2.8
					c-2.1,1.6-4,3.4-5.8,5.3c-3.6,3.7-6.9,7.7-10.2,11.8c3.5,4,7.5,8.5,12,12c1.8,1.2,3.9,3.8,4.9,3.2c1.5-1,3.3-1.8,4.6-3.2
					C381.6,240.4,383.4,238.1,384.8,235.6z"/>
			</g>
		</g>
	</g>
	<g>
		<g>
			<g>
				<path class="st22" d="M146.1,77.4c0,0.7,7.4-22.7,12.7-33.4c7.3-14.7,12.1-29.3,18.1-44c10,29.3,29,73.4,29.1,78.1
					c1.4,44.6-1.3,98.6,1.4,143.3c2,39.3-1.3,79.3-2.7,118.7c-0.7,20-12,22.7-30.7,22.7c-19.3,0-30-5.3-30-24.7
					c-0.7-36-1.3-70.7,1.3-106.7C148.1,189.4,146.1,77.4,146.1,77.4z"/>
			</g>
			<g>
				<defs>
					<path id="SVGID_1_" d="M146.1,77.4c0,0.7,7.4-22.7,12.7-33.4c7.3-14.7,12.1-29.3,18.1-44c10,29.3,29,73.4,29.1,78.1
						c1.4,44.6-1.3,98.6,1.4,143.3c2,39.3-1.3,79.3-2.7,118.7c-0.7,20-12,22.7-30.7,22.7c-19.3,0-30-5.3-30-24.7
						c-0.7-36-1.3-70.7,1.3-106.7C148.1,189.4,146.1,77.4,146.1,77.4z"/>
				</defs>
				<clipPath id="SVGID_2_">
					<use xlink:href="#SVGID_1_"  style="overflow:visible;"/>
				</clipPath>
				<g class="st23">
					<path class="st24" d="M192.1,25.4c0.1-0.5,0.1-1,0.1-1.5c-0.3-3.7-1.9-6.4-3.5-9.6c-1.7-3.3-3.5-6.4-5.2-9.7
						c-2-3.8-3.5-7.9-6.6-10.9c-2.7-2.6-5.2,1.3-5.9,3.9c-1.8,6.7-5.1,12.9-7.3,19.5c-1.7,5.3-3.7,12.8,1.2,17
						C170.8,39.4,190.8,32.7,192.1,25.4z"/>
				</g>
				<g class="st23">
					<path class="st25" d="M142.8,73.4c10.7,13.3,21.6,26.8,33.6,39.5c8-15.3,23.1-28.2,35.1-40.2c4,23.3,0.7,48.7,0.7,72
						c0,19.3,0,39.3,0,58.7c0,39.3-0.7,78.7-0.7,117.3c0,18-6.7,40.7-24,48.7c-13.3,6.7-40,4-48-11.3c-4.7-8.7-2-22.7-2.7-32
						c-0.7-14-2-27.3-3.3-41.3c-2.7-32.7-2-67.3,2-100c2.7-24,7.3-47.3,6.7-71.3c0-13.3-0.7-31.3,0.7-41.3"/>
				</g>
			</g>
			<g>
				<path class="st26" d="M188.1,140.7c0,27.3,2.7,157.3,3.3,196c0,11.3,4.7,48.7-19.3,39.3c-12-4.7-9.3-30.7-9.3-40.7
					c1.3-48,0-94.7-1.3-142c-0.7-29.3-0.8-95,0.6-98.2c2.7-6.1,7.3-11.7,12.1-17.8c0,0,8.8,9.3,13.2,19.8
					C188.7,100.4,188.1,130,188.1,140.7z"/>
			</g>
			<g>
				<path class="st27" d="M161.3,386.4c11.3,2,29.5,2,38.9-5.3c11.3-8.7,8.2-34,5.6-46.7c-18.8,8.7-43.3,8.7-62.1,1.3
					C143.7,335.7,134.3,381,161.3,386.4z"/>
			</g>
			<g>
				<path class="st28" d="M207.4,329.4c-1.1,0.9-2.2,1.7-3.3,2.5c-7,4.6-15.3,6.6-23.4,7.1c-8.5,0.5-17.1-0.6-25.3-2.9
					c-2-0.5-3.9-1.1-5.8-1.8c-1.8-0.6-3.9-1.1-5.5-2.2c-0.7-0.5-1.1-1-2.1-0.6c-0.7,0.3-1.1,1-1.4,1.6c-0.6,1.4-0.7,3.3-0.3,4.8
					c0.5,2.1,1.4,3.7,3.5,4.3c0.9,0.3,1.9,0.6,2.8,0.8c4.7,1.1,9.5,1.8,14.2,2.3c5.8,0.6,11.7,0.9,17.6,0.7
					c5.5-0.1,11.1-0.5,16.6-1.8c3.9-0.9,8.3-2.2,11.2-5.2C208.6,336.4,208.8,332.8,207.4,329.4z"/>
			</g>
			<g>
				<path class="st29" d="M140.9,325c-0.5,1.1-0.7,2.6-0.6,3.6c1,7,8.1,7.6,13.4,8.7c7.5,1.5,15.1,2.5,22.7,2.2c6.9,0,40-4,30-17.3
					c0.4,0.5-10.1,4.9-10.9,5.2c-8.6,2.5-17.7,3.3-26.6,2.7c-4.1-0.2-8.1-1-12.2-1.4c-3.9-0.4-8-0.9-11.4-3.1
					c-0.2-0.1-2.4-2.3-1.9-2.4C142.2,323.5,141.4,323.7,140.9,325z"/>
			</g>
		</g>
		<g>
			<g>
				<path class="st2" d="M65.6,265.8c-1.5,9.7-2.7,19.5-3.8,29.6c-2.2,17.2-6.5,34.2-8.6,51.4c-0.5,3.9-0.3,7.9-1.1,11.8
					c-0.5,2.3,0,5-0.7,7.1c1.5,0.2,3.5,0.7,5,0.5c0.7-0.1,0.6,0.3,1.2-0.3c0.9-0.9,1.2-1.6,1.5-2.9c1.6-6.5,3.6-13,4.7-19.6
					c2-11.5,4.5-23,6.5-34.5c2.5-13.8,4.5-27.4,7.6-40.7"/>
			</g>
			<g>
				<path class="st12" d="M62.8,346.4c0.4,2.3,0,4.8-0.4,7.1c-0.5,3.3-1.2,6.6-2.3,9.7c-0.9,2.9-2.1,6.2-4.4,8.3
					c-0.8,0.7-1.7,1.3-2.8,1.2c-2.5-0.1-3.1-1.9-3.1-4c0-2.5,0.1-5.1,0.2-7.6c0.1-5.1,0.3-10.1,0.3-15.2
					C54.3,345.9,58.8,346.4,62.8,346.4z"/>
			</g>
			<g>
				<path class="st30" d="M47.3,356.9c0.6,3.2,1,6.4,0.9,9.7c-0.1,1.8-0.1,6.1-2.4,6.5c-0.6,0.1-1.2,0.2-1.9,0.3
					c-1.7,0.3-3.4,0.6-5.1,0.9c-1.7,0.3-3.4,0.7-5.1,1.2c-0.9,0.3-2.3,0.6-2.9,1.4c-6.2,10.5,25.6,6.6,30.5,7c0.5-9,0-17.5,2.5-26.5
					C58.3,357.9,52.8,358.4,47.3,356.9z"/>
			</g>
			<path class="st31" d="M42.3,373.9c1.5,1.5,4.5,2.4,6,3.9"/>
			<path class="st31" d="M45.7,373.1c2,1.5,6.1,3.5,7.6,4"/>
			<path class="st31" d="M47.3,371.4c2,1,5.7,2,7.7,2.5"/>
			<path class="st31" d="M48.3,369.1c2.5,0.5,4.5,0.3,7,0.8"/>
			<path class="st31" d="M48.3,365.9c1.5,0,4.6,0,7.1,0.5"/>
			<path class="st31" d="M54.8,357.9c1,6.5,0.5,12.5,0,19c-4,0.5-7,1.3-11.4,1"/>
			<g>
				<defs>
					<path id="SVGID_3_" d="M47.3,356.9c0.6,3.2,1,6.4,0.9,9.7c-0.1,1.8-0.1,6.1-2.4,6.5c-0.6,0.1-1.2,0.2-1.9,0.3
						c-1.7,0.3-3.4,0.6-5.1,0.9c-1.7,0.3-3.4,0.7-5.1,1.2c-0.9,0.3-2.3,0.6-2.9,1.4c-10.7,10.6,26,7,30.5,7c0.5-9,0-17.5,2.5-26.5
						C58.3,357.9,52.8,358.4,47.3,356.9z"/>
				</defs>
				<clipPath id="SVGID_4_">
					<use xlink:href="#SVGID_3_"  style="overflow:visible;"/>
				</clipPath>
				<g class="st32">
					<g>
						<path class="st33" d="M44.8,381.4c4,0,13-0.6,16.6-0.6c2.5,0.9,3.1,2.2,1.8,5.2c-0.4,1-0.9,1.1-2.1,1.3
							c-4.2,0.8-9.1,1.1-13.4,0.8c-4.2-0.3-8.4,0.1-12.5-0.7c-3-0.5-6.1-1.4-8.1-3.9c-2.4-2.9,0-6.2,2.3-8.3c1.6-1.5,3.9-2.3,6-2.6
							c2-0.3,3.8,1.4,5.4,2.5c1,0.7,2,1.6,2.7,2.7C43.6,378.2,45.1,381.4,44.8,381.4z"/>
					</g>
					<path class="st31" d="M55.3,381.4c-0.1-2.4,2.6-5,6.2-3.8"/>
					<g>
						<path class="st3" d="M58.3,365.9c-0.6,1.6-0.8,3.6,0.8,4.7c1.7,1.2,4.5,0.5,5.2-1.5c0.5-1.5-0.3-3.1-1.1-4.3
							C61.7,362.5,59.2,364.1,58.3,365.9z"/>
					</g>
				</g>
			</g>
			<g>
				<path class="st34" d="M79.1,175.3c-24,6.5-43.6,51.6-25.6,72.7c18.7,22,72,19.3,76-12.7c1.3-11.3,0.7-35.3-5.3-44.7
					c-8-14-25.3-16-40-16C84.1,174.7,80.1,175.1,79.1,175.3z"/>
			</g>
			<g>
				<path class="st2" d="M16.4,152.1c-0.2,0.9-0.5,1.7-0.8,2.5c-0.8,2.1-2,3.1-3.4,4.7c-0.8,0.9-1.5,1.9-1.9,3.1
					c-0.9,2.5-1.1,5.2-0.9,7.8c0.2,2.3,0.7,4.7,1.4,6.9c0.7,2.2,2,4,4,5.1c4.6,2.3,5.4,8.1,7.1,12.4c1.5,4,3.1,8,5.1,11.8
					c1.5,2.9,3.3,6,5.8,8.1c1.2,1.1,2.7,2,4.4,1.9c9.5-0.5,23.4-8.7,33.4-11.2c9.4-2.1,38.7,0,50.6-0.3c12-0.5,12.6,3.1,34.6,6.4
					c-5.7,4.5-30.4,13.3-33.9,22.3c-2,5.5,1.1,29,3.2,33.3c2.3,0.2,1.2-4.2,1.2-9c1.5,3.5,4.7,10.5,6.2,9.1c0.7-0.4-3.7-10.6-3-10.5
					c4.6,3.2,6.4,7.7,8.1,7.4c1.2-1.6-3-6.4-6.1-10.1c2.5,1.5,8.8,4.6,9.3,3.5c-0.3-2.7-4.2-3.4-7.1-5.9c-1.6-1.4-0.1-11.7-4.9-16
					c9.1-4,41.8-19.5,42.3-24.8c-0.7-5.9-19.8-8.8-29.3-11.3c-11-3-29.6-9.9-40.6-11.4c-12-2-17.9,0.4-29.4,4.4
					c-10.5,4-20.7,10.8-34.5,14.5c-5-6-8.5-14.5-11.5-21.5c-0.4-1-0.7-2-1.1-3c-0.3-0.6-1.3-5.4-0.4-6.9c0.6-1.1,0.8-2.2,1.1-3.5
					c0.4-1.9,0.7-4.2,0.2-6.2c-0.5-1.9-1.8-3.5-2.3-5.4c-0.2-0.7-0.5-1.5-0.7-2.2c-0.2-0.9,0.1-1.6,0.2-2.6c0.1-1.1,0.1-2.1,0.2-3.2
					c0.2-2.3-0.1-6-1.9-7.8c-1.5-1.5-3.5,0.1-3.8,1.7C16.9,148.3,16.9,150.2,16.4,152.1z"/>
			</g>
			<path class="st31" d="M48,361.7c2,0,4.8-0.3,7.3,0.2"/>
			<path class="st35" d="M29.8,379.9c0,0,8,1.8,16,1.5"/>
			<g>
				<path class="st2" d="M54.3,339.9c7,1.5,18.5,2,25,1c9-1.5,8-9.5,10-18c1.5-8.5,3-17,3-25.5c17.5-2,16.5,7,11,20.5
					c-3,8-4.5,21-9.5,27.5c-6,7.5-17,4-25.5,4s-22.5,3.5-29-3.5c7.5-3.5,10-6.5,18.5-4.5"/>
			</g>
			<g>
				<path class="st8" d="M87.8,245.4c-6-1.1-11.9-3.2-18-3.7c-2.4-0.2-5.2-0.6-6.7,1.6c-1.9,2.8-1.8,6.8-2.9,10
					c-1.4,4.2-3.3,8.3-4.4,12.6c-3.5,10-6,21-10,31c8.5,6.5,22,9.5,32,12c1.5-4,2.3-6.9,4.5-12c4.1,11,3.8,13.2,4.6,14.3
					c0.4,0.5,20.4-1.3,32.9-5.8c-3.5-16-6-32.5-8-48.5c-0.5-7,0-6.5-5-8.5C101.3,245.9,93.3,246.4,87.8,245.4z"/>
			</g>
			<g>
				<path class="st36" d="M82.3,296.9c0,0,0-0.8-0.1-2.2c0-0.7,0-1.5-0.1-2.5c0-0.5,0-1,0-1.5c0-0.5,0-1.1,0.1-1.7
					c0.1-1.2,0.1-2.5,0.2-3.8c0-1.4,0.2-2.8,0.4-4.2c0.2-1.5,0.3-3,0.6-4.5c0.2-1.5,0.4-3.1,0.7-4.6c1.1-6.2,2.2-12.3,3-17
					c0.4-2.3,0.7-4.3,0.9-5.6c0.2-1.4,0.4-2.1,0.4-2.1s-0.1,0.8-0.2,2.2c-0.1,0.7-0.1,1.5-0.2,2.5c-0.1,1-0.2,2-0.3,3.2
					c-0.3,2.3-0.6,5.1-1.1,8c-0.5,2.9-1,6-1.5,9.1c-0.2,1.5-0.5,3.1-0.7,4.6c-0.3,1.5-0.4,3-0.6,4.5c-0.2,1.5-0.4,2.9-0.5,4.2
					c-0.1,1.3-0.2,2.6-0.3,3.8c-0.1,1.2-0.2,2.2-0.2,3.2c0,1-0.1,1.8-0.1,2.5C82.3,296.1,82.3,296.9,82.3,296.9z"/>
			</g>
			<g>
				<path class="st36" d="M81.7,251.1c0,0,0,0.1,0,0.4c0,0.3,0,0.7,0,1.2c0,1-0.1,2.5-0.3,4.3c-0.2,1.8-0.5,3.8-0.8,6
					c-0.3,2.2-0.6,4.5-0.9,6.9c-0.3,2.3-0.5,4.7-0.6,6.9c0,1.1-0.1,2.2-0.1,3.2c0,1,0.1,1.9,0.2,2.8c0.2,0.9,0.3,1.6,0.6,2.3
					c0.1,0.2,0.1,0.3,0.2,0.5c0.1,0.1,0.2,0.3,0.3,0.4c0.1,0.3,0.4,0.4,0.5,0.6c0.4,0.3,0.7,0.6,1,0.6c0.3,0.1,0.4,0.2,0.4,0.2
					s-0.1,0-0.4-0.1c-0.3,0-0.7-0.2-1.1-0.5c-0.2-0.2-0.4-0.4-0.6-0.6c-0.1-0.1-0.2-0.3-0.3-0.4c-0.1-0.2-0.2-0.3-0.3-0.5
					c-0.4-0.7-0.6-1.5-0.8-2.3c-0.2-0.9-0.3-1.9-0.4-2.9c-0.1-1-0.1-2.1-0.1-3.2c0-2.2,0.3-4.6,0.5-7c0.3-2.4,0.6-4.7,1-6.9
					c0.4-2.2,0.8-4.2,1.1-6c0.3-1.7,0.6-3.2,0.7-4.2C81.7,251.7,81.7,251.1,81.7,251.1z"/>
			</g>
			<g>
				<path class="st36" d="M102.8,258.3c0,0,0,0.2,0.1,0.6c0,0.2,0.1,0.4,0.2,0.7c0.1,0.2,0.1,0.5,0.3,0.8c0.1,0.3,0.2,0.6,0.4,0.9
					c0.2,0.3,0.3,0.6,0.6,1c0.2,0.3,0.5,0.6,0.7,0.9c0.3,0.3,0.5,0.6,0.9,0.9c0.3,0.3,0.6,0.5,0.9,0.8c0.3,0.2,0.7,0.5,1,0.7
					c0.3,0.2,0.7,0.4,1,0.5c0.3,0.2,0.6,0.3,0.9,0.4c0.3,0.1,0.6,0.2,0.8,0.3c0.2,0.1,0.5,0.1,0.7,0.2c0.4,0.1,0.6,0.1,0.6,0.1
					s-0.2,0-0.6,0.1c-0.4,0-0.9,0-1.6-0.1c-0.3-0.1-0.7-0.1-1.1-0.3c-0.4-0.1-0.8-0.3-1.1-0.5c-0.4-0.2-0.8-0.4-1.1-0.6
					c-0.4-0.3-0.7-0.5-1.1-0.8c-0.3-0.3-0.6-0.7-0.9-1c-0.3-0.4-0.5-0.7-0.7-1.1c-0.2-0.4-0.4-0.8-0.5-1.1c-0.2-0.4-0.2-0.7-0.3-1.1
					c-0.1-0.3-0.1-0.7-0.1-0.9c0-0.3,0-0.5,0-0.7C102.8,258.5,102.8,258.3,102.8,258.3z"/>
			</g>
			<g>
				<path class="st36" d="M59.3,259.4c0,0,0.2,0,0.5-0.1c0.3-0.1,0.7-0.2,1.2-0.4c1-0.4,2.2-0.9,3.4-1.4c1.2-0.6,2.4-1.3,3.1-1.9
					c0.2-0.1,0.4-0.3,0.5-0.4c0.2-0.1,0.3-0.3,0.4-0.4c0.2-0.2,0.3-0.3,0.3-0.3s-0.1,0.2-0.2,0.5c-0.1,0.1-0.1,0.3-0.3,0.5
					c-0.1,0.2-0.2,0.4-0.4,0.6c-0.2,0.2-0.4,0.4-0.6,0.6c-0.2,0.2-0.5,0.4-0.7,0.6c-0.5,0.4-1.2,0.8-1.8,1.1c-0.7,0.3-1.3,0.6-2,0.7
					c-0.6,0.2-1.3,0.3-1.8,0.4c-0.5,0.1-1,0.1-1.3,0C59.5,259.4,59.3,259.4,59.3,259.4z"/>
			</g>
			<g>
				<path class="st3" d="M49.8,196.6c2,6,7,13.7,9.5,20.3c5.3-2.6,6.1-2,10.5-4.5c-3,13.5-8.4,27.5-11.9,40
					c10.5,0.5,48.1,4.5,55.1,8.5c-0.7-17-1.7-32-1.7-47c6-0.5,14.6,3.5,20.6,4c2.5-6.5,4.4-13.5,7.9-20.5c-8.3-1.5-15.5-6.1-23.6-8
					c-6.9-1.6-12.3-5.4-18.9-8c-4.8-1.9-13-2-17.5,0.4c-7.3,4-9.2,5.6-15.2,8.1C60.6,191.5,49.8,196.6,49.8,196.6z"/>
			</g>
			<g>
				<path class="st37" d="M78.8,190.4c0.8-2.5,2.1-5.7,0.7-8.2c-1.2-2.2-3.8-3.1-5.6-1c-1,1.1-1.8,2.6-2.4,4
					c-1.5,3.1-2.1,6.5-2.5,9.9c-0.6,5.1-1.2,10.3-1.4,15.4c0,1.2-0.2,2.5,0.1,3.6c0.8,3.8,2,0.5,2.8-1.3c1.2-2.9,2.7-5.7,3.7-8.7
					C75.7,199.6,77,194.9,78.8,190.4z"/>
			</g>
			<g>
				<path class="st37" d="M111.8,220.4c0,0,0.1-0.1,0.1-0.1c5.1-5.9,8.7-14.5,8.7-22.3c0-3.5-0.8-7.3-3.6-9.7
					c-0.9-0.8-3.9-3.1-5.1-2.6c-1.8,0.8-0.7,4.7-0.7,6.2c0,3.2,0,6.4,0,9.6C111.4,207.7,111.5,214,111.8,220.4z"/>
			</g>
			<g>
				<path class="st34" d="M68.8,213.9c0,0,0.1-0.6,0.2-1.6c0.1-1,0.3-2.4,0.6-4.1c0.3-1.7,0.6-3.7,0.9-5.8c0.4-2.1,0.8-4.4,1.2-6.7
					c0.5-2.2,1.1-4.5,1.6-6.6c0.5-2.1,1.1-4,1.5-5.7c0.4-1.7,0.9-3,1.1-4c0.3-1,0.5-1.5,0.5-1.5s-0.1,0.6-0.3,1.6
					c-0.2,1-0.4,2.4-0.8,4.1c-0.3,1.7-0.7,3.7-1.2,5.8c-0.4,2.1-1,4.3-1.5,6.6c-0.4,2.3-0.9,4.5-1.3,6.6c-0.4,2.1-0.9,4.1-1.2,5.8
					c-0.4,1.7-0.7,3.1-0.9,4.1C68.9,213.3,68.8,213.9,68.8,213.9z"/>
			</g>
			<g>
				<path class="st34" d="M112.3,219.4c0,0,0-0.5,0-1.5c0-0.5,0-1,0-1.7c0-0.7,0-1.4,0-2.2c0-0.8,0.1-1.7,0.1-2.6
					c0-0.9,0.1-1.9,0.2-2.9c0.2-2,0.5-4.2,0.7-6.3c0.2-2.1,0.5-4.3,0.7-6.3c0.1-1,0.2-2,0.2-2.9c0-0.9,0.1-1.8,0.1-2.6
					c0-0.4,0-0.8,0-1.2c0-0.4,0-0.7,0-1c0-0.7,0-1.2,0-1.7c0-0.9,0-1.5,0-1.5s0.1,0.5,0.2,1.5c0.1,0.5,0.1,1,0.2,1.7
					c0,0.3,0.1,0.7,0.1,1c0,0.4,0,0.8,0,1.2c0,0.8,0,1.7,0.1,2.6c0,0.9,0,1.9-0.1,2.9c-0.1,1-0.1,2.1-0.2,3.1
					c-0.1,1.1-0.2,2.1-0.3,3.2c-0.3,2.1-0.6,4.3-0.8,6.3c-0.1,1-0.3,2-0.4,2.9c-0.1,0.9-0.2,1.8-0.3,2.6c-0.2,1.6-0.3,3-0.4,3.9
					C112.4,218.8,112.3,219.4,112.3,219.4z"/>
			</g>
			<g>
				<path class="st12" d="M97.8,197.9c4.3-1.9,7.7-5.7,5-10.4c-2.2-3.8-7.1-6.6-11.4-6.5c-6.9,0.2-8.8,9.3-5.5,14.2
					C88.7,199.3,93.5,199.7,97.8,197.9z"/>
			</g>
			<g>
				<path class="st13" d="M92.2,195.6c2.4,0.3,5.8-0.5,7.1-2.4c1.1-1.7,0.5-4.1-0.3-5.8c-1.4-2.8-4.5-5.6-7.8-4.3
					c-3,1.1-3.9,4.1-3.6,7c0.2,2.4,1.5,4.7,4,5.4C91.7,195.5,91.9,195.6,92.2,195.6z"/>
			</g>
			<g>
				<path class="st38" d="M123.8,97.9c-0.5-2-1.8-9.1,0.5-9.5c4,1.5,5.5,6,4.5,10.5c3-12,10-3,2,1.5c7,4.5,14.5,3.5,20.5,11
					c4,5,8.5,13.5,5.5,20c0-1-1-2-1.5-3.5c0,2-0.5,4-0.5,6c-1-2.5-2-5-3-7.5c0.5,1.5,0.7,3,1,5c2.3,13.3,1.5,23.5-9,33.5
					c-9.5,9.5-24,12-37,11c-14.5-1-32-3-44.5-11.5c-15-9.5-18.5-20.5-18-37c-1,1-2.5,2-3.5,3c-10.5-14.5,33.5-39.5,43.5-41
					c-2.5-0.5-7.9-1.3-7.5-3C89.8,76.9,123.8,97.9,123.8,97.9z"/>
			</g>
			<g>
				<path class="st2" d="M55,141.9c-0.4,4.5-0.3,7.8,0.2,13.4c-1-7.5-11.6-4.3-11.6,3.2c0,6.5,4.3,10.8,13.1,9.8
					c1.8,17.5,23.5,22.7,38.2,23c13.1,0.3,29.3-0.7,37.1-14.5c7.5,5.5,16.9-3,16.9-12c0-9.3-9-3.5-13,0c-1.5-6,1-13,0.5-19.5
					c-1.5,2.5-3,3.5-5,5c-0.5-10.5-0.5-21.5-5-31.5c-3,4-5,9-10,11c-3.5,1.5-10,2.5-8-3.5c-4,5-12.6,7.6-14.5,5
					c-0.5-0.7,2.5-4.5,4-6.5c-12,6,1-8,1.5-10c-7.5,3-14,5-22,5.5c0.5-2.5,1.5-5,2.5-7.5c-3,6-9.5,9.5-13,15c-3,4.5-5,10.5-7,15.5
					c0.3-0.8-0.4-2.8-0.5-3.6c-0.2-1.3-0.4-2.7-0.5-4c-0.2-1.3-0.3-2.7-0.3-4c0-0.4,0.3-2.4,0.1-2.1C57.2,132.2,55.2,139.6,55,141.9
					z"/>
			</g>
			<g>
				<path class="st15" d="M82.8,150.4c1.2-2-1-3.9-2.7-4.3c-1.4-0.4-3.3,1.2-3.3,2.6c0,1.1,0.1,2.1,1.1,2.7
					C79.3,152.3,81.8,151.9,82.8,150.4z"/>
			</g>
			<g>
				<path class="st38" d="M78.2,129.1c0.3,0.5,1.2,0.2,1.6,0.1c0.7-0.1,1.4-0.3,2.1-0.5c0.4-0.1,1.5-0.4,1.7-0.8
					c0.1-0.5-0.6-0.8-1-0.8c-0.7-0.1-1.2,0.1-1.9,0.2c-0.6,0.1-1.1,0.3-1.5,0.6c-0.3,0.2-0.5,0.4-0.7,0.7
					C78.3,128.7,78.1,128.8,78.2,129.1C78.2,129.1,78.2,129.1,78.2,129.1z"/>
			</g>
			<g>
				<path class="st38" d="M124.8,136.7c0.2-0.1,0.4-0.2,0.3-0.4c-0.3-0.8-1-1.7-1.5-2.3c-0.6-0.6-2.8-2.4-3.5-1.5
					c-0.6,0.7,0.6,1.6,1.1,2c0.6,0.5,1.2,1.1,1.9,1.6c0.3,0.2,0.7,0.5,1.1,0.6C124.4,136.7,124.6,136.7,124.8,136.7z"/>
			</g>
			<g>
				<path class="st15" d="M117.6,151.7c-1.8-0.1-3.4,1-3.4,2.8c0.1,3,3.9,4.4,5.6,1.9C121.4,154.3,120.1,151.8,117.6,151.7z"/>
			</g>
			<g>
				<path class="st11" d="M96.8,150.9c0,0,0,0.1-0.1,0.3c-0.1,0.2-0.2,0.4-0.4,0.7c-0.2,0.3-0.5,0.6-0.8,1c-0.3,0.4-0.7,0.7-1.2,1.1
					c-0.5,0.4-1.1,0.7-1.6,1c-0.3,0.2-0.5,0.4-0.7,0.6l-0.1,0.2l0,0c0,0,0,0,0,0l0,0l-0.1,0.1c-0.1,0.2-0.2,0.3-0.2,0.5
					c-0.5,1.2-0.7,2.8-0.1,4c0.3,0.6,0.7,1.1,1.3,1.5c0.3,0.2,0.6,0.3,0.9,0.4l0.1,0c0,0,0.1,0,0.1,0l0.3,0l0.5,0.1c0.4,0,0.7,0,1,0
					c0.3,0,0.6-0.1,0.9-0.2c0.3,0,0.6-0.2,0.9-0.3c0.3-0.1,0.5-0.2,0.8-0.4c0.5-0.2,0.9-0.6,1.2-0.9c0.3-0.3,0.6-0.7,0.8-0.9
					c0.3-0.6,0.5-0.9,0.5-0.9s-0.1,0.4-0.3,1c-0.2,0.3-0.4,0.7-0.7,1.1c-0.3,0.4-0.7,0.8-1.2,1.1c-0.2,0.2-0.5,0.4-0.8,0.5
					c-0.3,0.1-0.6,0.3-0.9,0.4c-0.3,0.1-0.7,0.2-1.1,0.3c-0.4,0-0.8,0.1-1.2,0.1l-0.5-0.1l-0.3,0l-0.2,0l-0.1,0
					c-0.4-0.1-0.8-0.2-1.2-0.5c-0.8-0.4-1.4-1.1-1.7-1.9c-0.4-0.8-0.5-1.7-0.4-2.5c0.1-0.8,0.3-1.6,0.6-2.3c0.1-0.2,0.2-0.3,0.3-0.5
					l0.1-0.1l0,0c0,0,0,0,0,0l0-0.1l0.2-0.3c0.3-0.3,0.6-0.5,0.9-0.7c0.6-0.4,1.2-0.5,1.7-0.8c0.5-0.3,0.9-0.6,1.3-0.9
					c0.4-0.3,0.6-0.6,0.9-0.8C96.6,151.2,96.8,150.9,96.8,150.9z"/>
			</g>
			<g>
				<path class="st39" d="M76.3,164.4c9.5,8,25.5,9.5,36.5,5.5C116.3,188.9,73.8,189.4,76.3,164.4"/>
			</g>
			<g>
				<path class="st3" d="M70.3,340.6c0.1,0,0.3,0,0.4,0.1c0.3,0.1,0.5,0.3,0.3,0.6c-0.7,1.2-0.9,2.8-1,4.2c-0.2,1.9-0.4,3.8-0.7,5.6
					c-0.9,0.3-2.3,0.3-3.3,0.3c-3.8-0.2-7.7-0.6-11.5-0.1c-3,0.4-6.7,0.1-9.6-0.9c-3.2-1.4-4.8-4.1-2.5-7.1c1.1-1.4,2.6-2.5,4.1-3.3
					c0.9-0.4,1.8-0.8,2.7-1.1c1.2-0.4,1.7-0.3,2.9,0c2.8,0.6,5.5,1.1,8.3,1.2c1.9,0.1,3.9,0.1,5.8,0.3c0.9,0.1,0.9,0,1.7,0.2
					C68.4,340.7,69.8,340.6,70.3,340.6z"/>
			</g>
			<g>
				<path class="st40" d="M57.8,337.4c-5.5,0-10.9-0.9-16.3-1.2c-1.7-0.1-3.4-0.1-5.2-0.1c-1.3,0-2.7-0.3-3.8,0.5
					c-1,0.8-1.3,2.5-1.8,3.6c-0.6,1.4-1.3,2.6-1.8,4.1c-1.9,5.8-3.8,11.3-4.6,17.4c-0.6,4.6-1.3,10.5,0.9,14.7
					c6,13,9.5-10.5,10.5-15c3-10,11.5-9.5,21-7C56.8,348.4,57.3,342.9,57.8,337.4z"/>
			</g>
			<path class="st31" d="M29.7,366.4c1.5-5.5,2.1-15,7.1-17.5c3.5-2,19-0.5,20-0.5"/>
			<path class="st31" d="M30.8,363.6c1.5,0.5,2.5,1.6,4,2.6"/>
			<path class="st31" d="M31.8,359.3c0,0,2,0.6,4,2.1"/>
			<path class="st31" d="M33.1,354.3c-0.5,0,2.5,2.1,4,3.1"/>
			<path class="st31" d="M34.9,350.4c1.8,2.5,3,3.3,4.5,4.5"/>
			<path class="st31" d="M38.6,348.4c1,2,2.1,3.5,3.1,5.5"/>
			<path class="st31" d="M44.3,347.8c0.5,1.5,1,3.6,1.5,5.1"/>
			<path class="st31" d="M48.9,347.9c-0.5,1.5,0,3.6,0.4,5"/>
			<path class="st31" d="M53.3,348.4c0.1,2.3,0.1,4,0.5,5.3"/>
			<g>
				<defs>
					<path id="SVGID_5_" d="M76.3,164.4c9.5,8,25.5,9.5,36.5,5.5C116.3,188.9,73.8,189.4,76.3,164.4"/>
				</defs>
				<clipPath id="SVGID_6_">
					<use xlink:href="#SVGID_5_"  style="overflow:visible;"/>
				</clipPath>
				<g class="st41">
					<path class="st16" d="M77.8,176.4c0.5-0.6,1.2-1.1,2-1.3c2.5-0.6,4.9-1.1,7.4-1.1c3.1,0.1,6.8,0.9,9.8,1.8
						c2.8,0.9,5.8,2.1,8,4.1c0.8,0.8,3.1,2.7,3.1,4c0,1.2-3.5,1.7-4.5,2.1c-2.1,1-4.5,1-6.8,0.8c-2-0.2-4-0.5-6-0.7
						c-2.3-0.3-4.7-0.9-6.8-1.8c-1.9-0.8-3.9-1.9-5.3-3.4c-0.5-0.5-0.6-1-0.8-1.6c-0.3-0.8-0.8-1.7-0.3-2.6
						C77.7,176.6,77.8,176.5,77.8,176.4z"/>
				</g>
				<g class="st41">
					<path class="st3" d="M75.3,160.4c-1,21.3,42,17.5,39.5,7C103.8,168.9,84.3,167.4,75.3,160.4"/>
				</g>
			</g>
			<g>
				<path class="st11" d="M20.4,161.8c0,0,0,0.2-0.1,0.5c-0.1,0.3-0.2,0.7-0.2,1.3c-0.1,0.5-0.1,1.1-0.1,1.8c0,0.6,0.1,1.3,0.1,2
					c0.1,1.4,0.4,2.8,0.5,3.9c0.1,1.1,0.1,1.8,0.1,1.8s-0.3-0.7-0.7-1.7c-0.4-1-0.7-2.4-0.9-3.9c-0.1-0.7-0.1-1.5,0-2.2
					c0.1-0.7,0.2-1.3,0.4-1.9c0.2-0.5,0.4-1,0.6-1.2C20.3,162,20.4,161.8,20.4,161.8z"/>
			</g>
			<g>
				<path class="st2" d="M17.6,161.7c-0.4-0.2-0.8-0.2-1-0.6c0.9-0.6,2.3-0.2,2.8-1.5c1.2-2.8-4-4.2-6.2-4c-2.8,0.2-5.6,2.1-7.3,4.3
					c-1.2,1.5-1.1,3.1-1.2,5c0,0.9,0.1,1.8,0.1,2.7c0.1,1.1-0.4,1.9-0.4,2.9c0,0.8,0.3,2.2,0.8,2.9c0.4,0.5,0.9,0.5,1.3,0.9
					c0.5,0.5,0.2,0.3,0.2,0.9c0.2,2,1.5,4.4,3.8,4.5c-0.1,1.6,1.7,2.3,3,2.4c2,0.2,3.8-0.4,5.1-1.8c2-2.1,0.2-5.6-2.7-4.3
					c2.7-1.2,2.4-6.9-0.7-7.3c0.6,0.1,1.7-0.8,2.1-1.2c0.8-0.7,1.3-1.8,1.3-2.9C19.1,163.3,18.6,162.2,17.6,161.7z"/>
			</g>
			<g>
				<g>
					<path class="st11" d="M13.9,182.4c2.3,0.1,6.6-1,6.3-4.1c-0.3-2.3-2.9-2.7-4.7-2.1c0.3,0.1,0.5,0.2,0.8,0.3
						c2.1-1.2,2.7-4.4,1.6-6.5c-0.3-0.5-1.4-1.7-1.6-1.2c0-0.1,1.2-0.6,1.3-0.7c0.6-0.4,1-0.9,1.4-1.5c0.9-1.6,0.7-3.2-0.3-4.6
						c-0.2-0.4-1.1-0.5-0.6-1.1c0.1-0.2,1.3-0.4,1.6-0.7c2.5-2.6-2.7-4.4-4.3-4.7c-0.4-0.1-1,0.2-0.3,0.4c1.4,0.3,4.1,0.9,4.1,2.7
						c0,1.6-1.7,1.8-2.9,2.4c-0.1,0-0.1,0.1,0,0.2c1.4,1,2.5,1.8,2.2,3.7c-0.2,1.5-1.5,3.4-3.1,3.6c-0.4,0.1-0.2,0.3,0.1,0.4
						c3.2,0.7,2.2,6.1,0,7.3c-0.4,0.2,0.6,0.4,0.8,0.3c0.7-0.2,2.6,0.6,2.9,1.2c0.4,0.7-0.1,1.7-0.4,2.2c-1,1.5-3.2,2-5,2
						C13,182,13.4,182.4,13.9,182.4L13.9,182.4z"/>
				</g>
			</g>
			<g>
				<path class="st11" d="M4.4,167.8c0,0,0.1-0.2,0.3-0.6c0.1-0.2,0.2-0.4,0.3-0.7c0.1-0.1,0.1-0.3,0.2-0.4c0.1-0.1,0.2-0.3,0.3-0.4
					c0.2-0.3,0.5-0.6,0.8-0.9c0.3-0.3,0.6-0.6,1-0.9c0.3-0.3,0.7-0.6,1.1-0.8c0.4-0.2,0.8-0.5,1.3-0.7c0.4-0.2,0.9-0.4,1.3-0.5
					c0.4-0.2,0.9-0.3,1.3-0.4c0.4-0.1,0.8-0.2,1.3-0.3c0.4-0.1,0.8-0.1,1.1-0.2c0.7-0.1,1.3-0.1,1.7-0.1c0.4,0,0.6,0,0.6,0
					s-0.2,0.1-0.6,0.2c-0.4,0.1-1,0.2-1.6,0.4c-0.3,0.1-0.7,0.2-1.1,0.3c-0.4,0.1-0.8,0.3-1.2,0.4c-0.4,0.2-0.8,0.3-1.2,0.5
					c-0.4,0.2-0.8,0.4-1.2,0.5c-0.4,0.2-0.8,0.4-1.2,0.6c-0.2,0.1-0.4,0.2-0.6,0.3c-0.2,0.1-0.4,0.2-0.5,0.4c-0.3,0.3-0.7,0.5-1,0.7
					c-0.3,0.3-0.6,0.5-0.8,0.7c-0.1,0.1-0.3,0.2-0.4,0.3c-0.1,0.1-0.2,0.2-0.3,0.3c-0.2,0.2-0.4,0.4-0.5,0.6
					C4.6,167.6,4.4,167.8,4.4,167.8z"/>
			</g>
			<g>
				<path class="st11" d="M6.6,174.6c0,0,0.1-0.2,0.2-0.5c0.1-0.3,0.2-0.7,0.5-1.2c0.1-0.2,0.3-0.5,0.5-0.7c0.2-0.3,0.4-0.5,0.7-0.7
					c0.2-0.2,0.5-0.5,0.8-0.7c0.3-0.2,0.6-0.4,0.9-0.6c0.3-0.2,0.6-0.3,0.9-0.5c0.3-0.2,0.6-0.3,0.9-0.4c0.3-0.1,0.6-0.2,0.9-0.3
					c0.3-0.1,0.6-0.1,0.8-0.2c0.5-0.1,1-0.1,1.3-0.2c0.3,0,0.5,0,0.5,0s-0.2,0.1-0.4,0.2c-0.3,0.1-0.7,0.3-1.1,0.5
					c-0.2,0.1-0.5,0.2-0.8,0.3c-0.3,0.1-0.5,0.3-0.8,0.4c-0.6,0.3-1.1,0.6-1.7,0.9c-0.5,0.4-1.1,0.7-1.6,1.1
					c-0.2,0.2-0.5,0.4-0.7,0.6c-0.2,0.2-0.4,0.4-0.6,0.6c-0.4,0.3-0.6,0.7-0.8,0.9C6.7,174.5,6.6,174.6,6.6,174.6z"/>
			</g>
			<g>
				<path class="st11" d="M10.8,179.9c0,0,0.1-0.1,0.2-0.2c0.1,0,0.1-0.1,0.2-0.2c0.1-0.1,0.2-0.2,0.3-0.3c0.4-0.4,1-0.9,1.6-1.3
					c0.6-0.4,1.2-0.8,1.8-1.1c0.5-0.3,0.9-0.4,0.9-0.4s-0.2,0.4-0.5,0.9c-0.2,0.2-0.4,0.5-0.7,0.8c-0.3,0.3-0.6,0.5-0.9,0.7
					c-0.6,0.5-1.3,0.8-1.9,1c-0.1,0.1-0.3,0.1-0.4,0.1c-0.1,0-0.2,0.1-0.3,0C10.9,179.9,10.8,179.9,10.8,179.9z"/>
			</g>
			<g>
				<defs>
					<path id="SVGID_7_" d="M57.8,337.4c-5.5,0-10.9-0.9-16.3-1.2c-1.7-0.1-3.4-0.1-5.2-0.1c-1.3,0-2.7-0.3-3.8,0.5
						c-1,0.8-1.3,2.5-1.8,3.6c-0.6,1.4-1.3,2.6-1.8,4.1c-1.9,5.8-3.8,11.3-4.6,17.4c-0.6,4.6-1.6,12,0.5,16.3
						c6,13,9.9-12.1,10.9-16.6c3-10,11.5-9.5,21-7C56.8,348.4,57.3,342.9,57.8,337.4z"/>
				</defs>
				<clipPath id="SVGID_8_">
					<use xlink:href="#SVGID_7_"  style="overflow:visible;"/>
				</clipPath>
				<g class="st42">
					<g>
						<path class="st3" d="M17.3,370.4c-0.3-2.6,0.3-5.5,0.7-8c0.7-4,1.8-7.9,3-11.7c1.4-4.4,3.1-8.8,5.6-12.7c0.9-1.5,2-2.9,3.4-4
							c1.4-1.1,4.3-2.3,5.2,0.2c0.7,1.8-1.5,5.3-2.2,7c-1,2.6-2.1,5.2-3,7.8c-2,5.5-3.7,11.2-4.3,17.1c5.5-0.5,12.5,4.5,10.5,11
							C32.8,389.4,18.3,378.4,17.3,370.4z"/>
					</g>
					<path class="st31" d="M33.3,340.5c0.6,0.3,1.8,0.5,2.6,0.5c1.6,0,3.3-0.5,4.4-1.7c0.6-0.7,1.2-1.6,1.3-2.6c0-0.2,0-0.4,0-0.6"
						/>
					<g>
						<path class="st3" d="M44.8,345.4c0.1,0.1,0.2,0.2,0.3,0.3c2.6,2.3,6.3,0,6.8-3.1c0.3-1.7-0.6-2.7-2.1-3.5
							c-1.1-0.5-1.9-1-3.1-0.7c-1.2,0.3-2.1,1-2.7,2.1C43.1,342.2,43.6,344.1,44.8,345.4z"/>
					</g>
				</g>
			</g>
			<path class="st35" d="M27.8,380.4c-1.8-4-2.3-9.6-1.8-16.2"/>
		</g>
	</g>
</g>
</svg>
