<?xml version="1.0" encoding="utf-8"?>
<!-- Generator: Adobe Illustrator 22.1.0, SVG Export Plug-In . SVG Version: 6.00 Build 0)  -->
<svg version="1.1" id="Capa_1" xmlns="http://www.w3.org/2000/svg" xmlns:xlink="http://www.w3.org/1999/xlink" x="0px" y="0px"
	 viewBox="0 0 800 800" style="enable-background:new 0 0 800 800;" xml:space="preserve">
<style type="text/css">
	.st0{fill:#E8EDEF;}
	.st1{fill:#EC4033;}
	.st2{fill:#2056A5;}
	.st3{fill:#FFFFFF;}
	.st4{fill:#012F58;}
	.st5{fill:#05C0D0;}
	.st6{fill:#02345F;}
	.st7{fill:#BBD655;}
	.st8{fill:none;}
	.st9{fill:#073953;}
	.st10{fill:none;stroke:#012F58;stroke-width:3;stroke-miterlimit:10;}
	.st11{fill:none;stroke:#2056A5;stroke-width:3;stroke-miterlimit:10;}
	.st12{fill:#A0A0A0;}
	.st13{fill:none;stroke:#A0A0A0;stroke-miterlimit:10;}
	.st14{font-family:'AbeatbyKai';}
	.st15{font-size:33px;}
</style>
<g>
	<g>
		<path class="st0" d="M739.3,432.8h-27.6c-7.5,0-16.2-6.8-19-14.7c-2.6-7.4-5.7-14.8-9.2-21.9c-3.7-7.6-2.3-18.5,3-23.7l19.6-19.6
			c13.8-13.8,13.8-36.1,0-49.9L674.3,271c-6.7-6.7-15.5-10.3-24.9-10.3c-9.4,0-18.3,3.7-24.9,10.3l-19.6,19.6c-3.2,3.2-8.4,5-14,5
			c-3.5,0-6.9-0.7-9.7-2.1c-7.1-3.5-14.5-6.5-22-9.2c-8-2.8-14.7-11.5-14.7-19v-27.6c0-19.4-15.8-35.3-35.3-35.3H464
			c-19.5,0-35.3,15.8-35.3,35.3v27.6c0,7.5-6.8,16.2-14.7,19c-7.4,2.6-14.8,5.7-21.9,9.2c-2.8,1.3-6.2,2.1-9.7,2.1
			c-5.7,0-10.9-1.9-14.1-5L348.7,271c-6.7-6.7-15.5-10.3-24.9-10.3c-9.4,0-18.3,3.7-24.9,10.3l-31.9,31.9
			c-6.7,6.7-10.3,15.5-10.3,24.9c0,9.4,3.7,18.3,10.3,24.9l19.6,19.6c5.3,5.3,6.6,16.2,3,23.8c-3.4,7.1-6.5,14.5-9.2,21.9
			c-2.8,8-11.5,14.7-19,14.7h-27.6c-19.5,0-35.3,15.8-35.3,35.3v45.1c0,19.4,15.8,35.3,35.3,35.3h27.6c7.5,0,16.2,6.7,19,14.7
			c2.6,7.4,5.7,14.8,9.2,21.9c3.7,7.6,2.3,18.5-3,23.8l-19.6,19.6c-13.8,13.8-13.8,36.1,0,49.9l31.9,31.9
			c6.7,6.7,15.5,10.3,24.9,10.3c9.4,0,18.3-3.7,24.9-10.3l19.6-19.6c3.2-3.2,8.4-5,14.1-5c3.5,0,6.9,0.7,9.7,2.1
			c7.1,3.5,14.5,6.5,21.9,9.2c8,2.8,14.7,11.5,14.7,19v27.6c0,19.4,15.8,35.3,35.3,35.3h45.1c19.5,0,35.3-15.8,35.3-35.3v-27.6
			c0-7.5,6.8-16.2,14.7-19c7.4-2.6,14.8-5.7,21.9-9.2c2.8-1.3,6.2-2.1,9.7-2.1c5.7,0,10.9,1.9,14.1,5l19.6,19.6
			c6.7,6.7,15.5,10.3,24.9,10.3c9.4,0,18.3-3.7,24.9-10.3l31.9-31.9c13.7-13.8,13.7-36.1,0-49.9l-19.6-19.6
			c-5.3-5.3-6.6-16.2-3-23.8c3.4-7.1,6.5-14.5,9.2-21.9c2.8-8,11.5-14.7,19-14.7h27.6c19.5,0,35.3-15.8,35.3-35.3v-45.1
			C774.6,448.7,758.8,432.8,739.3,432.8z M589.9,490.6c0,57-46.4,103.4-103.4,103.4c-57,0-103.4-46.4-103.4-103.4
			c0-57,46.4-103.4,103.4-103.4C543.5,387.3,589.9,433.6,589.9,490.6z"/>
		<path class="st0" d="M272.8,206.5c0.7-1.9,2.9-3.5,3.9-3.5h13.8c13,0,23.5-10.5,23.5-23.5V157c0-13-10.6-23.5-23.5-23.5h-13.8
			c-1.1,0-3.3-1.6-3.9-3.5c-1.4-3.9-3-7.8-4.8-11.6c-0.9-1.8-0.4-4.4,0.3-5.1l9.8-9.8c9.2-9.2,9.2-24.1,0-33.3l-15.9-15.9
			c-4.4-4.4-10.3-6.9-16.6-6.9s-12.2,2.4-16.6,6.9l-9.8,9.8c-0.3,0.3-1.4,0.8-2.9,0.8c-0.9,0-1.7-0.2-2.3-0.5
			c-3.8-1.8-7.7-3.4-11.6-4.8c-1.9-0.7-3.5-2.9-3.5-3.9V41.9c0-13-10.6-23.5-23.5-23.5h-22.5c-13,0-23.5,10.5-23.5,23.5v13.8
			c0,1.1-1.6,3.3-3.5,3.9c-3.9,1.4-7.8,3-11.6,4.8c-0.6,0.3-1.4,0.5-2.3,0.5c-1.5,0-2.6-0.5-2.9-0.8l-9.8-9.8
			c-4.4-4.4-10.3-6.9-16.6-6.9c-6.3,0-12.2,2.4-16.6,6.9L50.2,70.3c-9.2,9.2-9.2,24.1,0,33.3l9.8,9.8c0.7,0.7,1.2,3.4,0.3,5.1
			c-1.8,3.8-3.4,7.7-4.8,11.6c-0.7,1.9-2.9,3.5-3.9,3.5H37.8c-13,0-23.5,10.5-23.5,23.5v22.5c0,13,10.5,23.5,23.5,23.5h13.8
			c1.1,0,3.3,1.6,3.9,3.5c1.4,3.9,3,7.8,4.8,11.6c0.9,1.8,0.4,4.4-0.3,5.1l-9.8,9.8c-4.4,4.4-6.9,10.3-6.9,16.6
			c0,6.3,2.4,12.2,6.9,16.6l15.9,15.9c4.4,4.4,10.3,6.9,16.6,6.9c6.3,0,12.2-2.4,16.6-6.9l9.8-9.8c0.3-0.3,1.4-0.8,2.9-0.8
			c0.9,0,1.7,0.2,2.3,0.5c3.8,1.8,7.7,3.4,11.6,4.8c1.9,0.7,3.5,2.9,3.5,3.9v13.8c0,13,10.6,23.5,23.5,23.5h22.5
			c13,0,23.5-10.5,23.5-23.5v-13.8c0-1.1,1.6-3.3,3.5-3.9c3.9-1.4,7.8-3,11.6-4.8c0.6-0.3,1.4-0.5,2.3-0.5c1.5,0,2.6,0.5,2.9,0.8
			l9.8,9.8c4.4,4.4,10.3,6.9,16.6,6.9c6.3,0,12.2-2.4,16.6-6.9l15.9-15.9c9.2-9.2,9.2-24.1,0-33.3l-9.8-9.8
			c-0.7-0.7-1.2-3.4-0.3-5.1C269.8,214.3,271.4,210.4,272.8,206.5z M210,168.3c0,25.3-20.5,45.8-45.8,45.8
			c-25.3,0-45.8-20.5-45.8-45.8s20.5-45.8,45.8-45.8C189.4,122.5,210,143,210,168.3z"/>
	</g>
</g>
<path class="st1" d="M563.2,264c-1-1.7-1.6-3.7-1.5-5.9c0.1-6.5,5.5-11.6,12.1-11.6l0.5,0c1.3-2.8,4.8-4.8,8.9-4.8
	c4.6,0,8.4,2.7,9.2,6.1c0.8-0.1,1.6-0.1,2.4-0.1c2.7,0,5.2,0.6,7.4,1.7c1.7-2.7,4.7-4.5,8.1-4.5c3.7,0,6.9,2.3,8.4,5.4
	c2-1.2,4.4-1.9,6.9-1.9c7,0.1,12.6,5.6,12.6,12.3c0,3.8-1.9,7.2-4.8,9.4c1.1,1.6,1.8,3.5,1.8,5.6c-0.1,5.4-4.7,9.7-10.5,9.6
	c-1.1,0-3.1-0.5-3.1-0.5c-4.5,7.2-17.1,3.8-16,2.5c-14.2,16.7-29.6,14.6-30,14.5c6.1-1.4,9.3-6.4,11.9-12.4
	c-1.6,0.5-3.4,0.8-5.3,0.8c-5-0.1-9.4-2.4-11.9-5.9c-1.5,0.5-3.1,0.8-4.9,0.8c-6.9-0.1-12.4-5-12.3-10.9
	C553.3,269.3,557.6,265,563.2,264z"/>
<g>
	<path class="st2" d="M697.2,496.6H501.1c-2.7,0-4.9,1.8-4.9,4.5v135.3c0,2.7,2.2,5.2,4.9,5.2h196.1c2.7,0,4.4-2.5,4.4-5.2V501
		C701.6,498.4,699.9,496.6,697.2,496.6z"/>
	<path class="st3" d="M690,624.9c0,2.9-0.6,4.1-3.4,4.1H512.4c-2.8,0-6.4-1.2-6.4-4.1V512.5c0-2.9,3.6-5.5,6.4-5.5h174.2
		c2.8,0,3.4,2.5,3.4,5.5V624.9z"/>
	<path class="st4" d="M719,656c0,1.1-0.9,2-2,2H480c-1.1,0-2-0.9-2-2V648c0-1.1,0.9-2,2-2H717c1.1,0,2,0.9,2,2V656z"/>
</g>
<g>
	<path class="st2" d="M74,97.8L74,194.3c0,6.1,4.9,11,11,11l139.9,0.1c6.1,0,11-4.9,11-11l0.1-96.5c0-6.1-4.9-11-11-11L85,86.8
		C79,86.8,74,91.7,74,97.8z"/>
	<path class="st3" d="M231.8,146.1c0,3.6-2.9,6.5-6.5,6.5c-3.6,0-6.5-2.9-6.5-6.5c0-3.6,2.9-6.5,6.5-6.5
		C228.9,139.6,231.8,142.5,231.8,146.1z"/>
	<rect x="87.2" y="98" class="st3" width="125.8" height="96.2"/>
</g>
<path class="st2" d="M513.9,188.7c0,1.3-1.1,2.4-2.4,2.4h-68.9c-1.3,0-2.4-1.1-2.4-2.4V95.3c0-1.3,1.1-2.4,2.4-2.4h68.9
	c1.3,0,2.4,1.1,2.4,2.4V188.7z"/>
<rect x="446" y="99" class="st3" width="62" height="87"/>
<path class="st5" d="M482.3,96.1c0,0,0.2-7.2-5.4-7.2s-5.2,7.2-5.2,7.2h-9.5v9.3h29.4v-9.3H482.3z M476.9,91c3.3,0,3.2,4.5,3.2,5.1
	l-6.2,0C473.6,90.7,476.9,91,476.9,91z"/>
<g>
	<rect x="466" y="118" class="st6" width="34" height="1"/>
</g>
<g>
	<rect x="466" y="133" class="st6" width="34" height="1"/>
</g>
<g>
	<rect x="466" y="147" class="st6" width="34" height="1"/>
</g>
<g>
	<rect x="466" y="162" class="st6" width="34" height="1"/>
</g>
<path class="st7" d="M460,115.1l-3.6,3l-1.2-1.4c-0.3-0.4-0.9-0.4-1.3-0.1s-0.4,0.9-0.1,1.3l1.8,2.2c0.3,0.4,0.9,0.4,1.3,0.1
	l4.3-3.6c0.4-0.3,0.4-0.9,0.1-1.3C461,114.8,460.4,114.8,460,115.1z"/>
<path class="st7" d="M460,130.4l-3.6,3l-1.2-1.4c-0.3-0.4-0.9-0.4-1.3-0.1c-0.4,0.3-0.4,0.9-0.1,1.3l1.8,2.2
	c0.3,0.4,0.9,0.4,1.3,0.1l4.3-3.6c0.4-0.3,0.4-0.9,0.1-1.3C461,130.1,460.4,130.1,460,130.4z"/>
<path class="st7" d="M460,144.5l-3.6,3l-1.2-1.4c-0.3-0.4-0.9-0.4-1.3-0.1c-0.4,0.3-0.4,0.9-0.1,1.3l1.8,2.2
	c0.3,0.4,0.9,0.4,1.3,0.1l4.3-3.6c0.4-0.3,0.4-0.9,0.1-1.3C461,144.2,460.4,144.2,460,144.5z"/>
<path class="st7" d="M460,158.8l-3.6,3l-1.2-1.4c-0.3-0.4-0.9-0.4-1.3-0.1c-0.4,0.3-0.4,0.9-0.1,1.3l1.8,2.2
	c0.3,0.4,0.9,0.4,1.3,0.1l4.3-3.6c0.4-0.3,0.4-0.9,0.1-1.3C461,158.5,460.4,158.5,460,158.8z"/>
<g>
	<path class="st2" d="M210.3,499.1l-96.5-0.1c-6.1,0-11,4.9-11,11L102.7,650c0,6.1,4.9,11,11,11l96.5,0.1c6.1,0,11-4.9,11-11
		l0.1-139.9C221.3,504.1,216.4,499.1,210.3,499.1z"/>
	<path class="st3" d="M162,656.9c-3.6,0-6.5-2.9-6.5-6.5c0-3.6,2.9-6.5,6.5-6.5c3.6,0,6.5,2.9,6.5,6.5
		C168.5,654,165.6,656.9,162,656.9z"/>
	<rect x="113.9" y="512.3" class="st3" width="96.2" height="125.8"/>
</g>
<path id="MobileMe_13_" class="st1" d="M372.4,194.3c0,7.7-6.2,13.9-13.8,13.9h-42.7c-7.6,0-13.8-6.2-13.8-13.9
	c0-6.9,5-12.7,11.6-13.7c-0.1-0.5-0.1-1-0.1-1.5c0-4.9,3.9-8.8,8.8-8.8c2.2,0,4.1,0.8,5.7,2.1c2.7-6.2,6.2-11.8,16-11.8
	c11.9,0,17.5,9.2,17.5,18.9c0,0.4,0,0.8,0,1.2C367.7,182,372.4,187.6,372.4,194.3z"/>
<path id="MobileMe_15_" class="st1" d="M409,620.4c0,12.7-10.2,23-22.8,23h-70.6c-12.6,0-22.8-10.3-22.8-23c0-11.5,8.3-21,19.2-22.7
	c-0.1-0.8-0.2-1.6-0.2-2.5c0-8,6.5-14.6,14.5-14.6c3.6,0,6.8,1.3,9.3,3.5c4.5-10.2,10.2-19.5,26.4-19.5c19.6,0,28.9,15.2,28.9,31.3
	c0,0.7,0,1.3-0.1,2C401.2,600,409,609.3,409,620.4z"/>
<path id="MobileMe_14_" class="st2" d="M595.7,430.1c0,12.5,10.1,22.6,22.5,22.6h69.5c12.4,0,22.5-10.1,22.5-22.6
	c0-11.3-8.2-20.7-18.9-22.4c0.1-0.8,0.2-1.6,0.2-2.4c0-7.9-6.4-14.3-14.2-14.3c-3.5,0-6.7,1.3-9.2,3.4c-4.4-10-10.1-19.2-26-19.2
	c-19.3,0-28.4,15-28.4,30.8c0,0.7,0,1.3,0.1,2C603.4,410.1,595.7,419.2,595.7,430.1z"/>
<g>
	<g>
		<rect x="663" y="221" class="st8" width="6" height="6"/>
		<g>
			<circle class="st9" cx="666.5" cy="223.9" r="3"/>
		</g>
	</g>
	<g>
		<rect x="663" y="232" class="st8" width="6" height="6"/>
		<g>
			<circle class="st9" cx="666.4" cy="234.7" r="3"/>
		</g>
	</g>
	<g>
		<rect x="663" y="243" class="st8" width="6" height="6"/>
		<g>
			<circle class="st9" cx="666.4" cy="245.5" r="3"/>
		</g>
	</g>
	<g>
		<rect x="663" y="253" class="st8" width="6" height="6"/>
		<g>
			<circle class="st9" cx="666.3" cy="256.3" r="3"/>
		</g>
	</g>
	<g>
		<rect x="663" y="264" class="st8" width="6" height="6"/>
		<g>
			<circle class="st9" cx="666.3" cy="267.1" r="3"/>
		</g>
	</g>
	<g>
		<rect x="663" y="275" class="st8" width="6" height="6"/>
		<g>
			<circle class="st9" cx="666.3" cy="277.9" r="3"/>
		</g>
	</g>
	<g>
		<rect x="663" y="286" class="st8" width="6" height="6"/>
		<g>
			<circle class="st9" cx="666.2" cy="288.7" r="3"/>
		</g>
	</g>
	<g>
		<rect x="663" y="297" class="st8" width="6" height="6"/>
		<g>
			<circle class="st9" cx="666.2" cy="299.5" r="3"/>
		</g>
	</g>
	<g>
		<rect x="663" y="307" class="st8" width="6" height="6"/>
		<g>
			<circle class="st9" cx="666.1" cy="310.3" r="3"/>
		</g>
	</g>
	<g>
		<rect x="663" y="318" class="st8" width="6" height="6"/>
		<g>
			<circle class="st9" cx="666.1" cy="321.1" r="3"/>
		</g>
	</g>
	<g>
		<rect x="663" y="329" class="st8" width="6" height="6"/>
		<g>
			<circle class="st9" cx="666" cy="331.9" r="3"/>
		</g>
	</g>
	<g>
		<rect x="663" y="340" class="st8" width="6" height="6"/>
		<g>
			<circle class="st9" cx="666" cy="342.7" r="3"/>
		</g>
	</g>
	<g>
		<rect x="652" y="340" class="st8" width="6" height="6"/>
		<g>
			<circle class="st9" cx="655.5" cy="343" r="3"/>
		</g>
	</g>
	<g>
		<rect x="642" y="340" class="st8" width="6" height="6"/>
		<g>
			<circle class="st9" cx="644.7" cy="343" r="3"/>
		</g>
	</g>
	<g>
		<rect x="631" y="340" class="st8" width="6" height="6"/>
		<g>
			<circle class="st9" cx="633.9" cy="343" r="3"/>
		</g>
	</g>
	<g>
		<rect x="620" y="340" class="st8" width="6" height="6"/>
		<g>
			<circle class="st9" cx="623.1" cy="343" r="3"/>
		</g>
	</g>
	<g>
		<rect x="609" y="340" class="st8" width="6" height="6"/>
		<g>
			<circle class="st9" cx="612.3" cy="343" r="3"/>
		</g>
	</g>
	<g>
		<rect x="598" y="340" class="st8" width="6" height="6"/>
		<g>
			<circle class="st9" cx="601.5" cy="343" r="3"/>
		</g>
	</g>
	<g>
		<rect x="588" y="340" class="st8" width="6" height="6"/>
		<g>
			<circle class="st9" cx="590.7" cy="343" r="3"/>
		</g>
	</g>
	<g>
		<rect x="577" y="340" class="st8" width="6" height="6"/>
		<g>
			<circle class="st9" cx="579.9" cy="343" r="3"/>
		</g>
	</g>
	<g>
		<rect x="566" y="340" class="st8" width="6" height="6"/>
		<g>
			<circle class="st9" cx="569.1" cy="343" r="3"/>
		</g>
	</g>
	<g>
		<rect x="555" y="340" class="st8" width="6" height="6"/>
		<g>
			<circle class="st9" cx="558.3" cy="343" r="3"/>
		</g>
	</g>
	<g>
		<rect x="544" y="340" class="st8" width="6" height="6"/>
		<g>
			<circle class="st9" cx="547.5" cy="343" r="3"/>
		</g>
	</g>
	<g>
		<rect x="534" y="340" class="st8" width="6" height="6"/>
		<g>
			<circle class="st9" cx="536.7" cy="343" r="3"/>
		</g>
	</g>
</g>
<g>
	<path class="st2" d="M520.6,261.4H284.5c-3.2,0-6.5,1.9-6.5,5.1v162.9c0,3.2,3.2,5.7,6.5,5.7h88.2c0,0,0.1,15.1,0.1,15.1h-12.2
		c-3,0-5.4,2.2-5.4,5.2c0,3,2.4,5.2,5.4,5.2h86.8c3,0,5.4-2.2,5.4-5.2c0-3-2.4-5.2-5.4-5.2h-12.6c0,0-0.1-15.1-0.1-15.1h85.8
		c3.2,0,6.4-2.4,6.4-5.7V266.5C527,263.3,523.8,261.4,520.6,261.4z"/>
	<path class="st3" d="M517,406.9c0,3.4-2.8,6.1-6.1,6.1H296.1c-3.4,0-6.1-2.8-6.1-6.1V278.1c0-3.4,2.8-6.1,6.1-6.1h214.7
		c3.4,0,6.1,2.8,6.1,6.1V406.9z"/>
</g>
<g>
	<path class="st1" d="M691.9,92.4h-50.8c-4.9,0-8.8,3.9-8.8,8.8v103.1c0,4.8,3.9,8.8,8.8,8.8h50.8c4.9,0,8.8-3.9,8.8-8.8V101.2
		C700.7,96.3,696.7,92.4,691.9,92.4z"/>
	<rect x="638.9" y="107.2" class="st3" width="55.2" height="83"/>
	<polygon class="st3" points="678.2,101.3 654.7,101.3 654.7,98.7 678.2,98.7 678.2,101.3 	"/>
	<path class="st3" d="M688.3,100.1c0,1.2-1,2.2-2.3,2.2c-1.2,0-2.3-1-2.3-2.2c0-1.2,1-2.2,2.3-2.2
		C687.3,97.9,688.3,98.9,688.3,100.1z"/>
	<rect x="655.7" y="197.1" class="st3" width="21.4" height="6.6"/>
</g>
<path class="st10" d="M236,147.5h128c0,0,25.5-1,25.5,25V261"/>
<rect x="233.5" y="138.5" class="st4" width="6" height="16"/>
<rect x="275.5" y="285.5" class="st4" width="6" height="16"/>
<path class="st1" d="M571.1,157.5v-18.6c0,0,0,0,0,0c-10.3,0-18.6,8.3-18.6,18.6c0,5.2,2.1,9.8,5.5,13.2L571.1,157.5L571.1,157.5z"
	/>
<path class="st9" d="M559.5,172.9c3.4,3.4,8,5.4,13.2,5.4c10.3,0,18.6-8.3,18.6-18.6h-18.6L559.5,172.9z"/>
<path class="st2" d="M573.6,138.8v18.6h18.6v0C592.2,147.2,583.9,138.8,573.6,138.8z"/>
<path class="st1" d="M112.7,452.8l10.5,18.1c-2.8,1.4-6,2.2-9.3,2.2c-11.6,0-21-9.4-21-21c0-11.2,8.7-20.3,19.7-20.9v20.9
	C112.6,452.3,112.6,452.6,112.7,452.8z"/>
<path class="st2" d="M115,431.2V451h19.8C134.2,440,126,431.8,115,431.2z M118,434.2c7,1.5,12.3,6.8,13.8,13.8H118V434.2z"/>
<path class="st2" d="M125.5,469.6c5.3-3.5,8.9-9.4,9.3-16.2h-18.7L125.5,469.6z"/>
<path class="st1" d="M187.4,327.1c1.4-3.9,4.3-7.2,8.3-9.1l6.8,14.6L187.4,327.1z"/>
<path class="st2" d="M199.3,321.4l6.8,14.6l-15.1-5.5c-1.4,3.9-1.3,8.3,0.5,12.3c3.7,8.1,13.3,11.5,21.4,7.8
	c8.1-3.7,11.5-13.3,7.8-21.4C216.9,321.2,207.3,317.7,199.3,321.4z"/>
<polygon class="st5" points="471.4,523.8 471.4,526.1 433.6,526.1 433.6,488.4 436,488.4 436,523.8 "/>
<polygon class="st7" points="450.5,501.5 460.1,503.9 463.5,498.3 466.5,500.1 466.6,490.7 458.4,495.3 461.4,497.1 459,501.2 
	449.8,498.9 439.9,508.8 441.5,510.4 "/>
<polygon class="st5" points="447.8,521.4 452.5,521.4 452.5,504.4 451.2,504.1 447.8,507.5 "/>
<polygon class="st5" points="440.7,512.9 440.7,521.4 445.4,521.4 445.4,509.9 441.5,513.8 "/>
<polygon class="st5" points="461.9,505.5 461.9,521.4 466.6,521.4 466.6,503 464.3,501.6 "/>
<polygon class="st5" points="459.6,521.4 459.6,506.2 454.8,505 454.8,521.4 "/>
<path class="st11" d="M275.5,293.5H187c-26,0-25,25.5-25,25.5v128l0,56.7"/>
<rect x="150.5" y="494.5" class="st2" width="24" height="9"/>
<path class="st11" d="M502,564l-71.5,0c0,0-25.5,1-25.5-25v-88.5"/>
<rect x="491.5" y="555.5" class="st2" width="8" height="18"/>
<rect x="306" y="293" class="st5" width="194" height="29"/>
<rect x="517" y="529" class="st2" width="161.7" height="18.5"/>
<rect x="517" y="554" class="st12" width="162" height="9"/>
<rect x="642" y="112" class="st5" width="48.5" height="52.1"/>
<rect x="642" y="168.3" class="st7" width="48.5" height="18.6"/>
<rect x="305" y="389" class="st12" width="145" height="10"/>
<rect x="94" y="171" class="st12" width="111" height="10"/>
<rect x="457" y="389" class="st12" width="42" height="10"/>
<rect x="306" y="327.5" class="st7" width="42.8" height="29.8"/>
<rect x="163" y="577.5" class="st7" width="40.8" height="32"/>
<rect x="356.4" y="327.5" class="st7" width="42.8" height="29.8"/>
<rect x="406.8" y="327.5" class="st7" width="42.8" height="29.8"/>
<rect x="457.2" y="327.5" class="st7" width="42.8" height="29.8"/>
<rect x="120" y="523" class="st2" width="84" height="11"/>
<rect x="121" y="615" class="st12" width="84" height="4"/>
<rect x="121" y="623" class="st12" width="84" height="4"/>
<rect x="93.7" y="108.1" class="st4" width="112.4" height="16"/>
<rect x="120" y="539" class="st5" width="40" height="33"/>
<polygon class="st5" points="534,420.7 534,403.3 543.8,412 "/>
<polygon class="st5" points="552,420.7 552,403.3 561.8,412 "/>
<polygon class="st5" points="570,420.7 570,403.3 579.8,412 "/>
<polygon class="st1" points="328.1,207 345.6,207 336.9,216.8 "/>
<polygon class="st2" points="328.1,225 345.6,225 336.9,234.8 "/>
<polygon class="st1" points="328.1,243 345.6,243 336.9,252.8 "/>
<polygon class="st1" points="228,612.7 228,595.3 237.8,604 "/>
<polygon class="st2" points="246,612.7 246,595.3 255.8,604 "/>
<polygon class="st1" points="264,612.7 264,595.3 273.8,604 "/>
<g>
	<g>
		<path class="st2" d="M307.2,100.7h-9.8v12.7c0,1.8-1.5,3.4-3.4,3.4h-15.1v4.3c0,1.1,0.9,1.9,1.9,1.9h14.9l6.2,5.2
			c0.8,0.7,1.2,0.4,1-0.6l-1.2-4.5c0,0,0,0,0,0h5.6c1.1,0,1.9-0.9,1.9-1.9v-18.4C309.1,101.5,308.2,100.7,307.2,100.7z"/>
		<path class="st2" d="M267.6,115.3h2.9c0,0,0,0,0,0l-1.2,4.5c-0.2,0.6-0.1,1,0.2,1c0.2,0,0.4-0.1,0.7-0.4l6.2-5.2h2.4H294
			c1.1,0,1.9-0.9,1.9-1.9v-12.7V95c0-1.1-0.9-1.9-1.9-1.9h-26.4c-1.1,0-1.9,0.9-1.9,1.9v18.4C265.7,114.4,266.5,115.3,267.6,115.3z"
			/>
	</g>
</g>
<path class="st3" d="M639.2,435.3c0.1,0.1,2.3,1.7,6.2,3.1c0.4,0.1,0.8,0.3,1.1,0.4c0.4,0.2,0.8,0.3,1.2,0.5
	c3.6,1.3,6.7,1.6,6.7,1.6c1.9-0.1,3.2-0.8,3.6-2.1l10.8-29.2c0.5-1.5-0.2-3.1-1.6-3.6l0,0c-0.3-0.1-2.9-1.5-7.2-3.1l-0.5-0.2
	c-4.9-1.8-7.3-2.3-7.2-2.3c-1.5-0.5-3.1,0.2-3.7,1.7l-10.8,29.2C637.2,432.8,637.7,434.3,639.2,435.3z M642.6,425.8l0.4,0.4
	c0.2,0.2,0.3,0.7,0.1,1.1c-0.1,0.4-0.2,0.7-0.2,0.7c-0.1,0.2-0.3,0.3-0.5,0.2l-0.5-0.3c-0.2-0.1-0.3-0.4-0.2-0.6l0.5-1.3
	C642.3,425.7,642.5,425.6,642.6,425.8z M642.7,424.7l0.5-1.3c0.1-0.2,0.3-0.2,0.4-0.1l0.4,0.4c0.2,0.2,0.3,0.7,0.1,1.1
	c-0.1,0.4-0.2,0.7-0.2,0.7c-0.1,0.2-0.3,0.3-0.5,0.2l-0.5-0.3C642.7,425.1,642.6,424.9,642.7,424.7z M642,430.5
	c-0.1,0.2-0.3,0.3-0.5,0.2l-0.5-0.3c-0.2-0.1-0.3-0.4-0.2-0.6l0.5-1.3c0.1-0.2,0.3-0.2,0.4-0.1l0.4,0.4c0.2,0.2,0.3,0.7,0.1,1.1
	C642.2,430.2,642,430.5,642,430.5z M644.6,426.9l0.4,0.4c0.2,0.2,0.3,0.7,0.1,1.1c-0.1,0.4-0.2,0.7-0.2,0.7
	c-0.1,0.2-0.3,0.3-0.5,0.2l-0.5-0.3c-0.2-0.1-0.3-0.4-0.2-0.6l0.5-1.3C644.2,426.7,644.4,426.7,644.6,426.9z M644.6,425.7l0.5-1.3
	c0.1-0.2,0.3-0.2,0.4-0.1l0.4,0.4c0.2,0.2,0.3,0.7,0.1,1.1c-0.1,0.4-0.2,0.7-0.2,0.7c-0.1,0.2-0.3,0.3-0.5,0.2l-0.5-0.3
	C644.6,426.2,644.5,425.9,644.6,425.7z M644,431.6c-0.1,0.2-0.3,0.3-0.5,0.2l-0.5-0.3c-0.2-0.1-0.3-0.4-0.2-0.6l0.5-1.3
	c0.1-0.2,0.3-0.2,0.4-0.1l0.4,0.4c0.2,0.2,0.3,0.7,0.1,1.1C644.1,431.3,644,431.6,644,431.6z M646.6,427.8l0.4,0.4
	c0.2,0.2,0.3,0.7,0.1,1.1c-0.1,0.4-0.2,0.7-0.2,0.7c-0.1,0.2-0.3,0.3-0.5,0.2l-0.5-0.3c-0.2-0.1-0.3-0.4-0.2-0.6l0.5-1.3
	C646.2,427.7,646.4,427.7,646.6,427.8z M646.6,426.7l0.5-1.3c0.1-0.2,0.3-0.2,0.4-0.1l0.4,0.4c0.2,0.2,0.3,0.7,0.1,1.1
	c-0.1,0.4-0.2,0.7-0.2,0.7c-0.1,0.2-0.3,0.3-0.5,0.2l-0.5-0.3C646.6,427.2,646.5,426.9,646.6,426.7z M646,432.5
	c-0.1,0.2-0.3,0.3-0.5,0.2l-0.5-0.3c-0.2-0.1-0.3-0.4-0.2-0.6l0.5-1.3c0.1-0.2,0.3-0.2,0.4-0.1l0.4,0.4c0.2,0.2,0.3,0.7,0.1,1.1
	C646.1,432.2,646,432.5,646,432.5z M648.6,428.8l0.4,0.4c0.2,0.2,0.3,0.7,0.1,1.1c-0.1,0.4-0.2,0.7-0.2,0.7
	c-0.1,0.2-0.3,0.3-0.5,0.2l-0.5-0.3c-0.2-0.1-0.3-0.4-0.2-0.6l0.5-1.3C648.2,428.7,648.4,428.6,648.6,428.8z M648.6,427.7l0.5-1.3
	c0.1-0.2,0.3-0.2,0.4-0.1l0.4,0.4c0.2,0.2,0.3,0.7,0.1,1.1c-0.1,0.4-0.2,0.7-0.2,0.7c-0.1,0.2-0.3,0.3-0.5,0.2l-0.5-0.3
	C648.6,428.1,648.5,427.9,648.6,427.7z M648,433.5c-0.1,0.2-0.3,0.3-0.5,0.2l-0.5-0.3c-0.2-0.1-0.3-0.4-0.2-0.6l0.5-1.3
	c0.1-0.2,0.3-0.2,0.4-0.1l0.4,0.4c0.2,0.2,0.3,0.7,0.1,1.1C648.1,433.2,648,433.5,648,433.5z M650.5,424.7c0.2-0.6,0.8-0.8,1.4-0.6
	c0.6,0.2,0.8,0.8,0.6,1.4c-0.2,0.6-0.8,0.8-1.4,0.6C650.6,425.9,650.3,425.3,650.5,424.7z M650.2,434c-0.1,0.2-0.3,0.3-0.5,0.3
	l-0.6-0.1c-0.2,0-0.3-0.2-0.3-0.4c0,0,0.1-0.3,0.2-0.7c0.1-0.4,0.5-0.7,0.8-0.7l0.6-0.1c0.2,0,0.3,0.1,0.3,0.3L650.2,434z
	 M651.2,431.5c-0.1,0.2-0.3,0.3-0.5,0.3l-0.6-0.1c-0.2,0-0.3-0.2-0.3-0.4c0,0,0.1-0.3,0.2-0.7c0.1-0.4,0.5-0.7,0.8-0.7l0.6-0.1
	c0.2,0,0.3,0.1,0.3,0.3L651.2,431.5L651.2,431.5z M652.1,429c-0.1,0.2-0.3,0.3-0.5,0.3l-0.6-0.1c-0.2,0-0.3-0.2-0.3-0.4
	c0,0,0.1-0.3,0.2-0.7c0.1-0.4,0.5-0.7,0.8-0.7l0.6-0.1c0.2,0,0.3,0.1,0.3,0.3L652.1,429L652.1,429z M652.3,434.6
	c-0.1,0.2-0.3,0.3-0.5,0.3l-0.6-0.1c-0.2,0-0.3-0.2-0.3-0.4c0,0,0.1-0.3,0.2-0.7c0.1-0.4,0.5-0.7,0.8-0.7l0.6-0.1
	c0.2,0,0.3,0.1,0.3,0.3L652.3,434.6L652.3,434.6z M653.3,432.1c-0.1,0.2-0.3,0.3-0.5,0.3l-0.6-0.1c-0.2,0-0.3-0.2-0.3-0.4
	c0,0,0.1-0.3,0.2-0.7c0.1-0.4,0.5-0.7,0.8-0.7l0.6-0.1c0.2,0,0.3,0.1,0.3,0.3L653.3,432.1L653.3,432.1z M654.3,429.5
	c-0.1,0.2-0.3,0.3-0.5,0.3l-0.6-0.1c-0.2,0-0.3-0.2-0.3-0.4c0,0,0.1-0.3,0.2-0.7c0.1-0.4,0.5-0.7,0.8-0.7l0.6-0.1
	c0.2,0,0.3,0.1,0.3,0.3L654.3,429.5L654.3,429.5z M654.5,435.1c-0.1,0.2-0.3,0.3-0.5,0.3l-0.6-0.1c-0.2,0-0.3-0.2-0.3-0.4
	c0,0,0.1-0.3,0.2-0.7c0.1-0.4,0.5-0.7,0.8-0.7l0.6-0.1c0.2,0,0.3,0.1,0.3,0.3L654.5,435.1z M655.5,432.6c-0.1,0.2-0.3,0.3-0.5,0.3
	l-0.6-0.1c-0.2,0-0.3-0.2-0.3-0.4c0,0,0.1-0.3,0.2-0.7c0.1-0.4,0.5-0.7,0.8-0.7l0.6-0.1c0.2,0,0.3,0.1,0.3,0.3L655.5,432.6
	L655.5,432.6z M656.4,430.1c-0.1,0.2-0.3,0.3-0.5,0.3l-0.6-0.1c-0.2,0-0.3-0.2-0.3-0.4c0,0,0.1-0.3,0.2-0.7c0.1-0.4,0.5-0.7,0.8-0.7
	l0.6-0.1c0.2,0,0.3,0.1,0.3,0.3L656.4,430.1L656.4,430.1z M656.6,435.6c-0.1,0.2-0.3,0.3-0.5,0.3l-0.6-0.1c-0.2,0-0.3-0.2-0.3-0.4
	c0,0,0.1-0.3,0.2-0.7c0.1-0.4,0.5-0.7,0.8-0.7l0.6-0.1c0.2,0,0.3,0.1,0.3,0.3L656.6,435.6L656.6,435.6z M657.6,433.1
	c-0.1,0.2-0.3,0.3-0.5,0.3l-0.6-0.1c-0.2,0-0.3-0.2-0.3-0.4c0,0,0.1-0.3,0.2-0.7c0.1-0.4,0.5-0.7,0.8-0.7l0.6-0.1
	c0.2,0,0.3,0.1,0.3,0.3L657.6,433.1L657.6,433.1z M658.6,430.5c-0.1,0.2-0.3,0.3-0.5,0.3l-0.6-0.1c-0.2,0-0.3-0.2-0.3-0.4
	c0,0,0.1-0.3,0.2-0.7c0.1-0.4,0.5-0.7,0.8-0.7l0.6-0.1c0.2,0,0.3,0.1,0.3,0.3L658.6,430.5L658.6,430.5z M656.5,404.9l4.4,1.6
	c0.2,0.1,0.2,0.2,0.2,0.4c-0.1,0.2-0.2,0.2-0.4,0.2l-4.4-1.6c-0.2-0.1-0.2-0.2-0.2-0.4C656.2,404.9,656.4,404.8,656.5,404.9z
	 M649,406.5l16.5,6.1l-4.7,12.7l-16.5-6.1L649,406.5z"/>
<g>
	<path class="st3" d="M351.9,191.1h-1c-0.3,0-0.6-0.2-0.7-0.5c-0.1-0.3-0.2-0.5-0.3-0.8c-0.1-0.3-0.1-0.7,0.1-0.9l0.7-0.7
		c0.5-0.5,0.5-1.3,0-1.8l-1.2-1.2c-0.2-0.2-0.6-0.4-0.9-0.4c-0.3,0-0.7,0.1-0.9,0.4l-0.7,0.7c-0.1,0.1-0.3,0.2-0.5,0.2
		c-0.1,0-0.3,0-0.4-0.1c-0.3-0.1-0.5-0.2-0.8-0.3c-0.3-0.1-0.5-0.4-0.5-0.7v-1c0-0.7-0.6-1.3-1.3-1.3h-1.6c-0.7,0-1.3,0.6-1.3,1.3v1
		c0,0.3-0.2,0.6-0.5,0.7c-0.3,0.1-0.5,0.2-0.8,0.3c-0.1,0-0.2,0.1-0.4,0.1c-0.2,0-0.4-0.1-0.5-0.2l-0.7-0.7
		c-0.2-0.2-0.6-0.4-0.9-0.4c-0.3,0-0.7,0.1-0.9,0.4l-1.2,1.2c-0.2,0.2-0.4,0.6-0.4,0.9c0,0.3,0.1,0.7,0.4,0.9l0.7,0.7
		c0.2,0.2,0.2,0.6,0.1,0.9c-0.1,0.3-0.2,0.5-0.3,0.8c-0.1,0.3-0.4,0.5-0.7,0.5h-1c-0.7,0-1.3,0.6-1.3,1.3v1.6c0,0.7,0.6,1.3,1.3,1.3
		h1c0.3,0,0.6,0.2,0.7,0.5c0.1,0.3,0.2,0.5,0.3,0.8c0.1,0.3,0.1,0.7-0.1,0.9l-0.7,0.7c-0.5,0.5-0.5,1.3,0,1.8l1.2,1.2
		c0.2,0.2,0.6,0.4,0.9,0.4c0.3,0,0.7-0.1,0.9-0.4l0.7-0.7c0.1-0.1,0.3-0.2,0.5-0.2c0.1,0,0.3,0,0.4,0.1c0.3,0.1,0.5,0.2,0.8,0.3
		c0.3,0.1,0.5,0.4,0.5,0.7v1c0,0.7,0.6,1.3,1.3,1.3h1.6c0.7,0,1.3-0.6,1.3-1.3v-1c0-0.3,0.2-0.6,0.5-0.7c0.3-0.1,0.5-0.2,0.8-0.3
		c0.1,0,0.2-0.1,0.4-0.1c0.2,0,0.4,0.1,0.5,0.2l0.7,0.7c0.2,0.2,0.6,0.4,0.9,0.4c0.3,0,0.7-0.1,0.9-0.4l1.2-1.2
		c0.5-0.5,0.5-1.3,0-1.8l-0.7-0.7c-0.2-0.2-0.2-0.6-0.1-0.9c0.1-0.3,0.2-0.5,0.3-0.8c0.1-0.3,0.4-0.5,0.7-0.5h1
		c0.7,0,1.3-0.6,1.3-1.3v-1.6C353.2,191.6,352.6,191.1,351.9,191.1z M346.5,193.2c0,2.1-1.7,3.8-3.8,3.8c-2.1,0-3.8-1.7-3.8-3.8
		c0-2.1,1.7-3.8,3.8-3.8C344.8,189.4,346.5,191.1,346.5,193.2z"/>
	<path class="st3" d="M334.9,182.8c0-0.1,0.1-0.1,0.1-0.1h0.5c0.5,0,0.9-0.4,0.9-0.9V181c0-0.5-0.4-0.9-0.9-0.9h-0.5
		c0,0-0.1-0.1-0.1-0.1c-0.1-0.1-0.1-0.3-0.2-0.4c0-0.1,0-0.2,0-0.2l0.4-0.4c0.3-0.3,0.3-0.9,0-1.2l-0.6-0.6
		c-0.2-0.2-0.4-0.3-0.6-0.3c-0.2,0-0.4,0.1-0.6,0.3l-0.4,0.4c0,0,0,0-0.1,0c0,0-0.1,0-0.1,0c-0.1-0.1-0.3-0.1-0.4-0.2
		c-0.1,0-0.1-0.1-0.1-0.1v-0.5c0-0.5-0.4-0.9-0.9-0.9h-0.8c-0.5,0-0.9,0.4-0.9,0.9v0.5c0,0-0.1,0.1-0.1,0.1
		c-0.1,0.1-0.3,0.1-0.4,0.2c0,0-0.1,0-0.1,0c-0.1,0-0.1,0-0.1,0l-0.4-0.4c-0.2-0.2-0.4-0.3-0.6-0.3c-0.2,0-0.4,0.1-0.6,0.3l-0.6,0.6
		c-0.3,0.3-0.3,0.9,0,1.2l0.4,0.4c0,0,0,0.1,0,0.2c-0.1,0.1-0.1,0.3-0.2,0.4c0,0.1-0.1,0.1-0.1,0.1h-0.5c-0.5,0-0.9,0.4-0.9,0.9v0.8
		c0,0.5,0.4,0.9,0.9,0.9h0.5c0,0,0.1,0.1,0.1,0.1c0.1,0.1,0.1,0.3,0.2,0.4c0,0.1,0,0.2,0,0.2l-0.4,0.4c-0.2,0.2-0.3,0.4-0.3,0.6
		c0,0.2,0.1,0.4,0.3,0.6l0.6,0.6c0.2,0.2,0.4,0.3,0.6,0.3c0.2,0,0.4-0.1,0.6-0.3l0.4-0.4c0,0,0,0,0.1,0c0,0,0.1,0,0.1,0
		c0.1,0.1,0.3,0.1,0.4,0.2c0.1,0,0.1,0.1,0.1,0.1v0.5c0,0.5,0.4,0.9,0.9,0.9h0.8c0.5,0,0.9-0.4,0.9-0.9v-0.5c0,0,0.1-0.1,0.1-0.1
		c0.1-0.1,0.3-0.1,0.4-0.2c0,0,0.1,0,0.1,0c0.1,0,0.1,0,0.1,0l0.4,0.4c0.2,0.2,0.4,0.3,0.6,0.3c0.2,0,0.4-0.1,0.6-0.3l0.6-0.6
		c0.3-0.3,0.3-0.9,0-1.2l-0.4-0.4c0,0,0-0.1,0-0.2C334.8,183.1,334.9,183,334.9,182.8z M332.7,181.4c0,0.9-0.7,1.7-1.7,1.7
		c-0.9,0-1.7-0.7-1.7-1.7s0.7-1.7,1.7-1.7C331.9,179.8,332.7,180.5,332.7,181.4z"/>
</g>
<line class="st13" x1="306" y1="362.5" x2="339" y2="362.5"/>
<line class="st13" x1="306" y1="366.5" x2="339" y2="366.5"/>
<line class="st13" x1="306" y1="370.5" x2="335" y2="370.5"/>
<line class="st13" x1="306" y1="374.5" x2="345" y2="374.5"/>
<line class="st13" x1="306" y1="378.5" x2="343" y2="378.5"/>
<line class="st13" x1="306" y1="382.5" x2="349" y2="382.5"/>
<line class="st13" x1="407" y1="362.5" x2="440" y2="362.5"/>
<line class="st13" x1="407" y1="366.5" x2="440" y2="366.5"/>
<line class="st13" x1="407" y1="370.5" x2="446" y2="370.5"/>
<line class="st13" x1="407" y1="374.5" x2="450" y2="374.5"/>
<line class="st13" x1="407" y1="378.5" x2="444" y2="378.5"/>
<line class="st13" x1="407" y1="382.5" x2="450" y2="382.5"/>
<line class="st13" x1="356" y1="362.5" x2="399" y2="362.5"/>
<line class="st13" x1="356" y1="366.5" x2="394" y2="366.5"/>
<line class="st13" x1="356" y1="370.5" x2="385" y2="370.5"/>
<line class="st13" x1="356" y1="374.5" x2="399" y2="374.5"/>
<line class="st13" x1="356" y1="378.5" x2="399" y2="378.5"/>
<line class="st13" x1="356" y1="382.5" x2="399" y2="382.5"/>
<line class="st13" x1="163" y1="539.5" x2="204" y2="539.5"/>
<line class="st13" x1="163" y1="543.5" x2="204" y2="543.5"/>
<line class="st13" x1="163" y1="547.5" x2="204" y2="547.5"/>
<line class="st13" x1="163" y1="551.5" x2="204" y2="551.5"/>
<line class="st13" x1="163" y1="555.5" x2="204" y2="555.5"/>
<line class="st13" x1="163" y1="559.5" x2="204" y2="559.5"/>
<line class="st13" x1="163" y1="563.5" x2="204" y2="563.5"/>
<line class="st13" x1="163" y1="567.5" x2="204" y2="567.5"/>
<line class="st13" x1="163" y1="571.5" x2="204" y2="571.5"/>
<line class="st13" x1="94" y1="131.5" x2="129" y2="131.5"/>
<line class="st13" x1="94" y1="135.5" x2="129" y2="135.5"/>
<line class="st13" x1="94" y1="139.5" x2="129" y2="139.5"/>
<line class="st13" x1="94" y1="143.5" x2="129" y2="143.5"/>
<line class="st13" x1="94" y1="147.5" x2="129" y2="147.5"/>
<line class="st13" x1="94" y1="151.5" x2="129" y2="151.5"/>
<line class="st13" x1="94" y1="155.5" x2="129" y2="155.5"/>
<line class="st13" x1="94" y1="159.5" x2="129" y2="159.5"/>
<line class="st13" x1="94" y1="163.5" x2="129" y2="163.5"/>
<line class="st13" x1="134" y1="131.5" x2="166" y2="131.5"/>
<line class="st13" x1="134" y1="135.5" x2="166" y2="135.5"/>
<line class="st13" x1="134" y1="139.5" x2="166" y2="139.5"/>
<line class="st13" x1="134" y1="143.5" x2="166" y2="143.5"/>
<line class="st13" x1="134" y1="147.5" x2="166" y2="147.5"/>
<line class="st13" x1="134" y1="151.5" x2="166" y2="151.5"/>
<line class="st13" x1="134" y1="155.5" x2="166" y2="155.5"/>
<line class="st13" x1="134" y1="159.5" x2="166" y2="159.5"/>
<line class="st13" x1="134" y1="163.5" x2="166" y2="163.5"/>
<line class="st13" x1="517" y1="569.5" x2="567" y2="569.5"/>
<line class="st13" x1="517" y1="573.5" x2="567" y2="573.5"/>
<line class="st13" x1="517" y1="577.5" x2="567" y2="577.5"/>
<line class="st13" x1="517" y1="581.5" x2="567" y2="581.5"/>
<line class="st13" x1="517" y1="585.5" x2="567" y2="585.5"/>
<line class="st13" x1="517" y1="589.5" x2="567" y2="589.5"/>
<line class="st13" x1="517" y1="593.5" x2="567" y2="593.5"/>
<line class="st13" x1="517" y1="597.5" x2="567" y2="597.5"/>
<line class="st13" x1="517" y1="601.5" x2="567" y2="601.5"/>
<line class="st13" x1="573" y1="569.5" x2="623" y2="569.5"/>
<line class="st13" x1="573" y1="573.5" x2="623" y2="573.5"/>
<line class="st13" x1="573" y1="577.5" x2="623" y2="577.5"/>
<line class="st13" x1="573" y1="581.5" x2="623" y2="581.5"/>
<line class="st13" x1="573" y1="585.5" x2="623" y2="585.5"/>
<line class="st13" x1="573" y1="589.5" x2="623" y2="589.5"/>
<line class="st13" x1="573" y1="593.5" x2="623" y2="593.5"/>
<line class="st13" x1="573" y1="597.5" x2="623" y2="597.5"/>
<line class="st13" x1="573" y1="601.5" x2="623" y2="601.5"/>
<line class="st13" x1="629" y1="569.5" x2="679" y2="569.5"/>
<line class="st13" x1="629" y1="573.5" x2="679" y2="573.5"/>
<line class="st13" x1="629" y1="577.5" x2="679" y2="577.5"/>
<line class="st13" x1="629" y1="581.5" x2="679" y2="581.5"/>
<line class="st13" x1="629" y1="585.5" x2="679" y2="585.5"/>
<line class="st13" x1="629" y1="589.5" x2="679" y2="589.5"/>
<line class="st13" x1="629" y1="593.5" x2="679" y2="593.5"/>
<line class="st13" x1="629" y1="597.5" x2="679" y2="597.5"/>
<line class="st13" x1="629" y1="601.5" x2="679" y2="601.5"/>
<line class="st13" x1="171" y1="131.5" x2="205" y2="131.5"/>
<line class="st13" x1="171" y1="135.5" x2="205" y2="135.5"/>
<line class="st13" x1="171" y1="139.5" x2="205" y2="139.5"/>
<line class="st13" x1="171" y1="143.5" x2="205" y2="143.5"/>
<line class="st13" x1="171" y1="147.5" x2="205" y2="147.5"/>
<line class="st13" x1="171" y1="151.5" x2="205" y2="151.5"/>
<line class="st13" x1="171" y1="155.5" x2="205" y2="155.5"/>
<line class="st13" x1="171" y1="159.5" x2="205" y2="159.5"/>
<line class="st13" x1="171" y1="163.5" x2="205" y2="163.5"/>
<line class="st13" x1="121" y1="577.5" x2="160" y2="577.5"/>
<line class="st13" x1="121" y1="581.5" x2="160" y2="581.5"/>
<line class="st13" x1="121" y1="585.5" x2="160" y2="585.5"/>
<line class="st13" x1="121" y1="589.5" x2="160" y2="589.5"/>
<line class="st13" x1="121" y1="593.5" x2="160" y2="593.5"/>
<line class="st13" x1="121" y1="597.5" x2="160" y2="597.5"/>
<line class="st13" x1="121" y1="601.5" x2="160" y2="601.5"/>
<line class="st13" x1="121" y1="605.5" x2="160" y2="605.5"/>
<line class="st13" x1="121" y1="609.5" x2="160" y2="609.5"/>
<g>
	<g>
		<g>
			<path class="st2" d="M274.8,497.1l8.1-10.2c1.6,2,3.6,3.6,5.9,4.7l-8.1,10.2c-1.3,1.6-3.7,1.9-5.3,0.6
				C273.7,501.1,273.5,498.7,274.8,497.1z"/>
		</g>
		<g>
			<g>
				<path class="st1" d="M298.3,490.7c8.3-1,14.2-8.5,13.3-16.7c-1-8.3-8.5-14.2-16.7-13.3c-8.3,1-14.2,8.5-13.3,16.7
					C282.5,485.7,290,491.7,298.3,490.7z M285.3,477c-0.7-6.2,3.7-11.8,10-12.6c6.2-0.7,11.8,3.7,12.6,10c0.7,6.2-3.7,11.8-10,12.6
					C291.6,487.7,286,483.2,285.3,477z"/>
			</g>
		</g>
		<g>
			<path class="st2" d="M305.3,474.7l-2.5,0.3c-0.4-3.4-3.5-5.9-7-5.5l-0.3-2.5C300.3,466.4,304.7,469.9,305.3,474.7z"/>
		</g>
	</g>
</g>
<path class="st2" d="M105.4,241.6C87.5,241.6,73,253.4,73,268c0,14.6,14.5,26.4,32.4,26.4c1.7,0,3.4-0.1,5.1-0.3
	c7,7,15.3,8.2,23.3,8.4v-1.7c-4.3-2.1-8.1-6-8.1-10.4c0-0.6,0-1.2,0.1-1.8c7.3-4.8,12-12.2,12-20.5
	C137.9,253.4,123.4,241.6,105.4,241.6z"/>
<path class="st3" d="M114,262.3l-1.3,0.4l-1.3-3.7c-1.4-4.1-5.7-6.3-9.7-4.9c-4.1,1.4-6,5.8-4.6,9.9l1.3,3.7l-1.4,0.5
	c-0.6,0.2-1.3,1.2-1.1,1.8l4.9,14.2c0.2,0.6,1.2,0.4,1.8,0.2l16.9-5.9c0.6-0.2,0.6-0.4,0.4-0.9l-4.9-14.2
	C114.9,262.8,114.6,262.1,114,262.3z M109.9,263.7l-8.6,3L100,263c-0.9-2.5,0.2-5.2,2.7-6.1c2.5-0.9,5,0.6,5.9,3.1L109.9,263.7z"/>
<g>
	<path class="st3" d="M596.5,273.2l-3.6-3.1l-10.2,8.7c0.4,0.3,0.9,0.6,1.4,0.6h24.6c0.5,0,1-0.2,1.4-0.6l-10.2-8.7L596.5,273.2z"/>
	<path class="st3" d="M610.2,259.4c-0.4-0.3-0.9-0.6-1.4-0.6h-24.6c-0.5,0-1,0.2-1.4,0.6l13.7,11.8L610.2,259.4z"/>
	<polygon class="st3" points="582.1,260.7 582.1,277.7 592,269.3 	"/>
	<polygon class="st3" points="600.9,269.3 610.8,277.7 610.8,260.7 	"/>
</g>
<text transform="matrix(1 0 0 1 320.5 625)" class="st3 st14 st15">A Z</text>
</svg>
