<svg xmlns="http://www.w3.org/2000/svg" width="306" height="294" viewBox="0 0 306 294">
  <metadata><?xpacket begin="﻿" id="W5M0MpCehiHzreSzNTczkc9d"?>
<x:xmpmeta xmlns:x="adobe:ns:meta/" x:xmptk="Adobe XMP Core 5.6-c142 79.160924, 2017/07/13-01:06:39        ">
   <rdf:RDF xmlns:rdf="http://www.w3.org/1999/02/22-rdf-syntax-ns#">
      <rdf:Description rdf:about=""/>
   </rdf:RDF>
</x:xmpmeta>
                                                                                                    
                                                                                                    
                                                                                                    
                                                                                                    
                                                                                                    
                                                                                                    
                                                                                                    
                                                                                                    
                                                                                                    
                                                                                                    
                                                                                                    
                                                                                                    
                                                                                                    
                                                                                                    
                                                                                                    
                                                                                                    
                                                                                                    
                                                                                                    
                                                                                                    
                                                                                                    
                           
<?xpacket end="w"?></metadata>
<defs>
    <style>
      .cls-1 {
        fill: #fff;
        fill-rule: evenodd;
      }
    </style>
  </defs>
  <path class="cls-1" d="M461.153,1967.47a9.869,9.869,0,0,1-2.2-1.6l-9.141,12.66q1.14,0.75,2.206,1.59ZM195.905,2125.13a9.738,9.738,0,0,1,2,1.85l14.642-17.11c-0.7-.58-1.387-1.17-2.052-1.79Zm254.083-96.96c-0.754.5-1.532,0.97-2.332,1.4L467,2061.77a9.836,9.836,0,0,1,2.33-1.4ZM295.1,2111.64a9.588,9.588,0,0,1,1.381-2.34l-20.768-12.15c-0.427.8-.88,1.59-1.357,2.35Zm-26.309-63.04q0.946,0.975,1.83,2.01l19.905-17.71c-0.638-.64-1.262-1.3-1.87-1.97Zm93.939,36.88a20.134,20.134,0,0,1-.6,2.66l33.659,5.69c0.036-.92.113-1.83,0.231-2.72Zm9.188-51.3c-0.66.62-1.335,1.23-2.024,1.82l34.621,37.98q0.965-.96,2.015-1.83Zm-79.622-85.07-44.243-44.57c-0.542.74-1.112,1.45-1.709,2.14l44,44.32c0.1-.1.2-0.21,0.306-0.31C291.181,1950.15,291.731,1949.62,292.291,1949.11Zm-64.176,19.1a20.056,20.056,0,0,1,2.06-.1c0.228,0,.454,0,0.68.01l-6.416-49.65c-0.9.11-1.8,0.2-2.72,0.24Zm180.856-44.04c-0.641-.63-1.258-1.3-1.856-1.98l-32.335,30.24c0.614,0.66,1.212,1.34,1.794,2.03Zm-219.955,33.04a9.4,9.4,0,0,1,2.545.97l15.9-41.7c-0.853-.32-1.689-0.68-2.508-1.06Zm237.741,108.12q1.377,0.06,2.72.24l2.819-32.47a27.1,27.1,0,0,1-2.72-.23Zm-94.88-17.82a55.633,55.633,0,0,1-39.423-16.3c-0.006-.01-0.011-0.01-0.017-0.02l-1.916,1.71,0.121,0.12a58.385,58.385,0,0,0,79.247,2.98l-1.727-1.89A55.6,55.6,0,0,1,331.877,2047.51Zm-55.752-55.66a55.416,55.416,0,0,1,16.017-39.03l-1.806-1.82a58.14,58.14,0,0,0-1.685,79.93l1.913-1.7A55.412,55.412,0,0,1,276.125,1991.85Zm55.752-55.65a55.632,55.632,0,0,1,39.423,16.3q0.822,0.825,1.608,1.68l1.872-1.75q-0.816-.885-1.668-1.74a58.386,58.386,0,0,0-80.821-1.58l1.807,1.82A55.57,55.57,0,0,1,331.877,1936.2Zm55.753,55.65a55.442,55.442,0,0,1-16.33,39.36q-0.548.54-1.113,1.08l1.726,1.89c0.4-.38.805-0.77,1.2-1.16a58.149,58.149,0,0,0,3.462-78.56l-1.874,1.76A55.36,55.36,0,0,1,387.63,1991.85Zm-97.066,37.38-1.913,1.7c0.608,0.67,1.232,1.33,1.87,1.97l1.916-1.71C291.8,2030.55,291.172,2029.9,290.564,2029.23Zm79.623,3.06c-0.66.62-1.335,1.23-2.025,1.82l1.727,1.89c0.689-.59,1.364-1.2,2.024-1.82Zm-77.733-79.79c0.537-.54,1.086-1.06,1.644-1.57l-1.807-1.82c-0.56.51-1.11,1.04-1.649,1.58-0.1.1-.2,0.21-0.306,0.31l1.806,1.82C292.246,1952.71,292.349,1952.6,292.454,1952.5Zm82.246,3.72,1.874-1.76c-0.582-.69-1.18-1.37-1.794-2.03l-1.872,1.75Q373.828,1955.17,374.7,1956.22Zm-85.857-62.55q0.093-1.365.307-2.7l-34.453-3.95q-0.121,1.365-.347,2.7Zm117.348,182.16-1.681-1.85-0.028.03a29.632,29.632,0,0,0-8.462,17.1l2.462,0.42A27.107,27.107,0,0,1,406.191,2075.83Zm19.341-8.03c0.338,0,.674.01,1.009,0.02l0.216-2.49c-0.406-.01-0.814-0.02-1.225-0.02a29.7,29.7,0,0,0-19.007,6.84l1.681,1.85A27.152,27.152,0,0,1,425.532,2067.8Zm19.286,7.97a27.252,27.252,0,1,1-46.56,19.26c0-.26,0-0.52.012-0.78l-2.481-.42c-0.016.4-.026,0.79-0.026,1.2a29.782,29.782,0,1,0,33.714-29.46l-0.216,2.48A27.245,27.245,0,0,1,444.818,2075.77Zm-46.336,15.76-2.462-.42c-0.118.89-.195,1.8-0.231,2.72l2.481,0.42A27.262,27.262,0,0,1,398.482,2091.53Zm7.765-15.76q0.935-.93,1.959-1.77l-1.681-1.85q-1.048.87-2.015,1.83l1.681,1.85Zm20.294-7.95a27.077,27.077,0,0,1,2.72.23l0.216-2.48q-1.342-.18-2.72-0.24Zm-71.335,27.22a17.909,17.909,0,1,1,5.262-12.68,18.144,18.144,0,0,1-.2,2.71l2.461,0.41a20.351,20.351,0,1,0-.6,2.66l-2.48-.42A17.9,17.9,0,0,1,355.206,2095.04Zm5.058-9.97a17.907,17.907,0,0,1-.614,2.65l2.48,0.42a20.134,20.134,0,0,0,.6-2.66Zm-82.176-7.46a38.917,38.917,0,0,1-4.535,18.28l2.155,1.26a41.567,41.567,0,0,0-5.092-46.54l-1.864,1.65A38.948,38.948,0,0,1,278.088,2077.61Zm-11.48,27.67a39.237,39.237,0,0,1-52.437,2.69l-1.622,1.9a41.717,41.717,0,0,0,61.8-10.37l-2.154-1.26A39.282,39.282,0,0,1,266.608,2105.28Zm-55.433,0a39.164,39.164,0,0,1,55.433-55.34c0.106,0.1.209,0.21,0.314,0.32l1.864-1.66c-0.137-.14-0.274-0.28-0.414-0.42a41.656,41.656,0,1,0-58.961,58.86c0.355,0.35.719,0.7,1.086,1.04l1.622-1.89C211.8,2105.89,211.484,2105.59,211.175,2105.28Zm0.944,0.91-1.622,1.89c0.665,0.62,1.349,1.21,2.052,1.79l1.622-1.9C213.466,2107.4,212.782,2106.8,212.119,2106.19Zm60.078-7.95,2.154,1.26c0.477-.76.93-1.55,1.357-2.35l-2.155-1.26C273.128,2096.69,272.675,2097.48,272.2,2098.24Zm-5.275-47.98c0.633,0.65,1.243,1.31,1.83,2l1.864-1.65q-0.882-1.035-1.83-2.01Zm166.6-19.62c-0.339,0-.676-0.01-1.012-0.02l-0.215,2.48q0.61,0.03,1.227.03a29.662,29.662,0,0,0,14.133-3.56l-1.286-2.13A27.24,27.24,0,0,1,433.523,2030.64Zm-19.286-7.97a27.251,27.251,0,0,1,34.111-42.11l1.46-2.03a29.738,29.738,0,1,0-20.232,54.34l0.216-2.48A27.24,27.24,0,0,1,414.237,2022.67Zm38.572-38.51a27.2,27.2,0,0,1,0,38.51,27.529,27.529,0,0,1-4.106,3.37l1.285,2.13a29.684,29.684,0,0,0,4.585-45.77,29.421,29.421,0,0,0-2.559-2.28l-1.461,2.03A27.951,27.951,0,0,1,452.809,1984.16Zm-2.256-2.01,1.461-2.03q-1.065-.84-2.206-1.59l-1.46,2.03A25.4,25.4,0,0,1,450.553,1982.15Zm-1.85,43.89c-0.752.5-1.53,0.97-2.333,1.4l1.286,2.13c0.8-.43,1.578-0.9,2.332-1.4Zm-18.911,4.35-0.216,2.48a27.1,27.1,0,0,0,2.72.23l0.215-2.48A27.032,27.032,0,0,1,429.792,2030.39Zm-186.914-54.54a17.983,17.983,0,1,1-14.443-5.17l-0.32-2.47a20.53,20.53,0,1,0,2.74-.09l0.324,2.51A17.935,17.935,0,0,1,242.878,1975.85Zm-14.763-7.64,0.32,2.47c0.573-.05,1.153-0.08,1.74-0.08q0.505,0,1,.03l-0.324-2.51c-0.226-.01-0.452-0.01-0.68-0.01A20.056,20.056,0,0,0,228.115,1968.21Zm14.727-61.43a32.4,32.4,0,0,1-18.723,9.22l0.32,2.47a34.877,34.877,0,0,0,20.167-9.93q0.9-.9,1.733-1.86l-1.763-1.77C244.022,1905.55,243.444,1906.18,242.842,1906.78Zm-22.942,9.49a32.293,32.293,0,0,1-11.547-2.12l-0.888,2.33a34.892,34.892,0,0,0,12.435,2.28c0.61,0,1.217-.02,1.819-0.05l-0.32-2.48C220.9,1916.26,220.4,1916.27,219.9,1916.27Zm-22.941-9.49a32.415,32.415,0,1,1,55.385-22.9c0,0.96-.044,1.91-0.127,2.85l2.48,0.29c0.093-1.04.143-2.08,0.143-3.14a34.936,34.936,0,1,0-49.883,31.54l0.89-2.34A32.431,32.431,0,0,1,196.959,1906.78Zm49.31-4.03,1.779,1.79a34.607,34.607,0,0,0,6.3-14.82l-2.482-.29A32.14,32.14,0,0,1,246.269,1902.75Zm0,0q-0.8,1.11-1.693,2.16l1.763,1.77c0.6-.69,1.167-1.4,1.709-2.14Zm-24.87,13.48,0.32,2.48c0.916-.04,1.823-0.13,2.72-0.24l-0.32-2.47C223.223,1916.11,222.316,1916.19,221.4,1916.23Zm-15.552-3.15-0.89,2.34c0.819,0.38,1.655.74,2.508,1.06l0.888-2.33C207.5,1913.83,206.664,1913.47,205.847,1913.08Zm46.021-23.65,2.482,0.29q0.225-1.335.347-2.7l-2.48-.29Q252.1,1888.1,251.868,1889.43Zm47.388-12.98a27.2,27.2,0,1,1-7.988,19.26c0-.59.021-1.18,0.058-1.76l-2.483-.28c-0.046.67-.071,1.35-0.071,2.04a29.644,29.644,0,1,0,.378-4.74l2.483,0.28A27.181,27.181,0,0,1,299.256,1876.45Zm-7.93,17.5q0.087-1.365.307-2.7l-2.483-.28q-0.213,1.335-.307,2.7Zm81.207-31.44a9.689,9.689,0,0,1-1.178,2.45l28.651,13.67c0.352-.83.733-1.65,1.137-2.46Zm38.207,4.57a39.131,39.131,0,1,1,.053,55.39l-1.822,1.7c0,0.01,0,.01,0,0.01a41.553,41.553,0,1,0-7.833-48.01l2.252,1.07A39.394,39.394,0,0,1,410.74,1867.08Zm-11.48,27.67a38.946,38.946,0,0,1,3-15.04l-2.256-1.08a41.6,41.6,0,0,0,7.109,43.56l1.822-1.7A38.93,38.93,0,0,1,399.26,1894.75Zm11.533,27.72c-0.017-.02-0.035-0.03-0.053-0.05-0.623-.62-1.223-1.27-1.8-1.93l-1.822,1.7c0.6,0.68,1.215,1.35,1.856,1.98Zm-7.4-45.23-2.252-1.07c-0.4.81-.785,1.63-1.137,2.46l2.256,1.08C402.611,1878.87,402.99,1878.05,403.4,1877.24Zm-71.385,73.62c15.158,0,22.649,7.25,25.634,17.59l13.478-12.6a53.265,53.265,0,0,0-75.3-3.19l11.792,11.88C311.364,1956.33,318.823,1950.86,332.01,1950.86Zm22.154,67.89-1.38-1.51c-0.095.3-.19,0.61-0.285,0.91Q353.318,2018.465,354.164,2018.75Zm-43.907-3.41-5.613,4.99c2.221-.68,4.431-1.36,6.5-2.14Q310.7,2016.8,310.257,2015.34Zm48.965-31.43c0.042,0.2.081,0.4,0.114,0.61a17.65,17.65,0,0,1-.184,6.49,16.033,16.033,0,0,1-.853,2.75,151.751,151.751,0,0,1-4.6,20.44l5.659,6.21c4.917,1.5,9.858,3.01,13.429,5.56a53.007,53.007,0,0,0,.125-68.08l-14.536,13.59A54.557,54.557,0,0,1,359.222,1983.91Zm-49.811,28.55a140.357,140.357,0,0,1-4.145-19.19,15.738,15.738,0,0,1-.663-2.26,17.672,17.672,0,0,1-.185-6.49c0.017-.1.036-0.2,0.054-0.3a48.358,48.358,0,0,1,2.049-16.92l-12.656-12.75a53.025,53.025,0,0,0-2.9,71.42,30.3,30.3,0,0,1,7.266-3.57Zm0.846,2.88q-0.429-1.425-.846-2.88l-11.177,9.94c2.066-.74,4.243-1.4,6.41-2.07Zm43.907,3.41c1.686,0.58,3.438,1.12,5.194,1.66l-5.659-6.21c-0.3,1.03-.607,2.04-0.915,3.04Zm-46.551-54.21-11.792-11.88q-1,.93-1.956,1.89l12.656,12.75A29.331,29.331,0,0,1,307.613,1964.54Zm50.031,3.91q0.425,1.47.732,3.03l14.536-13.59q-0.87-1.05-1.79-2.04Zm63.29-82.96c0.5-4.05,3.436-9.21,7.218-12.39a10.87,10.87,0,0,1,3.622-2.81c0.083-.12.168-0.25,0.258-0.38,3.164-1.12,7.246-4.06,5.942-7.59,1.557,0.14,3.474,2.63,3.1,5.53,1.21-.85,1.9-2.27,1.742-4.61,1.29,0.48,2.465,3.68,1.115,6.45,4.664,1.41,7.942,4.58,9.042,8.24a18.889,18.889,0,0,1,3.019,7.56,3.754,3.754,0,0,1-.063,1.38,8.654,8.654,0,0,1,.966,2.84,11.768,11.768,0,0,1-.124,4.33,9.208,9.208,0,0,1-1.734,3.83,5.344,5.344,0,0,1-2.47,1.78,18.838,18.838,0,0,1-5.262,6.71,6.743,6.743,0,0,0,4.75,6c4.648,1.83,10.468,2.83,14.155,5.45a36.1,36.1,0,1,0-60.041-39.24l14.749,7.04C420.925,1885.57,420.929,1885.53,420.934,1885.49Zm-1.131,28.56c1.733-.53,3.461-1.06,5.052-1.69a6.745,6.745,0,0,0,4.75-6c-0.285-.23-0.562-0.46-0.832-0.7Zm7.1-10.35a20.793,20.793,0,0,1-2.559-4.05,5.339,5.339,0,0,1-2.47-1.78,9.183,9.183,0,0,1-1.734-3.83,11.768,11.768,0,0,1-.124-4.33,9.568,9.568,0,0,1,.328-1.37l-15.3-7.3a35.91,35.91,0,0,0,5.66,36.77,15.989,15.989,0,0,1,2.751-1.54Zm1.871,1.96a17.979,17.979,0,0,1-1.871-1.96l-13.452,12.57a55.344,55.344,0,0,1,6.353-2.22Zm-8.43-17.32a7.673,7.673,0,0,1,.649-1.49,3.708,3.708,0,0,1-.071-1.24l-14.749-7.04c-0.407.8-.785,1.63-1.133,2.47ZM257.918,2064.5a4.1,4.1,0,0,1-.068,1.5,9.247,9.247,0,0,1,1.048,3.08,12.82,12.82,0,0,1-.134,4.7,10.051,10.051,0,0,1-1.882,4.15,5.81,5.81,0,0,1-2.679,1.93,22.519,22.519,0,0,1-1.9,3.23c-0.045.1-.09,0.2-0.137,0.29l18.723,10.95a35.893,35.893,0,0,0-4.446-40.02l-8.987,8A14.147,14.147,0,0,1,257.918,2064.5Zm-9.28,23.57c0.482,2.38,1.846,4.34,5.009,5.58,4.645,1.83,10.369,2.9,14.369,5.27,0.534-.72,1.041-1.47,1.521-2.23l-18.788-10.99A18.1,18.1,0,0,1,248.638,2088.07Zm-20.29-.85a15.811,15.811,0,0,1-2.741-3.95,22.8,22.8,0,0,1-2.027-3.41,5.818,5.818,0,0,1-2.68-1.93,10.062,10.062,0,0,1-1.881-4.15,12.8,12.8,0,0,1-.134-4.7,9.239,9.239,0,0,1,1.06-3.1,4.149,4.149,0,0,1-.063-1.48c0.545-4.39,3.728-9.99,7.83-13.44,2.276-2.74,5.918-4.54,11.214-4.54,8.152,0,14.1,4.4,15.718,9.78a24.81,24.81,0,0,1,1.8,3.28l8.169-7.27a36.078,36.078,0,0,0-54.849,46.61c3.476-2.06,8.252-3.14,12.492-4.58Zm0.8,0.82c-0.275-.27-0.544-0.54-0.8-0.82l-6.09,7.12c0.64-.22,1.268-0.45,1.878-0.69C227.316,2092.4,228.677,2090.43,229.152,2088.04Zm21.6-2.34,18.788,10.99c0.48-.77.933-1.55,1.356-2.36l-18.723-10.95A14.579,14.579,0,0,1,250.749,2085.7Zm6.711-23.39,8.987-8c-0.586-.69-1.2-1.35-1.832-2l-8.169,7.27A20.413,20.413,0,0,1,257.46,2062.31Zm52.849-156.05c-6.361-2.01-8.566-6.28-8.327-11.08l-7.837-.9c-0.028.47-.044,0.95-0.044,1.43a24.219,24.219,0,0,0,5.124,14.91c2.623-1.67,6.525-2.37,9.67-3.61A6.753,6.753,0,0,0,310.309,1906.26Zm-5.068-20.96c3.316-5.75,7.7-12.36,13.3-10.02,6.07-2.54,10.581,5.54,13.493,10.59,3.733,6.48,5.682,12.4-.609,17.63a15.205,15.205,0,0,1-4.8,2.65,6.128,6.128,0,0,0,1.562.86c3.145,1.24,7.047,1.94,9.67,3.61a24.219,24.219,0,0,0,5.124-14.91,24.443,24.443,0,0,0-48.528-4.13l7.9,0.9A25.424,25.424,0,0,1,305.241,1885.3Zm-3.259,9.88a16.434,16.434,0,0,1,.369-2.7l-7.9-.9a23.941,23.941,0,0,0-.309,2.7Zm127.049,181.85c4.6,0.74,9.011,6.92,9.559,11.32a2.809,2.809,0,0,1-.047,1.03,6.4,6.4,0,0,1,.719,2.11,8.823,8.823,0,0,1-.092,3.23,6.922,6.922,0,0,1-1.291,2.85,4.053,4.053,0,0,1-1.839,1.33,14.01,14.01,0,0,1-3.85,4.93c0,0.01,0,.01,0,0.01a0.557,0.557,0,0,0-.062.08,5.024,5.024,0,0,0,3.534,4.44c2.587,1.02,5.662,1.69,8.2,2.78a24.358,24.358,0,0,0-14.84-40.26l-0.523,6.02C428.675,2076.94,428.855,2076.99,429.031,2077.03Zm-10.114,27.06c-0.069-.08-0.138-0.17-0.2-0.25-0.1-.13-0.2-0.26-0.307-0.4a14.356,14.356,0,0,1-3.381-4.54,4.053,4.053,0,0,1-1.839-1.33,5.793,5.793,0,0,1-.589-0.9l-11.5-1.94c0,0.1,0,.2,0,0.3a24.264,24.264,0,0,0,6.116,16.11c2.535-1.09,5.61-1.76,8.2-2.78A5.006,5.006,0,0,0,418.917,2104.09Zm-7.115-12.6a6.38,6.38,0,0,1,.728-2.12,2.863,2.863,0,0,1-.044-1.02,12.667,12.667,0,0,1,1.369-4.11l-5.74-6.3A24.347,24.347,0,0,0,401.28,2092l10.465,1.77A8.688,8.688,0,0,1,411.8,2091.49Zm10.2-14.45a13.492,13.492,0,0,1,3.53-.45c0.084,0,.164.01,0.247,0.01l0.517-5.96c-0.254-.01-0.508-0.01-0.764-0.01a24.3,24.3,0,0,0-15.4,5.48l5.222,5.72C417.134,2079.42,419.539,2077.46,422,2077.04Zm-10.108,17.68a8.778,8.778,0,0,1-.149-0.95L401.28,2092a24.373,24.373,0,0,0-.184,2.73l11.5,1.94A7.6,7.6,0,0,1,411.894,2094.72Zm1.961-10.48a17.35,17.35,0,0,1,1.5-2.41l-5.222-5.72a23.542,23.542,0,0,0-2.014,1.83Zm14.638-7.34,0.523-6.02a24.367,24.367,0,0,0-2.72-.24l-0.517,5.96A13.667,13.667,0,0,1,428.493,2076.9Zm-198.318-72.46c0.149,0,.3-0.01.447-0.01-0.149,0-.3.01-0.447,0.01h0Zm8.139-21.05a1.81,1.81,0,0,1-.03.65,3.949,3.949,0,0,1,.449,1.31,5.456,5.456,0,0,1-.057,2.01,4.31,4.31,0,0,1-.8,1.78,2.46,2.46,0,0,1-1.146.83,8.665,8.665,0,0,1-2.442,3.1,3.147,3.147,0,0,0,2.2,2.8c2.05,0.8,4.591,1.26,6.307,2.35a15.882,15.882,0,0,0-11.349-25.54l0.421,3.26A8.665,8.665,0,0,1,238.314,1983.39Zm-9.023,21.02a2.339,2.339,0,0,0,.265.01h-0.012C229.459,2004.42,229.375,2004.41,229.291,2004.41Zm-3.224-11.34a8.676,8.676,0,0,1-2.442-3.1,2.46,2.46,0,0,1-1.146-.83,4.3,4.3,0,0,1-.805-1.78,5.456,5.456,0,0,1-.057-2.01,3.89,3.89,0,0,1,.454-1.32,1.827,1.827,0,0,1-.028-0.64c0.353-2.83,1.584-6.16,4.691-6.64a7.889,7.889,0,0,1,2.375-.85l-0.413-3.2a15.88,15.88,0,0,0-11.14,25.52c1.716-1.09,4.257-1.55,6.307-2.35A3.147,3.147,0,0,0,226.067,1993.07Zm2.629-20.37,0.413,3.2a7.088,7.088,0,0,1,2.757.04l-0.421-3.26c-0.419-.03-0.843-0.05-1.27-0.05C229.676,1972.63,229.183,1972.66,228.7,1972.7Zm-27.968-82.39c8.463,4.61,2.166,1.5.967-8.42-1-8.33,4.942-23.77,17.936-23.96,13.028,0.19,19.486,15.63,18.481,23.96a25.1,25.1,0,0,1-.589,3.16l11.715,1.34c0.071-.83.109-1.66,0.109-2.51a29.447,29.447,0,0,0-58.894,0,29.185,29.185,0,0,0,6.227,18.04c2.249-1.44,5.293-2.29,8.231-3.2A13.224,13.224,0,0,1,200.728,1890.31Zm34.3,1.12,0.678,0.68c0.678-.32,1.755-0.92,3.374-1.8a15.788,15.788,0,0,1-1.1,4.09l6.133,6.18a29.289,29.289,0,0,0,4.772-11.49l-12.184-1.4A39.219,39.219,0,0,1,235.028,1891.43ZM219.9,1913.28c0.264,0,.527-0.01.79-0.01-0.263,0-.526.01-0.79,0.01h0Zm-1.566-.05c0.146,0.01.293,0.02,0.44,0.02h-0.015C218.617,1913.25,218.475,1913.24,218.334,1913.23Zm-2.23-.2a0.334,0.334,0,0,0,.1.01h-0.055C216.133,1913.04,216.118,1913.03,216.1,1913.03Zm0.723,0.09a1.464,1.464,0,0,1,.208.02c-0.014,0-.027-0.01-0.041-0.01C216.938,1913.13,216.883,1913.12,216.827,1913.12Zm0.745,0.06,0.313,0.03c-0.01,0-.019-0.01-0.028-0.01A2.729,2.729,0,0,1,217.572,1913.18Zm17.323-14.45c1.783,0.55,3.6,1.07,5.264,1.73l-3.572-3.6A12.708,12.708,0,0,1,234.9,1898.73Zm0.811-6.62-0.678-.68C234.56,1892.42,234.566,1892.66,235.706,1892.11Zm0.881,4.75,3.572,3.6a17.363,17.363,0,0,1,2.961,1.46c0.343-.44.673-0.88,0.991-1.34l-6.133-6.18A12.346,12.346,0,0,1,236.587,1896.86Zm-14.674,16.35,0.316-.03a2.748,2.748,0,0,1-.287.02A0.034,0.034,0,0,1,221.913,1913.21Zm1.682-.16c0.035-.01.069-0.01,0.1-0.02-0.016,0-.032.01-0.048,0.01A0.111,0.111,0,0,0,223.6,1913.05Zm-2.572.2c0.148,0,.3-0.01.444-0.02-0.142.01-.284,0.02-0.427,0.02h-0.017Zm1.74-.11a1.52,1.52,0,0,1,.212-0.02c-0.057,0-.113.01-0.169,0.01C222.791,1913.13,222.777,1913.14,222.763,1913.14Zm14.76-28.09a24.824,24.824,0,0,1-.824,2.64l12.184,1.4q0.24-1.335.355-2.7Zm209.368,113.21c-0.47,4.61-2.57,15.22,2.9,8.91,0.4,1.8-.3,3.9-2.17,5.74a3.163,3.163,0,0,0,6.119-.64c0.089,3.17-.882,5.12-2.25,6.26a8.789,8.789,0,0,1,1.165.7,24.725,24.725,0,0,0-3.526-35.11l-3.893,5.4A14.1,14.1,0,0,1,446.891,1998.26Zm-33.321,13.61c0.7,3.69,5.022,5.15,6.738,1.81-3.232-.6-3.072-4.29-2.672-6.09,4.186,2.16,3.177-3.35,2.288-8.17-1.2-6.51.865-14.29,9.19-14.29,3.1-2.77,10.136-2.26,14.4,2.13l3.411-4.73a24.807,24.807,0,0,0-32.529,36.7,10.117,10.117,0,0,1,1.414-.83C414.446,2017.18,413.478,2015.13,413.57,2011.87Zm29.942-24.61a11.514,11.514,0,0,1,1.721,2.26l3.893-5.4a24.627,24.627,0,0,0-2.2-1.59Zm-97.281,100.86a2.851,2.851,0,0,0,2,2.54c2,0.79,4.518,1.21,6.064,2.37a15.981,15.981,0,0,0,3.319-5.65l-9.419-1.59A7.676,7.676,0,0,1,346.231,2088.12Zm-3.318,10.13h0Zm-0.832,0h0Zm-3.306-10.13a7.879,7.879,0,0,1-2.217-2.82,2.211,2.211,0,0,1-1.04-.75,3.841,3.841,0,0,1-.731-1.61,4.955,4.955,0,0,1-.052-1.82,3.619,3.619,0,0,1,.413-1.21,1.571,1.571,0,0,1-.026-0.57,7.115,7.115,0,0,1,.7-2.19,8.449,8.449,0,0,1,1.139-2.84c0-.02,0-0.04,0-0.06a5.54,5.54,0,0,1,11.08,0c0,0.02,0,.04,0,0.06a8.418,8.418,0,0,1,1.134,2.82,7.074,7.074,0,0,1,.715,2.21,1.559,1.559,0,0,1-.027.58,3.68,3.68,0,0,1,.408,1.2,4.955,4.955,0,0,1-.052,1.82,4.237,4.237,0,0,1-.109.41l8.144,1.38a15.932,15.932,0,1,0-27.544,8.3c1.546-1.16,4.062-1.58,6.064-2.37A2.851,2.851,0,0,0,338.775,2088.12Zm11.335-4.77a3.617,3.617,0,0,1-.622,1.2,2.211,2.211,0,0,1-1.04.75c-0.079.17-.164,0.33-0.252,0.49l9.419,1.59a15.849,15.849,0,0,0,.639-2.65Zm99.9-169.29c0.169,0.07.339,0.13,0.51,0.2,0.008-.07.02-0.14,0.028-0.2-2.723-.96-4.292-3.51-5.131-6.45a1.057,1.057,0,0,1-.152.08C446.039,1910.55,447.476,1913.02,450.015,1914.06Zm-4.745-6.37a14.384,14.384,0,0,1-13.6.02c-0.846,2.9-2.41,5.4-5.1,6.35,0.835,7.31,7,10.73,12,12.71,4.946-1.96,11.042-5.34,11.968-12.51-0.171-.07-0.341-0.13-0.51-0.2C447.476,1913.02,446.039,1910.55,445.27,1907.69Zm5.442-19.86a17.536,17.536,0,0,0-1.572-7.66,0.756,0.756,0,0,0-.069-0.1c-1.144-1.54-1.876-2.26-4.711-1.51a23.69,23.69,0,0,1-11.106,0c-3.1-.81-4.289-0.08-5.362,1.47a17.77,17.77,0,0,0-1.611,7.8c0,0.12.01,0.23,0.014,0.34l12.228,5.84-0.257.54,0.646,0.69h9.171c-0.024,2.47-.484,4.99-0.716,7.35a17.687,17.687,0,0,0,2.977-4.62,1.374,1.374,0,0,1,1.045-.83,2.484,2.484,0,0,0,1.523-.98,6.513,6.513,0,0,0,1.189-2.69,9.071,9.071,0,0,0,.1-3.32,4.6,4.6,0,0,0-1.423-2.88h0a1.445,1.445,0,0,1-.3-0.34,5.108,5.108,0,0,0-.9,1.72C450.874,1890.73,450.539,1891.76,450.712,1887.83Zm-21.882,7.41h5.955l-11.947-5.71c-0.051.2-.094,0.41-0.129,0.62a9.049,9.049,0,0,0,.1,3.32,6.512,6.512,0,0,0,1.188,2.69,2.483,2.483,0,0,0,1.524.98v0.01a1.359,1.359,0,0,1,1.027.78,18.364,18.364,0,0,0,2.346,3.9l0.511-.48A55.911,55.911,0,0,1,428.83,1895.24Zm-4.392-8.32a1.268,1.268,0,0,1-.213.27l0.606,0.29A3.232,3.232,0,0,0,424.438,1886.92Zm14.474,8.32-0.646-.69-0.33.69h0.976Zm-10.015,6.59c0.209,0.26.425,0.52,0.648,0.76-0.04-.41-0.087-0.82-0.137-1.24Zm7.053-6.59,1.579-1.48,0.737,0.79,0.257-.54-12.228-5.84c0.135,3.52-.262,2.5-0.952.48a6.814,6.814,0,0,0-.512-1.17l-0.606-.29c-0.03.03-.06,0.05-0.093,0.08a4.206,4.206,0,0,0-1.294,2.26l11.947,5.71h1.165Zm2.316-.69-0.737-.79-1.579,1.48h1.986Zm-5.934,4.07,3.224-3.02-0.771-.36H428.83a55.911,55.911,0,0,0,.578,6.11l2.914-2.72c0-.01,0-0.01,0-0.01h0.011Zm-1.561,5.17c0.273,0.24.555,0.46,0.845,0.67,0.18,0.14.365,0.26,0.552,0.38,0.121-.86.195-1.73,0.231-2.57Zm8.141-8.55,0.472,0.5-2.754,2.57,7.993-.56a34.29,34.29,0,0,0,.1,7.11c0.195-.13.387-0.26,0.575-0.4a13.42,13.42,0,0,0,2.07-1.87c0.232-2.36.692-4.88,0.716-7.35h-9.171Zm-1.562,1.22-1.794-.86-3.224,3.02,4.3-.31,2.754-2.57-0.472-.5h-0.976Zm-6.579,7.33,1.628-1.52a28.593,28.593,0,0,0-.077-3.64l-2.914,2.72c0.05,0.42.1,0.83,0.137,1.24A13.59,13.59,0,0,0,430.771,1903.79Zm5.179-8.55h-1.165l0.771,0.36Zm1.4,1.22,0.586-1.22H435.95l-0.394.36Zm7.273,1.29-7.993.56-4.231,3.96c-0.036.84-.11,1.71-0.231,2.57a11.68,11.68,0,0,0,12.554.02A34.29,34.29,0,0,1,444.623,1897.75Zm-12.3.87s0,0,0,.01l0.01-.01h-0.011Zm0.011,0-0.01.01a28.593,28.593,0,0,1,.077,3.64l4.231-3.96Zm-8.822-12.17a1.07,1.07,0,0,0-.533.14l1.248,0.6A0.525,0.525,0,1,0,423.51,1886.45Zm3.041,11.48a1.359,1.359,0,0,0-1.027-.78v-0.01a2.483,2.483,0,0,1-1.524-.98,6.512,6.512,0,0,1-1.188-2.69,9.049,9.049,0,0,1-.1-3.32c0.035-.21.078-0.42,0.129-0.62l-1.251-.59c-1.085,3.7.407,9.01,3.718,9.55a19.5,19.5,0,0,0,2.593,4.27l1-.93A18.364,18.364,0,0,1,426.551,1897.93Zm25.933-11a1.445,1.445,0,0,0,.3.34h0a4.6,4.6,0,0,1,1.423,2.88,9.071,9.071,0,0,1-.1,3.32,6.513,6.513,0,0,1-1.189,2.69,2.484,2.484,0,0,1-1.523.98,1.374,1.374,0,0,0-1.045.83,17.687,17.687,0,0,1-2.977,4.62c-0.068.7-.117,1.39-0.128,2.05a18.176,18.176,0,0,0,4.369-6.15c4.045-.66,5.377-8.44,2.606-11.71a1.205,1.205,0,0,0-.8-0.33A1.279,1.279,0,0,0,452.484,1886.93Zm-22.81,17.71c-0.011-.66-0.06-1.35-0.129-2.05-0.223-.24-0.439-0.5-0.648-0.76l-1,.93A16.007,16.007,0,0,0,429.674,1904.64Zm-5.542-17.37c0.033-.03.063-0.05,0.093-0.08l-1.248-.6a1.483,1.483,0,0,0-.332.25,4.776,4.776,0,0,0-.422.61,0.8,0.8,0,0,1-.068.11,6.719,6.719,0,0,0-.568,1.38l1.251,0.59A4.206,4.206,0,0,1,424.132,1887.27Zm21.165,17.19c-0.188.14-.38,0.27-0.575,0.4,0.062,0.48.139,0.97,0.231,1.45a13.408,13.408,0,0,0,2.286-1.67c0.011-.66.06-1.35,0.128-2.05A13.42,13.42,0,0,1,445.3,1904.46Zm-13.681,0c-0.29-.21-0.572-0.43-0.845-0.67l-1,.94a13.892,13.892,0,0,0,2.146,1.55c0.1-.47.182-0.96,0.25-1.44C431.981,1904.72,431.8,1904.6,431.616,1904.46Zm-2.071-1.87c0.069,0.7.118,1.39,0.129,2.05l0.1,0.09,1-.94A13.59,13.59,0,0,1,429.545,1902.59Zm8.911,4.09a11.414,11.414,0,0,1-6.288-1.84c-0.068.48-.151,0.97-0.25,1.44a12.312,12.312,0,0,0,1.531.77c1.6-.13,3.28-0.21,5.007-0.21v-0.16Zm0,0v0.16h0.1c1.7,0,3.355.07,4.938,0.2a12.88,12.88,0,0,0,1.458-.73c-0.092-.48-0.169-0.97-0.231-1.45A11.418,11.418,0,0,1,438.456,1906.68Zm-5.007.37a12.785,12.785,0,0,0,5.007.99v-1.2C436.729,1906.84,435.052,1906.92,433.449,1907.05Zm5.108-.21h-0.1v1.2a12.931,12.931,0,0,0,5.039-1C441.912,1906.91,440.26,1906.84,438.557,1906.84Zm-120.874,13.32a24,24,0,0,1-8.272-1.77A20.649,20.649,0,0,0,317.683,1920.16Zm9.727-1.66a19.407,19.407,0,0,0,9.393-6.54c-0.008,0-.017-0.01-0.024-0.01A24.793,24.793,0,0,1,327.41,1918.5Zm-1.824.57q0.928-.255,1.824-0.57a24.793,24.793,0,0,0,9.369-6.55,0.015,0.015,0,0,0-.016-0.01A24.574,24.574,0,0,1,325.586,1919.07Zm-5.616.99c-0.473.03-.949,0.04-1.428,0.04a24.283,24.283,0,0,1-10.951-2.59c0.589,0.32,1.2.61,1.82,0.88a24,24,0,0,0,8.272,1.77c0.3,0.01.6,0,.9-0.01Q319.278,1920.12,319.97,1920.06Zm-0.647-12.58h-1.562v-0.03a32.42,32.42,0,0,1-5.357-.64,4.227,4.227,0,0,1-2.049,1.4c-3.1,1.09-8.1,1.82-10.087,3.65a30.446,30.446,0,0,0,7.323,5.65,24.283,24.283,0,0,0,10.951,2.59c0.479,0,.955-0.01,1.428-0.04a30.782,30.782,0,0,0,5.616-.99,24.574,24.574,0,0,0,11.177-7.13c-2.9-1.95-7.055-2.68-10.035-3.73a4.112,4.112,0,0,1-2.1-1.47,27.4,27.4,0,0,1-5.3.71v0.03Zm4.567-4.08a10.17,10.17,0,0,1-10.7,0,5.175,5.175,0,0,1-.789,3.41,32.42,32.42,0,0,0,5.357.64v0.03h1.562v-0.03a27.4,27.4,0,0,0,5.3-.71A5.263,5.263,0,0,1,323.89,1903.4Zm-5.289-8.54h6.767c-0.016,1.76-.342,3.55-0.507,5.22a12.512,12.512,0,0,0,2.111-3.27,0.958,0.958,0,0,1,.741-0.59,1.819,1.819,0,0,0,1.08-.7,4.662,4.662,0,0,0,.844-1.91,6.4,6.4,0,0,0,.072-2.35,3.3,3.3,0,0,0-1.008-2.05h0a0.749,0.749,0,0,1-.211-0.24,3.648,3.648,0,0,0-.637,1.22c-0.5,1.48-.743,2.21-0.619-0.58a11.171,11.171,0,0,0-.335-3.13c-1.674,1.64-4.683,2.74-8.116,2.74-3.681,0-6.871-1.26-8.455-3.11a11.515,11.515,0,0,0-.421,3.5c0.123,2.79-.161,2.06-0.665.58a3.637,3.637,0,0,0-.642-1.22,0.965,0.965,0,0,1-.217.24,3.291,3.291,0,0,0-1.009,2.05,6.229,6.229,0,0,0-.022,1.79l11.286,1.3Zm-9.858,1.09a1.511,1.511,0,0,0,.627.27h0a0.962,0.962,0,0,1,.728.56,12.619,12.619,0,0,0,2.124,3.3c-0.12-1.22-.325-2.5-0.434-3.78Zm2.972-1.09H318.6l0.037-.51-11.286-1.3c0.024,0.19.055,0.38,0.094,0.56a4.662,4.662,0,0,0,.844,1.91,2.151,2.151,0,0,0,.453.43l3.045,0.35C311.747,1895.82,311.719,1895.34,311.715,1894.86Zm12.563,4.67c-0.036.43-.085,0.85-0.135,1.27q0.375-.345.718-0.72c0.165-1.67.491-3.46,0.507-5.22H318.6l-0.155,2.2-6.658-.76c0.109,1.28.314,2.56,0.434,3.78q0.344,0.375.718,0.72c-0.05-.42-0.1-0.84-0.135-1.27h11.473Zm-12.49-3.23,6.658,0.76,0.155-2.2h-6.886C311.719,1895.34,311.747,1895.82,311.788,1896.3Zm12.355,4.5c0.05-.42.1-0.84,0.135-1.27H312.805c0.037,0.43.085,0.85,0.135,1.27a8.841,8.841,0,0,0,.75.61,8.281,8.281,0,0,0,9.7,0A8.841,8.841,0,0,0,324.143,1900.8Zm-14.045-4.02a0.962,0.962,0,0,0-.728-0.56h0a1.511,1.511,0,0,1-.627-0.27l-1.452-.17a2.882,2.882,0,0,0,1.924,1.39,13.009,13.009,0,0,0,3.1,4.37c-0.008-.48-0.042-0.96-0.091-1.46A12.619,12.619,0,0,1,310.1,1896.78Zm18.392-7.81a0.749,0.749,0,0,0,.211.24h0a3.3,3.3,0,0,1,1.008,2.05,6.4,6.4,0,0,1-.072,2.35,4.662,4.662,0,0,1-.844,1.91,1.819,1.819,0,0,1-1.08.7,0.958,0.958,0,0,0-.741.59,12.512,12.512,0,0,1-2.111,3.27c-0.049.5-.083,0.98-0.091,1.46a13.012,13.012,0,0,0,3.1-4.37c2.87-.47,3.813-5.99,1.844-8.31a0.868,0.868,0,0,0-.56-0.23A0.927,0.927,0,0,0,328.49,1888.97Zm-21.116,2.29a3.291,3.291,0,0,1,1.009-2.05,0.965,0.965,0,0,0,.217-0.24,0.806,0.806,0,0,0-1.277-.05,3.092,3.092,0,0,0-.323.47h0a6.145,6.145,0,0,0-.633,3.55l0.987,0.11A6.229,6.229,0,0,1,307.374,1891.26Zm0.916,4.26a4.662,4.662,0,0,1-.844-1.91c-0.039-.18-0.07-0.37-0.094-0.56l-0.987-.11a6.335,6.335,0,0,0,.926,2.84l1.452,0.17A2.151,2.151,0,0,1,308.29,1895.52Zm15.853,5.28c-0.055.46-.112,0.92-0.159,1.37,0.271-.2.534-0.41,0.786-0.63,0.008-.48.042-0.96,0.091-1.46Q324.518,1900.455,324.143,1900.8Zm-11.921-.72c0.049,0.5.083,0.98,0.091,1.46,0.252,0.22.515,0.43,0.786,0.63-0.047-.45-0.1-0.91-0.159-1.37Q312.565,1900.455,312.222,1900.08Zm6.32,2.9a8.145,8.145,0,0,1-4.852-1.57,8.841,8.841,0,0,1-.75-0.61c0.055,0.46.112,0.92,0.159,1.37a9.093,9.093,0,0,0,5.443,1.78v-0.97Zm4.851-1.57a8.144,8.144,0,0,1-4.851,1.57v0.97a9.092,9.092,0,0,0,5.442-1.78c0.047-.45.1-0.91,0.159-1.37A8.841,8.841,0,0,1,323.393,1901.41Zm-71.962,194.08c0.184,0.08.368,0.15,0.553,0.22,0.009-.07.022-0.14,0.03-0.22-2.6-.91-4.233-3.17-5.206-5.87a1.933,1.933,0,0,0-.171.13C247.532,2092.34,249.026,2094.51,251.431,2095.49Zm-4.794-5.74c-2.5,1.83-5.231,2.96-7.287,2.96-0.149,0-.294-0.01-0.435-0.01h-0.137a2.928,2.928,0,0,1-.3.01c-2.066,0-4.813-1.14-7.323-2.99-0.977,2.66-2.6,4.87-5.169,5.77,0.905,7.93,7.6,11.64,13.013,13.8,5.365-2.14,11.979-5.8,12.983-13.58-0.185-.07-0.369-0.14-0.553-0.22C249.026,2094.51,247.532,2092.34,246.637,2089.75Zm-7.607-14.68,12.925-11.5a21.123,21.123,0,0,0-1.473-4.85c-0.025-.03-0.049-0.07-0.075-0.1-1.241-1.67-2.035-2.45-5.111-1.64a25.734,25.734,0,0,1-12.048.01c-3.359-.88-4.653-0.09-5.817,1.59a19.248,19.248,0,0,0-1.749,8.46c0.036,0.82.05,1.43,0.042,1.88,0.242,4.35,1.1,9.23,3.031,10.22a37.655,37.655,0,0,1-.307-4.07H239.03Zm10.305,0a37.028,37.028,0,0,1-.292,3.94c2.113-1.42,3-7.44,3.117-11.99l-9.048,8.05h6.223Zm3.847,2.01a2.844,2.844,0,0,0,1.392-1,7.121,7.121,0,0,0,1.29-2.93,9.8,9.8,0,0,0,.111-3.6,5.009,5.009,0,0,0-1.543-3.12h0a1.458,1.458,0,0,1-.324-0.37,0.159,0.159,0,0,1-.032.04C252.944,2068.06,252.774,2070.94,253.182,2077.08Zm-29.366-10.87c-0.043-.05-0.087-0.1-0.133-0.15a1.468,1.468,0,0,1-.332.37,5,5,0,0,0-1.543,3.12,9.8,9.8,0,0,0,.111,3.6,7.121,7.121,0,0,0,1.29,2.93,2.911,2.911,0,0,0,1.437,1.02C225.049,2071.06,224.892,2068.17,223.816,2066.21Zm28.355-.79a17.432,17.432,0,0,0-.216-1.85l-12.925,11.5h4.082l9.048-8.05C252.175,2066.46,252.178,2065.93,252.171,2065.42Zm-19.825,16.28a2.177,2.177,0,0,0-.339,1c-0.006.09-.008,0.17-0.008,0.25l0.326-.38Q232.342,2082.135,232.346,2081.7Zm13.16,1.9a3.949,3.949,0,0,0,.052-0.62,2.614,2.614,0,0,0-.023-0.33l-0.079-.04C245.468,2082.93,245.485,2083.27,245.506,2083.6Zm-6.729-6.47h0l0.08-.14-0.9-.96,1.074-.96H228.448a37.655,37.655,0,0,0,.307,4.07,1.841,1.841,0,0,0,1.839-.14,1.688,1.688,0,0,1,.305-0.27,9.338,9.338,0,0,1,6.226-1.77l0.618-.72Zm4.335-2.06-2.044,1.82,0.11,0.07a9.716,9.716,0,0,1,4,.87l0.4-.03c-0.006.08-.012,0.15-0.018,0.22a7.367,7.367,0,0,1,1.093.71,1.688,1.688,0,0,1,.305.27,1.853,1.853,0,0,0,2.082.01,37.028,37.028,0,0,0,.292-3.94h-6.223ZM232,2082.95a3.3,3.3,0,0,0,.226,1.18c0.048-.52.08-1.04,0.1-1.56Zm5.744-6.71-0.618.72a14.479,14.479,0,0,1,1.652.17Zm3.435,0.72-0.11-.07-0.07.06A1.081,1.081,0,0,1,241.178,2076.96Zm-2.4.17,0.182-.03-0.1-.11-0.08.14h0Zm6.757,5.52a2.373,2.373,0,0,0-.09-0.4c0,0.11.007,0.23,0.011,0.36Zm-4.467-5.76,2.044-1.82H239.03l-1.074.96,0.9,0.96,0.608-1.04Zm-0.07.06,0.07-.06-1.6-.94-0.608,1.04,0.1,0.11A15,15,0,0,1,241,2076.95Zm4.583,0.85-0.4.03c0.133,0.06.261,0.13,0.385,0.19C245.569,2077.95,245.575,2077.88,245.581,2077.8Zm-11.236,2.41a4.221,4.221,0,0,0-2,1.49q0,0.435-.021.87Zm11.161,3.39c-0.021-.33-0.038-0.67-0.05-0.99l-5.342-3.13a11.863,11.863,0,0,0-1.336-.05H238.6l-5.333,6.23a6.826,6.826,0,0,0,2.056,1.33q0.647,0.18,1.328.3c0.737-.15,1.345-0.94,2.129-1.03a0.628,0.628,0,0,1,.137-0.01c0.841,0,1.472.86,2.24,1.04a11.406,11.406,0,0,0,1.445-.35A4.506,4.506,0,0,0,245.506,2083.6Zm-6.908-4.17a11.978,11.978,0,0,0-4.253.78l-2.02,2.36c-0.02.52-.052,1.04-0.1,1.56a4.32,4.32,0,0,0,1.04,1.53Zm1.516,0.05,5.342,3.13c0-.13-0.008-0.25-0.011-0.36C244.925,2080.61,242.651,2079.7,240.114,2079.48Zm14-13.42a1.458,1.458,0,0,0,.324.37h0a5.009,5.009,0,0,1,1.543,3.12,9.8,9.8,0,0,1-.111,3.6,7.121,7.121,0,0,1-1.29,2.93,2.844,2.844,0,0,1-1.392,1q0.039,0.57.082,1.17c0.008,0.11.014,0.22,0.017,0.33,4.293-.85,5.683-9.16,2.7-12.68a1.292,1.292,0,0,0-.862-0.36A1.369,1.369,0,0,0,254.109,2066.06Zm-29.463,11.04a2.911,2.911,0,0,1-1.437-1.02,7.121,7.121,0,0,1-1.29-2.93,9.8,9.8,0,0,1-.111-3.6,5,5,0,0,1,1.543-3.12,1.468,1.468,0,0,0,.332-0.37,1.356,1.356,0,0,0-1.006-.52,1.318,1.318,0,0,0-.939.43,5.356,5.356,0,0,0-.457.65,1.115,1.115,0,0,1-.075.13c-2.173,3.87-.667,11.1,3.342,11.84,0-.11.01-0.23,0.018-0.34C224.6,2077.85,224.622,2077.47,224.646,2077.1Zm17.142,10.16a8.078,8.078,0,0,0,.812-0.32,11.406,11.406,0,0,1-1.445.35A1.063,1.063,0,0,0,241.788,2087.26Zm-5.752,0a1.174,1.174,0,0,0,.613.03q-0.681-.12-1.328-0.3C235.548,2087.08,235.787,2087.18,236.036,2087.26Zm101.2-42.42c-0.173.02-.346,0.03-0.519,0.05-0.34.03-.682,0.06-1.024,0.08a0.374,0.374,0,0,1-.105.01l-0.92.06h-0.12c-0.417.02-.834,0.04-1.253,0.05H333.16c-0.426.01-.854,0.02-1.283,0.02s-0.856-.01-1.283-0.02h-0.135c-0.419-.01-0.837-0.03-1.253-0.05h-0.12a53.24,53.24,0,0,1-34.673-15.28c6.811,7.77,21.729,15.68,38.306,15.38a52.62,52.62,0,0,0,7.984-.76q-1.545.255-3.12,0.42C337.467,2044.82,337.352,2044.83,337.237,2044.84Zm0.346-.04q1.573-.165,3.12-0.42c0.5-.08,1-0.18,1.486-0.27C340.675,2044.4,339.138,2044.64,337.583,2044.8Zm-43.315-15.24-0.015.02,0.16,0.18a53.24,53.24,0,0,0,34.673,15.28A53.261,53.261,0,0,1,294.268,2029.56Zm-0.015.02,0.015-.02c-0.065-.06-0.13-0.13-0.195-0.19Q294.162,2029.475,294.253,2029.58Zm76.2-1.08a29.819,29.819,0,0,0-6.914-3.51l4.99,5.48C369.219,2029.8,369.861,2029.15,370.452,2028.5Zm-12.17-5.23c-2.293-.68-4.6-1.31-6.794-1.99-2.648,7.99-5.2,14.19-6.223,16.7H318.826a149.833,149.833,0,0,1-6.653-16.68c-4.365,1.33-9.255,2.5-13.272,4.14l-4.633,4.12a53.261,53.261,0,0,0,34.818,15.48h0.12c0.416,0.02.834,0.04,1.253,0.05h0.135c0.427,0.01.854,0.02,1.283,0.02s0.857-.01,1.283-0.02H333.3c0.419-.01.836-0.03,1.253-0.05h0.12l0.92-.06a0.374,0.374,0,0,0,.105-0.01c0.342-.02.684-0.05,1.024-0.08,0.173-.02.346-0.03,0.519-0.05,0.115-.01.23-0.02,0.346-0.04,1.555-.16,3.092-0.4,4.606-0.69a54.575,54.575,0,0,0,24.319-11.82Zm-26.4,21.84c-0.429,0-.856-0.01-1.283-0.02C331.021,2045.1,331.448,2045.11,331.877,2045.11Zm1.283-.02c-0.426.01-.854,0.02-1.283,0.02C332.306,2045.11,332.734,2045.1,333.16,2045.09Zm-39.727-16.52c0.2,0.27.417,0.53,0.64,0.8,0.065,0.06.13,0.13,0.195,0.19l4.633-4.12A19.98,19.98,0,0,0,293.433,2028.57Zm73.075,3.72c0.714-.6,1.387-1.22,2.02-1.82l-4.99-5.48c-1.7-.63-3.474-1.19-5.256-1.72Zm-23.524-21.51a21.39,21.39,0,0,1-22.2.01c0.11,4.26-.9,7.87-5.905,9.63-0.869.3-1.777,0.6-2.708,0.88a149.833,149.833,0,0,0,6.653,16.68h26.439c1.023-2.51,3.575-8.71,6.223-16.7-0.894-.28-1.769-0.56-2.615-0.86C343.9,2018.65,342.884,2015.04,342.984,2010.78Zm-12.394-18.07,0.605-.55-14.534-14.64a25.235,25.235,0,0,0-2.653,6.35c0.017,3.24-.543,1.76-1.439-0.86a8.384,8.384,0,0,0-1.126-2.3,2.307,2.307,0,0,1-.464.51,6.485,6.485,0,0,0-1.983,4.04,12.982,12.982,0,0,0,.148,4.77,9.229,9.229,0,0,0,1.689,3.84,3.43,3.43,0,0,0,2.052,1.34h0a2.306,2.306,0,0,1,1.744,1.34,26.162,26.162,0,0,0,4.074,6.47c-0.354-3.32-.966-6.86-1-10.31H330.59Zm-11.4-18.79q-0.526.66-.984,1.29l15.5,15.62,3-2.81a55.788,55.788,0,0,1-9.037-5.8A51.875,51.875,0,0,1,319.19,1973.92Zm20.168,15.34-3.686,3.45h10.379c-0.033,3.45-.646,6.99-1,10.31a25.931,25.931,0,0,0,4.043-6.4,2.33,2.33,0,0,1,1.776-1.41,3.456,3.456,0,0,0,2.051-1.33,8.468,8.468,0,0,0,1.376-2.68C350.8,1992.61,345.332,1991.83,339.358,1989.26Zm-7.675,3.39-0.488-.49-0.605.55h1.027Zm0,0-0.066.06H331.7l0.022-.03Zm1.315-1.16,0.71-.66-15.5-15.62c-0.584.8-1.093,1.55-1.545,2.31l14.534,14.64,1.318-1.2Zm-0.268.23,0.012,0.01,0.256-.24-0.485-.53-1.318,1.2,0.488,0.49Zm0.012,0.01-0.012-.01-1.047.93,0.037,0.03Zm0.966-.9,0.9,0.9-0.717.74,0.217,0.24h1.566l3.686-3.45c-0.872-.38-1.755-0.79-2.645-1.24Zm0.4,1.88-0.217-.24-0.232.24h0.449Zm-2.386-.03-0.022.03h0.043Zm2.169-.21,0.717-.74-0.9-.9-0.71.66Zm-1.147-.74,0.915,0.98h0l0.232-.24-0.891-.98Zm-1,.98h1.916l-0.915-.98-1.022.95Zm-11.717,10.31c-0.02-.21-0.039-0.41-0.057-0.62h0.749l10.241-9.11-0.459-.5,0.092-.08H317.7c0.034,3.45.646,6.99,1,10.31,0.193,0.22.39,0.44,0.591,0.65Zm15.648-10.31-0.845.79,8.119,8.9h0.841c-0.024.28-.051,0.56-0.079,0.84l0.566,0.62c0.265-.27.525-0.55,0.777-0.84,0.354-3.32.967-6.86,1-10.31H335.672Zm-2.95,2.64-7.924,7.05h14.463l-6.424-7.04-0.06.05Zm0,0-1.8-1.92,0.088-.08-0.052-.06-10.241,9.11H324.8Zm-13.428,8.32c0.291,0.31.591,0.6,0.9,0.89-0.059-.51-0.116-1.03-0.167-1.54Zm11.3-10.96-0.092.08,0.459,0.5,0.66-.58H330.59Zm13.684,11.15-0.566-.62c-0.044.44-.093,0.88-0.144,1.32C343.806,2004.33,344.042,2004.1,344.274,2003.86Zm-5.013-1.46h3.685l-8.119-8.9-1.99,1.86Zm-7.563-9.69h-0.081l-0.66.58,0.052,0.06Zm1.079,2.7,0.06-.05-0.053-.06-0.062.05Zm2.05-1.91,0.845-.79h-1.566Zm-3.906-.07,1.8,1.92,0.062-.05-1.775-1.95Zm2.736-.72h0l0.928,0.99-1.8,1.6,0.053,0.06,1.99-1.86-0.721-.79h-0.449Zm-1.916,0H331.7l-0.689.64,1.775,1.95,1.8-1.6-0.928-.99-0.949.97Zm1.916,0h0Zm-1.916,0,0.967,0.97,0.949-.97h-1.916Zm-11.774,9.69c0.018,0.21.037,0.41,0.057,0.62l0.692-.62h-0.749Zm23.82,0h-0.841l0.762,0.84C343.736,2002.96,343.763,2002.68,343.787,2002.4Zm-22.489,3.12c0.226,0.18.455,0.36,0.689,0.53a16.928,16.928,0,0,0,19.781,0c0.163-.12.322-0.25,0.481-0.37l-2.988-3.28H324.8Zm3.5-3.12h-4.082l-0.692.62c0.051,0.51.108,1.03,0.167,1.54q0.539,0.5,1.107.96Zm17.451,3.28c0.453-.35.892-0.73,1.315-1.12,0.051-.44.1-0.88,0.144-1.32l-0.762-.84h-3.685ZM354.3,1991.2a8.468,8.468,0,0,1-1.376,2.68,3.456,3.456,0,0,1-2.051,1.33,2.33,2.33,0,0,0-1.776,1.41,25.931,25.931,0,0,1-4.043,6.4c-0.055.52-.1,1.03-0.143,1.54l0.928,1.01a27.661,27.661,0,0,0,5.406-8.07c3.342-.55,5.426-4.4,5.891-8.52a5.319,5.319,0,0,1-.563.71A6.324,6.324,0,0,1,354.3,1991.2ZM318.7,2003.02a26.162,26.162,0,0,1-4.074-6.47,2.306,2.306,0,0,0-1.744-1.34h0a3.43,3.43,0,0,1-2.052-1.34,9.229,9.229,0,0,1-1.689-3.84,12.982,12.982,0,0,1-.148-4.77,6.485,6.485,0,0,1,1.983-4.04,2.307,2.307,0,0,0,.464-0.51,2.02,2.02,0,0,0-1.573-.94,1.858,1.858,0,0,0-1.275.57,8.255,8.255,0,0,0-.619.89,1.228,1.228,0,0,1-.1.18c-2.969,5.29-.88,15.18,4.639,16.09a28.042,28.042,0,0,0,5.053,7.71l1.242-1.11Q318.761,2003.56,318.7,2003.02Zm0.243,3.54c-0.014-.8-0.064-1.62-0.138-2.46l-1.242,1.11Q318.232,2005.915,318.946,2006.56Zm25.862,0q0.528-.48,1.028-0.99l-0.928-1.01C344.855,2005.23,344.82,2005.9,344.808,2006.56Zm0.1-2c0.04-.51.088-1.02,0.143-1.54-0.252.29-.512,0.57-0.777,0.84Zm-1.1,2.83-0.512-.56c-0.04.35-.078,0.7-0.113,1.04C343.4,2007.72,343.605,2007.56,343.81,2007.39Zm-24.263-.32c0.335,0.28.68,0.55,1.031,0.81-0.054-.52-0.114-1.04-0.177-1.57Zm-0.844-4.05q0.059,0.54.105,1.08l0.486-.43C319.093,2003.46,318.9,2003.24,318.7,2003.02Zm1.7,3.29c-0.069-.58-0.141-1.16-0.21-1.75-0.306-.29-0.606-0.58-0.9-0.89l-0.486.43c0.074,0.84.124,1.66,0.138,2.46,0.2,0.17.4,0.35,0.6,0.51Zm23.163-1.75c-0.087.76-.181,1.52-0.266,2.27l0.512,0.56c0.34-.27.674-0.54,1-0.83,0.012-.66.047-1.33,0.1-2l-0.634-.7C344.042,2004.1,343.806,2004.33,343.564,2004.56Zm-21.577,1.49c-0.234-.17-0.463-0.35-0.689-0.53l-0.9.79c0.063,0.53.123,1.05,0.177,1.57a18.834,18.834,0,0,0,11.3,3.69v-2.33A16.573,16.573,0,0,1,321.987,2006.05Zm19.781,0a16.574,16.574,0,0,1-9.891,3.19v2.33a18.8,18.8,0,0,0,11.308-3.7c0.035-.34.073-0.69,0.113-1.04l-1.049-1.15C342.09,2005.8,341.931,2005.93,341.768,2006.05Zm-21.577-1.49c0.069,0.59.141,1.17,0.21,1.75l0.9-.79Q320.73,2005.055,320.191,2004.56Zm23.107,2.27c0.085-.75.179-1.51,0.266-2.27-0.423.39-.862,0.77-1.315,1.12Zm-112.636-18.91-0.738-5.71a7.81,7.81,0,0,0-2.1-2.01c-0.021-.01-0.043-0.01-0.064-0.02l-0.113-.03a0.465,0.465,0,0,1-.137-0.03,1.814,1.814,0,0,0-2.238.74,8.259,8.259,0,0,0-.748,3.62c0.08,1.82-.106,1.35-0.436.38a2.317,2.317,0,0,0-.422-0.8,0.525,0.525,0,0,1-.14.16,2.168,2.168,0,0,0-.66,1.34,4.194,4.194,0,0,0,.048,1.54,3.06,3.06,0,0,0,.551,1.25,1.163,1.163,0,0,0,.707.45h0a0.659,0.659,0,0,1,.477.37,8.237,8.237,0,0,0,1.389,2.16c-0.108-1.09-.32-2.27-0.331-3.41h4.954Zm5.2-3.44a6.912,6.912,0,0,0-.087-1.13c-0.432.77-1.577,1.05-2.856,0.75l0.494,3.82h1.228c-0.011,1.14-.223,2.32-0.331,3.41a8.2,8.2,0,0,0,1.381-2.14,0.639,0.639,0,0,1,.485-0.39,1.163,1.163,0,0,0,.707-0.45,3.087,3.087,0,0,0,.552-1.25,4.215,4.215,0,0,0,.047-1.54,2.168,2.168,0,0,0-.66-1.34h0a0.579,0.579,0,0,1-.138-0.16,2.443,2.443,0,0,0-.418.8C235.938,1985.83,235.782,1986.3,235.863,1984.48Zm-2.449,3.44-0.494-3.82a5.827,5.827,0,0,1-2.837-1.71c-0.05-.06-0.1-0.12-0.159-0.18l0.738,5.71h2.752Zm-6.086,1.57,3.5-.25-0.171-1.32h-4.954c0.011,1.14.223,2.32,0.331,3.41a6.52,6.52,0,0,0,.961.87c0.084,0.06.17,0.12,0.256,0.17A13.106,13.106,0,0,0,227.328,1989.49Zm6.086-1.57,0.137,1.06-1.354.17,0.84-.06a15.865,15.865,0,0,0,.046,3.29c0.09-.06.18-0.12,0.267-0.18a6.47,6.47,0,0,0,.961-0.87c0.108-1.09.32-2.27,0.331-3.41h-1.228Zm-2.581,1.32,1.364-.09,1.354-.17-0.137-1.06h-2.752Zm2.2-.15-0.84.06-1.355.16-0.009-.07-3.5.25a13.106,13.106,0,0,1-.072,2.88,5.29,5.29,0,0,0,2.919.86h0a5.251,5.251,0,0,0,2.908-.85A15.865,15.865,0,0,1,233.037,1989.09Zm-2.195.22,1.355-.16-1.364.09Zm5.844-5.25a0.579,0.579,0,0,0,.138.16h0a2.168,2.168,0,0,1,.66,1.34,4.215,4.215,0,0,1-.047,1.54,3.087,3.087,0,0,1-.552,1.25,1.163,1.163,0,0,1-.707.45,0.639,0.639,0,0,0-.485.39,8.2,8.2,0,0,1-1.381,2.14c-0.032.33-.055,0.64-0.06,0.95a8.442,8.442,0,0,0,2.027-2.85c1.879-.31,2.5-3.92,1.207-5.44a0.542,0.542,0,0,0-.366-0.15A0.606,0.606,0,0,0,236.686,1984.06Zm-12.036,5.11a0.659,0.659,0,0,0-.477-0.37h0a1.163,1.163,0,0,1-.707-0.45,3.06,3.06,0,0,1-.551-1.25,4.194,4.194,0,0,1-.048-1.54,2.168,2.168,0,0,1,.66-1.34,0.525,0.525,0,0,0,.14-0.16,0.6,0.6,0,0,0-.428-0.22,0.562,0.562,0,0,0-.405.19,2.6,2.6,0,0,0-.21.3,0.159,0.159,0,0,1-.007.02c-0.946,1.66-.289,4.79,1.455,5.08a8.442,8.442,0,0,0,2.027,2.85c0-.31-0.028-0.63-0.06-0.95A8.237,8.237,0,0,1,224.65,1989.17Zm2.35,3.03a6.52,6.52,0,0,1-.961-0.87c0.032,0.32.055,0.64,0.06,0.95a6.651,6.651,0,0,0,1.041.77c0.047-.23.085-0.45,0.116-0.68C227.17,1992.32,227.084,1992.26,227,1992.2Zm6.35,0c-0.087.06-.177,0.12-0.267,0.18,0.029,0.23.064,0.45,0.107,0.68a6.2,6.2,0,0,0,1.061-.78c0-.31.028-0.62,0.06-0.95A6.47,6.47,0,0,1,233.35,1992.2Zm-3.175,1.03v0.63a5.92,5.92,0,0,0,3.015-.8c-0.043-.23-0.078-0.45-0.107-0.68A5.251,5.251,0,0,1,230.175,1993.23Zm0,0a5.29,5.29,0,0,1-2.919-.86c-0.031.23-.069,0.45-0.116,0.68a5.99,5.99,0,0,0,3.035.81h0v-0.63h0Zm-5.009,3.16a4.439,4.439,0,0,0,.392-0.28A4.439,4.439,0,0,1,225.166,1996.39Zm5.009,0.92a8.992,8.992,0,0,1-4.552-1.26l-0.065.06a4.439,4.439,0,0,1-.392.28c-0.026.01-.051,0.03-0.078,0.04a0.567,0.567,0,0,1-.114.06,0.233,0.233,0,0,1-.069.04,9.686,9.686,0,0,0,10.465.05c-0.009-.01-0.017-0.01-0.025-0.02a0.506,0.506,0,0,1-.109-0.05l-0.1-.06-0.1-.06c-0.031-.02-0.061-0.05-0.091-0.07a0.556,0.556,0,0,1-.1-0.07c-0.03-.02-0.059-0.05-0.089-0.07s-0.059-.05-0.088-0.08a0.013,0.013,0,0,1-.013-0.01A8.911,8.911,0,0,1,230.175,1997.31Zm10.147,0.86h0c0.014,0.01.029,0.01,0.044,0.02C240.35,1998.18,240.336,1998.18,240.322,1998.17Zm-21.44.45h0c0.083-.04.167-0.09,0.255-0.13C219.051,1998.53,218.965,1998.58,218.882,1998.62Zm1.051-.47a0.048,0.048,0,0,0-.035.01,0.052,0.052,0,0,1,.037-0.01h0Zm21.52,0.48a2.981,2.981,0,0,0-.288-0.13,3.077,3.077,0,0,1,.287.13h0Zm-21.518-.48a0.052,0.052,0,0,0-.037.01l-0.08.03c-0.088.04-.174,0.07-0.26,0.11-0.033.01-.066,0.03-0.1,0.04a2.788,2.788,0,0,0-.27.13,0.1,0.1,0,0,0-.05.02c-0.088.04-.172,0.09-0.255,0.13a36.174,36.174,0,0,0,22.568.01,3.077,3.077,0,0,0-.287-0.13l-0.068-.03a2.717,2.717,0,0,0-.275-0.11,0.409,0.409,0,0,0-.1-0.04,3,3,0,0,0-.284-0.1l-0.072-.03c-0.015-.01-0.03-0.01-0.044-0.02A35.61,35.61,0,0,1,219.935,1998.15Zm2.383,4.22c0.031,0.02.062,0.03,0.094,0.05-0.031-.02-0.061-0.03-0.091-0.05h0Zm13.438,1.06c0.018-.01.036-0.01,0.055-0.02-0.019.01-.038,0.01-0.058,0.02h0Zm2.214-1.03h0l-0.04.03Zm-13.529.97c0.014,0.01.027,0.01,0.041,0.02h0c-0.013-.01-0.027-0.01-0.04-0.02h0Zm-0.527-.21c0.011,0,.023.01,0.034,0.01h0C223.935,2003.17,223.925,2003.16,223.914,2003.16Zm-1.151-.55,0.115,0.06c-0.029-.01-0.057-0.03-0.085-0.04C222.783,2002.62,222.773,2002.62,222.763,2002.61Zm-0.441-.24h0c0.03,0.02.06,0.03,0.091,0.05h0C222.384,2002.4,222.353,2002.39,222.322,2002.37Zm1,0.52c0.005,0,.009.01,0.014,0.01s0.032,0.01.048,0.02l0.071,0.03Zm0.538,0.25a0.109,0.109,0,0,1,.051.02c0.011,0,.021.01,0.032,0.01Zm0.582,0.23c0.013,0.01.027,0.01,0.04,0.02h0C224.472,2003.38,224.459,2003.38,224.445,2003.37Zm-1.7-.77c0.007,0,.014.01,0.02,0.01s0.02,0.01.03,0.02Zm13.008,0.83h0c0.02-.01.039-0.01,0.058-0.02s0.013-.01.019-0.01Zm1.084-.45c0.016-.01.032-0.01,0.047-0.02h0l0.06-.03C236.91,2002.95,236.872,2002.96,236.835,2002.98Zm-14.042-.35c0.028,0.01.056,0.03,0.085,0.04,0.01,0.01.02,0.01,0.03,0.02Zm14.614,0.07h0.013a0.017,0.017,0,0,1,.018-0.01l0.05-.03A0.3,0.3,0,0,1,237.407,2002.7Zm0.508-.27h0.013l0.04-.03h0Zm-13.475.94h0Zm-0.494-.2h0Zm12.318,0.06a0.013,0.013,0,0,0,.014-0.01,0.154,0.154,0,0,0,.063-0.02c0.012-.01.023-0.01,0.035-0.02C236.339,2003.2,236.3,2003.21,236.264,2003.23Zm-13.942-.86c0.031,0.02.062,0.03,0.093,0.05l0.328,0.18,0.05,0.03,0.115,0.06c0.138,0.07.277,0.14,0.417,0.2l0.133,0.06c0.134,0.07.269,0.13,0.405,0.19l0.083,0.03h0.006c0.161,0.07.324,0.14,0.488,0.2h0c0.014,0.01.027,0.01,0.041,0.02H224.5a16.485,16.485,0,0,1-2.161-1.02h-0.021Zm13.429,1.06,0.079-.03c0.146-.05.291-0.11,0.434-0.17,0.038-.02.075-0.03,0.112-0.05,0.155-.06.307-0.13,0.459-0.2,0.037-.02.075-0.03,0.112-0.05,0.155-.07.308-0.15,0.46-0.23a0.3,0.3,0,0,0,.081-0.04c0.144-.07.286-0.15,0.427-0.23l0.053-.03c-0.008,0-.015.01-0.023,0.01a15.832,15.832,0,0,1-2.211,1.02h0.017Zm-13.408-1.06a16.485,16.485,0,0,0,2.161,1.02c1.839,0.17,3.734.25,5.671,0.25,2.023,0,3.8-.06,5.559-0.21a15.832,15.832,0,0,0,2.211-1.02,57.661,57.661,0,0,1-7.77.45A61.791,61.791,0,0,1,222.343,2002.37Zm202.263,117.04h0Zm1.724,0h0Zm0.024,0h0Zm-1.647,0h0Zm-2.58-.22h0Zm0,0h0Zm6.806,0h0Zm-8.769-13.57c-0.015.04-.031,0.08-0.047,0.13,0.006-.02.011-0.03,0.017-0.05S420.152,2105.65,420.162,2105.62Zm-0.145.38c-0.017.04-.034,0.08-0.052,0.12a0.234,0.234,0,0,1,.024-0.05A0.507,0.507,0,0,1,420.017,2106Zm11.759,1.61c-0.038-.06-0.076-0.12-0.113-0.18,0.016,0.03.032,0.05,0.048,0.08A1.026,1.026,0,0,1,431.776,2107.61Zm-12.432-.29c-0.035.06-.071,0.11-0.108,0.17a1.014,1.014,0,0,1,.068-0.1C419.318,2107.37,419.33,2107.34,419.344,2107.32Zm0.189-.32c-0.033.06-.067,0.12-0.1,0.18l0.02-.03Q419.494,2107.075,419.533,2107Zm11.855-.05-0.09-.18c0.018,0.03.034,0.07,0.052,0.1S431.376,2106.92,431.388,2106.95Zm-12.755,1.31a0.037,0.037,0,0,1,.022-0.02c-0.048.05-.1,0.1-0.146,0.15h0C418.553,2108.35,418.593,2108.3,418.633,2108.26Zm13.358-.35q-0.057-.075-0.111-0.15l0.042,0.06C431.944,2107.85,431.968,2107.88,431.991,2107.91Zm-12.862-.27-0.1.15a0.865,0.865,0,0,1,.07-0.1A0.216,0.216,0,0,0,419.129,2107.64Zm13.4,0.9v0.01a2.451,2.451,0,0,1-.172-0.19l0.028,0.03A0.94,0.94,0,0,0,432.533,2108.54Zm-1.324-1.96c-0.026-.06-0.051-0.11-0.075-0.17,0.016,0.04.032,0.07,0.048,0.11Zm1.021,1.63a1.4,1.4,0,0,1-.117-0.14c0.012,0.02.023,0.03,0.035,0.05Zm-13.33-.26c-0.035.04-.071,0.09-0.108,0.13a0.778,0.778,0,0,0,.08-0.1Zm0.806-1.27c-0.027.05-.054,0.11-0.082,0.16,0.014-.03.028-0.05,0.042-0.08A0.741,0.741,0,0,0,419.706,2106.68Zm11.18-.9,0.01,0.03c-0.03-.08-0.059-0.16-0.087-0.25,0,0.01,0,.01,0,0.01C430.836,2105.64,430.861,2105.71,430.886,2105.78Zm-11.019.57c-0.022.04-.043,0.09-0.065,0.14a0.479,0.479,0,0,1,.031-0.07A0.459,0.459,0,0,1,419.867,2106.35Zm11.178-.15c-0.024-.06-0.048-0.12-0.071-0.18,0.017,0.05.035,0.09,0.053,0.14A0.153,0.153,0,0,1,431.045,2106.2Zm-0.283-.79h0Zm-6.9,13.96a0.286,0.286,0,0,0-.092-0.01h0.022a0.184,0.184,0,0,1,.073.01h0Zm3.328,0H427.2a0.152,0.152,0,0,1,.066-0.01H427.3A0.381,0.381,0,0,0,427.189,2119.37Zm0.009,0h-0.009a0.381,0.381,0,0,1,.106-0.01h0.029A0.536,0.536,0,0,0,427.2,2119.37Zm-3.458-.01h0.029a0.286,0.286,0,0,1,.092.01c-0.009,0-.019-0.01-0.029-0.01H423.74Zm5.094-.16c0.032,0,.065-0.01.1-0.01h0.009C428.905,2119.19,428.869,2119.2,428.834,2119.2Zm0.1-.01h0Zm-4.224.22h0Zm1.606,0h0Zm-4.18-.22c0.032,0,.065.01,0.1,0.01-0.035,0-.07-0.01-0.106-0.01h0.009Zm10.015-11.07c-0.012-.02-0.023-0.03-0.035-0.05s-0.023-.03-0.034-0.04C432.1,2108.06,432.125,2108.09,432.148,2108.12Zm-1.336-2.55s0,0,0-.01,0-.01-0.006-0.01A0.036,0.036,0,0,1,430.812,2105.57Zm1.11,2.25-0.042-.06c0-.01-0.011-0.01-0.017-0.02C431.883,2107.77,431.9,2107.79,431.922,2107.82Zm-0.849-1.55c-0.009-.02-0.018-0.05-0.028-0.07a0.153,0.153,0,0,0-.018-0.04A0.989,0.989,0,0,1,431.073,2106.27Zm0.638,1.24c-0.016-.03-0.032-0.05-0.048-0.08h0C431.678,2107.46,431.694,2107.48,431.711,2107.51Zm-0.951-2.1c0,0.01,0,.01.007,0.02a0.085,0.085,0,0,1,0-.02h0Zm1.63,2.98-0.028-.03c-0.018-.02-0.036-0.03-0.053-0.05A0.553,0.553,0,0,0,432.39,2108.39Zm-2.208,7.36-1.338-2.17a3.294,3.294,0,0,1-.771,1.51,7.452,7.452,0,0,0-.688.92,3.533,3.533,0,0,1,.5,1.85,3.661,3.661,0,0,1-.308,1.48c0.169-.02.339-0.03,0.508-0.05a0.1,0.1,0,0,0,.053-0.01c0.232-.02.463-0.05,0.693-0.08,0.035,0,.071-0.01.106-0.01a26.239,26.239,0,0,0,1.989-4.55Zm1.046-9.13c-0.006-.01-0.012-0.03-0.019-0.04l-0.027-.06C431.2,2106.55,431.213,2106.59,431.228,2106.62Zm-0.3-.71c-0.012-.03-0.023-0.07-0.035-0.1l-0.01-.03C430.9,2105.82,430.916,2105.87,430.931,2105.91Zm0.465,1.05a0.07,0.07,0,0,0-.008-0.01c-0.012-.03-0.025-0.05-0.038-0.08Zm1.158,1.61a0.038,0.038,0,0,0-.02-0.02v-0.01Zm-8.722,10.79h0Zm-3.625-13.86a0.033,0.033,0,0,1,.007-0.02h0A0.033,0.033,0,0,0,420.207,2105.5Zm6.251,4.2-0.926-1.51-0.929,1.51A2.943,2.943,0,0,1,426.458,2109.7Zm-7.517-1.8c-0.013.02-.028,0.03-0.041,0.05l-0.028.03C418.9,2107.95,418.918,2107.93,418.941,2107.9Zm0.511-.75-0.02.03h0Zm6.85,12.26h0Zm-7.585-11.24a0.439,0.439,0,0,0-.062.07,0.037,0.037,0,0,0-.022.02C418.661,2108.23,418.69,2108.2,418.717,2108.17Zm-0.206.22h0l-0.029.03Zm1.478-2.32a0.234,0.234,0,0,0-.024.05c-0.011.03-.021,0.05-0.032,0.08C419.952,2106.15,419.97,2106.11,419.989,2106.07Zm0.143-.37c-0.006.02-.011,0.03-0.017,0.05s-0.026.07-.039,0.1Zm-0.783,1.62h0c-0.014.02-.026,0.05-0.04,0.07A0.425,0.425,0,0,1,419.349,2107.32Zm0.484-.9a0.479,0.479,0,0,0-.031.07,0.234,0.234,0,0,0-.024.05C419.8,2106.5,419.815,2106.46,419.833,2106.42Zm4.892,12.99h0Zm-5.574-11.8-0.022.03a0.216,0.216,0,0,1-.033.05A0.553,0.553,0,0,0,419.151,2107.61Zm0.515-.85c-0.014.03-.028,0.05-0.042,0.08a0.039,0.039,0,0,1-.013.02A0.9,0.9,0,0,0,419.666,2106.76Zm2.561,6.81-1.345,2.18-0.746-1.11a26.237,26.237,0,0,0,1.988,4.55c0.036,0,.071.01,0.106,0.01,0.23,0.03.46,0.06,0.691,0.08a0.111,0.111,0,0,0,.056.01c0.174,0.02.35,0.03,0.525,0.05,0-.01,0-0.01,0-0.01a3.645,3.645,0,0,1-.306-1.47,3.535,3.535,0,0,1,.48-1.81,7.281,7.281,0,0,0-.659-0.87A3.292,3.292,0,0,1,422.227,2113.57Zm5.1,5.79a0.048,0.048,0,0,0,.035-0.01c-0.054.01-.107,0.01-0.161,0.02A0.536,0.536,0,0,1,427.324,2119.36Zm3.81-12.95-0.04-.09,0.012,0.03Zm1.148,1.87c-0.018-.02-0.035-0.05-0.052-0.07a0.218,0.218,0,0,0,.04.05C432.274,2108.27,432.278,2108.27,432.282,2108.28Zm-12.366-2.04a1.185,1.185,0,0,0-.049.11,0.479,0.479,0,0,1,.031-0.07A0.153,0.153,0,0,1,419.916,2106.24Zm12.132,1.75c-0.02-.03-0.038-0.05-0.057-0.08,0.011,0.02.022,0.03,0.033,0.05Zm-12.474-1.06a0.37,0.37,0,0,1-.041.07s0.007-.01.01-0.01C419.554,2106.97,419.564,2106.95,419.574,2106.93Zm0.179-.34c-0.015.03-.031,0.06-0.047,0.09,0.007-.01.014-0.03,0.021-0.04A0.28,0.28,0,0,1,419.753,2106.59Zm-0.517.9a0.216,0.216,0,0,0-.032.05l0.02-.03A0.034,0.034,0,0,1,419.236,2107.49Zm12.238-.38c-0.017-.03-0.032-0.06-0.048-0.09a0.449,0.449,0,0,1,.036.07A0.034,0.034,0,0,1,431.474,2107.11Zm-12.448.68a0.194,0.194,0,0,0-.04.05c0-.01.01-0.01,0.016-0.02Zm12.8-.1a0.554,0.554,0,0,0-.054-0.08l0.019,0.03A0.215,0.215,0,0,1,431.83,2107.69Zm-11.765-1.81-0.048.12,0.037-.09Zm11.577,1.52c-0.021-.04-0.042-0.07-0.063-0.11a0.047,0.047,0,0,0,0,.01A1.07,1.07,0,0,1,431.642,2107.4Zm-0.668-1.38c-0.009-.02-0.018-0.05-0.027-0.07a0.042,0.042,0,0,0,0,.01C430.958,2105.98,430.966,2106,430.974,2106.02Zm-10.772-.51c-0.013.04-.027,0.07-0.04,0.11,0.012-.03.024-0.06,0.036-0.1C420.2,2105.52,420.2,2105.52,420.2,2105.51Zm-1.41,2.57c-0.012.01-.024,0.03-0.037,0.04,0,0,.006,0,0.008-0.01Zm12.506-1.31-0.043-.09c0.007,0.01.014,0.03,0.022,0.04S431.291,2106.75,431.3,2106.77Zm1.011,1.54-0.027-.03c0-.01-0.008-0.01-0.012-0.02C432.283,2108.28,432.3,2108.29,432.309,2108.31Zm-12.7-1.45a0.445,0.445,0,0,1-.037.07c-0.01.02-.02,0.04-0.031,0.06C419.566,2106.95,419.588,2106.91,419.611,2106.86Zm0.6-1.36a0.047,0.047,0,0,0,0,.01c0,0.01,0,.01,0,0.01A0.036,0.036,0,0,0,420.207,2105.5Zm10.9,0.85-0.012-.03c-0.006-.02-0.014-0.03-0.021-0.05C431.084,2106.3,431.1,2106.32,431.106,2106.35Zm-11.173-.15a0.128,0.128,0,0,0-.017.04,0.153,0.153,0,0,0-.018.04A0.631,0.631,0,0,1,419.933,2106.2Zm0.143-.35c0,0.01-.008.02-0.011,0.03l-0.011.03C420.062,2105.89,420.069,2105.87,420.076,2105.85Zm11.586,1.58-0.02-.03a1.07,1.07,0,0,0-.058-0.1C431.609,2107.34,431.635,2107.39,431.662,2107.43Zm-11.884-.89a0.23,0.23,0,0,0-.025.05,0.28,0.28,0,0,0-.026.05C419.745,2106.6,419.761,2106.57,419.778,2106.54Zm-0.554.97-0.02.03c-0.018.02-.035,0.05-0.053,0.07C419.176,2107.58,419.2,2107.54,419.224,2107.51Zm12.855,0.52c-0.011-.01-0.021-0.03-0.031-0.04l-0.024-.03C432.042,2107.98,432.06,2108.01,432.079,2108.03Zm-0.8-1.31c-0.008-.01-0.015-0.03-0.022-0.04l-0.027-.06A0.937,0.937,0,0,0,431.277,2106.72Zm0.185,0.37a0.449,0.449,0,0,0-.036-0.07l-0.03-.06C431.418,2107,431.44,2107.04,431.462,2107.09Zm-12.7,1.02c0,0.01,0,.01-0.008.01-0.013.02-.025,0.03-0.038,0.05Zm13.1-.37a2.211,2.211,0,0,0-.068-0.1A0.866,0.866,0,0,1,431.863,2107.74Zm-12.861.08c-0.006.01-.011,0.01-0.016,0.02l-0.045.06C418.962,2107.87,418.982,2107.85,419,2107.82Zm11.949-1.86a0.042,0.042,0,0,1,0-.01c0-.01-0.011-0.03-0.016-0.04C430.938,2105.93,430.944,2105.94,430.951,2105.96Zm-10.815,8.68c-0.013-.04-0.025-0.07-0.037-0.11,0.011,0.04.022,0.07,0.034,0.11h0Zm10.814-.06-0.021.06h0C430.937,2114.62,430.943,2114.6,430.95,2114.58Zm-11.052-8.3a0.479,0.479,0,0,0-.031.07,0.459,0.459,0,0,0-.034.07C419.855,2106.37,419.877,2106.33,419.9,2106.28Zm12.372,1.98a0.218,0.218,0,0,1-.04-0.05l-0.082-.09C432.188,2108.17,432.229,2108.21,432.27,2108.26Zm-0.246-.3c-0.011-.02-0.022-0.03-0.033-0.05s-0.047-.06-0.069-0.09C431.955,2107.87,431.989,2107.91,432.024,2107.96Zm-0.229-.32-0.019-.03a1.026,1.026,0,0,0-.065-0.1C431.738,2107.55,431.767,2107.6,431.8,2107.64Zm-12.923.34a0.778,0.778,0,0,1-.08.1l-0.029.03A1.206,1.206,0,0,0,418.872,2107.98Zm0.224-.29a0.865,0.865,0,0,0-.07.1l-0.024.03A1.463,1.463,0,0,0,419.1,2107.69Zm0.208-.3a1.014,1.014,0,0,0-.068.1,0.034,0.034,0,0,0-.012.02Zm11.723-1.23c-0.018-.05-0.036-0.09-0.053-0.14-0.008-.02-0.016-0.04-0.023-0.06C430.975,2106.03,431,2106.09,431.027,2106.16Zm-11.3.48c-0.007.01-.014,0.03-0.021,0.04a0.741,0.741,0,0,1-.04.08C419.687,2106.72,419.707,2106.68,419.727,2106.64Zm11.455-.12c-0.016-.04-0.032-0.07-0.048-0.11l-0.028-.06C431.131,2106.41,431.156,2106.46,431.182,2106.52Zm-11.639.47s-0.007.01-.01,0.01q-0.039.075-.081,0.15C419.483,2107.09,419.513,2107.04,419.543,2106.99Zm11.807-.12c-0.018-.03-0.034-0.07-0.052-0.1s-0.014-.03-0.021-0.05C431.3,2106.77,431.325,2106.82,431.35,2106.87Zm-11.152-1.35c-0.012.04-.024,0.07-0.036,0.1s-0.02.05-.03,0.08C420.154,2105.64,420.177,2105.58,420.2,2105.52Zm-0.144.39-0.037.09a0.507,0.507,0,0,0-.028.07C420.011,2106.01,420.033,2105.96,420.054,2105.91Zm11.408,1.18c-0.022-.05-0.044-0.09-0.066-0.13l-0.046-.09c-0.025-.05-0.049-0.1-0.073-0.15a0.937,0.937,0,0,1-.049-0.1c-0.015-.03-0.031-0.07-0.046-0.1-0.026-.06-0.051-0.11-0.076-0.17-0.011-.03-0.022-0.05-0.033-0.08a0.989,0.989,0,0,0-.046-0.11c-0.026-.07-0.052-0.13-0.076-0.2-0.007-.02-0.013-0.03-0.02-0.05-0.015-.04-0.03-0.09-0.045-0.13-0.025-.07-0.05-0.14-0.074-0.21a0.036,0.036,0,0,0-.009-0.02l-0.036-.12c0-.01,0-0.01-0.007-0.02a7.364,7.364,0,0,1-5.31,2.3,7.282,7.282,0,0,1-5.236-2.23,0.033,0.033,0,0,0-.007.02,0.036,0.036,0,0,1-.009.02c-0.021.06-.044,0.12-0.066,0.18l-0.056.15c-0.007.02-.014,0.04-0.022,0.06-0.021.05-.043,0.1-0.065,0.16-0.019.04-.037,0.08-0.056,0.13a0.631,0.631,0,0,0-.035.08c-0.021.05-.043,0.09-0.065,0.14s-0.036.08-.055,0.12-0.033.06-.051,0.1-0.04.08-.061,0.12a0.9,0.9,0,0,1-.055.1c-0.023.05-.045,0.09-0.068,0.13s-0.06.1-.091,0.16l-0.022.03c-0.026.05-.054,0.09-0.081,0.14a0.425,0.425,0,0,0-.045.07l-0.08.12c-0.024.03-.048,0.07-0.073,0.1a0.553,0.553,0,0,1-.055.08,1.463,1.463,0,0,1-.094.13c-0.02.03-.04,0.05-0.061,0.08s-0.046.05-.069,0.08a1.206,1.206,0,0,1-.109.13l-0.046.06c-0.027.03-.056,0.06-0.084,0.09s-0.08.09-.122,0.13l-0.031.03c0.037,0.18.076,0.36,0.116,0.55,0,0.03.011,0.05,0.016,0.08,0.039,0.18.08,0.36,0.122,0.55,0.008,0.03.015,0.06,0.023,0.09,0.043,0.19.087,0.38,0.133,0.58,0.006,0.02.012,0.05,0.018,0.07,0.046,0.2.094,0.39,0.143,0.59,0,0.01.007,0.03,0.011,0.04q0.075,0.3.155,0.6c0.01,0.04.021,0.08,0.032,0.13,0.051,0.19.1,0.38,0.159,0.58,0.013,0.05.026,0.09,0.039,0.14,0.056,0.2.113,0.4,0.173,0.6,0.01,0.03.021,0.07,0.031,0.1,0.055,0.19.112,0.37,0.17,0.56,0.012,0.04.023,0.07,0.035,0.11q0.094,0.3.193,0.6c0.017,0.05.033,0.1,0.05,0.14s0.024,0.07.037,0.11l0.746,1.11,1.345-2.18a3.593,3.593,0,0,1,2.376-3.87l0.929-1.51,0.926,1.51a3.508,3.508,0,0,1,2.386,3.88l1.338,2.17,0.747-1.11,0.021-.06c0.011-.03.022-0.07,0.033-0.1q0.1-.3.2-0.6a0.2,0.2,0,0,1,.012-0.04c0.066-.21.129-0.41,0.191-0.62,0.012-.04.024-0.08,0.035-0.12,0.059-.19.115-0.39,0.17-0.58,0.013-.05.026-0.1,0.039-0.14,0.054-.19.107-0.39,0.158-0.58,0.011-.04.021-0.08,0.031-0.12,0.051-.18.1-0.37,0.147-0.56,0-.02.01-0.04,0.016-0.06,0.047-.19.093-0.38,0.138-0.56,0.01-.04.019-0.08,0.028-0.12q0.066-.27.128-0.54l0.027-.12c0.041-.18.081-0.35,0.119-0.53,0.006-.03.013-0.06,0.02-0.09,0.039-.18.078-0.36,0.114-0.53l-0.021-.03a0.94,0.94,0,0,1-.143-0.15,0.553,0.553,0,0,1-.081-0.08c-0.013-.02-0.026-0.03-0.039-0.05-0.041-.05-0.082-0.09-0.122-0.14-0.023-.03-0.047-0.06-0.069-0.09s-0.037-.05-0.055-0.07c-0.035-.05-0.069-0.09-0.1-0.14-0.02-.03-0.039-0.05-0.059-0.08a0.866,0.866,0,0,0-.068-0.1c-0.028-.04-0.057-0.09-0.084-0.13s-0.033-.05-0.049-0.08-0.053-.09-0.078-0.13c0,0,0-.01-0.006-0.01-0.009-.02-0.018-0.03-0.028-0.05-0.026-.04-0.051-0.09-0.076-0.13A0.034,0.034,0,0,0,431.462,2107.09Zm0.117,0.2c-0.01-.02-0.019-0.03-0.029-0.05,0.01,0.02.019,0.03,0.028,0.05h0Zm-0.029-.05c-0.026-.04-0.051-0.09-0.076-0.13h0C431.5,2107.15,431.524,2107.2,431.55,2107.24Zm-0.076-.13h0Zm0,0h0a0.034,0.034,0,0,0-.012-0.02A0.034,0.034,0,0,1,431.474,2107.11Zm0.11,0.19a0.047,0.047,0,0,1,0-.01h0S431.582,2107.3,431.584,2107.3Zm-9.357,6.27,2.376-3.87A3.593,3.593,0,0,0,422.227,2113.57Zm4.231-3.87,2.386,3.88A3.508,3.508,0,0,0,426.458,2109.7Zm-2.33-14.09,0.008-.09-6.978-7.66c-0.239.54-.473,1.11-0.7,1.72,0,0.17,0,.34.01,0.52a13.953,13.953,0,0,1,.01,1.67c0.048,0.85.131,1.82,0.285,2.84l5.886,1h1.48Zm-6.733,1.87a11.989,11.989,0,0,0,1.46,3.2c-0.108-.98-0.256-1.99-0.361-3.01Zm-1.961-7.56a2.544,2.544,0,0,0-.339-0.5,1.036,1.036,0,0,1-.228.26,3.4,3.4,0,0,0-1.059,2.14,6.692,6.692,0,0,0,.044,2.3l1.213,0.21A19.778,19.778,0,0,1,415.434,2089.92Zm20.257,1.42a17.257,17.257,0,0,1-.153,5.57,2.171,2.171,0,0,0,.756-0.61,4.925,4.925,0,0,0,.886-2.01,6.725,6.725,0,0,0,.076-2.47c-0.024-.15-0.056-0.29-0.091-0.43A5.625,5.625,0,0,1,435.691,2091.34Zm-2.992,4.27a44.862,44.862,0,0,1-.455,4.76c1.776-2.9,2.117-6.89,2.214-9.35-2.336-.82-4.721-2.77-6.79-4.62l-0.8,9.21H432.7Zm-7.573-11.49a17.4,17.4,0,0,0-1.573-1.26c-2.052-.44-3.655.49-5.016,2.47l5.92,6.49Zm-11.274,10c0.011,0.06.02,0.11,0.032,0.17a4.938,4.938,0,0,0,.885,2.01,2.151,2.151,0,0,0,.573.51,15.8,15.8,0,0,1-.277-2.48Zm4.513,1.49h4.283l-5.886-1a20.247,20.247,0,0,0,.633,2.87l1.1,0.19C418.423,2096.98,418.372,2096.29,418.365,2095.61Zm5.771-.09,0.321-3.7-5.92-6.49a16.174,16.174,0,0,0-1.379,2.53Zm0.085,0.09-0.085-.09-0.008.09h0.093Zm2.319-1.5-1.649,1.5h1.977l0.8-9.21c-0.921-.82-1.778-1.61-2.542-2.28l-0.669,7.7Zm-1.649,1.5,1.649-1.5-2.083-2.29-0.321,3.7,0.085,0.09h0.67Zm-3.926,2.52,0.184-.02-2.655-.44c0.1,1.02.253,2.03,0.361,3.01a8.452,8.452,0,0,0,.965,1.2,9.159,9.159,0,0,0,1.03.88A21.149,21.149,0,0,0,420.965,2098.13Zm5.9-2.52-0.059.68-0.283-.03,0.607,0.11-0.224,1.34,3.214-.23a25.739,25.739,0,0,0,.06,5.18,9.046,9.046,0,0,0,.9-0.78,8.21,8.21,0,0,0,1.165-1.51,44.862,44.862,0,0,0,.455-4.76h-5.831Zm-2.74,0h-1.48l1.459,0.25Zm-0.021.25-1.459-.25h-4.283c0.007,0.68.058,1.37,0.129,2.06l2.655,0.44,5.76-.4,0.224-1.34-0.607-.11-2.436-.21Zm0.4,0.06-0.286-.31h-0.093l-0.021.25Zm2.019,0.34,0.283,0.03,0.059-.68h-1.977l-0.352.32Zm-2-.32-0.017-.02-0.4-.06-0.017.19,2.436,0.21-1.987-.33Zm-0.017-.02,0.032,0.01,0.352-.32h-0.67Zm0.032,0.01-0.032-.01,0.017,0.02Zm5.584,1.55-3.214.23h0c0.923,1.4,2.162,3.23,3.27,4.91,0,0.02,0,.03,0,0.04h0A25.739,25.739,0,0,1,430.123,2097.48Zm-6.5,1.05-2.469-.42-0.184.02a21.149,21.149,0,0,1-.115,4.63h0c0-.01,0-0.01,0-0.01C421.765,2101.34,422.773,2099.82,423.618,2098.53Zm0,0c0.14-.21.276-0.42,0.405-0.62l2.886-.2h0l-5.76.4Zm3.291-.82h0l-0.224,1.34-3.067-.52c-0.845,1.29-1.853,2.81-2.766,4.22,0,0,0,0,0,.01s0.021,0.01.031,0.02a8.462,8.462,0,0,0,1.068.58h3.04a0.9,0.9,0,0,1,.362-0.08,0.334,0.334,0,0,1,.1.01,0.324,0.324,0,0,1,.1-0.01,1.074,1.074,0,0,1,.357.07h3.233a10.615,10.615,0,0,0,1.045-.69c0-.01,0-0.02,0-0.04C429.071,2100.94,427.832,2099.11,426.909,2097.71Zm-3.291.82,3.067,0.52,0.224-1.34-2.886.2C423.894,2098.11,423.758,2098.32,423.618,2098.53Zm1.371,4.83h-3.04a7.808,7.808,0,0,0,1.929.61C424.262,2103.86,424.6,2103.51,424.989,2103.36Zm2.1,0.63a8.266,8.266,0,0,0,2-.61l0.054-.03h-3.233A8.5,8.5,0,0,0,427.086,2103.99Zm10.079-12.6c0.035,0.14.067,0.28,0.091,0.43a6.725,6.725,0,0,1-.076,2.47,4.925,4.925,0,0,1-.886,2.01,2.171,2.171,0,0,1-.756.61c-0.1.5-.224,0.99-0.366,1.45,0.052-.11.1-0.22,0.152-0.33,2.556-.42,3.655-4.65,2.667-7.41-0.04.2-.085,0.42-0.139,0.64A5.365,5.365,0,0,1,437.165,2091.39Zm-23.214,5.51a2.93,2.93,0,0,0,1.672,1.1c-0.079-.28-0.151-0.56-0.215-0.86Zm-0.143-5.08a3.4,3.4,0,0,1,1.059-2.14,1.036,1.036,0,0,0,.228-0.26,0.923,0.923,0,0,0-.691-0.35,0.9,0.9,0,0,0-.641.29,3.792,3.792,0,0,0-.324.46,0.372,0.372,0,0,1-.039.07,6.613,6.613,0,0,0-.609,4.05l1.061,0.18A6.692,6.692,0,0,1,413.808,2091.82Zm1.534,4.99a2.151,2.151,0,0,1-.573-0.51,4.938,4.938,0,0,1-.885-2.01c-0.012-.06-0.021-0.11-0.032-0.17l-1.061-.18a6.236,6.236,0,0,0,1.16,2.96l1.457,0.24C415.385,2097.04,415.364,2096.92,415.342,2096.81Zm5.539,5.97a7.8,7.8,0,0,0,.91.58h0.158A8.462,8.462,0,0,1,420.881,2102.78Zm8.2,0.6a8.266,8.266,0,0,1-2,.61,0.349,0.349,0,0,0,.1.02A4.659,4.659,0,0,0,429.084,2103.38Zm-5.206.59a7.808,7.808,0,0,1-1.929-.61h-0.158a4.661,4.661,0,0,0,1.924.65A0.945,0.945,0,0,0,423.878,2103.97Zm9.559-84.02-0.429,4.95c0.195,0.09.392,0.17,0.6,0.26,3.961-2.03,6.141-3.65,7.2-5.2C438.519,2019.96,435.95,2019.96,433.437,2019.95Zm-7.577-.03c0.694,1.23,2.076,2.38,4.52,3.69l0.318-3.66C428.942,2019.94,427.286,2019.93,425.86,2019.92Zm4.838,0.03-0.318,3.66c0.768,0.41,1.638.84,2.628,1.29l0.429-4.95H430.7Zm0.586-6.75a9.677,9.677,0,0,1-2.438-.92c-0.583,2-1.662,3.72-3.519,4.38a5.081,5.081,0,0,0,.533,3.26c1.426,0.01,3.082.02,4.838,0.03Zm6.192-.57a9.651,9.651,0,0,1-3.473.81l-0.566,6.51c2.513,0.01,5.082.01,7.363,0.01a5.009,5.009,0,0,0,.51-0.95Zm3.834,6.38a4.5,4.5,0,0,0,.27-2.35c-1.764-.72-2.756-2.45-3.284-4.43-0.266.14-.54,0.28-0.82,0.4Zm-10.026-5.81-0.586,6.75h2.739l0.566-6.51c-0.159.01-.318,0.01-0.48,0.01A10.166,10.166,0,0,1,431.284,2013.2Zm0.828-9.53,0.182-2.1,0.831,0.07,4.51-6.24c-1.639-1.5-3.077-3.32-4.444-4.24-4.452-.63-6.416,2.47-8.078,6.92,0,0.16,0,.32.008,0.48,0.12,2.71-.156,2-0.646.57a3.471,3.471,0,0,0-.625-1.2,0.94,0.94,0,0,1-.211.24,3.166,3.166,0,0,0-.982,1.99,6.23,6.23,0,0,0,.071,2.29,4.557,4.557,0,0,0,.82,1.86,1.78,1.78,0,0,0,1.051.68h0a0.935,0.935,0,0,1,.708.54,12.365,12.365,0,0,0,2.067,3.22c-0.16-1.63-.477-3.38-0.494-5.08h5.232Zm9.868-5.11c0.012-.26.009-0.53,0-0.8a5.875,5.875,0,0,1-2.164-.74l-4.664,6.46,0.113,0.19h4.9c-0.016,1.71-.334,3.45-0.494,5.08a12.232,12.232,0,0,0,2.054-3.19,0.937,0.937,0,0,1,.721-0.57,1.777,1.777,0,0,0,1.051-.68,4.558,4.558,0,0,0,.821-1.86,6.252,6.252,0,0,0,.071-2.29,3.166,3.166,0,0,0-.982-1.99h0a0.83,0.83,0,0,1-.206-0.23,3.523,3.523,0,0,0-.62,1.19C442.091,2000.56,441.86,2001.27,441.98,1998.56Zm-7.077,4.51,0.247,0.41,4.664-6.46a12.31,12.31,0,0,1-2.179-1.62l-4.51,6.24,1.888,0.16Zm0.36,0.6-0.113-.19-0.135.19h0.248Zm-0.412,0h0.164l0.135-.19-0.247-.41Zm-2.432-1.05,0.706-.98-0.831-.07-0.182,2.1H433.1l0.428-.26Zm1.1,0.79,1.168-.69,0.212,0.35,0.11-1.27-1.888-.16-0.706.98Zm0,0-0.428.26h0.784Zm1.38-.34-0.212-.35-1.168.69,0.356,0.26h0.972Zm-0.4,4.62-0.335,3.85a7.693,7.693,0,0,0,2.328-.54Zm-7.623-4.02c0.017,1.7.334,3.45,0.494,5.08a9.842,9.842,0,0,0,1.429,1.29,8.042,8.042,0,0,0,2.646,1.26l0.663-7.63H426.88Zm8.383,0,3.553,5.91a11.165,11.165,0,0,0,.855-0.83c0.16-1.63.478-3.37,0.494-5.08h-4.9Zm-0.248,0-0.186.26-0.326,3.76L436.5,2011a8.1,8.1,0,0,0,1.747-.96c0.2-.15.388-0.3,0.573-0.46l-3.553-5.91h-0.248Zm-0.186.26,0.186-.26h-0.164Zm-0.661,7.61,0.335-3.85-2.148-3.58,0.74-.44h-0.983l-0.663,7.63a8.189,8.189,0,0,0,2.074.26C433.741,2011.56,433.956,2011.56,434.168,2011.54Zm0.459-7.33-0.748-.54H433.1l-0.74.44,2.148,3.58,0.326-3.76Zm-0.748-.54,0.748,0.54,0.2-.28,0.022-.26h-0.972Zm9.648-5.99a1.143,1.143,0,0,0-.325.26,0.83,0.83,0,0,0,.206.23h0a3.166,3.166,0,0,1,.982,1.99,6.252,6.252,0,0,1-.071,2.29,4.558,4.558,0,0,1-.821,1.86,1.777,1.777,0,0,1-1.051.68,0.937,0.937,0,0,0-.721.57,12.232,12.232,0,0,1-2.054,3.19c-0.047.48-.08,0.95-0.088,1.41a12.616,12.616,0,0,0,3.015-4.25c2.793-.45,3.71-5.82,1.794-8.08a0.824,0.824,0,0,0-.545-0.22C443.74,1997.64,443.633,1997.66,443.527,1997.68Zm-18.22,7.85a0.935,0.935,0,0,0-.708-0.54h0a1.78,1.78,0,0,1-1.051-.68,4.557,4.557,0,0,1-.82-1.86,6.23,6.23,0,0,1-.071-2.29,3.166,3.166,0,0,1,.982-1.99,0.94,0.94,0,0,0,.211-0.24,0.864,0.864,0,0,0-.641-0.32,0.836,0.836,0,0,0-.6.27,4.357,4.357,0,0,0-.315.46s0,0,0,.01c-1.416,2.46-.44,7.14,2.157,7.56a12.6,12.6,0,0,0,3.015,4.25c-0.008-.46-0.042-0.93-0.089-1.41A12.365,12.365,0,0,1,425.307,2005.53Zm11.675,6.28L436.5,2011a7.693,7.693,0,0,1-2.328.54l-0.012.14C435.126,2011.69,436.071,2011.74,436.982,2011.81Zm1.834-2.23,0.491,0.82,0.276-.24c0.008-.46.041-0.93,0.088-1.41A11.165,11.165,0,0,1,438.816,2009.58Zm-7.367,1.72a8.042,8.042,0,0,1-2.646-1.26,9.842,9.842,0,0,1-1.429-1.29c0.047,0.48.081,0.95,0.089,1.41a9.335,9.335,0,0,0,2.607,1.66l1.341-.09Zm5.047-.3,0.486,0.81H437a9.107,9.107,0,0,0,2.305-1.41l-0.491-.82c-0.185.16-.376,0.31-0.573,0.46A8.1,8.1,0,0,1,436.5,2011Zm-2.34.68,0.012-.14c-0.212.02-.427,0.02-0.645,0.02v0.12h0.633Zm-0.633-.12a8.189,8.189,0,0,1-2.074-.26l-0.038.43c0.689-.03,1.394-0.05,2.112-0.05v-0.12Zm0.633,0.12-0.07.81a8.853,8.853,0,0,0,2.9-.67l0-.01C436.071,2011.74,435.126,2011.69,434.156,2011.68Zm-2.745.05-1.341.09a8.1,8.1,0,0,0,1.3.43Zm5.575,0.09c0.006,0,.011-0.01.016-0.01h-0.02Zm-3.463-.14c-0.718,0-1.423.02-2.112,0.05l-0.045.52a8.888,8.888,0,0,0,2.157.26v-0.83Zm0.081,0h-0.081v0.83c0.19,0,.377-0.01.563-0.02l0.07-.81H433.6Zm2.467,16.42a1.423,1.423,0,0,1,.2-0.02,0.5,0.5,0,0,0-.121.01A0.242,0.242,0,0,0,436.071,2028.1Zm-0.185.01h0Zm-0.436.04a0.722,0.722,0,0,0,.146-0.01,0.189,0.189,0,0,0-.074.01H435.45Zm12.007-4.19c0.027-.02.054-0.03,0.08-0.05-0.026.02-.053,0.03-0.08,0.05h0Zm-10.846,4.08h-0.035c0.125-.02.251-0.03,0.375-0.05l-0.193.03A0.742,0.742,0,0,0,436.611,2028.04Zm0.645-.09c0.016,0,.031-0.01.047-0.01H437.3C437.282,2027.94,437.269,2027.95,437.256,2027.95Zm-21.769-7.46c0.037,0.04.076,0.07,0.113,0.11-0.037-.04-0.074-0.07-0.112-0.11h0Zm36.2-.14h0a0.437,0.437,0,0,1-.061.07A0.5,0.5,0,0,0,451.683,2020.35Zm-18.853,7.87h0Zm1.345,0h0Zm0.643-.03h0Zm0.365-.02h0Zm-0.735.04h0Zm12.9-4.18a0.639,0.639,0,0,0,.105-0.07h0A0.639,0.639,0,0,1,447.352,2024.03Zm-15.894,4.11a0.727,0.727,0,0,0,.147.01h-0.081C431.5,2028.15,431.48,2028.14,431.458,2028.14Zm0.683,0.05h0Zm0.388,0.02h0Zm-0.784-.05a0.532,0.532,0,0,0,.125.01h-0.031A0.3,0.3,0,0,1,431.745,2028.16Zm-1.457-.14-0.183-.03c0.126,0.02.253,0.04,0.38,0.05h-0.052A0.713,0.713,0,0,0,430.288,2028.02ZM431,2028.1c0.056,0.01.113,0.01,0.169,0.02a0.067,0.067,0,0,0-.043-0.01C431.086,2028.11,431.044,2028.1,431,2028.1Zm-0.223-.02a1.45,1.45,0,0,1,.207.02c-0.032,0-.063-0.01-0.095-0.01A0.425,0.425,0,0,0,430.779,2028.08Zm2.744,0.15c0.218,0,.435-0.01.652-0.01H434.2C433.976,2028.22,433.75,2028.23,433.523,2028.23Zm0.938-.02h0.027c0.11-.01.22-0.01,0.33-0.02h0.052C434.734,2028.2,434.6,2028.2,434.461,2028.21Zm0.745-.04h0.047c0.065-.01.131-0.01,0.2-0.02h0.072C435.417,2028.16,435.312,2028.16,435.206,2028.17Zm0.711-.06h0.06a0.3,0.3,0,0,1,.094-0.01,0.242,0.242,0,0,1,.084-0.01C436.076,2028.1,436,2028.1,435.917,2028.11Zm-3.043.11c0.216,0,.432.01,0.649,0.01-0.227,0-.454-0.01-0.679-0.01h0.03Zm-1.35-.07h0.081a0.66,0.66,0,0,0,.14.01,0.3,0.3,0,0,0,.094.01C431.734,2028.16,431.629,2028.16,431.524,2028.15Zm-0.633-.06c0.032,0,.063.01,0.095,0.01H431c0.042,0,.084.01,0.126,0.01C431.049,2028.1,430.97,2028.1,430.891,2028.09Zm1.285,0.1h0.058c0.1,0.01.2,0.01,0.3,0.02h0.055C432.448,2028.2,432.312,2028.2,432.176,2028.19Zm5.131-.25c0.1-.02.21-0.03,0.314-0.05s0.2-.03.306-0.05c0.12-.02.238-0.05,0.357-0.07l0.307-.06c0.117-.02.234-0.05,0.35-0.08s0.205-.04.308-0.07,0.228-.05.341-0.08,0.206-.05.309-0.08l0.334-.09,0.308-.09c0.11-.03.218-0.06,0.327-0.1l0.309-.09c0.106-.04.211-0.07,0.317-0.11s0.207-.07.31-0.1,0.2-.08.3-0.11q0.645-.24,1.272-0.51c0.078-.03.156-0.07,0.234-0.1,0.118-.05.234-0.11,0.351-0.16a2.573,2.573,0,0,1,.241-0.11c0.115-.06.23-0.12,0.345-0.17l0.236-.12,0.343-.18-0.007-.01A24.766,24.766,0,0,1,437.307,2027.94Zm0,0c0.1-.02.209-0.03,0.314-0.05-0.1.02-.209,0.03-0.314,0.05h0Zm-3.105.28h0.017c0.076,0,.152-0.01.229-0.01h0.013C434.375,2028.21,434.289,2028.22,434.2,2028.22Zm-1.482-.01h0c0.037,0,.073.01,0.11,0.01h0.014C432.8,2028.22,432.761,2028.21,432.72,2028.21Zm14.729-4.26,0.008,0.01c0.027-.02.054-0.03,0.08-0.05l0.349-.24,0.164-.12,0.359-.27a1.188,1.188,0,0,0,.137-0.1c0.125-.09.251-0.19,0.374-0.29,0.032-.02.062-0.05,0.093-0.07a24.639,24.639,0,0,0,2.223-2c0.006-.01.012-0.01,0.018-0.02,0.124-.13.246-0.25,0.367-0.38a0.437,0.437,0,0,0,.061-0.07,0.015,0.015,0,0,1-.016-0.01A25.025,25.025,0,0,1,447.449,2023.95ZM430,2027.98a2.218,2.218,0,0,0-.251-0.04c0.02,0,.04.01,0.06,0.01l0.191,0.03h0Zm-0.252-.04c0.02,0,.04.01,0.061,0.01-0.02,0-.04-0.01-0.06-0.01h0Zm-14.246-7.46a0.014,0.014,0,0,0-.015.01c0.038,0.04.075,0.07,0.112,0.11,0.074,0.08.149,0.16,0.224,0.23s0.152,0.16.229,0.23,0.152,0.15.228,0.23,0.158,0.14.237,0.22l0.232,0.21c0.082,0.08.164,0.15,0.247,0.23,0.077,0.06.155,0.13,0.233,0.2s0.174,0.15.261,0.22,0.153,0.13.23,0.2c0.1,0.08.2,0.16,0.3,0.23,0.07,0.06.138,0.12,0.207,0.17,0.165,0.13.332,0.26,0.5,0.38,0.073,0.05.148,0.11,0.221,0.16,0.1,0.07.2,0.15,0.3,0.22,0.08,0.05.162,0.11,0.243,0.16,0.1,0.07.193,0.14,0.291,0.2s0.169,0.11.254,0.17l0.289,0.18c0.087,0.06.174,0.11,0.262,0.16l0.292,0.18,0.266,0.15c0.1,0.06.2,0.12,0.3,0.17l0.27,0.15c0.1,0.05.2,0.11,0.3,0.16s0.181,0.1.272,0.14,0.208,0.11.312,0.16,0.181,0.09.273,0.13l0.322,0.15,0.27,0.12,0.339,0.15c0.087,0.03.174,0.07,0.262,0.11,0.122,0.05.245,0.1,0.368,0.14a2.458,2.458,0,0,0,.241.1l0.487,0.18c0.043,0.01.085,0.03,0.128,0.04,0.205,0.08.412,0.14,0.62,0.21,0.071,0.02.143,0.05,0.215,0.07l0.417,0.12c0.086,0.03.172,0.05,0.258,0.08,0.127,0.03.254,0.07,0.382,0.1a2.7,2.7,0,0,0,.275.07l0.371,0.09c0.1,0.02.19,0.04,0.286,0.07,0.122,0.02.245,0.05,0.368,0.08,0.1,0.02.194,0.03,0.291,0.05,0.123,0.03.246,0.05,0.37,0.07,0.1,0.02.2,0.04,0.294,0.05s0.2,0.03.3,0.05A24.85,24.85,0,0,1,415.5,2020.48Zm13.933,7.41c0.1,0.02.2,0.03,0.3,0.05h0C429.639,2027.92,429.537,2027.91,429.436,2027.89Zm6.086,0.26a0.189,0.189,0,0,1,.074-0.01l0.29-.03h0.031C435.785,2028.12,435.654,2028.14,435.522,2028.15Zm1.236-.13,0.193-.03c0.1-.01.2-0.03,0.3-0.04,0.013,0,.026-0.01.039-0.01C437.117,2027.97,436.938,2027.99,436.758,2028.02Zm-1.888.17h0.04c0.091-.01.182-0.01,0.273-0.02h0.023C435.094,2028.18,434.982,2028.18,434.87,2028.19Zm1.285-.1a0.5,0.5,0,0,1,.121-0.01c0.1-.02.2-0.03,0.3-0.04h0.035C436.46,2028.05,436.308,2028.07,436.155,2028.09Zm11.294-4.14a25.468,25.468,0,0,1-2.332,1.4l0.007,0.01,0.23-.12c0.114-.06.228-0.13,0.341-0.19l0.222-.12c0.114-.07.227-0.14,0.34-0.2,0.071-.05.141-0.09,0.211-0.13l0.342-.21a2.251,2.251,0,0,1,.2-0.13c0.115-.08.23-0.15,0.343-0.23a0.639,0.639,0,0,0,.105-0.07ZM430,2027.98h0c0.035,0,.069.01,0.1,0.01l0.183,0.03A2.828,2.828,0,0,0,430,2027.98Zm1.127,0.13a0.067,0.067,0,0,1,.043.01,2.787,2.787,0,0,1,.287.02c0.022,0,.044.01,0.066,0.01C431.392,2028.14,431.26,2028.12,431.128,2028.11Zm-0.695-.07h0.052c0.1,0.01.2,0.03,0.294,0.04a0.425,0.425,0,0,1,.112.01C430.738,2028.07,430.585,2028.05,430.433,2028.04Zm2.287,0.17h0Zm-0.881-.04h0.031c0.091,0.01.181,0.01,0.271,0.02h0.035C432.064,2028.18,431.951,2028.18,431.839,2028.17Zm5.468-.23a24.766,24.766,0,0,0,7.81-2.59l-0.847-1.41c-2.414,3.11-8.606,3.31-10.669,1.22a3.91,3.91,0,0,1-.658.49l-0.223,2.56c0.041,0,.082.01,0.124,0.01,0.225,0,.452.01,0.679,0.01s0.453-.01.679-0.01c0.087,0,.173-0.01.259-0.01,0.136-.01.273-0.01,0.409-0.02,0.112-.01.224-0.01,0.336-0.02s0.211-.01.316-0.02c0.132-.01.263-0.03,0.395-0.04,0.079-.01.159-0.01,0.238-0.02,0.153-.02.305-0.04,0.456-0.05a0.742,0.742,0,0,1,.147-0.02c0.18-.03.359-0.05,0.537-0.08h0.012Zm0,0h0Zm0,0h0Zm7.849-8c0.015,0.09.03,0.17,0.042,0.26l2.255,3.75a25.025,25.025,0,0,0,4.217-3.61,10.609,10.609,0,0,0-1.72-.89,7.423,7.423,0,0,1-1.7.44C448.076,2019.91,446.91,2019.93,445.152,2019.94Zm-15.4,8a2.218,2.218,0,0,1,.251.04l0.129-1.49c-4.11.45-9.554-1.54-8.325-6.61-0.359-.01-0.583-0.02-0.641-0.03a6.851,6.851,0,0,1-3.734-.42,8.926,8.926,0,0,0-1.927,1.05,24.85,24.85,0,0,0,14.237,7.46h0.01Zm0,0h0Zm-0.009,0h0Zm0.006,0h0Zm14.524-4,0.847,1.41a25.468,25.468,0,0,0,2.332-1.4l-2.255-3.75A4.814,4.814,0,0,1,444.27,2023.94ZM430,2027.98a2.828,2.828,0,0,1,.287.04,0.713,0.713,0,0,1,.145.02c0.152,0.01.305,0.03,0.458,0.05,0.079,0.01.158,0.01,0.237,0.02,0.132,0.01.264,0.03,0.4,0.04,0.105,0.01.21,0.01,0.315,0.02s0.225,0.01.337,0.02c0.136,0.01.272,0.01,0.408,0.02h0.136l0.223-2.56a7.226,7.226,0,0,1-2.813.84Zm-12.571-8.55a6.851,6.851,0,0,0,3.734.42c0.058,0.01.282,0.02,0.641,0.03a9.349,9.349,0,0,1,.9-2.26C421.271,2018.06,419.111,2018.71,417.43,2019.43Zm27.722,0.51c1.758-.01,2.924-0.03,3.1-0.05a7.423,7.423,0,0,0,1.7-.44,49.881,49.881,0,0,0-5.6-1.91A9.337,9.337,0,0,1,445.152,2019.94Zm-96.533,56.22a8.668,8.668,0,0,1,.556.97,8.418,8.418,0,0,0-1.134-2.82,5.84,5.84,0,0,1-.037.59A4.41,4.41,0,0,1,348.619,2076.16Zm-11.654-1.85a8.449,8.449,0,0,0-1.139,2.84,10.031,10.031,0,0,1,1.229-1.9A5.447,5.447,0,0,1,336.965,2074.31Zm1.194-.18a5.357,5.357,0,0,1,4.357-1.77A6.539,6.539,0,0,1,348,2074.9a5.84,5.84,0,0,0,.037-0.59,6.363,6.363,0,0,0-11.076,0,5.447,5.447,0,0,0,.09.94A8.8,8.8,0,0,1,338.159,2074.13Zm1.446,14.55a3.7,3.7,0,0,1-2.154,2.69c-0.18.07-.362,0.13-0.544,0.19-0.018,0-.037.01-0.055,0.01,1.806,1.62,8.645,1.83,11.783.26a0.109,0.109,0,0,0-.051-0.02c-0.165-.05-0.331-0.11-0.5-0.17-0.05-.02-0.1-0.03-0.151-0.05-0.19-.07-0.378-0.14-0.565-0.22a3.692,3.692,0,0,1-2-2.68A6.028,6.028,0,0,1,339.605,2088.68Zm9.356-5.52a3.794,3.794,0,0,0,.175-1.86c-0.01-.06-0.023-0.12-0.037-0.19a8.543,8.543,0,0,1-.739,1.95Zm-13.054-2.05c-0.014.07-.026,0.13-0.037,0.19a3.821,3.821,0,0,0,.043,1.4,2.74,2.74,0,0,0,.5,1.13,1.037,1.037,0,0,0,.642.42,0.578,0.578,0,0,1,.432.33,7.535,7.535,0,0,0,1.261,1.96c-0.036-.36-0.083-0.72-0.13-1.09A7.941,7.941,0,0,1,335.907,2081.11Zm10.35,5.43a6.556,6.556,0,0,0,.724-0.96l-0.6-.1C346.337,2085.84,346.291,2086.19,346.257,2086.54Zm0.13-1.09c0,0.01,0,.02,0,0.03l0.6,0.1a8.369,8.369,0,0,0,.529-0.98,0.565,0.565,0,0,1,.44-0.35,1.064,1.064,0,0,0,.642-0.41,2.428,2.428,0,0,0,.369-0.68l-0.6-.1A7.683,7.683,0,0,1,346.387,2085.45Zm1.279-5.12c0-.11,0-0.22,0-0.33-1.332.76-3.665,0.8-5.942-.01a9.692,9.692,0,0,1-1.61-.75,5.491,5.491,0,0,1-2.2-1.88,7.331,7.331,0,0,0-.546,2.97c0.073,1.65-.1,1.22-0.395.34a2.139,2.139,0,0,0-.384-0.73,0.475,0.475,0,0,1-.127.15,1.8,1.8,0,0,0-.562,1.02,7.941,7.941,0,0,0,2.712,4.34,17.751,17.751,0,0,1-.171-2H342.5l0.224-1.35,5.633,0.96a8.543,8.543,0,0,0,.739-1.95,1.8,1.8,0,0,0-.562-1.02h0a0.656,0.656,0,0,1-.124-0.14,2.083,2.083,0,0,0-.38.72C347.734,2081.55,347.592,2081.98,347.666,2080.33Zm-1.279,5.12a7.683,7.683,0,0,0,1.973-2.39l-5.633-.96-0.224,1.35h4.055A17.751,17.751,0,0,1,346.387,2085.45Zm-8.42-8.2a0.989,0.989,0,0,0-.046.11,5.491,5.491,0,0,0,2.2,1.88A5.811,5.811,0,0,1,337.967,2077.25Zm0.652,8.2c0.047,0.37.094,0.73,0.13,1.09a5.553,5.553,0,0,0,.873.79,2.666,2.666,0,0,0,.232.16,11.316,11.316,0,0,0,.1-1.22A7.085,7.085,0,0,1,338.619,2085.45Zm7.732,0.02a6.376,6.376,0,0,1-1.3.8c0.011,0.4.041,0.81,0.094,1.23,0.081-.06.163-0.11,0.242-0.17a5.547,5.547,0,0,0,.872-0.79c0.034-.35.08-0.7,0.125-1.06Zm0.031,0.01c0-.01,0-0.02,0-0.03s-0.024.02-.036,0.02Zm-1.333.79a6.376,6.376,0,0,0,1.3-.8l-1.3-.21C345.042,2085.58,345.039,2085.92,345.049,2086.27Zm-5.13-1.4,2.374-.17,0.21-1.25h-4.055a17.751,17.751,0,0,0,.171,2,7.085,7.085,0,0,0,1.337.82A12.3,12.3,0,0,0,339.919,2084.87Zm5.181-.37c-0.02.24-.036,0.49-0.046,0.76l1.3,0.21c0.012,0,.023-0.02.036-0.02a17.751,17.751,0,0,0,.171-2H342.5l-0.21,1.25Zm-2.6,2.33a6.1,6.1,0,0,1-2.547-.56,11.316,11.316,0,0,1-.1,1.22,4.8,4.8,0,0,0,2.649.78,4.852,4.852,0,0,0,2.64-.77c-0.053-.42-0.083-0.83-0.094-1.23A6.1,6.1,0,0,1,342.5,2086.83Zm2.551-1.57-2.775-.47,0.014-.09-2.374.17a12.3,12.3,0,0,1,.037,1.4,6.07,6.07,0,0,0,5.093,0C345.039,2085.92,345.042,2085.58,345.054,2085.26Zm0,0c0.01-.27.026-0.52,0.046-0.76l-2.807.2-0.014.09Zm1.2,1.28c-0.029.3-.05,0.59-0.054,0.87a7.288,7.288,0,0,0,1.39-1.73l-0.612-.1A6.556,6.556,0,0,1,346.257,2086.54Zm2.879-5.24a3.794,3.794,0,0,1-.175,1.86l0.575,0.09a3.887,3.887,0,0,0-.245-3.16,8.551,8.551,0,0,1-.192,1.02C349.113,2081.18,349.126,2081.24,349.136,2081.3Zm-11.648,3.28a0.578,0.578,0,0,0-.432-0.33,1.037,1.037,0,0,1-.642-0.42,2.74,2.74,0,0,1-.5-1.13,3.821,3.821,0,0,1-.043-1.4c0.011-.06.023-0.12,0.037-0.19a8.551,8.551,0,0,1-.192-1.02c-0.961,1.47-.376,4.46,1.248,4.73a7.765,7.765,0,0,0,1.841,2.59c0-.28-0.026-0.57-0.055-0.87A7.535,7.535,0,0,1,337.488,2084.58Zm11.1-.74a1.064,1.064,0,0,1-.642.41,0.565,0.565,0,0,0-.44.35,8.369,8.369,0,0,1-.529.98l0.612,0.1a7.936,7.936,0,0,0,.45-0.86,2.111,2.111,0,0,0,1.493-1.57l-0.575-.09A2.428,2.428,0,0,1,348.592,2083.84Zm-12.123-3.75a0.475,0.475,0,0,0,.127-0.15,0.537,0.537,0,0,0-.389-0.2,0.551,0.551,0,0,0-.368.17c-0.044.06-.085,0.12-0.124,0.18a8.551,8.551,0,0,0,.192,1.02A1.8,1.8,0,0,1,336.469,2080.09Zm12.336-.35a0.521,0.521,0,0,0-.392.21,0.656,0.656,0,0,0,.124.14h0a1.8,1.8,0,0,1,.562,1.02,8.551,8.551,0,0,0,.192-1.02,1.236,1.236,0,0,0-.153-0.21A0.5,0.5,0,0,0,348.805,2079.74Zm-3.42,7.59c-0.079.06-.161,0.11-0.242,0.17,0.026,0.2.058,0.41,0.1,0.61a6.364,6.364,0,0,0,.963-0.7c0-.28.025-0.57,0.054-0.87A5.547,5.547,0,0,1,345.385,2087.33Zm-5.763,0a5.553,5.553,0,0,1-.873-0.79c0.029,0.3.05,0.59,0.055,0.87a6.148,6.148,0,0,0,.945.69c0.042-.2.076-0.41,0.1-0.61A2.666,2.666,0,0,1,339.622,2087.33Zm0.232,0.16c-0.029.2-.063,0.41-0.1,0.61a5.365,5.365,0,0,0,2.754.74v-0.57A4.8,4.8,0,0,1,339.854,2087.49Zm2.649,0.78v0.57a5.406,5.406,0,0,0,2.737-.73c-0.039-.2-0.071-0.41-0.1-0.61A4.852,4.852,0,0,1,342.5,2088.27ZM206.8,1900.14c-2.681.76-5.147,1.49-6.684,2.99,0.065,0.08.131,0.15,0.2,0.23h9.241l0.621-1.63A17.173,17.173,0,0,1,206.8,1900.14Zm6,2.34-0.333.88H219.7A39.43,39.43,0,0,1,212.8,1902.48Zm9.682,0.88h17c0.066-.08.132-0.15,0.2-0.23-1.535-1.5-4-2.23-6.679-2.99a24.157,24.157,0,0,1-10.538,3.05Zm-2.377,0h2.377l-0.021-.17C221.7,1903.27,220.914,1903.32,220.109,1903.36Zm-7.305-.88a24.557,24.557,0,0,1-2.627-.75l-0.621,1.63h2.915Zm6.931,0.88-1.058-8.19a12.513,12.513,0,0,1-2.847-.62l-3.026,7.93a39.43,39.43,0,0,0,6.9.88h0.036Zm-8.409-4.64c-0.1.04-.2,0.08-0.309,0.12-1.4.52-2.834,0.91-4.215,1.3a17.173,17.173,0,0,0,3.375,1.59Zm14.368-4.93a11.987,11.987,0,0,1-4.27,1.35l1.041,8.05A24.157,24.157,0,0,0,233,1900.14c-1.382-.39-2.821-0.78-4.22-1.3C226.242,1897.91,225.672,1896.03,225.694,1893.79Zm-7.017,1.38,1.058,8.19h0.374c0.8-.04,1.59-0.09,2.356-0.17l-1.041-8.05a12.682,12.682,0,0,1-1.524.09Q219.276,1895.23,218.677,1895.17Zm-4.571-1.38c0.022,2.14-.5,3.96-2.78,4.93l-1.149,3.01a24.557,24.557,0,0,0,2.627.75l3.026-7.93A11.7,11.7,0,0,1,214.106,1893.79Zm3.22-10.8,0.057-.15,0.359,0.15h0.989l0.007-.09,0.784,0.09h8.571c0,0.32-.016.65-0.034,0.97l3.173,0.37a2.233,2.233,0,0,0,.832-0.67,5.338,5.338,0,0,0,.976-2.22c0.013-.06.022-0.11,0.033-0.17-3.559,1.4-9.741.2-15.319-3.25a21.116,21.116,0,0,1-7.244-6.99,14.608,14.608,0,0,0-.973,5.65c0.148,3.34-.192,2.47-0.8.7a4.876,4.876,0,0,0-.651-1.33,1.155,1.155,0,0,1-.268.29,3.793,3.793,0,0,0-1.146,2.34,7.512,7.512,0,0,0,.086,2.76,5.338,5.338,0,0,0,.976,2.22,1.934,1.934,0,0,0,1.186.77h0a1.337,1.337,0,0,1,1.008.78,15.071,15.071,0,0,0,2.355,3.74c-0.2-1.92-.559-3.97-0.578-5.96h5.619Zm10.189,5.96a14.278,14.278,0,0,0,1.527-2.14l-1.25-.14C227.7,1887.44,227.594,1888.2,227.515,1888.95Zm-10.132-6.11-0.057.15h0.416Zm1.355,0.06-0.007.09h0.791Zm9.054,3.77,1.25,0.14a16.409,16.409,0,0,0,.81-1.56,1.343,1.343,0,0,1,1.026-.82,1.459,1.459,0,0,0,.354-0.1l-3.173-.37C228.007,1884.87,227.9,1885.78,227.792,1886.67Zm-7.574-.87,0.416,3.23h5.491c-0.038.46-.089,0.92-0.142,1.39a12,12,0,0,0,1.532-1.47c0.079-.75.181-1.51,0.277-2.28Zm-1.487-2.81h-0.989l0.961,0.39Zm-3.709,6.04,2.3-6.04h-5.619c0.019,1.99.373,4.04,0.578,5.96a12,12,0,0,0,1.532,1.47c-0.053-.47-0.1-0.93-0.142-1.39h1.347Zm13.071-6.04h-8.571l8.537,0.97C228.077,1883.64,228.09,1883.31,228.093,1882.99Zm-10.156,6.04h2.7l-0.416-3.23-1.007-.11Zm-0.65-4.61,1.355-.17,0.061-.87-0.961-.39h-0.416l-2.3,6.04h2.861Zm1.259,1.19,0.1-1.36-1.355.17,0.6,4.61h0.054l1.274-3.34Zm1.354-1.73-0.088.23,0.184-.02,0.222,1.71,7.574,0.87c0.111-.89.215-1.8,0.267-2.71l-8.537-.97h-0.791l-0.028.39Zm-0.088.23-0.6,1.58,1.007,0.11L220,1884.09Zm0.088-.23-1.2-.5-0.061.87,1.17-.14Zm-0.689,1.81,0.6-1.58-1.17.14-0.1,1.36Zm-1.314,3.44-1.112,2.92a9.55,9.55,0,0,0,1.537.37Zm-3.554,1.68,0.679-1.78h-1.347c0.038,0.46.089,0.92,0.142,1.39,0.12,0.09.242,0.19,0.366,0.28A1.526,1.526,0,0,1,214.343,1890.81Zm6.291-1.78,0.446,3.45a9.6,9.6,0,0,0,4.537-1.78c0.124-.09.246-0.19,0.366-0.28,0.053-.47.1-0.93,0.142-1.39h-5.491Zm-2.7,0-0.04.1,0.425,3.29a10.12,10.12,0,0,0,1.578.13,11.335,11.335,0,0,0,1.18-.07l-0.446-3.45h-2.7Zm-0.054,0h-2.861l-0.679,1.78a9.8,9.8,0,0,0,2.442,1.24l1.112-2.92Zm0.014,0.1,0.04-.1h-0.054Zm9.618-.18c-0.074.7-.129,1.38-0.14,2.04a15.036,15.036,0,0,0,3.111-4.01l-1.444-.17A14.278,14.278,0,0,1,227.515,1888.95Zm5.525-7.51a5.338,5.338,0,0,1-.976,2.22,2.233,2.233,0,0,1-.832.67l1.844,0.21a7.4,7.4,0,0,0,1.459-4.12,5.233,5.233,0,0,1-1.462.85C233.062,1881.33,233.053,1881.38,233.04,1881.44Zm-23.11,3.77a1.337,1.337,0,0,0-1.008-.78h0a1.934,1.934,0,0,1-1.186-.77,5.338,5.338,0,0,1-.976-2.22,7.512,7.512,0,0,1-.086-2.76,3.793,3.793,0,0,1,1.146-2.34,0.536,0.536,0,1,0-.641-0.83,1.048,1.048,0,0,0-.736.33,3.792,3.792,0,0,0-.359.52c-0.019.03-.038,0.07-0.058,0.1-1.716,3.05-.509,8.77,2.681,9.29a15.458,15.458,0,0,0,3.718,5.24c-0.011-.66-0.065-1.34-0.14-2.04A15.071,15.071,0,0,1,209.93,1885.21Zm20.948-.78a1.343,1.343,0,0,0-1.026.82,16.409,16.409,0,0,1-.81,1.56l1.444,0.17q0.324-.6.607-1.23a3.226,3.226,0,0,0,1.983-1.21l-1.844-.21A1.459,1.459,0,0,1,230.878,1884.43Zm-17.061,5.99a12,12,0,0,1-1.532-1.47c0.075,0.7.129,1.38,0.14,2.04a12.615,12.615,0,0,0,1.428,1.1l0.118-.31C213.923,1891.33,213.869,1890.88,213.817,1890.42Zm12.166,0c-0.068.6-.139,1.19-0.194,1.77a11.334,11.334,0,0,0,1.586-1.2c0.011-.66.066-1.34,0.14-2.04A12,12,0,0,1,225.983,1890.42Zm-12.012,1.36-0.118.31a1.308,1.308,0,0,0,.159.1Zm0.212-1.08c-0.124-.09-0.246-0.19-0.366-0.28,0.052,0.46.106,0.91,0.154,1.36l0.372-.97A1.526,1.526,0,0,0,214.183,1890.7Zm11.434,0a9.6,9.6,0,0,1-4.537,1.78l0.172,1.33a10.787,10.787,0,0,0,4.537-1.62c0.055-.58.126-1.17,0.194-1.77C225.863,1890.51,225.741,1890.61,225.617,1890.7Zm-8.832,1.35-0.477,1.25a10.456,10.456,0,0,0,2.192.5l-0.178-1.38A9.55,9.55,0,0,1,216.785,1892.05Zm1.537,0.37,0.178,1.38a10.692,10.692,0,0,0,1.4.09v-1.34A10.12,10.12,0,0,1,218.322,1892.42Zm1.578,1.47a11.948,11.948,0,0,0,1.352-.08l-0.172-1.33a11.335,11.335,0,0,1-1.18.07v1.34Zm-3.115-1.84a9.8,9.8,0,0,1-2.442-1.24l-0.372.97,0.041,0.41a11.089,11.089,0,0,0,2.3,1.11Zm-13.133,16.35h0c-0.037-.03-0.074-0.05-0.11-0.08C203.581,1908.35,203.616,1908.37,203.652,1908.4Zm32.5,0c0.038-.03.075-0.05,0.114-0.08-0.04.03-.079,0.05-0.118,0.08h0Zm3.494-2.71h0c-0.03.03-.061,0.05-0.091,0.08C239.581,1905.74,239.613,1905.72,239.643,1905.69Zm-39.486,0c0.031,0.03.063,0.05,0.093,0.08-0.03-.03-0.061-0.05-0.091-0.08h0Zm35.954,2.71h0.034c0.039-.03.078-0.05,0.118-0.08,0.23-.15.458-0.31,0.683-0.47a1.849,1.849,0,0,0,.176-0.13c0.553-.39,1.091-0.81,1.614-1.25a2.1,2.1,0,0,0,.171-0.14c0.217-.18.431-0.37,0.643-0.56,0.03-.03.061-0.05,0.091-0.08H239.61A29.784,29.784,0,0,1,236.111,1908.4Zm2.625-1.93c-0.523.44-1.061,0.86-1.614,1.25C237.675,1907.33,238.213,1906.91,238.736,1906.47Zm-38.546-.78h-0.031c0.03,0.03.061,0.05,0.091,0.08,0.212,0.19.426,0.38,0.643,0.56a2.1,2.1,0,0,0,.171.14q0.786,0.66,1.616,1.26l0.169,0.12c0.229,0.16.461,0.32,0.7,0.47,0.036,0.03.073,0.05,0.11,0.08h0.035A29.8,29.8,0,0,1,200.19,1905.69Zm2.49,2.04q-0.829-.6-1.616-1.26Q201.85,1907.13,202.68,1907.73Zm5.987-2.04H200.19a29.8,29.8,0,0,0,3.5,2.71h3.943Zm14.471,2.71h12.973a29.784,29.784,0,0,0,3.5-2.71H222.787Zm-11.556-2.71-1.034,2.71h9.838l-0.35-2.71h-8.454Zm8.8,2.71h2.752l-0.351-2.71h-2.751Zm-9.838,0,1.034-2.71h-2.915l-1.034,2.71h2.915Zm-1.128,2.96,0.329,0.12-0.329-.12h0Zm22.845-.79h0c-0.235.11-.473,0.21-0.712,0.31C231.792,1910.78,232.029,1910.68,232.265,1910.57Zm-13.22,2.69c0.022,0,.044.01,0.066,0.01a0.041,0.041,0,0,1-.032-0.01h-0.034Zm-0.848-.03h0Zm-0.843-.06c0.073,0,.146.01,0.218,0.01h-0.087A0.575,0.575,0,0,0,217.354,1913.17Zm3.336,0.1c0.021,0,.043-0.01.065-0.01h-0.033A0.042,0.042,0,0,1,220.69,1913.27Zm-5-.29c0.137,0.02.275,0.03,0.413,0.05h-0.05C215.933,1913.01,215.811,1912.99,215.691,1912.98Zm8.045,0.05h0c0.125-.02.25-0.04,0.374-0.05-0.119.01-.238,0.03-0.358,0.04A0.015,0.015,0,0,1,223.736,1913.03Zm-7.217.05c0.1,0.02.2,0.03,0.308,0.04a0.308,0.308,0,0,0-.095-0.01Zm7.18-.05h0Zm-2.232.2h0Zm0.762-.05c0.073,0,.145-0.01.217-0.01a0.562,0.562,0,0,0-.129.01h-0.088Zm0.746-.06c0.1-.01.2-0.02,0.306-0.04l-0.209.03A0.317,0.317,0,0,0,222.975,1913.12Zm-13.629-1.79,0.074,0.03h0Zm-1.811-.76c0.236,0.11.473,0.21,0.712,0.31-0.239-.1-0.476-0.2-0.711-0.31h0Zm8.519,2.46h0.05c0.014,0,.029.01,0.044,0.01A0.3,0.3,0,0,0,216.054,1913.03Zm3.846,0.25c0.264,0,.527-0.01.79-0.01a0.042,0.042,0,0,0,.032-0.01C220.449,1913.27,220.175,1913.28,219.9,1913.28Zm-0.821-.02a0.041,0.041,0,0,0,.032.01c0.261,0,.523.01,0.786,0.01h0C219.624,1913.28,219.351,1913.27,219.079,1913.26Zm0.818,0.02h0Zm-3.165-.17a0.308,0.308,0,0,1,.095.01c0.056,0,.111.01,0.167,0.01A2.328,2.328,0,0,0,216.732,1913.11Zm1.54,0.12h0.062c0.141,0.01.283,0.02,0.425,0.02C218.6,1913.25,218.434,1913.24,218.272,1913.23Zm-0.787-.05h0.087a2.729,2.729,0,0,0,.285.02C217.733,1913.2,217.609,1913.19,217.485,1913.18Zm6.267-.16a0.015,0.015,0,0,1-.016.01h0A0.015,0.015,0,0,0,223.752,1913.02Zm-0.946.11c0.056,0,.112-0.01.169-0.01a0.317,0.317,0,0,1,.1-0.01A2.363,2.363,0,0,0,222.806,1913.13Zm-0.864.07a2.748,2.748,0,0,0,.287-0.02h0.088C222.192,1913.19,222.068,1913.2,221.942,1913.2Zm1.794-.17a0.251,0.251,0,0,0-.085.01c0.016,0,.032-0.01.048-0.01h0.037Zm-2.7.22c0.143,0,.285-0.01.427-0.02h0.062C221.367,1913.24,221.2,1913.25,221.04,1913.25Zm-3.13-.04a2.768,2.768,0,0,1,.287.02h0.075C218.151,1913.22,218.03,1913.22,217.91,1913.21Zm-8.487-1.86,0,0.01,0.329,0.12c0.12,0.05.242,0.09,0.363,0.13s0.268,0.1.4,0.14l0.37,0.12c0.135,0.04.27,0.09,0.406,0.13s0.25,0.07.375,0.11l0.411,0.12c0.125,0.03.251,0.06,0.377,0.1s0.278,0.07.418,0.1l0.379,0.09c0.142,0.03.284,0.07,0.426,0.1,0.126,0.02.252,0.05,0.379,0.08,0.145,0.02.29,0.05,0.435,0.08,0.126,0.02.252,0.05,0.379,0.07,0.147,0.02.3,0.05,0.444,0.07,0.031,0,.062.01,0.094,0.01A29.206,29.206,0,0,1,209.423,1911.35Zm11.3,1.91h0.033a2.124,2.124,0,0,0,.252-0.01A2.714,2.714,0,0,1,220.722,1913.26Zm3.03-.24c0.12-.01.239-0.03,0.358-0.04,0.08-.01.159-0.03,0.238-0.04C224.15,1912.97,223.951,1913,223.752,1913.02Zm0.358-.04c0.08-.01.159-0.03,0.238-0.04h0C224.269,1912.95,224.19,1912.97,224.11,1912.98Zm0.286-.05c0.029,0,.059-0.01.089-0.01,0.149-.02.3-0.05,0.447-0.07,0.125-.02.25-0.05,0.376-0.07,0.146-.03.292-0.06,0.437-0.08,0.126-.03.252-0.06,0.377-0.08,0.143-.03.286-0.07,0.429-0.1l0.375-.09c0.141-.03.282-0.07,0.422-0.1,0.125-.04.25-0.07,0.374-0.1l0.415-.12c0.124-.04.248-0.07,0.371-0.11s0.274-.09.41-0.13l0.366-.12c0.137-.04.273-0.09,0.408-0.14,0.12-.04.24-0.08,0.358-0.13l0.412-.15c0.115-.05.23-0.09,0.345-0.14,0.146-.05.291-0.12,0.437-0.18,0.1-.04.206-0.08,0.308-0.13,0.239-.1.477-0.2,0.712-0.31h-0.037A29.194,29.194,0,0,1,224.4,1912.93Zm-5.608.32a2.209,2.209,0,0,0,.257.01h0.034A2.83,2.83,0,0,1,218.788,1913.25Zm-3.339-.31c0.081,0.01.161,0.03,0.242,0.04,0.12,0.01.242,0.03,0.363,0.05Zm0,0c0.081,0.01.162,0.03,0.243,0.04-0.081-.01-0.161-0.03-0.242-0.04h0Zm1.625,0.2,0.281,0.03a0.575,0.575,0,0,1,.131.01C217.347,1913.17,217.21,1913.15,217.073,1913.14Zm-0.819-.09,0.265,0.03,0.213,0.03Zm5.275,0.18H221.6a2.692,2.692,0,0,1,.283-0.02C221.767,1913.22,221.648,1913.22,221.529,1913.23Zm1.543-.12,0.209-.03,0.261-.03Zm-0.755.07a0.562,0.562,0,0,1,.129-0.01l0.277-.03C222.588,1913.15,222.453,1913.17,222.317,1913.18Zm-12.894-1.83q-0.941-.36-1.85-0.78h-0.037c0.235,0.11.472,0.21,0.711,0.31,0.108,0.05.218,0.09,0.328,0.14,0.139,0.06.277,0.12,0.417,0.17,0.118,0.05.236,0.09,0.354,0.14l0.074,0.03Zm22.8-.78h-8.809l0.318,2.46a0.015,0.015,0,0,0,.016-0.01c0.2-.02.4-0.05,0.6-0.08h0.006a0.066,0.066,0,0,0,.042-0.01A29.194,29.194,0,0,0,232.227,1910.57Zm-7.879,2.37h0Zm-3.341.31h0.006l-0.347-2.68H209.721l-0.3.78a29.206,29.206,0,0,0,5.985,1.58h0.005a0.05,0.05,0,0,0,.036.01l0.6,0.09a0.3,0.3,0,0,1,.094.01c0.035,0,.071.01,0.106,0.01l0.478,0.06a2.328,2.328,0,0,1,.262.02,0.212,0.212,0,0,0,.079.01c0.137,0.01.274,0.03,0.412,0.04s0.248,0.02.372,0.02a0.1,0.1,0,0,0,.053.01c0.12,0.01.241,0.01,0.362,0.02,0.162,0.01.325,0.02,0.487,0.02h0.029a2.83,2.83,0,0,0,.291.01c0.272,0.01.545,0.02,0.819,0.02h0c0.275,0,.549-0.01.822-0.02A2.714,2.714,0,0,0,221.007,1913.25Zm-1.108.03h0Zm-4.486-.35a0.049,0.049,0,0,0,.035.01h0A0.05,0.05,0,0,1,215.413,1912.93Zm4.485,0.35h0Zm0,0h0Zm1.115-.03h0.027c0.164,0,.327-0.01.489-0.02,0.119-.01.238-0.01,0.357-0.02a0.11,0.11,0,0,0,.056-0.01c0.126,0,.25-0.01.375-0.02s0.271-.03.406-0.04a0.236,0.236,0,0,0,.083-0.01,2.363,2.363,0,0,1,.266-0.02l0.47-.06c0.037,0,.073-0.01.109-0.01a0.251,0.251,0,0,1,.085-0.01l-0.318-2.46h-2.752Zm-11.59-1.9,0.3-.78h-2.148Q208.482,1910.99,209.423,1911.35Zm-16,55.42a6.594,6.594,0,1,1-6.594-6.58,5.766,5.766,0,0,1,1.023.08l1.166-3.06a9.834,9.834,0,1,0,2.545.97l-1.167,3.06A6.569,6.569,0,0,1,193.421,1966.77Zm-5.571-6.5a6.459,6.459,0,0,1,2.544.97l1.167-3.06a9.4,9.4,0,0,0-2.545-.97Zm116.327,148.52a6.593,6.593,0,1,1-6.253,4.5l-2.829-1.65a9.68,9.68,0,0,0-.745,3.73,9.854,9.854,0,1,0,2.126-6.07l2.826,1.65A6.567,6.567,0,0,1,304.177,2108.79Zm-6.253,4.5a6.574,6.574,0,0,1,1.378-2.34l-2.826-1.65a9.588,9.588,0,0,0-1.381,2.34Zm175.248-53.7a9.82,9.82,0,0,0-3.838.78l1.687,2.81a6.4,6.4,0,0,1,2.151-.36,6.6,6.6,0,1,1-4.482,1.76L467,2061.77A9.825,9.825,0,1,0,473.172,2059.59Zm-2.151,3.59-1.687-2.81a9.836,9.836,0,0,0-2.33,1.4l1.686,2.81A6.524,6.524,0,0,1,471.021,2063.18ZM363.168,1866.13a6.593,6.593,0,1,1,6.406-5.03l2.959,1.41a9.829,9.829,0,1,0-9.365,6.84,9.845,9.845,0,0,0,8.187-4.39l-2.958-1.42A6.593,6.593,0,0,1,363.168,1866.13Zm6.406-5.03a6.5,6.5,0,0,1-1.177,2.44l2.958,1.42a9.689,9.689,0,0,0,1.178-2.45ZM196.906,2133.19a6.6,6.6,0,0,1-6.595,6.58,6.471,6.471,0,0,1-2.812-.63l-0.521.61-2.069-1.77,0.42-.49a6.584,6.584,0,0,1,8.462-9.89l2.114-2.47a9.859,9.859,0,1,0,2,1.85l-2.148,2.51A6.514,6.514,0,0,1,196.906,2133.19Zm-11.577,4.3-0.42.49,2.069,1.77,0.521-.61A6.562,6.562,0,0,1,185.329,2137.49Zm10.576-12.36-2.114,2.47a6.667,6.667,0,0,1,1.968,1.89l2.148-2.51A9.738,9.738,0,0,0,195.905,2125.13Zm263.238-166.34a6.612,6.612,0,1,1,3.926,6.02l-1.916,2.66a9.9,9.9,0,1,0-2.2-1.6l1.915-2.65A6.538,6.538,0,0,1,459.143,1958.79Zm3.926,6.02a6.61,6.61,0,0,1-2.205-1.59l-1.915,2.65a9.869,9.869,0,0,0,2.2,1.6Z" transform="translate(-177 -1849)"/>
</svg>
