<?xml version="1.0" encoding="utf-8"?>
<!-- Generator: Adobe Illustrator 22.1.0, SVG Export Plug-In . SVG Version: 6.00 Build 0)  -->
<svg version="1.1" id="Color_Fill_18_copy_2_1_" xmlns="http://www.w3.org/2000/svg" xmlns:xlink="http://www.w3.org/1999/xlink"
	 x="0px" y="0px" viewBox="0 0 1349 60" style="enable-background:new 0 0 1349 60;" xml:space="preserve">
<style type="text/css">
	.st0{fill:#FFFFFF;}
	.st1{fill:#2056A5;}
	.st2{fill:#EC4033;}
</style>
<path class="st0" d="M1349,60l0-31.1c-0.9,0.2-340,58.6-681.1,0C398.2-18.1,12.2,20.4,0,21.6l0,37.7L1349,60z"/>
<path class="st1" d="M679.1,36.3c301.2,44.2,669.9,1.5,669.9,1.5l0-9.6c-0.9,0.2-340,58.6-681.1,0C398.2-18.1,12.2,20.4,0,21.6v10.2
	C30.4,29,404.4-4,679.1,36.3z"/>
<path class="st2" d="M671,23.3c-268.8-47-649.2-8.7-671-6.4v4.7c12.2-1.2,398.2-39.7,667.9,6.7c341.1,58.6,680.2,0.2,681.1,0l0-4.4
	C1347.3,24.2,990.4,79.2,671,23.3z"/>
</svg>
