<svg xmlns="http://www.w3.org/2000/svg" viewBox="0 0 1349.04 62.45"><defs><style>.cls-1{isolation:isolate;}.cls-2{fill:#fff;}.cls-3{fill:#2056a5;}.cls-4{fill:#ec4033;}</style></defs><title>Asset 7</title><g id="Layer_2" data-name="Layer 2"><g id="Color_Fill_18_copy_3" data-name="Color Fill 18 copy 3" class="cls-1"><path class="cls-2" d="M1349,34s-20.77,4-35.77,6-103.55,6.89-103.55,6.89c-255.45,16.37-410,0-430.9-.91S583.34,23.29,461.52,13.29C349,4.05,45.49,29.73,0,33.69V62.45H1348.76Z"/><path class="cls-3" d="M674.91,32.78C395.08-14.76,105,13.73,0,27.05V37.17C94.1,26.67,394.48-.52,685.91,40.78,977.53,82.11,1274.15,52,1349,43V33.91C1298.94,41.71,987.81,85.94,674.91,32.78Z"/><path class="cls-4" d="M677.93,27.22C395.61-22.23,102.45,8.18,0,21.72v5.33C105,13.73,395.1-14.77,674.93,32.78c312.9,53.16,624,8.93,674.11,1.12V28.84C1290.47,38,983.87,80.8,677.93,27.22Z"/></g></g></svg>