<svg xmlns="http://www.w3.org/2000/svg" viewBox="0 0 1348 71.53"><defs><style>.cls-1{isolation:isolate;}.cls-2{fill:#fff;}.cls-3{fill:#2056a5;}.cls-4{fill:#ec4033;}</style></defs><title>bg-strip-home</title><g id="Layer_2" data-name="Layer 2"><g id="Color_Fill_1_copy_2" data-name="Color Fill 1 copy 2" class="cls-1"><path class="cls-2" d="M1026.41,71.34H972.86C787.62,67.63,581.74,28.21,456,23.34,247.77,15.27,60.07,56.33,0,71.16v.37H1348V27.22c-42.82,10-115.32,23.76-233,38.12C1086.68,68.8,1057,70.67,1026.41,71.34Z"/><path class="cls-3" d="M510,21.34C329.45-.87,37.39,49.89,0,56.61V71.16C60.07,56.33,247.77,15.27,456,23.34c125.74,4.87,331.62,44.29,516.86,48h53.55c30.57-.67,60.27-2.54,88.59-6,117.68-14.36,190.18-28.1,233-38.12v-11c-33.45,7-103.52,21.3-211,41.08C980.19,86.2,715.77,46.65,510,21.34Z"/><path class="cls-4" d="M609,30.22C281.88-19.41,24.94,45.08,0,51.68v4.93C37.39,49.89,329.45-.87,510,21.34c205.77,25.31,470.19,64.86,627,36,107.48-19.78,177.55-34.06,211-41.08V0C1323.25,9.37,1067.9,99.85,609,30.22Z"/></g></g></svg>