<?xml version="1.0" encoding="utf-8"?>
<!-- Generator: Adobe Illustrator 22.1.0, SVG Export Plug-In . SVG Version: 6.00 Build 0)  -->
<svg version="1.1" id="Isolation_Mode" xmlns="http://www.w3.org/2000/svg" xmlns:xlink="http://www.w3.org/1999/xlink" x="0px"
	 y="0px" viewBox="0 0 374 319.8" style="enable-background:new 0 0 374 319.8;" xml:space="preserve">
<style type="text/css">
	.st0{fill:#CCCCCC;}
	.st1{fill:#F4F4F4;}
	.st2{fill:#C9C9C9;}
	.st3{fill:#D8D8D8;}
	.st4{fill:#5E8E1A;}
	.st5{fill:#845C31;}
	.st6{fill:#F4CFA2;}
	.st7{fill:#EA3F3F;}
	.st8{fill:#EAB447;}
	.st9{fill:#2C6C82;}
	.st10{fill:#E5E5E5;}
	.st11{fill:#3B87A8;}
	.st12{fill:#9E3232;}
	.st13{fill:#F7F7F7;}
	.st14{fill:#394159;}
	.st15{fill:#525C82;}
	.st16{fill:#EDD045;}
	.st17{fill:#38211C;}
	.st18{fill:#3F4F7A;}
	.st19{fill:#2A303F;}
	.st20{fill:#FC4242;}
	.st21{fill:#773B13;}
	.st22{fill:#333A56;}
	.st23{fill:#51AF82;}
	.st24{fill:#47A073;}
	.st25{fill:#5ED198;}
	.st26{fill:#232323;}
	.st27{fill:#0A0A0A;}
	.st28{fill:#191919;}
	.st29{fill:#333333;}
</style>
<g>
	<path class="st0" d="M374,309.6c0,5.6-83.7,10.2-187,10.2S0,315.2,0,309.6c0-5.6,83.7-10.2,187-10.2S374,304,374,309.6z"/>
	<g>
		<path class="st1" d="M245,223.4H71c-9.9,0-18,8.1-18,18v2.9c0,9.9,8.1,18,18,18h174V223.4z"/>
		<g>
			<path class="st2" d="M66.3,254.1c0,0,2.7-0.1,7.5-0.2c4.8-0.1,11.6-0.3,19.8-0.4c8.2-0.1,17.7-0.3,28-0.3
				c10.2,0,21.2-0.1,32.1-0.1c10.9,0,21.8,0.1,32.1,0.1c10.2,0,19.8,0.2,28,0.3c8.2,0.1,15,0.3,19.8,0.4c4.8,0.1,7.5,0.2,7.5,0.2
				s-2.7,0.1-7.5,0.2c-4.8,0.1-11.6,0.3-19.8,0.4c-8.2,0.1-17.7,0.3-28,0.3c-10.2,0-21.2,0.1-32.1,0.1c-10.9,0-21.8-0.1-32.1-0.1
				c-10.2,0-19.8-0.2-28-0.3c-8.2-0.1-15-0.3-19.8-0.4C69,254.1,66.3,254.1,66.3,254.1z"/>
			<path class="st2" d="M66.3,246.7c0,0,2.7-0.1,7.5-0.2c4.8-0.1,11.6-0.3,19.8-0.4c8.2-0.1,17.7-0.3,28-0.3
				c10.2,0,21.2-0.1,32.1-0.1c10.9,0,21.8,0.1,32.1,0.1c10.2,0,19.8,0.2,28,0.3c8.2,0.1,15,0.3,19.8,0.4c4.8,0.1,7.5,0.2,7.5,0.2
				s-2.7,0.1-7.5,0.2c-4.8,0.1-11.6,0.3-19.8,0.4c-8.2,0.1-17.7,0.3-28,0.3c-10.2,0-21.2,0.1-32.1,0.1c-10.9,0-21.8-0.1-32.1-0.1
				c-10.2,0-19.8-0.2-28-0.3c-8.2-0.1-15-0.3-19.8-0.4C69,246.8,66.3,246.7,66.3,246.7z"/>
			<path class="st2" d="M66.3,239.4c0,0,2.7-0.1,7.5-0.2c4.8-0.1,11.6-0.3,19.8-0.4c8.2-0.1,17.7-0.3,28-0.3
				c10.2,0,21.2-0.1,32.1-0.1c10.9,0,21.8,0.1,32.1,0.1c10.2,0,19.8,0.2,28,0.3c8.2,0.1,15,0.3,19.8,0.4c4.8,0.1,7.5,0.2,7.5,0.2
				s-2.7,0.1-7.5,0.2c-4.8,0.1-11.6,0.3-19.8,0.4c-8.2,0.1-17.7,0.3-28,0.3c-10.2,0-21.2,0.1-32.1,0.1c-10.9,0-21.8-0.1-32.1-0.1
				c-10.2,0-19.8-0.2-28-0.3c-8.2-0.1-15-0.3-19.8-0.4C69,239.4,66.3,239.4,66.3,239.4z"/>
			<path class="st2" d="M66.3,232c0,0,2.7-0.1,7.5-0.2c4.8-0.1,11.6-0.3,19.8-0.4c8.2-0.1,17.7-0.3,28-0.3c10.2,0,21.2-0.1,32.1-0.1
				c10.9,0,21.8,0.1,32.1,0.1c10.2,0,19.8,0.2,28,0.3c8.2,0.1,15,0.3,19.8,0.4c4.8,0.1,7.5,0.2,7.5,0.2s-2.7,0.1-7.5,0.2
				c-4.8,0.1-11.6,0.3-19.8,0.4c-8.2,0.1-17.7,0.3-28,0.3c-10.2,0-21.2,0.1-32.1,0.1c-10.9,0-21.8-0.1-32.1-0.1
				c-10.2,0-19.8-0.2-28-0.3c-8.2-0.1-15-0.3-19.8-0.4C69,232.1,66.3,232,66.3,232z"/>
		</g>
		<path class="st3" d="M59,252.7v-2.9c0-9.9,8.1-18,18-18h168v-8.3H71c-9.9,0-18,8.1-18,18v2.9c0,5.8,2.8,10.9,7,14.2
			C59.4,256.7,59,254.8,59,252.7z"/>
		<path class="st4" d="M254.3,260.4H71c-8.8,0-16-7.2-16-16v-2.9c0-8.8,7.2-16,16-16h183.3v-4H71c-11,0-20,9-20,20v2.9
			c0,11,9,20,20,20h183.3V260.4z"/>
	</g>
	<g>
		<path class="st1" d="M221.5,266.3H50.3c-9.8,0-17.8,8-17.8,17.8v2.9c0,9.8,8,17.8,17.8,17.8h171.2V266.3z"/>
		<g>
			<path class="st2" d="M42.8,297.3c0,0,2.7-0.1,7.5-0.2c4.8-0.1,11.6-0.3,19.8-0.4c8.2-0.1,17.7-0.3,28-0.3
				c10.2,0,21.2-0.1,32.1-0.1c10.9,0,21.8,0.1,32.1,0.1c10.2,0,19.8,0.2,28,0.3c8.2,0.1,15,0.3,19.8,0.4c4.8,0.1,7.5,0.2,7.5,0.2
				s-2.7,0.1-7.5,0.2c-4.8,0.1-11.6,0.3-19.8,0.4c-8.2,0.1-17.7,0.3-28,0.3c-10.2,0-21.2,0.1-32.1,0.1c-10.9,0-21.8-0.1-32.1-0.1
				c-10.2,0-19.8-0.2-28-0.3c-8.2-0.1-15-0.3-19.8-0.4C45.5,297.3,42.8,297.3,42.8,297.3z"/>
			<path class="st2" d="M42.8,289.9c0,0,2.7-0.1,7.5-0.2c4.8-0.1,11.6-0.3,19.8-0.4c8.2-0.1,17.7-0.3,28-0.3
				c10.2,0,21.2-0.1,32.1-0.1c10.9,0,21.8,0.1,32.1,0.1c10.2,0,19.8,0.2,28,0.3c8.2,0.1,15,0.3,19.8,0.4c4.8,0.1,7.5,0.2,7.5,0.2
				s-2.7,0.1-7.5,0.2c-4.8,0.1-11.6,0.3-19.8,0.4c-8.2,0.1-17.7,0.3-28,0.3c-10.2,0-21.2,0.1-32.1,0.1c-10.9,0-21.8-0.1-32.1-0.1
				c-10.2,0-19.8-0.2-28-0.3c-8.2-0.1-15-0.3-19.8-0.4C45.5,290,42.8,289.9,42.8,289.9z"/>
			<path class="st2" d="M42.8,282.5c0,0,2.7-0.1,7.5-0.2c4.8-0.1,11.6-0.3,19.8-0.4c8.2-0.1,17.7-0.3,28-0.3
				c10.2,0,21.2-0.1,32.1-0.1c10.9,0,21.8,0.1,32.1,0.1c10.2,0,19.8,0.2,28,0.3c8.2,0.1,15,0.3,19.8,0.4c4.8,0.1,7.5,0.2,7.5,0.2
				s-2.7,0.1-7.5,0.2c-4.8,0.1-11.6,0.3-19.8,0.4c-8.2,0.1-17.7,0.3-28,0.3c-10.2,0-21.2,0.1-32.1,0.1c-10.9,0-21.8-0.1-32.1-0.1
				c-10.2,0-19.8-0.2-28-0.3c-8.2-0.1-15-0.3-19.8-0.4C45.5,282.6,42.8,282.5,42.8,282.5z"/>
			<path class="st2" d="M42.8,275.2c0,0,2.7-0.1,7.5-0.2c4.8-0.1,11.6-0.3,19.8-0.4c8.2-0.1,17.7-0.3,28-0.3
				c10.2,0,21.2-0.1,32.1-0.1c10.9,0,21.8,0.1,32.1,0.1c10.2,0,19.8,0.2,28,0.3c8.2,0.1,15,0.3,19.8,0.4c4.8,0.1,7.5,0.2,7.5,0.2
				s-2.7,0.1-7.5,0.2c-4.8,0.1-11.6,0.3-19.8,0.4c-8.2,0.1-17.7,0.3-28,0.3c-10.2,0-21.2,0.1-32.1,0.1c-10.9,0-21.8-0.1-32.1-0.1
				c-10.2,0-19.8-0.2-28-0.3c-8.2-0.1-15-0.3-19.8-0.4C45.5,275.2,42.8,275.2,42.8,275.2z"/>
		</g>
		<path class="st3" d="M37.3,294.3v-2.9c0-9.8,8-17.8,17.8-17.8h166.4v-7.3H50.3c-9.8,0-17.8,8-17.8,17.8v2.9
			c0,5.2,2.2,9.8,5.8,13.1C37.6,298.3,37.3,296.4,37.3,294.3z"/>
		<path class="st5" d="M231.8,302.9H50.3c-8.7,0-15.8-7.1-15.8-15.8v-2.9c0-8.7,7.1-15.8,15.8-15.8h181.4v-4H50.3
			c-10.9,0-19.8,8.9-19.8,19.8v2.9c0,10.9,8.9,19.8,19.8,19.8h181.4V302.9z"/>
	</g>
	<g>
		<g>
			<path class="st6" d="M297,131c0,0,0.6-13.1,9.7-16.1c9.1-3,13.5,2.1,12.1,5.3c2.1,3.8-0.2,6.8-0.6,7c2.3,2.2,0,5.5-0.7,5.6
				C322.2,137.2,298,150,297,131z"/>
			<path class="st7" d="M289.2,131.4c0,0,3.9-2.6,5.8-3.2c1.9-0.6,4.9,1.9,7,13c0.3,3-8.9,5.6-12.1,6.9
				C286.7,149.4,289.2,131.4,289.2,131.4z"/>
			<path class="st8" d="M287.5,130c-5,4.9-25.5,13.4-37.4,11.9v23.6c18.3-2.5,40.3-12.1,43.6-16.4
				C297.7,143.6,295.1,128.4,287.5,130z"/>
		</g>
		<g>
			<path class="st9" d="M305,91.5l0.9,14.3c0,0,23.5,0.7,24.8-4.4C323.9,93.9,308.3,91.5,305,91.5z"/>
			<path class="st10" d="M302.5,93.8l0.9,14.3c0,0,25.9-1.6,27.2-6.8C323.9,93.9,305.9,93.8,302.5,93.8z"/>
			<path class="st1" d="M300.3,96.2l0.9,14.3c0,0,28.1-4,29.4-9.2C325.8,95.9,303.7,96.2,300.3,96.2z"/>
			<path class="st10" d="M298.4,101.3c0,0,9.1,46.8,0.2,82.9c13.7,2.1,29.4-3.3,29.4-3.3s7.3-44.6,2.7-79.6
				C323.3,104.4,298.4,101.3,298.4,101.3z"/>
			<path class="st11" d="M297,104.8c0,0,10.5,43.4,1.6,79.4c13.7,2.1,29.4-3.3,29.4-3.3s7.3-44.6,2.7-79.6
				C323.3,104.4,297,104.8,297,104.8z"/>
		</g>
		<g>
			<g>
				<g>
					<g>
						<path class="st12" d="M265.8,268.4c0,0-4.6,9.7-4.4,19.5c0.4,19.7-13.5,21.5-13.9,16.1c-0.4-5.6-1.1-37.4-1-42.9
							c0.1-7.3,4.3-7.9,13.8-8.2C267.3,256.8,265.8,268.4,265.8,268.4z"/>
					</g>
					<g>
						<path class="st7" d="M254.7,305.3c1.1-3,2.7-5.8,4.2-8.5c-0.2-11.2-1.4-23.5,7.1-31.9c-0.1-3.7-1.1-9.5-5.7-12.1
							c-9.5,0.3-13.7,0.9-13.8,8.2c-0.1,5.5,0.6,37.3,1,42.9C247.7,306.6,251.2,307.5,254.7,305.3z"/>
					</g>
					<g>
						<path class="st1" d="M261.4,290.4c-4.6-2.5-9.5-2.7-14.5-2c0.2,7.1,0.4,13.4,0.6,15.6C247.8,309,260.5,307.7,261.4,290.4z"/>
					</g>
					<g>
						<g>
							<path class="st1" d="M252.4,306.3c-0.8-0.4-1.3-1.2-1.3-2.1c-0.4-5.6-0.6-42.4-0.5-47.9c0-1,0.1-1.8,0.3-2.4
								c-2.9,1-4.3,3-4.3,7.1c-0.1,5.5,0.6,37.3,1,42.9C247.6,306,249.8,307,252.4,306.3z"/>
						</g>
					</g>
				</g>
				<g>
					<path class="st13" d="M256,284.9l0.4-0.9c3.4,1.4,5.3,2.8,5.7,4.2c0.2,0.7-0.7,1.4-0.7,1.5l0-0.7c0,0-0.1-0.3-0.2-0.6
						C261,287.8,260,286.6,256,284.9z"/>
				</g>
				<g>
					<path class="st13" d="M256.8,279.6l0.4-0.9c3.1,1.3,4.9,2.7,5.3,4.3c0.5,1.7-0.3,1.7-0.4,1.8l-0.6-0.4c-0.2,0,0.3-0.4,0-1.1
						C261.3,282.4,260.2,281,256.8,279.6z"/>
				</g>
				<g>
					<path class="st13" d="M257.4,274.8l0.4-0.9c3.1,1.3,4.7,2.8,5.3,4.3c0.6,1.5-1.1,1.5-1.2,1.6l0.2-0.3c0,0,0.3-0.4,0-1.1
						C261.8,277.6,260.8,276.2,257.4,274.8z"/>
				</g>
				<g>
					<path class="st13" d="M258.7,269.4l0.4-0.9c3.1,1.3,4.8,2.7,5.3,4.3c0.3,1.1,0,0.9-0.1,1l-0.9,0.3c0,0,0.3-0.4,0-1.1
						C263.2,272.2,262.1,270.9,258.7,269.4z"/>
				</g>
				<g>
					<path class="st13" d="M258,274c3,0.6,5.9-1.1,5.9-1.1l0.5,0.8c-0.1,0.1-3.2,1.9-6.6,1.2L258,274z"/>
				</g>
				<g>
					<path class="st13" d="M257,278.8c3.1,0.6,5.7-0.2,5.8-0.3l0.3,0.6c-0.7,0.6-2.9,1.3-6.2,0.6L257,278.8z"/>
				</g>
				<g>
					<path class="st13" d="M256.1,284.1c3.1,0.6,5.7-0.2,5.8-0.2l0.3,0.9c-0.1,0-2.9,1-6.2,0.3L256.1,284.1z"/>
				</g>
				<g>
					<path class="st13" d="M255.8,285.5c-0.5-0.2-0.8-0.8-0.7-1.3c0.2-0.5,0.8-0.8,1.3-0.7c0.5,0.2,0.8,0.8,0.7,1.3
						C256.9,285.4,256.3,285.7,255.8,285.5z"/>
				</g>
				<g>
					<path class="st13" d="M256.5,280.1c-0.5-0.2-0.8-0.8-0.7-1.3c0.2-0.5,0.8-0.8,1.3-0.7c0.5,0.2,0.8,0.8,0.7,1.3
						C257.7,280,257.1,280.3,256.5,280.1z"/>
				</g>
				<g>
					<path class="st13" d="M257.3,275.4c-0.5-0.2-0.8-0.8-0.7-1.3c0.2-0.5,0.8-0.8,1.3-0.7c0.5,0.2,0.8,0.8,0.7,1.3
						C258.5,275.2,257.9,275.5,257.3,275.4z"/>
				</g>
				<g>
					<path class="st13" d="M258.9,270.1c-0.5-0.2-0.8-0.8-0.7-1.3c0.2-0.5,0.8-0.8,1.3-0.7c0.5,0.2,0.8,0.8,0.7,1.3
						C260,270,259.4,270.3,258.9,270.1z"/>
				</g>
			</g>
			<path class="st14" d="M265.9,187.7c0,0,79.9,15.5,58.1,41.7c-12.5,15-41,31-43.9,34c-2.9,3-6.3,6-8.4,4.9c-2.1-1.2-3,4.7-5.8,4.3
				c-2.8-0.4-7.8-10.1-7.5-17.8c0.3-7.7,5-7.2,6.7-7.2c1.7,0.1,4.4-5.5,6.4-4.7c2,0.8,19.9-15.9,25-19c9.1-5.6-26.1-6.3-28.8-8.5
				c-2.9-2.4-39.9-5-35.3-14.7C238.4,187.8,265.9,187.7,265.9,187.7z"/>
		</g>
		<g>
			<g>
				<g>
					<g>
						<path class="st12" d="M314.8,285.9c0,0,8.2,6.9,17.7,9.2c19.2,4.6,17.3,18.5,12.1,17.6c-5.5-1-36.5-8.4-41.8-9.9
							c-7.1-2-6.6-6.2-4.5-15.4C304,281.5,314.8,285.9,314.8,285.9z"/>
					</g>
					<g>
						<path class="st7" d="M347.8,306c-2.6-1.8-4.9-4.1-7.2-6.2c-10.9-2.6-23.1-4.6-29.1-14.9c-3.6-0.8-9.5-1.3-13.1,2.5
							c-2.1,9.3-2.6,13.5,4.5,15.4c5.3,1.5,36.3,8.9,41.8,9.9C347.2,313.2,349,309.9,347.8,306z"/>
					</g>
					<g>
						<path class="st1" d="M335,295.8c-3.6,3.9-5,8.5-5.6,13.5c6.9,1.6,13.1,3,15.2,3.4C349.6,313.6,351.5,301,335,295.8z"/>
					</g>
					<g>
						<g>
							<path class="st1" d="M348.2,308.5c-0.6,0.6-1.4,0.9-2.4,0.8c-5.5-1-41.2-10.2-46.5-11.7c-1-0.3-1.7-0.6-2.3-0.9
								c0.2,3.1,1.8,4.9,5.8,6c5.3,1.5,36.3,8.9,41.8,9.9C346.6,313,348.1,311.2,348.2,308.5z"/>
						</g>
					</g>
				</g>
				<g>
					<path class="st13" d="M328.3,299.5l-0.7-0.6c2.2-2.9,4.1-4.4,5.5-4.5c0.7,0,1.2,1,1.3,1.1l-0.6-0.2c0,0-0.3,0-0.7,0
						C332.4,295.5,331,296.1,328.3,299.5z"/>
				</g>
				<g>
					<path class="st13" d="M323.4,297.5l-0.7-0.6c2-2.6,3.9-4,5.5-4c1.8,0,1.5,0.8,1.6,0.8l-0.6,0.4c0,0.2-0.3-0.4-1-0.3
						C327.2,293.8,325.7,294.5,323.4,297.5z"/>
				</g>
				<g>
					<path class="st13" d="M318.9,295.7l-0.7-0.6c2-2.6,3.9-3.9,5.5-4c1.6-0.2,1.2,1.5,1.2,1.5l-0.2-0.3c0,0-0.3-0.4-1-0.3
						C322.7,292.1,321.2,292.7,318.9,295.7z"/>
				</g>
				<g>
					<path class="st13" d="M314.1,293l-0.7-0.6c2-2.6,3.9-4,5.5-4c1.1,0,0.9,0.3,1,0.3l0.1,0.9c0,0-0.3-0.4-1-0.3
						C317.9,289.4,316.3,290.1,314.1,293z"/>
				</g>
				<g>
					<path class="st13" d="M318.3,294.9c1.4-2.8,0.5-6,0.5-6l0.9-0.3c0,0.1,1,3.6-0.5,6.7L318.3,294.9z"/>
				</g>
				<g>
					<path class="st13" d="M322.7,297c1.4-2.8,1.2-5.6,1.2-5.6l0.6-0.1c0.4,0.9,0.5,3.1-1,6.2L322.7,297z"/>
				</g>
				<g>
					<path class="st13" d="M327.6,299.3c1.4-2.8,1.2-5.6,1.2-5.6l0.9-0.1c0,0.1,0.2,3.1-1.3,6.1L327.6,299.3z"/>
				</g>
				<g>
					<path class="st13" d="M328.9,300c-0.3,0.5-0.9,0.6-1.4,0.3c-0.5-0.3-0.6-0.9-0.3-1.4c0.3-0.5,0.9-0.6,1.4-0.3
						C329.1,298.8,329.2,299.5,328.9,300z"/>
				</g>
				<g>
					<path class="st13" d="M323.8,297.8c-0.3,0.5-0.9,0.6-1.4,0.3c-0.5-0.3-0.6-0.9-0.3-1.4c0.3-0.5,0.9-0.6,1.4-0.3
						C324,296.7,324.1,297.4,323.8,297.8z"/>
				</g>
				<g>
					<path class="st13" d="M319.5,295.9c-0.3,0.5-0.9,0.6-1.4,0.3c-0.5-0.3-0.6-0.9-0.3-1.4c0.3-0.5,0.9-0.6,1.4-0.3
						C319.6,294.7,319.8,295.4,319.5,295.9z"/>
				</g>
				<g>
					<path class="st13" d="M314.8,293c-0.3,0.5-0.9,0.6-1.4,0.3c-0.5-0.3-0.6-0.9-0.3-1.4c0.3-0.5,0.9-0.6,1.4-0.3
						C314.9,291.9,315.1,292.5,314.8,293z"/>
				</g>
			</g>
			<path class="st15" d="M204.5,196c0,0,79.7-0.9,87.5,17c7.9,17.9,19.4,54.2,21.5,57.8c2.1,3.6,4.2,7.7,2.6,9.4
				c-1.6,1.7,3.8,4,2.7,6.7c-1.1,2.6-11.7,5-19.1,2.8c-7.4-2.2-5.7-6.7-5.2-8.3c0.5-1.6-4.2-5.7-2.9-7.4c1.2-1.7-19.9-37.3-21.4-43
				c-1.8-6.5-2.7-7-3.1-7c-3.7,0.7-52.9,2.1-61.1-4.7C195.1,210,204.5,196,204.5,196z"/>
		</g>
		<path class="st7" d="M204.5,119.8c3.9-6.8,11.4-12.4,27.4-15.1c16.1-2.7,24.8,7.5,29.8,27.3c5,19.8,13.2,42,20.2,59.6
			c-13,1.9-20.2-0.5-35.1,13.2c-14.9,13.7-40.6,4.8-49.2,0C201,189,194.9,136.4,204.5,119.8z"/>
		<g>
			<path class="st6" d="M293.6,151c0,0,0.6-13.1,9.7-16.1c9.1-3,13.5,2.1,12.1,5.3c2.1,3.8-0.2,6.8-0.6,7c2.3,2.2,0,5.5-0.7,5.6
				C318.8,157.2,294.6,170,293.6,151z"/>
			<path class="st7" d="M285.8,151.4c0,0,3.9-2.6,5.8-3.2c1.9-0.6,4.9,1.9,7,13c0.3,3-8.9,5.6-12.1,6.9
				C283.3,169.4,285.8,151.4,285.8,151.4z"/>
			<path class="st16" d="M205.2,127.3c0,0,0-12,11.2-13.8c11.3-1.8,16.5,33.2,22.6,44.2c6.1,11,38.6-1.4,45-7.7
				c7.6-1.7,10.3,13.6,6.2,19.1c-4.1,5.5-38.5,19.4-57,16.7C214.8,183,205.6,139.7,205.2,127.3z"/>
		</g>
		<g>
			<g>
				<g>
					<path class="st6" d="M282,69.3c0,24-13.9,45-38,45s-43.5-19.5-43.5-43.5c0-24,19.5-43.5,43.5-43.5S282,45.3,282,69.3z"/>
					<path class="st6" d="M280.3,78.1c0,0-1.4,7.1,0,9.3s4.3,2.4,5.8,4.6s-2.7,6.9-11.6,5.4C267.5,97.8,280.3,78.1,280.3,78.1z"/>
				</g>
				<path class="st17" d="M248.7,66.8c0,0,14.6,5.5,26.1,6.5c2.3-2.8,0-10.2-1-13.6c2.8,2.6,4.8,7.6,4,13.6c5.5,2.3,8.5,0,8.5,0
					s3.5-42.8-32.3-49.8c-21.3-4.2-32.8,1.8-32.8,6c-12,0.3-28.4,18.5-23.6,43.3c4.8,24.8,16.8,28.9,14.8,34.5
					c9,0.8,12.3-18,6.8-23.7c-8-7.3,3-16,9-11.3s3.3,15.1,3.3,15.1h4.5c0,0,3.6-8,3.8-11.9C239.8,73.5,248.6,78.5,248.7,66.8z"/>
				<path class="st17" d="M247.7,97.7c0,0,9.2,8.2,17.7,8C253.8,113.1,247.1,110,247.7,97.7z"/>
				<path class="st17" d="M266.7,83.2c-0.7,1.4-1.8,2.2-2.6,1.8c-0.7-0.4-0.8-1.8-0.1-3.2c0.7-1.4,1.8-2.2,2.6-1.8
					C267.3,80.4,267.4,81.9,266.7,83.2z"/>
				<path class="st17" d="M271.3,77.3c0,0-0.2-0.2-0.5-0.5c-0.3-0.3-0.8-0.7-1.5-1.1c-0.3-0.2-0.7-0.4-1.1-0.6
					c-0.4-0.1-0.8-0.3-1.3-0.4c-0.4-0.1-0.9-0.1-1.4-0.2c-0.5,0-1,0-1.5,0.1c-0.5,0.1-1,0.1-1.4,0.3c-0.5,0.2-0.9,0.3-1.4,0.5
					c-0.4,0.2-0.9,0.4-1.2,0.6c-0.4,0.2-0.7,0.4-1.1,0.6c-0.3,0.2-0.6,0.4-0.9,0.6c-0.3,0.2-0.5,0.3-0.7,0.5
					c-0.4,0.3-0.6,0.4-0.6,0.4s0.2-0.2,0.5-0.5c0.2-0.2,0.4-0.4,0.6-0.6c0.2-0.2,0.5-0.5,0.8-0.7c0.3-0.2,0.7-0.5,1-0.8
					c0.4-0.3,0.8-0.5,1.2-0.7c0.4-0.3,0.9-0.5,1.4-0.6c0.5-0.2,1-0.3,1.6-0.4c0.5-0.1,1.1-0.1,1.7-0.1c0.5,0.1,1.1,0.1,1.6,0.3
					c0.5,0.1,0.9,0.4,1.4,0.6c0.4,0.3,0.8,0.5,1.1,0.8c0.3,0.3,0.6,0.5,0.8,0.8c0.2,0.2,0.4,0.5,0.5,0.7
					C271.2,77.1,271.3,77.3,271.3,77.3z"/>
			</g>
			<g>
				<path class="st18" d="M263.1,25.6c0,0-15.5-12.5-39.6-9.6c-24.1,2.9-39.5,8.4-43.3,9.9c-3.8,1.5-3.5,9.8,3.2,13.4
					s4.6,16.1,10.9,26.2C212.9,50.6,263.1,25.6,263.1,25.6z"/>
				<path class="st14" d="M199.6,81.2c0,0,10.3-23.1,41.8-35.8c31.5-12.8,34.8-8.9,34.8-8.9s0.5-10.7-10.4-12.7
					c-10.8-2-49.9,9.3-63.8,25.4C188.1,65.2,190,74.4,199.6,81.2z"/>
				<path class="st19" d="M210.4,41.8c-2,1.4-3.8,2.8-5.5,4.3c2,6.4,4.2,12.4,7.6,17.9c2-1.9,4.2-3.9,6.7-5.9
					C216.2,52.9,213.5,47.3,210.4,41.8z"/>
				<path class="st19" d="M199.5,52.1c-2,2.6-3.6,4.9-4.7,7.2c0,7.6,1.4,14.8,5.2,21.2c0.6-1.2,2.2-4.1,4.9-7.7
					C201.3,66.5,199.3,59.6,199.5,52.1z"/>
				<path class="st19" d="M221.6,35.3c-2,1-3.9,2-5.7,3c2.4,5.9,5,11.3,8.7,15.9c1.4-0.9,2.8-1.8,4.3-2.7
					C226.5,46.1,224.3,40.7,221.6,35.3z"/>
				<path class="st19" d="M234.6,29.8c-1.8,0.6-3.5,1.3-5.3,2c1.3,5.6,5.3,10.2,7.4,15.6c1.5-0.7,3-1.4,4.6-2c0,0,0,0,0,0
					C239.5,40,237.4,34.7,234.6,29.8z"/>
				<path class="st19" d="M248.9,25.5c-2.4,0.6-4.9,1.2-7.5,2c3.6,4.4,5.1,9.6,6.8,15.1c2.7-1,5.2-1.9,7.5-2.7
					C254.1,34.9,251.5,30.2,248.9,25.5z"/>
				<path class="st19" d="M263.5,23.5c-2.1-0.1-4.6,0.2-7.6,0.6c3.1,4,5.7,8.7,7.1,13.6c4-1.1,6.8-1.6,8.8-1.8
					C270,31.3,267,27.1,263.5,23.5z"/>
				<path class="st18" d="M188.8,27.7c0.8,6.1-3.5,11.7-9.6,12.5c-6.1,0.8-11.7-3.5-12.5-9.6c-0.8-6.1,3.5-11.7,9.6-12.5
					C182.4,17.3,188,21.6,188.8,27.7z"/>
			</g>
		</g>
	</g>
	<polygon class="st18" points="46.2,285.6 67.8,285.6 67.8,311 55.7,302.9 46.2,309.6 	"/>
	<polygon class="st20" points="90.7,249.7 112.3,249.7 112.3,275.1 100.2,266.9 90.7,273.6 	"/>
	<g>
		<g>
			<g>
				<g>
					<g>
						<path class="st6" d="M183.3,94.9c0,5.4-4.4,9.8-9.8,9.8c-5.4,0-9.8-4.4-9.8-9.8c0-5.4,4.4-9.8,9.8-9.8
							C179,85.2,183.3,89.5,183.3,94.9z"/>
						<path class="st6" d="M85.4,94.9c0,5.4-4.4,9.8-9.8,9.8c-5.4,0-9.8-4.4-9.8-9.8c0-5.4,4.4-9.8,9.8-9.8
							C81,85.2,85.4,89.5,85.4,94.9z"/>
					</g>
					<path class="st6" d="M168.1,85.2c0,24-19.5,43.5-43.5,43.5c-24,0-43.5-19.5-43.5-43.5c0-24,19.5-43.5,43.5-43.5
						C148.6,41.6,168.1,61.1,168.1,85.2z"/>
				</g>
				<g>
					<path class="st17" d="M145.3,92.9c0,1.5-0.7,2.8-1.5,2.8c-0.8,0-1.5-1.3-1.5-2.8c0-1.5,0.7-2.8,1.5-2.8
						C144.6,90.2,145.3,91.4,145.3,92.9z"/>
					<path class="st17" d="M106.9,92.9c0,1.5-0.7,2.8-1.5,2.8c-0.8,0-1.5-1.3-1.5-2.8c0-1.5,0.7-2.8,1.5-2.8
						C106.2,90.2,106.9,91.4,106.9,92.9z"/>
				</g>
				<g>
					<path class="st17" d="M135.6,81.1c0,0,0.3-0.1,0.7-0.3c0.5-0.2,1.1-0.4,1.9-0.6c0.8-0.2,1.7-0.5,2.8-0.7c0.5-0.1,1-0.2,1.6-0.3
						c0.5-0.1,1.1-0.2,1.6-0.2c1.1-0.1,2.2-0.2,3.3-0.1c0.5,0,1,0.1,1.5,0.1c0.5,0,0.9,0.2,1.3,0.3c0.4,0.1,0.8,0.2,1.1,0.4
						c0.3,0.1,0.6,0.2,0.8,0.4c0.4,0.2,0.7,0.4,0.7,0.4s-0.3-0.1-0.7-0.2c-0.2-0.1-0.5-0.2-0.8-0.2c-0.3-0.1-0.7-0.1-1.1-0.2
						c-0.4,0-0.8-0.1-1.3-0.1c-0.5,0-0.9,0-1.5,0c-0.5,0-1,0-1.6,0.1c-0.5,0-1.1,0.1-1.6,0.1c-1.1,0.1-2.2,0.2-3.2,0.4
						c-1,0.1-2,0.3-2.8,0.4C136.7,81,135.6,81.1,135.6,81.1z"/>
					<path class="st17" d="M113.5,81c0,0-1.1-0.1-2.7-0.2c-0.8,0-1.8-0.1-2.8-0.2c-1,0-2.1-0.1-3.2-0.1c-0.5,0-1.1,0-1.6,0
						c-0.5,0-1.1,0-1.6,0.1c-0.5,0-1,0.1-1.4,0.1c-0.5,0-0.9,0.1-1.3,0.2c-0.4,0.1-0.8,0.2-1.1,0.3c-0.3,0.1-0.6,0.2-0.8,0.3
						c-0.4,0.2-0.7,0.3-0.7,0.3s0.2-0.2,0.6-0.5c0.2-0.2,0.5-0.3,0.8-0.4c0.3-0.1,0.7-0.3,1.1-0.5c0.4-0.1,0.8-0.3,1.3-0.4
						c0.5-0.1,1-0.2,1.5-0.3c1-0.2,2.2-0.2,3.3-0.2c0.6,0,1.1,0,1.7,0.1c0.5,0,1.1,0.1,1.6,0.1c1,0.1,2,0.3,2.8,0.5
						c0.8,0.2,1.5,0.4,1.9,0.5C113.3,80.9,113.5,81,113.5,81z"/>
				</g>
			</g>
			<path class="st21" d="M94.9,58.3c0,0-0.4,15.5-9.6,24.3c-1.8,6.8-4.3,13.2-4.3,13.2s-2.7-5.8-3.4-17.6
				C77,66.3,79.3,47.8,91.3,44.8C98,32.7,114.6,24.6,130.6,18c16-6.6,18.4-18,18.4-18s0.3,16.3-11.3,23.5
				c8.3-1.2,13.7-12.2,13.7-12.2c1,7.3-3.5,13.6-9.1,19.3c5.4,1.7,11.6-5.1,11.6-5.1s-4.2,7.1-11.6,12.2
				c14.1,6.3,36.4,14.6,25.8,55.3c-2.1,5.5-5.8,8.2-5.8,8.2s2.8-9.7,1.5-16.1c-1.3-6.4-9.6-9.9-10.9-17.4c-1.4-7.5-1.4-10-1.4-10
				S131.7,66,94.9,58.3z"/>
		</g>
		<path class="st18" d="M185.8,179.5c0,12.7-26.8,25.3-59.9,25.3c-33.1,0-59.9-12.5-59.9-25.3c0-12.7,26.8-23.1,59.9-23.1
			C158.9,156.4,185.8,166.7,185.8,179.5z"/>
		<g>
			<path class="st18" d="M42.1,156.2c0,9.4,5.3,17,11.9,17c6.6,0,11.9-7.6,11.9-17s-5.3-17-11.9-17
				C47.5,139.2,42.1,146.8,42.1,156.2z"/>
			<ellipse class="st22" cx="54.7" cy="150.7" rx="9.1" ry="10.9"/>
		</g>
		<g>
			<path class="st18" d="M209.6,156.2c0,9.4-5.3,17-11.9,17c-6.6,0-11.9-7.6-11.9-17s5.3-17,11.9-17
				C204.2,139.2,209.6,146.8,209.6,156.2z"/>
			<ellipse class="st22" cx="197" cy="150.7" rx="9.1" ry="10.9"/>
		</g>
		<g>
			<polygon class="st1" points="125.7,103.2 182.1,81.8 175.2,167.2 130.6,184.2 			"/>
			<polygon class="st10" points="125.7,103.2 190.2,87.4 183.3,172.8 130.6,184.2 			"/>
			<polygon class="st23" points="125.7,103.2 196.2,93 187.7,176.8 130.6,184.2 			"/>
			<polygon class="st1" points="125.4,103.1 65.9,83.5 74.4,167.2 121.5,184.2 			"/>
			<polygon class="st10" points="125.4,103.1 59.6,87.4 68,171.1 121.5,184.2 			"/>
			<polygon class="st24" points="125.4,103.1 54.8,93 63.2,176.8 121.5,184.2 			"/>
			<rect x="121.5" y="102.5" class="st25" width="9.1" height="81.7"/>
		</g>
		<path class="st6" d="M202.9,146.1c0,0-1.2-13.1-10.4-15.6c-9.2-2.6-13.4,2.7-11.9,5.8c-2,3.8,0.5,6.8,0.9,7
			c-2.2,2.3,0.2,5.5,0.9,5.6C178,153.3,202.7,165.1,202.9,146.1z"/>
		<path class="st6" d="M48.8,146.1c0,0,1.2-13.1,10.4-15.6c9.2-2.6,13.4,2.7,11.9,5.8c2,3.8-0.5,6.8-0.9,7c2.2,2.3-0.2,5.5-0.9,5.6
			C73.7,153.3,49,165.1,48.8,146.1z"/>
		<g>
			<path class="st26" d="M122.1,152.2c-0.9-2.7-1.3-6.3-2.8-8.7l-2.9-1.9c-2.1-3-0.7-3.6-2.9-3.6c-4.8,0.1-12.4,4.3-18.1,11.8
				c-2.4,3.1-25.5,40.7-28.5,43.2c-0.5,6.4,2.9,10.8,4.1,12.4c1.2,1.6,3,1.7,4.6,3c3.1,2.6,25.5,21.1,51.9,13.5
				c0.5-0.2,3.9-22.8,4.3-24.7l-21.1,0.1c1.4,0,12-24.5,12-36.6C122.7,157.8,122.9,155,122.1,152.2z"/>
			<g>
				<g>
					<g>
						<g>
							<path class="st27" d="M66.4,222.7c0,0-14.5,15.5-25,27.6l1.3,0.2l-0.9,6.6c6.4,3.7,23.9,3.7,26.1,0.3
								c9.2-14.4,20.7-28.9,20.7-28.9L66.4,222.7z"/>
						</g>
						<g>
							<path class="st28" d="M81.3,226.6l-20.7,29l-9.7-4.4L74,224.7l-7.6-2c0,0-14.5,15.5-25,27.6l1.3,0.2l-0.9,6.6
								c6.4,3.7,23.9,3.7,26.1,0.3c9.2-14.4,20.7-28.9,20.7-28.9L81.3,226.6z"/>
						</g>
						<g>
							<path class="st1" d="M44.8,246.4c-1.6,1.5-3,3-4.1,4.6c-9,13.7,18.9,21.8,27.1,6.2C63.1,251.6,54.2,248,44.8,246.4z"/>
						</g>
					</g>
					<g>
						<g>
							<polygon class="st13" points="76.9,237 68.2,226.9 69.4,226.5 78.1,236.6 							"/>
						</g>
						<g>
							<polygon class="st13" points="72.1,241.8 63.3,231.7 64.5,231.3 73.2,241.4 							"/>
						</g>
						<g>
							<polygon class="st13" points="68.3,247.1 59.6,237.1 60.7,236.7 69.5,246.8 							"/>
						</g>
						<g>
							<polygon class="st13" points="64.4,252.4 55.7,242.4 56.9,242 65.6,252.1 							"/>
						</g>
					</g>
					<g>
						<g>
							<polygon class="st13" points="63.1,231.5 62.9,230.6 79.3,230.1 79.5,231 							"/>
						</g>
						<g>
							<polygon class="st13" points="60.4,237.1 60.2,236.2 76.6,235.7 76.8,236.6 							"/>
						</g>
						<g>
							<polygon class="st13" points="56.5,242.4 56.2,241.5 72.6,241 72.8,241.9 							"/>
						</g>
						<g>
							<polygon class="st13" points="52.6,247.7 52.4,246.8 68.8,246.3 69,247.2 							"/>
						</g>
					</g>
					<g>
						<path class="st13" d="M65.5,231.5c-0.1,0.6-0.9,1-1.8,0.9c-0.9-0.1-1.6-0.7-1.5-1.3c0.1-0.6,0.9-1,1.8-0.9
							C64.9,230.3,65.6,230.9,65.5,231.5z"/>
					</g>
					<g>
						<path class="st13" d="M70.5,226.7c-0.1,0.6-0.9,1-1.8,0.9c-0.9-0.1-1.6-0.7-1.5-1.3c0.1-0.6,0.9-1,1.8-0.9
							C69.9,225.5,70.6,226.1,70.5,226.7z"/>
					</g>
					<g>
						<path class="st13" d="M82.1,230.9c-0.1,0.6-0.9,1-1.8,0.9c-0.9-0.1-1.6-0.7-1.5-1.3c0.1-0.6,0.9-1,1.8-0.9
							C81.5,229.7,82.2,230.3,82.1,230.9z"/>
					</g>
					<g>
						<path class="st13" d="M78.6,236.4c-0.1,0.6-0.9,1-1.8,0.9c-0.9-0.1-1.6-0.7-1.5-1.3c0.1-0.6,0.9-1,1.8-0.9
							C78,235.2,78.7,235.8,78.6,236.4z"/>
					</g>
					<g>
						<path class="st13" d="M74.7,241.9c-0.1,0.6-0.9,1-1.8,0.9c-0.9-0.1-1.6-0.7-1.5-1.3c0.1-0.6,0.9-1,1.8-0.9
							C74.1,240.7,74.8,241.3,74.7,241.9z"/>
					</g>
					<g>
						<path class="st13" d="M61.5,237.1c-0.1,0.6-0.9,1-1.8,0.9c-0.9-0.1-1.6-0.7-1.5-1.3c0.1-0.6,0.9-1,1.8-0.9
							C60.9,235.9,61.6,236.5,61.5,237.1z"/>
					</g>
					<g>
						<path class="st13" d="M57.4,242.1c-0.1,0.6-0.9,1-1.8,0.9c-0.9-0.1-1.6-0.7-1.5-1.3c0.1-0.6,0.9-1,1.8-0.9
							C56.8,240.9,57.5,241.5,57.4,242.1z"/>
					</g>
					<g>
						<path class="st13" d="M54,247c-0.1,0.6-0.9,1-1.8,0.9c-0.9-0.1-1.6-0.7-1.5-1.3c0.1-0.6,0.9-1,1.8-0.9
							C53.4,245.8,54.1,246.4,54,247z"/>
					</g>
					<g>
						<path class="st13" d="M67,252.6c-0.1,0.6-0.9,1-1.8,0.9c-0.9-0.1-1.6-0.7-1.5-1.3c0.1-0.6,0.9-1,1.8-0.9
							C66.4,251.4,67.1,252,67,252.6z"/>
					</g>
					<g>
						<path class="st13" d="M70.8,247.3c-0.1,0.6-0.9,1-1.8,0.9c-0.9-0.1-1.6-0.7-1.5-1.3c0.1-0.6,0.9-1,1.8-0.9
							C70.2,246.1,70.9,246.7,70.8,247.3z"/>
					</g>
				</g>
				<path class="st29" d="M101.2,146.5c-13.4,15.9-18.6,22.2-28.8,48.6c-1.8,4.8-6.5,16.3-4.6,18.5c1.9,2.2-4.9,4.6-3.8,7.9
					c1.1,3.3,10.8,13,20,10.9c9.2-2.1,7.5-7.7,7.1-9.7c-0.5-2,3.5-6.3,4.2-8.8c1.5-5.2,21.9-36.6,25-43.2
					C135.8,138.6,116.6,128.2,101.2,146.5z"/>
			</g>
		</g>
		<g>
			<path class="st26" d="M129.4,152.7c0.9-2.7,1.3-6.3,2.8-8.7l2.9-1.9c2.1-3-1.5-3.7,1.9-3.9c8.6-0.7,12.9,4,17.6,11.2
				c2.1,3.3,26.9,41.7,30,44.2c0.5,6.4-2.9,10.8-4.1,12.4c-1.2,1.6-3.4,1.3-4.6,3c-7.5,11-36.6,20.6-51.2,13
				c-0.5-0.3-2.8-24.4-3.2-24.7l19.2-1.1c-0.8-0.4-11.9-22.8-11.9-35C128.7,158.3,128.5,155.4,129.4,152.7z"/>
			<g>
				<g>
					<g>
						<g>
							<path class="st27" d="M185.5,223.9c0,0,14.6,15.6,25.3,27.8l-1.3,0.2l0.9,6.7c-6.5,3.8-24.1,3.7-26.3,0.3
								c-9.3-14.6-20.9-29.1-20.9-29.1L185.5,223.9z"/>
						</g>
						<g>
							<path class="st28" d="M170.5,227.8l20.9,29.2l9.8-4.4l-23.3-26.8l7.7-2c0,0,14.6,15.6,25.3,27.8l-1.3,0.2l0.9,6.7
								c-6.5,3.8-24.1,3.7-26.3,0.3c-9.3-14.6-20.9-29.1-20.9-29.1L170.5,227.8z"/>
						</g>
						<g>
							<path class="st1" d="M207.4,247.8c1.6,1.6,3.1,3,4.2,4.7c9.1,13.8-19.1,22-27.4,6.3C188.9,253.1,197.9,249.4,207.4,247.8z"/>
						</g>
					</g>
					<g>
						<g>
							<polygon class="st13" points="174.9,238.3 183.7,228.2 182.5,227.8 173.7,237.9 							"/>
						</g>
						<g>
							<polygon class="st13" points="179.8,243.2 188.6,233 187.4,232.6 178.6,242.8 							"/>
						</g>
						<g>
							<polygon class="st13" points="183.6,248.6 192.4,238.4 191.2,238 182.4,248.2 							"/>
						</g>
						<g>
							<polygon class="st13" points="187.5,253.9 196.3,243.8 195.1,243.4 186.3,253.5 							"/>
						</g>
					</g>
					<g>
						<g>
							<polygon class="st13" points="188.8,232.8 189,231.8 172.5,231.4 172.3,232.3 							"/>
						</g>
						<g>
							<polygon class="st13" points="191.6,238.4 191.8,237.5 175.2,237 175,238 							"/>
						</g>
						<g>
							<polygon class="st13" points="195.6,243.8 195.8,242.8 179.2,242.4 179,243.3 							"/>
						</g>
						<g>
							<polygon class="st13" points="199.4,249.1 199.7,248.2 183.1,247.7 182.9,248.6 							"/>
						</g>
					</g>
					<g>
						<path class="st13" d="M186.4,232.8c0.1,0.6,0.9,1,1.8,0.9c0.9-0.1,1.6-0.7,1.5-1.3c-0.1-0.6-0.9-1-1.8-0.9
							C187,231.6,186.3,232.2,186.4,232.8z"/>
					</g>
					<g>
						<path class="st13" d="M181.4,227.9c0.1,0.6,0.9,1,1.8,0.9c0.9-0.1,1.6-0.7,1.5-1.3c-0.1-0.6-0.9-1-1.8-0.9
							C182,226.7,181.3,227.3,181.4,227.9z"/>
					</g>
					<g>
						<path class="st13" d="M169.7,232.2c0.1,0.6,0.9,1,1.8,0.9c0.9-0.1,1.6-0.7,1.5-1.3c-0.1-0.6-0.9-1-1.8-0.9
							C170.3,231,169.6,231.6,169.7,232.2z"/>
					</g>
					<g>
						<path class="st13" d="M173.2,237.8c0.1,0.6,0.9,1,1.8,0.9c0.9-0.1,1.6-0.7,1.5-1.3c-0.1-0.6-0.9-1-1.8-0.9
							C173.8,236.6,173.1,237.2,173.2,237.8z"/>
					</g>
					<g>
						<path class="st13" d="M177.1,243.3c0.1,0.6,0.9,1,1.8,0.9c0.9-0.1,1.6-0.7,1.5-1.3c-0.1-0.6-0.9-1-1.8-0.9
							C177.7,242.1,177,242.7,177.1,243.3z"/>
					</g>
					<g>
						<path class="st13" d="M190.5,238.4c0.1,0.6,0.9,1,1.8,0.9c0.9-0.1,1.6-0.7,1.5-1.3c-0.1-0.6-0.9-1-1.8-0.9
							C191.1,237.2,190.4,237.8,190.5,238.4z"/>
					</g>
					<g>
						<path class="st13" d="M194.6,243.4c0.1,0.6,0.9,1,1.8,0.9c0.9-0.1,1.6-0.7,1.5-1.3c-0.1-0.6-0.9-1-1.8-0.9
							C195.2,242.2,194.5,242.8,194.6,243.4z"/>
					</g>
					<g>
						<path class="st13" d="M198,248.4c0.1,0.6,0.9,1,1.8,0.9c0.9-0.1,1.6-0.7,1.5-1.3c-0.1-0.6-0.9-1-1.8-0.9
							C198.6,247.2,198,247.8,198,248.4z"/>
					</g>
					<g>
						<path class="st13" d="M184.9,254c0.1,0.6,0.9,1,1.8,0.9c0.9-0.1,1.6-0.7,1.5-1.3c-0.1-0.6-0.9-1-1.8-0.9
							C185.5,252.8,184.9,253.4,184.9,254z"/>
					</g>
					<g>
						<path class="st13" d="M181,248.7c0.1,0.6,0.9,1,1.8,0.9c0.9-0.1,1.6-0.7,1.5-1.3c-0.1-0.6-0.9-1-1.8-0.9
							C181.6,247.5,181,248.1,181,248.7z"/>
					</g>
				</g>
				<path class="st29" d="M152.3,147.8c20.3,26.9,24.8,47.3,27.8,51.5c2.9,4.2,5.9,13.3,4,15.5c-1.9,2.2,5,4.7,3.8,8
					c-1.1,3.3-10.9,13.1-20.2,11c-9.3-2.1-7.6-7.7-7.1-9.8c0.5-2-3.5-6.3-4.2-8.8c-1.5-5.3-22.1-37-25.3-43.6
					C115.5,139.1,137.8,128.6,152.3,147.8z"/>
			</g>
		</g>
	</g>
</g>
</svg>
