<?xml version="1.0" encoding="utf-8"?>
<!-- Generator: Adobe Illustrator 22.1.0, SVG Export Plug-In . SVG Version: 6.00 Build 0)  -->
<svg version="1.1" id="OBJECTS" xmlns="http://www.w3.org/2000/svg" xmlns:xlink="http://www.w3.org/1999/xlink" x="0px" y="0px"
	 viewBox="0 0 560.4 432.5" style="enable-background:new 0 0 560.4 432.5;" xml:space="preserve">
<style type="text/css">
	.st0{fill:#434242;}
	.st1{fill:#47A4FF;}
	.st2{fill:#F68F04;}
	.st3{fill:#73BAFF;}
	.st4{fill:#F1A30D;}
	.st5{fill:#FAB802;}
	.st6{fill:#FAD000;}
	.st7{fill:#FCEF67;}
	.st8{fill:none;stroke:#F5B903;stroke-miterlimit:10;}
	.st9{opacity:0.3;fill:#939389;}
	.st10{fill:none;stroke:#EDEEF2;stroke-width:3;stroke-miterlimit:10;}
	.st11{fill:#545351;}
	.st12{fill:#3B3A39;}
	.st13{opacity:0.3;fill:#FFEEF1;}
	.st14{fill:#E9E8E4;}
	.st15{fill:#FFFFFF;}
	.st16{fill:#6EBC1A;}
	.st17{fill:#2889CD;}
	.st18{fill:#EDEEF2;}
	.st19{fill:#D3D3D3;}
	.st20{fill:#ECDCA8;}
	.st21{fill:#1D8246;}
	.st22{fill:#559C1C;}
	.st23{fill:#E53328;}
	.st24{fill:#333231;}
	.st25{fill:none;stroke:#FAD000;stroke-width:2;stroke-miterlimit:10;}
	.st26{opacity:0.1;fill:#939389;}
</style>
<g>
	
		<rect x="477.2" y="351.3" transform="matrix(0.57 -0.8216 0.8216 0.57 -92.9767 552.5012)" class="st0" width="8.4" height="27.6"/>
	
		<ellipse transform="matrix(0.1301 -0.9915 0.9915 0.1301 51.3717 747.5059)" class="st0" cx="451.7" cy="344.5" rx="32.6" ry="32.6"/>
	
		<ellipse transform="matrix(0.9438 -0.3305 0.3305 0.9438 -88.4604 168.6265)" class="st1" cx="451.7" cy="344.5" rx="28.4" ry="28.4"/>
	<path class="st2" d="M527.3,397.2c-2.8,3.9-8.2,4.8-12.1,2.1L486.5,379c-3.9-2.8-4.8-8.2-2.1-12.1l0,0c2.8-3.9,8.2-4.8,12.1-2.1
		l28.7,20.3C529.1,387.9,530.1,393.3,527.3,397.2L527.3,397.2z"/>
	<path class="st3" d="M428.5,328.1c-0.1,0.1-0.2,0.3-0.3,0.4l41.7,28.9l5,3.4c0.8-1.2,1.6-2.4,2.2-3.7c6.1-12.3,2.5-27.5-8.9-35.7
		C455.4,312.4,437.6,315.3,428.5,328.1z"/>
	<path class="st4" d="M487.4,364.4c-1.2,0.6-2.3,1.5-3.1,2.7c-0.1,0.1-0.1,0.2-0.2,0.3l8.4,5.8l34.7,24.1c2.6-3.9,1.7-9.2-2.2-11.9
		L496.4,365C493.7,363.1,490.2,362.9,487.4,364.4z"/>
</g>
<g>
	<g>
		
			<rect x="63.4" y="274.7" transform="matrix(8.311525e-03 -1 1 8.311525e-03 -203.0524 360.2196)" class="st5" width="33.4" height="15.6"/>
		<path class="st6" d="M112.8,303.7c0.1-8.6-6.9-15.7-15.5-15.7l-34.6-0.3c-8.6-0.1-15.7,6.9-15.7,15.5
			C73.8,303.3,80.2,303.4,112.8,303.7z"/>
		<path class="st5" d="M2.4,196.4l50.1,0.4l-0.1,7.4c0,0-30.1-0.1-40.3-0.3c-0.1,9.7,13.5,35.4,41.9,36.8c0,0,0,1.9-0.1,8
			C44.7,248.7,2.7,239.7,2.4,196.4z"/>
		<path class="st5" d="M160.3,197.7l-50.1-0.4l-0.1,7.4c0,0,30.1,0.4,40.3,0.3c-0.1,9.7-14.1,35.2-42.5,36.1c0,0,0,1.9-0.1,8
			C117.2,249.3,159.4,241,160.3,197.7z"/>
		<path class="st5" d="M80.9,186.5l-48.7-0.4c-0.4,53.4,16.5,81.9,48,82.2c32.9,0.3,49-28,49.4-81.4L80.9,186.5z"/>
		<path class="st6" d="M32.1,196.6c-0.4,53.4,24.3,71.5,48.1,71.7c23.8,0.2,48.9-17.5,49.3-70.9L32.1,196.6z"/>
		<path class="st7" d="M65.5,224.2c0,0-1.2-14.3,14.8-14.2c14.1,0.1,15.5,10.2,15.5,12.3c-0.1,13.1-10.5,8.1-10.6,18.4l-8.8-0.1
			c0.1-12.2,9.8-11.2,9.9-17.7c0-2.5-1.4-5.9-5.6-6c-4.8,0-6.8,3.8-6.8,7.3C69.1,224.2,65.5,224.2,65.5,224.2z"/>
		
			<rect x="75.6" y="244.7" transform="matrix(8.311590e-03 -1 1 8.311590e-03 -169.665 327.6544)" class="st7" width="9.6" height="9.4"/>
		<path class="st8" d="M80.8,199.2"/>
	</g>
	<path class="st9" d="M80.9,186.5l-48.7-0.4c0,3.6,0,7.1,0.2,10.5l-0.2,0c0,0,0,0,0,0l-29.6-0.2c0.2,33.3,25.1,46.3,40.8,50.6
		c4.5,7.2,10,12.4,16,15.8c0.1,0.1,0.2,0.1,0.3,0.2c0.4,0.2,0.8,0.4,1.2,0.6c3.6,1.9,7.5,3.2,11.7,4l-0.2,20.1l-9.5-0.1
		c-8.6-0.1-15.7,6.9-15.7,15.5c14.8,0.1,23.3,0.2,33.5,0.3l1-116.9L80.9,186.5z M12.2,203.9c4.4,0.1,12.3,0.2,20,0.2
		c0.5,13.3,2.7,24.2,6.1,32.9C20.7,229.4,12.1,211.6,12.2,203.9z"/>
</g>
<g>
	<path class="st6" d="M530.5,245.5c15,0,30,11,30,27.3s-13.6,18.5-13.6,28.3c0,9.8,0,21.1,0,21.1l-16.4,0l-16.4,0c0,0,0-11.3,0-21.1
		c0-9.8-13.6-12-13.6-28.2S515.5,245.6,530.5,245.5z"/>
	<path class="st10" d="M515,271c1.9,0,3,1.7,4.8,1.7c1.8,0,2.7-8.4,10.8-8.4c8.1,0,8.7,8.4,10.8,8.4c2.1,0,3.2-1.7,4.7-1.7
		c1.5,0,3.2,0.7,3.2,3.1c0,2.3-18.7,21-18.6,42.5c0-21.5-18.8-41.2-18.8-42.4C511.8,272.8,513.1,271,515,271z"/>
	
		<ellipse transform="matrix(1 -1.444067e-03 1.444067e-03 1 -0.4714 0.7665)" class="st11" cx="530.6" cy="326.8" rx="11.2" ry="10.1"/>
	
		<rect x="513.5" y="311.5" transform="matrix(1 -1.464243e-03 1.464243e-03 1 -0.4677 0.7772)" class="st12" width="34.2" height="16.6"/>
	<path class="st13" d="M560.4,272.9c0,16.3-13.6,18.5-13.6,28.3c0,3.5,0,7.1,0,10.3l0.7,0l0,16.6l-6,0c-0.7,4.9-5.3,8.7-10.9,8.8
		l-0.1-91.3C545.6,245.7,560.4,256.7,560.4,272.9z"/>
</g>
<path class="st14" d="M462,47h-81.6c-11.2,0-20.2,9-20.2,20.2v59.3c0,11.2,9,20.2,20.2,20.2h20.5c0.1,11.8-4.8,22.8-5.9,26.1
	c17.2-7.8,25.8-18.1,30.1-26.1H462c11.2,0,20.2-9,20.2-20.2V67.2C482.2,56.1,473.2,47,462,47z"/>
<path class="st15" d="M552,131.7c-0.1-25.8-24.9-46.6-55.4-46.5c-30.5,0.1-55.1,21.1-55,46.9c0.1,25.8,24.9,46.6,55.4,46.5
	c0.8,0,1.6,0,2.4-0.1c5.3,7.4,14.5,16,30.6,22.2c-1.4-3.4-7.4-15-7.6-27.5C540.1,165.4,552.1,149.7,552,131.7z"/>
<path class="st15" d="M383.3,226.2c0.1-24.6,23.7-44.4,52.8-44.3c29.1,0.1,52.6,20.1,52.5,44.7c-0.1,24.6-23.7,44.4-52.8,44.3
	c-0.8,0-1.5,0-2.3-0.1c-5,7.1-13.8,15.3-29.2,21.2c1.3-3.2,7-14.3,7.3-26.2C394.7,258.4,383.2,243.4,383.3,226.2z"/>
<polygon class="st16" points="468.1,128.6 491,144.9 531.4,108.6 491.3,159.7 "/>
<g>
	<g>
		<path class="st6" d="M399.6,89.7c0,0-1.6-18.2,18.8-18c18,0.1,19.7,13,19.7,15.6c-0.1,16.6-13.4,10.3-13.5,23.5l-11.2-0.1
			c0.1-15.6,12.5-14.3,12.6-22.6c0-3.2-1.8-7.5-7.1-7.6c-6.1-0.1-8.7,4.8-8.7,9.3C404.2,89.7,399.6,89.7,399.6,89.7z"/>
		
			<rect x="412.7" y="114.6" transform="matrix(8.316471e-03 -1 1 8.316471e-03 294.7925 538.3438)" class="st6" width="12.2" height="11.9"/>
	</g>
</g>
<g>
	<path class="st15" d="M368.5,420.5c0,3.9-3.1,7-7,7H188.3c-3.9,0-7-3.1-7-7V167.1c0-3.9,3.1-7,7-7h173.2c3.9,0,7,3.1,7,7V420.5z"/>
	<path class="st12" d="M361.5,431.5H188.3c-6.1,0-11-4.9-11-11V167.1c0-6.1,4.9-11,11-11h173.2c6.1,0,11,4.9,11,11v253.4
		C372.5,426.6,367.6,431.5,361.5,431.5z M188.3,164.2c-1.6,0-3,1.3-3,3v253.4c0,1.6,1.3,3,3,3h173.2c1.6,0,3-1.3,3-3V167.1
		c0-1.6-1.3-3-3-3H188.3z"/>
	<rect x="210.6" y="146.9" class="st6" width="128.7" height="43.5"/>
	<rect x="210.6" y="169.9" class="st5" width="128.7" height="20.4"/>
	<path class="st6" d="M291.9,146.9c0,8.9-7.2,16.1-16.1,16.1c-8.9,0-16.1-7.2-16.1-16.1c0-8.9,7.2-16.1,16.1-16.1
		C284.7,130.8,291.9,138,291.9,146.9z"/>
	<path class="st17" d="M282.9,146.9c0,3.9-3.2,7.1-7.1,7.1c-3.9,0-7.1-3.2-7.1-7.1c0-3.9,3.2-7.1,7.1-7.1
		C279.7,139.8,282.9,142.9,282.9,146.9z"/>
	<rect x="196.2" y="216.4" class="st18" width="147.3" height="3.6"/>
	<rect x="196.2" y="222.9" class="st18" width="96.8" height="3.6"/>
	<rect x="196.2" y="229.5" class="st18" width="73.6" height="3.6"/>
	<rect x="227.5" y="260.6" class="st18" width="117" height="5.6"/>
	<rect x="227.5" y="288.6" class="st18" width="117" height="5.6"/>
	<rect x="227.5" y="317.1" class="st18" width="117" height="5.6"/>
	<rect x="227.5" y="343.7" class="st18" width="117" height="5.6"/>
	<rect x="226.5" y="368.9" class="st18" width="117" height="5.6"/>
	<g>
		<g>
			<path class="st18" d="M215.1,254.1V270h-15.9v-15.9H215.1 M218.1,251.1h-21.9V273h21.9V251.1L218.1,251.1z"/>
		</g>
	</g>
	<g>
		<g>
			<path class="st18" d="M215.1,282.5v15.9h-15.9v-15.9H215.1 M218.1,279.5h-21.9v21.9h21.9V279.5L218.1,279.5z"/>
		</g>
	</g>
	<g>
		<g>
			<path class="st18" d="M215.1,310.8v15.9h-15.9v-15.9H215.1 M218.1,307.8h-21.9v21.9h21.9V307.8L218.1,307.8z"/>
		</g>
	</g>
	<g>
		<g>
			<path class="st18" d="M215.1,339.5v15.9h-15.9v-15.9H215.1 M218.1,336.5h-21.9v21.9h21.9V336.5L218.1,336.5z"/>
		</g>
	</g>
	<g>
		<g>
			<path class="st18" d="M215.1,367.7v15.9h-15.9v-15.9H215.1 M218.1,364.7h-21.9v21.9h21.9V364.7L218.1,364.7z"/>
		</g>
	</g>
	<polygon class="st16" points="198.1,256 206.6,262.1 221.6,248.6 206.7,267.6 	"/>
	<g>
		<path class="st2" d="M324.5,383.7c3,3,3,8,0,11l0,0c-3,3-8,3-11,0l-10.8-10.8c-3-3-3-8,0-11l0,0c3-3,8-3,11,0L324.5,383.7z"/>
		
			<rect x="306.6" y="380.8" transform="matrix(0.708 -0.7062 0.7062 0.708 -179.7553 334.3176)" class="st19" width="15.7" height="7.5"/>
		<polygon class="st20" points="225.4,306.6 236.5,295.5 215.2,285.1 		"/>
		<polygon class="st21" points="214.8,284.9 218,291.6 221.5,288.1 		"/>
		
			<rect x="263.5" y="284.3" transform="matrix(0.7071 -0.7071 0.7071 0.7071 -161.9778 291.8871)" class="st22" width="15.7" height="114.4"/>
		
			<rect x="267.9" y="284.3" transform="matrix(0.7071 -0.7071 0.7071 0.7071 -161.9774 291.8826)" class="st16" width="6.9" height="114.4"/>
	</g>
	<polygon class="st16" points="198.1,284.8 206.6,290.8 221.6,277.3 206.7,296.3 	"/>
</g>
<g>
	<path class="st15" d="M61.9,347.3c0,16.6-13.4,30.1-30.1,30.2c-16.6,0-30.1-13.4-30.2-30.1c0-16.6,13.4-30.1,30.1-30.2
		C48.3,317.2,61.8,330.6,61.9,347.3z"/>
	<path class="st23" d="M31.7,379.1C14.3,379.1,0,364.8,0,347.4c0-17.5,14.2-31.8,31.7-31.8c17.5,0,31.8,14.2,31.8,31.7
		C63.5,364.8,49.3,379,31.7,379.1L31.7,379.1z M31.7,318.8c-15.8,0-28.5,12.8-28.5,28.6c0,15.7,12.8,28.4,28.5,28.4v1.6l0.1-1.6
		c15.7,0,28.5-12.8,28.4-28.6C60.2,331.6,47.4,318.8,31.7,318.8z"/>
	<path class="st23" d="M35.5,308.8c0,0.5-0.4,1-1,1l-5.9,0c-0.5,0-1-0.4-1-1l0-3c0-0.5,0.4-1,1-1l5.9,0c0.5,0,1,0.4,1,1L35.5,308.8z
		"/>
	
		<rect x="30.5" y="309.5" transform="matrix(1 -1.642795e-03 1.642795e-03 1 -0.5135 5.241222e-02)" class="st23" width="2.4" height="6.3"/>
	<path class="st23" d="M31.5,315.1c-4.7,0-8.6-3.8-8.6-8.5c0-4.7,3.8-8.6,8.5-8.6c4.7,0,8.6,3.8,8.6,8.5
		C40.1,311.3,36.3,315.1,31.5,315.1L31.5,315.1z M31.5,299.6c-3.8,0-7,3.1-6.9,7c0,3.8,3.1,6.9,6.9,6.9v0.8l0-0.8
		c3.8,0,6.9-3.1,6.9-7C38.5,302.7,35.4,299.6,31.5,299.6z"/>
	<path class="st23" d="M36.4,347.4c0,2.6-2.1,4.8-4.8,4.8c-2.6,0-4.8-2.1-4.8-4.8c0-2.6,2.1-4.8,4.8-4.8
		C34.3,342.6,36.4,344.7,36.4,347.4z"/>
	<polygon class="st23" points="46.7,333.3 35.5,346.3 33.4,344.2 	"/>
	<path class="st23" d="M54,348c-0.4,0-0.8-0.4-0.8-0.8l0,0c0-0.4,0.4-0.8,0.8-0.8l3.5,0c0.4,0,0.8,0.4,0.8,0.8l0,0
		c0,0.4-0.4,0.8-0.8,0.8L54,348z"/>
	<path class="st23" d="M5.4,348c-0.4,0-0.8-0.4-0.8-0.8l0,0c0-0.4,0.4-0.8,0.8-0.8l3.5,0c0.4,0,0.8,0.4,0.8,0.8l0,0
		c0,0.4-0.4,0.8-0.8,0.8L5.4,348z"/>
	<path class="st23" d="M32.3,324.6c0,0.4-0.4,0.8-0.8,0.8l0,0c-0.4,0-0.8-0.4-0.8-0.8l0-3.5c0-0.4,0.4-0.8,0.8-0.8l0,0
		c0.4,0,0.8,0.4,0.8,0.8L32.3,324.6z"/>
	<path class="st23" d="M32.3,373.3c0,0.4-0.4,0.8-0.8,0.8l0,0c-0.4,0-0.8-0.4-0.8-0.8l0-3.5c0-0.4,0.4-0.8,0.8-0.8l0,0
		c0.4,0,0.8,0.4,0.8,0.8L32.3,373.3z"/>
</g>
<g>
	<path class="st15" d="M167.8,328.6l-45.1-22.9c-1.5,1.6-2.7,3.5-3.8,5.5l-2.2,4.3l-8.1,15.9c-6.5,12.9-1.4,28.6,11.5,35.1
		c12.9,6.5,28.6,1.4,35.1-11.5l8.1-15.9l2.2-4.3C166.6,332.8,167.3,330.7,167.8,328.6z"/>
	
		<rect x="103.8" y="361" transform="matrix(0.453 -0.8915 0.8915 0.453 -259.7088 307.4772)" class="st15" width="33.8" height="8.7"/>
	<path class="st15" d="M71.3,406.9l45.1,22.9c1.5-1.6,2.7-3.5,3.8-5.5l2.2-4.3l8.1-15.9c6.5-12.9,1.4-28.6-11.5-35.1
		c-12.9-6.5-28.6-1.4-35.1,11.5l-8.1,15.9l-2.2,4.3C72.5,402.6,71.8,404.7,71.3,406.9z"/>
	<path class="st16" d="M119.2,377.9l6.9-13.6l-7.6-3.9l-6.9,13.6c-8.2-2-17,1.8-21,9.7L84.8,395l-1.6,3.1c-0.7,1.5-1.3,3-1.6,4.5
		l32.1,16.3c1-1.2,1.9-2.5,2.7-3.9l1.6-3.1l5.8-11.4C127.7,392.7,125.6,383.3,119.2,377.9z"/>
	<path class="st9" d="M115.4,313.7l1.6,0.8l-0.5,0.9l-8.1,15.9c-5.9,11.7-2.2,25.7,8.1,33.1l-1.4,2.7c-12.1-4-25.6,1.3-31.5,13
		l-8.1,15.9L75,397l-1.6-0.8c-2.8-1.4-6.3-0.3-7.7,2.5c-1.4,2.8-0.3,6.3,2.5,7.7L92.9,419l52.3-103l-24.7-12.5
		c-2.8-1.4-6.3-0.3-7.7,2.5C111.4,308.8,112.6,312.3,115.4,313.7z"/>
	<path class="st0" d="M173.1,336.6c-1.4,2.8-4.9,4-7.7,2.5l-49.7-25.3c-2.8-1.4-4-4.9-2.5-7.7l0,0c1.4-2.8,4.9-4,7.7-2.5l49.7,25.3
		C173.4,330.3,174.5,333.8,173.1,336.6L173.1,336.6z"/>
	<path class="st0" d="M66,398.8c1.4-2.8,4.9-4,7.7-2.5l49.7,25.3c2.8,1.4,4,4.9,2.5,7.7l0,0c-1.4,2.8-4.9,4-7.7,2.5l-49.7-25.3
		C65.7,405.1,64.6,401.7,66,398.8L66,398.8z"/>
	<path class="st16" d="M113.9,337.6c-3.9,7.8-1.8,17.1,4.6,22.6l-6.9,13.6l7.6,3.9l6.9-13.6c8.2,2,16.9-1.8,21-9.6L113.9,337.6z"/>
</g>
<g>
	<g>
		<rect x="431.4" y="251.5" class="st23" width="9.7" height="8.2"/>
		<polygon class="st23" points="426.6,198 445.3,198.1 441,245.8 431.5,245.8 		"/>
	</g>
</g>
<g>
	<g>
		<path class="st12" d="M240.2,39.5l-0.2,38.2c0,0,2.1,12.4,46.4,12.4c44.3,0,46.3-12.5,46.3-12.5V37.4h-93"/>
		<polygon class="st24" points="358.9,29.3 286.5,0 285,0 212.5,29.3 284.6,58.7 286.8,58.7 		"/>
		<ellipse class="st12" cx="286.2" cy="27.9" rx="7.6" ry="3.3"/>
		<polyline class="st25" points="287,26.8 319.2,43 319,114.3 		"/>
		<path class="st6" d="M323.6,116.1c0,2.5-2.1,4.5-4.8,4.5c-2.6,0-4.8-2-4.8-4.5c0-2.5,2.1-4.5,4.8-4.5
			C321.4,111.6,323.6,113.6,323.6,116.1z"/>
		<g>
			<path class="st6" d="M322.7,125.1c-2.2-6.1-5.7-6.1-7.9,0c-2.2,6.1-0.4,11,3.9,11S324.9,131.1,322.7,125.1z"/>
		</g>
		<ellipse class="st24" cx="286.2" cy="27.9" rx="5.8" ry="2.5"/>
	</g>
	<path class="st26" d="M284.9,0l-72.4,29.3l27.7,11.2L240,77.7c0,0,2.1,12.3,45.7,12.4V0H284.9z"/>
</g>
</svg>
