<?xml version="1.0" encoding="utf-8"?>
<!-- Generator: Adobe Illustrator 22.1.0, SVG Export Plug-In . SVG Version: 6.00 Build 0)  -->
<svg version="1.1" xmlns="http://www.w3.org/2000/svg" xmlns:xlink="http://www.w3.org/1999/xlink" x="0px" y="0px"
	 viewBox="0 0 489.1 323.1" style="enable-background:new 0 0 489.1 323.1;" xml:space="preserve">
<style type="text/css">
	.st0{fill:#BFB291;}
	.st1{fill:#EED7BA;}
	.st2{fill:#F9F8F7;}
	.st3{fill:#FA6564;}
	.st4{fill:#845E40;}
	.st5{fill:#BC8867;}
	.st6{fill:#3A4D57;}
	.st7{fill:#ED5D5D;}
	.st8{fill:#E9E5D9;}
	.st9{fill:#FA8B65;}
	.st10{fill:#E8C8A1;}
	.st11{fill:#EDC7B2;}
	.st12{fill:#D6B690;}
	.st13{fill:#966B4E;}
	.st14{fill:#5E432A;}
	.st15{fill:#775238;}
	.st16{fill:#93684C;}
	.st17{fill:#BFC1BF;}
	.st18{fill:#2A3A42;}
	.st19{fill:#304149;}
	.st20{fill:#485D66;}
</style>
<g id="BACKGROUND">
	<ellipse class="st0" cx="239.6" cy="311.4" rx="219.3" ry="11.8"/>
</g>
<g id="OBJECTS">
	<g>
		<g>
			<g>
				<path class="st1" d="M328.5,129.8c16.7-3.7,53.5-9.4,53.5-9.4s1,2.7,3.9,5.6c2.8,3,7.7,7.4,9.4,5.1c1.7-2.3-3.7-5.6-1.8-6.7
					c1.9-1,13.7,5.8,16.3,3.6c2.6-2.1-6.7-11.3-8.6-12.5c-1.9-1.3-10.4-3.6-21.7-4.4c-10.8-0.7-71.2-0.5-75.4-0.5
					c1.3,4.5,3.5,13.5,3.6,20.8C308.9,131.1,325.6,130.5,328.5,129.8z"/>
				<path class="st2" d="M311.7,110.9c0.1,5.1-1,18.3-1.7,25.8c-0.3,3-0.5,5.1-0.6,5.3c-0.1,0.6-6,1.3-11.3,1.9
					c-3.8,0.4-7.3,0.7-8.1,0.8c-0.3-15.6-0.7-32.8-1-38.6c1.7,0.2,21.3,2,22.4,2.7C311.6,108.9,311.7,109.7,311.7,110.9z"/>
				<path class="st3" d="M299.1,164.5c2.4,0.4,5.7,2.9,5.5,14.3c-0.3,12-2.4,16.8-5.6,17.4l-0.1,0
					C299.8,189.2,299.6,175.9,299.1,164.5z"/>
				<path class="st4" d="M283.2,294c0.6,0.4,19.3,12.5,18.7,13c-0.6,0.5-5,2.7-11.3,2c-6.4-0.7-18.6-2.2-18.8-2.9
					c-0.2-0.7-0.6-11.2-0.6-11.2v0C275.4,294.7,280.4,294.2,283.2,294z"/>
				<path class="st1" d="M258.6,80.6c0.8-2.3,1.1-4.4,1.1-4.4c-16.4,3-34.3,2.8-34.3,2.8s0.8,1.8,2,3.9c1.3,2.2,3,4.6,4.6,5.3
					c3.1,1.4,18.1,1.1,22.3-1.4C256.4,85.6,257.8,82.9,258.6,80.6z M248.1,96.4c-8.4-0.4-16.6-2.8-23-7.2
					c-11.3-7.7-14.4-22.2-15.3-31.8c-0.5-5.5-0.2-9.4-0.2-9.4l4.1-8.2c0,0,42.9-3.6,48.2-2.7c5.2,0.9,10,9.5,10.9,11.8
					c0.9,2.3,0,8.6,0,11.1c0,2.5,2.5,8.4,2.5,8.4s2.3-9.8,4.1-11.6c1.8-1.8,15.4-1.6,11.8,11.1c-1.5,5.3-4.1,7.6-6.6,8.5
					c-0.8,1.8-1.7,3.5-2.8,5.1c-4.6,6.7-11.5,10.9-19.2,13.1C258,96.1,253,96.6,248.1,96.4z M248.9,54.1l12.6,0.4
					C254.7,47.5,248.9,54.1,248.9,54.1z M256.3,70.2c2-0.2,3.3-2.8,3-5.7c-0.3-2.9-2.2-5.1-4.2-4.8c-2,0.2-3.3,2.8-3,5.7
					C252.4,68.2,254.3,70.4,256.3,70.2z M225.5,71.8c1.8-0.2,3-2.5,2.7-5.2c-0.3-2.6-2-4.6-3.9-4.4c-1.8,0.2-3,2.5-2.7,5.2
					C222,70,223.7,72,225.5,71.8z M217.2,56.5l10.9-1.6C228.1,54.9,222.4,49.7,217.2,56.5z"/>
				<path class="st5" d="M298.3,59.5c-2.9,7.1-10.6,20.6-16.5,22.2c1.1-1.6,2-3.2,2.8-5.1c2.5-0.9,5.1-3.2,6.6-8.5
					c3.6-12.7-10-12.9-11.8-11.1c-1.8,1.8-4.1,11.6-4.1,11.6s-2.5-5.9-2.5-8.4c0-2.5,0.9-8.9,0-11.1c-0.9-2.3-5.7-10.9-10.9-11.8
					c-5.2-0.9-48.2,2.7-48.2,2.7l-4.1,8.2c0,0-0.3,3.9,0.2,9.4c-2.4-3.6-3.3-14.7-3.1-19.8c0.2-5.5,0.9-20.9,0.9-20.9
					c3.4,1.6,8.6,0.7,8.6,0.7c-2-6.8,3.4-17.5,3.4-17.5c8.4,3.2,26.6,5.7,26.6,5.7l-0.9-5c10.9,9.5,24.5,4.1,31.3,12.3
					c6.5,7.8,4.1,10.9,3.9,11.1c0.5-0.2,8.4-4,15.2,5C302.9,38.4,301.3,52.2,298.3,59.5z"/>
				<path class="st6" d="M289.9,209.7c0,0.8,0,1.6,0,2.3c0,14.3-4.5,81.8-4.5,81.8s-0.8,0.1-2.2,0.2c-2.8,0.3-7.8,0.8-12.1,0.9
					c-0.7,0-1.3,0-1.9,0L262,211l-8.4,0.9l0.9,83.6c0,0-0.4,0.1-1,0.1c-2,0.3-6.8,0.8-11.3,1c0,0,0,0,0,0c-1.4,0.1-2.8,0.1-4.1,0
					c0,0-7.1-59-10-81.7c-0.4-2.7-0.6-4.9-0.9-6.4c-0.3-2.1-0.6-4.2-0.8-6.3c17.5,2.4,59.7-2.7,63.3-3.2
					C289.8,202.7,289.9,206.4,289.9,209.7z"/>
				<path class="st7" d="M299.1,164.5c0.4,11.5,0.6,24.8-0.2,31.7c-0.1,1.1-0.3,2.1-0.5,2.9c-2.5,9.2-7.6,10.4-8.5,10.6
					c0-3.3-0.1-6.9-0.2-10.6c-0.4-12.7-1.1-25.9-1.1-25.9c0.7,0.5,1.2,0.7,1.4,0.5c0.5-0.6,0.4-14,0.2-28.9c0.8-0.1,4.3-0.4,8.1-0.8
					C298.3,146.1,298.8,154.6,299.1,164.5z"/>
				<path class="st3" d="M289.9,173.6c-0.2,0.2-0.7,0-1.4-0.5c-3.7-2.5-13.3-13-13.8-14.7c-0.5-1.8-1.1-45.5,0.1-53.8
					c0.1-0.9,0.2-1.3,0.4-1.4c1.7-0.3,12.5-0.3,13.7,0.6c0,0,0,0,0,0c0,0.1,0.1,0.1,0.1,0.1c0,0,0,0,0,0c0,0.1,0.1,0.8,0.1,2
					c0.2,5.8,0.7,23,1,38.6C290.3,159.6,290.4,173,289.9,173.6z"/>
				<path class="st7" d="M278.8,98.4c5.9,1,9.4,4.8,10,5.6c-1.2-0.9-11.9-0.9-13.7-0.6c-0.2,0-0.3,0.5-0.4,1.4h0l-6.9-1l0,0.1
					c-1.2-0.7-2.7-1.3-4.4-1.5l-0.5-4.5C270,97.7,276,97.9,278.8,98.4z"/>
				<path class="st2" d="M269.9,116.7c4.2-2.3,3.3-9.7-2.1-12.9l0-0.1l6.9,1h0c-1.1,8.3-0.6,52-0.1,53.8
					c0.5,1.6,10.1,12.2,13.8,14.7c0,0,0.7,13.2,1.1,25.9c-3.6,0.4-45.8,5.5-63.3,3.2c-1.3-11.1-1.7-21.5-1.8-23.3
					c3.8-2.2,10.1-14.2,10.1-15.7c0-1.5,0-46.3-1.7-56.3l0.1,0l10.1-1.9c-4.5,3.8-5.4,10.1-1.5,10.8c2.6,0.5,4.7-0.7,6.1-1.9
					c0.2,0.7,0.8,3,2.7,4.3c-0.3,4.1-4.2,53-3.3,56.1c0.9,3.2,6.7,7.6,8.5,7.1c1.8-0.5,6.1-5.1,7-7.7c0.9-2.5-5.6-52.6-5.9-55
					c2.8-1,5.2-3,5.7-3.4C264.1,116.8,266.8,118.4,269.9,116.7z"/>
				<path class="st8" d="M262.4,115.2c-0.8-0.8-1.4-1.6-1.6-1.9c3-1.6,3.4-4.5,3.4-4.5l-0.7-6.5c1.7,0.2,3.1,0.7,4.4,1.5
					c5.4,3.2,6.3,10.6,2.1,12.9C266.8,118.4,264.1,116.8,262.4,115.2z"/>
				<path class="st6" d="M256.8,118.6c0.3,2.4,6.8,52.5,5.9,55c-0.9,2.6-5.2,7.3-7,7.7c-1.8,0.5-7.6-3.9-8.5-7.1
					c-0.9-3,3-52,3.3-56.1c0.7,0.5,1.5,0.8,2.6,0.9C254.3,119.2,255.6,119,256.8,118.6z"/>
				<path class="st5" d="M261.5,54.5l-12.6-0.4C248.9,54.1,254.7,47.5,261.5,54.5z"/>
				<path class="st6" d="M256.8,118.6c-1.2,0.4-2.4,0.6-3.7,0.5c-1.1-0.1-1.9-0.5-2.6-0.9c-1.9-1.3-2.5-3.5-2.7-4.3
					c1.4-1.2,2.2-2.5,2.2-2.5l0,0c1,1.4,3.1,3.1,6.9,2.9c1.6-0.1,2.8-0.4,3.7-0.9c0.2,0.3,0.8,1.1,1.6,1.9
					C262,115.6,259.6,117.6,256.8,118.6z"/>
				<path class="st6" d="M259.3,64.5c0.4,2.9-1,5.5-3,5.7c-2,0.2-3.9-1.9-4.2-4.8c-0.3-2.9,1-5.5,3-5.7
					C257,59.4,258.9,61.6,259.3,64.5z"/>
				<path class="st2" d="M259.7,76.2c0,0-0.3,2-1.1,4.4c-6.9,2-28.4,2.3-31.2,2.4c-1.2-2-2-3.9-2-3.9S243.4,79.2,259.7,76.2z"/>
				<path class="st9" d="M258.6,80.6c-0.8,2.4-2.2,5.1-4.3,6.3c-4.2,2.5-19.2,2.7-22.3,1.4c-1.6-0.7-3.3-3.1-4.6-5.3
					C230.2,82.9,251.7,82.6,258.6,80.6z"/>
				<path class="st4" d="M253.5,295.7c0.1,1.2,0.7,10.5,0.6,11.1c-0.1,0.7-12.2,3.5-18.4,4.9c-6.2,1.4-10.8-0.3-11.5-0.8
					c-0.6-0.4,16.4-13,18-14.2c0,0,0,0,0,0C246.7,296.5,251.4,295.9,253.5,295.7z"/>
				<path class="st8" d="M243.2,105c1.4-1.2,3.2-2.1,5.4-2.5h0l0.6,7.1c0,0,0.2,0.8,0.9,1.8l0,0c0,0-0.8,1.3-2.2,2.5
					c-1.4,1.2-3.5,2.3-6.1,1.9C237.8,115.1,238.7,108.7,243.2,105z"/>
				<path class="st7" d="M248.3,98.2l0.3,4.3h0c-2.1,0.4-3.9,1.3-5.4,2.5l-10.1,1.9l-0.1,0c-0.2-1.2-0.4-1.9-0.7-2
					c-1.6-0.4-13.8,0.8-15.1,2.6c2.7-5,6.6-7.3,18.7-8.5C239.4,98.6,243.6,98.4,248.3,98.2L248.3,98.2z"/>
				<path class="st10" d="M260.8,113.4c-1,0.5-2.2,0.8-3.7,0.9c-3.9,0.2-5.9-1.5-6.9-2.9c-0.7-1-0.9-1.8-0.9-1.8l-0.6-7.1l-0.3-4.3
					l-0.1-1.7c4.9,0.2,9.9-0.3,14.5-1.6l0.3,3l0.5,4.5l0.7,6.5C264.2,108.8,263.8,111.8,260.8,113.4z"/>
				<path class="st6" d="M228.3,66.6c0.3,2.7-0.9,5-2.7,5.2c-1.8,0.2-3.5-1.7-3.9-4.4c-0.3-2.6,0.9-5,2.7-5.2
					C226.2,62,227.9,64,228.3,66.6z"/>
				<path class="st5" d="M228.1,54.9l-10.9,1.6C222.4,49.7,228.1,54.9,228.1,54.9z"/>
				<path class="st7" d="M223.4,179.2c0.4,0,0.8-0.1,1.2-0.3c0.1,1.8,0.5,12.2,1.8,23.3c0.2,2.1,0.5,4.2,0.8,6.3
					c0.2,1.5,0.5,3.7,0.9,6.4l-0.1,0c-4.4-1.7-6.7-5.3-8.1-12.4c-0.7-3.2-1.1-7.1-1.6-11.8c-0.7-8.1-1.2-15.3-1.6-20.3
					c-0.2-3.2-0.3-5.5-0.4-6.5c1.2-2.8,2.2-4.9,2.9-6.2c0.8,0.2,1.7,0.3,2.4,0.4C221.8,170.8,220.4,178.8,223.4,179.2z"/>
				<path class="st3" d="M224.6,178.9c-0.4,0.3-0.9,0.4-1.2,0.3c-3-0.4-1.6-8.4-1.8-21.1c0-2.1-0.1-4.4-0.2-6.8
					c-0.8-13.7-3.6-33.5-4.2-40.9c-0.1-1.5-0.2-2.6-0.1-2.9c0-0.1,0.1-0.1,0.1-0.2c1.3-1.7,13.4-3,15.1-2.6c0.3,0.1,0.5,0.8,0.7,2
					c1.7,10,1.7,54.8,1.7,56.3C234.8,164.7,228.5,176.7,224.6,178.9z"/>
				<path class="st2" d="M219.2,157.8c-7.2-1.4-15.6-5.2-19.8-7.3c-1.7-0.8-2.7-1.4-2.7-1.4c6.8-17.4,16.5-36.3,20.4-38.6l0.1,0
					c0.6,7.4,3.4,27.2,4.2,40.9c0.1,2.4,0.2,4.7,0.2,6.8C220.9,158.1,220.1,157.9,219.2,157.8z"/>
				<path class="st3" d="M216.7,170.4c0.3,5,0.8,12.2,1.6,20.3c0.4,4.7,0.9,8.6,1.6,11.8l-0.1,0c-3.5-0.5-6.7-2-7.3-10
					c-0.6-8-0.5-14.2,0.3-17c0.8-2.7,3.8-5.2,3.8-5.2H216.7z"/>
				<path class="st1" d="M216.3,164c-6.7,15.7-19.1,50.9-19.1,50.9s2.4,1.5,4.8,4.8c2.4,3.3,5.9,8.9,3.3,10.1
					c-2.6,1.2-4.8-4.7-6.2-3c-1.4,1.7,3.2,14.5,0.6,16.7c-2.6,2.1-9.8-8.6-10.7-10.8c-0.9-2.1-1.7-10.9-0.3-22.1
					c1.3-10.7,9.9-56,10.7-60.1c4.2,2.1,12.6,5.9,19.8,7.3C218.5,159,217.5,161.2,216.3,164z"/>
			</g>
			<ellipse class="st11" cx="260.8" cy="72" rx="4.3" ry="1.3"/>
			<ellipse class="st11" cx="221.4" cy="73.8" rx="4.3" ry="1.3"/>
			<g>
				<path class="st12" d="M243.1,74.2c-0.6,0.2-1.3,0.4-1.9,0.5c-0.7,0.1-1.3,0.1-2,0.1c-0.6,0-1.3-0.1-1.9-0.2
					c-0.6-0.1-1.3-0.1-1.9-0.3c-0.1,0-0.1-0.2,0-0.2c0.6-0.3,1.3-0.4,1.9-0.5c0.7-0.1,1.3-0.2,1.9-0.2c0.6-0.1,1.3,0,1.9,0
					c0.6,0.1,1.3,0.1,1.9,0.3C243.1,73.6,243.2,74.1,243.1,74.2z"/>
				<path class="st13" d="M237.8,62.7c0.4,1.3,0.6,2.6,0.5,3.8c0,0.6-0.1,1.3-0.3,1.9c-0.2,0.6-0.3,1.3-0.5,1.9
					c-0.1,0.1-0.5,0.1-0.6,0c-0.2-0.6-0.4-1.3-0.6-1.9c-0.1-0.6-0.2-1.3-0.3-1.9c-0.1-1.3,0.2-2.6,0.8-3.9
					C236.9,62.6,237.7,62.6,237.8,62.7z"/>
				<g>
					<path class="st10" d="M244,62c-0.5-1.2-0.3-2.6,0.5-3.8c0.8-1.2,2.3-2.3,4.3-2.9c0.2,0,0.7,0.4,0.6,0.5c-1.1,0.9-1.8,2-2.4,3
						c-0.6,1-1.2,2.1-1.9,3.2C245,62.1,244.1,62.1,244,62z"/>
				</g>
				<g>
					<path class="st10" d="M234,62.2c0.4-1.2,0.2-2.6-0.6-3.8c-0.9-1.2-2.4-2.2-4.3-2.7c-0.2,0-0.7,0.4-0.6,0.5
						c1.1,0.9,1.8,1.9,2.5,2.9c0.7,1,1.3,2,2,3.1C233,62.3,233.9,62.3,234,62.2z"/>
				</g>
			</g>
			<g>
				<path class="st14" d="M277.5,41.3c-0.1-1.5-0.1-3-0.4-4.5c-0.2,0.1-0.5,0.1-0.7,0.2c0.9,1.6,2.1,2.9,3.4,4.2
					c0.6,0.6,1.6,0,1.2-0.7c-0.5-1.3-0.7-2.9-1-4.4c-0.3,0.3-0.6,0.6-0.9,1c0.3,0.1,0.6,0.5,0.9,0.7c0.9,0.6,1.8,0.8,2.7,1.3
					c0.7,0.4,1.8,0,1.6-1c-0.2-0.8-1.1-2.9-0.7-3.7c-0.6,0.2-1.1,0.3-1.7,0.5c1.1,0.7,2.3,1.4,3.5,1.9c0.6,0.2,1.2-0.2,1.3-0.8
					c0.3-1.4,0.3-2.8,0.6-4.1c-0.4,0.3-0.8,0.6-1.2,0.9c1,0.1,1.9,0.4,2.9,0.6c0.7,0.1,1.2-0.5,1.1-1.1c0-0.5-0.4-2.1-0.1-2.5
					c-0.3,0.1-0.7,0.3-1,0.4c0.3,0.1,0.8,0.4,1.1,0.5c1.5,0.7,2.5-1.8,0.9-2.3c-1.1-0.3-2.1-0.9-2.9,0.1c-0.9,1.2-0.2,3,0.2,4.2
					c0.3-0.5,0.7-0.9,1-1.4c-1-0.1-1.7-0.4-2.6-0.7c-0.6-0.2-1.2,0-1.4,0.6c-0.5,1.3-0.5,3.3-0.3,4.7c0.4-0.3,0.9-0.7,1.3-1
					c-1.1-0.4-2-1.2-2.9-1.9c-0.4-0.3-1.2-0.3-1.6,0.2c-0.9,1.5,0,4.1,0.8,5.5c0.3-0.5,0.6-1.1,0.9-1.6c-1.5-0.3-2.6-1.6-4.1-1.9
					c-0.5-0.1-1.1,0.4-0.9,1c0.4,1.6,0.6,3.3,1.3,4.7c0.4-0.3,0.7-0.6,1.1-0.9c-1.5-1-2.7-2.1-3.8-3.6c-0.2-0.3-0.8,0-0.6,0.4
					C277,38.3,277.2,39.9,277.5,41.3C277.4,41.4,277.5,41.4,277.5,41.3L277.5,41.3z"/>
			</g>
			<g>
				<path class="st10" d="M280.5,70.8c1.4-0.5,2.8-2.6,2.3-4.1c-0.4-1.3-2.7-2.6-1-4c0.9-0.8,2.5-0.6,3.3,0.3c0.7,0.9,0.6,2,0.8,3
					c0.1,0.5,0.8,0.7,0.9,0.1c0.2-1.3,0.1-3.5-1-4.4c-1.1-1-3.1-1.2-4.3-0.4c-1.2,0.7-2,1.9-1.7,3.4c0.1,0.6,0.6,1.1,1,1.5
					c0.8,0.7,1.4,0.8,1.2,2.3c-0.1,0.9-0.7,1.7-1.6,2.1C280.3,70.6,280.4,70.8,280.5,70.8L280.5,70.8z"/>
			</g>
			<g>
				<path class="st5" d="M283,16.7c-1.1,3.1-2.8,6-4.4,8.9c-0.4,0.8,0.8,1.5,1.3,0.8c0.9-1.2,1.2-2.7,1.6-4.1
					c0.6-1.9,1.3-3.6,1.8-5.5C283.4,16.6,283,16.5,283,16.7L283,16.7z"/>
			</g>
			<g>
				<path class="st5" d="M286.2,20.9c-1,1-2.6,1.6-3.7,2.3c-1.3,0.9-2.7,1.8-3.9,2.7c-0.5,0.3,0.1,1.1,0.5,0.7
					c1.2-1,2.4-1.9,3.6-2.8c1.2-0.9,2.1-2.5,3.7-2.8C286.6,21.1,286.4,20.7,286.2,20.9L286.2,20.9z"/>
			</g>
			<g>
				<path class="st5" d="M236.3,1.2c1.6,1.3,4.2,2.3,6.2,2.9c3,1,5.5,2.5,8.1,4.3c0.5,0.4,1.2-0.5,0.6-0.8c-2.1-1.4-4.3-2.9-6.7-3.7
					C241.9,3.1,238.6,2.5,236.3,1.2C236.3,1.1,236.2,1.1,236.3,1.2L236.3,1.2z"/>
			</g>
			<g>
				<path class="st5" d="M215.5,4.3c-2,5.3-2.9,13.6,1.9,17.8c0.5,0.4,1.1-0.3,0.7-0.8c-4-4.6-4.1-11.3-2.5-17
					C215.8,4.2,215.6,4.1,215.5,4.3L215.5,4.3z"/>
			</g>
			<g>
				<path class="st8" d="M267.1,136.2c2.1,0.1,4,1.6,6,0.2c0.3-0.2,0.2-0.7-0.1-0.9c-0.4-0.2-0.6-0.1-1-0.1c-0.5,0-1-0.1-1.5-0.1
					c-1.1,0-2.3,0-3.4,0.1C266.7,135.5,266.7,136.1,267.1,136.2L267.1,136.2z"/>
			</g>
			<g>
				<path class="st8" d="M255.3,182.8c0,1.5,0,3,0.2,4.5c0.1,1,0,2.3,0.7,3c0.2,0.2,0.5,0,0.6-0.2c0.1-1.1-0.2-2.1-0.3-3.2
					c-0.2-1.4-0.3-2.7-0.6-4.1C255.9,182.4,255.3,182.4,255.3,182.8L255.3,182.8z"/>
			</g>
		</g>
		<g>
			<g>
				<path class="st1" d="M209.5,141.5c1.8,17.7-21.4,34.3-35.4,39.5c0,0-5.1,3.7-12.8,3.6l-4.8-15c0.4-0.1,2.4-0.9,2.5-2.1
					c0.1-1.4,1.7-2.4,5-3.5c3.3-1.1,7.1,1.1,7.1,3.2c0,0,15.2-6.5,18.6-19.8c2-7.7-13.8-10.8-16.1-11.2l2.8-19.6
					C180,117.5,207.8,124.9,209.5,141.5z"/>
				<path class="st6" d="M109.6,246.8c-18.2-2.2-24.5-8.2-24.5-8.2l5.8-68c0,0,34,9.2,65.4-1.7l0.2,0.7l4.8,15l16.5,52.1
					c0,0-8.9,7.4-37.6,10c-2.6,0.2-5.5,0.4-8.4,0.6C122.9,247.8,115.6,247.5,109.6,246.8z"/>
				<path class="st4" d="M159.8,302.9c6.4,3.4,13.9,7.3,13.7,9.3c-0.3,3.3-33.6,3.9-33.6,3.9s-0.3-3.7-1.4-8.6
					C140.3,307.4,156.6,306.3,159.8,302.9z"/>
				<path class="st4" d="M163.4,57.1c0.1,1.6,1.2,32.9,0.6,47.5c0,0-16-0.2-33.5-0.2v-2.2c5.9-1.2,11.8-3.5,17-7.1
					c14.2-10.2,14.4-31.2,14.1-37.7C162.2,57.2,162.8,57.2,163.4,57.1z"/>
				<path class="st8" d="M150.8,297.4c0.6,1.1,4.6,3.2,9,5.6c-3.2,3.3-19.5,4.5-21.3,4.6c-0.4-1.7-0.8-3.6-1.4-5.6
					c-1.1-4-4-11.3-9-21.4c1-0.5,9.5-4.6,18.8-4.9C149,286.9,150.1,296.1,150.8,297.4z"/>
				<path class="st1" d="M114.9,86.6c1.2,2.2,3,4.6,5.3,5.5c4.6,1.8,19.4-0.5,22.2-2.4c1.4-1,2.7-3.7,3.6-6c0.8-2.2,1.3-4.1,1.3-4.1
					s-17.7,3.1-34.3,3C113,82.5,113.7,84.4,114.9,86.6z M130.5,102.2c-4.8,1-9.6,1.2-14.1,0.8c-6.2-0.5-11.6-2-15.4-4.3l-1.7-37.4
					c0,0,18.9,0,38.6-1.6c11.2-0.9,19-1.8,23.6-2.4c0.3,6.5,0.2,27.5-14.1,37.7C142.3,98.7,136.4,101,130.5,102.2z"/>
				<g>
					<path class="st12" d="M137.4,77.7c-0.6,0.3-1.3,0.4-1.9,0.6c-0.6,0.1-1.3,0.2-1.9,0.2c-0.6,0-1.3,0-1.9-0.1
						c-0.6-0.1-1.3,0-1.9-0.2c-0.1,0-0.1-0.2,0-0.2c0.6-0.3,1.3-0.4,1.9-0.6c0.6-0.2,1.3-0.3,1.9-0.3c0.6-0.1,1.3-0.1,1.9-0.1
						c0.6,0,1.3,0,1.9,0.2C137.4,77.1,137.5,77.6,137.4,77.7z"/>
					<path class="st13" d="M131.4,66.5c0.5,1.3,0.8,2.5,0.7,3.8c0,0.6-0.1,1.3-0.1,1.9c-0.1,0.6-0.3,1.3-0.4,2
						c-0.1,0.1-0.5,0.2-0.6,0.1c-0.2-0.6-0.5-1.3-0.7-1.9c-0.2-0.6-0.3-1.3-0.4-1.9c-0.2-1.3,0-2.6,0.6-3.9
						C130.5,66.5,131.4,66.4,131.4,66.5z"/>
					<g>
						<path class="st10" d="M137.6,65.5c-0.5-1.2-0.5-2.6,0.3-3.8c0.8-1.3,2.1-2.4,4.1-3.1c0.2-0.1,0.7,0.4,0.6,0.4
							c-1,1-1.6,2.1-2.2,3.1c-0.6,1.1-1.1,2.1-1.7,3.3C138.6,65.5,137.6,65.6,137.6,65.5z"/>
					</g>
					<g>
						<path class="st10" d="M127.5,66.2c0.4-1.3,0.1-2.6-0.8-3.7c-0.9-1.1-2.5-2.1-4.5-2.5c-0.2,0-0.6,0.5-0.5,0.5
							c1.1,0.8,1.9,1.8,2.7,2.7c0.7,1,1.4,1.9,2.2,3C126.6,66.4,127.5,66.3,127.5,66.2z"/>
					</g>
				</g>
				<path class="st2" d="M147.3,79.5c0,0-0.5,1.9-1.3,4.1c-2.7,0.4-24,3.7-31.1,2.9c-1.2-2.2-1.8-4.1-1.8-4.1
					C129.7,82.7,147.3,79.5,147.3,79.5z"/>
				<path class="st9" d="M146,83.7c-0.9,2.4-2.2,5.1-3.6,6c-2.8,1.9-17.6,4.2-22.2,2.4c-2.3-0.9-4.1-3.3-5.3-5.5
					C122.1,87.4,143.3,84.1,146,83.7z"/>
				<path class="st2" d="M76.1,159.8c-6.3-4.5-11.9-10.8-14.9-14.4c-1.4-1.7-2.2-2.8-2.2-2.8s21-26.5,27.7-29.2
					c4-1.6,13.7-3.1,20.9-4.1c-0.9,0.8,1,4.2,1,4.2l0,0l-1.7,0.4c0,0,0.7,8,5.3,10.7l8.7-9.3c0.4,0.4,1,0.7,1.5,0.8
					c-0.2,1-2.2,11.1-6.3,19.7c0,0,0.1,1.1,3.7,1.4c0,0,5.1-10.4,4.8-20.7c0,0,1,9.8,5.5,19.1c0,0,1.8,0.2,4-1.8
					c0,0-6.2-12.8-7.2-18c0.5-0.2,0.9-0.4,1.3-0.7l10.5,5.6c2.9-5,2-10.7,2-10.7l-2.2,0.1c0.1-0.2,0.7-1.7,0-2.3
					c7.9,0.7,18.5,1.6,18.5,1.6l19.5,5.2l-0.3,2.1l-2.8,19.6l-1,6.6l-15.9-1.6l-0.5,27.6c-31.4,10.8-65.4,1.7-65.4,1.7l-1.7-16.8
					l-9.4,8.3C78.5,161.4,77.3,160.6,76.1,159.8z"/>
				<path class="st6" d="M138.8,110l2.2-0.1c0,0,0.8,5.8-2,10.7l-10.5-5.6c1.3-1,1.1-3.2-0.6-4.6L138.8,110z"/>
				<path class="st1" d="M140.2,246.8c3,9,5.2,19.6,6.8,28.8c-9.3,0.3-17.7,4.4-18.8,4.9c-0.3-0.6-0.6-1.3-1-1.9
					c-3.4-6.9-7.8-14.9-13.1-24.1c-1.4-2.5-3-5.1-4.6-7.7c6,0.7,13.3,1,22.1,0.6C134.7,247.2,137.5,247,140.2,246.8z"/>
				<path class="st8" d="M138.8,110l-10.9,0.5c0,0,0,0,0,0l2.7-0.7v-4.5c0.4,0.1,7.2,1.9,8.1,2.4c0.1,0,0.1,0.1,0.1,0.1
					C139.4,108.2,138.8,109.8,138.8,110z"/>
				<path class="st10" d="M116.4,104.5c4.6,0,9.4-0.1,14.1-0.1v0.8v4.5l-2.7,0.7c-1-0.8-2.4-1.2-4.2-1c-1.2,0.1-2.2,0.5-2.8,0.9
					c-2.7-0.1-4.3-1.1-4.3-1.1v-3.1V104.5z"/>
				<path class="st6" d="M127.1,115.7c1,5.1,7.2,18,7.2,18c-2.2,2-4,1.8-4,1.8c-4.5-9.2-5.5-19.1-5.5-19.1l0-0.2
					C125.6,116.2,126.3,116,127.1,115.7z"/>
				<path class="st10" d="M127.2,278.6L127.2,278.6c-0.8,1.7-1.7,3.4-2.7,5.2l-0.1,0c-5.8,1.8-13.3-3.4-16.1-10
					c2.6-7.1,5.1-14.8,5.8-19.3l0,0C119.5,263.6,123.8,271.7,127.2,278.6z"/>
				<path class="st4" d="M118,306c2.9,0.8,10.4,3.5,8.9,5.9c-1.5,2.4-20.7,3-23.8,1.8c-3-1.2-9.4-13.2-9.4-16.1c0-2,3.9-4.6,6.3-6.1
					c0.3,4.9,6.9,13.7,8.2,14.2c1.2,0.5,4.1,0.8,7.6-0.9C116.4,305.4,117.2,305.8,118,306z"/>
				<path class="st6" d="M122.5,116.1c0.7,0.2,1.5,0.3,2.2,0.2l0,0.2c0.3,10.3-4.8,20.7-4.8,20.7c-3.6-0.2-3.7-1.4-3.7-1.4
					C120.3,127.2,122.3,117.1,122.5,116.1z"/>
				<path class="st8" d="M108.3,273.8c2.9,6.6,10.4,11.7,16.1,10l0.1,0c-4.8,8.5-12.1,17.8-12.1,17.8s1.4,1.9,3.2,3.3
					c-3.5,1.7-6.3,1.3-7.6,0.9c-1.2-0.5-7.9-9.3-8.2-14.2c1.1-0.7,1.9-1.1,1.9-1.1S105.1,282.6,108.3,273.8z"/>
				<path class="st6" d="M122.5,116.1c-0.6-0.2-1.1-0.4-1.5-0.8c-0.2-0.2-0.5-0.4-0.7-0.7c-1.1-1.5-1.1-2.8-0.2-3.8
					c0.2-0.2,0.3-0.3,0.5-0.5c0.7-0.5,1.6-0.8,2.8-0.9c1.8-0.2,3.3,0.2,4.2,1l-0.1,0l0.2,0c1.7,1.3,1.9,3.6,0.6,4.6
					c-0.4,0.3-0.8,0.5-1.3,0.7c-0.7,0.3-1.5,0.5-2.3,0.6C124,116.4,123.2,116.3,122.5,116.1z"/>
				<path class="st6" d="M121,115.3l-8.7,9.3c-4.6-2.7-5.3-10.7-5.3-10.7l1.7-0.4l11.5-2.6c-0.9,0.9-0.9,2.3,0.2,3.8
					C120.6,114.8,120.8,115.1,121,115.3z"/>
				<path class="st10" d="M116.4,103c4.5,0.3,9.3,0.1,14.1-0.8v2.2c-4.7,0-9.5,0-14.1,0.1V103z"/>
				<path class="st8" d="M120.2,110.8l-11.5,2.6l0,0c0,0-1.9-3.4-1-4.2c0,0,0,0,0,0c1-0.7,8.1-2.9,8.7-3.1v3.1c0,0,1.6,1,4.3,1.1
					C120.5,110.5,120.3,110.6,120.2,110.8z"/>
				<path class="st4" d="M116.4,103v1.5c-5.5,0-10.7,0.1-15.2,0.2l-0.3-6C104.8,101,110.3,102.5,116.4,103z"/>
				<path class="st15" d="M63.1,259.4l0.2,0c-1.3,12.4-1.9,23.6-1.1,24.3c-2.7-0.9-60.2-20.3-60.9-21.2c-0.7-0.9-2.4-8.9-0.5-21.4
					c3.9,4,11.7,7.7,20.5,10.8c-0.2,2.4-0.3,4.7-0.2,4.9c0.2,0.5,9.4,3.4,10.3,3.4c0.4,0,0.9-2.3,1.3-4.8
					C46.8,259.1,60.4,260.8,63.1,259.4z"/>
				<path class="st16" d="M76.8,274.9c-0.7,1.8-12.5,8.6-14.5,8.9c0,0,0,0,0,0c0,0,0,0-0.1,0c0,0,0,0,0,0c-0.8-0.8-0.2-12,1.1-24.3
					c1.6-15.1,4.2-31.8,6.5-33.6c0.2-0.2,0.5-0.2,0.7,0C74.5,228.2,77.5,273.2,76.8,274.9z"/>
				<path class="st6" d="M57.6,211.4c1.2,3,0.6,9,0.6,9.6c0,0,0,0,0,0c-0.1,0.9-0.9,1.6-1.8,1.6c-0.1,0-0.1,0-0.2,0
					c-1-0.1-1.7-1-1.6-2c0-0.2,0-0.5,0.1-0.8c0.2-2.2,0.2-5.4-0.3-7c-0.5-0.4-2.2-1.3-5.3-2.4c-0.1-0.7-0.3-1.4-0.1-2
					c0.2-0.7,0.7-1,1.4-1.4C56.8,209.5,57.3,210.8,57.6,211.4z"/>
				<path class="st4" d="M28.7,212.1c8.1,2.2,17.8,5.2,25.9,7.8c0,0.3,0,0.5-0.1,0.8c-0.1,1,0.6,1.9,1.6,2c0.1,0,0.1,0,0.2,0
					c0.9,0,1.7-0.7,1.8-1.6c7.2,2.4,12.4,4.3,12.4,4.6v0c-0.2-0.1-0.5-0.1-0.7,0c-2.3,1.7-4.9,18.5-6.5,33.6l-0.2,0
					c-2.7,1.5-16.3-0.3-30.3-4c0.4-2.9,0.6-6,0.4-6.6c-0.3-1.1-9.8-3.5-11.4-2.8c0,0-0.3,3.1-0.5,6c-8.9-3-16.7-6.8-20.5-10.8
					c0-0.3,0.1-0.5,0.1-0.8c2-12.9,9-29.5,11.8-31.3c0.8-0.5,5.7,0.5,12.3,2.2c0,0.2,0,0.3,0,0.5c0,0.5,0.2,1,0.5,1.3
					c0.3,0.3,0.8,0.5,1.3,0.5C27.8,213.5,28.5,212.9,28.7,212.1z"/>
				<path class="st1" d="M53.7,204.7c-0.9,1.5-2.4,1.9-3.5,2.4c-0.6,0.3-1.1,0.7-1.4,1.4c-0.2,0.6-0.1,1.4,0.1,2
					c0.3,1.3,0.4,2.5-2,2.8c-3.8,0.5-11-2.7-12.4-3.8c-0.5-0.4-0.6-1.5-0.3-3.2c0.2-1,0.5-2.2,0.9-3.5c0.7-2.3,1.8-5.1,3.1-8.1
					c3.3-7.7,13.6-35.9,23-49.3c2.9,3.6,8.5,9.8,14.9,14.4l-27,37.7C49.1,197.4,55.1,202.4,53.7,204.7z"/>
				<path class="st6" d="M35.2,202.8c-0.4,1.3-0.7,2.5-0.9,3.5c-2.2-0.5-3.8-0.8-4.5-0.8c-0.5,0.7-1,3.6-1,6.1c0,0.2,0,0.3-0.1,0.5
					c-0.2,0.8-0.9,1.3-1.8,1.3c-0.5,0-1-0.2-1.3-0.5c-0.3-0.3-0.5-0.8-0.5-1.3c0-0.1,0-0.3,0-0.5c0-3.3,0.6-8.4,3.6-9.2
					C29.8,201.7,32.4,202.2,35.2,202.8z"/>
				<path class="st17" d="M33.2,248.7c0.2,0.6-0.1,3.8-0.4,6.6c-3.8-1-7.7-2.2-11.4-3.4c0.2-2.9,0.5-6,0.5-6
					C23.4,245.2,32.9,247.6,33.2,248.7z"/>
				<path class="st17" d="M32.8,255.4c-0.4,2.5-0.8,4.8-1.3,4.8c-0.9,0-10.1-2.9-10.3-3.4c-0.1-0.2,0-2.5,0.2-4.9
					C25.1,253.2,28.9,254.4,32.8,255.4z"/>
				<g>
					<path class="st6" d="M152.8,60.6c0,0-0.1,4.3-4.9,3.3l0,0c-0.6-0.7-1.4-1-2.2-1C152.3,62.3,152.8,60.6,152.8,60.6z"/>
					<path class="st6" d="M149.5,67.8c0.1,2.8-1.3,5.2-3.3,5.3c-1.9,0.1-3.6-2.1-3.7-4.9c-0.1-2.8,1.3-5.2,3.3-5.3
						c0.8,0,1.6,0.3,2.2,1C148.8,64.8,149.4,66.2,149.5,67.8z"/>
					<path class="st6" d="M115,65.4c6.4-0.5,6.9-2.3,6.9-2.3s-0.1,4.2-4.7,3.2C116.6,65.8,115.8,65.4,115,65.4z"/>
					<path class="st6" d="M117.3,66.4c1,0.9,1.6,2.5,1.7,4.3c0.1,3-1.4,5.5-3.5,5.6c-2.1,0.1-3.9-2.3-4-5.3c-0.2-3,1.4-5.5,3.5-5.6
						C115.8,65.4,116.6,65.8,117.3,66.4z"/>
				</g>
				<path class="st4" d="M101.3,104.7l0.1,2.5c0,0-8.2,0.7-15.4,1.1c-7.3,0.5-12.7,0-12.7,0s-5-7.3-5.5-31.1
					c-0.5-23.9,8-45.9,17.5-55c9.5-9.1,20.2-5.7,20.2-5.7c3.9-2.7,18.9-8.2,40,3.6s21.4,36.3,21.4,36.3s-1.1,0.2-3.4,0.5
					c-0.5,0.1-1.1,0.2-1.8,0.2c-4.6,0.6-12.4,1.5-23.6,2.4c-19.8,1.6-38.6,1.6-38.6,1.6l1.7,37.4L101.3,104.7z"/>
			</g>
			<ellipse class="st11" cx="151.7" cy="74.4" rx="4.3" ry="1.3"/>
			<ellipse class="st11" cx="111.6" cy="78" rx="4.3" ry="1.3"/>
			<g>
				<path class="st14" d="M78.7,43.4c-0.7,1.1,2.1-3.3,2.2-3.3c1.6,0,2.3,2.6,2.6,3.6c0.2,0.5,0.9,0.6,1.1,0.1
					c0.2-0.4,1.6-3.4,2-3.4c-0.4,0,0.6,1.6,0.5,1.4c0.9,0.8,1.3,1.9,2.5,2.4c0.2,0.1,0.6,0.1,0.8-0.1c2-2.5,3.1-0.3,4.9,0.7
					c0.2,0.1,0.5,0.1,0.7,0c0.8-0.6,2.4-3.2,3-3.2c0.2,0,2.2,2.5,2.6,2.8c0.3,0.3,0.8,0.3,1.1,0.1c3.6-2.2,3.6,2.7,6.8,2.4
					c1.5-0.2,1.7-1.8,2.8-2.4c1.6-0.8,1.6,0.3,3.3,0.7c0.9,0.2,1.6,0.1,2.4-0.2c2-0.6-0.1-1.7,3.7-1.8c1.1,0,2.2,0.9,3.3,0.8
					c1.3,0,1.8-0.3,2.8-1.1c0.5-0.4,1-1.6,1.6-1.8c2.3-1.1,1.8,0.3,3.4,0.8c2.9,0.8,3.1-1,5.8-1c1.3,0,2,1.2,3.5,0.7
					c1.2-0.4,1.7-1.8,2.3-1.7c0.5,0,1.5,1.4,2.3,1.6c1.3,0.2,2.4-0.5,3.6-1c2.5-0.9,5.5-0.2,7.7-1.5c0.5-0.3,0.1-1.3-0.5-1
					c-1.3,0.6-6.8,0.5-7.9,0.4c-0.5,0-1.4,0.5-1.8,0.4c-1.6-0.5-1.2-1.2-2.3-1.7c-1.8-0.8-1.7-0.3-3.3,0.4c-0.4,1.1-1.3,1.4-2.5,1
					c-0.5-0.3-1.1-0.6-1.7-0.8c-0.7,0-1-0.3-1.7-0.1c-0.8,0.3-0.9,1.2-1.5,1.5c-1.7,0.7-1.7-0.5-3.3-0.9c-2.4-0.7-2.6,0.4-4.4,1.8
					c-3.2,2.3-5.5-0.8-8.4,0.6c-2,0.9-0.7,1.7-3.6,1.1c-0.4-0.1-1.8-1.1-2.4-1.3c-0.5-0.1-1.1,0.1-1.4,0.5c-1.2,1.3-1.4,2.8-3.2,2.1
					c-1.2-0.5-1.6-2.2-3.1-2.4c-1.2-0.1-1.1,0.4-2.2,0.9c-0.2,0.1-0.2,0.4-0.4,0.4c-0.3,1-0.7,1-1.4-0.2c-0.6-0.5-1.2-1-1.6-1.7
					c-0.2-0.3-0.7-0.4-1-0.2c-0.8,0.7-2,2.8-3,2.9c-1.7,0.2-1.6-2-3.1-2c-3.3-0.1-2.6,6.2-5-1.4c-0.1-0.4-0.6-0.6-1-0.3
					c-1.4,1.2-2.4,2.7-2.9,4.5c0.4,0,0.8,0,1.2-0.1c-0.7-1.6-1.6-3.6-3-4.7c-0.1-0.1-0.3-0.1-0.4,0c-1.1,1.3-1.9,3.1-2.8,4.6
					C78.4,43.5,78.6,43.6,78.7,43.4L78.7,43.4z"/>
			</g>
			<g>
				<path class="st4" d="M102.8,100.9c0.9-15.4-2.9-30.8-2.8-46.2c0-1-1.5-1.1-1.5-0.1c0,7.1,1.6,14.2,2.3,21.2
					C101.6,84.1,103.1,92.5,102.8,100.9C102.8,100.9,102.8,100.9,102.8,100.9L102.8,100.9z"/>
			</g>
			<g>
				<path class="st4" d="M109.3,11.9c-1.1-0.3-2.1,1.8-2.6,2.5c-1.4,2.1-1.7,4.2-2.5,6.5c-0.3,0.8,0.8,1.2,1.2,0.5
					c0.9-1.6,1-3.6,1.8-5.3c0.5-1.1,1.4-2.9,2.3-3.8C109.6,12.2,109.6,12,109.3,11.9L109.3,11.9z"/>
			</g>
			<g>
				<path class="st18" d="M152,184.4c0.7,10.6,3.8,21.5,6.1,31.9c1.1,5,2.2,10,3.4,14.9c0.5,2.1,0.9,5.6,2.9,6.9
					c1.8,1.1,3.4-1.4,1.6-2.5c-0.9-0.6-1.5-4.2-1.8-5c-0.5-1.6-1-3.2-1.5-4.8c-1.6-5-3.1-10.1-4.5-15.2c-2.3-8.5-5-17.4-5.9-26.1
					C152.1,184.3,152,184.3,152,184.4L152,184.4z"/>
			</g>
			<g>
				<path class="st18" d="M136,186.1c-0.7,18.8,0.5,37.3,1.9,56c0.1,1.6,2.6,1.2,2.5-0.4c-0.6-8.8-1.9-17.5-2.7-26.3
					c-1-9.7-0.5-19.5-0.9-29.2C136.6,185.7,136,185.7,136,186.1L136,186.1z"/>
			</g>
			<g>
				<path class="st18" d="M116.4,186.1c0.2,9,0.1,17.9-0.2,26.9c-0.2,4.4-0.4,8.9-0.8,13.3c-0.4,4-1.4,8.2-1.3,12.2
					c0.1,2,3,1.9,2.8-0.2c-0.8-8.5,0.3-17.6,0.3-26.2c0-8.7-0.3-17.3-0.5-26C116.7,186,116.4,186,116.4,186.1L116.4,186.1z"/>
			</g>
			<g>
				<path class="st18" d="M99,184.1c-2.2,17.1-4,34.4-7.2,51.4c-0.3,1.6,2,2.4,2.5,0.8c2.2-8.4,2.7-17.4,3.5-26
					C98.7,202,100.4,192.5,99,184.1C99.1,184.1,99,184.1,99,184.1L99,184.1z"/>
			</g>
			<g>
				<path class="st8" d="M86.2,115.7c1.6,6.7,1.5,13.6,2.3,20.4c0.1,0.6,1.1,0.5,1-0.1c-1-6.8-1.2-13.7-3.1-20.3
					C86.4,115.5,86.2,115.6,86.2,115.7L86.2,115.7z"/>
			</g>
			<g>
				<path class="st8" d="M157.4,111.8c-0.2,3.2-0.5,6.4-0.8,9.6c-0.3,2.9-0.9,5.9-0.6,8.7c0.1,0.5,0.9,0.4,0.8-0.1
					c-1.1-5.7,0.5-12.5,0.7-18.3C157.6,111.7,157.4,111.7,157.4,111.8L157.4,111.8z"/>
			</g>
			<g>
				<path class="st8" d="M135.7,137.8c0.8,1.6,3.3,1.3,4.8,1.2c1.6-0.1,3.2-0.4,4.8-0.4c1.3-0.1,3.6-0.8,4.8-0.3
					c0.8,0.3,1.5-0.7,0.8-1.3c-1.5-1.2-4-0.2-5.8-0.2c-2.9,0.1-6.1,1.1-9,0.5C135.9,137.1,135.6,137.5,135.7,137.8L135.7,137.8z"/>
			</g>
			<g>
				<path class="st8" d="M125,130.8c-0.2,14,0.7,28,1.2,42c0,0.4,0.6,0.4,0.6,0c-0.6-14-1.5-27.9-1.5-41.9
					C125.3,130.6,125,130.6,125,130.8L125,130.8z"/>
			</g>
		</g>
		<g>
			<g>
				<path class="st19" d="M488.4,240.4c1.7,12.5,0,20.5-0.7,21.4c-0.7,0.9-58.2,19.7-61,20.6c0.8-0.8,0.3-12-0.9-24.3l0.2,0
					c2.7,1.5,16.3-0.1,30.4-3.7c0.3,2.6,0.8,4.9,1.2,4.9c0.9,0,10.1-2.9,10.4-3.3c0.1-0.2,0-2.5-0.2-4.9
					C476.6,248.1,484.5,244.4,488.4,240.4z"/>
				<path class="st17" d="M467.8,251.1c0.1,2.4,0.3,4.7,0.2,4.9c-0.2,0.4-9.5,3.3-10.4,3.3c-0.4,0-0.9-2.3-1.2-4.9
					C460.2,253.4,464.1,252.3,467.8,251.1z"/>
				<path class="st17" d="M467.3,245c0,0,0.2,3.1,0.4,6c-3.7,1.2-7.6,2.4-11.4,3.3c-0.4-2.9-0.6-6-0.4-6.6
					C456.3,246.6,465.7,244.3,467.3,245z"/>
				<path class="st19" d="M464.4,210.7c0,0.5-0.2,1-0.6,1.3c-0.3,0.3-0.8,0.5-1.3,0.5c-0.8,0-1.5-0.6-1.7-1.3
					c-0.1-0.2-0.1-0.3-0.1-0.5c0-2.5-0.4-5.4-1-6.1c-0.7,0-2.3,0.3-4.5,0.7c-0.2-1-0.5-2.2-0.9-3.5c2.8-0.6,5.4-1,6.4-0.7
					c3,0.8,3.5,5.9,3.5,9.2C464.4,210.4,464.4,210.6,464.4,210.7z"/>
				<path class="st1" d="M455.3,205.3c0.3,1.7,0.2,2.8-0.3,3.2c-1.4,1-8.7,4.2-12.4,3.7c-2.5-0.3-2.3-1.5-2-2.8
					c0.1-0.7,0.3-1.4,0.1-2c-0.2-0.7-0.7-1-1.3-1.4l0,0c-1.1-0.6-2.6-1-3.5-2.5c-1.3-2.3,4.7-7.2,4.7-7.2l-21.9-41.2
					c8.2-1.4,14.4-4.7,18-7c7.3,14.8,11.9,38.7,14.8,45.5c1.3,3,2.3,5.8,3,8.1C454.8,203.1,455.1,204.3,455.3,205.3z"/>
				<path class="st19" d="M440.6,207.3c0.2,0.6,0,1.4-0.1,2c-3.1,1.1-4.8,1.9-5.3,2.4c-0.5,1.6-0.6,4.8-0.4,7c0,0.3,0,0.5,0.1,0.8
					c0.1,1-0.6,1.9-1.6,2c-0.1,0-0.1,0-0.2,0c-0.9,0-1.7-0.7-1.8-1.6c0,0,0,0,0,0c-0.1-0.7-0.6-6.6,0.7-9.6c0.3-0.6,0.8-2,7.3-4.3
					l0,0C439.9,206.3,440.4,206.7,440.6,207.3z"/>
				<path class="st20" d="M426.6,282.5C426.6,282.5,426.6,282.5,426.6,282.5C426.6,282.5,426.6,282.5,426.6,282.5
					c-2.1-0.2-13.9-7.1-14.5-9c-0.6-1.7,2.7-46.7,6.7-49c0.2-0.1,0.5-0.1,0.7,0c2.3,1.7,4.8,18.5,6.2,33.6
					C427,270.5,427.5,281.7,426.6,282.5L426.6,282.5C426.7,282.5,426.7,282.5,426.6,282.5z"/>
				<path class="st6" d="M418.8,224.4c0-0.4,5.2-2.2,12.5-4.5c0.1,0.9,0.9,1.6,1.8,1.6c0.1,0,0.1,0,0.2,0c1-0.1,1.7-1,1.6-2
					c0-0.2,0-0.5-0.1-0.8c8.1-2.5,17.9-5.4,26-7.6c0.2,0.8,0.9,1.3,1.7,1.3c0.5,0,1-0.2,1.3-0.5c0.3-0.3,0.5-0.8,0.6-1.3
					c0-0.1,0-0.3,0-0.5c6.6-1.7,11.5-2.6,12.4-2.1c2.8,1.8,9.6,18.5,11.5,31.4c0,0.3,0.1,0.5,0.1,0.8c0,0,0,0,0,0
					c-3.9,4-11.8,7.6-20.6,10.6c-0.2-2.9-0.4-6-0.4-6c-1.6-0.7-11,1.6-11.4,2.7c-0.2,0.6,0,3.8,0.4,6.6c-14.1,3.6-27.7,5.2-30.4,3.7
					l-0.2,0c-1.4-15.1-3.9-31.9-6.2-33.6C419.3,224.3,419.1,224.3,418.8,224.4L418.8,224.4z"/>
				<path class="st4" d="M396.4,294.6c0.6,0.4,19,13,18.4,13.5c-0.6,0.5-5,2.6-11.4,1.7c-6.3-0.9-18.6-2.7-18.7-3.4
					c-0.2-0.7-0.3-11.3-0.3-11.3l0,0C388.5,295.2,393.6,294.8,396.4,294.6z"/>
				<path class="st6" d="M355.3,296.3L355.3,296.3c-1.4,0-2.8,0-4.1-0.1c0,0-7-74-8.7-88.4c-0.3-2.9-0.6-5.9-0.9-8.9
					c8.2,0.7,16.9,0.6,25.1,0.2c4.7-0.2,9.3-0.6,13.6-1c14.2-1.4,24.6-3.5,24.6-3.5l0.2,0c0.1,6.3,0.1,12.9,0,18.2
					c-0.4,14.3-6.6,81.6-6.6,81.6s-0.8,0.1-2.2,0.2c-2.8,0.2-7.9,0.6-12.1,0.6c-0.7,0-1.3,0-1.9,0l-5.1-84l-8.4,0.7l-1.2,83.6
					c0,0-0.4,0-1,0.1C364.6,295.8,359.8,296.2,355.3,296.3z"/>
				<path class="st4" d="M405.2,194.6l-0.2,0c0,0-10.5,2-24.6,3.5l0,0l-0.4-8.5c9.9-0.7,19.4-1.5,25.1-2.4
					C405.1,189.5,405.2,192,405.2,194.6z"/>
				<path class="st6" d="M324.7,47.9c-2.2,0.8-4.2,1.4-5.6,1.6c0,0,5.4-8.6,5.6-9.3c0.1-0.7-7.9,0.8-9,1c-1.2,0.2,4.2-7.2,11.5-17.3
					c7.3-10.2,16-15.7,16-15.7s-6.7-5.3-7.1-6c-0.4-0.7,14.9-1.7,30.8,3.5c15.9,5.2,22.1,10,22.1,10s2.3-6.8,3.1-6.7
					c0.8,0,2.2,8.6,2.2,8.6s8.9-0.9,9.3-0.4c0.4,0.5-4.9,4.8-4.9,4.8S409,26,410.9,35.2c0.9,4.5-2.1,17.5-5.5,29.7l-2.1-0.6
					c0.1-0.5,0.3-1.1,0.4-1.7c2.7-12.2-9.7-8.1-9.7-8.1s-6.4,10.7-7.1,11.5c-0.7,0.8-1.8-18.1-2.1-18.7c-0.3-0.6-3.9,4.2-4.5,4.5
					c-0.7,0.3-3.1-3.8-5-10.1c-1.9-6.3-3.5-10.7-3.5-10.7s-16.5,12.7-29.2,16.1c0,0,3.1-5.3,2.7-6.7C345,39.3,333,45,324.7,47.9z"/>
				<path class="st6" d="M389.2,84.2c0.5-2.8,1.6-11,1.6-11c3.5,1.1,9.7,1.6,12.6-8.9l2.1,0.6c-3.6,12.9-7.6,24.9-7.8,25.2
					c-0.5,0.7-2.6-3.1-3.1-3.1c-0.5,0-5.3,2.9-6.1,2.9c-0.7,0-3-1.6-3.7-2.1C386.7,86.5,388.2,85.3,389.2,84.2z"/>
				<path class="st1" d="M369.7,77.7c0.9-2.3,1.2-4.3,1.2-4.3c-16.4,2.5-34.4,2-34.4,2s0.8,1.8,1.9,3.9c1.2,2.2,2.9,4.7,4.4,5.5
					c3,1.4,18,1.6,22.3-0.8C367.4,82.7,368.8,80.1,369.7,77.7z M377,91.4c-4,1.4-8.9,2.4-14.6,2.5c-3.6,0.1-7.4-0.2-11.6-1
					c-20.4-3.9-27.1-22.2-26.1-44.9c8.4-2.9,20.3-8.6,20.6-7.4c0.4,1.5-2.7,6.7-2.7,6.7c12.7-3.4,29.2-16.1,29.2-16.1
					s1.6,4.4,3.5,10.7c1.9,6.3,4.3,10.4,5,10.1c0.7-0.3,4.2-5.1,4.5-4.5c0.3,0.6,1.4,19.5,2.1,18.7c0.7-0.8,7.1-11.5,7.1-11.5
					s12.4-4.1,9.7,8.1c-0.1,0.6-0.3,1.1-0.4,1.7c-2.9,10.5-9,10-12.6,8.9c0,0-1.1,8.2-1.6,11c-1,1-2.5,2.3-4.5,3.5
					C382.6,89,380,90.3,377,91.4z M360.7,51.1l12.6,0.7C366.6,44.6,360.7,51.1,360.7,51.1z M367.7,67.3c2-0.2,3.4-2.7,3.1-5.6
					c-0.3-2.9-2.1-5.1-4.1-4.9c-2,0.2-3.4,2.7-3.1,5.6C363.8,65.2,365.7,67.5,367.7,67.3z M336.9,68.1c1.8-0.2,3.1-2.5,2.8-5.1
					c-0.3-2.7-1.9-4.7-3.7-4.5c-1.8,0.2-3.1,2.5-2.8,5.1C333.4,66.3,335.1,68.3,336.9,68.1z M328.9,52.6l10.9-1.3
					C339.9,51.3,334.3,46,328.9,52.6z"/>
				<path class="st8" d="M383.8,100.5c0.7,0.7,1.2,1.4,1.4,1.9c1,2-1.5,10.3-3,10.6c-0.7,0.1-3.1-1.4-5.2-3c-2-1.4-3.8-2.9-4.3-3.3
					c3.3-1.1,4.3-3.8,4.3-3.8l0-7.7l0.1,0C379.1,96,382,98.5,383.8,100.5z"/>
				<path class="st17" d="M380.4,198.1L380.4,198.1c-4.2,0.4-8.8,0.8-13.6,1.1l-0.5-8.7c4.4-0.3,9.1-0.6,13.6-0.9L380.4,198.1z"/>
				<path class="st6" d="M373.2,114.3c0.5,4.5,5.8,54.5,5.2,57.2c-0.7,2.9-7.5,10.3-9.1,10.4c-1.5,0.1-7.1-6.7-7.6-9.6
					c-0.5-2.9,5.2-57.3,5.2-57.3l0-0.2c0.8,0.6,1.7,1,2.7,1C370.9,115.8,372.1,115.1,373.2,114.3z"/>
				<path class="st10" d="M366.7,106.5c-3.1-1.2-4.1-4-4.1-4l-0.2-6.5l-0.1-2.2c5.7-0.1,10.5-1.1,14.6-2.5l0,3.8l0,7.7
					c0,0-1,2.8-4.3,3.8c-0.8,0.3-1.7,0.4-2.8,0.4C368.6,107.1,367.5,106.9,366.7,106.5z"/>
				<path class="st6" d="M373.2,114.3c-1.1,0.8-2.3,1.5-3.5,1.5c-1,0-1.9-0.4-2.7-1c-1.8-1.4-3.1-3.8-3.6-4.7c1.5-1.5,2.8-3,3.3-3.5
					c0.9,0.4,1.9,0.6,3.2,0.6c1.1,0,2-0.2,2.8-0.4c0.5,0.4,2.3,1.9,4.3,3.3C376.5,110.8,375,112.9,373.2,114.3z"/>
				<path class="st4" d="M366.6,295.6c0.1,1.2,0.4,10.5,0.3,11.1c-0.1,0.7-12.2,3.2-18.5,4.4c-6.3,1.2-10.8-0.6-11.5-1.1
					c-0.6-0.5,16.7-12.6,18.4-13.8l0,0C359.8,296.2,364.6,295.8,366.6,295.6z"/>
				<path class="st6" d="M373.3,51.8l-12.6-0.7C360.7,51.1,366.6,44.6,373.3,51.8z"/>
				<path class="st6" d="M370.8,61.6c0.3,2.9-1.1,5.4-3.1,5.6c-2,0.2-3.8-2-4.1-4.9c-0.3-2.9,1.1-5.4,3.1-5.6
					C368.7,56.5,370.5,58.7,370.8,61.6z"/>
				<path class="st4" d="M366.3,190.5l0.5,8.7c-8.2,0.4-16.9,0.5-25.1-0.2c-0.2-2.5-0.3-4.9-0.5-7.1
					C343.5,191.7,354.1,191.2,366.3,190.5z"/>
				<path class="st2" d="M370.9,73.4c0,0-0.4,2-1.2,4.3c-6.9,1.8-28.4,1.6-31.2,1.6c-1.1-2.1-1.9-3.9-1.9-3.9S354.5,76,370.9,73.4z"
					/>
				<path class="st9" d="M369.7,77.7c-0.9,2.3-2.3,5-4.5,6.2c-4.3,2.4-19.3,2.2-22.3,0.8c-1.6-0.7-3.2-3.2-4.4-5.5
					C341.3,79.3,362.8,79.5,369.7,77.7z"/>
				<path class="st8" d="M362.4,96l0.2,6.5c0,0,1,2.8,4.1,4c-0.4,0.5-1.8,2-3.3,3.5c-1.7,1.7-3.5,3.4-4.3,3.5c-1.6,0.2-4.7-8-3.1-12
					c0.1-0.4,0.3-0.7,0.5-1.1C358.5,97.2,362.4,96,362.4,96L362.4,96z"/>
				<path class="st2" d="M336.5,157c-7.3-0.6-14.7-5.8-18.4-8.8c-1.5-1.2-2.4-2.1-2.4-2.1s3.3-11.3,8-21.8
					c4.7-10.5,9.9-18.4,12.8-19.7c2.9-1.3,19.5-4.1,19.5-4.1l0.6-0.2c-0.2,0.3-0.4,0.7-0.5,1.1c-1.6,4.1,1.5,12.2,3.1,12
					c0.8-0.1,2.6-1.8,4.3-3.5c0.4,0.9,1.7,3.3,3.6,4.7l0,0.2c0,0-5.8,54.4-5.2,57.3c0.5,2.9,6.1,9.7,7.6,9.6
					c1.5-0.1,8.4-7.5,9.1-10.4c0.7-2.7-4.7-52.7-5.2-57.2c1.8-1.4,3.3-3.5,3.8-4.3c2.2,1.6,4.5,3.1,5.2,3c1.5-0.3,4-8.7,3-10.6
					c-0.3-0.5-0.8-1.2-1.4-1.9c3.4,0.3,25.4,2.4,28.3,4.1c0,0,20.5,15.7,28,40.9c0,0-1.2,1.1-3.5,2.6c-3.6,2.4-9.9,5.7-18,7
					c-1,0.2-2.1,0.3-3.2,0.4l-9.7-11.1l-0.8,29.6c0,0,0.2,5.7,0.3,13.2c-5.7,0.9-15.2,1.7-25.1,2.4c-4.6,0.3-9.2,0.6-13.6,0.9
					c-12.2,0.7-22.8,1.2-25.1,1.3c-0.4-8-0.5-14-0.5-14l-2-20.8C338,157.1,337.2,157,336.5,157z"/>
				<path class="st6" d="M339.7,63c0.3,2.7-1,4.9-2.8,5.1c-1.8,0.2-3.5-1.8-3.7-4.5c-0.3-2.7,1-4.9,2.8-5.1
					C337.8,58.3,339.5,60.3,339.7,63z"/>
				<path class="st6" d="M339.9,51.3l-10.9,1.3C334.3,46,339.9,51.3,339.9,51.3z"/>
				<path class="st1" d="M336.5,157c-1.4,3.4-10.6,24.2-25.1,30.9c-15.9,7.3-30,7.6-30,7.6s-2.8,3.8-7.4,5.5
					c-4.6,1.7-9.4,2.9-9.8,1.6s5-7.4,3.6-7.9c-1.4-0.5-12.4,6.5-14,5.8c-1.6-0.7,1.3-6.1,2.5-7.7c1.2-1.6,7.2-6.6,9.7-7.3
					s7.8-2.1,15-1.9s17.6-4.1,24.6-10.5c7-6.4,12.4-24.9,12.4-24.9l0.1-0.1C321.8,151.2,329.2,156.4,336.5,157z"/>
			</g>
			<ellipse class="st11" cx="372.9" cy="69.4" rx="4.3" ry="1.3"/>
			<ellipse class="st11" cx="332.1" cy="70.3" rx="4.3" ry="1.3"/>
			<g>
				<path class="st12" d="M354.2,71.1c-0.6,0.2-1.3,0.4-1.9,0.5c-0.7,0.1-1.3,0.1-2,0.1c-0.6,0-1.3-0.1-1.9-0.2
					c-0.6-0.1-1.3-0.1-1.9-0.3c-0.1,0-0.1-0.2,0-0.2c0.6-0.3,1.3-0.4,1.9-0.5c0.7-0.1,1.3-0.2,1.9-0.2c0.6-0.1,1.3,0,1.9,0
					c0.6,0.1,1.3,0.1,1.9,0.3C354.2,70.5,354.3,71,354.2,71.1z"/>
				<path class="st13" d="M348.9,59.6c0.4,1.3,0.6,2.6,0.5,3.8c0,0.6-0.1,1.3-0.3,1.9c-0.2,0.6-0.3,1.3-0.5,1.9
					c-0.1,0.1-0.5,0.1-0.6,0c-0.2-0.6-0.4-1.3-0.6-1.9c-0.1-0.6-0.2-1.3-0.3-1.9c-0.1-1.3,0.2-2.6,0.8-3.9
					C348,59.5,348.9,59.5,348.9,59.6z"/>
				<g>
					<path class="st10" d="M355.2,58.9c-0.5-1.2-0.3-2.6,0.5-3.8c0.8-1.2,2.3-2.3,4.3-2.9c0.2,0,0.7,0.4,0.6,0.5
						c-1.1,0.9-1.8,2-2.4,3c-0.6,1-1.2,2.1-1.9,3.2C356.1,59,355.2,59,355.2,58.9z"/>
				</g>
				<g>
					<path class="st10" d="M345.1,59.1c0.4-1.2,0.2-2.6-0.6-3.8c-0.9-1.2-2.4-2.2-4.3-2.7c-0.2,0-0.7,0.4-0.6,0.5
						c1.1,0.9,1.8,1.9,2.5,2.9c0.7,1,1.3,2,2,3.1C344.1,59.2,345,59.2,345.1,59.1z"/>
				</g>
			</g>
			<g>
				<path class="st6" d="M382.2,38.9C382.2,39,382.2,39,382.2,38.9c-0.1,0.2,0.1,0.3,0.2,0.2c1.3-2.4,1.2-0.7,2.9,0.4
					c0.4,0.2,0.8,0.1,0.9-0.4c0.3-1.6,1.8-0.6,2.8-0.4c0.4,0.1,0.9-0.3,0.9-0.7c0.3-2.1,1.7-0.6,2.9-0.1c0.5,0.2,0.9-0.1,1-0.6
					c0.2-0.9,0.4-1.8,0.7-2.7c-0.5,0.3-0.9,0.5-1.4,0.8c0.9,0.5,1.8,1,2.7,1.5c0.4,0.2,0.8,0,1-0.3c1.2-1.3,1.3-2.5,2.8-1
					c0.2,0.2,0.7,0.3,0.9,0.1c0.7-0.4,0.8-1.3,1.3-1.6c1.2-0.7-0.8-0.5,1.1-0.2c0.3,0,1,0.7,1.2,0.8c0.5,0.3,1.2-0.1,1.5-0.6
					c0.2-0.2,0.4-0.4,0.6-0.6c1.2-0.7-0.1-2.6-1.3-1.8c-0.8,0.5-0.9,0.7-1.4,1.5c0.5-0.2,1-0.4,1.5-0.6c-1.4-0.7-2.3-2.3-3.9-1.3
					c-0.6,0.4-0.8,2.1-1.2,2.3c0.6-0.3-0.7-0.9-1.3-1.2c-0.4-0.2-0.8,0-1.1,0.3c-1.4,1.4-0.8,3.1-3.5,1c-0.5-0.4-1.3-0.2-1.5,0.4
					c-0.4,1.2-0.4,2-0.3,3.3c0.3-0.3,0.7-0.5,1-0.8c-1.3-0.4-2.2-1.7-3.4-2.1c-0.5-0.1-1,0-1.2,0.5c-0.7,1.8,0.1,2.8-2.5,1.4
					c-0.3-0.2-0.7,0.1-0.9,0.4c-0.8,1.5-0.1,2.5-1.7-0.1c-0.1-0.2-0.4-0.1-0.5,0c-0.8,0.8-1.4,1.2-0.8,2.3
					C382.4,38.9,382.3,38.9,382.2,38.9L382.2,38.9z"/>
			</g>
			<g>
				<path class="st6" d="M349.6,27.4c1-0.6,1.6-1.3,1.5-2.5c0-0.3-0.3-0.5-0.6-0.6c-0.9-0.3-1.7-0.3-2.7-0.3c-0.5,0-1,0-1.4,0
					c-0.9,0.1-0.4,0.2-0.3,0.1c0.3,0.2,0.5,0.1,0.6-0.3c0-0.1,0.1-0.3,0.1-0.4c0.1-0.2,0.1-0.4,0-0.7c-0.1-0.6-0.4-1-0.9-1.3
					c-0.5-0.3-0.9-0.3-1.4-0.3c-0.3,0-0.9,0.2-1.1,0.1c-0.2-0.1-0.3-0.6-0.5-0.8c-1-1.3-1.9-0.7-3.2-1.3c-0.5-0.2-0.9,0.4-0.4,0.7
					c0.5,0.4,1.3,0.8,1.7,1.3c0.5,0.6,0.5,1.2,0.9,1.8c0.4,0.5,0.7,0.7,1.4,0.8c0.3,0.1,0.6,0,0.9,0c0.1,0,0-0.5-0.3,0.2
					c-0.5,0.9,0.2,2.1,1,2.4c1.5,0.6,4,0,5.4-0.4c-0.3-0.1-0.6-0.3-0.9-0.4c0.2,0.4-0.1,1.3-0.1,1.8
					C349.4,27.3,349.5,27.4,349.6,27.4L349.6,27.4z"/>
			</g>
			<g>
				<path class="st6" d="M350.7,46.7c4.4-2.5,9.3-4.1,13.4-7.1c4.1-3,8.3-6.8,11.3-11c0.6-0.9-0.6-1.8-1.3-0.9
					c-3.2,4.6-7.7,9.5-12.4,12.6c-3.5,2.4-7.6,4-11.2,6.2C350.5,46.6,350.6,46.7,350.7,46.7L350.7,46.7z"/>
			</g>
			<g>
				<path class="st6" d="M332.6,14.7c5-3.1,10-5.5,15.5-7.4c0.7-0.3,0.5-1.3-0.3-1.2c-5.7,1.3-10.8,4.9-15.5,8.2
					C332.1,14.5,332.3,14.8,332.6,14.7L332.6,14.7z"/>
			</g>
			<g>
				<path class="st6" d="M328.5,47.9c4.2-1.7,8.1-4,12.1-6.2c4.4-2.4,9.9-3.6,13.9-6.7c0.7-0.5,0.1-1.5-0.7-1.1
					c-4.1,2-8.2,3.6-12.1,6c-4.4,2.7-8.6,5.6-13.3,7.8C328.3,47.8,328.4,47.9,328.5,47.9L328.5,47.9z"/>
			</g>
			<g>
				<path class="st6" d="M399.8,16.2c-3.7,0.8-7.4,2.1-10.8,3.6c-0.8,0.3-0.3,1.4,0.5,1.1c3.3-1.6,6.9-3.3,10.4-4.3
					C400.1,16.4,400,16.1,399.8,16.2L399.8,16.2z"/>
			</g>
			<g>
				<path class="st10" d="M391.8,68c1.1,0.3,2,0.2,2.9-0.6c0.8-0.7,1.7-2,1.5-3.1c-0.2-1.3-2-2.5-0.7-3.7c0.4-0.4,1.6-1.2,2.1-1.2
					c1.8-0.1,1.1,2.1,0.9,3.2c-0.1,0.6,0.9,1.1,1.1,0.4c0.5-1.4,1-3.4-0.2-4.6c-1.2-1.2-3.1-0.2-4.2,0.5c-1.3,0.8-2.2,1.7-1.9,3.4
					c0.1,0.8,0.6,1.1,1,1.8c1,1.8-1,3.1-2.6,3.3C391.3,67.3,391.4,67.9,391.8,68L391.8,68z"/>
			</g>
			<g>
				<path class="st8" d="M336.7,108.7c0.1,7.7,0.2,15.6,0.8,23.2c0,0.5,0.9,0.4,0.8-0.1c-0.8-7.6-1.2-15.5-1.5-23.1
					C336.9,108.5,336.7,108.6,336.7,108.7L336.7,108.7z"/>
			</g>
			<g>
				<path class="st8" d="M410,105.9c-4.5,7.2-6.2,16.3-6.6,24.7c0,0.5,0.8,0.7,0.8,0.1c0.3-4.6,1-9.6,2.1-14.1
					c0.9-3.7,3.6-6.8,4.4-10.4C410.7,105.9,410.2,105.6,410,105.9L410,105.9z"/>
			</g>
			<g>
				<path class="st8" d="M382.7,134.5c1.6,1.3,4,1.2,6,1c2.5-0.2,4.9-0.4,7.4-1.1c0.9-0.3,0.4-1.6-0.5-1.4c-4.2,1-8.7-0.3-12.8,1.2
					C382.6,134.2,382.6,134.4,382.7,134.5L382.7,134.5z"/>
			</g>
			<g>
				<path class="st8" d="M370.5,188.8c-0.2-0.1-0.1-2-0.1-2.3c-0.1-0.9-0.1-1.7-0.2-2.6c-0.1-0.4-0.8-0.3-0.7,0.1
					c0.4,1.6,0.3,3.3,0.8,4.8c0,0,0,0,0.1,0C370.4,188.8,370.4,188.9,370.5,188.8C370.5,188.9,370.5,188.8,370.5,188.8L370.5,188.8z
					"/>
			</g>
		</g>
		<g>
			<path class="st1" d="M391,99.1c0.7-1.4,10.8,0.9,11.7,1.3c0.8,0.4,1.9,1.9,2.2,2.7c0.3,0.8-0.9,4.7-1.4,4.9
				c-1,0.5-6.7,0.1-8.4-0.4C393.4,107.1,390,101.1,391,99.1z"/>
			<path class="st1" d="M391.3,100.7c0,0-1.5-3.4-4.2-3.6c-2.7-0.2-0.1,3.7-0.1,3.7l4.2,0.4L391.3,100.7z"/>
		</g>
	</g>
</g>
</svg>
