<svg xmlns="http://www.w3.org/2000/svg" viewBox="0 0 382.22 512"><defs><style>.cls-1{fill:#dae9ec;}.cls-2{fill:#40c4e0;}.cls-3{fill:#0082a0;}.cls-4{fill:#fcb653;}.cls-5{fill:#fde89f;}</style></defs><title>dashcup</title><g id="Layer_2" data-name="Layer 2"><g id="Capa_1" data-name="Capa 1"><path class="cls-1" d="M160.51,295a32.66,32.66,0,0,1,.93,9.24c0,15.45-17.5,43.09-27.58,57.74h114.5c-10.09-14.65-27.58-42.29-27.58-57.74a32.61,32.61,0,0,1,.93-9.24"/><rect class="cls-2" x="97.12" y="361.99" width="187.98" height="55.76"/><rect class="cls-3" x="63.81" y="417.75" width="254.6" height="84.25"/><path class="cls-4" d="M317.42,10H64.8V170.43A126.32,126.32,0,0,0,191.11,296.75h0A126.32,126.32,0,0,0,317.42,170.43Z"/><path d="M103.73,60.12a9.85,9.85,0,0,1-2-.2,10.44,10.44,0,0,1-1.88-.57,10.14,10.14,0,0,1-3.24-2.16,10,10,0,0,1-2.16-3.25,9.39,9.39,0,0,1-.57-1.87,9.66,9.66,0,0,1,0-3.91,9.39,9.39,0,0,1,.57-1.87,10.63,10.63,0,0,1,.92-1.73A10,10,0,0,1,96.66,43a9.57,9.57,0,0,1,1.52-1.24,10.15,10.15,0,0,1,1.72-.92,10.44,10.44,0,0,1,1.88-.57,9.85,9.85,0,0,1,3.9,0,10.1,10.1,0,0,1,1.87.57,9.87,9.87,0,0,1,1.73.92A9.57,9.57,0,0,1,110.8,43,10,10,0,0,1,112,44.56a10.63,10.63,0,0,1,.92,1.73,10.1,10.1,0,0,1,.57,1.87,9.66,9.66,0,0,1,0,3.91,10.1,10.1,0,0,1-.57,1.87,10,10,0,0,1-2.16,3.25,10.15,10.15,0,0,1-1.52,1.24,9.87,9.87,0,0,1-1.73.92,10.1,10.1,0,0,1-1.87.57A9.85,9.85,0,0,1,103.73,60.12Z"/><polygon class="cls-5" points="191.11 194.82 153.49 208.2 154.59 168.29 130.25 136.65 168.54 125.36 191.11 92.43 213.68 125.36 251.97 136.65 227.63 168.29 228.72 208.2 191.11 194.82"/><path d="M228.72,218.2a10,10,0,0,1-3.35-.58l-34.26-12.18-34.27,12.18a10,10,0,0,1-13.34-9.7l1-36.35-22.18-28.82a10,10,0,0,1,5.1-15.69l34.88-10.28,20.56-30a10,10,0,0,1,16.5,0l20.56,30,34.88,10.28a10,10,0,0,1,5.1,15.69l-22.18,28.82,1,36.35a10,10,0,0,1-10,10.28Zm-37.61-33.38a10.13,10.13,0,0,1,3.35.58l23.87,8.49-.7-25.32a10,10,0,0,1,2.07-6.37l15.45-20.08L210.85,135a10.06,10.06,0,0,1-5.42-3.94l-14.32-20.9L176.79,131a10,10,0,0,1-5.42,3.94l-24.3,7.16,15.45,20.08a10,10,0,0,1,2.07,6.37l-.7,25.32,23.87-8.49A10.13,10.13,0,0,1,191.11,184.82Z"/><path d="M275.4,469.87a10,10,0,0,1-7.07-2.93,9.57,9.57,0,0,1-1.24-1.52,10.15,10.15,0,0,1-.92-1.72,10.34,10.34,0,0,1-.57-1.87,10,10,0,0,1-.2-2,9.85,9.85,0,0,1,.2-1.95,10.1,10.1,0,0,1,.57-1.87,10.24,10.24,0,0,1,.92-1.73,9.72,9.72,0,0,1,2.76-2.76,9.87,9.87,0,0,1,1.73-.92,10.1,10.1,0,0,1,1.87-.57,9.85,9.85,0,0,1,3.9,0,10.44,10.44,0,0,1,1.88.57,10.15,10.15,0,0,1,1.72.92,9.57,9.57,0,0,1,1.52,1.24,9.86,9.86,0,0,1,2.17,3.25,10.92,10.92,0,0,1,.57,1.87,9.84,9.84,0,0,1,.19,1.95,9.94,9.94,0,0,1-.19,2,11.2,11.2,0,0,1-.57,1.87,10,10,0,0,1-5.41,5.41,10.44,10.44,0,0,1-1.88.57A9.84,9.84,0,0,1,275.4,469.87Z"/><path d="M372.22,40.44h-44.8V10a10,10,0,0,0-10-10H64.8a10,10,0,0,0-10,10V40.44H10a10,10,0,0,0-10,10V93c0,24.48,3.68,44.2,11.25,60.27,9.26,19.67,24.36,33.42,44.86,40.87.27.1.53.18.8.26a136.78,136.78,0,0,0,94.45,106.4c.06.82.08,1.85.08,3.41,0,8.42-8.68,26.47-22.88,47.74H97.12a10,10,0,0,0-10,10v45.76H63.81a10,10,0,0,0-10,10V492H39.9a10,10,0,1,0,0,20H342.32a10,10,0,0,0,0-20H328.41V417.75a10,10,0,0,0-10-10H295.1V362a10,10,0,0,0-10-10H253.66c-14.2-21.27-22.88-39.32-22.88-47.74,0-1.56,0-2.6.08-3.41a136.78,136.78,0,0,0,94.45-106.4c.26-.08.53-.16.79-.26,20.51-7.45,35.61-21.2,44.87-40.87,7.57-16.07,11.25-35.79,11.25-60.27V50.44A10,10,0,0,0,372.22,40.44ZM20,93V60.44H54.79v110c0,.46,0,.93,0,1.39C31.11,159.44,20,134.12,20,93ZM308.41,492H73.81V469.87H233.88a10,10,0,0,0,0-20H73.81V427.75h234.6ZM275.1,407.75h-168V372h168v35.76ZM229.87,352H152.35c12.27-19.95,18.68-35.6,19.07-46.66a137.22,137.22,0,0,0,39.38,0C211.19,316.39,217.59,332,229.87,352Zm-38.76-65.24A116.44,116.44,0,0,1,74.8,170.43V20H307.42V40.11H140.32a10,10,0,0,0,0,20h167.1V170.43A116.45,116.45,0,0,1,191.11,286.75ZM362.22,93c0,41.08-11.11,66.4-34.8,78.78V60.44h34.8Z"/></g></g></svg>