<?xml version="1.0" encoding="utf-8"?>
<!-- Generator: Adobe Illustrator 22.1.0, SVG Export Plug-In . SVG Version: 6.00 Build 0)  -->
<svg version="1.1" id="Capa_1" xmlns="http://www.w3.org/2000/svg" xmlns:xlink="http://www.w3.org/1999/xlink" x="0px" y="0px"
	 viewBox="0 0 345.1 409.3" style="enable-background:new 0 0 345.1 409.3;" xml:space="preserve">
<style type="text/css">
	.st0{fill:#2056A5;}
	.st1{fill:#EC4033;}
</style>
<g>
	<g>
		<path class="st0" d="M272.2,0c8,2.1,15,5.9,18.6,13.7c1.6,3.5,2.9,7.6,2.9,11.4c0.2,50.8,0.1,101.6,0.1,152.4
			c0,0.4-0.1,0.8-0.2,1.4c-4,0-8.1,0-12.6,0c0-2,0-3.8,0-5.6c0-48.3,0-96.5,0-144.8c0-11.3-4.5-15.7-15.7-15.7c-62,0-124,0-186,0
			c-11.2,0-15.9,4.6-15.9,15.7c0,35.7,0,71.5,0,107.2c0,1.6,0,3.1,0,4.9c-4.4,0-8.3,0-12.6,0c-0.1-1.2-0.2-2.4-0.2-3.5
			c0-35.1-0.1-70.1,0-105.2c0-19,4.1-24.9,21.5-31.9C138.8,0,205.5,0,272.2,0z"/>
		<path class="st0" d="M114,294.2c30.6,0,61.2,0,91,0c-0.2-14.5-0.6-28.8-0.6-43.1c0-12.1,7.3-19.8,18.9-20.4
			c2.1-0.1,4.2,0.3,6.7,0.6c0-1.7,0-3.1,0-4.5c0-17.5,0-34.9,0-52.4c0.1-11.3,6.4-18.8,16.9-20.4c10.7-1.5,20.7,6.4,21.3,17.2
			c0.3,4.6,0.2,9.3,0.2,14c0,4.5,0,9,0,14.1c9-1.4,17-0.3,22.5,7.9c10.1-4,18.8-2.6,25,5.4c5.4-0.2,10.1-1.1,14.7-0.4
			c8,1.2,14.3,8.4,14.4,16.5c0.3,22,0.2,44,0.1,66c0,1.4-0.6,2.8-1.2,4.2c-5.5,13-11.1,25.9-16.6,39c-0.9,2.2-1.2,4.8-1.7,6.8
			c3.3,1.7,6.6,2.5,8.6,4.5c2.1,2.1,4.2,5.4,4.3,8.2c0.4,17.3,0.2,34.6,0.2,52.2c-4.2,0-8.2,0-12.6,0c0-16.8,0-33.6,0-50.6
			c-30,0-59.6,0-89.6,0c0,16.9,0,33.6,0,50.6c-4.4,0-8.4,0-12.9,0c0-2.4,0-4.6,0-6.8c0-13.5,0-26.9,0-40.4c0-10.6,2.5-14,13.4-17.2
			c-0.9-1.9-1.5-3.8-2.6-5.4c-7-9.9-14.1-19.7-21.3-29.4c-0.9-1.3-2.7-2.8-4.1-2.8c-30.8-0.2-61.6-0.1-92.4-0.1
			c-0.5,0-1,0.1-1.7,0.2c0,12.6,0,25.1,0,37.3c2.7,1.3,5.9,1.9,7.8,3.9c2.2,2.4,4.5,5.8,4.6,8.8c0.4,17.2,0.2,34.4,0.2,51.9
			c-4.1,0-8.2,0-12.6,0c0-16.8,0-33.5,0-50.6c-30,0-59.6,0-89.6,0c0,16.8,0,33.5,0,50.6c-4.4,0-8.4,0-12.8,0
			c-0.1-1.3-0.2-2.6-0.2-3.9c0-14.5,0-29.1,0-43.6c0-10.2,2.7-13.8,13.5-16.9c-0.8-5.6-1-11.5-2.7-16.9
			c-7.3-22.9-15.2-45.7-22.7-68.6c-0.7-2.1-0.6-5,0.3-7.1c8-20.6,16.2-41.1,24.6-61.5c0.8-2,2.7-3.9,4.6-4.9c4.8-2.8,9.8-5.3,15-7.5
			c4.1-1.7,5.9-4,6.4-8.7c0.9-8.7,7.6-14.5,16.7-15.7c8.1-1,16.3,3.4,19.4,11.1c1.2,3,1.6,6.5,1.7,9.7c0.2,14.5,0,29.1,0.2,43.6
			c0,2.6,0.7,5.3,1.7,7.6c6.1,15,12.7,29.9,18.3,45.1C111.8,278.4,112.4,286.4,114,294.2z M229.9,275c0-1.6,0-3.1,0-4.5
			c0-6.9,0.1-13.9-0.1-20.8c-0.1-3.7-2.5-6.1-5.9-6.4c-3.2-0.2-6,2.1-6.6,5.6c-0.1,0.6-0.2,1.3-0.2,2c0,10.3-0.1,20.5,0.1,30.8
			c0.1,3.3,0.8,6.6,1.8,9.8c4.7,14.5,13.4,26.6,23.5,37.7c4.1,4.5,8.2,8.7,6.8,15.5c0,0.2,0.3,0.4,0.5,0.7c21,0,42,0,63.4,0
			c-1.3-7.6,2.7-13.5,5.3-19.8c4.1-9.8,8.4-19.6,12.5-29.4c0.6-1.4,1.2-3,1.2-4.6c0.1-20.3,0.1-40.5-0.1-60.8c0-2-1.6-4.7-3.2-5.8
			c-4.1-2.8-9,0.4-9.3,5.9c-0.2,3.9,0,7.9,0,11.9c-4.5,0-8.5,0-12.8,0c0-2.1,0-4,0-5.8c0-4.5,0.1-9.1-0.1-13.6
			c-0.2-3.4-2.4-5.4-5.7-5.6c-3.3-0.3-5.7,1.4-6.5,4.7c-0.3,1.4-0.4,2.9-0.4,4.3c0,5.3,0,10.6,0,16.1c-4.4,0-8.5,0-12.8,0
			c0-7.6,0-14.9,0-22.2c0-6.5-2.1-9.6-6.5-9.5c-4.3,0.1-6.3,3.2-6.3,9.7c0,7.3,0,14.6,0,21.8c-4.5,0-8.6,0-12.8,0c0-1.8,0-3.2,0-4.7
			c0-21.2,0-42.4,0-63.6c0-5.2-2.3-8.1-6.2-8.1c-3.9-0.1-6.4,2.9-6.6,7.9c0,0.7,0,1.3,0,2c0,31.6,0,63.2,0,94.8
			c0,1.3-0.1,2.5-0.2,3.8C238.2,275,234.3,275,229.9,275z M38.4,345.3c21.2,0,42.2,0,63,0c0-14.9,0.4-29.6-0.2-44.2
			c-0.3-7.4-1.6-14.8-3.3-22.1c-4.2-17.9-12.5-34.2-20.1-50.7c-0.9-2-1.4-4.3-1.4-6.5c-0.1-15.7,0-31.5-0.1-47.2
			c0-5.2-2.2-8.1-6.2-8.2c-4-0.1-6.5,3-6.6,8.3c-0.1,9.2,0,18.4-0.1,27.6c0,2.1,0,4.3-0.3,6.4c-2,18.4-4.1,36.8-6.3,55.2
			c-0.1,1.2-1,2.8-2,3.4c-4.5,2.5-9.2,4.7-14.1,7.1c-2-3.9-3.8-7.5-5.7-11.4c2-1,3.6-2,5.3-2.6c3.1-1.2,4.6-3,4.9-6.7
			c1.2-13.3,3-26.5,4.3-39.7c0.8-7.9,0.9-15.8,1.4-24.5c-4.1,2-7.1,3.7-10.3,5c-3.1,1.3-4.7,3.3-5.9,6.4
			c-6.8,17.3-13.9,34.6-20.6,51.9c-0.8,2-0.9,4.7-0.2,6.8c5.6,17.2,11.4,34.3,17.1,51.5c3.6,10.8,8.4,21.4,6.9,33.3
			C38,344.6,38.2,344.9,38.4,345.3z"/>
		<path class="st0" d="M108.4,166.2c0-4.3,0-8.1,0-12.3c36.1,0,72.1,0,108.4,0c0,4,0,8,0,12.3C180.8,166.2,144.8,166.2,108.4,166.2z
			"/>
		<path class="st0" d="M108.4,191.8c0-4.2,0-8.1,0-12.2c36.1,0,72.1,0,108.4,0c0,3.9,0,7.9,0,12.2
			C180.8,191.8,144.8,191.8,108.4,191.8z"/>
		<g>
			<g>
				<path class="st1" d="M82.9,89.4c0-12.7,0-25.2,0-37.9c12.7,0,25.2,0,38,0c0,12.6,0,25.2,0,37.9C108.3,89.4,95.8,89.4,82.9,89.4z
					 M95.8,64.2c0,4.4,0,8.4,0,12.3c4.3,0,8.3,0,12.3,0c0-4.3,0-8.2,0-12.3C103.9,64.2,99.9,64.2,95.8,64.2z"/>
			</g>
		</g>
		<g>
			<g>
				<path class="st1" d="M120.8,140.6c-12.8,0-25.2,0-37.9,0c0-12.6,0-25.1,0-37.9c12.5,0,25,0,37.9,0
					C120.8,115.2,120.8,127.7,120.8,140.6z M108.1,115.4c-4.3,0-8.3,0-12.3,0c0,4.3,0,8.3,0,12.3c4.2,0,8.2,0,12.3,0
					C108.1,123.6,108.1,119.6,108.1,115.4z"/>
			</g>
		</g>
		<path class="st0" d="M134.1,63.8c0-4.1,0-8.1,0-12.3c27.5,0,55,0,82.7,0c0,4,0,8.1,0,12.3C189.3,63.8,161.8,63.8,134.1,63.8z"/>
		<path class="st0" d="M134.1,89.4c0-4.1,0-8.1,0-12.3c27.5,0,55,0,82.7,0c0,4,0,8.1,0,12.3C189.3,89.4,161.8,89.4,134.1,89.4z"/>
		<path class="st0" d="M216.9,102.7c0,4.2,0,8.1,0,12.3c-27.6,0-55.1,0-82.8,0c0-4.1,0-8.1,0-12.3
			C161.6,102.7,189.1,102.7,216.9,102.7z"/>
		<path class="st0" d="M216.9,128.2c0,4.2,0,8.1,0,12.4c-27.6,0-55,0-82.8,0c0-4.1,0-8.1,0-12.4
			C161.7,128.2,189.1,128.2,216.9,128.2z"/>
		<path class="st0" d="M108.5,204.9c27.7,0,55.1,0,82.7,0c0,4.2,0,8.2,0,12.4c-27.6,0-55.1,0-82.7,0
			C108.5,213.2,108.5,209.3,108.5,204.9z"/>
		<path class="st0" d="M191.3,230.7c0,4.1,0,8,0,12.2c-27.6,0-55,0-82.8,0c0-4,0-7.9,0-12.2C135.9,230.7,163.4,230.7,191.3,230.7z"
			/>
		<path class="st0" d="M191.3,262.6c0,4.2,0,8.1,0,12.3c-12.6,0-25.2,0-38,0c0-4.1,0-8.1,0-12.3C166,262.6,178.4,262.6,191.3,262.6z
			"/>
		<g>
			<path class="st1" d="M255.3,51.5c0,4.3,0,8.2,0,12.3c-4.1,0-8.1,0-12.3,0c0-4,0-8,0-12.3C247,51.5,251,51.5,255.3,51.5z"/>
		</g>
		<g>
			<path class="st1" d="M255.2,89.4c-4.3,0-8.2,0-12.3,0c0-4.1,0-8,0-12.3c4,0,8,0,12.3,0C255.2,81.1,255.2,85.1,255.2,89.4z"/>
		</g>
		<g>
			<path class="st1" d="M243,102.6c4.2,0,8.2,0,12.3,0c0,4.1,0,8,0,12.3c-4,0-8,0-12.3,0C243,110.9,243,106.9,243,102.6z"/>
		</g>
		<g>
			<path class="st1" d="M242.9,140.6c0-4.2,0-8.1,0-12.3c4.1,0,8.1,0,12.4,0c0,4.1,0,8.1,0,12.3
				C251.2,140.6,247.3,140.6,242.9,140.6z"/>
		</g>
		<g>
			<path class="st1" d="M50.5,371.4c0,4.1,0,8,0,12.3c-4,0-8,0-12.3,0c0-4,0-8,0-12.3C42.3,371.4,46.3,371.4,50.5,371.4z"/>
		</g>
		<g>
			<path class="st1" d="M249.3,383.7c0-4.2,0-8.2,0-12.3c4.1,0,8,0,12.3,0c0,4,0,8,0,12.3C257.7,383.7,253.7,383.7,249.3,383.7z"/>
		</g>
	</g>
</g>
</svg>
