<svg xmlns="http://www.w3.org/2000/svg" viewBox="0 0 55 50"><defs><style>.cls-1{isolation:isolate;}.cls-2{fill:#50a40e;}.cls-2,.cls-3{fill-rule:evenodd;}.cls-3{fill:#18a8ce;}</style></defs><title>dashpract02</title><g id="Layer_2" data-name="Layer 2"><g id="Shape_3" data-name="Shape 3" class="cls-1"><path class="cls-2" d="M38.45,32.3C35.74,30.22,33,28.12,30.32,26a.93.93,0,0,1-.42-.85c0-4.09,0-8.17,0-12.26V8.09A1.11,1.11,0,0,0,29.3,7a1.1,1.1,0,0,0-1.18,0,1.18,1.18,0,0,0-.52,1.11c0,3,0,6,0,8.93h0c0,3,0,5.95,0,8.93a1.3,1.3,0,0,0,.46,1.15c3,2.34,6.07,4.69,9.12,7a1.26,1.26,0,0,0,1,.2,1.58,1.58,0,0,0,.81-.82C39.2,33.08,38.9,32.64,38.45,32.3Z"/><path class="cls-3" d="M54.59,20.63C52.8,10.91,46.81,4.55,37.48,1.25A24.56,24.56,0,0,0,29.54,0c-1,0-1.63.37-1.66,1.13s.55,1.2,1.53,1.2a2.43,2.43,0,0,1,.27,0,43.51,43.51,0,0,1,4.85.47A22.76,22.76,0,0,1,52.39,29.1,23,23,0,0,1,7.47,30.16C7.2,29,7.08,27.78,6.89,26.6l.16-.05.57.46c.89.76,1.78,1.53,2.68,2.28a1.13,1.13,0,0,0,1.36.13,1,1,0,0,0,.53-1.14,1.8,1.8,0,0,0-.53-.83C10,26,8.29,24.52,6.59,23.06a1.22,1.22,0,0,0-1.74.08L.48,27.49a1.69,1.69,0,0,0-.4.56A1.12,1.12,0,0,0,.5,29.38,1.16,1.16,0,0,0,2,29.23c.85-.83,1.68-1.68,2.59-2.59.17,1.08.28,2.06.47,3A25.08,25.08,0,0,0,34.36,49.57,24.78,24.78,0,0,0,54.59,20.63ZM24.48,2.85a1.26,1.26,0,0,0,1.34-1.19A1.14,1.14,0,0,0,24.67.5a1.26,1.26,0,0,0-1.38,1.21A1.18,1.18,0,0,0,24.48,2.85ZM9.61,13a1.38,1.38,0,0,0,1.29-1.27,1.17,1.17,0,0,0-1.12-1.21,1.41,1.41,0,0,0-1.32,1.31A1.15,1.15,0,0,0,9.61,13ZM7.47,17.1a1.29,1.29,0,0,0,1.27-1.34A1.18,1.18,0,0,0,7.57,14.6a1.29,1.29,0,0,0-1.22,1.32A1.11,1.11,0,0,0,7.47,17.1ZM20,4.25A1.35,1.35,0,0,0,21.42,3,1.15,1.15,0,0,0,20.3,1.87a1.31,1.31,0,0,0-1.4,1.2A1.15,1.15,0,0,0,20,4.25ZM16,6.49a1.39,1.39,0,0,0,1.33-1.3,1.15,1.15,0,0,0-1.18-1.13,1.44,1.44,0,0,0-1.32,1.27A1.18,1.18,0,0,0,16,6.49ZM12.46,9.43a1.37,1.37,0,0,0,1.33-1.29A1.17,1.17,0,0,0,12.64,7a1.42,1.42,0,0,0-1.3,1.28A1.12,1.12,0,0,0,12.46,9.43Z"/></g></g></svg>