<?xml version="1.0" encoding="utf-8"?>
<!-- Generator: Adobe Illustrator 22.1.0, SVG Export Plug-In . SVG Version: 6.00 Build 0)  -->
<svg version="1.1" id="Layer_1" xmlns="http://www.w3.org/2000/svg" xmlns:xlink="http://www.w3.org/1999/xlink" x="0px" y="0px"
	 viewBox="0 0 409.6 342.9" style="enable-background:new 0 0 409.6 342.9;" xml:space="preserve">
<style type="text/css">
	.st0{fill:#2056A5;}
	.st1{fill:#EC4033;}
</style>
<g>
	<path class="st0" d="M278.9,60.8c-29.6,0-59.1,0-88.7,0c-4.8,0-7.5,2.2-7.5,5.9c0,3.6,2.8,5.9,7.4,6.1c0.5,0,1.1,0,1.6,0
		c58.1,0,116.2,0,174.3,0c1.4,0,3-0.1,4.3-0.5c3-0.8,4.4-2.9,4.2-5.9c-0.2-3-1.9-4.9-4.9-5.4c-1.4-0.2-2.9-0.2-4.4-0.2
		C336.4,60.8,307.7,60.8,278.9,60.8z M278.4,300.5C278.4,300.5,278.4,300.5,278.4,300.5c28.8,0,57.6,0,86.3,0c1.7,0,3.5,0,5.2-0.3
		c3-0.6,4.6-2.6,4.7-5.6c0-3-1.5-5.1-4.5-5.7c-1.7-0.3-3.4-0.4-5.2-0.4c-45,0-90.1,0-135.1-0.1c-13.2,0-26.4,0-39.6,0.1
		c-4.8,0-7.5,2.3-7.6,5.9c-0.1,3.6,2.7,5.9,7.4,6c1.1,0,2.1,0,3.2,0C221.6,300.5,250,300.5,278.4,300.5z"/>
	<path class="st0" d="M409.6,209.8c-2.1,6-4.6,12-10.5,14.9c-4.4,2.2-9.5,4-14.3,4c-70.8,0.3-141.5,0.2-212.3,0.2
		c-14.9,0-24.6-9.6-24.7-24.4c-0.2-15.5-0.1-30.9-0.1-46.4c0-16.3,9.6-25.8,25.9-25.8c68,0,135.9,0,203.9,0c3.6,0,7.2-0.1,10.8,0.3
		c10.3,1.2,17,6.9,20.3,16.7c0.2,0.7,0.6,1.4,1,2.1C409.6,170.9,409.6,190.3,409.6,209.8z M278.8,216.9c35.2,0,70.4,0,105.6,0
		c8.8,0,13.2-4.5,13.2-13.3c0-15.3,0-30.7,0-46c0-8.8-4.5-13.3-13.3-13.3c-70.3,0-140.5,0-210.8,0c-9.6,0-13.8,4.2-13.8,14
		c0,14.8,0,29.6,0,44.4c0,10.2,4,14.3,14.3,14.3C208.9,217,243.9,217,278.8,216.9z"/>
	<path class="st0" d="M409.6,95.4c-1.8,5.6-4.2,10.9-9.1,14.7c-4.9,3.8-10.5,5-16.5,5c-70.2,0-140.5,0-210.7,0
		c-16.1,0-25.5-9.5-25.6-25.7c-0.1-15.2,0-30.4,0-45.6c0.1-15.8,9.6-25.2,25.5-25.2c29.5,0,58.9,0,88.4,0c1.2,0,2.4-0.1,3.6,0.1
		c3.1,0.5,5.1,2.4,5.2,5.6c0.1,3.3-1.7,5.3-4.8,6c-1.4,0.3-2.9,0.3-4.4,0.3c-29.3,0-58.7,0-88,0c-9.5,0-13.6,4.1-13.6,13.6
		c0,15.2,0,30.4,0,45.6c0,9,4.2,13.2,13.2,13.2c70.4,0,140.8,0,211.1,0c9.2,0,13.4-4.3,13.5-13.5c0-15.3,0-30.7,0-46
		c0-8.6-4.4-13-13.1-13c-29.3,0-58.7,0-88,0c-1.1,0-2.1,0-3.2,0c-4-0.2-6.7-2.6-6.7-6c0-3.4,2.6-5.9,6.7-5.9
		c31.2,0,62.4-0.1,93.6,0.1c10.1,0.1,18.3,6.6,21.5,16.2c0.3,1,0.8,2,1.2,2.9C409.6,57,409.6,76.2,409.6,95.4z"/>
	<path class="st0" d="M409.6,323.4c-1.3,3-2.3,6.3-4.1,9c-4.7,7-11.5,10.3-20,10.3c-30.3,0-60.5,0-90.8,0c-0.5,0-1.1,0-1.6,0
		c-3.9-0.3-6.4-2.5-6.3-5.8c0.1-3.6,2.3-5.6,5.8-6c1.3-0.2,2.7-0.1,4-0.1c29.1,0,58.1,0,87.2,0c9.8,0,13.9-4,13.9-13.8
		c0-15.1,0-30.1,0-45.2c0-9-4.2-13.4-13.1-13.4c-70.5,0-141.1,0-211.6,0c-9,0-13.1,4.2-13.1,13.3c0,15.2,0,30.4,0,45.6
		c0,9.5,4.1,13.5,13.7,13.5c29.2,0,58.4,0,87.6,0c1.8,0,3.8,0.1,5.5,0.6c2.9,0.9,4.7,3.4,3.7,6.2c-0.7,2-3,3.5-4.8,5
		c-0.6,0.5-1.8,0.2-2.7,0.2c-30.1,0-60.3,0.1-90.4,0c-12.3,0-21.1-6.7-23.9-17.8c-0.6-2.4-0.7-5-0.7-7.5c-0.1-15.2-0.1-30.4,0-45.6
		c0.1-16,9.4-25.4,25.4-25.4c70.3,0,140.5,0,210.8,0c13.6,0,19.8,4.7,25.7,19.4C409.6,285,409.6,304.2,409.6,323.4z"/>
	<path class="st1" d="M0,151.4c1.8-3.5,3.2-7.3,5.6-10.4c4.9-6.4,11.9-8.7,19.7-8.7c15.3,0,30.7-0.3,46,0.2
		c5.4,0.2,10.7,2.1,17.3,3.5c3.4-4,7.8-9.3,12.4-14.4c7.5-8.4,18.2-10.2,27-4.5c10.8,7,12.7,20.8,3.9,31.2
		c-8.4,10-16.5,20.3-25.6,29.7c-7.2,7.4-10.5,15.2-9.9,25.8c0.8,15.4-9.7,25.1-25.2,25.1c-15.1,0-30.1,0-45.2,0
		c-13.5,0-21-5.5-25.3-18.2c-0.1-0.4-0.4-0.6-0.7-1C0,190.3,0,170.9,0,151.4z M79.9,146.2c-2.1-0.6-3.4-1.2-4.8-1.2
		c-17.3-0.2-34.6-0.6-52-0.4c-6.8,0.1-11.1,4.9-11.1,11.7c-0.1,16.4-0.1,32.8,0,49.2c0,6.5,4.5,11.4,11,11.4
		c16.9,0.2,33.9,0.2,50.8,0c6.6-0.1,10.8-5.5,10.2-12.2c-1.5,1.5-2.9,2.9-4.3,4.3c-9,8.5-21.7,8.2-29.7-1.3
		c-7.3-8.7-14.2-17.7-20.7-26.9c-6.5-9.2-4.1-21,4.8-27.7c8.8-6.5,20.8-4.9,27.9,3.8c1.3,1.6,2.7,3.2,4.3,5.2
		C70.8,156.8,75,151.8,79.9,146.2z M65.6,204.1c2.9-2.2,5.8-3.6,7.7-5.8c16.2-18.6,32.1-37.4,48.2-56.2c1-1.2,2-2.5,2.8-3.9
		c1.9-3.5,1.1-7.6-1.8-10.2c-3-2.6-7.4-2.8-10.6-0.1c-2,1.7-3.7,3.8-5.5,5.8c-11.5,13.5-23,26.9-34.6,40.4c-4,4.7-7.8,4.6-11.5-0.2
		c-2.3-2.9-4.5-6-6.8-8.9c-3.6-4.4-8.3-5.2-12.2-2.2c-4,3.1-4.6,7.7-1.2,12.3c6.1,8.1,12.2,16.2,18.6,24
		C60.1,201.1,62.7,202.1,65.6,204.1z"/>
	<path class="st1" d="M0,37.8C0.7,36,1.3,34,2.2,32.3C6.4,23.7,13.4,18.8,23,18.6c16.9-0.2,33.8-0.3,50.8,0.1
		c4.6,0.1,9.1,2.3,14.5,3.7c3.7-4.3,8.1-9.6,12.7-14.7c7.5-8.3,18.4-10,27-4.4c10.7,7,12.5,20.7,4,30.9c-7.5,9-14.9,18.2-22.9,26.6
		c-8.3,8.7-13.8,17.5-13,30.7c0.9,13.6-8.7,22.6-22.2,23.1c-17,0.6-34.1,0.4-51.1,0c-11.2-0.3-18.5-6.6-21.9-17.2
		c-0.2-0.7-0.5-1.5-0.8-2.2C0,76.2,0,57,0,37.8z M80.4,31.8c-4.5-0.5-7.8-1.1-11.2-1.2c-14.7-0.1-29.3-0.1-44,0
		c-8.9,0-13.2,4.3-13.2,13.2c0,15.1,0,30.1,0,45.2c0,10,4.1,14.1,14.1,14.1c14.8,0,29.6,0,44.4,0c1.7,0,3.5-0.1,5.2-0.4
		c5.5-1.1,8.8-5.7,8.5-12.4c-0.9,1.1-1.4,1.8-2,2.5c-10.5,11.6-24.5,11.1-34.1-1.3c-5.9-7.6-11.8-15.1-17.5-22.8
		c-7.4-10-5.9-22.2,3.6-29.4c8.9-6.7,21.3-4.8,28.8,4.5c1.1,1.4,2.2,2.8,3.5,4.4C71,42.7,75.2,37.8,80.4,31.8z M45.9,46
		c-2.8,2.2-5.5,3.7-7.1,6c-2.1,3-1.1,6.4,1.1,9.3c5.9,7.7,11.8,15.4,17.8,23.1c4.8,6.2,10.2,6.3,15.3,0.4
		c16.2-18.9,32.4-37.8,48.6-56.8c1-1.2,2.1-2.5,2.8-3.9c1.8-3.5,0.9-7.7-2-10.1c-2.9-2.4-6.9-2.6-10-0.4c-1.4,1-2.6,2.3-3.7,3.6
		c-12.1,14-24.1,28.1-36.2,42.2c-5.1,5.9-8.2,5.8-13.1-0.5c-2-2.6-3.8-5.5-6.2-7.8C51.4,49.3,48.9,48,45.9,46z"/>
	<path class="st0" d="M0,258.6c3.4-9.4,10.2-12.6,19.9-12.4c19.4,0.4,38.9,0.1,58.3,0.1c12.4,0,18.3,6,18.3,18.4
		c0,19.8,0,39.7,0,59.5c0,12.5-5.9,18.4-18.3,18.4c-19.4,0-38.9-0.3-58.3,0.1c-9.7,0.2-16.5-3-19.9-12.3C0,306.6,0,282.6,0,258.6z
		 M48.4,330.7c10.3,0,20.5-0.1,30.8,0c3.7,0,5.4-1.4,5.4-5.2c0-20.7,0-41.3,0-62c0-3.7-1.5-5.3-5.3-5.3c-20.7,0.1-41.3,0-62,0.1
		c-4.4,0-5.3,1-5.3,5.5c0,20.4,0,40.8,0,61.2c0,4.7,0.9,5.6,5.6,5.6C27.9,330.7,38.1,330.7,48.4,330.7z"/>
	<path class="st1" d="M278.9,60.8c28.8,0,57.6,0,86.3,0c1.5,0,3-0.1,4.4,0.2c3,0.5,4.7,2.4,4.9,5.4c0.2,3-1.3,5.1-4.2,5.9
		c-1.4,0.4-2.9,0.5-4.3,0.5c-58.1,0-116.2,0-174.3,0c-0.5,0-1.1,0-1.6,0c-4.7-0.2-7.5-2.4-7.4-6.1c0-3.7,2.7-5.9,7.5-5.9
		C219.7,60.8,249.3,60.8,278.9,60.8z"/>
	<path class="st1" d="M278.4,300.5c-28.4,0-56.8,0-85.1,0c-1.1,0-2.1,0-3.2,0c-4.7-0.2-7.4-2.4-7.4-6c0.1-3.6,2.8-5.9,7.6-5.9
		c13.2-0.1,26.4-0.1,39.6-0.1c45,0,90.1,0,135.1,0.1c1.7,0,3.5,0,5.2,0.4c3,0.6,4.5,2.7,4.5,5.7c0,3.1-1.7,5-4.7,5.6
		c-1.7,0.3-3.4,0.3-5.2,0.3C335.9,300.5,307.2,300.5,278.4,300.5C278.4,300.5,278.4,300.5,278.4,300.5z"/>
	<path class="st1" d="M278.9,186.7c-28.9,0-57.8,0-86.7,0c-1.3,0-2.7,0.1-4-0.1c-3.4-0.4-5.4-2.6-5.4-5.9c-0.1-3.1,1.8-5.2,5-5.9
		c1.2-0.2,2.4-0.2,3.6-0.2c58.2,0,116.4,0,174.7,0c1.2,0,2.4-0.1,3.6,0.2c3.3,0.7,5.2,2.7,5,6.2c-0.2,3.3-2.2,5-5.3,5.5
		c-1.3,0.2-2.7,0.1-4,0.1C336.4,186.6,307.6,186.6,278.9,186.7C278.9,186.6,278.9,186.7,278.9,186.7z"/>
</g>
</svg>
