<svg xmlns="http://www.w3.org/2000/svg" viewBox="0 0 71 72"><defs><style>.cls-1{isolation:isolate;}.cls-2{fill:#50a40e;}.cls-2,.cls-3{fill-rule:evenodd;}.cls-3{fill:#18a8ce;}</style></defs><title>Asset 1</title><g id="Layer_2" data-name="Layer 2"><g id="Shape_4" data-name="Shape 4" class="cls-1"><g id="Shape_4-2" data-name="Shape 4"><path class="cls-2" d="M34.51,10.46a5.38,5.38,0,0,0-3.32,0V1.21A1.21,1.21,0,0,0,30,0H1.2A1.21,1.21,0,0,0,0,1.21V30.35a1.21,1.21,0,0,0,1.2,1.21h9.13a5.61,5.61,0,0,0,3.6,7,5.52,5.52,0,0,0,6.93-3.65,5.66,5.66,0,0,0,0-3.36H30a1.21,1.21,0,0,0,1.2-1.21V21.11a5.51,5.51,0,0,0,6.92-3.65A5.59,5.59,0,0,0,34.51,10.46Zm-.69,8.32a3.07,3.07,0,0,1-1.94,0l-1.51-.51a1.21,1.21,0,0,0-1.58,1.15v9.71h-9.6a1.2,1.2,0,0,0-1.13,1.6l.5,1.53a3.17,3.17,0,0,1-2,4,3.14,3.14,0,0,1-3.93-4l.5-1.53a1.21,1.21,0,0,0-.76-1.53,1,1,0,0,0-.37-.07H2.4V2.43H28.79v9.71a1.2,1.2,0,0,0,1.58,1.15l1.51-.51a3.11,3.11,0,0,1,3.93,2A3.16,3.16,0,0,1,33.82,18.78Z"/></g></g><g id="Shape_5" data-name="Shape 5" class="cls-1"><g id="Shape_5-2" data-name="Shape 5"><path class="cls-3" d="M69.8,11.24H41a1.21,1.21,0,0,0-1.2,1.22V23.39A1.21,1.21,0,0,0,41,24.61a1,1,0,0,0,.38-.07l1.51-.5a3.11,3.11,0,0,1,3.94,2,3.17,3.17,0,0,1-2,4,3.07,3.07,0,0,1-1.94,0l-1.51-.51a1.21,1.21,0,0,0-1.58,1.15v9.73H30.17A1.21,1.21,0,0,0,29,42l.51,1.53a3.18,3.18,0,0,1-2,4,3.12,3.12,0,0,1-3.94-2,3.31,3.31,0,0,1,0-2L24.1,42a1.21,1.21,0,0,0-.76-1.53,1.19,1.19,0,0,0-.37-.06H12.16A1.21,1.21,0,0,0,11,41.62V70.79A1.21,1.21,0,0,0,12.16,72H69.8A1.21,1.21,0,0,0,71,70.79V12.46A1.21,1.21,0,0,0,69.8,11.24Zm-30,48.23a1.21,1.21,0,0,0-.06.38v9.72H13.36V42.84H21.3a5.6,5.6,0,0,0,3.61,7,5.52,5.52,0,0,0,6.93-3.65,5.66,5.66,0,0,0,0-3.36h7.94v9.72a1.2,1.2,0,0,0,1.58,1.15l1.51-.51a3.12,3.12,0,0,1,3.94,2,3.14,3.14,0,0,1-3.94,4l-1.51-.51A1.19,1.19,0,0,0,39.84,59.47Zm2.34,10.1v-8a5.51,5.51,0,0,0,6.93-3.65,5.6,5.6,0,0,0-3.61-7,5.53,5.53,0,0,0-3.32,0v-8h9.61a1.22,1.22,0,0,0,1.14-1.6l-.51-1.53a3.18,3.18,0,0,1,2-4,3.13,3.13,0,0,1,3.94,2,3.31,3.31,0,0,1,0,2l-.51,1.53a1.21,1.21,0,0,0,.76,1.53,1.27,1.27,0,0,0,.38.07H68.6V69.57ZM68.6,40.41H60.66a5.61,5.61,0,0,0-3.61-7A5.52,5.52,0,0,0,50.12,37a5.69,5.69,0,0,0,0,3.37H42.18v-8a5.42,5.42,0,0,0,4.91-.79,5.64,5.64,0,0,0,1.29-7.8,5.48,5.48,0,0,0-6.2-2.07v-8H68.6Z"/></g></g></g></svg>