<!--<svg version="1.1" id="Layer_1" xmlns="http://www.w3.org/2000/svg" xmlns:xlink="http://www.w3.org/1999/xlink" x="0px" y="0px" viewBox="0 0 263 202.7" style="enable-background:new 0 0 263 202.7;" xml:space="preserve">-->
<svg style="display: none;">
<!--
<style type="text/ css">
	.st0{fill:#2458A5;} 
	.st1{fill:#EC4134;}
	.st2{fill:#F68C1F;}
	.st3{fill:#3061AA;}
	.st4{fill:#848484;}
</style>
-->
<g id="dashtop01">
	<path style="fill: var(--primary-color, #2458A5)" class="st0" d="M131.2,155.3c-41.8,0-83.7,0-125.5,0c-4.7,0-5.7-0.9-5.7-5.1c0-4.1,1.1-5.1,5.3-5.1c43.4,0,86.7,0,130.1,0
		c40.7,0,81.5,0,122.2,0c4.5,0,5.4,0.9,5.3,5.4c-0.1,3.9-1,4.8-5.3,4.8c-32.1,0-64.2,0-96.3,0C151.3,155.3,141.3,155.3,131.2,155.3z
		"/>
	<path style="fill: var(--secondary-color, #EC4134)" class="st1" d="M131.3,139.5c-8.5-0.1-15.5-6.7-16-15.1c-0.5-8.4,5.6-15.7,14.1-16.9c1.7-0.2,3.4-0.9,4.8-1.8
		c10.9-6.9,21.6-13.9,32.5-20.9c4.4-2.8,7.2-2.6,9.9,0.4c2,2.3,2.2,4.7,0.7,7.2c-0.7,1.2-1.6,2.3-2.6,3.3
		c-8.4,9.2-16.8,18.3-25.2,27.6c-1.3,1.4-2.2,3.2-2.8,5C144.4,135,138.3,139.5,131.3,139.5z M149.1,108.9c-0.2-0.1-0.3-0.3-0.5-0.4
		c-3.9,2.5-7.8,5.2-11.8,7.6c-1.4,0.8-3.2,1.3-4.8,1.4c-3.7,0.2-6.2,2.1-6.5,5.5c-0.2,3.3,2.1,6.1,5.3,6.4c3.5,0.4,6-1.9,6.7-5.7
		c0.3-1.4,0.9-2.9,1.8-4C142.4,116,145.8,112.5,149.1,108.9z"/>
	<path style="fill: var(--primary-color, #2458A5)" class="st0" d="M29.3,119.6c5.6,0,11.1,0,16.7,0c3.7,0,4.7,1.2,4.7,5.1c0,3.9-1,5.1-4.7,5.1c-11.1,0-22.2,0-33.4,0
		c-3.7,0-4.7-1.2-4.7-5.1c0-3.9,1-5,4.7-5.1C18.2,119.6,23.7,119.6,29.3,119.6z"/>
	<path style="fill: var(--primary-color, #2458A5)" class="st0" d="M127.8,21.1c0-5.5,0-10.9,0-16.4c0-3.9,1-4.8,5.3-4.8c3.9,0,4.9,0.9,4.9,4.8c0,10.9,0,21.8,0,32.7
		c0,4.2-1.1,5.2-5.3,5.2c-3.8,0-4.9-1.1-4.9-5.2C127.8,32,127.8,26.6,127.8,21.1z"/>
	<path style="fill: var(--primary-color, #2458A5)" class="st0" d="M236.8,128.6c-5.7,0-11.3,0-17,0c-3.6,0-4.4-1.1-4.4-5.2c0-3.9,0.7-4.8,4.5-4.8c11.2,0,22.5-0.1,33.7,0
		c3.6,0,4.5,1.1,4.5,5.2c0,3.6-1.1,4.8-4.6,4.8C248,128.7,242.4,128.6,236.8,128.6z"/>
	<path style="fill: var(--primary-color, #2458A5)" class="st0" d="M194.1,68.9c-1.8-1.8-3.9-3.2-4.9-5.2c-0.5-1,0.4-3.4,1.4-4.4c7.8-8,15.7-15.8,23.6-23.7
		c2.7-2.7,4-2.6,6.8,0.2c2.8,2.8,3,4.2,0.3,6.8c-7.9,7.9-15.7,15.8-23.6,23.6C196.8,67.1,195.7,67.8,194.1,68.9z"/>
	<path style="fill: var(--primary-color, #2458A5)" class="st0" d="M47.8,33.6c1.5,1,2.6,1.6,3.4,2.4c8,7.9,15.9,15.9,23.9,23.8c2.5,2.5,2.4,4-0.2,6.6c-2.9,3-4.3,3.1-6.8,0.6
		c-8-7.9-16-15.8-23.8-23.9c-1-1-1.9-3.4-1.4-4.4C44,36.8,46,35.4,47.8,33.6z"/>
	<path style="fill: var(--secondary-color, #EC4134)" class="st1" d="M170.8,40.8c-6.1-0.7-7.8-3.4-5.8-8.1c1.2-3,2.5-6.1,3.8-9c1.4-3.1,2.7-3.5,6.3-1.9c3.5,1.4,4.2,2.6,3,5.6
		c-1.4,3.6-2.9,7.3-4.6,10.8C172.9,39.4,171.5,40.3,170.8,40.8z"/>
	<path style="fill: var(--secondary-color, #EC4134)" class="st1" d="M48.9,84.1c-0.8,6.3-3.4,7.8-8.3,5.8c-3-1.3-6.1-2.5-9-3.8c-3.1-1.4-3.4-2.7-1.8-6.4c1.5-3.4,2.6-4.1,5.7-2.9
		c3.5,1.4,7.1,2.8,10.5,4.5C47.3,82,48.3,83.4,48.9,84.1z"/>
	<path style="fill: var(--secondary-color, #EC4134)" class="st1" d="M94.3,39.7c-0.6-0.6-1.9-1.4-2.5-2.6c-1.7-3.5-3.1-7.2-4.5-10.8c-1.2-3-0.3-4.3,3.3-5.8c3.3-1.3,4.7-0.9,6,2.1
		c1.4,3.1,2.6,6.2,3.9,9.3C102.4,36.4,100.1,39.7,94.3,39.7z"/>
	<path style="fill: var(--secondary-color, #EC4134)" class="st1" d="M220.4,93.4c-4.2-0.4-4.7-3.3-5.1-5.5c-0.2-1.2,0.9-3.4,2.1-4c3.6-1.9,7.5-3.5,11.4-4.7
		c1.2-0.4,3.6,0.4,4.3,1.4c1.3,1.9,3.4,5,0.7,6.7C229.5,90,224.5,91.6,220.4,93.4z"/>
</g>
<g id="dashtop02">
	<g>
		<g>
			<path  style="fill: var(--tertiary-color, #F68C1F)" class="st2" d="M105.5,13.3H57.3c-1.6,0-2.9,1.3-2.9,2.9s1.3,2.9,2.9,2.9h48.2c1.6,0,2.9-1.3,2.9-2.9S107.1,13.3,105.5,13.3
				z"/>
		</g>
	</g>
	<g>
		<g>
			<circle  style="fill: var(--tertiary-color, #F68C1F)" class="st2" cx="17.3" cy="16.2" r="3.5"/>
		</g>
	</g>
	<g>
		<g>
			<circle  style="fill: var(--tertiary-color, #F68C1F)" class="st2" cx="30.7" cy="16.2" r="3.5"/>
		</g>
	</g>
	<g>
		<g>
			<circle  style="fill: var(--tertiary-color, #F68C1F)" class="st2" cx="43.3" cy="16.2" r="3.5"/>
		</g>
	</g>
	<g>
		<g>
			<circle  style="fill: var(--tertiary-color, #F68C1F)" class="st2" cx="151" cy="16.2" r="3.5"/>
		</g>
	</g>
	<g>
		<g>
			<path style="fill: var(--primary-color, #2458A5)" class="st0" d="M168,40.8L168,40.8C168,40.8,168,40.8,168,40.8z"/>
			<path style="fill: var(--primary-color, #2458A5)" class="st0" d="M76.4,139.1c0,0,2.9,0,2.9-2.9c0-2.2-1.6-2.7-2.4-2.8H63.4c0.5-1.2,1-2.4,1.4-3.7l3.2-0.4
				c4-0.5,6.9-3.9,6.9-7.9v-11.3c0-4-3-7.4-6.9-7.9c0,0,0,0,0,0l-3.2-0.4c-0.7-2-1.5-4-2.5-5.9l2-2.5c2.5-3.1,2.2-7.7-0.7-10.5l-8-8
				c-2.8-2.8-7.3-3.1-10.5-0.7l-2.6,2c-1.9-1-3.9-1.8-5.9-2.4l-0.4-3.2c-0.5-4-3.9-6.9-7.9-6.9H17.2c-4,0-7.4,3-7.9,6.9l-0.4,3.2
				c-1.1,0.3-2.1,0.7-3.1,1.2V32.1h15c1.6,0,2.9-1.3,2.9-2.9c0-1.6-1.3-2.9-2.9-2.9h-15V13.8c0-4.4,3.6-8.1,8.1-8.1h140.4
				c4.4,0,8.1,3.6,8.1,8.1v12.5H37.5c-1.6,0-2.9,1.3-2.9,2.9c0,1.6,1.3,2.9,2.9,2.9h124.8v8.8c0,0.5,0.3,2.8,2.9,2.8
				c2.7,0,2.8-2.5,2.8-2.8v0v-0.4V13.8C168,6.2,161.8,0,154.2,0H13.8C6.2,0,0,6.2,0,13.8v65.7v21.8v24c0,7.6,6.2,13.8,13.8,13.8
				h22.6h22.8H74v0H76.4z M35.5,133.3H13.8c-4.4,0-8.1-3.6-8.1-8.1v-23.1c4.1-5.2,10.4-8.2,17-8.2c12,0,21.7,9.8,21.7,21.7
				C44.5,122.7,41.2,129.3,35.5,133.3z M59.8,126.3c-0.7,2.4-1.6,4.8-2.8,7.1H43.9v0c4.1-4.9,6.4-11.1,6.4-17.6
				c0-15.2-12.3-27.5-27.5-27.5c-6.2,0-12.2,2.1-17,5.9V81.2c2.1-1,4.3-1.9,6.5-2.5c1.1-0.3,1.9-1.3,2.1-2.4l0.6-5
				c0.1-1.1,1.1-1.9,2.2-1.9h11.3c1.1,0,2,0.8,2.2,1.9l0.6,5c0.1,1.1,1,2.1,2.1,2.4c2.8,0.8,5.6,2,8.2,3.4c1,0.6,2.3,0.5,3.2-0.2
				l4-3.1c0.9-0.7,2.1-0.6,2.9,0.2l8,8c0.8,0.8,0.8,2,0.2,2.9l-3.1,4c-0.7,0.9-0.8,2.2-0.2,3.2c1.5,2.6,2.6,5.4,3.4,8.2
				c0.3,1.1,1.3,1.9,2.4,2.1l5,0.6c1.1,0.1,1.9,1.1,1.9,2.2v11.3c0,1.1-0.8,2-1.9,2.2l-5,0.6C61.1,124.3,60.1,125.2,59.8,126.3z"/>
		</g>
	</g>
	<g>
		<g>
			<g>
				<path style="fill: var(--secondary-color, #EC4134)" class="st1" d="M169.8,124.4L143.1,77c-1-1.8-2.9-2.9-5-2.9c0,0,0,0,0,0c-2.1,0-4,1.2-5,3l-26.1,47.5c-1,1.8-1,3.9,0.1,5.7
					c1,1.8,2.9,2.8,5,2.8h52.8c2.1,0,3.9-1.1,5-2.9C170.8,128.4,170.8,126.3,169.8,124.4z M111.9,127.3L111.9,127.3l26.1-47.5
					l26.7,47.5H111.9z"/>
			</g>
		</g>
	</g>
	<g>
		<g>
			<path  style="fill: var(--tertiary-color, #F68C1F)" class="st2" d="M140.6,116.7c-0.6-0.6-1.2-0.9-2-0.9c-0.9,0-1.7,0.3-2.3,0.9c-0.6,0.6-0.9,1.3-0.9,2.1
				c0,0.8,0.3,1.5,0.9,2.1c0.6,0.6,1.4,0.9,2.3,0.9c0.8,0,1.4-0.3,2-0.9c0.6-0.6,0.8-1.3,0.8-2.1C141.5,118,141.2,117.3,140.6,116.7
				z"/>
		</g>
	</g>
	<g>
		<g>
			<path  style="fill: var(--tertiary-color, #F68C1F)" class="st2" d="M140.5,93.7c-0.5-0.4-1.2-0.6-1.9-0.6c-0.9,0-1.6,0.2-2.2,0.6c-0.6,0.4-0.9,1-0.9,1.7c0,1.6,0.1,4.2,0.3,8
				c0.2,3.8,0.3,6.4,0.3,8c0,1.1,0.8,1.7,2.5,1.7c0.6,0,1.2-0.1,1.7-0.4c0.5-0.3,0.8-0.7,0.8-1.3c0-1.5,0-4.2,0.1-8
				c0.1-3.8,0.1-6.4,0.1-8C141.3,94.7,141,94.1,140.5,93.7z"/>
		</g>
	</g>
	<path style="fill: var(--secondary-color, #EC4134)" class="st1" d="M175,49.8h-4.3v0h-5.8h-0.3H164H99.1c-8.5,0-15.3,6.9-15.3,15.3v50c0,1.6,1.3,2.9,2.9,2.9
		c1.6,0,2.9-1.3,2.9-2.9v-50c0-5.3,4.3-9.6,9.6-9.6H175c5.3,0,9.6,4.3,9.6,9.6V143c0,5.3-4.3,9.6-9.6,9.6H99.1
		c-5.3,0-9.6-4.3-9.6-9.6v-11.7c0-1.6-1.3-2.9-2.9-2.9c-1.6,0-2.9,1.3-2.9,2.9v5.9h0.1v6.5v0.5c0.6,7.9,7.2,14.2,15.3,14.2H175
		c8.5,0,15.3-6.9,15.3-15.3V65.2C190.4,56.7,183.5,49.8,175,49.8z"/>
</g>
<g id="dashtop03">
	<g>
		<g>
			<path style="fill: var(--primary-color, #2458A5)" class="st0" d="M100.2,129H89.8c7.3-1.6,12.7-8,12.7-15.6c0-8.8-7.3-16.1-16.1-16.1s-16.1,7.3-16.1,16.1
				c0,7.8,5.5,14,12.7,15.6H72.7c-7.3,0-13,6-13,13v13.2c0,1.6,1,2.6,2.6,2.6h48.6c1.6,0,2.6-1,2.6-2.6V142
				C113.2,134.8,107.5,129,100.2,129z M75.6,113.5c0-6,4.9-10.9,10.9-10.9c6,0,10.9,4.9,10.9,10.9s-4.9,10.9-10.9,10.9
				C80.5,124.1,75.6,119.2,75.6,113.5z M108,152.7H64.9V142c0-4.4,3.6-7.8,7.8-7.8h27.5c4.4,0,7.8,3.6,7.8,7.8L108,152.7L108,152.7z
				"/>
			<path style="fill: var(--primary-color, #2458A5)" class="st0" d="M158.1,129h-10.4c7.3-1.6,12.7-8,12.7-15.6c0-8.8-7.3-16.1-16.1-16.1c-8.8,0-16.1,7.3-16.1,16.1
				c0,7.8,5.5,14,12.7,15.6h-10.4c-7.3,0-13,6-13,13v13.2c0,1.6,1,2.6,2.6,2.6h48.6c1.6,0,2.6-1,2.6-2.6V142
				C171.1,134.8,165.1,129,158.1,129z M133.5,113.5c0-6,4.9-10.9,10.9-10.9s10.9,4.9,10.9,10.9s-4.9,10.9-10.9,10.9
				C138.1,124.1,133.5,119.2,133.5,113.5z M122.6,152.7V142c0-4.4,3.6-7.8,7.8-7.8h27.5c4.4,0,7.8,3.6,7.8,7.8v10.6H122.6z"/>
			<path style="fill: var(--primary-color, #2458A5)" class="st0" d="M41.5,68H15.8C7,68,0,76.1,0,86.2v44.1c0,1.6,1,2.6,2.6,2.6h8.6v30.6c0,4.2,3.4,7.8,7.5,7.8h20.3
				c4.2,0,7.5-3.4,7.5-7.8v-30.6H55c1.6,0,2.6-1,2.6-2.6V86.2C57.6,76.3,50.4,68,41.5,68z M52.4,127.7h-6v-22.1c0-1.6-1-2.6-2.6-2.6
				c-1.6,0-2.6,1-2.6,2.6v57.9c0,1.3-1,2.6-2.3,2.6h-7.5v-34.3c0-1.6-1-2.6-2.6-2.6c-1.6,0-2.6,1-2.6,2.6v34.3h-7.5
				c-1.3,0-2.3-1-2.3-2.6v-57.9c0-1.6-1-2.6-2.6-2.6s-2.6,1-2.6,2.6v22.1h-6V86.2c0-7,4.9-13,10.6-13h25.7c6,0,10.9,5.7,10.9,13
				L52.4,127.7L52.4,127.7z"/>
			<path style="fill: var(--primary-color, #2458A5)" class="st0" d="M28.8,66.2c9.9,0,17.7-8,17.7-17.9s-8-17.9-17.7-17.9s-17.7,8-17.7,17.9S19,66.2,28.8,66.2z M28.8,35.8
				c6.8,0,12.5,5.7,12.5,12.7s-5.7,12.7-12.5,12.7s-12.5-5.7-12.5-12.7S21.8,35.8,28.8,35.8z"/>
			<path style="fill: var(--secondary-color, #EC4134)" class="st1" d="M168.8,0H69.8c-1.6,0-2.6,1-2.6,2.6V73c0,1.6,1,2.6,2.6,2.6h98.9c1.6,0,2.6-1,2.6-2.6V2.6
				C171.4,1,170.3,0,168.8,0z M166.2,70.4H72.4V5.2h93.7L166.2,70.4L166.2,70.4z"/>
			<path style="fill: var(--secondary-color, #EC4134)" class="st1" d="M83.1,60.5h72.2c1.6,0,2.6-1,2.6-2.6s-1-2.6-2.6-2.6H83.1c-1.6,0-2.6,1-2.6,2.6S81.5,60.5,83.1,60.5z"/>
			<path style="fill: var(--secondary-color, #EC4134)" class="st1" d="M155,42.6h-43.6c-1.6,0-2.6,1-2.6,2.6c0,1.6,1,2.6,2.6,2.6H155c1.6,0,2.6-1,2.6-2.6
				C157.6,43.6,156.6,42.6,155,42.6z"/>
			<path style="fill: var(--secondary-color, #EC4134)" class="st1" d="M83.3,33.8h72.2c1.6,0,2.6-1,2.6-2.6V16.4c0-1.6-1-2.6-2.6-2.6H83.3c-1.6,0-2.6,1-2.6,2.6v14.8
				C80.7,32.5,81.8,33.8,83.3,33.8z M85.9,19h67v9.6h-67V19z"/>
		</g>
	</g>
</g>
<g id="dashtop04">
	<g>
		<path style="fill: var(--primary-color, #2458A5)" class="st0" d="M105.7,40c0-1.7-1.1-2.9-2.9-2.9H85.7c-1.7,0-2.9,1.1-2.9,2.9v5.7c-5.4-4.9-15.1-11.4-28.6-11.4h-5.7
			c-4.9,0-8.6,3.7-8.6,8.6H10c-6,0-10,2.9-10,7.1v5.7C0,58,1.1,60.3,2.9,62C1.1,63.1,0,65.1,0,67.1v5.7c0,2.3,1.1,4.6,2.9,6.3
			C1.1,80.3,0,82.3,0,84.3V90c0,2.3,1.1,4.6,2.9,6.6C1.1,98,0,100.3,0,102.8v5.7c0,4.9,3.7,8.6,8.6,8.6h37.1h37.1v2.9
			c0,1.7,1.1,2.9,2.9,2.9h17.1c1.7,0,2.9-1.1,2.9-2.9v-5.7h65.7v-5.7h-65.7v-60h65.7v-5.7h-65.7V40z M48.6,40h5.7
			c1.7,0,2.9,1.1,2.9,2.9V80c0,1.7-1.1,2.9-2.9,2.9h-5.7c-1.7,0-2.9-1.1-2.9-2.9V48.6v-5.7C45.7,41.1,46.9,40,48.6,40z M48.6,90
			c0,2.3-0.9,4.3-1.4,4.3h-1.4H10c-1.4,0-4.3-2.9-4.3-4.3v-5.7c0-0.6,2-1.4,4.3-1.4h24.3h6.3c1.1,3.4,4.3,5.7,8,5.7V90z M5.7,55.7
			V50c0-0.6,2-1.4,4.3-1.4h30V60h-5.7H10C8.6,60,5.7,57.1,5.7,55.7z M5.7,72.8v-5.7c0-0.6,2-1.4,4.3-1.4h24.3H40v11.4h-5.7H10
			C8.6,77.1,5.7,74.3,5.7,72.8z M8.6,111.4c-1.7,0-2.9-1.1-2.9-2.9v-5.7c0-1.7,1.1-2.9,2.9-2.9H10h35.7c1.7,0,2.9,1.1,2.9,2.9v5.7
			c0,1.7-1.1,2.9-2.9,2.9H8.6z M53.7,111.4c0.3-0.9,0.6-1.7,0.6-2.9v-5.7c0-2.3-0.9-4-2-5.4c1.1-1.7,2-4.3,2-7.4v-1.4
			c4.9,0,8.6-3.7,8.6-8.6V42.9c0-0.6,0-1.1-0.3-1.7C73.7,44,80.8,51.4,82.8,53.7v57.7H53.7z M100,117.1H88.6v-2.9V52.9v-10H100v2.9
			v65.7V117.1z"/>
		<rect x="111.4" y="94.3" style="fill: var(--primary-color, #2458A5)" class="st0" width="8.6" height="5.7"/>
		<rect x="125.7" y="94.3" style="fill: var(--primary-color, #2458A5)" class="st0" width="8.6" height="5.7"/>
		<path style="fill: var(--secondary-color, #EC4134)" class="st1" d="M168.6,134.3H2.9c-1.7,0-2.9,1.1-2.9,2.9v31.4c0,1.7,1.1,2.9,2.9,2.9h165.7c1.7,0,2.9-1.1,2.9-2.9v-31.4
			C171.4,135.4,170.3,134.3,168.6,134.3z M165.7,165.7h-20v-14.3H140v14.3h-22.9v-14.3h-5.7v14.3H88.6v-14.3h-5.7v14.3H60v-14.3
			h-5.7v14.3H31.4v-14.3h-5.7v14.3h-20V140h160V165.7z"/>
		<path style="fill: var(--secondary-color, #EC4134)" class="st1" d="M2.9,22.9H20h122.8c0.3,0,0.3,0,0.6,0c0.6,0,0.9-0.3,1.1-0.6l24.9-8.3c1.1-0.3,2-1.4,2-2.6s-0.9-2.3-2-2.6
			l-24.9-8.3c-0.3-0.3-0.9-0.6-1.4-0.6h-0.3l0,0H20H2.9C1.1,0,0,1.1,0,2.9V20C0,21.7,1.1,22.9,2.9,22.9z M145.7,16V6.9l13.7,4.6
			L145.7,16z M140,8.6H31.4v5.7H140v2.9H22.9V5.7H140V8.6z M5.7,5.7h11.4v11.4H5.7V5.7z"/>
	</g>
</g>
<g id="dashtop05">
	<g>
		<g>
			<g>
				<path style="fill: var(--quaternary-color, #3061AA)" class="st3" d="M158.2,71.2H15.6C7.2,71.2,0,78,0,86.4v71.8c0,4.1,1.7,8,4.7,10.9c3,2.8,6.8,4.4,10.9,4.4h142.6
					c8.4,0,15.2-6.8,15.2-15.2V86.4C173.5,78,166.6,71.2,158.2,71.2z M163.3,158.2c0,2.8-2.3,5.1-5.1,5.1H15.6
					c-2.9,0-5.4-2.4-5.4-5.1V86.4c0-2.7,2.5-5.1,5.4-5.1h142.6c2.8,0,5.1,2.3,5.1,5.1V158.2z"/>
			</g>
		</g>
	</g>
	<g>
		<g>
			<g>
				<path style="fill: var(--quaternary-color, #3061AA)" class="st3" d="M147.7,91.5h-122c-2.8,0-5.1,2.3-5.1,5.1v51.5c0,2.8,2.3,5.1,5.1,5.1h122c2.8,0,5.1-2.3,5.1-5.1V96.6
					C152.8,93.8,150.5,91.5,147.7,91.5z M61.3,143H30.8v-41.3h30.5V143z M102,143H71.5v-41.3H102V143z M142.6,143h-30.5v-41.3h30.5
					V143z"/>
			</g>
		</g>
	</g>
	<g>
		<g>
			<g>
				<path style="fill: var(--secondary-color, #EC4134)" class="st1" d="M50.1,32.4c-0.5-1.7-1.9-2.9-3.6-3.4L36,26.4l-5.8-9.2c-0.9-1.5-2.6-2.4-4.3-2.4c-1.7,0-3.4,0.9-4.3,2.4
					l-5.8,9.1L5,29c-1.7,0.4-3.1,1.7-3.6,3.4c-0.5,1.7-0.2,3.5,1,4.9l7.1,8.3l-1,10.7c-0.2,1.8,0.6,3.5,2,4.5c1.4,1,3.2,1.3,4.9,0.7
					l10.4-4l10.1,4c1.6,0.6,3.5,0.4,4.9-0.6c1.4-1,2.2-2.7,2.1-4.4l-0.7-10.8l6.9-8.3C50.3,35.9,50.6,34,50.1,32.4z M33.1,40.6
					c-0.8,1-1.2,2.3-1.2,3.6l0.3,4.8l-4.5-1.8c-1.2-0.5-2.5-0.5-3.7,0L19.4,49l0.4-4.7c0.1-1.4-0.3-2.7-1.2-3.8l-3.1-3.6l4.8-1.2
					c1.3-0.3,2.4-1.1,3.1-2.2l2.6-4.1l2.6,4.1c0.7,1.1,1.8,1.9,3,2.2l4.7,1.2L33.1,40.6z"/>
			</g>
		</g>
	</g>
	<g>
		<g>
			<g>
				<path style="fill: var(--secondary-color, #EC4134)" class="st1" d="M115.9,21.1c-0.6-1.8-2.1-3.1-4-3.4L98,15.2L91.4,2.7C90.5,1,88.8,0,86.9,0s-3.6,1-4.5,2.7l-6.6,12.5
					l-13.9,2.4c-1.9,0.3-3.4,1.6-4,3.4c-0.6,1.8-0.1,3.8,1.2,5.1L69,36.3l-2,14c-0.3,1.9,0.5,3.7,2,4.8c1.5,1.1,3.5,1.3,5.2,0.4
					l12.7-6.2l12.7,6.2c1.7,0.8,3.7,0.7,5.2-0.4c1.5-1.1,2.3-3,2-4.8l-2-14l9.9-10.1C116,24.8,116.5,22.9,115.9,21.1z M95.8,31
					c-1.1,1.1-1.6,2.7-1.4,4.3l1,6.9l-6.3-3.1c-1.4-0.7-3.1-0.7-4.5,0l-6.3,3.1l1-6.9c0.2-1.6-0.3-3.1-1.4-4.3l-4.9-5l6.9-1.2
					c1.6-0.3,2.9-1.2,3.6-2.6l3.3-6.2l3.3,6.2c0.7,1.4,2.1,2.4,3.6,2.6l6.9,1.2L95.8,31z"/>
			</g>
		</g>
	</g>
	<g>
		<g>
			<g>
				<path style="fill: var(--secondary-color, #EC4134)" class="st1" d="M172.4,32.4c-0.5-1.7-1.9-2.9-3.6-3.4l-10.6-2.7l-6.1-9.2c-1-1.4-2.6-2.3-4.3-2.3c-1.7,0-3.3,0.9-4.2,2.4
					l-5.8,9.2L127.3,29c-1.7,0.4-3,1.7-3.6,3.4s-0.2,3.5,0.9,4.8l6.9,8.3l-0.7,10.8c-0.1,1.7,0.7,3.4,2.1,4.4c1.4,1,3.2,1.3,4.9,0.6
					l10.1-4l10.4,4c1.6,0.6,3.5,0.4,4.8-0.6c1.4-1,2.2-2.7,2.1-4.4l-0.7-10.8l6.9-8.3C172.6,35.9,172.9,34,172.4,32.4z M155.4,40.6
					c-0.8,1-1.2,2.3-1.2,3.6l0.3,4.9l-4.9-1.9c-0.6-0.2-1.2-0.3-1.8-0.3c-0.6,0-1.3,0.1-1.9,0.4l-4.5,1.8l0.3-4.8
					c0.1-1.3-0.3-2.6-1.2-3.6l-3.1-3.7l4.7-1.2c1.3-0.3,2.3-1.1,3-2.2l2.7-4.2l2.9,4.3c0.7,1.1,1.8,1.8,3,2.1l4.7,1.2L155.4,40.6z"
					/>
			</g>
		</g>
	</g>
	<g>
		<g>
			<path style="fill: var(--quinary-color, #848484)" class="st4" d="M46.1,111.8c-2.8,0-5.1,2.3-5.1,5.1v10.8c0,2.8,2.3,5.1,5.1,5.1s5.1-2.3,5.1-5.1v-10.8
				C51.2,114.1,48.9,111.8,46.1,111.8z"/>
		</g>
	</g>
	<g>
		<g>
			<path style="fill: var(--quinary-color, #848484)" class="st4" d="M86.7,111.8c-2.8,0-5.1,2.3-5.1,5.1v10.8c0,2.8,2.3,5.1,5.1,5.1s5.1-2.3,5.1-5.1v-10.8
				C91.8,114.1,89.5,111.8,86.7,111.8z"/>
		</g>
	</g>
	<g>
		<g>
			<path style="fill: var(--quinary-color, #848484)" class="st4" d="M127.4,111.8c-2.8,0-5.1,2.3-5.1,5.1v10.8c0,2.8,2.3,5.1,5.1,5.1c2.8,0,5.1-2.3,5.1-5.1v-10.8
				C132.5,114.1,130.2,111.8,127.4,111.8z"/>
		</g>
	</g>
</g>
<g id="dashtop06">
	<path style="fill: var(--secondary-color, #EC4134)" class="st1" d="M41.9,0H8.3C3.7,0,0,3.7,0,8.3v33.6c0,4.6,3.7,8.3,8.3,8.3h33.6c4.6,0,8.3-3.7,8.3-8.3V8.3
		C50.2,3.7,46.5,0,41.9,0z M5.4,8.3c0-1.6,1.3-2.9,2.9-2.9h33.6c1.6,0,2.9,1.3,2.9,2.9v33.6c0,1.6-1.3,2.9-2.9,2.9H8.3
		c-1.6,0-2.9-1.3-2.9-2.9V8.3z"/>
	<path style="fill: var(--quaternary-color, #3061AA)" class="st3" d="M71.2,14.2h116c1.5,0,2.7-1.2,2.7-2.7c0-1.5-1.2-2.7-2.7-2.7h-116c-1.5,0-2.7,1.2-2.7,2.7
		C68.5,13,69.7,14.2,71.2,14.2z"/>
	<path style="fill: var(--quaternary-color, #3061AA)" class="st3" d="M71.2,27.8h91.6c1.5,0,2.7-1.2,2.7-2.7c0-1.5-1.2-2.7-2.7-2.7H71.2c-1.5,0-2.7,1.2-2.7,2.7
		C68.5,26.6,69.7,27.8,71.2,27.8z"/>
	<path style="fill: var(--quaternary-color, #3061AA)" class="st3" d="M187.1,35.9h-116c-1.5,0-2.7,1.2-2.7,2.7c0,1.5,1.2,2.7,2.7,2.7h116c1.5,0,2.7-1.2,2.7-2.7
		C189.8,37.1,188.6,35.9,187.1,35.9z"/>
	<path style="fill: var(--quaternary-color, #3061AA)" class="st3" d="M187.1,69.6h-116c-1.5,0-2.7,1.2-2.7,2.7c0,1.5,1.2,2.7,2.7,2.7h116c1.5,0,2.7-1.2,2.7-2.7
		C189.8,70.8,188.6,69.6,187.1,69.6z"/>
	<path style="fill: var(--quaternary-color, #3061AA)" class="st3" d="M71.2,88.5h91.6c1.5,0,2.7-1.2,2.7-2.7c0-1.5-1.2-2.7-2.7-2.7H71.2c-1.5,0-2.7,1.2-2.7,2.7
		C68.5,87.3,69.7,88.5,71.2,88.5z"/>
	<path style="fill: var(--quaternary-color, #3061AA)" class="st3" d="M187.1,96.6h-116c-1.5,0-2.7,1.2-2.7,2.7s1.2,2.7,2.7,2.7h116c1.5,0,2.7-1.2,2.7-2.7S188.6,96.6,187.1,96.6z"
		/>
	<path style="fill: var(--quaternary-color, #3061AA)" class="st3" d="M187.1,130.3h-116c-1.5,0-2.7,1.2-2.7,2.7c0,1.5,1.2,2.7,2.7,2.7h116c1.5,0,2.7-1.2,2.7-2.7
		C189.8,131.5,188.6,130.3,187.1,130.3z"/>
	<path style="fill: var(--quaternary-color, #3061AA)" class="st3" d="M71.2,149.2h91.6c1.5,0,2.7-1.2,2.7-2.7c0-1.5-1.2-2.7-2.7-2.7H71.2c-1.5,0-2.7,1.2-2.7,2.7
		C68.5,148,69.7,149.2,71.2,149.2z"/>
	<path style="fill: var(--quaternary-color, #3061AA)" class="st3" d="M187.1,157.4h-116c-1.5,0-2.7,1.2-2.7,2.7c0,1.5,1.2,2.7,2.7,2.7h116c1.5,0,2.7-1.2,2.7-2.7
		S188.6,157.4,187.1,157.4z"/>
	<path style="fill: var(--secondary-color, #EC4134)" class="st1" d="M10.9,36.6c0,0.7,0.3,1.4,0.8,1.9c0.5,0.5,1.2,0.8,1.9,0.8c0.7,0,1.4-0.3,1.9-0.8l9.6-9.6l9.6,9.6
		c0.5,0.5,1.2,0.8,1.9,0.8c0.7,0,1.4-0.3,1.9-0.8c0.5-0.5,0.8-1.2,0.8-1.9c0-0.7-0.3-1.4-0.8-1.9l-9.6-9.6l9.6-9.6
		c1.1-1.1,1.1-2.8,0-3.8c-0.5-0.5-1.2-0.8-1.9-0.8c-0.7,0-1.4,0.3-1.9,0.8l-9.6,9.6l-9.6-9.6c-0.5-0.5-1.2-0.8-1.9-0.8
		c-0.7,0-1.4,0.3-1.9,0.8c-0.5,0.5-0.8,1.2-0.8,1.9c0,0.7,0.3,1.4,0.8,1.9l9.6,9.6l-9.6,9.6C11.1,35.2,10.9,35.9,10.9,36.6z"/>
	<path style="fill: var(--secondary-color, #EC4134)" class="st1" d="M10.9,158c0,0.7,0.3,1.4,0.8,1.9c0.5,0.5,1.2,0.8,1.9,0.8c0.7,0,1.4-0.3,1.9-0.8l9.6-9.6l9.6,9.6
		c0.5,0.5,1.2,0.8,1.9,0.8c0.7,0,1.4-0.3,1.9-0.8c1.1-1.1,1.1-2.8,0-3.8l-9.6-9.6l9.6-9.6c0.5-0.5,0.8-1.2,0.8-1.9
		c0-0.7-0.3-1.4-0.8-1.9c-0.5-0.5-1.2-0.8-1.9-0.8c-0.7,0-1.4,0.3-1.9,0.8l-9.6,9.6l-9.6-9.6c-0.5-0.5-1.2-0.8-1.9-0.8
		c-0.7,0-1.4,0.3-1.9,0.8c-0.5,0.5-0.8,1.2-0.8,1.9c0,0.7,0.3,1.4,0.8,1.9l9.6,9.6l-9.6,9.6C11.1,156.6,10.9,157.3,10.9,158z"/>
	<path style="fill: var(--quaternary-color, #3061AA)" class="st3" d="M41.9,60.7H8.3C3.7,60.7,0,64.4,0,69v33.6c0,4.6,3.7,8.3,8.3,8.3h33.6c4.6,0,8.3-3.7,8.3-8.3V69
		C50.2,64.4,46.5,60.7,41.9,60.7z M5.4,69c0-1.6,1.3-2.9,2.9-2.9h33.6c1.6,0,2.9,1.3,2.9,2.9v33.6c0,1.6-1.3,2.9-2.9,2.9H8.3
		c-1.6,0-2.9-1.3-2.9-2.9V69z"/>
	<path style="fill: var(--secondary-color, #EC4134)" class="st1" d="M41.9,121.4H8.3c-4.6,0-8.3,3.7-8.3,8.3v33.6c0,4.6,3.7,8.3,8.3,8.3h33.6c4.6,0,8.3-3.7,8.3-8.3v-33.6
		C50.2,125.1,46.5,121.4,41.9,121.4z M5.4,129.7c0-1.6,1.3-2.9,2.9-2.9h33.6c1.6,0,2.9,1.3,2.9,2.9v33.6c0,1.6-1.3,2.9-2.9,2.9H8.3
		c-1.6,0-2.9-1.3-2.9-2.9V129.7z"/>
	<path style="fill: var(--quaternary-color, #3061AA)" class="st3" d="M18.4,99.4c0.5,0.6,1.3,0.9,2,0.9c0,0,0.1,0,0.1,0c0.8,0,1.6-0.5,2.1-1.2l16.2-23.6c0.4-0.6,0.6-1.3,0.4-2
		c-0.1-0.7-0.5-1.3-1.1-1.7c-0.5-0.3-1-0.5-1.5-0.5c-0.9,0-1.7,0.4-2.2,1.2L20.2,93.2l-4.6-5.4c-0.5-0.6-1.3-0.9-2-0.9
		c-0.6,0-1.3,0.2-1.8,0.7c-1.1,1-1.3,2.7-0.3,3.8L18.4,99.4z"/>
</g>
<g id="dashtop07">
	<g>
		<g>
			<g>
				<path style="fill: var(--secondary-color, #EC4134)" class="st1" d="M54.1,12.7c-22.8,0-41.3,18.5-41.3,41.3s18.5,41.3,41.3,41.3S95.4,76.9,95.4,54
					C95.4,31.2,76.9,12.7,54.1,12.7z M54.1,89c-19.3,0-35-15.7-35-35c0-19.3,15.7-35,35-35c17.9,0,33,13.6,34.8,31.4L42.9,76.7
					l3.2,5.5l42.7-24.4C86.9,75.6,71.9,89,54.1,89z"/>
			</g>
		</g>
	</g>
	<g>
		<g>
			<path style="fill: var(--secondary-color, #EC4134)" class="st1" d="M187.6,0h-19.1v6.4h11.4l-18.4,18.4l-10.7-5.3c-1.2-0.6-2.6-0.4-3.5,0.5l-26.8,23.8l-7.5-5
				c-1-0.7-2.3-0.7-3.3-0.1l-3.4,1.9C98.8,11.6,69.4-5.7,40.5,1.7S-5.7,38.7,1.7,67.5c5.3,20.4,22,35.9,42.8,39.6v7.3h-6.4
				c-1.8,0-3.2,1.4-3.2,3.2v12.7c0,1.8,1.4,3.2,3.2,3.2v41.3c0,8.8,7.1,15.9,15.9,15.9S70,183.6,70,174.8v-41.3
				c1.8,0,3.2-1.4,3.2-3.2v-12.7c0-1.8-1.4-3.2-3.2-3.2h-6.4v-7.3c28.5-4.9,47.9-31.5,44-60.1l3.6-2l7.9,5.3
				c1.2,0.8,2.8,0.7,3.9-0.3l27-24l10.8,5.4c1.2,0.6,2.7,0.4,3.7-0.6l20-20v11.4h6.4V3.2C190.8,1.4,189.3,0,187.6,0z M63.6,174.8
				c0,5.3-4.3,9.5-9.5,9.5s-9.5-4.3-9.5-9.5v-41.3h19.1V174.8z M66.8,120.8v6.4H41.3v-6.4H66.8z M50.9,114.4v-6.5
				c1.1,0.1,2.1,0.2,3.2,0.2s2.1-0.1,3.2-0.2v6.5H50.9z M54.1,101.7C27.7,101.7,6.4,80.4,6.4,54S27.7,6.4,54.1,6.4
				s47.7,21.3,47.7,47.7C101.7,80.4,80.4,101.7,54.1,101.7z"/>
		</g>
	</g>
	<g>
		<g>
			<g>
				<path style="fill: var(--primary-color, #2458A5)" class="st0" d="M187.6,35h-25.4c-1.8,0-3.2,1.4-3.2,3.2v31.8h-22.3c-1.8,0-3.2,1.4-3.2,3.2v12.7h-22.3
					c-1.8,0-3.2,1.4-3.2,3.2v38.1H85.8c-1.8,0-3.2,1.4-3.2,3.2v57.2c0,1.8,1.4,3.2,3.2,3.2h101.7c1.8,0,3.2-1.4,3.2-3.2V38.1
					C190.8,36.4,189.3,35,187.6,35z M108.1,184.4H89v-50.9h19.1V184.4z M133.5,184.4h-19.1v-54V92.2h19.1V184.4z M159,184.4h-19.1
					V89V76.3H159V184.4z M184.4,184.4h-19.1V41.3h19.1V184.4z"/>
			</g>
		</g>
	</g>
</g>
<g id="dashtop08">
	<path style="fill: var(--secondary-color, #EC4134)" class="st1" d="M100.8,128.4c3.5-0.3,6.7-2.1,8.8-4.9l31.6-43.7c1-1.3,0.8-3.2-0.4-4.4c-1.2-1.2-3-1.3-4.4-0.4l-43.7,31.6
		c-2.9,2.1-4.6,5.3-4.9,8.8c-0.3,3.5,1,7,3.5,9.5c2.3,2.3,5.3,3.5,8.5,3.5C100.2,128.4,100.5,128.4,100.8,128.4z M94.6,116
		c0.1-1.5,0.9-3,2.2-3.9l26.7-19.3l-19.3,26.7c-0.9,1.3-2.3,2-3.9,2.2c-1.5,0.1-3-0.4-4.1-1.5C95.1,119,94.5,117.5,94.6,116z"/>
	<path style="fill: var(--primary-color, #2458A5)" class="st0" d="M176.5,66.1c0-0.1,0-0.1-0.1-0.2c0-0.1-0.1-0.1-0.1-0.2c-3.4-5.9-7.5-11.3-12-16.2l7.3-7.3l4.8,4.8l14.3-14.3
		l-14.3-14.3L162,32.7l4.8,4.8l-7.3,7.3c-4.9-4.6-10.4-8.6-16.2-12c-0.1,0-0.1-0.1-0.2-0.1c-0.1,0-0.1,0-0.2-0.1
		c-10.5-6-22.2-10-34.7-11.5v-4h5.1c4.7,0,8.4-3.8,8.4-8.4S117.9,0,113.2,0H82.8c-4.7,0-8.4,3.8-8.4,8.4s3.8,8.4,8.4,8.4h5.1v3.9
		c-3.6,0.4-7.3,1-10.9,1.8c-1.8,0.4-3,2.2-2.5,4c0.4,1.8,2.2,3,4,2.5c3.1-0.7,6.2-1.3,9.4-1.6l3.6-0.3c1.1-0.1,2.1-0.1,3.1-0.2v6.7
		c0,1.9,1.5,3.4,3.4,3.4s3.4-1.5,3.4-3.4v-6.7c12.7,0.6,24.7,4,35.3,9.6l-3.3,5.8c-0.9,1.6-0.4,3.7,1.2,4.6c0.5,0.3,1.1,0.5,1.7,0.5
		c1.2,0,2.3-0.6,2.9-1.7l3.3-5.8c10.6,6.7,19.6,15.7,26.3,26.3l-5.8,3.3c-1.6,0.9-2.2,3-1.2,4.6c0.6,1.1,1.8,1.7,2.9,1.7
		c0.6,0,1.2-0.1,1.7-0.5l5.8-3.3c5.7,10.8,9.1,23,9.6,35.9h-6.7c-1.9,0-3.4,1.5-3.4,3.4s1.5,3.4,3.4,3.4h6.7
		c-0.5,12.9-3.9,25.1-9.6,35.9l-5.8-3.3c-1.6-0.9-3.7-0.4-4.6,1.2c-0.9,1.6-0.4,3.7,1.2,4.6l5.8,3.3c-6.7,10.6-15.7,19.6-26.3,26.3
		l-3.3-5.8c-0.9-1.6-3-2.2-4.6-1.2c-1.6,0.9-2.2,3-1.2,4.6l3.3,5.8c-10.6,5.6-22.6,9-35.3,9.6v-6.6c0-1.9-1.5-3.4-3.4-3.4
		s-3.4,1.5-3.4,3.4v6.7c-5.4-0.2-10.8-0.9-16.1-2.1c-1.8-0.4-3.6,0.7-4,2.5c-0.4,1.8,0.7,3.6,2.5,4c6.7,1.6,13.6,2.3,20.5,2.3
		c0.2,0,0.3,0,0.5,0c0,0,0,0,0.1,0c0,0,0.1,0,0.1,0c16.2-0.1,31.5-4.5,44.7-12.1c0.1,0,0.2-0.1,0.3-0.1c0.1,0,0.1-0.1,0.2-0.1
		c13.6-8,25.1-19.3,33-33c0.1-0.1,0.1-0.2,0.2-0.3c0-0.1,0-0.1,0.1-0.2c7.7-13.4,12.2-28.9,12.2-45.4S184.2,79.5,176.5,66.1z
		 M176.3,27.9l4.8,4.8l-4.8,4.8l-4.8-4.8L176.3,27.9z M94.6,20.3V10.1H82.8c-0.9,0-1.7-0.8-1.7-1.7c0-0.9,0.8-1.7,1.7-1.7h30.4
		c0.9,0,1.7,0.8,1.7,1.7c0,0.9-0.8,1.7-1.7,1.7h-11.8v10.2c-1.2,0-2.3-0.1-3.4-0.1c-0.1,0-0.2,0-0.3,0c-0.1,0-0.2,0-0.3,0
		c-0.6,0-1.1,0-1.7,0C95.4,20.3,95,20.3,94.6,20.3z"/>
	<path style="fill: var(--secondary-color, #EC4134)" class="st1" d="M67.6,47.3H50.7c-1.9,0-3.4,1.5-3.4,3.4s1.5,3.4,3.4,3.4h16.9c1.9,0,3.4-1.5,3.4-3.4S69.4,47.3,67.6,47.3z"/>
	<path style="fill: var(--secondary-color, #EC4134)" class="st1" d="M67.6,71H33.8c-1.9,0-3.4,1.5-3.4,3.4s1.5,3.4,3.4,3.4h33.8c1.9,0,3.4-1.5,3.4-3.4S69.4,71,67.6,71z"/>
	<path style="fill: var(--secondary-color, #EC4134)" class="st1" d="M67.6,94.6H16.9c-1.9,0-3.4,1.5-3.4,3.4s1.5,3.4,3.4,3.4h50.7c1.9,0,3.4-1.5,3.4-3.4S69.4,94.6,67.6,94.6z"/>
	<path style="fill: var(--secondary-color, #EC4134)" class="st1" d="M67.6,118.3H3.4c-1.9,0-3.4,1.5-3.4,3.4s1.5,3.4,3.4,3.4h64.2c1.9,0,3.4-1.5,3.4-3.4S69.4,118.3,67.6,118.3z"
		/>
	<path style="fill: var(--secondary-color, #EC4134)" class="st1" d="M67.6,141.9H23.7c-1.9,0-3.4,1.5-3.4,3.4s1.5,3.4,3.4,3.4h43.9c1.9,0,3.4-1.5,3.4-3.4S69.4,141.9,67.6,141.9z"
		/>
	<path style="fill: var(--secondary-color, #EC4134)" class="st1" d="M67.6,165.6H43.9c-1.9,0-3.4,1.5-3.4,3.4s1.5,3.4,3.4,3.4h23.7c1.9,0,3.4-1.5,3.4-3.4S69.4,165.6,67.6,165.6z"
		/>
</g>
</svg>
