<?xml version="1.0" encoding="utf-8"?>
<!-- Generator: Adobe Illustrator 22.1.0, SVG Export Plug-In . SVG Version: 6.00 Build 0)  -->
<svg version="1.1" id="Layer_1" xmlns="http://www.w3.org/2000/svg" xmlns:xlink="http://www.w3.org/1999/xlink" x="0px" y="0px"
	 viewBox="0 0 409.6 387.4" style="enable-background:new 0 0 409.6 387.4;" xml:space="preserve">
<style type="text/css">
	.st0{fill:#2056A5;}
	.st1{fill:#EC4033;}
</style>
<g>
	<path class="st0" d="M409.6,376.8c-2.9,7.8-8.6,10.6-16.8,10.5c-44.9-0.2-89.9-0.1-134.8-0.1c-10.7,0-15.3-4.3-16.2-14.9
		c-0.1-1.4-1.3-3.2-2.5-4c-5.1-3.4-10.4-6.5-15.6-9.8c-10.4-6.6-10.5-17.9-0.1-24.4c5.1-3.2,10.1-6.4,15.3-9.4
		c2.2-1.3,3.1-2.8,3.1-5.4c-0.1-11.3-0.1-22.7-0.1-34c0-1.1,0-2.1,0-3.2c0.3-4.2,2.6-6.6,6-6.6c3.4,0,5.9,2.5,5.9,6.7
		c0.1,11.2,0.1,22.4,0,33.6c-0.1,15.7,1.6,12.5-11.8,20.9c-4.8,3-9.6,6-15,9.3c1.6,1.2,2.4,2,3.4,2.6c5.9,3.7,11.7,7.5,17.7,10.8
		c4.3,2.4,6,5.6,5.7,10.4c-0.3,5.3-0.1,5.3,5.1,5.3c44.7,0,89.3,0,134,0.1c3.5,0,4.6-0.8,4.6-4.4c-0.1-44.8-0.1-89.6,0-134.4
		c0-3.9-1.2-4.9-5-4.9c-44.4,0.1-88.8,0.1-133.2,0.1c-5.6,0-5.6,0-5.6,5.4c0,5.5,0.1,10.9,0,16.4c-0.1,4.5-2.4,7-6,7
		c-3.6,0-5.9-2.6-6-7.1c-0.1-5.7,0-11.5-0.1-17.2c-0.1-11.6,4.9-16.6,16.5-16.6c20.1,0,40.3,0,60.4,0c1.4,0,2.9,0,4.6,0v-20.9
		c-1.7,0-3.4,0-5,0c-78.1,0-156.3,0-234.4,0c-8.7,0-10-1.2-10.1-9.9c0-6.9,0-13.8,0-21.2c-2,0-3.6,0-5.2,0c-17.5,0-34.9,0-52.4,0
		C4.9,167.7,0,162.7,0,151.4c0-11.3,0-22.7,0-34c0-0.8,0-1.6,0-2.4c0.2-4.3,2.6-7,6.2-6.9c3.4,0.1,5.8,2.7,5.8,6.8
		c0.1,10.7,0,21.3,0,32c0,8.7,0,8.7,8.6,8.7c43.2,0,86.4,0,129.6,0c5.4,0,5.6,0,5.4-5.5c-0.2-4.7,1.5-7.8,5.6-10.1
		c5.8-3.3,11.4-6.9,17-10.4c1.2-0.8,2.4-1.6,4.1-2.8c-1.6-1.2-2.7-2-3.9-2.8c-6.1-3.8-12.2-7.6-18.4-11.3c-3.1-1.8-4.5-4.3-4.5-7.9
		c0.1-13.7,0-27.5,0.1-41.2c0-4.5,2.2-7.1,5.8-7.2c3.7-0.1,6.1,2.5,6.2,7.3c0.1,12,0.1,24,0,36c0,2.6,0.7,4.1,3,5.4
		c5.3,3,10.5,6.3,15.7,9.6c9.9,6.4,9.9,17.6,0,24c-5.3,3.4-10.7,6.5-15.9,10c-1.3,0.9-2.4,2.8-2.6,4.3c-0.8,10-5.6,14.7-15.7,14.7
		c-20.4,0-40.8,0-61.2,0c-1.4,0-2.9,0-4.7,0v19c1.8,0,3.5,0,5.2,0c77.7,0,155.5,0,233.2,0c1.2,0,2.4,0,3.7,0
		c4.1,0.2,7.3,3.7,7.3,7.8c0.1,6.9,0,13.9,0.1,20.8c0,1.3,0.1,2.6,0.2,4.3c1.8,0,3.4,0,5,0c17.1,0,34.1,0.2,51.2-0.1
		c8.2-0.2,14.2,2.4,17.5,10.1V376.8z"/>
	<path class="st0" d="M83.9,0c22.7,0,45.3,0,68,0c10.6,0,15.7,5,15.8,15.6c0,6.1,0.1,12.3-0.1,18.4c-0.1,4.7-2.5,7.4-6.2,7.3
		c-3.5-0.1-5.7-2.7-5.8-7.2c-0.1-6.1-0.1-12.3,0-18.4c0.1-2.7-0.8-3.7-3.7-3.7c-45.5,0.1-90.9,0.1-136.4,0c-3.2,0-3.7,1.4-3.7,4.1
		c0.1,22.5,0,45.1,0,67.6c0,1.3,0.1,2.7-0.1,4c-0.6,3.3-2.5,5.3-6,5.3c-3.5,0-5.3-2.1-5.8-5.4C0,87,0,86.5,0,86c0-23.5,0-47,0-70.5
		C0,6.9,6.9,0,15.5,0C38.3,0,61.1,0,83.9,0z"/>
	<path class="st1" d="M123.6,79.9c-1.3,5.4-2.4,10.9-4.1,16.1c-1.3,4-4.5,5.6-7.7,4.5c-3.4-1.1-5-4.4-3.5-8.5
		c3.4-9.3,3.3-18.2-1.6-26.9c-6.8-12.3-21.4-18.1-34.9-14c-14.1,4.3-22.6,17.2-21.4,32.2c1.2,13.5,12.4,24.9,26.2,26.6
		c1.3,0.2,2.6,0.4,4,0.5c3.6,0.4,5.6,2.4,5.7,6c0.1,3.3-2.6,6.1-6.3,5.8c-4.9-0.4-9.9-1.1-14.4-2.7C44,111.4,32.9,87,40.8,65.5
		c7.1-19.4,26.9-30.7,47.5-27.1C107.7,41.7,122.6,59.6,123.6,79.9z"/>
	<path class="st1" d="M358.6,338.4c-0.1,3.7-1.8,5.7-4.7,6.3c-3.1,0.7-5.5-0.7-6.7-3.7c-2.3-5.7-4.6-11.3-6.6-17.1
		c-1.1-3.4-3-4.3-6.8-4c-6.2,0.5-12.5,0.7-18.8,0.1c-3.1-0.3-4.5,0.1-5.4,2.6c-2,5.5-4.2,10.9-6.3,16.4c-2,5-5,6.9-8.6,5.4
		c-3.5-1.5-4.5-4.8-2.7-9.5c8.8-22.8,17.7-45.7,26.5-68.5c1.1-2.9,2.8-5.3,6.2-5.4c3.4,0,5.1,2.3,6.3,5.2
		c8.8,22.8,17.7,45.7,26.5,68.5C358.1,336.1,358.4,337.6,358.6,338.4z M324.9,283.7c-3.3,8.6-6.2,16.1-9.3,24h18.6
		C331.2,299.9,328.3,292.4,324.9,283.7z"/>
	<path class="st1" d="M105.2,338.1c26.9,0,53.8,0,80.8,0c6.4,0,9.4,2,9.2,6.2c-0.1,4-3,5.9-9.2,5.9c-53.8,0-107.7,0-161.5,0
		c-1.9,0-4.1,0.4-5.5-0.5c-1.9-1.3-3.8-3.4-4.2-5.5c-0.5-2.7,1.4-5.1,4.5-5.6c1.7-0.3,3.4-0.3,5.2-0.3
		C51.4,338.1,78.3,338.1,105.2,338.1z"/>
	<path class="st1" d="M307.6,133.7c-27,0-54.1,0-81.1,0c-1.5,0-3,0.1-4.4-0.2c-3-0.6-5.1-2.7-4.6-5.5c0.4-2.1,2.3-4.2,4-5.7
		c0.9-0.8,2.8-0.5,4.2-0.5c54.6,0,109.3,0,163.9,0c1.4,0,3,0.1,4.3,0.6c2.7,0.9,4.5,3.1,3.7,5.8c-0.7,2.1-2.7,3.9-4.5,5.3
		c-1,0.7-2.8,0.3-4.3,0.3C361.7,133.7,334.7,133.7,307.6,133.7z"/>
	<path class="st1" d="M307.6,60.6c26.9,0,53.8,0,80.7,0c1.5,0,3,0,4.4,0.2c2.7,0.4,4.8,2.8,4.9,5.5c0.1,3-1.3,5-4.2,5.8
		c-1.4,0.4-2.9,0.5-4.3,0.5c-54.2,0-108.5,0-162.7,0c-0.5,0-1.1,0-1.6,0c-5-0.2-7.7-2.4-7.6-6.3c0.1-3.7,2.7-5.7,7.6-5.7
		C252.5,60.6,280,60.6,307.6,60.6z"/>
	<path class="st1" d="M307.5,92.9c-26.9,0-53.8,0-80.7,0c-1.5,0-3,0.1-4.4-0.1c-2.9-0.5-4.7-2.3-5-5.2c-0.2-2.6,1.1-5.1,3.5-6
		c1.6-0.6,3.5-0.7,5.3-0.7c54.2,0,108.5,0,162.7,0c1.6,0,3.2,0,4.7,0.5c2.9,0.9,4.3,3,4.1,6.1c-0.3,3.1-2.1,4.8-5,5.3
		c-1.3,0.2-2.7,0.1-4,0.1C361.6,92.9,334.5,92.9,307.5,92.9C307.5,92.9,307.5,92.9,307.5,92.9z"/>
	<path class="st1" d="M105.2,289.1c-26.8,0-53.6,0-80.4,0c-1.1,0-2.1,0-3.2,0c-4.4-0.2-7.1-2.5-7-6c0-3.5,2.7-5.9,7.1-6
		c13.3-0.1,26.7,0,40,0c41.6,0,83.1,0,124.7,0c1.6,0,3.7-0.3,4.6,0.6c1.7,1.5,3.9,3.8,3.8,5.7c-0.1,1.9-2.4,4-4.3,5.3
		c-1.2,0.8-3.4,0.4-5.1,0.5C158.8,289.2,132,289.2,105.2,289.1C105.2,289.2,105.2,289.2,105.2,289.1z"/>
	<path class="st1" d="M268.4,101.4c14.1,0,28.3,0,42.4,0c1.5,0,3.3-0.4,4.3,0.3c1.9,1.4,4.4,3.3,4.5,5.2c0.1,1.9-2,4.3-3.7,5.8
		c-1,0.9-3,0.7-4.6,0.7c-28.5,0-57.1,0-85.6,0c-1.2,0-2.4-0.1-3.6-0.3c-3.2-0.6-4.9-2.7-4.8-5.9c0.1-3.2,1.9-5.2,5.1-5.6
		c1.3-0.2,2.7-0.2,4-0.2C240.4,101.4,254.4,101.4,268.4,101.4C268.4,101.4,268.4,101.4,268.4,101.4z"/>
	<path class="st1" d="M143.8,268.8c-14.1,0-28.3,0-42.4,0c-1.2,0-2.4,0.1-3.6-0.1c-3.2-0.7-5.2-2.6-5.1-6.1c0.1-3.3,2.1-5,5.2-5.6
		c0.9-0.2,1.9-0.1,2.8-0.1c28.8,0,57.6,0,86.4,0c1.2,0,2.8-0.3,3.5,0.3c1.8,1.5,3.9,3.3,4.5,5.3c0.8,2.9-1.2,5.1-4.1,5.9
		c-1.4,0.4-2.9,0.4-4.3,0.4C172.3,268.8,158.1,268.8,143.8,268.8z"/>
	<path class="st1" d="M144,329.6c-14.3,0-28.5,0-42.8,0c-1.3,0-3.1,0.4-3.9-0.3c-1.8-1.5-3.9-3.3-4.5-5.3c-0.8-2.9,1.2-5,4-6
		c1-0.3,2.1-0.4,3.2-0.4c29.2,0,58.4,0,87.6,0c0.5,0,1.1,0,1.6,0c3.7,0.4,6.1,2.8,6,6.2c-0.1,3.2-2.4,5.5-6,5.7
		c-2.7,0.2-5.3,0.1-8,0.1C168.8,329.6,156.4,329.6,144,329.6z"/>
	<path class="st1" d="M365.3,101.4c8.4,0,16.8,0,25.1,0c4.8,0,7.3,2.2,7.3,6c-0.1,3.6-2.5,5.9-7.1,5.9c-17,0.1-34.1,0.1-51.1,0
		c-4.6,0-7.4-2.5-7.4-6.1c0.1-3.6,2.8-5.8,7.6-5.8C348.3,101.4,356.8,101.4,365.3,101.4z"/>
	<path class="st1" d="M239.4,28.8c4.9,0,9.9-0.1,14.8,0c4.2,0.1,6.6,2.2,6.7,5.8c0.1,3.7-2.4,6.1-6.8,6.2c-10,0.1-20,0.1-30,0
		c-4.4,0-7-2.4-7-6c0-3.6,2.6-5.9,7-5.9C229.3,28.7,234.4,28.8,239.4,28.8C239.4,28.8,239.4,28.8,239.4,28.8z"/>
	<path class="st1" d="M119.3,122.3c-1.2,1.5-2.2,3.7-3.8,4.4c-1.7,0.7-4.7,0.6-5.9-0.4c-6.8-6.3-13.4-12.9-19.8-19.6
		c-2.1-2.3-1.7-5.3,0.6-7.5c2.3-2.2,5.3-2.6,7.6-0.4c6.7,6.3,13.1,12.9,19.4,19.4C118.4,119,118.6,120.5,119.3,122.3z"/>
	<path class="st1" d="M31.2,131.9c3.8,0,6.5,2.5,6.5,6c0,3.4-2.9,6-6.6,5.9c-3.8-0.1-6.5-2.6-6.4-6.1
		C24.7,134.2,27.3,131.8,31.2,131.9z"/>
	<path class="st1" d="M385,247.2c-0.2,3.5-3.1,5.8-6.9,5.6c-3.8-0.2-6.4-2.9-6.1-6.4c0.2-3.4,3.1-5.8,6.9-5.6
		C382.6,241,385.2,243.7,385,247.2z"/>
</g>
</svg>
