<?xml version="1.0" encoding="utf-8"?>
<!-- Generator: Adobe Illustrator 22.1.0, SVG Export Plug-In . SVG Version: 6.00 Build 0)  -->
<svg version="1.1" id="Layer_1" xmlns="http://www.w3.org/2000/svg" xmlns:xlink="http://www.w3.org/1999/xlink" x="0px" y="0px"
	 viewBox="0 0 373 363.4" style="enable-background:new 0 0 373 363.4;" xml:space="preserve">
<style type="text/css">
	.st0{fill:#EC4033;}
	.st1{fill:#2056A5;}
</style>
<g>
	<path class="st0" d="M373,288.8c-2.2,3.1-5.2,3.8-8.8,3.7c-4.2-0.2-8.5,0-12.7,0c-1.6,3.7-3.3,7.3-4.6,10.9c-0.3,0.8,0.3,2.3,1,3
		c2.7,2.9,5.6,5.7,8.4,8.6c3.7,3.8,3.8,6.6,0.1,10.3c-7.2,7.3-14.4,14.5-21.6,21.6c-3.7,3.6-6.6,3.5-10.4-0.1
		c-2.9-2.8-5.6-5.8-8.6-8.4c-0.8-0.7-2.5-0.9-3.7-0.6c-1.7,0.4-3.3,1.7-5,2.1c-4.1,0.9-5.8,3-5.2,7.3c0.4,3.2,0.2,6.6,0,9.8
		c-0.2,4.4-2.3,6.4-6.7,6.4c-10.6,0.1-21.1,0.1-31.7,0c-4.6,0-6.5-2.2-6.6-6.8c-0.1-4-0.2-8,0-12c0.1-2.2-0.7-3.4-2.8-3.9
		c-1.3-0.3-2.5-0.9-3.8-1.4c-6-2.5-6-2.5-10.8,2.2c-2.1,2.1-4,4.2-6.2,6.1c-2.7,2.5-5.8,2.6-8.5,0c-7.9-7.7-15.7-15.5-23.4-23.5
		c-2.5-2.6-2.4-5.7,0.2-8.5c2.9-3.1,5.9-6.1,9-9c1.5-1.4,2-2.6,0.8-4.3c-0.6-1-1.4-2.1-1.5-3.3c-0.9-6.2-4.8-7.5-10.3-6.7
		c-2.5,0.3-5.1,0.1-7.6,0c-3.8-0.2-6.1-2-6.2-5.8c-0.2-11.2-0.2-22.3,0-33.5c0.1-3.8,2.5-5.7,6.6-5.8c4.2-0.1,8.5,0.1,12.7-0.1
		c1.1-0.1,2.2-1.2,3-2.2c0.6-0.7,0.6-1.9,1.1-2.6c4.1-5.8,1.7-9.5-3-13.8c-9.4-8.6-9.1-8.9-0.1-18c5.8-5.8,11.7-11.7,17.5-17.5
		c3.9-3.9,6.6-3.9,10.6,0c2.8,2.7,5.4,5.6,8.3,8.2c0.9,0.8,2.6,0.8,4,0.8c0.9,0,1.7-1,2.6-1.1c7.2-1.1,8.4-5.7,7.5-11.9
		c-0.3-2.3-0.1-4.6,0-6.9c0.2-3.4,2-5.6,5.5-5.6c11.3-0.1,22.6-0.1,33.9,0c3.6,0,5.5,2.4,5.6,6.7c0.1,4.1,0.1,8.3,0,12.4
		c-0.1,1.9,0.6,2.9,2.4,3.4c1.1,0.3,2.1,0.7,3.1,1.1c7.1,2.8,7.1,2.8,12.5-2.6c1.8-1.8,3.5-3.7,5.5-5.4c2.7-2.4,5.6-2.6,8.2-0.1
		c7.9,7.7,15.8,15.5,23.5,23.4c2.8,2.9,2.7,5.7-0.1,8.7c-3,3.2-6.3,6.1-9.2,9.4c-0.7,0.8-0.8,2.4-0.7,3.6c0.1,1,1.1,2,1.2,3
		c1,6.9,5.4,8.1,11.4,7.2c1.7-0.2,3.4,0,5.1-0.1c3.6-0.2,6.4,0.9,8.1,4.3C373,264,373,276.4,373,288.8z M329.2,204.5
		c-2.9,3-5.9,6-8.8,9.1c-2.6,2.8-5.4,3.1-8.9,1.5c-4.9-2.3-10-4.4-15.1-6.3c-5-1.9-5.9-2.9-5.9-8.2c0-4.1,0-8.2,0-12.4
		c-7.5,0-14.5,0-21.4,0c-0.2,0.4-0.4,0.6-0.4,0.8c-0.1,3.8-0.1,7.5-0.1,11.3c-0.1,5.2-1.1,6.5-5.9,8.3c-5,1.9-9.9,3.9-14.8,6.1
		c-4.6,2.1-6.1,1.9-9.7-1.6c-3-2.9-5.9-5.9-8.5-8.4c-5.4,5.3-10.3,10.3-15.8,15.7c3,2.8,6.1,5.8,9.3,8.8c2.6,2.5,3,5.2,1.4,8.5
		c-2.4,5.1-4.5,10.4-6.6,15.7c-1.7,4.4-3,5.5-7.8,5.5c-4.2,0-8.4,0-12.6,0c0,7.5,0,14.5,0,21.9c4.4,0,8.6,0.1,12.8,0
		c4-0.1,6.2,1.6,7.6,5.4c1.9,5.2,4.1,10.4,6.3,15.4c1.9,4.4,1.8,6-1.6,9.4c-3,3-6.1,5.8-8.6,8.3c5.5,5.6,10.4,10.6,15.7,16
		c2.7-2.8,5.5-5.8,8.4-8.7c3.4-3.4,5.1-3.6,9.4-1.6c5,2.2,10,4.3,15.1,6.2c4.6,1.7,5.7,3.1,5.8,8c0,4.1,0,8.2,0,12.3
		c7.6,0,14.6,0,21.9,0c0-4.4,0.1-8.5,0-12.7c-0.2-4,1.5-6.3,5.3-7.6c5.3-2,10.6-4.1,15.8-6.5c3.5-1.6,6.3-1.3,8.9,1.5
		c3,3.2,5.9,6.3,8.4,9c5.5-5.5,10.6-10.5,16.1-16c-2.8-2.6-5.9-5.6-9-8.4c-2.8-2.6-3.1-5.4-1.5-8.9c2.4-5.2,4.6-10.4,6.5-15.7
		c1.4-3.7,3.6-5.5,7.6-5.4c4.2,0.1,8.4,0,12.7,0c0-7.5,0-14.6,0-21.9c-4.3,0-8.2,0-12.2,0c-5.2,0-6.3-1-8.2-6c-1.9-5-4-9.9-6.2-14.7
		c-1.9-4.3-1.8-6.1,1.5-9.4c3-2.9,6.2-5.7,9.2-8.5C339.6,214.7,334.6,209.7,329.2,204.5z"/>
	<path class="st1" d="M46.9,219c-3.4-8.6-6.5-16.7-9.9-24.7c-0.4-1-2.3-2-3.5-2c-8.4-0.2-16.8-0.1-25.1-0.1c-6.7,0-8.4-1.7-8.4-8.4
		c0-17.6,0-35.2,0-52.8c0-6.4,1.9-8.3,8.2-8.3c8.4,0,16.8-0.1,25.1,0c2.3,0,3.3-0.5,4.1-2.8c2.9-7.8,6.1-15.5,9.4-23.9
		c-5.2-5.2-10.9-11-16.7-16.7c-0.9-0.9-1.9-1.9-2.8-2.8c-4.6-4.6-4.6-7.1,0-11.6C39.9,52.4,52.4,39.8,65,27.3
		c4.4-4.4,7.1-4.4,11.4-0.1C82.3,33.1,88.3,39,94.1,45c1.9,2,3.3,1.9,5.6,0.8c6.5-3,13.1-5.8,19.8-8.2c2.7-1,3.5-2.1,3.4-4.9
		c-0.2-8.4-0.1-16.8,0-25.1c0-5.8,1.9-7.6,7.6-7.7c18,0,35.9,0,53.9,0c6.1,0,7.9,1.9,7.9,8.2c0,8.4,0.1,16.8-0.1,25.1
		c-0.1,2.6,0.9,3.4,3.2,4.2c6.7,2.5,13.4,5.1,19.8,8.2c2.8,1.3,4.2,0.9,6.1-1.1c5.7-6,11.6-11.7,17.5-17.6c4.2-4.1,6.9-4.1,11.1,0
		c12.7,12.7,25.4,25.4,38.1,38.1c4,4,4,6.9,0,10.9c-6.1,6.1-12.2,12.2-18.2,18.3c-0.8,0.8-1.6,2.7-1.2,3.5c3.3,8.2,7,16.2,10.7,24.7
		c8.7,0,17.9,0,27.1,0c6.9,0,8.6,1.6,8.6,8.5c0,9.3,0,18.7,0,28c0,6.7-2.7,8.8-9.1,7.3c-23.4-5.6-46.2-4-68.4,5.5
		c-0.4,0.2-0.9,0.4-1.3,0.5c-7.2,2.9-10.9,0.4-10.1-7.4c0.9-8.9,0.2-17.6-2.1-26.3c-8.7-33.7-43.5-56.5-78-51
		c-29.4,4.7-52.2,25.9-58.6,54.6c-8.8,39.5,18.1,78.5,58.1,84.5c8.1,1.2,16.2,1.1,24.2-0.5c1-0.2,1.9-0.3,2.9-0.4
		c5.1-0.4,7.8,2.7,6.6,7.7c-1.1,4.6-2.7,9.1-3.7,13.7c-4,18.5-3.2,36.9,2.6,54.9c3.4,10.7,2.1,12.6-9.3,12.6c-12.7,0-25.5,0-38.2,0
		c-5.8,0-7.7-1.9-7.7-7.6c0-8.6,0-17.2,0-25.9c0-1.8,0-3.2-2.3-3.8c-4.2-1.2-8.3-2.8-12.3-4.4c-3.9-1.6-7.7-3.6-11.8-5.5
		c-6.5,6.5-13.1,13.1-19.7,19.7c-4.9,4.9-7.2,4.9-12.2-0.1c-12.4-12.4-24.7-24.7-37.1-37.1c-4.7-4.7-4.7-7.1,0-11.9
		C34.1,231.7,40.8,225.2,46.9,219z M276.4,71.3c-11-11.1-21.8-21.9-32.6-32.9c-6,6-12.3,12.3-18.6,18.6c-4,4-5.5,3.9-10.6,1.6
		c-8.6-3.9-17.2-7.7-26.1-10.9c-7-2.6-7.8-3-7.8-10.5c0-4.1,0-8.3,0-12.4c0-4.3,0-8.7,0-13c-15.7,0-30.9,0-46.4,0
		c0,9.3,0,18.2,0,27.2c0,5.3-1.1,6.2-6,8.1c-9.1,3.5-18.3,7.1-27.2,11.1c-6,2.7-7.1,2.9-11.8-1.7c-6.1-6.2-12.3-12.4-18.2-18.4
		C60,49.3,49.3,60.1,38.2,71.2c6.4,6.3,12.9,12.8,19.5,19.3c2.7,2.6,3.5,5.4,1.5,8.8c-5.5,9.3-9.6,19.3-12.4,29.8
		c-1,3.7-3.3,5.4-7.1,5.3c-5.1-0.1-10.2,0-15.3,0c-4.2,0-8.4,0-12.5,0c0,15.7,0,30.9,0,46.4c9.5,0,18.7,0,27.9,0c3.6,0,6,1.5,7,5.1
		c2.8,10.6,6.9,20.7,12.5,30.1c1.9,3.3,1.1,6-1.5,8.5c-5,4.9-9.9,10-15,14.9c-1.6,1.6-3.5,2.9-4.6,3.8
		c11.5,11.6,22.2,22.4,33.1,33.4c6.2-6.2,12.7-12.6,19.1-19.1c2.6-2.6,5.3-3.7,8.8-1.7c9.5,5.5,19.5,9.7,30.1,12.5
		c3.6,1,5.1,3.3,5,7c0,8,0,16,0,24c0,1.3,0,2.6,0,3.9c10.9,0,21.2,0,31.8,0c-6.1-21.4-6.2-42.5-0.8-63.9
		c-53,5.7-91.8-38.8-91.2-82.2c0.6-42.9,34.3-80.7,81.1-81.5c41.9-0.8,82.6,32.5,83.1,83.6c21.2-7.7,42.8-9.3,64.9-4.9
		c0-6.8,0-13.2,0-19.9c-9.4,0-18.6-0.1-27.9,0c-3.8,0-6.3-1.6-7.2-5.3c-2.7-10.5-6.9-20.4-12.3-29.8c-1.8-3.1-1.4-6,1.2-8.6"/>
	<path class="st0" d="M96.4,157c0.9-23.1,11.3-41.4,32.3-52.3c21.3-11,42.4-9,62.2,4.7c1.7,1.2,3.3,3.4,3.7,5.4
		c0.3,1.6-1.1,4.3-2.6,5c-1.6,0.9-4.3,0.7-6.1-0.1c-3.6-1.6-6.8-4.2-10.4-5.9c-18.6-8.4-40.2-4.3-54,10.2
		c-14.4,15.1-17.6,36.7-8.3,55.3c11.7,23.1,40.1,32.6,63.6,21.3c23.2-11.2,33.5-39.3,22.8-62.7c-0.5-1.1-1.1-2.2-1.5-3.3
		c-1.2-3.3-0.2-6.4,2.6-7.7c3-1.4,6.5-0.4,7.8,3.2c2.4,6.4,5.3,12.9,6.2,19.7c4.1,31.3-15.6,58.9-46.4,66
		c-34.4,7.9-69.5-18.2-71.7-53.4C96.6,160.6,96.5,159.1,96.4,157z"/>
	<path class="st1" d="M278.7,319.7c-27.4,0-49.9-22.4-49.9-49.8c0-27.3,22.5-49.8,49.9-49.7c27.5,0,49.8,22.4,49.8,49.8
		C328.6,297.3,306.2,319.7,278.7,319.7z M279,231.7c-20.6-0.2-38.2,17-38.5,37.6c-0.3,21,16.9,38.6,38,38.9
		c20.6,0.3,38.2-17,38.4-37.7C317.2,249.3,300.2,231.9,279,231.7z"/>
	<path class="st0" d="M306.2,270c-0.1,15-12.3,27.3-27.3,27.5c-15,0.1-27.6-12.5-27.5-27.6c0-15,12.3-27.3,27.3-27.5
		C293.7,242.2,306.2,254.8,306.2,270z M262.9,269.8c0,8.9,7,16,15.8,16c8.8,0,15.9-7.2,15.9-16c-0.1-8.7-7-15.8-15.7-15.9
		C270.2,253.8,262.9,261,262.9,269.8z"/>
</g>
</svg>
