<?xml version="1.0" encoding="utf-8"?>
<!-- Generator: Adobe Illustrator 22.1.0, SVG Export Plug-In . SVG Version: 6.00 Build 0)  -->
<svg version="1.1" id="Layer_1" xmlns="http://www.w3.org/2000/svg" xmlns:xlink="http://www.w3.org/1999/xlink" x="0px" y="0px"
	 viewBox="0 0 412.6 512" style="enable-background:new 0 0 412.6 512;" xml:space="preserve">
<style type="text/css">
	.st0{fill:#2056A5;}
	.st1{fill:#EC4033;}
</style>
<g>
	<g>
		<g>
			<path class="st0" d="M252,491.9H41.1c-11,0-21-9.6-21-20.7V39.4c0-11,10-19.3,21-19.3H252c5.5,0,10-4.5,10-10c0-5.5-4.5-10-10-10
				H41.1C19,0,0,17.3,0,39.4v431.9C0,493.4,19,512,41.1,512H252c5.5,0,10-4.5,10-10S257.6,491.9,252,491.9z"/>
		</g>
	</g>
</g>
<g>
	<g>
		<g>
			<path class="st1" d="M410.1,243.6l-90.4-100.4c-3.7-4.1-10.1-4.5-14.2-0.7c-4.1,3.7-4.5,10.4-0.7,14.5l75.3,84H151.6
				c-5.5,0-10,4.5-10,10s4.5,10,10,10h226.7l-73.2,72.9c-3.9,3.9-3.9,10.1,0,14c2,2,4.5,2.9,7.1,2.9s5.1-1,7.1-3l90.4-90.4
				C413.5,253.6,413.6,247.6,410.1,243.6z"/>
		</g>
	</g>
</g>
</svg>
