<svg xmlns="http://www.w3.org/2000/svg" viewBox="0 0 513.47 475.73"><defs><style>.cls-1{fill:#19a8ce;}.cls-2{fill:#50a50e;}</style></defs><title>dashpract01</title><g id="Layer_2" data-name="Layer 2"><g id="Layer_1-2" data-name="Layer 1"><path class="cls-1" d="M1.42,47C3.05,36,6.64,25.52,14.2,16.8,23.57,6,37.24.6,51.4.55Q134.5.22,217.6.43c27,0,60.3-5.21,77.79,20.54,13.24,19.49,8.85,43.2,8.89,65.18q.08,41.64.09,83.29,0,22.89,0,45.8c0,24.7-11.65,48.89-37.46,54.62a73.1,73.1,0,0,1-15.35,1.56q-41.24.21-82.48,0a11.14,11.14,0,0,0-8.75,3.64Q123.74,312.32,87,349.41A21.21,21.21,0,0,1,81.13,354C73,357.77,65,351.27,65.75,342c1.64-21.54,3-43.11,4.5-64.67.11-1.64,0-3.3,0-5.85-5.62,0-11.1.55-16.42-.13-8.16-1-16.76-1.62-24.22-4.71-13.37-5.56-22.6-18-26.74-31.58C-2,218.93.81,201.67.86,185.13q.08-20.82.15-41.66c0-17.08-.14-34.17-.27-51.25C.63,77.89-.76,61.92,1.42,47ZM180.33,177.9c12-6.45,19.8-15.71,23.56-28a87.88,87.88,0,0,0,1.14-47.3c-4.85-19.64-17-32.69-37.45-36.1a93.47,93.47,0,0,0-25.71-.74C124,67.79,110.31,76.7,103.26,94c-6.45,15.78-6.61,32.21-3.32,48.54,4.47,22.24,17.92,37,40.88,38.72,12.39.91,18.58,7.17,24.57,15.84a7.43,7.43,0,0,1,.56.82c4.39,8.81,11.34,12,21.11,10.7,5.95-.79,12.09-.15,18.15-.15l.59-1.38Z"/><path class="cls-2" d="M512.23,348.88a55.86,55.86,0,0,1-5.53,17.4A48.51,48.51,0,0,1,465,391.75c-7,.08-13.92,0-21.51,0,.45,7.3.79,14.06,1.29,20.81q1.75,23.91,3.64,47.82c.57,7.09-1.63,11.91-6.78,14.22s-9.63,1.1-14.72-4.05c-24.35-24.66-48.77-49.27-73-74.09a14.71,14.71,0,0,0-11.76-4.8c-27.66.2-55.33.11-83,.09-29.66,0-50.17-20.61-50.19-50.38,0-16.15,0-32.3,0-48.85h23.61v5.22c0,15.17,0,30.33,0,45.5.06,14.52,10.3,24.82,24.9,24.86q47,.13,94,0a16.82,16.82,0,0,1,12.9,5.32c10.12,10.38,20.51,20.49,30.67,30.83,5.21,5.29,10.36,10.65,15.37,16.12,1.55,1.69,9.29,12.93,11.73,10.27a3.9,3.9,0,0,0,.68-2.65c.11-15.72-2.91-30.93-3.74-46.56-.53-8,4.57-13.18,12.76-13.25,10.66-.09,21.33,0,32,0,14.73-.07,25.09-10.44,25.1-25.22q0-87,0-174c0-14.78-10.37-25.15-25.14-25.16q-66.24,0-132.49,0h-6.11V120.15H331q66,0,132,0c16.33,0,31.37,7.44,40.4,21.19,10.76,16.38,10.38,36.49,9.95,55.29-.52,22.48,0,45-.16,67.51Q513,286,512.9,307.84C512.83,320.92,514.36,335.36,512.23,348.88Z"/><path class="cls-2" d="M419.51,311.76c-7.48,0-14.31-.15-21.12.07-3,.1-4.46-.83-5.24-3.8-1.65-6.26-3.73-12.41-5.47-18.65-.72-2.6-1.9-3.74-4.84-3.69-11.65.18-23.31.2-35,0-3.19-.06-4.34,1.29-5.12,4-1.81,6.39-3.68,12.78-5.86,19.05a5.08,5.08,0,0,1-3.57,2.89c-7.3.28-14.62.13-22.53.13,3.76-10.72,7.37-21,11-31.34C330.86,254.56,340,228.71,349,202.8c1.21-3.53,2.83-5,6.69-4.75,6.8.36,13.65.19,20.47.06,2.47-.05,3.82.55,4.73,3.14q18.9,54.1,38,108.15C419.09,310,419.21,310.63,419.51,311.76ZM380.17,263.9c-4.92-15.95-9.71-31.49-14.93-48.4-5.1,17-9.77,32.52-14.54,48.4Z"/><path class="cls-1" d="M124.93,123.64c0-11.73,2.59-25.14,11-31.91.35-.28.71-.56,1.08-.82,8.1-5.64,19.37-5.7,28-1.21,7.57,3.94,12.07,11.83,14.51,19.75,4.51,14.67,3.64,35.72-8.87,46.48-.44.37-.89.74-1.36,1.08-5.08,3.74-11.58,4.74-17.75,4.52-15.52-.57-23.83-13.17-25.84-27.4A76.43,76.43,0,0,1,124.93,123.64Z"/></g></g></svg>