<?xml version="1.0" encoding="utf-8"?>
<!-- Generator: Adobe Illustrator 22.1.0, SVG Export Plug-In . SVG Version: 6.00 Build 0)  -->
<svg version="1.1" id="Objects" xmlns="http://www.w3.org/2000/svg" xmlns:xlink="http://www.w3.org/1999/xlink" x="0px" y="0px"
	 viewBox="0 0 1028.3 155" style="enable-background:new 0 0 1028.3 155;" xml:space="preserve">
<style type="text/css">
	.st0{fill:#1B8F59;}
	.st1{fill:#7BE1FC;}
	.st2{fill:#C2C0BC;}
	.st3{fill:#B5B3AF;}
	.st4{fill:#D3D1CD;}
	.st5{fill:#52AF52;}
	.st6{fill:#6FCE6F;}
	.st7{fill:#472D21;}
	.st8{fill:#BA7D34;}
	.st9{fill:#EBAA5C;}
	.st10{fill:#DB933D;}
	.st11{fill:#F9FFDD;}
	.st12{fill:#479947;}
	.st13{fill:#F4CFA2;}
	.st14{fill:#EA3F3F;}
	.st15{fill:#EAB447;}
	.st16{fill:#2C6C82;}
	.st17{fill:#E5E5E5;}
	.st18{fill:#F4F4F4;}
	.st19{fill:#3B87A8;}
	.st20{fill:#9E3232;}
	.st21{fill:#F7F7F7;}
	.st22{fill:#394159;}
	.st23{fill:#525C82;}
	.st24{fill:#EDD045;}
	.st25{fill:#38211C;}
	.st26{fill:#3F4F7A;}
	.st27{fill:#2A303F;}
	.st28{fill:#773B13;}
	.st29{fill:#333A56;}
	.st30{fill:#51AF82;}
	.st31{fill:#47A073;}
	.st32{fill:#5ED198;}
	.st33{fill:#232323;}
	.st34{fill:#0A0A0A;}
	.st35{fill:#191919;}
	.st36{fill:#333333;}
	.st37{fill:#FFFFFF;}
</style>
<path class="st0" d="M709.4,81.4c-2.5-0.9-5.2-1.4-8-1.4c-7.5,0-14.3,3.4-18.8,8.7c-3.8-10.3-13.7-17.6-25.3-17.6
	c-14.9,0-26.9,12-27,26.9c-0.3,0-0.7-0.1-1-0.1c-2.2,0-4.2,0.8-5.7,2.2c-2.8-5.5-8.6-9.2-15.2-9.2c-4.1,0-7.8,1.4-10.8,3.8
	C593.8,86.1,585.1,80,575,80c-6,0-11.5,2.2-15.8,5.8c-4.5-5.6-11.4-9.2-19.2-9.2c-11.1,0-20.5,7.4-23.5,17.5c-3.1-4-8-6.6-13.4-6.6
	c-3.1,0-6,0.8-8.5,2.3c-2.5-1.5-5.4-2.3-8.5-2.3c-5.4,0-10.2,2.5-13.3,6.4c-1.4-0.9-3-1.4-4.7-1.4c-2.6,0-4.9,1.2-6.5,3
	c-3-4.8-8.3-8-14.4-8c-4.1,0-7.8,1.4-10.8,3.8c-3.8-8.7-12.4-14.8-22.5-14.8c-13.6,0-24.6,11-24.6,24.6c0,1,0.1,2.1,0.2,3.1h-20.6
	c-1.7-7.6-8.5-13.2-16.6-13.2c-2.9,0-5.6,0.7-8,2c-2.2-15.4-15.4-27.3-31.4-27.3c-17.5,0-31.7,14.2-31.7,31.7c0,1,0.1,2,0.1,3
	c-2.8-5.6-8.6-9.4-15.2-9.4c-5.4,0-10.2,2.5-13.3,6.4c-1.4-0.9-3-1.4-4.7-1.4c-2.6,0-4.9,1.2-6.5,3c-3-4.8-8.3-8-14.4-8
	c-4.1,0-7.8,1.4-10.8,3.8c-3.8-8.7-12.4-14.8-22.5-14.8c-9.8,0-18.3,5.8-22.2,14.1c-2.8-2-6.2-3.2-9.9-3.2c-3.7,0-7.2,1.2-10,3.3
	C147.5,85.8,139,80,129.2,80c-13.4,0-24.3,10.8-24.6,24.2H91.7c-1.7-7.6-8.5-13.2-16.6-13.2c-5.4,0-10.2,2.5-13.3,6.4
	c-1.4-0.9-3-1.4-4.7-1.4c-2.6,0-4.9,1.2-6.5,3c-3-4.8-8.3-8-14.4-8c-4.1,0-7.8,1.4-10.8,3.8C21.6,86.1,12.9,80,2.9,80
	c-1,0-1.9,0.1-2.9,0.2v34.3h709.4V81.4z"/>
<g>
	<path class="st1" d="M284.9,46.2v-4.9c0-2.7-2.2-5-5-5s-5,2.2-5,5v4.1c-0.9-0.9-2.2-1.5-3.6-1.5c-2.7,0-5,2.2-5,5v4.9h1.4v-4.9
		c0-2,1.6-3.6,3.6-3.6c2,0,3.6,1.6,3.6,3.6v8.9v13.8h1.4V57.6c0-2,1.6-3.6,3.6-3.6s3.6,1.6,3.6,3.6v4.9h1.4v-4.9c0-2.7-2.2-5-5-5
		c-1.4,0-2.7,0.6-3.6,1.5v-5.4v-7.5c0-2,1.6-3.6,3.6-3.6s3.6,1.6,3.6,3.6v4.9H284.9z"/>
	<polygon class="st2" points="285.8,111.6 265.5,111.6 272.1,81.2 279.2,81.2 	"/>
	<polygon class="st3" points="279.2,81.2 275.7,81.2 275.7,111.6 285.8,111.6 	"/>
	<path class="st4" d="M275.7,86.1c9.7,0,17.6-7.9,17.6-17.6H258C258,78.2,265.9,86.1,275.7,86.1z"/>
	<path class="st2" d="M293.3,68.5h-17.6v17.6C285.4,86.1,293.3,78.2,293.3,68.5z"/>
</g>
<g>
	<path class="st5" d="M115.3,22.7c0-0.1,0-0.3,0-0.4C115.3,10,105.3,0,93,0C81.8,0,72.5,8.3,70.9,19.1C60.7,22.4,53.2,32,53.2,43.4
		c0,12.8,9.5,23.5,21.9,25.2c5.7,6.8,14.2,11.1,23.7,11.1c17,0,30.9-13.8,30.9-30.9C129.7,37.8,123.9,28.2,115.3,22.7z"/>
	<path class="st6" d="M80.5,27.7C82,16.9,91.3,8.6,102.5,8.6c3.4,0,6.6,0.8,9.5,2.1C108.1,4.3,101.1,0,93,0
		C81.8,0,72.5,8.3,70.9,19.1C60.7,22.4,53.2,32,53.2,43.4c0,9.8,5.6,18.3,13.7,22.6c-2.7-4-4.2-8.8-4.2-14
		C62.7,40.6,70.2,31,80.5,27.7z"/>
	<path class="st7" d="M109.2,52c-0.7-1-2.1-1.3-3.1-0.6l-12.5,8.3v-26c0-1.2-1-2.2-2.2-2.2c-1.2,0-2.2,1-2.2,2.2v9.9l-9.2-5.6
		c-1.1-0.6-2.4-0.3-3.1,0.7c-0.6,1.1-0.3,2.4,0.7,3.1l11.5,7v15c0,0,0,0,0,0v46c0,1.2,1,2.2,2.2,2.2c1.2,0,2.2-1,2.2-2.2V65
		l14.9-9.9C109.6,54.4,109.9,53,109.2,52z"/>
</g>
<g>
	<path class="st7" d="M622.2,118.6c-1.4,0-2.5-1.1-2.5-2.5V32c0-1.4,1.1-2.5,2.5-2.5c1.4,0,2.5,1.1,2.5,2.5v84.1
		C624.7,117.5,623.6,118.6,622.2,118.6z"/>
	<g>
		<g>
			<polygon class="st6" points="622.2,7.8 600.2,39.7 622.2,39.7 			"/>
			<polygon class="st5" points="622.2,7.8 644.2,39.7 622.2,39.7 			"/>
		</g>
		<g>
			<polygon class="st6" points="622.2,23.8 596.5,61.1 622.2,61.1 			"/>
			<polygon class="st5" points="622.2,23.8 647.9,61.1 622.2,61.1 			"/>
		</g>
		<g>
			<polygon class="st6" points="622.2,42.4 592.3,86 622.2,86 			"/>
			<polygon class="st5" points="622.2,42.4 652.1,86 622.2,86 			"/>
		</g>
	</g>
</g>
<g>
	<path class="st5" d="M386.2,26.8c0-0.1,0-0.3,0-0.4c0-11.7-9.5-21.3-21.3-21.3c-10.7,0-19.6,7.9-21,18.3
		c-9.8,3.1-16.9,12.3-16.9,23.1c0,12.3,9.1,22.4,20.9,24c5.4,6.5,13.5,10.6,22.6,10.6c16.3,0,29.4-13.2,29.4-29.4
		C399.9,41.2,394.4,32,386.2,26.8z"/>
	<path class="st6" d="M352.9,31.6c1.5-10.3,10.3-18.3,21-18.3c3.2,0,6.3,0.7,9.1,2c-3.7-6.1-10.5-10.2-18.2-10.2
		c-10.7,0-19.6,7.9-21,18.3c-9.8,3.1-16.9,12.3-16.9,23.1c0,9.4,5.3,17.5,13.1,21.5c-2.5-3.8-4-8.4-4-13.4
		C336,43.9,343.1,34.7,352.9,31.6z"/>
	<g>
		<path class="st7" d="M363.4,112.1c-1.2,0-2.1-1-2.1-2.1V37.2c0-1.2,1-2.1,2.1-2.1c1.2,0,2.1,1,2.1,2.1V110
			C365.6,111.1,364.6,112.1,363.4,112.1z"/>
		<path class="st7" d="M363.4,68.2c-0.7,0-1.4-0.3-1.8-1c-0.7-1-0.4-2.3,0.6-3l15.2-10.1c1-0.7,2.3-0.4,3,0.6c0.7,1,0.4,2.3-0.6,3
			l-15.2,10.1C364.2,68.1,363.8,68.2,363.4,68.2z"/>
		<path class="st7" d="M363.4,52.6c-0.4,0-0.8-0.1-1.1-0.3l-12-7.3c-1-0.6-1.3-1.9-0.7-2.9c0.6-1,1.9-1.3,2.9-0.7l12,7.3
			c1,0.6,1.3,1.9,0.7,2.9C364.8,52.3,364.1,52.6,363.4,52.6z"/>
	</g>
</g>
<g>
	<path class="st7" d="M27.4,114.6c-1.4,0-2.5-1.1-2.5-2.5V28c0-1.4,1.1-2.5,2.5-2.5c1.4,0,2.5,1.1,2.5,2.5v84.1
		C29.9,113.5,28.8,114.6,27.4,114.6z"/>
	<ellipse class="st6" cx="27.4" cy="42.1" rx="16.2" ry="42.1"/>
	<path class="st5" d="M43.6,42.1C43.6,18.8,36.4,0,27.4,0v84.2C36.4,84.2,43.6,65.3,43.6,42.1z"/>
</g>
<g>
	<path class="st7" d="M682.8,114.6c-1.4,0-2.5-1.1-2.5-2.5V28c0-1.4,1.1-2.5,2.5-2.5c1.4,0,2.5,1.1,2.5,2.5v84.1
		C685.3,113.5,684.2,114.6,682.8,114.6z"/>
	<ellipse class="st6" cx="682.8" cy="42.1" rx="16.2" ry="42.1"/>
	<path class="st5" d="M699,42.1C699,18.8,691.8,0,682.8,0v84.2C691.8,84.2,699,65.3,699,42.1z"/>
</g>
<g>
	<rect x="139.8" y="99.5" class="st8" width="6.2" height="17.8"/>
	<rect x="225.1" y="99.5" class="st8" width="6.2" height="17.8"/>
	<rect x="148.5" y="68.2" class="st9" width="6.2" height="44.2"/>
	<rect x="216.5" y="68.2" class="st9" width="6.2" height="44.2"/>
	<rect x="139.8" y="97.6" class="st10" width="91.5" height="3.8"/>
	<polygon class="st9" points="139.8,97.6 148.5,93.6 222.7,93.6 231.3,97.6 	"/>
	<g>
		<rect x="148.5" y="72.4" class="st10" width="74.2" height="3.8"/>
		<path class="st8" d="M152.3,74.3c0,0.4-0.3,0.7-0.7,0.7c-0.4,0-0.7-0.3-0.7-0.7c0-0.4,0.3-0.7,0.7-0.7
			C151.9,73.6,152.3,73.9,152.3,74.3z"/>
		<path class="st8" d="M220.3,74.3c0,0.4-0.3,0.7-0.7,0.7c-0.4,0-0.7-0.3-0.7-0.7c0-0.4,0.3-0.7,0.7-0.7
			C220,73.6,220.3,73.9,220.3,74.3z"/>
	</g>
	<g>
		<rect x="148.5" y="79.4" class="st10" width="74.2" height="3.8"/>
		<path class="st8" d="M152.3,81.3c0,0.4-0.3,0.7-0.7,0.7c-0.4,0-0.7-0.3-0.7-0.7s0.3-0.7,0.7-0.7C151.9,80.6,152.3,80.9,152.3,81.3
			z"/>
		<path class="st8" d="M220.3,81.3c0,0.4-0.3,0.7-0.7,0.7c-0.4,0-0.7-0.3-0.7-0.7s0.3-0.7,0.7-0.7C220,80.6,220.3,80.9,220.3,81.3z"
			/>
	</g>
	<g>
		<rect x="148.5" y="86.4" class="st10" width="74.2" height="3.8"/>
		<path class="st8" d="M152.3,88.3c0,0.4-0.3,0.7-0.7,0.7c-0.4,0-0.7-0.3-0.7-0.7s0.3-0.7,0.7-0.7C151.9,87.6,152.3,87.9,152.3,88.3
			z"/>
		<path class="st8" d="M220.3,88.3c0,0.4-0.3,0.7-0.7,0.7c-0.4,0-0.7-0.3-0.7-0.7s0.3-0.7,0.7-0.7C220,87.6,220.3,87.9,220.3,88.3z"
			/>
	</g>
</g>
<rect y="123.1" class="st5" width="709.4" height="31.9"/>
<rect y="111.5" class="st11" width="709.4" height="11.6"/>
<rect y="139.1" class="st5" width="709.4" height="16"/>
<g>
	<path class="st7" d="M742.8,118.6c1.4,0,2.5-1.1,2.5-2.5V32c0-1.4-1.1-2.5-2.5-2.5c-1.4,0-2.5,1.1-2.5,2.5v84.1
		C740.3,117.5,741.5,118.6,742.8,118.6z"/>
	<g>
		<g>
			<polygon class="st6" points="742.8,7.8 764.8,39.7 742.8,39.7 			"/>
			<polygon class="st5" points="742.8,7.8 720.9,39.7 742.8,39.7 			"/>
		</g>
		<g>
			<polygon class="st6" points="742.8,23.8 768.6,61.1 742.8,61.1 			"/>
			<polygon class="st5" points="742.8,23.8 717.1,61.1 742.8,61.1 			"/>
		</g>
		<g>
			<polygon class="st6" points="742.8,42.4 772.8,86 742.8,86 			"/>
			<polygon class="st5" points="742.8,42.4 712.9,86 742.8,86 			"/>
		</g>
	</g>
</g>
<path class="st5" d="M978.9,26.8c0-0.1,0-0.3,0-0.4c0-11.7,9.5-21.3,21.3-21.3c10.7,0,19.6,7.9,21,18.3c2.6,0.8,5,2.1,7.2,3.7
	l0,38.8c-3.2,2.4-7,4-11.2,4.6c-5.4,6.5-13.5,10.6-22.6,10.6c-16.3,0-29.4-13.2-29.4-29.4C965.1,41.2,970.6,32,978.9,26.8z"/>
<path class="st7" d="M1001.6,112.1c1.2,0,2.1-1,2.1-2.1V37.2c0-1.2-1-2.1-2.1-2.1c-1.2,0-2.1,1-2.1,2.1V110
	C999.5,111.1,1000.4,112.1,1001.6,112.1z"/>
<path class="st7" d="M1001.6,68.2c0.7,0,1.4-0.3,1.8-1c0.7-1,0.4-2.3-0.6-3l-15.2-10.1c-1-0.7-2.3-0.4-3,0.6c-0.7,1-0.4,2.3,0.6,3
	l15.2,10.1C1000.8,68.1,1001.2,68.2,1001.6,68.2z"/>
<path class="st7" d="M1001.6,52.6c0.4,0,0.8-0.1,1.1-0.3l12-7.3c1-0.6,1.3-1.9,0.7-2.9c-0.6-1-1.9-1.3-2.9-0.7l-12,7.3
	c-1,0.6-1.3,1.9-0.7,2.9C1000.2,52.3,1000.9,52.6,1001.6,52.6z"/>
<g>
	<path class="st7" d="M682.2,114.6c1.4,0,2.5-1.1,2.5-2.5V28c0-1.4-1.1-2.5-2.5-2.5c-1.4,0-2.5,1.1-2.5,2.5v84.1
		C679.7,113.5,680.8,114.6,682.2,114.6z"/>
	<ellipse class="st6" cx="682.2" cy="42.1" rx="16.2" ry="42.1"/>
	<path class="st5" d="M666,42.1C666,18.8,673.3,0,682.2,0v84.2C673.3,84.2,666,65.3,666,42.1z"/>
</g>
<g>
	<g>
		<path class="st13" d="M221.6,70.1c0,0,0.2-3.9,2.9-4.8c2.7-0.9,4,0.6,3.6,1.6c0.6,1.1-0.1,2-0.2,2.1c0.7,0.7,0,1.6-0.2,1.7
			C229.2,72,221.9,75.8,221.6,70.1z"/>
		<path class="st14" d="M219.3,70.2c0,0,1.2-0.8,1.7-0.9c0.6-0.2,1.5,0.6,2.1,3.9c0.1,0.9-2.7,1.7-3.6,2.1
			C218.6,75.6,219.3,70.2,219.3,70.2z"/>
		<path class="st15" d="M218.8,69.8c-1.5,1.5-7.6,4-11.2,3.6v7.1c5.5-0.8,12.1-3.6,13-4.9C221.9,73.9,221.1,69.3,218.8,69.8z"/>
	</g>
	<g>
		<path class="st16" d="M224,58.3l0.3,4.3c0,0,7,0.2,7.4-1.3C229.7,59,225,58.3,224,58.3z"/>
		<path class="st17" d="M223.3,59l0.3,4.3c0,0,7.7-0.5,8.1-2C229.7,59,224.3,59,223.3,59z"/>
		<path class="st18" d="M222.6,59.7l0.3,4.3c0,0,8.4-1.2,8.8-2.7C230.2,59.6,223.6,59.7,222.6,59.7z"/>
		<path class="st17" d="M222.1,61.2c0,0,2.7,14,0.1,24.8c4.1,0.6,8.8-1,8.8-1s2.2-13.3,0.8-23.8C229.5,62.2,222.1,61.2,222.1,61.2z"
			/>
		<path class="st19" d="M221.6,62.3c0,0,3.1,13,0.5,23.8c4.1,0.6,8.8-1,8.8-1s2.2-13.3,0.8-23.8C229.5,62.2,221.6,62.3,221.6,62.3z"
			/>
	</g>
	<g>
		<g>
			<g>
				<g>
					<path class="st20" d="M212.3,111.2c0,0-1.4,2.9-1.3,5.8c0.1,5.9-4,6.4-4.2,4.8c-0.1-1.7-0.3-11.2-0.3-12.8
						c0-2.2,1.3-2.4,4.1-2.5C212.8,107.7,212.3,111.2,212.3,111.2z"/>
				</g>
				<g>
					<path class="st14" d="M209,122.2c0.3-0.9,0.8-1.7,1.2-2.5c-0.1-3.3-0.4-7,2.1-9.5c0-1.1-0.3-2.8-1.7-3.6
						c-2.8,0.1-4.1,0.3-4.1,2.5c0,1.6,0.2,11.2,0.3,12.8C206.9,122.6,208,122.9,209,122.2z"/>
				</g>
				<g>
					<path class="st18" d="M211,117.8c-1.4-0.8-2.8-0.8-4.3-0.6c0.1,2.1,0.1,4,0.2,4.7C206.9,123.4,210.7,123,211,117.8z"/>
				</g>
				<g>
					<g>
						<path class="st18" d="M208.3,122.5c-0.2-0.1-0.4-0.3-0.4-0.6c-0.1-1.7-0.2-12.7-0.2-14.3c0-0.3,0-0.5,0.1-0.7
							c-0.9,0.3-1.3,0.9-1.3,2.1c0,1.6,0.2,11.2,0.3,12.8C206.9,122.5,207.5,122.7,208.3,122.5z"/>
					</g>
				</g>
			</g>
			<g>
				<path class="st21" d="M209.4,116.1l0.1-0.3c1,0.4,1.6,0.9,1.7,1.3c0.1,0.2-0.2,0.4-0.2,0.4l0-0.2c0,0,0-0.1-0.1-0.2
					C210.9,117,210.6,116.6,209.4,116.1z"/>
			</g>
			<g>
				<path class="st21" d="M209.6,114.5l0.1-0.3c0.9,0.4,1.5,0.8,1.6,1.3c0.1,0.5-0.1,0.5-0.1,0.5L211,116c-0.1,0,0.1-0.1,0-0.3
					C211,115.4,210.6,115,209.6,114.5z"/>
			</g>
			<g>
				<path class="st21" d="M209.8,113.1l0.1-0.3c0.9,0.4,1.4,0.8,1.6,1.3c0.2,0.5-0.3,0.4-0.3,0.5l0.1-0.1c0,0,0.1-0.1,0-0.3
					C211.1,113.9,210.8,113.5,209.8,113.1z"/>
			</g>
			<g>
				<path class="st21" d="M210.2,111.5l0.1-0.3c0.9,0.4,1.4,0.8,1.6,1.3c0.1,0.3,0,0.3,0,0.3l-0.3,0.1c0,0,0.1-0.1,0-0.3
					C211.5,112.3,211.2,111.9,210.2,111.5z"/>
			</g>
			<g>
				<path class="st21" d="M210,112.9c0.9,0.2,1.8-0.3,1.8-0.3l0.1,0.2c0,0-1,0.6-2,0.4L210,112.9z"/>
			</g>
			<g>
				<path class="st21" d="M209.7,114.3c0.9,0.2,1.7-0.1,1.7-0.1l0.1,0.2c-0.2,0.2-0.9,0.4-1.9,0.2L209.7,114.3z"/>
			</g>
			<g>
				<path class="st21" d="M209.4,115.9c0.9,0.2,1.7-0.1,1.7-0.1l0.1,0.3c0,0-0.9,0.3-1.9,0.1L209.4,115.9z"/>
			</g>
			<g>
				<path class="st21" d="M209.3,116.3c-0.2-0.1-0.3-0.2-0.2-0.4c0.1-0.2,0.2-0.3,0.4-0.2c0.2,0.1,0.3,0.2,0.2,0.4
					C209.7,116.3,209.5,116.4,209.3,116.3z"/>
			</g>
			<g>
				<path class="st21" d="M209.5,114.7c-0.2-0.1-0.3-0.2-0.2-0.4c0.1-0.2,0.2-0.3,0.4-0.2c0.2,0.1,0.3,0.2,0.2,0.4
					C209.9,114.7,209.7,114.8,209.5,114.7z"/>
			</g>
			<g>
				<path class="st21" d="M209.8,113.3c-0.2-0.1-0.3-0.2-0.2-0.4c0.1-0.2,0.2-0.3,0.4-0.2c0.2,0.1,0.3,0.2,0.2,0.4
					C210.1,113.2,209.9,113.3,209.8,113.3z"/>
			</g>
			<g>
				<path class="st21" d="M210.2,111.7c-0.2-0.1-0.3-0.2-0.2-0.4c0.1-0.2,0.2-0.3,0.4-0.2c0.2,0.1,0.3,0.2,0.2,0.4
					C210.6,111.7,210.4,111.8,210.2,111.7z"/>
			</g>
		</g>
		<path class="st22" d="M212.3,87.1c0,0,23.9,4.6,17.4,12.5c-3.7,4.5-12.3,9.3-13.1,10.2c-0.9,0.9-1.9,1.8-2.5,1.5
			c-0.6-0.3-0.9,1.4-1.7,1.3c-0.8-0.1-2.3-3-2.2-5.3c0.1-2.3,1.5-2.2,2-2.1c0.5,0,1.3-1.6,1.9-1.4c0.6,0.2,6-4.8,7.5-5.7
			c2.7-1.7-7.8-1.9-8.6-2.5c-0.9-0.7-11.9-1.5-10.6-4.4C204.1,87.1,212.3,87.1,212.3,87.1z"/>
	</g>
	<g>
		<g>
			<g>
				<g>
					<path class="st20" d="M227,116.4c0,0,2.5,2.1,5.3,2.8c5.7,1.4,5.2,5.5,3.6,5.3c-1.6-0.3-10.9-2.5-12.5-3
						c-2.1-0.6-2-1.8-1.3-4.6C223.7,115.1,227,116.4,227,116.4z"/>
				</g>
				<g>
					<path class="st14" d="M236.8,122.5c-0.8-0.5-1.5-1.2-2.1-1.8c-3.3-0.8-6.9-1.4-8.7-4.5c-1.1-0.2-2.8-0.4-3.9,0.7
						c-0.6,2.8-0.8,4,1.3,4.6c1.6,0.4,10.8,2.7,12.5,3C236.7,124.6,237.2,123.6,236.8,122.5z"/>
				</g>
				<g>
					<path class="st18" d="M233,119.4c-1.1,1.2-1.5,2.5-1.7,4c2.1,0.5,3.9,0.9,4.6,1C237.4,124.7,238,120.9,233,119.4z"/>
				</g>
				<g>
					<g>
						<path class="st18" d="M236.9,123.2c-0.2,0.2-0.4,0.3-0.7,0.2c-1.6-0.3-12.3-3-13.9-3.5c-0.3-0.1-0.5-0.2-0.7-0.3
							c0.1,0.9,0.5,1.5,1.7,1.8c1.6,0.4,10.8,2.7,12.5,3C236.5,124.6,236.9,124,236.9,123.2z"/>
					</g>
				</g>
			</g>
			<g>
				<path class="st21" d="M231,120.5l-0.2-0.2c0.7-0.9,1.2-1.3,1.7-1.3c0.2,0,0.4,0.3,0.4,0.3l-0.2-0.1c0,0-0.1,0-0.2,0
					C232.2,119.3,231.8,119.5,231,120.5z"/>
			</g>
			<g>
				<path class="st21" d="M229.5,119.9l-0.2-0.2c0.6-0.8,1.2-1.2,1.6-1.2c0.5,0,0.5,0.2,0.5,0.2l-0.2,0.1c0,0.1-0.1-0.1-0.3-0.1
					C230.7,118.8,230.2,119,229.5,119.9z"/>
			</g>
			<g>
				<path class="st21" d="M228.2,119.4l-0.2-0.2c0.6-0.8,1.2-1.2,1.6-1.2c0.5-0.1,0.3,0.4,0.4,0.5l-0.1-0.1c0,0-0.1-0.1-0.3-0.1
					C229.3,118.3,228.9,118.5,228.2,119.4z"/>
			</g>
			<g>
				<path class="st21" d="M226.7,118.6l-0.2-0.2c0.6-0.8,1.2-1.2,1.6-1.2c0.3,0,0.3,0.1,0.3,0.1l0,0.3c0,0-0.1-0.1-0.3-0.1
					C227.9,117.5,227.4,117.7,226.7,118.6z"/>
			</g>
			<g>
				<path class="st21" d="M228,119.1c0.4-0.8,0.1-1.8,0.1-1.8l0.3-0.1c0,0,0.3,1.1-0.2,2L228,119.1z"/>
			</g>
			<g>
				<path class="st21" d="M229.3,119.8c0.4-0.8,0.4-1.7,0.4-1.7l0.2,0c0.1,0.3,0.1,0.9-0.3,1.8L229.3,119.8z"/>
			</g>
			<g>
				<path class="st21" d="M230.8,120.4c0.4-0.8,0.4-1.7,0.4-1.7l0.3,0c0,0,0.1,0.9-0.4,1.8L230.8,120.4z"/>
			</g>
			<g>
				<path class="st21" d="M231.2,120.6c-0.1,0.1-0.3,0.2-0.4,0.1c-0.1-0.1-0.2-0.3-0.1-0.4c0.1-0.1,0.3-0.2,0.4-0.1
					C231.2,120.3,231.3,120.5,231.2,120.6z"/>
			</g>
			<g>
				<path class="st21" d="M229.7,120c-0.1,0.1-0.3,0.2-0.4,0.1c-0.1-0.1-0.2-0.3-0.1-0.4c0.1-0.1,0.3-0.2,0.4-0.1
					C229.7,119.7,229.8,119.9,229.7,120z"/>
			</g>
			<g>
				<path class="st21" d="M228.4,119.4c-0.1,0.1-0.3,0.2-0.4,0.1c-0.1-0.1-0.2-0.3-0.1-0.4c0.1-0.1,0.3-0.2,0.4-0.1
					C228.4,119.1,228.5,119.3,228.4,119.4z"/>
			</g>
			<g>
				<path class="st21" d="M227,118.6c-0.1,0.1-0.3,0.2-0.4,0.1c-0.1-0.1-0.2-0.3-0.1-0.4c0.1-0.1,0.3-0.2,0.4-0.1
					C227,118.2,227,118.4,227,118.6z"/>
			</g>
		</g>
		<path class="st23" d="M194,89.5c0,0,23.8-0.3,26.2,5.1c2.4,5.3,5.8,16.2,6.4,17.3c0.6,1.1,1.3,2.3,0.8,2.8c-0.5,0.5,1.1,1.2,0.8,2
			c-0.3,0.8-3.5,1.5-5.7,0.8c-2.2-0.7-1.7-2-1.6-2.5c0.1-0.5-1.2-1.7-0.9-2.2c0.4-0.5-6-11.2-6.4-12.9c-0.5-2-0.8-2.1-0.9-2.1
			c-1.1,0.2-15.8,0.6-18.3-1.4C191.2,93.8,194,89.5,194,89.5z"/>
	</g>
	<path class="st14" d="M194,66.8c1.2-2,3.4-3.7,8.2-4.5c4.8-0.8,7.4,2.2,8.9,8.2c1.5,5.9,3.9,12.6,6,17.8c-3.9,0.6-6-0.2-10.5,3.9
		s-12.1,1.4-14.7,0C192.9,87.5,191.1,71.7,194,66.8z"/>
	<g>
		<path class="st13" d="M220.6,76.1c0,0,0.2-3.9,2.9-4.8c2.7-0.9,4,0.6,3.6,1.6c0.6,1.1-0.1,2-0.2,2.1c0.7,0.7,0,1.6-0.2,1.7
			C228.2,78,220.9,81.8,220.6,76.1z"/>
		<path class="st14" d="M218.3,76.2c0,0,1.2-0.8,1.7-0.9c0.6-0.2,1.5,0.6,2.1,3.9c0.1,0.9-2.7,1.7-3.6,2.1
			C217.6,81.6,218.3,76.2,218.3,76.2z"/>
		<path class="st24" d="M194.2,69c0,0,0-3.6,3.4-4.1c3.4-0.5,4.9,9.9,6.8,13.2c1.8,3.3,11.6-0.4,13.5-2.3c2.3-0.5,3.1,4.1,1.8,5.7
			c-1.2,1.6-11.5,5.8-17,5C197.1,85.7,194.3,72.7,194.2,69z"/>
	</g>
	<g>
		<g>
			<g>
				<path class="st13" d="M217.2,51.7c0,7.2-4.2,13.5-11.3,13.5s-13-5.8-13-13c0-7.2,5.8-13,13-13S217.2,44.5,217.2,51.7z"/>
				<path class="st13" d="M216.6,54.3c0,0-0.4,2.1,0,2.8c0.4,0.6,1.3,0.7,1.7,1.4c0.4,0.7-0.8,2.1-3.5,1.6
					C212.8,60.2,216.6,54.3,216.6,54.3z"/>
			</g>
			<path class="st25" d="M207.2,50.9c0,0,4.4,1.6,7.8,1.9c0.7-0.8,0-3-0.3-4.1c0.8,0.8,1.4,2.3,1.2,4.1c1.6,0.7,2.6,0,2.6,0
				s1-12.8-9.7-14.9c-6.4-1.3-9.8,0.5-9.8,1.8c-3.6,0.1-8.5,5.5-7.1,12.9c1.4,7.4,5,8.6,4.4,10.3c2.7,0.2,3.7-5.4,2-7.1
				c-2.4-2.2,0.9-4.8,2.7-3.4c1.8,1.4,1,4.5,1,4.5h1.3c0,0,1.1-2.4,1.1-3.6C204.5,52.9,207.2,54.4,207.2,50.9z"/>
			<path class="st25" d="M206.9,60.2c0,0,2.7,2.5,5.3,2.4C208.7,64.8,206.7,63.8,206.9,60.2z"/>
			<path class="st25" d="M212.6,55.8c-0.2,0.4-0.6,0.7-0.8,0.5c-0.2-0.1-0.2-0.5,0-0.9c0.2-0.4,0.6-0.7,0.8-0.5
				C212.8,55,212.8,55.4,212.6,55.8z"/>
			<path class="st25" d="M214,54.1c0,0-0.1-0.1-0.2-0.1c-0.1-0.1-0.3-0.2-0.4-0.3c-0.1-0.1-0.2-0.1-0.3-0.2c-0.1,0-0.2-0.1-0.4-0.1
				c-0.1,0-0.3,0-0.4-0.1c-0.1,0-0.3,0-0.4,0c-0.1,0-0.3,0-0.4,0.1c-0.1,0-0.3,0.1-0.4,0.2c-0.1,0.1-0.3,0.1-0.4,0.2
				c-0.1,0.1-0.2,0.1-0.3,0.2c-0.1,0.1-0.2,0.1-0.3,0.2c-0.1,0.1-0.1,0.1-0.2,0.1c-0.1,0.1-0.2,0.1-0.2,0.1s0.1-0.1,0.1-0.2
				c0,0,0.1-0.1,0.2-0.2c0.1-0.1,0.1-0.2,0.2-0.2c0.1-0.1,0.2-0.2,0.3-0.2c0.1-0.1,0.2-0.1,0.4-0.2c0.1-0.1,0.3-0.1,0.4-0.2
				c0.1-0.1,0.3-0.1,0.5-0.1c0.2,0,0.3,0,0.5,0c0.2,0,0.3,0,0.5,0.1c0.2,0,0.3,0.1,0.4,0.2c0.1,0.1,0.2,0.1,0.3,0.2
				c0.1,0.1,0.2,0.2,0.2,0.2c0.1,0.1,0.1,0.1,0.2,0.2C213.9,54,214,54.1,214,54.1z"/>
		</g>
		<g>
			<path class="st26" d="M211.5,38.6c0,0-4.6-3.7-11.8-2.9c-7.2,0.9-11.8,2.5-13,3c-1.1,0.4-1.1,2.9,1,4c2,1.1,1.4,4.8,3.3,7.8
				C196.5,46.1,211.5,38.6,211.5,38.6z"/>
			<path class="st22" d="M192.5,55.2c0,0,3.1-6.9,12.5-10.7c9.4-3.8,10.4-2.7,10.4-2.7s0.1-3.2-3.1-3.8c-3.2-0.6-14.9,2.8-19.1,7.6
				C189.1,50.4,189.6,53.2,192.5,55.2z"/>
			<path class="st27" d="M195.8,43.4c-0.6,0.4-1.1,0.8-1.6,1.3c0.6,1.9,1.2,3.7,2.3,5.4c0.6-0.6,1.2-1.2,2-1.8
				C197.5,46.7,196.7,45.1,195.8,43.4z"/>
			<path class="st27" d="M192.5,46.5c-0.6,0.8-1.1,1.5-1.4,2.1c0,2.3,0.4,4.4,1.6,6.3c0.2-0.4,0.7-1.2,1.5-2.3
				C193,50.8,192.4,48.7,192.5,46.5z"/>
			<path class="st27" d="M199.1,41.5c-0.6,0.3-1.2,0.6-1.7,0.9c0.7,1.8,1.5,3.4,2.6,4.8c0.4-0.3,0.8-0.5,1.3-0.8
				C200.6,44.7,199.9,43.1,199.1,41.5z"/>
			<path class="st27" d="M203,39.8c-0.5,0.2-1.1,0.4-1.6,0.6c0.4,1.7,1.6,3.1,2.2,4.7c0.4-0.2,0.9-0.4,1.4-0.6c0,0,0,0,0,0
				C204.4,42.9,203.8,41.3,203,39.8z"/>
			<path class="st27" d="M207.2,38.6c-0.7,0.2-1.5,0.4-2.2,0.6c1.1,1.3,1.5,2.9,2,4.5c0.8-0.3,1.6-0.6,2.2-0.8
				C208.8,41.4,208,40,207.2,38.6z"/>
			<path class="st27" d="M211.6,38c-0.6,0-1.4,0-2.3,0.2c0.9,1.2,1.7,2.6,2.1,4.1c1.2-0.3,2-0.5,2.6-0.5
				C213.6,40.3,212.7,39,211.6,38z"/>
			<path class="st26" d="M189.3,39.2c0.2,1.8-1.1,3.5-2.9,3.7c-1.8,0.2-3.5-1.1-3.7-2.9c-0.2-1.8,1.1-3.5,2.9-3.7
				C187.4,36.1,189,37.4,189.3,39.2z"/>
		</g>
	</g>
</g>
<g>
	<g>
		<g>
			<g>
				<g>
					<path class="st13" d="M187.7,59.3c0,1.6-1.3,2.9-2.9,2.9c-1.6,0-2.9-1.3-2.9-2.9c0-1.6,1.3-2.9,2.9-2.9
						C186.3,56.4,187.7,57.7,187.7,59.3z"/>
					<path class="st13" d="M158.3,59.3c0,1.6-1.3,2.9-2.9,2.9c-1.6,0-2.9-1.3-2.9-2.9c0-1.6,1.3-2.9,2.9-2.9
						C157,56.4,158.3,57.7,158.3,59.3z"/>
				</g>
				<path class="st13" d="M183.1,56.4c0,7.2-5.8,13-13,13c-7.2,0-13-5.8-13-13c0-7.2,5.8-13,13-13C177.3,43.4,183.1,49.2,183.1,56.4
					z"/>
			</g>
			<g>
				<path class="st25" d="M176.3,58.7c0,0.5-0.2,0.8-0.5,0.8c-0.2,0-0.5-0.4-0.5-0.8c0-0.5,0.2-0.8,0.5-0.8
					C176.1,57.9,176.3,58.3,176.3,58.7z"/>
				<path class="st25" d="M164.8,58.7c0,0.5-0.2,0.8-0.5,0.8c-0.2,0-0.5-0.4-0.5-0.8c0-0.5,0.2-0.8,0.5-0.8
					C164.6,57.9,164.8,58.3,164.8,58.7z"/>
			</g>
			<g>
				<path class="st25" d="M173.4,55.2c0,0,0.1,0,0.2-0.1c0.1,0,0.3-0.1,0.6-0.2c0.2-0.1,0.5-0.1,0.8-0.2c0.2,0,0.3-0.1,0.5-0.1
					c0.2,0,0.3,0,0.5-0.1c0.3,0,0.7,0,1,0c0.2,0,0.3,0,0.5,0c0.1,0,0.3,0.1,0.4,0.1c0.1,0,0.2,0.1,0.3,0.1c0.1,0,0.2,0.1,0.2,0.1
					c0.1,0.1,0.2,0.1,0.2,0.1s-0.1,0-0.2-0.1c-0.1,0-0.1,0-0.2-0.1c-0.1,0-0.2,0-0.3,0c-0.1,0-0.2,0-0.4,0c-0.1,0-0.3,0-0.4,0
					c-0.2,0-0.3,0-0.5,0c-0.2,0-0.3,0-0.5,0c-0.3,0-0.6,0.1-0.9,0.1c-0.3,0-0.6,0.1-0.8,0.1C173.7,55.1,173.4,55.2,173.4,55.2z"/>
				<path class="st25" d="M166.8,55.2c0,0-0.3,0-0.8-0.1c-0.2,0-0.5,0-0.8,0c-0.3,0-0.6,0-1,0c-0.2,0-0.3,0-0.5,0
					c-0.2,0-0.3,0-0.5,0c-0.2,0-0.3,0-0.4,0c-0.1,0-0.3,0-0.4,0.1c-0.1,0-0.2,0.1-0.3,0.1c-0.1,0-0.2,0.1-0.2,0.1
					c-0.1,0.1-0.2,0.1-0.2,0.1s0.1-0.1,0.2-0.1c0.1,0,0.1-0.1,0.2-0.1c0.1,0,0.2-0.1,0.3-0.1c0.1,0,0.2-0.1,0.4-0.1
					c0.1,0,0.3-0.1,0.4-0.1c0.3,0,0.6-0.1,1-0.1c0.2,0,0.3,0,0.5,0c0.2,0,0.3,0,0.5,0c0.3,0,0.6,0.1,0.8,0.1c0.2,0,0.4,0.1,0.6,0.1
					C166.7,55.1,166.8,55.2,166.8,55.2z"/>
			</g>
		</g>
		<path class="st28" d="M161.2,48.4c0,0-0.1,4.6-2.9,7.3c-0.5,2-1.3,3.9-1.3,3.9s-0.8-1.7-1-5.3s0.5-9.1,4.1-10c2-3.6,7-6,11.8-8
			c4.8-2,5.5-5.4,5.5-5.4s0.1,4.9-3.4,7c2.5-0.3,4.1-3.6,4.1-3.6c0.3,2.2-1,4.1-2.7,5.8c1.6,0.5,3.5-1.5,3.5-1.5s-1.2,2.1-3.5,3.6
			c4.2,1.9,10.9,4.4,7.7,16.5c-0.6,1.6-1.7,2.5-1.7,2.5s0.8-2.9,0.5-4.8c-0.4-1.9-2.9-3-3.3-5.2c-0.4-2.2-0.4-3-0.4-3
			S172.2,50.7,161.2,48.4z"/>
	</g>
	<path class="st26" d="M188.4,84.6c0,3.8-8,7.6-17.9,7.6c-9.9,0-17.9-3.8-17.9-7.6c0-3.8,8-6.9,17.9-6.9
		C180.4,77.7,188.4,80.8,188.4,84.6z"/>
	<g>
		<path class="st26" d="M145.4,77.7c0,2.8,1.6,5.1,3.6,5.1c2,0,3.6-2.3,3.6-5.1c0-2.8-1.6-5.1-3.6-5.1
			C147,72.6,145.4,74.8,145.4,77.7z"/>
		<ellipse class="st29" cx="149.2" cy="76" rx="2.7" ry="3.2"/>
	</g>
	<g>
		<path class="st26" d="M195.5,77.7c0,2.8-1.6,5.1-3.6,5.1c-2,0-3.6-2.3-3.6-5.1c0-2.8,1.6-5.1,3.6-5.1
			C193.9,72.6,195.5,74.8,195.5,77.7z"/>
		<ellipse class="st29" cx="191.7" cy="76" rx="2.7" ry="3.2"/>
	</g>
	<g>
		<polygon class="st18" points="170.4,61.8 187.3,55.4 185.2,80.9 171.9,86 		"/>
		<polygon class="st17" points="170.4,61.8 189.7,57.1 187.7,82.6 171.9,86 		"/>
		<polygon class="st30" points="170.4,61.8 191.5,58.8 189,83.8 171.9,86 		"/>
		<polygon class="st18" points="170.3,61.8 152.5,55.9 155.1,80.9 169.2,86 		"/>
		<polygon class="st17" points="170.3,61.8 150.6,57.1 153.2,82.1 169.2,86 		"/>
		<polygon class="st31" points="170.3,61.8 149.2,58.8 151.7,83.8 169.2,86 		"/>
		<rect x="169.2" y="61.6" class="st32" width="2.7" height="24.4"/>
	</g>
	<path class="st13" d="M193.5,74.6c0,0-0.4-3.9-3.1-4.7c-2.7-0.8-4,0.8-3.5,1.7c-0.6,1.1,0.1,2,0.3,2.1c-0.7,0.7,0.1,1.6,0.3,1.7
		C186.1,76.8,193.5,80.3,193.5,74.6z"/>
	<path class="st13" d="M147.4,74.6c0,0,0.4-3.9,3.1-4.7c2.7-0.8,4,0.8,3.5,1.7c0.6,1.1-0.1,2-0.3,2.1c0.7,0.7-0.1,1.6-0.3,1.7
		C154.9,76.8,147.5,80.3,147.4,74.6z"/>
	<g>
		<path class="st33" d="M169.3,76.5c-0.3-0.8-0.4-1.9-0.8-2.6l-0.9-0.6c-0.6-0.9-0.2-1.1-0.9-1.1c-1.4,0-3.7,1.3-5.4,3.5
			c-0.7,0.9-7.6,12.2-8.5,12.9c-0.1,1.9,0.9,3.2,1.2,3.7c0.4,0.5,0.9,0.5,1.4,0.9c0.9,0.8,7.6,6.3,15.5,4c0.2,0,1.2-6.8,1.3-7.4
			l-6.3,0c0.4,0,3.6-7.3,3.6-11C169.5,78.1,169.6,77.3,169.3,76.5z"/>
		<g>
			<g>
				<g>
					<g>
						<path class="st34" d="M152.7,97.5c0,0-4.3,4.6-7.5,8.2l0.4,0.1l-0.3,2c1.9,1.1,7.1,1.1,7.8,0.1c2.8-4.3,6.2-8.6,6.2-8.6
							L152.7,97.5z"/>
					</g>
					<g>
						<path class="st35" d="M157.1,98.7l-6.2,8.7l-2.9-1.3l6.9-7.9l-2.3-0.6c0,0-4.3,4.6-7.5,8.2l0.4,0.1l-0.3,2
							c1.9,1.1,7.1,1.1,7.8,0.1c2.8-4.3,6.2-8.6,6.2-8.6L157.1,98.7z"/>
					</g>
					<g>
						<path class="st18" d="M146.2,104.6c-0.5,0.5-0.9,0.9-1.2,1.4c-2.7,4.1,5.7,6.5,8.1,1.9C151.7,106.2,149,105.1,146.2,104.6z"/>
					</g>
				</g>
				<g>
					<g>
						<polygon class="st21" points="155.8,101.8 153.2,98.8 153.6,98.7 156.2,101.7 						"/>
					</g>
					<g>
						<polygon class="st21" points="154.4,103.2 151.8,100.2 152.1,100.1 154.7,103.1 						"/>
					</g>
					<g>
						<polygon class="st21" points="153.3,104.8 150.6,101.8 151,101.7 153.6,104.7 						"/>
					</g>
					<g>
						<polygon class="st21" points="152.1,106.4 149.5,103.4 149.8,103.3 152.4,106.3 						"/>
					</g>
				</g>
				<g>
					<g>
						<polygon class="st21" points="151.7,100.2 151.6,99.9 156.5,99.7 156.6,100 						"/>
					</g>
					<g>
						<polygon class="st21" points="150.9,101.8 150.8,101.6 155.7,101.4 155.8,101.7 						"/>
					</g>
					<g>
						<polygon class="st21" points="149.7,103.4 149.6,103.1 154.5,103 154.6,103.3 						"/>
					</g>
					<g>
						<polygon class="st21" points="148.6,105 148.5,104.7 153.4,104.6 153.5,104.9 						"/>
					</g>
				</g>
				<g>
					<path class="st21" d="M152.4,100.2c0,0.2-0.3,0.3-0.5,0.3c-0.3,0-0.5-0.2-0.5-0.4c0-0.2,0.3-0.3,0.5-0.3
						C152.2,99.8,152.4,100,152.4,100.2z"/>
				</g>
				<g>
					<path class="st21" d="M153.9,98.7c0,0.2-0.3,0.3-0.5,0.3c-0.3,0-0.5-0.2-0.5-0.4c0-0.2,0.3-0.3,0.5-0.3
						C153.7,98.4,153.9,98.5,153.9,98.7z"/>
				</g>
				<g>
					<path class="st21" d="M157.4,100c0,0.2-0.3,0.3-0.5,0.3c-0.3,0-0.5-0.2-0.5-0.4c0-0.2,0.3-0.3,0.5-0.3
						C157.2,99.6,157.4,99.8,157.4,100z"/>
				</g>
				<g>
					<path class="st21" d="M156.3,101.6c0,0.2-0.3,0.3-0.5,0.3c-0.3,0-0.5-0.2-0.5-0.4c0-0.2,0.3-0.3,0.5-0.3
						C156.2,101.3,156.4,101.5,156.3,101.6z"/>
				</g>
				<g>
					<path class="st21" d="M155.2,103.3c0,0.2-0.3,0.3-0.5,0.3c-0.3,0-0.5-0.2-0.5-0.4c0-0.2,0.3-0.3,0.5-0.3
						C155,102.9,155.2,103.1,155.2,103.3z"/>
				</g>
				<g>
					<path class="st21" d="M151.2,101.8c0,0.2-0.3,0.3-0.5,0.3c-0.3,0-0.5-0.2-0.5-0.4c0-0.2,0.3-0.3,0.5-0.3
						C151,101.5,151.2,101.6,151.2,101.8z"/>
				</g>
				<g>
					<path class="st21" d="M150,103.3c0,0.2-0.3,0.3-0.5,0.3c-0.3,0-0.5-0.2-0.5-0.4c0-0.2,0.3-0.3,0.5-0.3
						C149.8,103,150,103.1,150,103.3z"/>
				</g>
				<g>
					<path class="st21" d="M149,104.8c0,0.2-0.3,0.3-0.5,0.3c-0.3,0-0.5-0.2-0.5-0.4c0-0.2,0.3-0.3,0.5-0.3
						C148.8,104.4,149,104.6,149,104.8z"/>
				</g>
				<g>
					<path class="st21" d="M152.9,106.5c0,0.2-0.3,0.3-0.5,0.3c-0.3,0-0.5-0.2-0.5-0.4c0-0.2,0.3-0.3,0.5-0.3
						C152.7,106.1,152.9,106.3,152.9,106.5z"/>
				</g>
				<g>
					<path class="st21" d="M154,104.9c0,0.2-0.3,0.3-0.5,0.3c-0.3,0-0.5-0.2-0.5-0.4c0-0.2,0.3-0.3,0.5-0.3
						C153.8,104.5,154,104.7,154,104.9z"/>
				</g>
			</g>
			<path class="st36" d="M163.1,74.8c-4,4.7-5.6,6.6-8.6,14.5c-0.5,1.4-1.9,4.9-1.4,5.5c0.6,0.7-1.5,1.4-1.1,2.4
				c0.3,1,3.2,3.9,6,3.3c2.8-0.6,2.2-2.3,2.1-2.9c-0.1-0.6,1-1.9,1.2-2.6c0.5-1.6,6.5-11,7.5-12.9C173.4,72.4,167.7,69.3,163.1,74.8
				z"/>
		</g>
	</g>
	<g>
		<path class="st33" d="M171.5,76.6c0.3-0.8,0.4-1.9,0.8-2.6l0.9-0.6c0.6-0.9-0.4-1.1,0.6-1.2c2.6-0.2,3.9,1.2,5.3,3.3
			c0.6,1,8.1,12.5,9,13.2c0.1,1.9-0.9,3.2-1.2,3.7c-0.4,0.5-1,0.4-1.4,0.9c-2.2,3.3-11,6.2-15.3,3.9c-0.2-0.1-0.8-7.3-1-7.4l5.7-0.3
			c-0.2-0.1-3.6-6.8-3.6-10.5C171.3,78.3,171.2,77.4,171.5,76.6z"/>
		<g>
			<g>
				<g>
					<g>
						<path class="st34" d="M188.3,97.9c0,0,4.4,4.7,7.6,8.3l-0.4,0.1l0.3,2c-1.9,1.1-7.2,1.1-7.9,0.1c-2.8-4.4-6.2-8.7-6.2-8.7
							L188.3,97.9z"/>
					</g>
					<g>
						<path class="st35" d="M183.8,99.1l6.3,8.7l2.9-1.3l-7-8l2.3-0.6c0,0,4.4,4.7,7.6,8.3l-0.4,0.1l0.3,2c-1.9,1.1-7.2,1.1-7.9,0.1
							c-2.8-4.4-6.2-8.7-6.2-8.7L183.8,99.1z"/>
					</g>
					<g>
						<path class="st18" d="M194.8,105.1c0.5,0.5,0.9,0.9,1.3,1.4c2.7,4.1-5.7,6.6-8.2,1.9C189.3,106.6,192,105.5,194.8,105.1z"/>
					</g>
				</g>
				<g>
					<g>
						<polygon class="st21" points="185.1,102.2 187.8,99.2 187.4,99.1 184.8,102.1 						"/>
					</g>
					<g>
						<polygon class="st21" points="186.6,103.7 189.2,100.6 188.9,100.5 186.2,103.5 						"/>
					</g>
					<g>
						<polygon class="st21" points="187.7,105.3 190.4,102.2 190,102.1 187.4,105.2 						"/>
					</g>
					<g>
						<polygon class="st21" points="188.9,106.9 191.5,103.8 191.2,103.7 188.5,106.8 						"/>
					</g>
				</g>
				<g>
					<g>
						<polygon class="st21" points="189.3,100.5 189.4,100.3 184.4,100.1 184.3,100.4 						"/>
					</g>
					<g>
						<polygon class="st21" points="190.1,102.2 190.2,102 185.2,101.8 185.2,102.1 						"/>
					</g>
					<g>
						<polygon class="st21" points="191.3,103.8 191.4,103.6 186.4,103.4 186.4,103.7 						"/>
					</g>
					<g>
						<polygon class="st21" points="192.5,105.4 192.5,105.2 187.6,105 187.5,105.3 						"/>
					</g>
				</g>
				<g>
					<path class="st21" d="M188.6,100.5c0,0.2,0.3,0.3,0.5,0.3c0.3,0,0.5-0.2,0.5-0.4c0-0.2-0.3-0.3-0.5-0.3
						C188.8,100.2,188.6,100.4,188.6,100.5z"/>
				</g>
				<g>
					<path class="st21" d="M187.1,99.1c0,0.2,0.3,0.3,0.5,0.3c0.3,0,0.5-0.2,0.5-0.4c0-0.2-0.3-0.3-0.5-0.3
						C187.2,98.7,187,98.9,187.1,99.1z"/>
				</g>
				<g>
					<path class="st21" d="M183.6,100.4c0,0.2,0.3,0.3,0.5,0.3c0.3,0,0.5-0.2,0.5-0.4c0-0.2-0.3-0.3-0.5-0.3
						C183.7,100,183.5,100.2,183.6,100.4z"/>
				</g>
				<g>
					<path class="st21" d="M184.6,102c0,0.2,0.3,0.3,0.5,0.3c0.3,0,0.5-0.2,0.5-0.4c0-0.2-0.3-0.3-0.5-0.3
						C184.8,101.7,184.6,101.9,184.6,102z"/>
				</g>
				<g>
					<path class="st21" d="M185.8,103.7c0,0.2,0.3,0.3,0.5,0.3c0.3,0,0.5-0.2,0.5-0.4c0-0.2-0.3-0.3-0.5-0.3
						C186,103.3,185.8,103.5,185.8,103.7z"/>
				</g>
				<g>
					<path class="st21" d="M189.8,102.2c0,0.2,0.3,0.3,0.5,0.3c0.3,0,0.5-0.2,0.5-0.4c0-0.2-0.3-0.3-0.5-0.3
						C190,101.9,189.8,102,189.8,102.2z"/>
				</g>
				<g>
					<path class="st21" d="M191,103.7c0,0.2,0.3,0.3,0.5,0.3c0.3,0,0.5-0.2,0.5-0.4c0-0.2-0.3-0.3-0.5-0.3
						C191.2,103.4,191,103.6,191,103.7z"/>
				</g>
				<g>
					<path class="st21" d="M192,105.2c0,0.2,0.3,0.3,0.5,0.3c0.3,0,0.5-0.2,0.5-0.4c0-0.2-0.3-0.3-0.5-0.3
						C192.2,104.9,192,105,192,105.2z"/>
				</g>
				<g>
					<path class="st21" d="M188.1,106.9c0,0.2,0.3,0.3,0.5,0.3c0.3,0,0.5-0.2,0.5-0.4c0-0.2-0.3-0.3-0.5-0.3
						C188.3,106.5,188.1,106.7,188.1,106.9z"/>
				</g>
				<g>
					<path class="st21" d="M187,105.3c0,0.2,0.3,0.3,0.5,0.3c0.3,0,0.5-0.2,0.5-0.4c0-0.2-0.3-0.3-0.5-0.3
						C187.1,104.9,186.9,105.1,187,105.3z"/>
				</g>
			</g>
			<path class="st36" d="M178.4,75.1c6.1,8,7.4,14.1,8.3,15.4c0.9,1.3,1.8,4,1.2,4.6c-0.6,0.7,1.5,1.4,1.1,2.4c-0.3,1-3.3,3.9-6,3.3
				c-2.8-0.6-2.3-2.3-2.1-2.9c0.1-0.6-1-1.9-1.3-2.6c-0.5-1.6-6.6-11.1-7.6-13C167.4,72.5,174,69.4,178.4,75.1z"/>
		</g>
	</g>
</g>
<g>
	<path class="st0" d="M1028.3,76.6c-3.9,4.5-6.6,10.1-7.4,16.3c-2.4-1.3-5.1-2-8-2c-8.1,0-14.9,5.7-16.6,13.2h-20.6
		c0.1-1,0.2-2,0.2-3.1c0-13.6-11-24.6-24.6-24.6c-10.1,0-18.7,6.1-22.5,14.8c-2.9-2.4-6.7-3.8-10.8-3.8c-6.1,0-11.4,3.2-14.4,8
		c-1.6-1.8-3.9-3-6.5-3c-1.8,0-3.4,0.5-4.7,1.4c-3.1-3.9-7.9-6.4-13.3-6.4c-3.1,0-6,0.8-8.5,2.3c-2.5-1.5-5.4-2.3-8.5-2.3
		c-5.5,0-10.3,2.6-13.4,6.6c-3-10.1-12.4-17.5-23.5-17.5c-7.8,0-14.7,3.6-19.2,9.2C801.5,82.2,796,80,790,80
		c-10.1,0-18.7,6.1-22.5,14.8c-2.9-2.4-6.7-3.8-10.8-3.8c-6.6,0-12.3,3.7-15.2,9.2c-1.5-1.4-3.5-2.2-5.7-2.2c-0.3,0-0.7,0-1,0.1
		c-0.1-14.9-12.1-26.9-27-26.9c-11.6,0-21.5,7.3-25.3,17.6c-4.5-5.3-11.2-8.7-18.8-8.7c-2.8,0-5.5,0.5-8,1.4v30.1h372.7V76.6z"/>
	<rect x="655.7" y="123.1" class="st5" width="372.7" height="16"/>
	<polygon class="st11" points="1028.3,114.5 655.7,114.5 655.7,111.5 655.7,111.5 655.7,123.1 1028.3,123.1 	"/>
	<rect x="655.7" y="111.5" class="st11" width="372.7" height="3"/>
	<rect x="655.7" y="139.1" class="st5" width="372.7" height="16"/>
	<path class="st37" d="M1028.3,76.6v34.9"/>
	<line class="st37" x1="1028.3" y1="123.1" x2="1028.3" y2="139.1"/>
	<line class="st37" x1="1028.3" y1="114.5" x2="1028.3" y2="123.1"/>
	<line class="st37" x1="1028.3" y1="111.5" x2="1028.3" y2="114.5"/>
	<line class="st37" x1="1028.3" y1="139.1" x2="1028.3" y2="155"/>
</g>
<g>
	<path class="st6" d="M1025,68.1c1.2-0.6,2.3-1.3,3.4-2.1v-5.7C1027.7,63.1,1026.5,65.7,1025,68.1z"/>
	<g>
		<path class="st6" d="M1028.3,27.1c-2.1-1.6-4.6-2.9-7.2-3.7c-1.5-10.3-10.3-18.3-21-18.3c-7.7,0-14.4,4.1-18.2,10.2
			c2.8-1.3,5.8-2,9.1-2c10.7,0,19.6,7.9,21,18.3c8.1,2.6,14.3,9.2,16.3,17.6V32.9V27.1z"/>
	</g>
</g>
</svg>
