<svg xmlns="http://www.w3.org/2000/svg" viewBox="0 0 1027.97 145.6"><defs><style>.cls-1{fill:#52af52;}.cls-2{fill:#6fce6f;}.cls-3{fill:#1b8f59;}.cls-4{fill:#7be1fc;}.cls-5{fill:#c2c0bc;}.cls-6{fill:#b5b3af;}.cls-7{fill:#d3d1cd;}.cls-8{fill:#472d21;}.cls-9{fill:#ba7d34;}.cls-10{fill:#ebaa5c;}.cls-11{fill:#db933d;}.cls-12{fill:#f9ffdd;}.cls-13{fill:#f4cfa2;}.cls-14{fill:#ea3f3f;}.cls-15{fill:#eab447;}.cls-16{fill:#2c6c82;}.cls-17{fill:#e5e5e5;}.cls-18{fill:#f4f4f4;}.cls-19{fill:#3b87a8;}.cls-20{fill:#9e3232;}.cls-21{fill:#f7f7f7;}.cls-22{fill:#394159;}.cls-23{fill:#525c82;}.cls-24{fill:#edd045;}.cls-25{fill:#38211c;}.cls-26{fill:#3f4f7a;}.cls-27{fill:#2a303f;}.cls-28{fill:#773b13;}.cls-29{fill:#333a56;}.cls-30{fill:#51af82;}.cls-31{fill:#47a073;}.cls-32{fill:#5ed198;}.cls-33{fill:#232323;}.cls-34{fill:#0a0a0a;}.cls-35{fill:#191919;}.cls-36{fill:#333;}</style></defs><title>Asset 1</title><g id="Layer_2" data-name="Layer 2"><g id="Objects"><path class="cls-1" d="M1028,47.79a24.3,24.3,0,0,0-15.89-16.21A21.25,21.25,0,0,0,982,15.33a21.11,21.11,0,0,0-3.14,11.08c0,.14,0,.27,0,.41a29.43,29.43,0,1,0,38.31,43.72A23.85,23.85,0,0,0,1025,68a24.17,24.17,0,0,0,3-6.4Z"/><path class="cls-2" d="M1012.08,31.58A24.3,24.3,0,0,1,1028,47.79V26.84a24.2,24.2,0,0,0-6.81-3.42,21.27,21.27,0,0,0-21-18.27c-.66,0-1.3,0-1.94.1l-.46,0c-.63.07-1.25.16-1.86.28l-.14,0c-.57.12-1.13.27-1.69.44l-.43.13c-.57.18-1.15.39-1.7.62l-.23.11c-.5.21-1,.45-1.46.7l-.38.2c-.52.29-1,.6-1.52.93l-.27.19c-.42.29-.83.6-1.23.92-.11.09-.23.17-.34.27-.45.37-.88.76-1.3,1.18l-.27.28c-.35.36-.68.72-1,1.1-.09.11-.19.21-.27.32-.37.45-.72.92-1,1.4l-.24.37c-.12.18-.23.37-.34.56a21.25,21.25,0,0,1,30.08,16.25Z"/><path class="cls-3" d="M1028,77A31.6,31.6,0,0,0,1020.9,93a17.06,17.06,0,0,0-24.68,11.23H975.6a24,24,0,0,0,.2-3.07,24.56,24.56,0,0,0-47.08-9.8,17.05,17.05,0,0,0-25.2,4.14,8.51,8.51,0,0,0-11.2-1.53,17,17,0,0,0-21.88-4.14,17,17,0,0,0-22,4.26,24.56,24.56,0,0,0-42.69-8.29,24.57,24.57,0,0,0-38.32,9,17.05,17.05,0,0,0-25.92,5.4A8.3,8.3,0,0,0,734.8,98a27,27,0,0,0-52.33-9.26,24.52,24.52,0,0,0-26.82-7.38v30.11H1028Z"/><path class="cls-3" d="M709.37,81.36a24.52,24.52,0,0,0-26.82,7.38A27,27,0,0,0,630.22,98a8.4,8.4,0,0,0-1-.07,8.49,8.49,0,0,0-5.74,2.23,17.05,17.05,0,0,0-25.92-5.4,24.57,24.57,0,0,0-38.32-9A24.56,24.56,0,0,0,516.56,94a17,17,0,0,0-22-4.26,17,17,0,0,0-21.88,4.14,8.51,8.51,0,0,0-11.2,1.53,17,17,0,0,0-25.19-4.14,24.57,24.57,0,0,0-47.09,9.8,26,26,0,0,0,.2,3.07H368.8A17.06,17.06,0,0,0,344.12,93a31.74,31.74,0,0,0-63.18,4.42c0,1,.05,2,.14,3a17,17,0,0,0-28.58-3,8.51,8.51,0,0,0-11.2,1.53,17.05,17.05,0,0,0-25.2-4.14,24.56,24.56,0,0,0-44.75-.64,17,17,0,0,0-19.93.08,24.56,24.56,0,0,0-46.82,10H91.75a17.06,17.06,0,0,0-30-6.81A8.44,8.44,0,0,0,57,95.93a8.55,8.55,0,0,0-6.47,3,17,17,0,0,0-25.19-4.14A24.53,24.53,0,0,0,0,80.17v34.3H709.37Z"/><path class="cls-4" d="M284.87,46.15V41.21a5,5,0,1,0-9.9,0v4.06a4.94,4.94,0,0,0-8.52,3.42v5h1.38v-5a3.57,3.57,0,0,1,7.14,0V71.36h1.38V57.55a3.57,3.57,0,0,1,7.14,0v5h1.38v-5a4.94,4.94,0,0,0-8.52-3.42V41.21a3.57,3.57,0,0,1,7.14,0v4.94Z"/><polygon class="cls-5" points="285.78 111.6 265.54 111.6 272.1 81.2 279.22 81.2 285.78 111.6"/><polygon class="cls-6" points="279.22 81.2 275.66 81.2 275.66 111.6 285.78 111.6 279.22 81.2"/><path class="cls-7" d="M275.66,86.12A17.63,17.63,0,0,0,293.29,68.5H258A17.63,17.63,0,0,0,275.66,86.12Z"/><path class="cls-5" d="M293.29,68.5H275.66V86.12A17.63,17.63,0,0,0,293.29,68.5Z"/><path class="cls-1" d="M115.28,22.71c0-.14,0-.28,0-.43a22.29,22.29,0,0,0-44.35-3.14,25.42,25.42,0,0,0,4.17,49.4,30.85,30.85,0,1,0,40.17-45.83Z"/><path class="cls-2" d="M80.47,27.7a22.3,22.3,0,0,1,31.56-17,22.29,22.29,0,0,0-41.09,8.46,25.42,25.42,0,0,0-4,46.8A25.41,25.41,0,0,1,80.47,27.7Z"/><path class="cls-8" d="M109.25,52a2.24,2.24,0,0,0-3.1-.63L93.69,59.65v-26a2.24,2.24,0,1,0-4.47,0v9.9l-9.16-5.61a2.24,2.24,0,1,0-2.34,3.81l11.5,7v15h0v46.05a2.24,2.24,0,0,0,4.47,0V65l14.93-9.92A2.24,2.24,0,0,0,109.25,52Z"/><path class="cls-8" d="M622.19,118.58a2.49,2.49,0,0,1-2.5-2.5V32a2.5,2.5,0,1,1,5,0v84.07A2.5,2.5,0,0,1,622.19,118.58Z"/><polygon class="cls-2" points="622.18 7.78 600.21 39.72 622.18 39.72 622.18 7.78"/><polygon class="cls-1" points="622.18 7.78 644.16 39.72 622.18 39.72 622.18 7.78"/><polygon class="cls-2" points="622.18 23.75 596.46 61.14 622.18 61.14 622.18 23.75"/><polygon class="cls-1" points="622.18 23.75 647.91 61.14 622.18 61.14 622.18 23.75"/><polygon class="cls-2" points="622.18 42.45 592.25 85.95 622.18 85.95 622.18 42.45"/><polygon class="cls-1" points="622.18 42.45 652.12 85.95 622.18 85.95 622.18 42.45"/><path class="cls-1" d="M386.16,26.82c0-.14,0-.27,0-.41a21.26,21.26,0,0,0-42.31-3,24.25,24.25,0,0,0,4,47.12,29.43,29.43,0,1,0,38.32-43.72Z"/><path class="cls-2" d="M352.94,31.58a21.26,21.26,0,0,1,30.12-16.24,21.26,21.26,0,0,0-39.2,8.08,24.25,24.25,0,0,0-3.8,44.64,24.25,24.25,0,0,1,12.88-36.48Z"/><path class="cls-8" d="M363.43,112.08A2.13,2.13,0,0,1,361.3,110V37.24a2.13,2.13,0,0,1,4.26,0V110A2.13,2.13,0,0,1,363.43,112.08Z"/><path class="cls-8" d="M363.43,68.17a2.13,2.13,0,0,1-1.18-3.91l15.2-10.1a2.14,2.14,0,0,1,2.36,3.56l-15.2,10.09A2.12,2.12,0,0,1,363.43,68.17Z"/><path class="cls-8" d="M363.43,52.64a2.19,2.19,0,0,1-1.12-.32l-12-7.35a2.13,2.13,0,0,1,2.23-3.63l12,7.34a2.14,2.14,0,0,1,.71,2.94A2.17,2.17,0,0,1,363.43,52.64Z"/><path class="cls-8" d="M27.42,114.58a2.49,2.49,0,0,1-2.5-2.5V28a2.5,2.5,0,0,1,5,0v84.07A2.5,2.5,0,0,1,27.42,114.58Z"/><ellipse class="cls-2" cx="27.42" cy="42.09" rx="16.21" ry="42.09"/><path class="cls-1" d="M43.63,42.09C43.63,18.84,36.37,0,27.42,0V84.18C36.37,84.18,43.63,65.33,43.63,42.09Z"/><path class="cls-8" d="M682.81,114.58a2.5,2.5,0,0,1-2.5-2.5V28a2.5,2.5,0,1,1,5,0v84.07A2.5,2.5,0,0,1,682.81,114.58Z"/><ellipse class="cls-2" cx="682.81" cy="42.09" rx="16.21" ry="42.09"/><path class="cls-1" d="M699,42.09C699,18.84,691.76,0,682.81,0V84.18C691.76,84.18,699,65.33,699,42.09Z"/><rect class="cls-9" x="139.83" y="99.49" width="6.17" height="17.81"/><rect class="cls-9" x="225.14" y="99.49" width="6.17" height="17.81"/><rect class="cls-10" x="148.47" y="68.2" width="6.17" height="44.16"/><rect class="cls-10" x="216.51" y="68.2" width="6.17" height="44.16"/><rect class="cls-11" x="139.83" y="97.58" width="91.48" height="3.82"/><polygon class="cls-10" points="139.83 97.58 148.47 93.63 222.68 93.63 231.31 97.58 139.83 97.58"/><rect class="cls-11" x="148.47" y="72.43" width="74.21" height="3.82"/><path class="cls-9" d="M152.27,74.34a.72.72,0,0,1-1.44,0,.72.72,0,1,1,1.44,0Z"/><path class="cls-9" d="M220.31,74.34a.72.72,0,0,1-1.44,0,.72.72,0,1,1,1.44,0Z"/><rect class="cls-11" x="148.47" y="79.4" width="74.21" height="3.82"/><path class="cls-9" d="M152.27,81.31a.72.72,0,1,1-1.44,0,.72.72,0,0,1,1.44,0Z"/><path class="cls-9" d="M220.31,81.31a.72.72,0,1,1-1.44,0,.72.72,0,1,1,1.44,0Z"/><rect class="cls-11" x="148.47" y="86.38" width="74.21" height="3.82"/><path class="cls-9" d="M152.27,88.29a.72.72,0,0,1-1.44,0,.72.72,0,1,1,1.44,0Z"/><path class="cls-9" d="M220.31,88.29a.72.72,0,0,1-1.44,0,.72.72,0,1,1,1.44,0Z"/><rect class="cls-12" y="111.47" width="709.37" height="11.62"/><path class="cls-8" d="M742.84,118.58a2.5,2.5,0,0,0,2.5-2.5V32a2.5,2.5,0,1,0-5,0v84.07A2.5,2.5,0,0,0,742.84,118.58Z"/><polygon class="cls-2" points="742.84 7.78 764.81 39.72 742.84 39.72 742.84 7.78"/><polygon class="cls-1" points="742.84 7.78 720.86 39.72 742.84 39.72 742.84 7.78"/><polygon class="cls-2" points="742.84 23.75 768.56 61.14 742.84 61.14 742.84 23.75"/><polygon class="cls-1" points="742.84 23.75 717.11 61.14 742.84 61.14 742.84 23.75"/><polygon class="cls-2" points="742.84 42.45 772.77 85.95 742.84 85.95 742.84 42.45"/><polygon class="cls-1" points="742.84 42.45 712.9 85.95 742.84 85.95 742.84 42.45"/><path class="cls-8" d="M1001.59,112.08a2.13,2.13,0,0,0,2.14-2.13V37.24a2.14,2.14,0,0,0-4.27,0V110A2.13,2.13,0,0,0,1001.59,112.08Z"/><path class="cls-8" d="M1001.59,68.17a2.13,2.13,0,0,0,1.18-3.91l-15.19-10.1a2.14,2.14,0,1,0-2.36,3.56l15.19,10.09A2.17,2.17,0,0,0,1001.59,68.17Z"/><path class="cls-8" d="M1001.6,52.64a2.18,2.18,0,0,0,1.11-.32l12-7.35a2.13,2.13,0,0,0-2.23-3.63l-12,7.34a2.14,2.14,0,0,0,1.12,4Z"/><path class="cls-8" d="M682.21,114.58a2.5,2.5,0,0,0,2.5-2.5V28a2.5,2.5,0,1,0-5,0v84.07A2.5,2.5,0,0,0,682.21,114.58Z"/><ellipse class="cls-2" cx="682.21" cy="42.09" rx="16.21" ry="42.09"/><path class="cls-1" d="M666,42.09C666,18.84,673.26,0,682.21,0V84.18C673.26,84.18,666,65.33,666,42.09Z"/><path class="cls-13" d="M221.63,70.12s.19-3.92,2.91-4.8,4,.62,3.62,1.58A1.7,1.7,0,0,1,228,69a1.14,1.14,0,0,1-.2,1.68C229.17,72,221.94,75.8,221.63,70.12Z"/><path class="cls-14" d="M219.3,70.24a10.5,10.5,0,0,1,1.74-.95c.57-.16,1.46.58,2.09,3.89.08.89-2.66,1.68-3.61,2.06S219.3,70.24,219.3,70.24Z"/><path class="cls-15" d="M218.8,69.82c-1.48,1.45-7.62,4-11.19,3.56v7.06c5.46-.75,12.06-3.61,13-4.91C221.87,73.88,221.07,69.32,218.8,69.82Z"/><path class="cls-16" d="M224,58.3l.28,4.27s7,.22,7.41-1.33C229.68,59,225,58.3,224,58.3Z"/><path class="cls-17" d="M223.29,59l.28,4.27s7.74-.48,8.14-2C229.68,59,224.29,59,223.29,59Z"/><path class="cls-18" d="M222.64,59.71l.27,4.27s8.4-1.19,8.8-2.74C230.24,59.61,223.64,59.71,222.64,59.71Z"/><path class="cls-17" d="M222.07,61.24s2.71,14,.06,24.78a21.35,21.35,0,0,0,8.78-1s2.2-13.33.8-23.8C229.52,62.16,222.07,61.24,222.07,61.24Z"/><path class="cls-19" d="M221.63,62.26s3.15,13,.5,23.76a21.35,21.35,0,0,0,8.78-1s2.2-13.33.8-23.8C229.52,62.16,221.63,62.26,221.63,62.26Z"/><path class="cls-20" d="M212.31,111.19A14.91,14.91,0,0,0,211,117c.11,5.9-4.05,6.42-4.17,4.82s-.34-11.19-.31-12.83c0-2.19,1.28-2.36,4.12-2.46C212.75,107.74,212.31,111.19,212.31,111.19Z"/><path class="cls-14" d="M209,122.24a19.91,19.91,0,0,1,1.24-2.54c-.06-3.35-.42-7,2.11-9.55,0-1.11-.33-2.83-1.7-3.61-2.84.1-4.1.27-4.12,2.46,0,1.64.18,11.17.31,12.83C206.89,122.63,208,122.9,209,122.24Z"/><path class="cls-18" d="M211,117.78a6.83,6.83,0,0,0-4.32-.61c.05,2.13.12,4,.17,4.66C206.94,123.36,210.74,123,211,117.78Z"/><path class="cls-18" d="M208.29,122.55a.78.78,0,0,1-.39-.63c-.13-1.67-.19-12.69-.17-14.33a3.19,3.19,0,0,1,.08-.72c-.87.3-1.28.89-1.29,2.13,0,1.64.18,11.17.31,12.83C206.87,122.45,207.52,122.75,208.29,122.55Z"/><path class="cls-21" d="M209.39,116.13l.11-.25c1,.43,1.59.85,1.71,1.26.06.2-.2.42-.22.45v-.2l-.06-.19C210.87,117,210.58,116.64,209.39,116.13Z"/><path class="cls-21" d="M209.62,114.55l.1-.26c.92.39,1.46.81,1.59,1.27s-.11.51-.12.53L211,116c-.05,0,.08-.13,0-.33S210.64,115,209.62,114.55Z"/><path class="cls-21" d="M209.79,113.11l.11-.26a2.69,2.69,0,0,1,1.58,1.28c.17.45-.33.44-.35.47l.06-.08a.37.37,0,0,0,0-.32C211.13,113.94,210.81,113.54,209.79,113.11Z"/><path class="cls-21" d="M210.19,111.51l.11-.26c.91.39,1.44.82,1.58,1.28.09.31,0,.28,0,.3l-.27.09a.39.39,0,0,0,0-.33C211.53,112.34,211.22,111.94,210.19,111.51Z"/><path class="cls-21" d="M210,112.88a2.86,2.86,0,0,0,1.78-.33l.15.24a3.08,3.08,0,0,1-2,.36Z"/><path class="cls-21" d="M209.69,114.32a3.52,3.52,0,0,0,1.72-.08l.08.18a2.36,2.36,0,0,1-1.86.17Z"/><path class="cls-21" d="M209.41,115.89a3.52,3.52,0,0,0,1.72-.08l.09.27a3.87,3.87,0,0,1-1.87.08Z"/><path class="cls-21" d="M209.32,116.33a.31.31,0,0,1-.21-.39.32.32,0,0,1,.39-.2.31.31,0,0,1,.21.39A.32.32,0,0,1,209.32,116.33Z"/><path class="cls-21" d="M209.54,114.7a.31.31,0,0,1-.2-.39.31.31,0,0,1,.39-.2.31.31,0,1,1-.19.59Z"/><path class="cls-21" d="M209.78,113.29a.32.32,0,0,1-.2-.39.31.31,0,0,1,.39-.21.32.32,0,0,1,.2.39A.31.31,0,0,1,209.78,113.29Z"/><path class="cls-21" d="M210.25,111.71a.32.32,0,0,1-.2-.39.31.31,0,0,1,.39-.21.32.32,0,0,1,.2.39A.31.31,0,0,1,210.25,111.71Z"/><path class="cls-22" d="M212.35,87.06s23.88,4.63,17.37,12.46c-3.74,4.49-12.25,9.27-13.12,10.16s-1.89,1.81-2.51,1.47-.89,1.39-1.73,1.27-2.32-3-2.24-5.32,1.49-2.15,2-2.14,1.33-1.63,1.91-1.4,6-4.77,7.47-5.69c2.74-1.67-7.8-1.87-8.62-2.54S201,93.83,202.3,91C204.11,87.1,212.35,87.06,212.35,87.06Z"/><path class="cls-20" d="M227,116.43a15,15,0,0,0,5.3,2.76c5.74,1.39,5.18,5.54,3.61,5.25s-10.91-2.52-12.49-3c-2.12-.58-2-1.84-1.34-4.61C223.75,115.13,227,116.43,227,116.43Z"/><path class="cls-14" d="M236.82,122.46a21.21,21.21,0,0,1-2.14-1.85c-3.25-.79-6.91-1.38-8.7-4.47-1.09-.25-2.83-.4-3.93.73-.62,2.77-.78,4,1.34,4.61,1.58.44,10.84,2.66,12.49,3C236.66,124.59,237.19,123.63,236.82,122.46Z"/><path class="cls-18" d="M233,119.39a7,7,0,0,0-1.69,4c2.08.49,3.91.91,4.56,1C237.38,124.72,238,121,233,119.39Z"/><path class="cls-18" d="M236.94,123.21a.79.79,0,0,1-.71.22c-1.64-.3-12.32-3-13.9-3.48a3.35,3.35,0,0,1-.68-.26c.07.92.54,1.46,1.74,1.79,1.58.44,10.84,2.66,12.49,3C236.49,124.56,236.94,124,236.94,123.21Z"/><path class="cls-21" d="M231,120.51l-.22-.17c.67-.87,1.22-1.31,1.65-1.33.21,0,.36.31.38.32l-.19,0h-.2C232.25,119.31,231.81,119.49,231,120.51Z"/><path class="cls-21" d="M229.54,119.9l-.22-.18c.6-.78,1.15-1.2,1.63-1.2s.46.23.48.25l-.17.13s-.1-.11-.31-.1S230.22,119,229.54,119.9Z"/><path class="cls-21" d="M228.19,119.36l-.22-.17a2.69,2.69,0,0,1,1.64-1.2c.48-.06.34.43.36.45l-.06-.08a.42.42,0,0,0-.31-.09C229.34,118.28,228.87,118.48,228.19,119.36Z"/><path class="cls-21" d="M226.74,118.57l-.22-.17c.61-.79,1.16-1.19,1.64-1.21s.27.08.29.1l0,.28a.4.4,0,0,0-.31-.1C227.89,117.48,227.43,117.69,226.74,118.57Z"/><path class="cls-21" d="M228,119.12a2.8,2.8,0,0,0,.13-1.8l.27-.08a3.1,3.1,0,0,1-.16,2Z"/><path class="cls-21" d="M229.34,119.77a3.62,3.62,0,0,0,.36-1.69l.19,0a2.34,2.34,0,0,1-.31,1.84Z"/><path class="cls-21" d="M230.78,120.44a3.71,3.71,0,0,0,.37-1.69l.28,0a3.86,3.86,0,0,1-.4,1.83Z"/><path class="cls-21" d="M231.19,120.64a.31.31,0,0,1-.43.09.3.3,0,0,1-.1-.42.31.31,0,0,1,.43-.1A.31.31,0,0,1,231.19,120.64Z"/><path class="cls-21" d="M229.67,120a.31.31,0,0,1-.53-.33.31.31,0,0,1,.43-.1A.31.31,0,0,1,229.67,120Z"/><path class="cls-21" d="M228.36,119.42a.31.31,0,1,1-.09-.43A.32.32,0,0,1,228.36,119.42Z"/><path class="cls-21" d="M227,118.56a.31.31,0,0,1-.43.1.32.32,0,0,1-.09-.43.31.31,0,0,1,.43-.1A.32.32,0,0,1,227,118.56Z"/><path class="cls-23" d="M194,89.55s23.83-.27,26.18,5.08,5.8,16.21,6.44,17.27,1.27,2.29.77,2.81,1.13,1.21.8,2-3.5,1.48-5.71.82-1.71-2-1.57-2.48-1.24-1.69-.87-2.2-5.95-11.15-6.41-12.86c-.52-2-.82-2.1-.92-2.08-1.1.2-15.83.62-18.27-1.42C191.17,93.75,194,89.55,194,89.55Z"/><path class="cls-14" d="M194,66.75c1.17-2,3.41-3.7,8.21-4.51s7.42,2.24,8.92,8.17a148.19,148.19,0,0,0,6,17.81c-3.88.58-6-.16-10.49,4s-12.13,1.42-14.72,0C192.93,87.46,191.12,71.73,194,66.75Z"/><path class="cls-13" d="M220.63,76.1s.19-3.92,2.9-4.81,4,.63,3.62,1.59A1.7,1.7,0,0,1,227,75a1.14,1.14,0,0,1-.2,1.68C228.16,78,220.93,81.77,220.63,76.1Z"/><path class="cls-14" d="M218.29,76.21a10.46,10.46,0,0,1,1.75-.94c.56-.17,1.46.58,2.09,3.88.07.9-2.66,1.69-3.62,2.06S218.29,76.21,218.29,76.21Z"/><path class="cls-24" d="M194.19,69s0-3.59,3.36-4.13,4.93,9.92,6.77,13.22,11.55-.43,13.47-2.3c2.27-.5,3.07,4,1.84,5.7s-11.52,5.81-17,5S194.3,72.7,194.19,69Z"/><path class="cls-13" d="M217.15,51.67c0,7.19-4.16,13.47-11.35,13.47a13,13,0,0,1,0-26C213,39.11,217.15,44.48,217.15,51.67Z"/><path class="cls-13" d="M216.63,54.3s-.41,2.13,0,2.76,1.28.71,1.72,1.39-.82,2-3.45,1.62C212.82,60.17,216.63,54.3,216.63,54.3Z"/><path class="cls-25" d="M207.2,50.89a35.61,35.61,0,0,0,7.79,2c.67-.82,0-3-.3-4.07a4.85,4.85,0,0,1,1.2,4.07,2.68,2.68,0,0,0,2.55,0s1-12.79-9.66-14.88c-6.35-1.27-9.81.53-9.79,1.79-3.59.08-8.5,5.54-7.05,12.94s5,8.64,4.43,10.32c2.68.24,3.67-5.38,2-7.1-2.39-2.17.9-4.79,2.69-3.37s1,4.53,1,4.53h1.35a14.67,14.67,0,0,0,1.14-3.56C204.55,52.91,207.16,54.41,207.2,50.89Z"/><path class="cls-25" d="M206.89,60.15s2.74,2.46,5.28,2.38C208.72,64.76,206.72,63.83,206.89,60.15Z"/><path class="cls-25" d="M212.58,55.83c-.21.41-.55.65-.78.54s-.24-.53,0-.95.55-.66.78-.54S212.78,55.41,212.58,55.83Z"/><path class="cls-25" d="M214,54.06l-.16-.15a2.93,2.93,0,0,0-.45-.33,3.17,3.17,0,0,0-.32-.16,1.53,1.53,0,0,0-.38-.12,1.84,1.84,0,0,0-.41-.06,2.13,2.13,0,0,0-.44,0,2.23,2.23,0,0,0-.43.1,2.37,2.37,0,0,0-.4.15c-.13.07-.26.11-.37.18l-.32.18L210,54l-.21.14-.18.12.15-.16L210,54a1.77,1.77,0,0,1,.24-.23l.3-.23a3.32,3.32,0,0,1,.37-.23,2.05,2.05,0,0,1,.43-.18,2,2,0,0,1,.48-.12,2.68,2.68,0,0,1,.49,0,2.18,2.18,0,0,1,.47.09,2.2,2.2,0,0,1,.41.18,1.54,1.54,0,0,1,.32.23,1.32,1.32,0,0,1,.24.23l.16.19A1.34,1.34,0,0,1,214,54.06Z"/><path class="cls-26" d="M211.51,38.59a16.73,16.73,0,0,0-11.83-2.88,54.83,54.83,0,0,0-13,2.95c-1.15.45-1.06,2.93,1,4s1.37,4.82,3.27,7.85C196.49,46.07,211.51,38.59,211.51,38.59Z"/><path class="cls-22" d="M192.52,55.21S195.6,48.32,205,44.49s10.41-2.67,10.41-2.67a3.72,3.72,0,0,0-3.1-3.8c-3.25-.58-14.93,2.78-19.08,7.59S189.64,53.18,192.52,55.21Z"/><path class="cls-27" d="M195.75,43.43a14.6,14.6,0,0,0-1.64,1.29,23,23,0,0,0,2.28,5.36,24.08,24.08,0,0,1,2-1.76C197.47,46.74,196.66,45.09,195.75,43.43Z"/><path class="cls-27" d="M192.49,46.52a14.87,14.87,0,0,0-1.42,2.14A12.17,12.17,0,0,0,192.62,55a17.67,17.67,0,0,1,1.47-2.3A11.88,11.88,0,0,1,192.49,46.52Z"/><path class="cls-27" d="M199.1,41.48c-.58.29-1.15.59-1.7.91a18.65,18.65,0,0,0,2.6,4.76c.41-.27.84-.55,1.29-.81C200.56,44.72,199.89,43.1,199.1,41.48Z"/><path class="cls-27" d="M203,39.84c-.52.19-1.05.4-1.58.61.4,1.66,1.58,3.07,2.22,4.65.44-.21.9-.41,1.38-.61h0A31,31,0,0,0,203,39.84Z"/><path class="cls-27" d="M207.25,38.57c-.72.17-1.47.37-2.24.6a12.63,12.63,0,0,1,2,4.52c.82-.31,1.56-.58,2.23-.8A22,22,0,0,0,207.25,38.57Z"/><path class="cls-27" d="M211.62,38a12.55,12.55,0,0,0-2.27.19,11.79,11.79,0,0,1,2.11,4.07,15.21,15.21,0,0,1,2.62-.53A10.55,10.55,0,0,0,211.62,38Z"/><path class="cls-26" d="M189.28,39.21a3.33,3.33,0,1,1-3.73-2.88A3.32,3.32,0,0,1,189.28,39.21Z"/><path class="cls-13" d="M187.65,59.32a2.92,2.92,0,1,1-2.92-2.92A2.92,2.92,0,0,1,187.65,59.32Z"/><path class="cls-13" d="M158.35,59.32a2.93,2.93,0,1,1-2.92-2.92A2.92,2.92,0,0,1,158.35,59.32Z"/><path class="cls-13" d="M183.09,56.4a13,13,0,1,1-13-13A13,13,0,0,1,183.09,56.4Z"/><path class="cls-25" d="M176.27,58.73c0,.46-.2.84-.45.84s-.45-.38-.45-.84.2-.84.45-.84S176.27,58.27,176.27,58.73Z"/><path class="cls-25" d="M164.79,58.73c0,.46-.2.84-.45.84s-.46-.38-.46-.84.21-.84.46-.84S164.79,58.27,164.79,58.73Z"/><path class="cls-25" d="M173.38,55.19l.21-.08c.14,0,.33-.13.57-.2s.52-.14.82-.2.31-.07.48-.09l.49-.06a8.08,8.08,0,0,1,1,0,3.44,3.44,0,0,1,.45,0c.14,0,.27.05.4.07s.23.08.32.11a1.38,1.38,0,0,1,.24.11l.2.12-.22-.07-.25-.06-.32,0c-.13,0-.25,0-.39,0h-.44l-.46,0-.49,0c-.32,0-.64.07-.94.11l-.83.12Z"/><path class="cls-25" d="M166.77,55.15l-.82,0-.84-.05c-.3,0-.63,0-1,0h-.48l-.47,0-.43,0-.39.07a2.55,2.55,0,0,0-.32.07l-.24.09-.21.09.19-.14a.75.75,0,0,1,.22-.13,2.37,2.37,0,0,1,.32-.14,3.64,3.64,0,0,1,.39-.11,3,3,0,0,1,.45-.08,6.16,6.16,0,0,1,1-.06l.5,0,.47.05a7.88,7.88,0,0,1,.84.13l.58.14Z"/><path class="cls-28" d="M161.22,48.35s-.12,4.65-2.87,7.27a40.1,40.1,0,0,1-1.29,4,15.82,15.82,0,0,1-1-5.27c-.2-3.53.5-9.06,4.09-10,2-3.62,7-6,11.75-8s5.49-5.37,5.49-5.37.1,4.88-3.39,7c2.49-.35,4.09-3.64,4.09-3.64.3,2.19-1,4-2.71,5.77,1.61.51,3.47-1.52,3.47-1.52a13,13,0,0,1-3.47,3.65c4.2,1.87,10.89,4.37,7.72,16.54a5.74,5.74,0,0,1-1.75,2.45,12.78,12.78,0,0,0,.47-4.81c-.39-1.92-2.87-3-3.27-5.21a20.31,20.31,0,0,1-.41-3S172.21,50.67,161.22,48.35Z"/><path class="cls-26" d="M188.37,84.61c0,3.81-8,7.56-17.91,7.56s-17.92-3.75-17.92-7.56,8-6.9,17.92-6.9S188.37,80.8,188.37,84.61Z"/><path class="cls-26" d="M145.42,77.65c0,2.81,1.59,5.08,3.56,5.08s3.56-2.27,3.56-5.08S151,72.57,149,72.57,145.42,74.84,145.42,77.65Z"/><ellipse class="cls-29" cx="149.19" cy="75.99" rx="2.72" ry="3.25"/><path class="cls-26" d="M195.5,77.65c0,2.81-1.6,5.08-3.56,5.08s-3.57-2.27-3.57-5.08,1.6-5.08,3.57-5.08S195.5,74.84,195.5,77.65Z"/><ellipse class="cls-29" cx="191.73" cy="75.99" rx="2.72" ry="3.25"/><polygon class="cls-18" points="170.42 61.8 187.27 55.4 185.22 80.94 171.89 86.02 170.42 61.8"/><polygon class="cls-17" points="170.42 61.8 189.71 57.07 187.65 82.61 171.89 86.02 170.42 61.8"/><polygon class="cls-30" points="170.42 61.8 191.48 58.76 188.96 83.79 171.89 86.02 170.42 61.8"/><polygon class="cls-18" points="170.34 61.76 152.54 55.91 155.07 80.94 169.17 86.02 170.34 61.76"/><polygon class="cls-17" points="170.34 61.76 150.64 57.07 153.17 82.1 169.17 86.02 170.34 61.76"/><polygon class="cls-31" points="170.34 61.76 149.2 58.76 151.73 83.79 169.17 86.02 170.34 61.76"/><rect class="cls-32" x="169.17" y="61.6" width="2.72" height="24.42"/><path class="cls-13" d="M193.51,74.61s-.36-3.91-3.11-4.67-4,.8-3.55,1.74a1.69,1.69,0,0,0,.28,2.08,1.15,1.15,0,0,0,.28,1.68C186.06,76.79,193.45,80.3,193.51,74.61Z"/><path class="cls-13" d="M147.4,74.61s.36-3.91,3.11-4.67,4,.8,3.55,1.74a1.68,1.68,0,0,1-.28,2.08,1.14,1.14,0,0,1-.27,1.68C154.85,76.79,147.46,80.3,147.4,74.61Z"/><path class="cls-33" d="M169.33,76.46a11.74,11.74,0,0,0-.85-2.59l-.86-.58c-.64-.89-.22-1.08-.85-1.06-1.43,0-3.7,1.29-5.43,3.54-.71.93-7.61,12.18-8.52,12.9A5.45,5.45,0,0,0,154,92.38c.36.49.89.51,1.37.91.93.76,7.62,6.31,15.52,4,.16,0,1.16-6.83,1.3-7.41l-6.31,0c.42,0,3.6-7.32,3.6-11A8.27,8.27,0,0,0,169.33,76.46Z"/><path class="cls-34" d="M152.67,97.53s-4.33,4.63-7.49,8.24l.38.06-.27,2c1.93,1.11,7.14,1.1,7.79.08,2.76-4.32,6.19-8.63,6.19-8.63Z"/><path class="cls-35" d="M157.14,98.7l-6.2,8.67L148,106.06l6.92-7.94-2.27-.59s-4.33,4.63-7.49,8.24l.38.06-.27,2c1.93,1.11,7.14,1.1,7.79.08,2.76-4.32,6.19-8.63,6.19-8.63Z"/><path class="cls-18" d="M146.21,104.63A8.84,8.84,0,0,0,145,106c-2.69,4.08,5.66,6.51,8.11,1.86C151.68,106.19,149,105.09,146.21,104.63Z"/><polygon class="cls-21" points="155.83 101.81 153.22 98.8 153.57 98.68 156.18 101.69 155.83 101.81"/><polygon class="cls-21" points="154.38 103.25 151.76 100.23 152.11 100.12 154.72 103.13 154.38 103.25"/><polygon class="cls-21" points="153.25 104.84 150.64 101.83 150.98 101.72 153.6 104.73 153.25 104.84"/><polygon class="cls-21" points="152.09 106.43 149.48 103.42 149.83 103.3 152.44 106.31 152.09 106.43"/><polygon class="cls-21" points="151.7 100.16 151.64 99.88 156.54 99.74 156.6 100.02 151.7 100.16"/><polygon class="cls-21" points="150.89 101.84 150.82 101.57 155.73 101.43 155.79 101.7 150.89 101.84"/><polygon class="cls-21" points="149.7 103.42 149.64 103.14 154.54 103 154.61 103.28 149.7 103.42"/><polygon class="cls-21" points="148.55 105 148.49 104.73 153.39 104.59 153.46 104.86 148.55 105"/><path class="cls-21" d="M152.41,100.16c0,.18-.27.3-.54.26s-.48-.22-.46-.4.27-.29.54-.26S152.43,100,152.41,100.16Z"/><path class="cls-21" d="M153.9,98.73c0,.18-.26.3-.54.26s-.48-.22-.45-.4.27-.3.54-.26S153.93,98.55,153.9,98.73Z"/><path class="cls-21" d="M157.38,100c0,.18-.27.3-.54.26s-.48-.22-.46-.4.27-.3.55-.26S157.41,99.82,157.38,100Z"/><path class="cls-21" d="M156.33,101.64c0,.18-.26.3-.54.26s-.48-.21-.45-.39.27-.3.54-.26S156.36,101.46,156.33,101.64Z"/><path class="cls-21" d="M155.17,103.27c0,.18-.27.3-.55.26s-.48-.21-.45-.4.27-.29.54-.26S155.19,103.09,155.17,103.27Z"/><path class="cls-21" d="M151.21,101.83c0,.18-.27.3-.54.26s-.48-.22-.45-.4.26-.29.54-.26S151.24,101.65,151.21,101.83Z"/><path class="cls-21" d="M150,103.32c0,.18-.26.3-.54.27s-.48-.22-.45-.4.27-.3.54-.26S150,103.14,150,103.32Z"/><path class="cls-21" d="M149,104.8c0,.18-.27.29-.55.26s-.47-.22-.45-.4.27-.3.54-.26S149,104.61,149,104.8Z"/><path class="cls-21" d="M152.85,106.47c0,.18-.27.3-.54.26s-.48-.22-.45-.4.26-.3.54-.26S152.88,106.29,152.85,106.47Z"/><path class="cls-21" d="M154,104.88c0,.18-.27.3-.54.26s-.48-.21-.46-.39.27-.3.54-.26S154,104.7,154,104.88Z"/><path class="cls-36" d="M163.09,74.75c-4,4.74-5.56,6.65-8.61,14.55-.55,1.42-1.95,4.87-1.39,5.54s-1.47,1.38-1.13,2.36,3.23,3.89,6,3.26,2.24-2.29,2.11-2.9,1-1.88,1.24-2.62c.46-1.56,6.55-11,7.49-12.91C173.44,72.38,167.7,69.29,163.09,74.75Z"/><path class="cls-33" d="M171.51,76.6a11.38,11.38,0,0,1,.84-2.59l.87-.58c.63-.88-.44-1.09.56-1.17,2.56-.19,3.85,1.19,5.27,3.35.64,1,8,12.48,9,13.21a5.39,5.39,0,0,1-1.22,3.7c-.36.49-1,.4-1.36.91-2.25,3.3-11,6.18-15.33,3.9-.15-.09-.82-7.3-1-7.39l5.73-.34c-.24-.11-3.55-6.83-3.55-10.45A8.34,8.34,0,0,1,171.51,76.6Z"/><path class="cls-34" d="M188.31,97.9s4.37,4.66,7.56,8.31l-.39.05.27,2c-1.94,1.13-7.2,1.12-7.85.08-2.79-4.35-6.24-8.7-6.24-8.7Z"/><path class="cls-35" d="M183.8,99.07l6.26,8.75,2.94-1.33-7-8,2.29-.59s4.37,4.66,7.56,8.31l-.39.05.27,2c-1.94,1.13-7.2,1.12-7.85.08-2.79-4.35-6.24-8.7-6.24-8.7Z"/><path class="cls-18" d="M194.83,105.05a9.45,9.45,0,0,1,1.25,1.4c2.72,4.12-5.71,6.57-8.18,1.88C189.31,106.63,192,105.52,194.83,105.05Z"/><polygon class="cls-21" points="185.12 102.21 187.76 99.17 187.41 99.05 184.77 102.09 185.12 102.21"/><polygon class="cls-21" points="186.59 103.66 189.23 100.62 188.88 100.5 186.24 103.54 186.59 103.66"/><polygon class="cls-21" points="187.73 105.27 190.36 102.23 190.01 102.12 187.38 105.15 187.73 105.27"/><polygon class="cls-21" points="188.89 106.87 191.53 103.83 191.18 103.72 188.54 106.75 188.89 106.87"/><polygon class="cls-21" points="189.29 100.54 189.35 100.27 184.41 100.13 184.34 100.4 189.29 100.54"/><polygon class="cls-21" points="190.11 102.24 190.17 101.97 185.23 101.82 185.16 102.1 190.11 102.24"/><polygon class="cls-21" points="191.3 103.83 191.37 103.56 186.42 103.42 186.36 103.69 191.3 103.83"/><polygon class="cls-21" points="192.47 105.43 192.53 105.16 187.58 105.02 187.52 105.29 192.47 105.43"/><path class="cls-21" d="M188.58,100.54c0,.19.27.31.54.27s.49-.22.46-.4-.27-.3-.55-.26S188.55,100.36,188.58,100.54Z"/><path class="cls-21" d="M187.07,99.1c0,.18.27.3.55.26s.48-.21.45-.4-.27-.3-.54-.26S187,98.92,187.07,99.1Z"/><path class="cls-21" d="M183.56,100.38c0,.19.27.3.55.27s.48-.22.46-.4-.27-.3-.55-.27S183.54,100.2,183.56,100.38Z"/><path class="cls-21" d="M184.62,102c0,.18.27.3.54.26s.49-.21.46-.4-.27-.3-.55-.26S184.59,101.86,184.62,102Z"/><path class="cls-21" d="M185.8,103.68c0,.19.26.3.54.27s.48-.22.46-.4-.27-.3-.55-.27S185.77,103.5,185.8,103.68Z"/><path class="cls-21" d="M189.78,102.23c0,.18.27.3.55.26s.48-.21.46-.4-.27-.3-.55-.26S189.76,102.05,189.78,102.23Z"/><path class="cls-21" d="M191,103.74c0,.18.27.3.55.26s.48-.22.46-.4-.27-.3-.55-.26S191,103.56,191,103.74Z"/><path class="cls-21" d="M192.05,105.22c0,.18.27.3.54.27s.49-.22.46-.4-.27-.31-.55-.27S192,105,192.05,105.22Z"/><path class="cls-21" d="M188.13,106.91c0,.18.27.3.55.26s.48-.21.45-.4-.27-.3-.54-.26S188.1,106.73,188.13,106.91Z"/><path class="cls-21" d="M187,105.31c0,.18.27.3.55.26s.48-.21.46-.4-.27-.3-.55-.26S186.94,105.13,187,105.31Z"/><path class="cls-36" d="M178.38,75.14c6.06,8,7.42,14.13,8.3,15.39s1.77,4,1.21,4.65,1.49,1.39,1.14,2.38-3.26,3.92-6,3.29-2.26-2.31-2.13-2.93-1-1.89-1.25-2.64c-.46-1.58-6.61-11-7.56-13C167.36,72.52,174,69.38,178.38,75.14Z"/><path class="cls-1" d="M986.47,10.12c.11-.1.23-.18.34-.27C986.7,9.94,986.58,10,986.47,10.12Z"/><path class="cls-1" d="M989.83,7.81l.38-.2Z"/><path class="cls-1" d="M984.9,11.58l.27-.28Z"/><path class="cls-1" d="M983.63,13c.08-.11.18-.21.27-.32C983.81,12.79,983.71,12.89,983.63,13Z"/><path class="cls-1" d="M1025.91,67.53l-.77.43Z"/><path class="cls-1" d="M982.34,14.77l.24-.37Z"/><path class="cls-1" d="M991.67,6.91l.23-.11Z"/><path class="cls-1" d="M997.72,5.3l.46,0Z"/><path class="cls-1" d="M995.72,5.61l.14,0Z"/><path class="cls-1" d="M993.6,6.18l.43-.13Z"/><path class="cls-1" d="M988,8.93l.27-.19Z"/><path class="cls-1" d="M1027.54,66.5l-.73.49Z"/><path class="cls-2" d="M988.31,8.74c.49-.33,1-.64,1.52-.93C989.31,8.1,988.8,8.41,988.31,8.74Z"/><path class="cls-2" d="M994,6.05c.56-.17,1.12-.32,1.69-.44C995.15,5.73,994.59,5.88,994,6.05Z"/><path class="cls-2" d="M982.58,14.4c.33-.48.68-1,1-1.4C983.26,13.45,982.91,13.92,982.58,14.4Z"/><path class="cls-2" d="M991.9,6.8c.55-.23,1.13-.44,1.7-.62C993,6.36,992.45,6.57,991.9,6.8Z"/><path class="cls-2" d="M985.17,11.3c.42-.42.85-.81,1.3-1.18C986,10.49,985.59,10.88,985.17,11.3Z"/><path class="cls-2" d="M990.21,7.61c.48-.25,1-.49,1.46-.7C991.17,7.12,990.69,7.36,990.21,7.61Z"/><path class="cls-2" d="M986.81,9.85c.4-.32.81-.63,1.23-.92C987.62,9.22,987.21,9.53,986.81,9.85Z"/><path class="cls-2" d="M982,15.34h0c.11-.19.22-.38.34-.56Z"/><path class="cls-2" d="M983.9,12.68c.32-.38.65-.74,1-1.1C984.55,11.94,984.22,12.3,983.9,12.68Z"/><path class="cls-2" d="M998.18,5.25c.64-.06,1.28-.1,1.94-.1C999.46,5.15,998.82,5.19,998.18,5.25Z"/><path class="cls-2" d="M1025,68.06l.17-.1L1025,68Z"/><path class="cls-2" d="M995.86,5.58c.61-.12,1.23-.21,1.86-.28C997.09,5.37,996.47,5.46,995.86,5.58Z"/><path class="cls-2" d="M1027.54,66.5c.15-.09.29-.19.43-.29h0C1027.82,66.3,1027.69,66.41,1027.54,66.5Z"/><path class="cls-2" d="M1026.81,67c-.3.18-.6.37-.9.54C1026.21,67.36,1026.51,67.17,1026.81,67Z"/><path class="cls-2" d="M1028,61.64a24.17,24.17,0,0,1-3,6.4l.16-.08.77-.43c.3-.17.6-.36.9-.54l.73-.49c.15-.09.28-.2.43-.3Z"/><polygon class="cls-12" points="1027.97 114.47 655.65 114.47 655.65 111.47 655.65 111.47 655.65 123.08 1027.97 123.08 1027.97 114.47"/><rect class="cls-12" x="655.65" y="111.47" width="372.32" height="3"/><rect class="cls-1" y="123.08" width="1027.97" height="22.51"/></g></g></svg>