<?xml version="1.0" encoding="utf-8"?>
<!-- Generator: Adobe Illustrator 22.1.0, SVG Export Plug-In . SVG Version: 6.00 Build 0)  -->
<svg version="1.1" id="Layer_1" xmlns="http://www.w3.org/2000/svg" xmlns:xlink="http://www.w3.org/1999/xlink" x="0px" y="0px"
	 viewBox="0 0 252.2 481" style="enable-background:new 0 0 252.2 481;" xml:space="preserve">
<style type="text/css">
	.st0{fill:url(#SVGID_1_);}
	.st1{fill:#FCC9A1;}
	.st2{fill:url(#SVGID_2_);}
	.st3{fill:#1A1A1A;}
	.st4{fill:url(#SVGID_3_);}
	.st5{fill:url(#SVGID_4_);}
	.st6{fill:url(#SVGID_5_);}
	.st7{fill:url(#SVGID_6_);}
	.st8{fill:url(#SVGID_7_);}
	.st9{fill:url(#SVGID_8_);}
	.st10{fill:url(#SVGID_9_);}
	.st11{fill:#3D2100;}
	.st12{fill:#FFFFFF;}
	.st13{fill:url(#SVGID_10_);}
	.st14{fill:url(#SVGID_11_);}
	.st15{fill:url(#SVGID_12_);}
	.st16{fill:url(#SVGID_13_);}
	.st17{fill:url(#SVGID_14_);}
	.st18{fill:url(#SVGID_15_);}
	.st19{fill:url(#SVGID_16_);}
	.st20{fill:url(#SVGID_17_);}
	.st21{fill:url(#SVGID_18_);}
	.st22{fill:url(#SVGID_19_);}
	.st23{fill:url(#SVGID_20_);}
	.st24{fill:url(#SVGID_21_);}
	.st25{fill:url(#SVGID_22_);}
	.st26{fill:url(#SVGID_23_);}
	.st27{fill:url(#SVGID_24_);}
	.st28{fill:url(#SVGID_25_);}
	.st29{fill:url(#SVGID_26_);}
	.st30{fill:url(#SVGID_27_);}
	.st31{fill:url(#SVGID_28_);}
	.st32{fill:url(#SVGID_29_);}
	.st33{fill:url(#SVGID_30_);}
	.st34{fill:url(#SVGID_31_);}
	.st35{fill:url(#SVGID_32_);}
	.st36{fill:url(#SVGID_33_);}
	.st37{fill:url(#SVGID_34_);}
	.st38{fill:url(#SVGID_35_);}
	.st39{fill:url(#SVGID_36_);}
	.st40{fill:url(#SVGID_37_);}
	.st41{fill:url(#SVGID_38_);}
	.st42{fill:url(#SVGID_39_);}
	.st43{fill:url(#SVGID_40_);}
	.st44{fill:url(#SVGID_41_);}
	.st45{fill:url(#SVGID_42_);}
	.st46{fill:#FFAD59;}
	.st47{fill:#FFD6C2;}
	.st48{fill:#DE995E;}
	.st49{fill:url(#SVGID_43_);}
	.st50{fill:url(#SVGID_44_);}
	.st51{fill:url(#SVGID_45_);}
	.st52{fill:url(#SVGID_46_);}
	.st53{fill:url(#SVGID_47_);}
	.st54{fill:url(#SVGID_48_);}
	.st55{fill:url(#SVGID_49_);}
	.st56{fill:#F2F2F2;}
	.st57{fill:url(#SVGID_50_);}
	.st58{fill:url(#SVGID_51_);}
	.st59{fill:url(#SVGID_52_);}
	.st60{fill:url(#SVGID_53_);}
	.st61{fill:#91BFE0;}
	.st62{fill:#999999;}
	.st63{fill:#597D9E;}
	.st64{fill:url(#SVGID_54_);}
	.st65{fill:url(#SVGID_55_);}
	.st66{fill:url(#SVGID_56_);}
	.st67{fill:url(#SVGID_57_);}
	.st68{fill:url(#SVGID_58_);}
	.st69{fill:url(#SVGID_59_);}
</style>
<g>
	
		<linearGradient id="SVGID_1_" gradientUnits="userSpaceOnUse" x1="51.397" y1="-43.8377" x2="214.5921" y2="-43.8377" gradientTransform="matrix(0.9971 -1.080000e-02 3.210000e-02 0.958 31.0925 141.5541)">
		<stop  offset="0.2909" style="stop-color:#000000"/>
		<stop  offset="0.43" style="stop-color:#080501"/>
		<stop  offset="0.6495" style="stop-color:#1F1205"/>
		<stop  offset="0.9091" style="stop-color:#42260B"/>
	</linearGradient>
	<path class="st0" d="M228.9,157.7c-1.1,2.2-1.9,4.4-1.8,6.6c0.4,8.2,13,2.3,9.9-4.9c3.3,7.7-2.6,12-9.1,12.8
		c-6,0.7-13-3.8-10.1-10.8c-5.5,14.4-26.9,26.1-34.3,28.1c4.2-3,8.6-4.9,9.6-11.2c-5.6,10.5-20.7,14.6-31,16.9
		c-7.6,1.7-6,1.5-24.1-2.7c-7.1-1.7-19.3-5.7-24.8-15.2c-0.2,9.5-9.9,12.4-16.7,10.5c6.9-0.6,12.4-8.7,11.1-19.9
		c-0.7-5.7-6.6-11.6-9.4-16c-1.8-2.9-4.1-6.4-5.2-9.7c2.4,3.1,8.9,16.8,7.8,20.6c-1.8,6-12.3,6.2-17.8-1.4c2,0.4,3.9,0.3,5-0.2
		c7.4-3.9,1.6-19-1.7-28.7c-16.6-49.6,16.5-118,68.9-129.8c2.9-0.7,6.8,0.2,9.9-0.2c2.4-0.3,4.7-1.4,7.2-1.8
		c6.7-1.2,12.6-0.5,19.2,1.7c13.5,4.5,23.3,12.9,31.8,23.9c5.9,7.6,11.1,18.3,13.6,27.7c4.4,16.3,7.1,33.2,6.9,50.1
		c-0.2,16.1-4.3,32.2-11,46.8C231.7,152.9,230.2,155.2,228.9,157.7z"/>
	<path class="st1" d="M126.5,192.7c-5.8,4.7-4.7,2.5-11.7,5.2c-1.5,0.6-5.3,0.2-6.2,1.4c-3.1,4.5,3.9,14.9,5.4,19
		c9.2,25.5,18.3,50.6,31.6,74.5c8.6,15.5,29,40.3,41.7,14.6c7.8-15.9,9.5-35.2,11.9-52.5c2.1-14.6,4.3-27.6,4.4-42
		c0-0.8-12.6-0.5-14-1.3c-4.3-2.5-15.7-15.1-18.9-18.9c-2.6-3.2-4.1-6-3.7-11.8c0.8-10.7,7.7-24.1,9.4-25.9c5.6-6.2,1.5-6.3-7-10.3
		c-5.4-2.5-11.2-3.6-17.2-3.6c-4.1,0-15.5-1.8-14.5,2.6C142.3,164.7,141.1,180.8,126.5,192.7z"/>
	
		<linearGradient id="SVGID_2_" gradientUnits="userSpaceOnUse" x1="119.0582" y1="180.9333" x2="165.3117" y2="227.1868" gradientTransform="matrix(1 -6.100000e-03 6.100000e-03 1 0.7042 -8.9474)">
		<stop  offset="0.1098" style="stop-color:#E6995E"/>
		<stop  offset="0.503" style="stop-color:#FCC9A1"/>
	</linearGradient>
	<path class="st2" d="M128.2,193.1c-5.8,4.7-4.7,2.5-11.7,5.2c-1.5,0.6-5.3,0.2-6.2,1.4c-3.1,4.5,3.9,14.9,5.4,19
		c2,5.6,8,29.1,13.6,29c4.1-0.1,18-7.4,18-11.1c0.1-14.7-3.8-75.1,26.8-82c-5.6-4.1-33.2-15.5-32.5-0.8c0.2,3.4,0.3,15.7-1.6,21.9
		C138,182.7,133.8,188.5,128.2,193.1z"/>
	<path class="st3" d="M195.8,480.4c-0.1-20.7-4.6-49.3-7.7-67.4c-4-23.6-6.7-47.8-9.3-71.6c-0.9-8.7-1.6-17.6-1.6-26.4
		c0-5.2,3.7-14.5,0.8-17.6c-34.2-38-56.7-105.4-56-106.7c-5.8,10-11.5,15.6-19.3,24.3c-7.1,7.9-34.4,12.2-30.9,23.4
		c9.2,29.2,15.5,43.2,32.9,69.3c10.3,15.4,25.9,29.2,19.6,64.1c-3.4,18.6-25.3,57.6-19.2,109.2C134.3,481.1,164.7,480.6,195.8,480.4
		z"/>
	
		<linearGradient id="SVGID_3_" gradientUnits="userSpaceOnUse" x1="91.8609" y1="386.5745" x2="161.3759" y2="378.0391" gradientTransform="matrix(1 -6.100000e-03 6.100000e-03 1 0.7042 -8.9474)">
		<stop  offset="0.3526" style="stop-color:#404041"/>
		<stop  offset="0.6749" style="stop-color:#2D2D2E"/>
		<stop  offset="0.9538" style="stop-color:#1A1A1A"/>
	</linearGradient>
	<path class="st4" d="M168.5,452.2c-0.3-19.8,2.5-40.8-1.2-60.3c-1.5-8-5.3-14.9-7.2-22.6c-1.5-5.9-0.5-12-4-17.3
		c-2.6-3.9-12.7-5.8-11.6-11.3c1-4.8,6.2-4.1,2-9.5c-3.3-4.4-9.5-7-13.7-10.5c-1.1-1-2.3-2-3.4-3c-16.6-14.8-32-32.9-43.5-51.8
		c1.6,3.9,2.2,8.6,3.8,12.7c4.2,10.8,12,19,18.3,28.4c10.3,15.4,25.9,29.2,19.6,64.1c-3.4,18.6-25.4,57.8-19.2,109.5
		c20.2-0.1,40.4-0.3,60.6-0.4C168.6,469.8,168.5,453.7,168.5,452.2z"/>
	<path class="st3" d="M247.5,481c5.9-43.9-4.4-78.2-34.1-120.9c-9.5-13.6-10.1,2.9-5.7-32.4c1.7-13.8,9.4-26,7.7-40.2
		c-1.3-11-6.6-21.1-9.5-31.7c-1.8-6.8-2-13.8-1.8-20.8c0.1-3.5,0.3-6.9,0.3-10.3c0-2.9,1-5.7,0.9-8.6c-0.2-5.1-8.4-6.1-12.1-7.9
		c-0.1-0.1-7.5-3.2-6.9-2c4.2,9.2-0.7,24.8-2.8,34.4c-2.3,10.8-5.3,21.5-7.4,32.4c-2.1,10.9-7.5,21.2-8.6,32.4
		c-1.9,19.9,1.2,40.5,5.1,59.8c4.7,22.9,1.4,46.7,6.7,69.5c1,4.4-1.7,32.2-1.9,46.2C199.7,481.1,225.1,480.8,247.5,481z"/>
	
		<linearGradient id="SVGID_4_" gradientUnits="userSpaceOnUse" x1="182.3825" y1="291.7112" x2="239.9012" y2="291.7112" gradientTransform="matrix(1 -6.100000e-03 6.100000e-03 1 0.7042 -8.9474)">
		<stop  offset="5.454510e-02" style="stop-color:#000000"/>
		<stop  offset="0.4101" style="stop-color:#0B0B0B"/>
		<stop  offset="0.7572" style="stop-color:#1A1A1A"/>
	</linearGradient>
	<path class="st5" d="M231.4,219.3c2.9,5.8-5.3,40.5,2.3,71.3c4.1,16.7,13.5,34,6.4,51.2c-9.5,22.9-14.2,19.9-20.7,19.6
		c-5.6-0.3-14.8-7-17.4-11c-9.3-14.5-4.7-33-8-48.8c-4-19.3-1.1-40-3.3-59.6c-1-9.1-10.6-33.4-3.8-40.8c5.8,4,20.4,11.9,28,12.4
		C220.4,214,227.6,211.9,231.4,219.3z"/>
	
		<linearGradient id="SVGID_5_" gradientUnits="userSpaceOnUse" x1="220.3436" y1="291.5508" x2="240.8549" y2="287.5638" gradientTransform="matrix(1 -6.100000e-03 6.100000e-03 1 0.7042 -8.9474)">
		<stop  offset="0" style="stop-color:#1A1A1A"/>
		<stop  offset="0.1649" style="stop-color:#1E1E1E"/>
		<stop  offset="0.3316" style="stop-color:#2A2A2A"/>
		<stop  offset="0.4991" style="stop-color:#3E3E3E"/>
		<stop  offset="0.6672" style="stop-color:#5B5B5B"/>
		<stop  offset="0.8342" style="stop-color:#7F7F7F"/>
		<stop  offset="0.9364" style="stop-color:#999999"/>
	</linearGradient>
	<path class="st6" d="M231.6,219.6c2.9,5.8-5.3,40.5,2.3,71.3c3.6,14.7,11.9,32.3,6.3,47.6c-1.1,3-3.3,5.5-4.3,8.5
		c5.9-19.4-2.1-42.8-7.4-61.6c-3.8-13.4-5-27-7.3-40.7c-3.9-23.2-13.1-25.6-9.7-28.7C216.1,212,229.5,215.3,231.6,219.6z"/>
	
		<linearGradient id="SVGID_6_" gradientUnits="userSpaceOnUse" x1="67.7149" y1="414.3246" x2="96.6067" y2="414.3246" gradientTransform="matrix(1 -6.100000e-03 6.100000e-03 1 0.7042 -8.9474)">
		<stop  offset="0.4104" style="stop-color:#000000"/>
		<stop  offset="0.5297" style="stop-color:#0B0B0B"/>
		<stop  offset="0.7378" style="stop-color:#272728"/>
		<stop  offset="0.8902" style="stop-color:#404041"/>
	</linearGradient>
	<path class="st7" d="M93.6,424.6c-0.2,0.2-0.4,0.4-0.6,0.6c-1.1,1-3.1,1.3-4.6,1.3c-2.2,0.1-4.9,0.2-6.7-1.1
		c-2-1.4-3.9-2.6-5.3-4.7c-1-1.4-1.6-3-2.4-4.5c-1.5-2.5-2.2-5.6-2.7-8.5c-0.4-2.2-0.4-4.3-0.2-6.5c0.9-10.9,12.1-24.9,23.3-14
		c0.8,0.8,3.9,2.4,4.6,3.3C100.9,392.9,99.5,420.7,93.6,424.6z"/>
	
		<linearGradient id="SVGID_7_" gradientUnits="userSpaceOnUse" x1="71.5679" y1="420.4046" x2="148.3776" y2="420.4046" gradientTransform="matrix(1 -6.100000e-03 6.100000e-03 1 0.7042 -8.9474)">
		<stop  offset="0.9017" style="stop-color:#D48F4F"/>
		<stop  offset="1" style="stop-color:#F4C491"/>
	</linearGradient>
	<path class="st8" d="M101.4,419.2c-11.3-1.6-15.4-5.9-22.2-14.8c-10.5-13.7-1.3-15.3,15-11.4c8.5,2,17.9-1.6,25.6-6.2
		c-0.6,3-1.6,5.9-2.8,9.1c7.5-1,14-3,19.2-2.2c4.8,0.7,6.9,2.3,15.4,10.8c-8.5,0.9-8.8-3.4-13.2-5.7c-2.7-1.4-7.2,0.5-13.1,2.2
		c5.5,3.7,14.2,8.4,17.5,14.6c3.5,6.6,6.1,13.1,7.8,19.1c-1,0-6.4-0.3-8.4-2.4c-4.4,0.8-8-3-10-6.2c-1.5-2.4-3.1-2.9-6.8-3.6
		C119.4,421.2,107.5,420.1,101.4,419.2z"/>
	<g>
		
			<linearGradient id="SVGID_8_" gradientUnits="userSpaceOnUse" x1="86.1131" y1="-45.6301" x2="87.0404" y2="-20.3999" gradientTransform="matrix(0.9872 0.1597 -0.1597 0.9872 48.1128 103.8581)">
			<stop  offset="0.2364" style="stop-color:#2E1C26"/>
			<stop  offset="0.2553" style="stop-color:#45353E"/>
			<stop  offset="0.3044" style="stop-color:#7D7278"/>
			<stop  offset="0.3515" style="stop-color:#ACA4A8"/>
			<stop  offset="0.3955" style="stop-color:#D0CCCE"/>
			<stop  offset="0.4358" style="stop-color:#EAE8E9"/>
			<stop  offset="0.4709" style="stop-color:#F9F9F9"/>
			<stop  offset="0.497" style="stop-color:#FFFFFF"/>
		</linearGradient>
		<path class="st9" d="M155.3,79.6c-2.3-4-5.5-7.5-9.3-10.1c-4.1-2.8-9.5-3.7-14.4-3.9c-4.3-0.2-7.7,1.7-10.1,5.6
			c-3.3,5.3-5.2,12.8-2.5,18.6c3.4,7.5,9.6,10,17.1,11.2c1.6,0.3,3.3,0.4,5,0.6c5,0.5,9.5,0.1,14.4-1.7c3.1-1.1,3.8-3.2,3.7-6.4
			C159,88.5,157.6,83.8,155.3,79.6z"/>
		<g>
			<g>
				
					<radialGradient id="SVGID_9_" cx="140.7139" cy="-53.9369" r="7.4343" gradientTransform="matrix(-0.9997 2.190000e-02 2.190000e-02 0.9997 282.3996 136.3973)" gradientUnits="userSpaceOnUse">
					<stop  offset="0.4242" style="stop-color:#000000"/>
					<stop  offset="0.5394" style="stop-color:#806E38"/>
					<stop  offset="0.6088" style="stop-color:#896E38"/>
					<stop  offset="0.6474" style="stop-color:#916E38"/>
					<stop  offset="0.896" style="stop-color:#603813"/>
				</radialGradient>
				<path class="st10" d="M133.1,85.7c0.1,4.1,3.5,7.4,7.6,7.3c4.1-0.1,7.4-3.5,7.3-7.6c-0.1-4.1-3.5-7.4-7.6-7.3
					C136.3,78.2,133,81.6,133.1,85.7z"/>
				<path class="st11" d="M140.7,93.5c-4.4,0.1-8-3.4-8.1-7.8c-0.1-4.4,3.4-7.3,7.8-7.4c4.4-0.1,7.7,2.8,7.8,7.2
					C148.2,89.9,145.1,93.4,140.7,93.5L140.7,93.5z M140.4,78.6c-3.8,0.1-6.9,3.3-6.8,7.1c0.1,3.8,3.3,6.9,7.1,6.8
					c3.8-0.1,6.9-3.2,6.8-7.1C147.4,81.6,144.2,78.5,140.4,78.6L140.4,78.6z"/>
			</g>
			<path class="st12" d="M142.6,90.1c0,0.8,0.7,1.4,1.5,1.4c0.8,0,1.4-0.7,1.4-1.5c0-0.8-0.7-1.4-1.5-1.4
				C143.2,88.7,142.6,89.3,142.6,90.1z"/>
			<path class="st12" d="M132.7,85.5c0,1.3,1.1,2.4,2.5,2.4c1.3,0,2.4-1.1,2.3-2.5c0-1.3-1.1-2.4-2.5-2.3
				C133.7,83,132.7,84.1,132.7,85.5z"/>
		</g>
		
			<linearGradient id="SVGID_10_" gradientUnits="userSpaceOnUse" x1="147.9939" y1="-42.3278" x2="148.2722" y2="-17.2832" gradientTransform="matrix(0.9872 0.1597 -0.1597 0.9872 48.1128 103.8581)">
			<stop  offset="0.1697" style="stop-color:#2E1C26"/>
			<stop  offset="0.1877" style="stop-color:#41313A"/>
			<stop  offset="0.2548" style="stop-color:#84797F"/>
			<stop  offset="0.3149" style="stop-color:#B9B3B6"/>
			<stop  offset="0.3661" style="stop-color:#DFDCDE"/>
			<stop  offset="0.4062" style="stop-color:#F6F6F6"/>
			<stop  offset="0.4303" style="stop-color:#FFFFFF"/>
		</linearGradient>
		<path class="st13" d="M192.9,79.9c-2.2,1.4-4.2,3.1-6.2,5.3c-3.4,3.8-6.5,8.2-8,13.2c-1.3,4.5,1.8,6.9,5.4,8.5
			c3.2,1.4,6.6,2.5,10,3.3c3.5,0.8,6.9,0.7,10.4,0.7c8.9,0.1,15.3-9.5,15.5-18.3c0.1-3.2,0-6.8-1.4-9.7c-0.9-2-2.5-3.4-4.3-4.3
			c-4.6-2.3-9.4-3.6-14.3-2C197.4,77.5,195.1,78.5,192.9,79.9z"/>
		<g>
			<g>
				
					<radialGradient id="SVGID_11_" cx="85.3671" cy="-41.193" r="7.1977" gradientTransform="matrix(-0.9997 2.190000e-02 2.190000e-02 0.9997 282.3996 136.3973)" gradientUnits="userSpaceOnUse">
					<stop  offset="0.4242" style="stop-color:#000000"/>
					<stop  offset="0.5394" style="stop-color:#806E38"/>
					<stop  offset="0.6088" style="stop-color:#896E38"/>
					<stop  offset="0.6474" style="stop-color:#916E38"/>
					<stop  offset="0.896" style="stop-color:#603813"/>
				</radialGradient>
				<path class="st14" d="M189,97.2c0.1,4,3.4,7.1,7.4,7c4-0.1,7.1-3.4,7-7.4c-0.1-4-3.4-7.1-7.3-7C192,90,188.9,93.3,189,97.2z"/>
				<path class="st11" d="M196.3,104.8c-4.2,0.1-7.4-3.3-7.4-7.5c0.1-4.2,2.1-7.4,6.4-7.5c4.2-0.1,8.4,2.9,8.5,7.1
					C203.9,101.2,200.6,104.7,196.3,104.8L196.3,104.8z M196,90.4c-3.7,0.1-6.6,3.1-6.6,6.8c0.1,3.7,3.2,6.6,6.9,6.6
					c3.7-0.1,6.6-3.2,6.6-6.8C202.8,93.2,199.7,90.3,196,90.4L196,90.4z"/>
			</g>
			<path class="st12" d="M199.6,98.2c0,1.2,1,2.1,2.2,2.1c1.2,0,2.1-1,2.1-2.2c0-1.2-1-2.1-2.2-2.1
				C200.5,96.1,199.6,97.1,199.6,98.2z"/>
			<path class="st12" d="M190.7,100.6c0,0.7,0.6,1.3,1.4,1.3c0.7,0,1.3-0.6,1.3-1.4c0-0.7-0.6-1.3-1.3-1.3
				C191.2,99.2,190.7,99.8,190.7,100.6z"/>
		</g>
		
			<linearGradient id="SVGID_12_" gradientUnits="userSpaceOnUse" x1="121.9372" y1="198.313" x2="171.8275" y2="198.313" gradientTransform="matrix(0.9948 0.1031 -0.1031 0.9948 35.8642 -73.0322)">
			<stop  offset="7.514450e-02" style="stop-color:#C4733D"/>
			<stop  offset="0.1445" style="stop-color:#873813"/>
			<stop  offset="0.1919" style="stop-color:#873813"/>
			<stop  offset="0.4798" style="stop-color:#873813"/>
			<stop  offset="0.8497" style="stop-color:#422100"/>
			<stop  offset="0.861" style="stop-color:#653711"/>
			<stop  offset="0.8742" style="stop-color:#874D21"/>
			<stop  offset="0.8877" style="stop-color:#A25E2D"/>
			<stop  offset="0.9015" style="stop-color:#B56936"/>
			<stop  offset="0.9156" style="stop-color:#C0713B"/>
			<stop  offset="0.9306" style="stop-color:#C4733D"/>
		</linearGradient>
		<path class="st15" d="M181.6,132.4c-1,0-2,0.1-3,0.1c-2.6,0.1-5.2-0.1-7.8-0.3c-3.1-0.2-6.1-1.1-9.1-1.7c-2.8-0.6-5.6-1.2-8.3-2
			c-3.9-1.1-7.7-3.9-11.8-4c-4.6-0.1-4.4,4.8-3.6,8c0.5,1.8,1.2,3.5,2,5.2c1.3,2.8,3.5,4.8,5.8,7c0.1,0.1,0.2,0.2,0.3,0.3
			c2.8,2.7,5.6,4.6,9.4,5.6c2.4,0.6,4.6,1.3,7.1,1.6c2.7,0.4,5.7,0.7,8.3,0c2.9-0.8,5.7-2.1,8.1-3.9c1.6-1.2,2.8-2.6,4.1-4.2
			c1.4-1.6,3-2.9,3.4-5.1c0.5-2.1,0.5-5-1.8-6.1C183.8,132.5,182.7,132.4,181.6,132.4z"/>
		<path class="st1" d="M226.3,81.6c-0.8-7.2-2-7.4-3.3-14.5c-1.1-6.3-2.5-12.6-4.8-18.5c-2.4-6.2-4.3-11.5-8.6-16.6
			c-3.6-4.3-6.8-8.9-10.9-12.6c-14.9-13-39.3-11.4-56.4-3.2c-6.8,3.3-12.6,8.2-17.3,14.1c-4.9,6.1-7.7,15-9.2,22.7
			c-2.2,11-2.2,21.5-2.4,32.6c-0.1,4.6-0.2,9.3-0.2,14c0,1,0,2,0.1,3.1c0.2,5.5,0.2,11.1,0.9,16.5c0.2,1.5,1,3,1.6,4.4
			c1.2,2.7,2.6,5.2,4,7.8c4.9,8.6,8.8,15.7,15.5,22.9c3.3,3.5,6.7,8,10.9,10.4c6.2,3.5,15,4.8,21.1,2.1c9.3-4.1,19.9-11.1,27.7-17.6
			c8.4-6.9,19.8-16.3,27.1-48.3C222.9,97.9,226.7,84.7,226.3,81.6z M133,90.2c-0.2-0.1-0.4-0.2-0.6-0.3c-2.5-1.5-8.4-6.3-6.6-9.7
			c1.7-3.2,8.5-2.9,11.5-2.9c5.1,0,8.2,2.8,11.4,6.4c1.2,1.4,2,2.9,2.9,4.4c1,1.7,1.6,3,2.5,5.2c1.1,2.4-3.1,1.7-4.8,1.5
			c-3.1-0.5-6.2-0.5-9.2-1.3C137.7,92.8,135.2,91.5,133,90.2z M180.4,136.9c1-0.5,3.2-2.9,4.4-1.8c0.7,0.6,1.3,1.7,1.5,2.5
			c-1.7-4.5-5.6-0.9-9.3,3.3c-1.5,1.8-4.2,3.8-6.4,4.5c-3.7,1.2-8,1.1-11.7-0.1c-3-1-6-2.2-8.4-4.2c-1.1-0.9-2.2-1.8-3.1-2.9
			c-1.7-2-2.7-3.9-3.7-6.2c-0.5-1.1-0.5-2.4-1.3-3.4c-1.6-2.3-4.3-1.4-5.3-0.7c1.4-1,3-2.4,4.4-1.2c1.4,1.2,3.8,3.9,5.2,5
			c10.9,8.7,24,7.6,26.5,7.1C175.7,138.2,178.2,138,180.4,136.9z M212.9,97.9c-0.2,1.1-3.8,3.2-4.8,3.9c-3.9,2.9-9.2,3.2-13.9,2.6
			c-2.6-0.4-4.7-0.8-8.1-2.2c-2.8-1.1-1.4-1,2.4-6.3c2-2.7,4.9-3.8,8.3-4.4c3.2-0.5,7-0.4,9.9,1.1C208.9,93.8,213.3,95.5,212.9,97.9
			z"/>
		
			<linearGradient id="SVGID_13_" gradientUnits="userSpaceOnUse" x1="228.4276" y1="-37.2485" x2="125.6749" y2="-67.5187" gradientTransform="matrix(0.9997 -2.190000e-02 2.190000e-02 0.9997 29.9382 141.3617)">
			<stop  offset="0.3121" style="stop-color:#FFFFFF"/>
			<stop  offset="0.5394" style="stop-color:#FCC9A1"/>
		</linearGradient>
		<path class="st16" d="M211.2,77.1c-11.3-3.6-23.2,5.5-24.6,12.4c14.6-7.3,22.5-0.7,24.3,1.2c0.9,1.1,1.6,2.3,3,2.8
			C218,94.7,225.1,81.4,211.2,77.1z"/>
		
			<linearGradient id="SVGID_14_" gradientUnits="userSpaceOnUse" x1="219.8132" y1="-1.7885" x2="111.1252" y2="-1.7885" gradientTransform="matrix(0.9997 -2.190000e-02 2.190000e-02 0.9997 29.9382 141.3617)">
			<stop  offset="0.2486" style="stop-color:#FFFFFF"/>
			<stop  offset="0.5212" style="stop-color:#FCC9A1"/>
		</linearGradient>
		<path class="st17" d="M208.7,106.7c-10.3,4.2-15.9,14.8-17.6,18.3c-2.6,5.4-4.3,11.3-7.4,16.4c-10.2,17.1-21,24.9-22,25
			c18.3-5.3,51-30.8,55.4-54c0.4-2.3-0.2-4.7-2.3-5.9C213,105.4,210.6,105.9,208.7,106.7z"/>
		
			<linearGradient id="SVGID_15_" gradientUnits="userSpaceOnUse" x1="-35.0873" y1="39.5566" x2="480.7129" y2="-180.0254" gradientTransform="matrix(-1 -1.190000e-02 -1.190000e-02 1 260.2393 142.0141)">
			<stop  offset="0.2909" style="stop-color:#FCC9A1"/>
			<stop  offset="0.4046" style="stop-color:#FFFFFF"/>
		</linearGradient>
		<path class="st18" d="M118.9,94.4c0.9-2,2.2-2.9,4.3-2c5,2.1,14.8,17.8,11.5,27.6c-1.1,3.2-6.8,4.3-11.2,0.1
			C121,117.6,114.3,104.3,118.9,94.4z"/>
		
			<linearGradient id="SVGID_16_" gradientUnits="userSpaceOnUse" x1="89.6134" y1="147.7814" x2="134.762" y2="147.7814" gradientTransform="matrix(0.9948 0.1031 -0.1031 0.9948 35.8642 -73.0322)">
			<stop  offset="0" style="stop-color:#E6995E"/>
			<stop  offset="0.8844" style="stop-color:#FCC9A1"/>
		</linearGradient>
		<path class="st19" d="M143.8,16.2c-12.2,5.9-20.8,16.6-26.5,29.3c-3.3,7.4-5.5,15.9-6.1,24.1c-0.8,11.1-2.9,46.2,4.8,58.9
			c20.9,34.9,36.4,38.5,28.6,32.3c-5-3.9-8.2-7.4-12.9-13.1c-6.8-8.2-12.5-17.7-14.6-28.5c-1.5-7.8-1.7-17.3-1.4-21.4
			c1.2-15.4,12.6-12.7,13.1-11.5c-0.8-1.7-4.6-4.4-3.6-6.3c1.5-2.9,5-1.8,7.6-3.1c-1.4-0.5-2.6,0.9-6.3-3.9
			c-10.5-14,26.6-41.4,27.9-42.6c13.7-18.7,7.2-20-2.1-17.7C149.5,13.6,146.7,14.8,143.8,16.2z"/>
		
			<linearGradient id="SVGID_17_" gradientUnits="userSpaceOnUse" x1="123.7027" y1="98.5903" x2="212.7474" y2="98.5903" gradientTransform="matrix(0.9948 0.1031 -0.1031 0.9948 35.8642 -73.0322)">
			<stop  offset="0" style="stop-color:#E6995E"/>
			<stop  offset="0.3015" style="stop-color:#EEAA76"/>
			<stop  offset="0.7493" style="stop-color:#F8C195"/>
			<stop  offset="1" style="stop-color:#FCC9A1"/>
		</linearGradient>
		<path class="st20" d="M163.8,50.6c5.2,4.2,17,11.2,40.3,17.6c-4.3-3.2-28-20.5-25.3-26.1c1.8,0.9,2.6,3.7,3.9,5.3
			c1.6,2,3.3,4,5.1,5.9c4.1,4.2,8.7,7.9,13.8,10.7c10,5.5,23.5,5.9,32.4,13.3c-0.3-5.9-3.5-12.9-5.6-18.3c-2.2-5.7-5-11.1-7.1-16.7
			c-2-5.1-5.4-9.9-8.8-14C201.9,15.3,184.7,6.9,168,11.7c-5.8,1.7-11.8,4.3-14.9,9.6c-15.6,27.2,20.4,41.3,24.5,42.7
			c1.6,0.5,4.2,0.7,5.6,1.5c-6.5-4-12.1-7.1-14.5-9.2c-3.2-2.8-7.6-5.8-9.4-11.3C160.8,47,161.9,49,163.8,50.6z"/>
		<g>
			
				<linearGradient id="SVGID_18_" gradientUnits="userSpaceOnUse" x1="156.9138" y1="-45.4404" x2="184.7273" y2="-45.4404" gradientTransform="matrix(0.9997 -2.190000e-02 2.190000e-02 0.9997 29.9382 141.3617)">
				<stop  offset="0.2364" style="stop-color:#DE995E"/>
				<stop  offset="0.3601" style="stop-color:#D9955B"/>
				<stop  offset="0.4995" style="stop-color:#CC8B53"/>
				<stop  offset="0.6465" style="stop-color:#B57A46"/>
				<stop  offset="0.7988" style="stop-color:#966133"/>
				<stop  offset="0.9537" style="stop-color:#6E421B"/>
				<stop  offset="1" style="stop-color:#603813"/>
			</linearGradient>
			<path class="st21" d="M208.6,92.4c0.4,0.5,0.8,1,1.1,1.5c0.2,0.3,0.2,1,0.4,1.2c0.6,0.6,3.8,2.5,3.6,2
				c-2.3-8.4-10.4-10.7-14.7-10.1c-4.2,0.6-8.4,1.9-13.1,9.7c0,0,5.4-7.5,14.2-7.6C203.2,89,206.4,90.1,208.6,92.4z"/>
		</g>
		<g>
			
				<linearGradient id="SVGID_19_" gradientUnits="userSpaceOnUse" x1="156.0808" y1="-44.3751" x2="182.8589" y2="-44.3751" gradientTransform="matrix(0.9997 -2.190000e-02 2.190000e-02 0.9997 29.9382 141.3617)">
				<stop  offset="6.060600e-02" style="stop-color:#FCC2A1"/>
				<stop  offset="0.4606" style="stop-color:#FFFFFF"/>
				<stop  offset="0.5394" style="stop-color:#D6CFCA"/>
				<stop  offset="0.6982" style="stop-color:#877264"/>
				<stop  offset="0.8087" style="stop-color:#553824"/>
				<stop  offset="0.8606" style="stop-color:#42210B"/>
			</linearGradient>
			<path class="st22" d="M208.3,93.8c0.9,1,1.4,2.7,2.8,3c0.3-0.6,0.9-0.6,0.7-1.1c-1.8-4.8-8.6-7.6-13.2-7.1
				c-4.2,0.4-10.5,2.1-13.5,10c0,0,5.9-8,14.7-8.1C202.9,90.4,206.1,91.4,208.3,93.8z"/>
		</g>
		<g>
			
				<linearGradient id="SVGID_20_" gradientUnits="userSpaceOnUse" x1="95.1409" y1="-55.4549" x2="125.6566" y2="-55.4549" gradientTransform="matrix(0.9997 -2.190000e-02 2.190000e-02 0.9997 29.9382 141.3617)">
				<stop  offset="0" style="stop-color:#603813"/>
				<stop  offset="4.164182e-02" style="stop-color:#6C411A"/>
				<stop  offset="0.1988" style="stop-color:#956132"/>
				<stop  offset="0.3529" style="stop-color:#B57945"/>
				<stop  offset="0.5012" style="stop-color:#CC8B53"/>
				<stop  offset="0.641" style="stop-color:#D9955B"/>
				<stop  offset="0.7636" style="stop-color:#DE995E"/>
			</linearGradient>
			<path class="st23" d="M128.9,79.1c5.2-3.6,12.3-3,15.9-1c5.8,3.2,9.7,15.4,9.7,15.4c-1.5-6.7-2.9-13.6-8.6-17.3
				c-11.5-7.5-22.7,1.4-22.3,3.5C124.7,79.7,128.1,79.7,128.9,79.1z"/>
		</g>
		<g>
			
				<linearGradient id="SVGID_21_" gradientUnits="userSpaceOnUse" x1="96.4247" y1="-60.7914" x2="127.6869" y2="-51.1309" gradientTransform="matrix(0.9997 -2.190000e-02 2.190000e-02 0.9997 29.9382 141.3617)">
				<stop  offset="9.826590e-02" style="stop-color:#42210B"/>
				<stop  offset="0.3601" style="stop-color:#B1A39A"/>
				<stop  offset="0.5394" style="stop-color:#FFFFFF"/>
				<stop  offset="0.9394" style="stop-color:#FCC2A1"/>
			</linearGradient>
			<path class="st24" d="M127.8,80.6c2.3-0.8,5.4-2.8,6-3c4-1.1,7.4,0.1,11,2.1c5.8,3.2,9.7,14.8,9.7,14.8c1-5.8-3.2-12.9-8.5-16.6
				c-9.9-6.8-20.1-0.4-21.3,2.1C125.3,80.1,127.1,80.8,127.8,80.6z"/>
		</g>
		
			<linearGradient id="SVGID_22_" gradientUnits="userSpaceOnUse" x1="169.9103" y1="218.6277" x2="183.9069" y2="218.6277" gradientTransform="matrix(0.9967 8.000000e-02 -8.000000e-02 0.9967 6.5184 -111.0167)">
			<stop  offset="0.2659" style="stop-color:#DE995E"/>
			<stop  offset="1" style="stop-color:#F2B887"/>
		</linearGradient>
		<path class="st25" d="M172.4,121.1c-2.1,2-7.1,3.8-10.8-1.2c-0.5-0.7-2.4-0.3-3.2,0.3c0.8-0.6,2.4-1.9,3.4-1.3
			c0.4,0.2,1.1,0.9,1.4,1.3C164,121.1,167.2,123.8,172.4,121.1z"/>
		
			<linearGradient id="SVGID_23_" gradientUnits="userSpaceOnUse" x1="137.0426" y1="-37.1808" x2="153.1874" y2="-35.3568" gradientTransform="matrix(0.9997 -2.190000e-02 2.190000e-02 0.9997 29.9382 141.3617)">
			<stop  offset="0" style="stop-color:#FCC9A1"/>
			<stop  offset="0.4121" style="stop-color:#FFEBE3"/>
			<stop  offset="0.8485" style="stop-color:#FCC9A1"/>
		</linearGradient>
		<path class="st26" d="M184.1,82.4c-4.8,0.1-9.4,2.9-11.6,8.1c-1.8,4.3-4,24.2-4.6,26.6c-0.5,2.1-1.4,3.4-3.6,3.6
			c0,0,0.8,0.7,1,0.7c0.5,0.2,1,0.2,1.5,0.3c1,0.1,2-0.1,3-0.4c3.3-1.2,2.1-4.1,2-7.2c-0.1-2.3-1.2-18.7,5-25.9
			C178.7,86,181.4,83.4,184.1,82.4z"/>
		
			<linearGradient id="SVGID_24_" gradientUnits="userSpaceOnUse" x1="44.8299" y1="-52.8653" x2="73.1124" y2="-52.8653" gradientTransform="matrix(0.899 0.4381 -0.4381 0.899 125.3752 101.8751)">
			<stop  offset="0" style="stop-color:#FCC9A1"/>
			<stop  offset="0.1608" style="stop-color:#D6A67C"/>
			<stop  offset="0.4716" style="stop-color:#936939"/>
			<stop  offset="0.697" style="stop-color:#694210"/>
			<stop  offset="0.8121" style="stop-color:#593300"/>
		</linearGradient>
		<path class="st27" d="M194.1,77c9.6-3.6,10.6-4.8,14.1-4.3c3.3,0.6,7.7,3.7,9.5,6.5c-7.6-4.2-9.7-4.1-27,2.9
			c-3.7,1.5-7.7,2.2-5.2-1C186.8,79.5,188.4,79.2,194.1,77z"/>
		
			<linearGradient id="SVGID_25_" gradientUnits="userSpaceOnUse" x1="105.4243" y1="-35.3435" x2="70.7433" y2="-95.4126" gradientTransform="matrix(0.9872 0.1597 -0.1597 0.9872 48.1128 103.8581)">
			<stop  offset="2.424240e-02" style="stop-color:#B3874A"/>
			<stop  offset="7.428102e-02" style="stop-color:#946C3A"/>
			<stop  offset="0.139" style="stop-color:#734F29"/>
			<stop  offset="0.2057" style="stop-color:#59391C"/>
			<stop  offset="0.2741" style="stop-color:#472912"/>
			<stop  offset="0.3454" style="stop-color:#3C1F0D"/>
			<stop  offset="0.4242" style="stop-color:#381C0B"/>
			<stop  offset="0.561" style="stop-color:#30180A"/>
			<stop  offset="0.7681" style="stop-color:#1C0E05"/>
			<stop  offset="0.9758" style="stop-color:#000000"/>
		</linearGradient>
		<path class="st28" d="M166.5,8.7c-4.5,0.7-8.9,3.6-12.1,6.1c-5.7,4.3-11,8.9-15.7,14.3c-7.3,8.4-14.5,17.9-19.3,28
			c-9.6,20-5.8,33.8,6.3,41c-7.5-6.5-15.3-17.7-3.8-41.1c9-18.3,32.5-42.2,49.3-41.3c-0.2-2.3,0.1-4.7-0.1-6.9
			C169.6,8.4,168,8.4,166.5,8.7z"/>
		
			<linearGradient id="SVGID_26_" gradientUnits="userSpaceOnUse" x1="34.5106" y1="-21.6663" x2="105.4464" y2="-21.6663" gradientTransform="matrix(0.9872 0.1597 -0.1597 0.9872 48.1128 103.8581)">
			<stop  offset="0" style="stop-color:#381C0B"/>
			<stop  offset="0.1728" style="stop-color:#30180A"/>
			<stop  offset="0.4346" style="stop-color:#1C0E05"/>
			<stop  offset="0.697" style="stop-color:#000000"/>
		</linearGradient>
		<path class="st29" d="M166.2,7.6c-2.6-0.7-5.9-0.7-7.6-0.8C144,6,124.4,20.3,114.4,31.1C77.6,70.9,84.3,108,87.3,123.4
			c1.1,5.5,5.1,22.3,5.6,25.4c1.3,8-1.3,16.3-10.3,12.3c3.1,3,10,3.8,12.8,0.6c3.1-3.6,1.4-10.3-0.6-14.1c2.2,4.1,5.1,7.6,6.8,12
			c1.9,4.9,3.3,12.6,0.1,17.1c-2.4,3.4-8.8,7.2-12.3,2.8c-1.8-2.3-0.7-5.3,2.4-5.1c-3.5-0.8-6.8,1.3-5.3,5c1.7,4,8.9,4.1,12.5,2.9
			c4.3-1.4,6.8-5.2,8.4-9.2c3.9-10.1-0.9-21.9-2.9-32c1.2,6.1,5.7,11,7.6,16.9c2.1,6.3,0.9,12.7-3,18.1c4.4-1.3,8.5-8.3,9.7-13
			c2.9-11.6-2.8-25.5-5-36.6c-1.4-7.1-12.8-59.1,20.5-91c6.4-6.1,13.2-13,21.2-16.4c3.8-1.7,9.3-2.2,12.7-4.5c1.5-1,2.1-2.6,1.3-4.4
			C168.9,8.7,167.7,8,166.2,7.6z"/>
		
			<linearGradient id="SVGID_27_" gradientUnits="userSpaceOnUse" x1="-1313.3348" y1="353.3521" x2="-1280.0449" y2="353.3521" gradientTransform="matrix(-0.9912 0.1325 0.1325 0.9912 -1190.1637 -110.2048)">
			<stop  offset="0" style="stop-color:#FCC9A1"/>
			<stop  offset="0.2585" style="stop-color:#BE9064"/>
			<stop  offset="0.5165" style="stop-color:#885E2E"/>
			<stop  offset="0.7082" style="stop-color:#663F0D"/>
			<stop  offset="0.8121" style="stop-color:#593300"/>
		</linearGradient>
		<path class="st30" d="M153.3,68.4c-9.3-8-12.2-10.6-18.4-10.4c-2.4,0.1-8.3,1.8-10.6,3.6c11-6,26.4,8.8,29.3,11.8
			c3.7,3.9,7.4,5.6,5.9,1.4C158.7,72.6,157.3,71.8,153.3,68.4z"/>
		
			<linearGradient id="SVGID_28_" gradientUnits="userSpaceOnUse" x1="350.8689" y1="-4.9533" x2="95.0993" y2="-59.5353" gradientTransform="matrix(0.9997 -2.190000e-02 2.140000e-02 0.984 28.6705 140.4515)">
			<stop  offset="0.3064" style="stop-color:#FFE6AD"/>
			<stop  offset="0.4074" style="stop-color:#BDA174"/>
			<stop  offset="0.4994" style="stop-color:#886A47"/>
			<stop  offset="0.5782" style="stop-color:#624226"/>
			<stop  offset="0.6406" style="stop-color:#4B2A12"/>
			<stop  offset="0.6788" style="stop-color:#42210B"/>
			<stop  offset="0.6913" style="stop-color:#3A1D0A"/>
			<stop  offset="0.7631" style="stop-color:#100803"/>
			<stop  offset="0.8" style="stop-color:#000000"/>
		</linearGradient>
		<path class="st31" d="M206.3,69.4c-26.6-15-25.7-24.6-28.6-32.1c8.2,20.8,31.7,33,35.7,36.8c10.8,10.4,13.6,22.7,13.6,35.4
			c0,55.6-39.7,66.2-46.2,66.9c45-6.9,56.7-50.4,56.9-51.4c-5.1,25.9-26.6,53.4-35.8,58.4c14.4-8.2,46.4-40.1,48.3-74.1
			c0.1,1.4,1.4,15.1-15.6,44.5C253.8,132,267.8,78.9,218,20c-9.1-10.8-28.5-18-42.9-18c-5.7,0-12,2.8-15.2,8.3
			C153.9,20.3,147.8,53,206.3,69.4z"/>
		
			<linearGradient id="SVGID_29_" gradientUnits="userSpaceOnUse" x1="281.5349" y1="85.529" x2="177.9657" y2="63.427" gradientTransform="matrix(0.9988 4.830000e-02 -4.750000e-02 0.9829 -13.7669 77.2592)">
			<stop  offset="0" style="stop-color:#42210B"/>
			<stop  offset="0.2242" style="stop-color:#45240D"/>
			<stop  offset="0.3813" style="stop-color:#4E2C14"/>
			<stop  offset="0.5179" style="stop-color:#5E3B1F"/>
			<stop  offset="0.6427" style="stop-color:#73502E"/>
			<stop  offset="0.7596" style="stop-color:#906B42"/>
			<stop  offset="0.8707" style="stop-color:#B38C5B"/>
			<stop  offset="0.9751" style="stop-color:#DBB378"/>
			<stop  offset="1" style="stop-color:#E6BD80"/>
		</linearGradient>
		<path class="st32" d="M164.5,169.6c37.5,4.7,53.4-25.1,53.9-27C210.4,165.1,187,177.4,164.5,169.6z"/>
		
			<linearGradient id="SVGID_30_" gradientUnits="userSpaceOnUse" x1="140.9324" y1="-123.1166" x2="173.6808" y2="-131.649" gradientTransform="matrix(0.9994 -3.630000e-02 4.290000e-02 1.1834 83.3513 254.4058)">
			<stop  offset="0" style="stop-color:#42210B"/>
			<stop  offset="0.2753" style="stop-color:#46250D"/>
			<stop  offset="0.5613" style="stop-color:#532F14"/>
			<stop  offset="0.8513" style="stop-color:#674020"/>
			<stop  offset="1" style="stop-color:#754C28"/>
		</linearGradient>
		<path class="st33" d="M230.6,148.7c1.1-0.7,2.1-2.3,2.8-3.5c6.2-9,12.2-21.5,14.3-32.9c3.4-18.7,1.2-44.3-12.2-63.6
			C260.3,105.8,232.3,147.7,230.6,148.7z"/>
		
			<linearGradient id="SVGID_31_" gradientUnits="userSpaceOnUse" x1="206.908" y1="-91.545" x2="115.5707" y2="-111.0367" gradientTransform="matrix(0.9997 -2.190000e-02 2.140000e-02 0.984 28.6705 140.4515)">
			<stop  offset="0.2909" style="stop-color:#FFE6AD"/>
			<stop  offset="0.3961" style="stop-color:#BDA174"/>
			<stop  offset="0.492" style="stop-color:#886A47"/>
			<stop  offset="0.574" style="stop-color:#624226"/>
			<stop  offset="0.639" style="stop-color:#4B2A12"/>
			<stop  offset="0.6788" style="stop-color:#42210B"/>
			<stop  offset="0.6913" style="stop-color:#3A1D0A"/>
			<stop  offset="0.7631" style="stop-color:#100803"/>
			<stop  offset="0.8" style="stop-color:#000000"/>
		</linearGradient>
		<path class="st34" d="M183.1,65.9c-17.3-10.7-22.8-20.3-24.5-24.7c-6.5-17.4,2-35.4,8.6-37.4c-15.6,1.6-19.2,23.5-14.7,34.7
			C154.5,43.8,161.8,56.5,183.1,65.9z"/>
		
			<linearGradient id="SVGID_32_" gradientUnits="userSpaceOnUse" x1="121.8335" y1="-82.8028" x2="221.0598" y2="-45.2184" gradientTransform="matrix(0.9997 -2.190000e-02 2.140000e-02 0.984 28.6709 140.4511)">
			<stop  offset="0.1818" style="stop-color:#291400"/>
			<stop  offset="0.2982" style="stop-color:#341E08"/>
			<stop  offset="0.5042" style="stop-color:#52391C"/>
			<stop  offset="0.7737" style="stop-color:#82633D"/>
			<stop  offset="1" style="stop-color:#B08C5C"/>
		</linearGradient>
		<path class="st35" d="M240.9,112.8c10.6-27.2-3.4-96.6-58.1-107.9c-13.5-2.8-22.6,7.7-20,22.1c2.1,11.6,14.3,24.3,24.5,29.8
			c-16.8-18.8-10.7-28-10.6-27.7c3.2,12.1,16.9,25.6,23.5,30.1c48.4,33.5,27.4,78.4,20.6,86.3c31.7-32.7,15.8-79.9-1.9-99.7
			C241.2,68.7,243.9,84.8,240.9,112.8z"/>
		
			<linearGradient id="SVGID_33_" gradientUnits="userSpaceOnUse" x1="142.3254" y1="-97.2481" x2="220.7243" y2="-67.5526" gradientTransform="matrix(0.9997 -2.190000e-02 2.140000e-02 0.984 28.6709 140.4511)">
			<stop  offset="5.780350e-02" style="stop-color:#4D2900"/>
			<stop  offset="0.1807" style="stop-color:#543006"/>
			<stop  offset="0.358" style="stop-color:#664318"/>
			<stop  offset="0.5681" style="stop-color:#846234"/>
			<stop  offset="0.8015" style="stop-color:#AD8D5B"/>
			<stop  offset="1" style="stop-color:#D6B882"/>
		</linearGradient>
		<path class="st36" d="M235.2,104.3c0.6-4.5,5.9-28.7-21.1-63.2c-1-1.3,15.4,6.5,23.3,24.3c-2.2-8.6-10.4-29.4-30.9-47.7
			c-6.7-6-26.8-14.9-28.9,0.4c-1.8,13.4,18.7,30.1,27.3,36.3C228.2,71.3,237.1,89,235.2,104.3z"/>
		
			<linearGradient id="SVGID_34_" gradientUnits="userSpaceOnUse" x1="80.8919" y1="-112.3188" x2="119.7888" y2="16.2861" gradientTransform="matrix(0.9997 -2.190000e-02 2.190000e-02 0.9997 29.9382 141.3617)">
			<stop  offset="1.734100e-02" style="stop-color:#1F0F00"/>
			<stop  offset="0.1676" style="stop-color:#3B1A00"/>
			<stop  offset="0.3127" style="stop-color:#4C290A"/>
			<stop  offset="0.5985" style="stop-color:#775126"/>
			<stop  offset="0.9945" style="stop-color:#BC9051"/>
			<stop  offset="1" style="stop-color:#BD9152"/>
		</linearGradient>
		<path class="st37" d="M146.2,18.8c9.9-8.1,2.9-5.1-4.6-1.8c-65.9,28.4-59.1,88.9-43.8,119.1c0.1,0.1-15.6-39,1-65.8
			c-3,0.6-23.9,53.8,27.6,92.5C103.6,145.4,74.8,77,146.2,18.8z"/>
		
			<linearGradient id="SVGID_35_" gradientUnits="userSpaceOnUse" x1="70.6275" y1="-54.9006" x2="91.8739" y2="15.3465" gradientTransform="matrix(0.9997 -2.190000e-02 2.190000e-02 0.9997 29.9382 141.3617)">
			<stop  offset="1.734100e-02" style="stop-color:#1F0F00"/>
			<stop  offset="0.1676" style="stop-color:#3B1A00"/>
			<stop  offset="0.2327" style="stop-color:#482609"/>
			<stop  offset="0.6001" style="stop-color:#8D6839"/>
			<stop  offset="0.8654" style="stop-color:#B89157"/>
			<stop  offset="1" style="stop-color:#C9A163"/>
		</linearGradient>
		<path class="st38" d="M105.4,82.9c-9.7,49.7,13.3,64,22,70C117.8,145.4,103.5,127.1,105.4,82.9z"/>
		
			<linearGradient id="SVGID_36_" gradientUnits="userSpaceOnUse" x1="84.0558" y1="-40.9912" x2="85.7977" y2="-24.418" gradientTransform="matrix(0.9872 0.1597 -0.1597 0.9872 48.1128 103.8581)">
			<stop  offset="0.4242" style="stop-color:#000000"/>
			<stop  offset="0.4907" style="stop-color:#040200"/>
			<stop  offset="0.563" style="stop-color:#110A00"/>
			<stop  offset="0.638" style="stop-color:#271500"/>
			<stop  offset="0.7149" style="stop-color:#462600"/>
			<stop  offset="0.7924" style="stop-color:#6C3B00"/>
			<stop  offset="0.8545" style="stop-color:#914F00"/>
			<stop  offset="0.8794" style="stop-color:#935205"/>
			<stop  offset="0.9072" style="stop-color:#995B12"/>
			<stop  offset="0.9363" style="stop-color:#A46B28"/>
			<stop  offset="0.9663" style="stop-color:#B28047"/>
			<stop  offset="0.9939" style="stop-color:#C3996B"/>
		</linearGradient>
		<path class="st39" d="M128.8,81.1c2.1-0.4,4.1-1.1,6.2-1.3c3.5-0.4,6.1,0.1,9.4,2.2c1.9,1.2,6,5.3,10,12.4
			c-1-2.3-2.7-9.2-7.4-13.5c-4.2-3.8-10.7-5.1-16-3.5c-2.1,0.6-8.3,2.6-11.2-0.5C121.1,78,122.3,82.6,128.8,81.1z"/>
		
			<linearGradient id="SVGID_37_" gradientUnits="userSpaceOnUse" x1="85.5607" y1="-33.7757" x2="86.6919" y2="-23.0134" gradientTransform="matrix(1.0219 0.1653 -0.1597 0.9872 43.159 102.9514)">
			<stop  offset="0" style="stop-color:#000000"/>
			<stop  offset="0.1682" style="stop-color:#4C2A00"/>
			<stop  offset="0.2918" style="stop-color:#7E4500"/>
			<stop  offset="0.3526" style="stop-color:#914F00"/>
			<stop  offset="0.5904" style="stop-color:#AB7638"/>
			<stop  offset="0.8208" style="stop-color:#C3996B"/>
		</linearGradient>
		<path class="st40" d="M126.3,83.6c-0.3-0.2-0.6-0.4-1.1-0.5c-1.5-0.4-3.6,0.7-4.8,1.3c2.1-0.9,3.7-0.8,4.9-0.1
			c2.3,1.2,4.3,9,21.5,10.9c1.4,0.2,3.1-0.1,4.1,0c-7-0.8-12.6-2.1-17.4-5c-1.5-0.9-2.7-2-3.9-3.2C128.5,85.9,127.6,84.6,126.3,83.6
			z"/>
		
			<linearGradient id="SVGID_38_" gradientUnits="userSpaceOnUse" x1="129.3774" y1="-17.8324" x2="148.8953" y2="-33.4768" gradientTransform="matrix(0.9589 0.1551 -0.1597 0.9872 63.2701 106.1382)">
			<stop  offset="0.1792" style="stop-color:#C3996B"/>
			<stop  offset="0.4096" style="stop-color:#AB7638"/>
			<stop  offset="0.6474" style="stop-color:#914F00"/>
			<stop  offset="0.7082" style="stop-color:#7E4500"/>
			<stop  offset="0.8318" style="stop-color:#4C2A00"/>
			<stop  offset="1" style="stop-color:#000000"/>
		</linearGradient>
		<path class="st41" d="M187,102.9c2.4,0.6,9.3,4.8,18.8,0.8c2-0.8,6.1-4.5,8.6-1.8c-1.8-2.6-4.8-1.3-6.8-0.3
			C198.5,106.5,190.3,103.7,187,102.9z"/>
		
			<linearGradient id="SVGID_39_" gradientUnits="userSpaceOnUse" x1="142.2585" y1="-25.102" x2="141.8281" y2="-37.4269" gradientTransform="matrix(0.9679 0.1565 -0.1597 0.9872 58.5577 104.9252)">
			<stop  offset="6.060640e-03" style="stop-color:#C3996B"/>
			<stop  offset="3.371458e-02" style="stop-color:#B28047"/>
			<stop  offset="6.366180e-02" style="stop-color:#A46B28"/>
			<stop  offset="9.283714e-02" style="stop-color:#995B12"/>
			<stop  offset="0.1206" style="stop-color:#935205"/>
			<stop  offset="0.1455" style="stop-color:#914F00"/>
			<stop  offset="0.2076" style="stop-color:#6C3B00"/>
			<stop  offset="0.2851" style="stop-color:#462600"/>
			<stop  offset="0.362" style="stop-color:#271500"/>
			<stop  offset="0.437" style="stop-color:#110A00"/>
			<stop  offset="0.5093" style="stop-color:#040200"/>
			<stop  offset="0.5758" style="stop-color:#000000"/>
		</linearGradient>
		<path class="st42" d="M212,98.3c0.5,0.1,1,0.1,1.7-0.1c1.2-0.3,2.1-1,3.1-1.6c-1.1,0.6-4-0.3-6.6-2.4c-1.7-1.3-3.9-2.7-6-3.5
			c-8.4-2.9-15.9,3-19.4,9.7c1.5-2.2,4.3-4.6,6.6-6c2.6-1.5,5.7-2.4,8.8-2c3.5,0.5,6.3,2.4,9.1,4.3C210.3,97.6,211,98.1,212,98.3z"
			/>
		
			<linearGradient id="SVGID_40_" gradientUnits="userSpaceOnUse" x1="111.908" y1="0.4923" x2="152.5912" y2="0.4923" gradientTransform="matrix(0.9997 -2.190000e-02 2.190000e-02 0.9997 29.9382 141.3617)">
			<stop  offset="6.060610e-02" style="stop-color:#D62900"/>
			<stop  offset="9.070513e-02" style="stop-color:#DB340E"/>
			<stop  offset="0.1784" style="stop-color:#E85130"/>
			<stop  offset="0.2675" style="stop-color:#F2684B"/>
			<stop  offset="0.3578" style="stop-color:#F9785F"/>
			<stop  offset="0.4496" style="stop-color:#FE826A"/>
			<stop  offset="0.5455" style="stop-color:#FF856E"/>
			<stop  offset="0.6075" style="stop-color:#FF8065"/>
			<stop  offset="0.7087" style="stop-color:#FF724D"/>
			<stop  offset="0.8357" style="stop-color:#FF5C25"/>
			<stop  offset="0.9394" style="stop-color:#FF4700"/>
		</linearGradient>
		<path class="st43" d="M181.7,136.4c0.2-0.3,0.5-0.6,0.8-0.8c-0.4,0.2-0.8,0.6-1.3,0.7c-0.8,0.3-1.6,0.9-2.3,1.5
			c-1.1,0.9-2.2,2.1-3.4,3c-2.8,2-6.4,2.8-9.8,2.9c-4.7,0.1-9.3-1.3-13.2-3.8c-2.2-1.4-4.1-3.2-5.8-5.2c-0.9-1.1-1.8-2.3-2.6-3.5
			c-0.8-1.2-1.3-2.9-2.6-3.7c1.1,1,1.3,2.8,1.6,4.1c0.4,1.6,0.8,3.2,1.4,4.7c1,2.6,2.3,5,4.1,7.2c2.7,3.3,6.3,5.8,10.5,6.8
			c0.3,0.1,0.7,0.1,1,0.2c4.8,0.8,9.6-0.3,13.4-3.4c1.7-1.4,3.2-3.1,4.5-4.9C179.5,140.4,180.4,138.3,181.7,136.4z"/>
		
			<linearGradient id="SVGID_41_" gradientUnits="userSpaceOnUse" x1="120.8269" y1="6.2156" x2="140.017" y2="9.5994" gradientTransform="matrix(0.9997 -2.190000e-02 2.190000e-02 0.9997 29.9382 141.3617)">
			<stop  offset="0" style="stop-color:#FF9C00"/>
			<stop  offset="0.1626" style="stop-color:#FF9517"/>
			<stop  offset="0.3448" style="stop-color:#FF9028"/>
			<stop  offset="0.5401" style="stop-color:#FF8D33"/>
			<stop  offset="0.7697" style="stop-color:#FF8C36"/>
		</linearGradient>
		<path class="st44" d="M151.4,142.5c-1.1,1.9,1.8,4.3,3.2,5.3c3.4,2.3,7.3,3.2,11.3,2.5c0.2,0,0.3-0.1,0.5-0.1
			c1.3-0.3,2.6-0.8,3.3-1.9c0.6-1,1.1-2.5,0-3.2c-1-0.7-2.4-0.3-3.6-0.4c-1.2-0.1-2.4-0.2-3.5-0.3c-2.4-0.3-4.7-0.9-6.9-1.9
			C154.2,141.7,152.3,140.7,151.4,142.5z"/>
		<path class="st12" d="M176.9,138.6c0,0,1.6-1.3,0.4-1.1c-2.9-0.6-4.2-0.7-5.9-1.1c-2.3-0.5-10.8-2.6-12.9-2.8
			c-1.8-0.2-3.8-0.6-5.7-1c-1.8-0.4-8-3.5-7.4-2.2C148.6,138.1,167.5,145,176.9,138.6z"/>
		
			<linearGradient id="SVGID_42_" gradientUnits="userSpaceOnUse" x1="111.9481" y1="-5.8572" x2="153.1163" y2="-5.8572" gradientTransform="matrix(0.9997 -2.190000e-02 2.190000e-02 0.9997 29.9382 141.3617)">
			<stop  offset="0.1152" style="stop-color:#D62B00"/>
			<stop  offset="0.1334" style="stop-color:#DA3504"/>
			<stop  offset="0.2063" style="stop-color:#E75814"/>
			<stop  offset="0.2803" style="stop-color:#F27320"/>
			<stop  offset="0.355" style="stop-color:#F98729"/>
			<stop  offset="0.4307" style="stop-color:#FE922E"/>
			<stop  offset="0.5091" style="stop-color:#FF9630"/>
			<stop  offset="0.5863" style="stop-color:#FD922E"/>
			<stop  offset="0.6648" style="stop-color:#F78627"/>
			<stop  offset="0.744" style="stop-color:#ED711B"/>
			<stop  offset="0.8231" style="stop-color:#DF550B"/>
			<stop  offset="0.8667" style="stop-color:#D64200"/>
		</linearGradient>
		<path class="st45" d="M182.9,135.1c-0.6,0.4-3.1,2-4.9,1.9c-3.2-0.3-7-2.5-10.7-2.8c-1-0.1-2.2-0.1-3.2-0.3
			c-1.4-0.3-2.8-0.6-4.2-1.1c-3.4-1.1-7.2-0.6-10.6-1.7c-1.5-0.5-2.9-1.1-4.3-1.8c-0.7-0.4-1.3-0.8-1.9-1.2
			c-0.2-0.2-1.6-1.1-1.6-1.4c0,0.4,2,2.3,2.2,2.5C153.9,140.8,179,141,182.9,135.1z"/>
		<path class="st46" d="M163.5,138.1c1.7,0.3,4-0.5,4-3c0-1.5-2.2-0.8-3.4-1.1c-1.2-0.2-2-1.1-3.3-0.3
			C160.1,134.2,160.5,137.6,163.5,138.1z"/>
		<path class="st12" d="M154.5,143.4c-0.8,0.7-0.6,2.2,0.3,2.9c0.8,0.6,3.4,1.1,3.8-0.3c0.3-1.1-0.5-1.9-1.2-2.4
			c-0.5-0.3-1.4-0.8-2-0.6C155,143.1,154.7,143.3,154.5,143.4z"/>
		<path class="st47" d="M152.8,144.1c0.2-0.2,0.7-1.4,0.6-1.7c-0.3-0.7-1.3-0.3-1.6,0.3C151.5,143.3,152,144.6,152.8,144.1z"/>
		<path class="st48" d="M158,115.6c0.1-0.1,0.2-0.3,0.4-0.4c-0.6,0.5-1.4,3-0.3,4.7C156.1,119.1,157,116.7,158,115.6z"/>
		
			<linearGradient id="SVGID_43_" gradientUnits="userSpaceOnUse" x1="105.0188" y1="-5.5045" x2="123.8738" y2="-5.3922" gradientTransform="matrix(0.9872 0.1597 -0.1597 0.9872 48.1128 103.8581)">
			<stop  offset="0.1515" style="stop-color:#FCC2A1"/>
			<stop  offset="0.5879" style="stop-color:#FFF0E3"/>
		</linearGradient>
		<path class="st49" d="M161.1,113.7c-0.4-0.1-1.8,2.6-0.6,4.2c0,0-1.8,1.8-2.5,1C157.1,117.8,159.6,114.1,161.1,113.7z"/>
		<path class="st12" d="M173.1,121.9c0.5-0.1,0.9-0.3,1.1-0.9c0.5-1.1-0.2-2.5-0.6-3.5c0.6,1.6,0.2,4-1.6,4.6
			C172.3,122,172.7,122,173.1,121.9z"/>
	</g>
	
		<linearGradient id="SVGID_44_" gradientUnits="userSpaceOnUse" x1="71.5683" y1="420.0942" x2="148.3776" y2="420.0942" gradientTransform="matrix(1 -6.100000e-03 6.100000e-03 1 0.7042 -8.9474)">
		<stop  offset="0" style="stop-color:#E6995E"/>
		<stop  offset="0.6243" style="stop-color:#FCC9A1"/>
	</linearGradient>
	<path class="st50" d="M101.2,417.8c-11.3-1.6-15.1-5.6-22-14.4c-10.5-13.6-1.3-15.3,15-11.5c8.5,2,17.9-0.6,25.6-5.2
		c-1.1,3.1-1.6,4.9-2.8,8.1c7.5-1,14-3,19.2-2.2c4.8,0.7,6.9,3.3,15.4,11.8c-8.9,0.1-8.8-4.3-13.2-6.7c-2.7-1.4-7.2,0.5-13.1,2.2
		c5.5,3.7,14.2,8.4,17.5,14.6c3.5,6.6,5.8,13.5,7.6,19.4c-3.2-1.6-5-5.1-6.4-8.2c-1-2.1-2.6-5.9-3.8-8.1c-1.1-2-12.5-9.6-15.6-10.8
		c3.7,2.9,13.3,7.9,15.6,12.2c1.2,2.2,6,10.7,7.9,14.6c-7.2-1.3-8.9-6.2-12.1-11.9c-1.3-2.3-4.2-3.8-6.4-5c-1.4-0.8-2.9-1.5-4.4-2.1
		c-0.9-0.4-5-2-5.6-1.5c1,0.3,1.9,0.7,2.9,1c0.7,0.2,5.3,2.1,6.7,3c2.9,1.8,5.7,4,7.2,7.1c1,2.1,4.6,7.2,5.7,7.7
		c-6.4-1.4-8.3-4.3-9.9-6.7c-1.5-2.4-4.2-3-6.8-3.6C119.4,420,107.3,418.7,101.2,417.8z"/>
	
		<linearGradient id="SVGID_45_" gradientUnits="userSpaceOnUse" x1="17.3102" y1="317.4982" x2="40.3339" y2="317.4982" gradientTransform="matrix(1 -6.100000e-03 6.100000e-03 1 0.7042 -8.9474)">
		<stop  offset="4.624310e-02" style="stop-color:#1A1A1A"/>
		<stop  offset="0.2452" style="stop-color:#272727"/>
		<stop  offset="0.526" style="stop-color:#404041"/>
	</linearGradient>
	<path class="st51" d="M37.3,300.7c-1.5-1-3-1.7-4.2-1.9c-4.8-1-9.2,0.8-11.8,5c-3.5,5.8,0.2,10.1,5,13.3c5.3,3.5,8.7-1.5,12.3-4.9
		c1.5-1.4,4.8-2.7,4.3-5C42.4,304.9,39.9,302.4,37.3,300.7z"/>
	
		<linearGradient id="SVGID_46_" gradientUnits="userSpaceOnUse" x1="-2.7019" y1="319.2203" x2="121.3323" y2="319.2203" gradientTransform="matrix(1 -6.100000e-03 6.100000e-03 1 0.7042 -8.9474)">
		<stop  offset="5.454510e-02" style="stop-color:#000000"/>
		<stop  offset="0.3662" style="stop-color:#0B0B0B"/>
		<stop  offset="0.6705" style="stop-color:#1A1A1A"/>
	</linearGradient>
	<path class="st52" d="M71.3,193.2c-12,5.9-11,19.5-19.2,38.5c-10,22.9-27.2,50.4-39.2,64.9c-9.8,11.8-15.6,18.6-11.7,27.4
		c7.1,16.5,70,128.9,93.2,100.1c-13.2,7-19.9-5.8-18.5-15.2c1-7.2,4.9-14,11.9-16.9c2-0.8,9.1-3.1,12,0.7c0-3.3-2.9-6-5.5-7.6
		c-3.7-2.2-4.9-3.8-7.5-7c-2.7-3.3-5.5-6.7-8.3-10c-5.6-6.8-11.3-13.5-16.9-20.3c-3.8-4.6-7.6-9.1-11.4-13.7
		c-0.2-0.3-0.4-0.5-0.6-0.8c-7.8-9.6-21-25.4-31.4-25.3c8.3,0,17.1,7.6,17.1,7.6c3.8,0,65.2-66.5,83.1-78.1
		c2.2-1.4,7.5-48.3,3.9-46.7c-7,3-11.1,2.9-20.2,4C94.5,195.6,78.8,189.5,71.3,193.2z"/>
	
		<linearGradient id="SVGID_47_" gradientUnits="userSpaceOnUse" x1="10.4248" y1="361.5742" x2="91.6614" y2="361.5742" gradientTransform="matrix(1 -6.100000e-03 6.100000e-03 1 0.7042 -8.9474)">
		<stop  offset="1.156070e-02" style="stop-color:#000000"/>
		<stop  offset="0.3526" style="stop-color:#1A1A1A"/>
		<stop  offset="0.5502" style="stop-color:#1D1D1D"/>
		<stop  offset="0.6886" style="stop-color:#262626"/>
		<stop  offset="0.8089" style="stop-color:#353535"/>
		<stop  offset="0.9182" style="stop-color:#4B4B4B"/>
		<stop  offset="1" style="stop-color:#616161"/>
	</linearGradient>
	<path class="st53" d="M32.1,318.7c-7.3-6.8-14.6-10.3-18.5-2.8c-3.7,7,16,39.6,21.5,48.7c9.6,15.7,26.1,34.1,46.2,26.9
		c1.8-0.6,10.8-4.9,13.4-3.3c-1.5-1.9-4.4-2.9-6.5-4.2C81.5,379.5,41.5,327.3,32.1,318.7z"/>
	
		<linearGradient id="SVGID_48_" gradientUnits="userSpaceOnUse" x1="47.5883" y1="292.344" x2="55.3212" y2="300.9323" gradientTransform="matrix(1 -6.100000e-03 6.100000e-03 1 0.7042 -8.9474)">
		<stop  offset="0.3873" style="stop-color:#1A1A1A"/>
		<stop  offset="0.6131" style="stop-color:#1D1D1D"/>
		<stop  offset="0.7809" style="stop-color:#262626"/>
		<stop  offset="0.9295" style="stop-color:#363636"/>
		<stop  offset="1" style="stop-color:#404041"/>
	</linearGradient>
	<path class="st54" d="M34.5,312.3c0.2,0,0.4,0,0.6,0c1.4-0.4,44.9-43.4,46-46.9c0.1-0.4,0.7-1-0.2-0.6
		c-20.5,11.9-41.1,24.7-56.2,43C26.4,305.8,31.9,311.9,34.5,312.3z"/>
	
		<linearGradient id="SVGID_49_" gradientUnits="userSpaceOnUse" x1="127.7806" y1="253.2235" x2="190.4494" y2="229.1672" gradientTransform="matrix(1 -6.100000e-03 6.100000e-03 1 0.7042 -8.9474)">
		<stop  offset="0.7803" style="stop-color:#597D9E"/>
		<stop  offset="0.8147" style="stop-color:#698DAA"/>
		<stop  offset="0.8902" style="stop-color:#88ABC1"/>
		<stop  offset="0.9546" style="stop-color:#9ABDCF"/>
		<stop  offset="1" style="stop-color:#A1C4D4"/>
	</linearGradient>
	<path class="st55" d="M190.7,232.4c2.8,16.3,0.1,39.3-11.2,52.3c-19.4,22.4-45.6-30.8-50.1-42.7c-2.7-7.1-5.5-14.1-8.2-21.2
		c-2.5-6.6-5-13-5-20.2c0-2.5,0.4-5,1.2-7.4c1.2-3.4,3.2-6.6,5.8-8.9c0.9-0.8,2.9-2.9,4.2-2.2c1,0.5,2.2,2.8,2.9,3.8
		c2.4,3.3,4.7,6.7,7,10.1c4.2,6.4,8.1,12.2,12.4,19.6c3.5,6,19,32.1,22.3,37c1.4-4.2,2.1-8.7,2.8-13c1.2-7.6,2-15.3,2.2-23
		c0.1-4.3,0.1-8.6-0.2-12.8c-0.2-3.4-1-6.6-3.6-9.1c-1.3-1.3-3.8-2.9-5.1-6.2c-2-4.9-0.7-10.7-0.7-10.7c1.8,2.3,9.8,9.1,11.7,11.9
		c2,3,4.3,6.2,5.7,9.6c1.4,3.4,2.3,7,3,10.6C189.2,217.4,189.5,225,190.7,232.4z"/>
	<path class="st56" d="M191.7,235.3c2.8,16.3,0.1,39.3-11.2,52.3c-19.4,22.4-45.5-30.8-50.1-42.7c-5.9-15.4-12.6-31.1-16.4-47.3
		c-1.8-7.6,7.4-10,12.3-14.8c4,3.2,21.8,32.1,24.3,35.8c3.7,5.3,18.6,30.9,21.9,35.9c2.7-8.1,5.5-29.2,7.4-39.7
		c1.5-8.8,1.3-10.2-0.3-19.1c2.6,1.9,4.9,3.5,6.2,6.6c1.4,3.4,2.3,7,3,10.6C190.2,220.2,190.4,227.8,191.7,235.3z"/>
	
		<linearGradient id="SVGID_50_" gradientUnits="userSpaceOnUse" x1="176.8094" y1="399.395" x2="243.9048" y2="399.395" gradientTransform="matrix(1 -6.100000e-03 6.100000e-03 1 0.7042 -8.9474)">
		<stop  offset="0.1156" style="stop-color:#1A1A1A"/>
		<stop  offset="0.3797" style="stop-color:#1C1C1C"/>
		<stop  offset="0.5295" style="stop-color:#252525"/>
		<stop  offset="0.6506" style="stop-color:#323232"/>
		<stop  offset="0.7565" style="stop-color:#464646"/>
		<stop  offset="0.8524" style="stop-color:#606060"/>
		<stop  offset="0.9398" style="stop-color:#7F7F7F"/>
		<stop  offset="1" style="stop-color:#999999"/>
	</linearGradient>
	<path class="st57" d="M241.3,416.7c-7.8-27-29.4-48-35.7-75.4c-2.1-8.9,0.3-18.3,1.8-27.3c0.8-4.8,2.4-9.5,4.2-14.2
		c-9.8,5.5-21.8,6.3-32.1-1.5c0.1,0.3,0.1,0.5,0.2,0.8c0.9,4.1,0.9,8.6,0.7,12.7c-1,20.8,9.2,39.2,10.3,59.6
		c0.4,7.6,12.9,31.3,16,38.5c11.7,27,14.3,66.3,14.2,69.8c4.1,0.6,24.9-0.3,25.8,0.3c0.3-2,0.9-12.1,0.9-14.8
		C247.8,449.1,245.8,432.3,241.3,416.7z"/>
	
		<linearGradient id="SVGID_51_" gradientUnits="userSpaceOnUse" x1="175.564" y1="318.5998" x2="217.1998" y2="318.5998" gradientTransform="matrix(1 -6.100000e-03 6.100000e-03 1 0.7042 -8.9474)">
		<stop  offset="0" style="stop-color:#000000"/>
		<stop  offset="0.2251" style="stop-color:#080808"/>
		<stop  offset="0.5724" style="stop-color:#1D1D1E"/>
		<stop  offset="0.9966" style="stop-color:#404041"/>
		<stop  offset="1" style="stop-color:#404041"/>
	</linearGradient>
	<path class="st58" d="M184.4,336.9c2.7,15.2,2.6,36.4,12.2,49.3c-3.8-12-6.9-43.9-7.7-56.4c-1-14.8,5.4-12.6,12.2-26.1
		c2.7-5.4,9.1-5.8,12.6-10.3c6.1-7.7,7.4-23.5,4.2-32.4c-2-5.7-5.6-11.1-9-16.1c-19.6-28.9-16.9-6.5-19.7,2.2
		c-2.1,6.5-2.3,13.3-4.2,19.8c-2.1,6.9-4,14.1-5.8,21.1c-2.8,10.9,0.7,18,3,28.5C183.6,323.3,183.2,330.2,184.4,336.9z"/>
	
		<linearGradient id="SVGID_52_" gradientUnits="userSpaceOnUse" x1="82.0402" y1="300.0523" x2="38.4561" y2="254.9196" gradientTransform="matrix(-1 6.100000e-03 6.100000e-03 1 184.6474 -11.1161)">
		<stop  offset="0.1455" style="stop-color:#4D4D4D"/>
		<stop  offset="0.2465" style="stop-color:#3F3F3F"/>
		<stop  offset="0.4727" style="stop-color:#242424"/>
		<stop  offset="0.6061" style="stop-color:#1A1A1A"/>
	</linearGradient>
	<path class="st59" d="M94.9,249.9c-3.1-11.3-4.8-23.2,1.6-30.8c2.3-2.7,6.8-5.4,10.3-6.7c6.8-2.5,10.1,6.7,12.4,11.2
		c5,9.6,11.3,17.9,17.2,27.1c5.1,8.1,13.4,15.6,20.5,22c4.8,4.4,9.3,9.1,13.7,13.8c4.2,4.5,6.4,8.3,1.2,9.6
		c-7.3,1.8-16.9,0.9-26.8,0.7C125.3,296.5,104.5,285.1,94.9,249.9z"/>
	<path d="M175.9,296.4c0.7-0.1,0.7,2.9,0.8,1.7c0.2-3.4,11.7-18.6,14.8-23c3.2-4.6,7.2-8.6,9.7-13.7c1.3-2.7-2.6-6.9-4-9
		c-1.7-2.7-3.5-5.3-5.4-7.9c3.6-0.9,9.6,0.9,13.1,0c-0.1-0.3-6.6-31.1-7.4-35.9c-0.5-3.4-1.8-5-4.5-7c-0.8-0.6-6.6-3-6.6-3.2
		c1.2,5.2,0.5,9.3,0.7,14.5c1.1,27-6,52.9-13,78.7C173.3,294.7,174.1,296.6,175.9,296.4z"/>
	
		<linearGradient id="SVGID_53_" gradientUnits="userSpaceOnUse" x1="171.8796" y1="255.8083" x2="202.6167" y2="255.8083" gradientTransform="matrix(1 -6.100000e-03 6.100000e-03 1 0.7042 -8.9474)">
		<stop  offset="5.454510e-02" style="stop-color:#000000"/>
		<stop  offset="0.3192" style="stop-color:#030303"/>
		<stop  offset="0.5387" style="stop-color:#0D0D0E"/>
		<stop  offset="0.7421" style="stop-color:#1E1E1F"/>
		<stop  offset="0.9347" style="stop-color:#363637"/>
		<stop  offset="1" style="stop-color:#404041"/>
	</linearGradient>
	<path class="st60" d="M194.9,206.2c-0.5-3.4-1.8-5-4.5-7c-0.8-0.6-6.6-3-6.6-3.2c1.2,5.2,3.6,24.1,3.4,30.2
		c-0.4,12.5-0.9,25.1-3.4,37.4c-1.4,6.9-3.3,13.6-6,20.2c-1,2.4-3.8,6.2-3.4,8.7c0.2,1.2,1.8,3.5,3.1,2.8c0.5-0.2,1.4-3.2,1.7-3.7
		c0.9-1.7,1.8-3.3,2.7-4.9c3-5.1,6.4-9.9,10.2-14.5c1.6-1.8,11.1-10,9.2-13c-2.3-3.5-10-14.3-12.2-17.2c3.6-0.9,12.2,3.4,15.7,2.5
		C204.8,244.3,195.7,211,194.9,206.2z"/>
	<path class="st61" d="M188.5,198.2c-1-3.3-5.2-4.7-7.5-7.1c-4.3-4.6-10.6-11.8-10.2-10c3.4,3.8,7.5,6.2,8.8,20
		c0.9,9.7,0.7,19-0.8,29.2c4.3-5.3,5.2-7,7-6.4c6.5,2.3,9.8,13.5,13.9,18.7C197.5,231.8,192.2,211,188.5,198.2z"/>
	<path class="st12" d="M189.2,200.8c-1.4-4.2-6.1-7.4-9-10.6c-3.2-3.4-7.3-9.1-12.8-12.5c-0.1,1.2-0.4,2.7-0.4,2.7
		c4.6,2.7,8.7,7.5,9.9,9.8c6.9,13.6,4.1,28.6,1.9,43.3c2.6-5.3,5.8-9.6,7.5-8.7c6.3,3,9.8,14.7,13.9,20
		C198.2,233.9,193.3,212.7,189.2,200.8z"/>
	<path class="st62" d="M109.7,242.3c-0.3-17.5-10.2-44.6-2.8-48.1c3.5-1.6,6.9-2.5,9.6-5.1c0.6,5.6,2.1,9.6,4.2,14.6
		c2.5,5.9,4.3,12.2,7.8,17.6c12.3,18.9,20.9,39.6,34.5,57.9c7.7,10.3,17.9,18.9,16.5,32.8c0.9-8.7-8.6-18.8-14.4-23.8
		c-7.1-6-37.7-28-42.9-28.9c0.7-3.9,3.2-21.2,4-21.3C121.8,240.3,110.1,242.3,109.7,242.3z"/>
	<path class="st3" d="M111,240.8c-4.6-24.5-9.4-46-5.6-47.6c3.5-1.6,9.3-5.3,12-7.9c0.6,5.6,1.6,11.4,3.6,16.3
		c2.5,5.9,5.8,11.8,9.3,17.2c12.3,18.9,20.2,24,33.3,42.8c12.3,17.6,15.4,24.6,16.9,34.6c0.6,4.1,0.8,18.7-0.8,22.7
		c-0.8-3.6,0-13.4-1.1-15.8c-7.8-16.4-48.8-43.5-54.7-44.8c0.9-1.3,1.6-20,2.3-20.2C121.8,238.6,111.4,240.8,111,240.8z"/>
	<path class="st63" d="M116.2,188.7c-0.7-2.4,1.9-3.6,3.8-5.3c2.3-1.9,4.6-3.8,7-5.5c1.3-0.9,2.6-1.7,4-2.5c1.1-0.6,2.3-1.2,3.5-1.4
		c1.6-0.3,2.5,0.4,3.9,0.8c0.5,0.2-3.6,9.8-5.9,11.5c0.5,2,1.6,3.2,2.5,5.1c0.6,1.3,1.3,2.6,2,3.9c1.5,2.8,3.1,5.6,4.6,8.4
		c3.3,5.8,6.6,11.5,10,17.2c3.6,6,7.8,11.9,11,18.1c-1.1-2-12.5-11.7-14.9-14c-2.3-2.2-5.4-4.9-8.8-4.7c-3.7,0.2-4.7,2.8-6,5.7
		c-3.1,6.6-2.3,13.5-4.1,20.4C128.1,228.8,122.1,209.8,116.2,188.7z"/>
	
		<linearGradient id="SVGID_54_" gradientUnits="userSpaceOnUse" x1="108.0952" y1="206.3968" x2="168.5287" y2="237.1892" gradientTransform="matrix(1 -6.100000e-03 6.100000e-03 1 0.7042 -8.9474)">
		<stop  offset="0" style="stop-color:#D4E6EB"/>
		<stop  offset="0.1908" style="stop-color:#FFFFFF"/>
	</linearGradient>
	<path class="st64" d="M115.2,187c0-2.5,4.5-3.3,6.4-4.9c2.3-1.9,4-5.5,7-8.1c3.2-2.8,6.7-3.3,10.8-2.4c-0.1,0.8-0.9,3.2-1.1,4.3
		c-1.7-0.7-4,0.5-4.6,1.1c-2.5,2.6-2.2,6.3-1.2,9c2.5,6.8,30.6,52.9,31.5,54.7c-1.1-2-12.8-13.8-15.2-16.1c-2.3-2.2-5.4-4.9-8.8-4.7
		c-3.7,0.2-4.7,2.8-6,5.7c-3.1,6.6-3.3,13.7-5,20.6C125.1,231.2,115.2,206.8,115.2,187z"/>
	
		<linearGradient id="SVGID_55_" gradientUnits="userSpaceOnUse" x1="181.4318" y1="272.0332" x2="207.0882" y2="272.0332" gradientTransform="matrix(1 -6.100000e-03 6.100000e-03 1 0.7042 -8.9474)">
		<stop  offset="0.3295" style="stop-color:#1A1A1A"/>
		<stop  offset="0.6338" style="stop-color:#0B0B0B"/>
		<stop  offset="0.9455" style="stop-color:#000000"/>
	</linearGradient>
	<path class="st65" d="M188.9,260.2c-1.8,2.1-3.6,4.6-4.7,7.1c-1.7,3.9,1.9,5.6,5.2,5.8c3.5,0.2,7.3-0.8,10.5-2.1
		c3.2-1.3,5.7-5.4,7.4-8.3c1.4-2.4,2.2-5.3,2-8c-0.2-3.7-2.5-4.3-5.8-3.8C197.5,251.7,192.9,255.7,188.9,260.2z"/>
	
		<linearGradient id="SVGID_56_" gradientUnits="userSpaceOnUse" x1="149.113" y1="255.2681" x2="206.052" y2="248.2769" gradientTransform="matrix(1 -6.100000e-03 6.100000e-03 1 0.7042 -8.9474)">
		<stop  offset="0.9075" style="stop-color:#CC8747"/>
		<stop  offset="1" style="stop-color:#F4C491"/>
	</linearGradient>
	<path class="st66" d="M191.6,253.4C191.6,253.4,191.6,253.4,191.6,253.4c3,3.2,3.3,8.5,4,12.6c0.8,5.2,0.2,17.5,5.4,20.8
		c15.4,10,12.9-20.4,8.1-28.7c-6.9-11.8-11.3-27.8-15.6-41c-3.1-9.7-5-15.6-15.3-19.6c-3.1-1.2-5.3-5.4-8.8-5
		c-3.5,0.4-5.8,2.6-7.7,5.2c-1.1,1.5-3.3,2.9-4.3,5.2c-0.9,2-2.4,3-3.3,5c-0.3,0.8-1.2,4,0.9,3.2c1.6-0.6,3.6-2.3,5.4-2
		c2,0.4,5.1,1.6,6.8,2.5c-5.9-1.6-8.3-2.3-11.6-0.2c-2.9,1.8-2.6,3.7-7.7,8.1c3.9,2.4,5.4-0.1,7.4-1.7c6.5-5.2,12.2,3.1,12.9,4
		c2.9,4,5.3,9.7,7.1,13.6c1.9,4.1,3.8,8.3,6.8,11.8C184.7,250.1,189,250.7,191.6,253.4z"/>
	
		<linearGradient id="SVGID_57_" gradientUnits="userSpaceOnUse" x1="150.0145" y1="255.1968" x2="206.9549" y2="248.2054" gradientTransform="matrix(1 -6.100000e-03 6.100000e-03 1 0.7042 -8.9474)">
		<stop  offset="0" style="stop-color:#E6995E"/>
		<stop  offset="0.6243" style="stop-color:#FCC9A1"/>
	</linearGradient>
	<path class="st67" d="M192.5,253.4C192.5,253.4,192.5,253.4,192.5,253.4c3,3.2,3.3,8.5,4,12.6c0.8,5.2,0.2,17.5,5.4,20.8
		c15.4,10,12.9-20.4,8.1-28.7c-6.9-11.8-11.3-27.8-15.6-41c-3.1-9.7-5.3-14.5-15.3-20.3c-9.8-5.7-10.4-6.2-16.7,0.6
		c4.4-1.3,8.1,0.5,13.4,2.6c-2.7-1.1-6-1.9-8.8-2.4c-1.5-0.3-3.4-0.4-4.8,0.4c-2.9,1.6-5.3,6.9-5.6,7.1c1-1.2,2-1.9,3.5-2.3
		c1.3-0.4,2.9-0.6,4.2-0.3c2.9,0.8,4.7,1.3,7.8,3.4c-4.1-2.2-7.7-3.5-10.9-2.9c-2.7,0.6-5.2,2.6-6.6,5.4c-0.6,1.2-1.1,2.7,0.7,2
		c1.6-0.6,4-2.4,5.7-2.1c2,0.4,5.3,2.2,7.1,3.2c-5.9-1.6-8.3-2.3-11.6-0.2c-2.9,1.8-2.6,3.7-7.7,8.1c3.9,2.4,5.4-0.1,7.4-1.7
		c6.5-5.2,12.1,3.1,12.9,4c3.3,3.9,5.3,9.7,7.1,13.6c1.9,4.1,3.8,8.3,6.8,11.8C185.6,250.1,189.9,250.7,192.5,253.4z"/>
	
		<linearGradient id="SVGID_58_" gradientUnits="userSpaceOnUse" x1="182.7473" y1="321.4211" x2="231.4327" y2="315.7469" gradientTransform="matrix(1 -6.100000e-03 6.100000e-03 1 0.7042 -8.9474)">
		<stop  offset="9.090910e-02" style="stop-color:#000000"/>
		<stop  offset="0.2157" style="stop-color:#0C0C0C"/>
		<stop  offset="0.3931" style="stop-color:#1A1A1A"/>
	</linearGradient>
	<path class="st68" d="M235.1,320.1c4.9,14.1,1.3,41.1-11.9,44.6c-6.2,1.6-20.2-13.4-23.9-20.2c-2.2-4.2-2.9-9.3-3.3-14
		c-2.5-29.7-14.6-54.2-15.1-55.5c-0.8-1.9,2.7-7.2,3.6-8.8c1.2-2.1,2.8-3.9,4.4-5.6c-1.4,1.5-2.6,3.3-3.6,5c-0.5,0.8-2,3.4-1.2,4.3
		c1,1.1,4.9-1.1,6.1-1.5c2.7-1.1,5.4-2.4,7.9-3.9c2.5-1.6,4.9-3.5,6.7-5.8c1-1.3,4.4-5.8,2.7-7.4c-0.4-0.4-1.1-0.4-1.6-0.5
		c1.9,0.3,2.5,0,3.1,2.1c0.6,2.2,1.2,4.3,1.8,6.5c1.2,4,2.4,7.9,3.8,11.8c2.4,6.8,5.2,13.5,8.1,20
		C227.1,300.8,231.7,310.2,235.1,320.1z"/>
	
		<linearGradient id="SVGID_59_" gradientUnits="userSpaceOnUse" x1="202.3725" y1="314.8071" x2="225.4152" y2="309.0619" gradientTransform="matrix(1 -6.100000e-03 6.100000e-03 1 0.7042 -8.9474)">
		<stop  offset="0" style="stop-color:#1A1A1A"/>
		<stop  offset="0.1649" style="stop-color:#1E1E1E"/>
		<stop  offset="0.3316" style="stop-color:#2A2A2A"/>
		<stop  offset="0.4991" style="stop-color:#3E3E3E"/>
		<stop  offset="0.6672" style="stop-color:#5B5B5B"/>
		<stop  offset="0.8342" style="stop-color:#7F7F7F"/>
		<stop  offset="0.9364" style="stop-color:#999999"/>
	</linearGradient>
	<path class="st69" d="M234.9,326.9c1.9,11.3-1.3,21.4-6.2,24.8c-5.5,3.9-16.3-9.1-22.1-43.7c0-0.1,0-0.2,0-0.3
		c-0.8-4.7-1.4-9.4-1.8-14.1c-0.5-5.8-1.2-11.5-1.8-17.3c-0.6-5.5-0.6-11.5,2.6-16.3c1.1-1.6,2.2-3.3,2.8-5.2c0.5-1.6,0-4.5-2.4-4
		c2.5-0.5,3,2.5,3.5,4.1c3.1,9.7,5.9,19,10,28.2C225.5,297.2,232.3,311.8,234.9,326.9z"/>
</g>
</svg>
