<svg xmlns="http://www.w3.org/2000/svg" width="28" height="28" viewBox="0 0 28 28">
  <metadata><?xpacket begin="﻿" id="W5M0MpCehiHzreSzNTczkc9d"?>
<x:xmpmeta xmlns:x="adobe:ns:meta/" x:xmptk="Adobe XMP Core 5.6-c142 79.160924, 2017/07/13-01:06:39        ">
   <rdf:RDF xmlns:rdf="http://www.w3.org/1999/02/22-rdf-syntax-ns#">
      <rdf:Description rdf:about=""/>
   </rdf:RDF>
</x:xmpmeta>
                                                                                                    
                                                                                                    
                                                                                                    
                                                                                                    
                                                                                                    
                                                                                                    
                                                                                                    
                                                                                                    
                                                                                                    
                                                                                                    
                                                                                                    
                                                                                                    
                                                                                                    
                                                                                                    
                                                                                                    
                                                                                                    
                                                                                                    
                                                                                                    
                                                                                                    
                                                                                                    
                           
<?xpacket end="w"?></metadata>
<defs>
    <style>
      .cls-1 {
        fill: #9f9f9f;
        fill-rule: evenodd;
      }
    </style>
  </defs>
  <path id="kinder04-count_to_3" data-name="kinder04-count to 3" class="cls-1" d="M404.921,743c0.086,0.027.17,0.056,0.256,0.081a2.169,2.169,0,0,1,1.6,2.076q0.01,4.618,0,9.237a2.16,2.16,0,0,1-2.158,2.161q-4.62.015-9.239,0a2.165,2.165,0,0,1-2.159-2.162q-0.014-4.605,0-9.209a2.177,2.177,0,0,1,1.707-2.132,1.335,1.335,0,0,0,.15-0.053h9.844Zm-9.953,6.752v4.455a0.491,0.491,0,0,0,.6.6h8.858a0.493,0.493,0,0,0,.6-0.6v-8.856a0.491,0.491,0,0,0-.6-0.6h-8.858a0.493,0.493,0,0,0-.6.6v4.4ZM414,769.134a4.678,4.678,0,0,1-.172.513,2.075,2.075,0,0,1-1.959,1.337c-3.1.021-6.2,0.016-9.294,0a2.159,2.159,0,0,1-2.135-2.156q-0.012-4.618,0-9.237a2.163,2.163,0,0,1,2.162-2.158q4.62-.014,9.239,0a2.179,2.179,0,0,1,2.093,1.652c0.018,0.069.043,0.136,0.065,0.2v9.841Zm-11.813-4.948q0,2.241,0,4.483a0.478,0.478,0,0,0,.574.574h8.914a0.477,0.477,0,0,0,.575-0.573q0-4.455,0-8.911a0.478,0.478,0,0,0-.573-0.575H402.79a0.492,0.492,0,0,0-.6.6Q402.185,761.986,402.187,764.186Zm-9.413,6.807h-4.457a2.191,2.191,0,0,1-2.318-2.31q0-4.47,0-8.939a2.192,2.192,0,0,1,2.318-2.31h8.913a2.19,2.19,0,0,1,2.331,2.324q0,4.482,0,8.965a2.188,2.188,0,0,1-2.277,2.27Q395.029,771,392.774,770.993Zm0.006-1.749h4.485a0.464,0.464,0,0,0,.546-0.546q0-4.47,0-8.939a0.478,0.478,0,0,0-.574-0.574h-8.886a0.489,0.489,0,0,0-.6.6v8.884a0.476,0.476,0,0,0,.574.573Q390.552,769.245,392.78,769.244Zm6.767-21.216c-0.245.061-.436,0.118-0.631,0.154a0.665,0.665,0,0,1-.8-0.484,0.642,0.642,0,0,1,.47-0.781c0.46-.142.924-0.278,1.393-0.386a0.784,0.784,0,0,1,1.055.844q0,2.666,0,5.33a0.752,0.752,0,0,1-.622.784,0.723,0.723,0,0,1-.807-0.464,1.249,1.249,0,0,1-.053-0.4q0-2.118,0-4.237C399.546,748.279,399.547,748.171,399.547,748.028Zm8.347,15.473,0.323,0.092a1.9,1.9,0,0,1,1.378,2.65,1.961,1.961,0,0,1-1.288,1.284,3.4,3.4,0,0,1-3.256-.537,0.7,0.7,0,0,1-.182-1.049,0.717,0.717,0,0,1,1.064-.084,2.019,2.019,0,0,0,1.436.491,0.857,0.857,0,0,0,.869-0.75,0.806,0.806,0,0,0-.689-0.881,3.735,3.735,0,0,0-.784-0.084,0.694,0.694,0,0,1-.7-0.415,0.672,0.672,0,0,1,.194-0.77c0.379-.394.766-0.78,1.149-1.17,0.067-.069.13-0.142,0.24-0.262H407.05c-0.492,0-.985.008-1.476,0a0.646,0.646,0,0,1-.662-0.655,0.637,0.637,0,0,1,.644-0.642q1.695-.009,3.391,0a0.682,0.682,0,0,1,.657.366,0.723,0.723,0,0,1-.085.8,6.181,6.181,0,0,1-.558.6C408.619,762.815,408.269,763.143,407.894,763.5Zm-15.472,2.9c0.738,0,1.476,0,2.213,0a0.664,0.664,0,1,1,0,1.312c-1.193,0-2.387,0-3.58,0a0.775,0.775,0,0,1-.829-0.449,0.809,0.809,0,0,1,.273-0.958c0.811-.692,1.642-1.359,2.452-2.052a3.212,3.212,0,0,0,.593-0.671,1.032,1.032,0,0,0-.073-1.265,1.092,1.092,0,0,0-1.274-.081,3.549,3.549,0,0,0-.5.417,0.7,0.7,0,0,1-1.025.035,0.724,0.724,0,0,1,.019-1.009,2.96,2.96,0,0,1,3.4-.728,2.167,2.167,0,0,1,.665,3.383,15.745,15.745,0,0,1-1.625,1.451c-0.232.2-.483,0.376-0.725,0.563Z" transform="translate(-386 -743)"/>
</svg>
