<svg xmlns="http://www.w3.org/2000/svg" width="31" height="34" viewBox="0 0 31 34">
  <metadata><?xpacket begin="﻿" id="W5M0MpCehiHzreSzNTczkc9d"?>
<x:xmpmeta xmlns:x="adobe:ns:meta/" x:xmptk="Adobe XMP Core 5.6-c142 79.160924, 2017/07/13-01:06:39        ">
   <rdf:RDF xmlns:rdf="http://www.w3.org/1999/02/22-rdf-syntax-ns#">
      <rdf:Description rdf:about=""/>
   </rdf:RDF>
</x:xmpmeta>
                                                                                                    
                                                                                                    
                                                                                                    
                                                                                                    
                                                                                                    
                                                                                                    
                                                                                                    
                                                                                                    
                                                                                                    
                                                                                                    
                                                                                                    
                                                                                                    
                                                                                                    
                                                                                                    
                                                                                                    
                                                                                                    
                                                                                                    
                                                                                                    
                                                                                                    
                                                                                                    
                           
<?xpacket end="w"?></metadata>
<defs>
    <style>
      .cls-1 {
        fill: #9f9f9f;
        fill-rule: evenodd;
      }
    </style>
  </defs>
  <path id="kinder08-position" class="cls-1" d="M678.847,1006.01l-0.738.75-0.738-.75-0.738.75,0.738,0.74-0.738.74,0.738,0.75,0.738-.75,0.738,0.75,0.738-.75-0.738-.74,0.738-.74ZM707,1011.54l-0.738-.75-0.738.75-0.738-.75-0.738.75,0.738,0.74-0.738.74,0.738,0.75,0.738-.75,0.738,0.75,0.738-.75-0.738-.74Zm-22.565-1.38a0.506,0.506,0,0,0-.527-0.54h-1.582a0.535,0.535,0,0,0,0,1.07h1.582A0.5,0.5,0,0,0,684.435,1010.16Zm18.98-3.19h-1.582a0.53,0.53,0,0,0,0,1.06h1.582A0.53,0.53,0,0,0,703.415,1006.97Zm1.054-20.72h1.582a0.532,0.532,0,0,0,0-1.063h-1.582A0.532,0.532,0,0,0,704.469,986.25Zm0,16.47h1.582a0.53,0.53,0,0,0,0-1.06h-1.582A0.53,0.53,0,0,0,704.469,1002.72Zm-27.942-16.47h1.582a0.532,0.532,0,0,0,0-1.063h-1.582A0.532,0.532,0,0,0,676.527,986.25Zm2.109,15.94a0.5,0.5,0,0,0-.527-0.53h-1.582a0.53,0.53,0,0,0,0,1.06h1.582A0.5,0.5,0,0,0,678.636,1002.19Zm12.653,11.68a0.491,0.491,0,0,0,.369-0.15c0.475-.48,11.757-12.33,11.757-19.5,0-7.332-4.85-12.219-12.126-12.219s-12.126,4.887-12.126,12.219c0,7.171,11.283,19.021,11.757,19.5A0.491,0.491,0,0,0,691.289,1013.87Zm0-30.808c6.748,0,11.072,4.357,11.072,11.157,0,6.051-9.069,16.2-11.072,18.331-2-2.13-11.071-12.33-11.071-18.331C680.218,987.419,684.541,983.062,691.289,983.062Zm9.226,11.422a9.3,9.3,0,0,0-7.012-9.031,0.521,0.521,0,0,0-.263,1.009,8.176,8.176,0,0,1,6.168,7.969,8.015,8.015,0,0,1-1.74,5.047h-3.8v-3.559l3.585-5.154a0.629,0.629,0,0,0,.053-0.531,0.418,0.418,0,0,0-.422-0.265h-2.636v-1.063a0.483,0.483,0,0,0-.211-0.425l-1.9-1.434v-2.922a0.5,0.5,0,0,0-.527-0.532h-1.581a0.5,0.5,0,0,0-.528.532v2.922l-1.9,1.434a0.484,0.484,0,0,0-.21.425v10.625h-2.742a8.013,8.013,0,0,1-1.74-5.047,8.2,8.2,0,0,1,5.694-7.862,0.546,0.546,0,0,0,.369-0.638,0.6,0.6,0,0,0-.685-0.372A9.289,9.289,0,1,0,700.515,994.484Zm-4.428-3.453-0.369.531h-1.266v1.063h0.527l-1.581,2.284-2.689-3.878h5.378Zm-7.434,7.438h1.054v-1.063h-1.054v-1.063h1.054v-1.062h-1.054v-6.109l1.9-1.435a0.484,0.484,0,0,0,.211-0.425v-2.656h0.527v2.656a0.484,0.484,0,0,0,.211.425l1.9,1.435v0.8h-3.691a0.552,0.552,0,0,0-.474.265,0.491,0.491,0,0,0,.053.531l3.585,5.154v3.612h-4.218v-1.062h0Zm-2.847,2.121h10.913A8.054,8.054,0,0,1,685.806,1000.59Zm8.7,12.33a0.533,0.533,0,0,0-.105,1.06,10.89,10.89,0,0,1,2.847.43,24.55,24.55,0,0,1-6.011.53,24.271,24.271,0,0,1-5.852-.53,12.916,12.916,0,0,1,2.742-.43,0.475,0.475,0,0,0,.474-0.58,0.5,0.5,0,0,0-.58-0.48c-4.112.37-4.112,1.11-4.112,1.49,0,1.32,4.007,1.59,7.381,1.59s7.381-.27,7.381-1.59C698.67,1013.82,698.2,1013.13,694.505,1012.92Z" transform="translate(-676 -982)"/>
</svg>
