<svg xmlns="http://www.w3.org/2000/svg" width="26" height="29" viewBox="0 0 26 29">
  <metadata><?xpacket begin="﻿" id="W5M0MpCehiHzreSzNTczkc9d"?>
<x:xmpmeta xmlns:x="adobe:ns:meta/" x:xmptk="Adobe XMP Core 5.6-c142 79.160924, 2017/07/13-01:06:39        ">
   <rdf:RDF xmlns:rdf="http://www.w3.org/1999/02/22-rdf-syntax-ns#">
      <rdf:Description rdf:about=""/>
   </rdf:RDF>
</x:xmpmeta>
                                                                                                    
                                                                                                    
                                                                                                    
                                                                                                    
                                                                                                    
                                                                                                    
                                                                                                    
                                                                                                    
                                                                                                    
                                                                                                    
                                                                                                    
                                                                                                    
                                                                                                    
                                                                                                    
                                                                                                    
                                                                                                    
                                                                                                    
                                                                                                    
                                                                                                    
                                                                                                    
                           
<?xpacket end="w"?></metadata>
<defs>
    <style>
      .cls-1 {
        fill: #9f9f9f;
        fill-rule: evenodd;
      }
    </style>
  </defs>
  <path id="kinder03-cl_assify" data-name="kinder03-cl;assify" class="cls-1" d="M974.081,514.169a1.2,1.2,0,0,0,1.2-1.182v-20.8a1.187,1.187,0,0,0-.663-1.063,1.222,1.222,0,0,0-1.265.118l-7.873,5.791a1.155,1.155,0,0,0-.241,1.654,1.209,1.209,0,0,0,1.687.237l5.945-4.373v18.436a1.2,1.2,0,0,0,1.205,1.182h0Zm0,0,7.832-17.136a1.2,1.2,0,0,0-1.2,1.182v20.6a1.21,1.21,0,0,0,.662,1.063,1.348,1.348,0,0,0,.542.119,1.215,1.215,0,0,0,.723-0.237l7.873-5.692a1.177,1.177,0,0,0,.261-1.655,1.231,1.231,0,0,0-1.687-.256l-5.964,4.314V498.215a1.2,1.2,0,0,0-1.206-1.182h0Zm0,0" transform="translate(-965 -491)"/>
</svg>
