<svg xmlns="http://www.w3.org/2000/svg" width="26.969" height="16" viewBox="0 0 26.969 16">
  <metadata><?xpacket begin="﻿" id="W5M0MpCehiHzreSzNTczkc9d"?>
<x:xmpmeta xmlns:x="adobe:ns:meta/" x:xmptk="Adobe XMP Core 5.6-c142 79.160924, 2017/07/13-01:06:39        ">
   <rdf:RDF xmlns:rdf="http://www.w3.org/1999/02/22-rdf-syntax-ns#">
      <rdf:Description rdf:about=""/>
   </rdf:RDF>
</x:xmpmeta>
                                                                                                    
                                                                                                    
                                                                                                    
                                                                                                    
                                                                                                    
                                                                                                    
                                                                                                    
                                                                                                    
                                                                                                    
                                                                                                    
                                                                                                    
                                                                                                    
                                                                                                    
                                                                                                    
                                                                                                    
                                                                                                    
                                                                                                    
                                                                                                    
                                                                                                    
                                                                                                    
                           
<?xpacket end="w"?></metadata>
<defs>
    <style>
      .cls-1 {
        fill: #9f9f9f;
        fill-rule: evenodd;
      }
    </style>
  </defs>
  <path id="kinder07-count_to_5" data-name="kinder07-count to 5" class="cls-1" d="M397.871,1016.68a0.476,0.476,0,0,0,.373-0.17,0.568,0.568,0,0,0,.11-0.48l-0.325-1.87a0.55,0.55,0,0,1,.125-0.38l1.378-1.32a0.507,0.507,0,0,0-.3-0.91l-1.9-.28a0.508,0.508,0,0,1-.326-0.23l-0.852-1.7a0.519,0.519,0,0,0-.975,0l-0.852,1.7a0.511,0.511,0,0,1-.326.23l-1.905.28a0.507,0.507,0,0,0-.3.91l1.378,1.32a0.56,0.56,0,0,1,.125.38l-0.326,1.87a0.575,0.575,0,0,0,.11.48,0.546,0.546,0,0,0,.679.09l1.7-.88a0.442,0.442,0,0,1,.2-0.04,0.447,0.447,0,0,1,.2.04l1.7,0.88a0.708,0.708,0,0,0,.306.08h0ZM395.66,1015a1.087,1.087,0,0,0-.52.12l-1.45.75,0.277-1.59a1.191,1.191,0,0,0-.322-0.98l-1.173-1.13,1.621-.23a1.236,1.236,0,0,0,.842-0.6l0.725-1.45,0.726,1.45a1.236,1.236,0,0,0,.841.6l1.622,0.23-1.174,1.13a1.193,1.193,0,0,0-.321.98l0.277,1.59-1.45-.75a1.092,1.092,0,0,0-.521-0.12h0Zm0,0,11.672,1.68a0.477,0.477,0,0,0,.373-0.17,0.575,0.575,0,0,0,.11-0.48l-0.326-1.87a0.56,0.56,0,0,1,.125-0.38l1.378-1.32a0.507,0.507,0,0,0-.3-0.91l-1.9-.28a0.511,0.511,0,0,1-.326-0.23l-0.852-1.7a0.519,0.519,0,0,0-.975,0l-0.852,1.7a0.508,0.508,0,0,1-.326.23l-1.9.28a0.507,0.507,0,0,0-.3.91l1.379,1.32a0.554,0.554,0,0,1,.124.38l-0.325,1.87a0.568,0.568,0,0,0,.11.48,0.546,0.546,0,0,0,.679.09l1.7-.88a0.528,0.528,0,0,1,.4,0l1.7,0.88a0.708,0.708,0,0,0,.306.08h0Zm-2.211-1.68a1.085,1.085,0,0,0-.52.12l-1.451.75,0.277-1.59a1.19,1.19,0,0,0-.321-0.98l-1.174-1.13,1.622-.23a1.24,1.24,0,0,0,.842-0.6l0.725-1.45,0.725,1.45a1.236,1.236,0,0,0,.842.6l1.621,0.23-1.173,1.13a1.194,1.194,0,0,0-.322.98l0.277,1.59-1.45-.75a1.087,1.087,0,0,0-.52-0.12h0Zm0,0-10.48,4.87-1.905-.28a0.508,0.508,0,0,1-.326-0.23l-0.852-1.7a0.519,0.519,0,0,0-.975,0l-0.852,1.7a0.511,0.511,0,0,1-.326.23l-1.9.28a0.507,0.507,0,0,0-.3.91l1.378,1.33a0.515,0.515,0,0,1,.125.37l-0.326,1.87a0.572,0.572,0,0,0,.111.48,0.545,0.545,0,0,0,.678.09l1.7-.88a0.528,0.528,0,0,1,.4,0l1.7,0.88a0.708,0.708,0,0,0,.305.08,0.476,0.476,0,0,0,.373-0.17,0.568,0.568,0,0,0,.11-0.48l-0.325-1.87a0.511,0.511,0,0,1,.125-0.37l1.378-1.33a0.507,0.507,0,0,0-.3-0.91h0Zm-1.556,1.75a1.2,1.2,0,0,0-.321.98l0.277,1.59-1.45-.75a1.189,1.189,0,0,0-1.041,0l-1.45.75,0.277-1.59a1.191,1.191,0,0,0-.322-0.98l-1.173-1.13,1.622-.23a1.206,1.206,0,0,0,.841-0.6l0.725-1.45,0.726,1.45a1.206,1.206,0,0,0,.841.6l1.622,0.23Zm0,0,10.986-1.75-1.905-.28a0.511,0.511,0,0,1-.326-0.23l-0.851-1.7a0.52,0.52,0,0,0-.976,0l-0.851,1.7a0.511,0.511,0,0,1-.326.23l-1.905.28a0.507,0.507,0,0,0-.3.91l1.379,1.33a0.515,0.515,0,0,1,.124.37l-0.325,1.87a0.568,0.568,0,0,0,.11.48,0.546,0.546,0,0,0,.679.09l1.7-.88a0.447,0.447,0,0,1,.2-0.04,0.438,0.438,0,0,1,.2.04l1.7,0.88a0.708,0.708,0,0,0,.306.08,0.477,0.477,0,0,0,.373-0.17,0.575,0.575,0,0,0,.11-0.48l-0.326-1.87a0.52,0.52,0,0,1,.125-0.37l1.378-1.33a0.507,0.507,0,0,0-.3-0.91h0Zm-1.555,1.75a1.194,1.194,0,0,0-.322.98l0.278,1.59-1.451-.75a1.187,1.187,0,0,0-1.04,0l-1.451.75,0.277-1.59a1.19,1.19,0,0,0-.321-0.98l-1.174-1.13,1.622-.23a1.208,1.208,0,0,0,.842-0.6l0.725-1.45,0.725,1.45a1.208,1.208,0,0,0,.842.6l1.621,0.23Zm0,0,11.287-.84a0.507,0.507,0,0,0-.3-0.91l-1.905-.28a0.508,0.508,0,0,1-.326-0.23l-0.852-1.7a0.519,0.519,0,0,0-.975,0l-0.852,1.7a0.508,0.508,0,0,1-.326.23l-1.905.28a0.507,0.507,0,0,0-.3.91l1.378,1.33a0.52,0.52,0,0,1,.125.37l-0.326,1.87a0.575,0.575,0,0,0,.11.48,0.479,0.479,0,0,0,.374.17,0.708,0.708,0,0,0,.305-0.08l1.7-.88a0.442,0.442,0,0,1,.2-0.04,0.447,0.447,0,0,1,.2.04l1.7,0.88a0.545,0.545,0,0,0,.678-0.09,0.568,0.568,0,0,0,.11-0.48l-0.325-1.87a0.511,0.511,0,0,1,.125-0.37Zm-1.856.84a1.191,1.191,0,0,0-.322.98l0.277,1.59-1.45-.75a1.189,1.189,0,0,0-1.041,0l-1.45.75,0.277-1.59a1.194,1.194,0,0,0-.322-0.98l-1.173-1.13,1.621-.23a1.206,1.206,0,0,0,.842-0.6l0.726-1.45,0.725,1.45a1.206,1.206,0,0,0,.841.6l1.622,0.23Zm0,0" transform="translate(-387 -1009)"/>
</svg>
