<svg xmlns="http://www.w3.org/2000/svg" width="27" height="27" viewBox="0 0 27 27">
  <metadata><?xpacket begin="﻿" id="W5M0MpCehiHzreSzNTczkc9d"?>
<x:xmpmeta xmlns:x="adobe:ns:meta/" x:xmptk="Adobe XMP Core 5.6-c142 79.160924, 2017/07/13-01:06:39        ">
   <rdf:RDF xmlns:rdf="http://www.w3.org/1999/02/22-rdf-syntax-ns#">
      <rdf:Description rdf:about=""/>
   </rdf:RDF>
</x:xmpmeta>
                                                                                                    
                                                                                                    
                                                                                                    
                                                                                                    
                                                                                                    
                                                                                                    
                                                                                                    
                                                                                                    
                                                                                                    
                                                                                                    
                                                                                                    
                                                                                                    
                                                                                                    
                                                                                                    
                                                                                                    
                                                                                                    
                                                                                                    
                                                                                                    
                                                                                                    
                                                                                                    
                           
<?xpacket end="w"?></metadata>
<defs>
    <style>
      .cls-1 {
        fill: #999;
        fill-rule: evenodd;
      }
    </style>
  </defs>
  <path id="kinder09-size" class="cls-1" d="M988.177,917H966.611a0.822,0.822,0,0,0-.823.823v15.735h-2.965a0.823,0.823,0,0,0-.823.823v8.8a0.823,0.823,0,0,0,.823.823h8.8a0.823,0.823,0,0,0,.823-0.823v-2.965h15.736a0.823,0.823,0,0,0,.823-0.823V917.823A0.823,0.823,0,0,0,988.177,917Zm-20.085,20.908v-2.045h2.045v2.045h-2.045Zm-1.481,2.3h3.526V941.7H964.3v-5.832h1.483v3.526A0.824,0.824,0,0,0,966.611,940.212Zm5.007-6.654h-3.526V919.305h18.6v18.6H972.441v-3.527A0.823,0.823,0,0,0,971.618,933.558Zm9.1-7.754a0.256,0.256,0,0,0,.183.076,0.26,0.26,0,0,0,.184-0.076l1.759-1.759,0.553,1.281a0.259,0.259,0,0,0,.485-0.024l1.338-4.2a0.26,0.26,0,0,0-.326-0.326l-4.2,1.338a0.259,0.259,0,0,0-.024.485l1.281,0.553-1.76,1.759a0.26,0.26,0,0,0,0,.367Z" transform="translate(-962 -917)"/>
</svg>
