<svg xmlns="http://www.w3.org/2000/svg" width="29" height="28" viewBox="0 0 29 28">
  <metadata><?xpacket begin="﻿" id="W5M0MpCehiHzreSzNTczkc9d"?>
<x:xmpmeta xmlns:x="adobe:ns:meta/" x:xmptk="Adobe XMP Core 5.6-c142 79.160924, 2017/07/13-01:06:39        ">
   <rdf:RDF xmlns:rdf="http://www.w3.org/1999/02/22-rdf-syntax-ns#">
      <rdf:Description rdf:about=""/>
   </rdf:RDF>
</x:xmpmeta>
                                                                                                    
                                                                                                    
                                                                                                    
                                                                                                    
                                                                                                    
                                                                                                    
                                                                                                    
                                                                                                    
                                                                                                    
                                                                                                    
                                                                                                    
                                                                                                    
                                                                                                    
                                                                                                    
                                                                                                    
                                                                                                    
                                                                                                    
                                                                                                    
                                                                                                    
                                                                                                    
                           
<?xpacket end="w"?></metadata>
<defs>
    <style>
      .cls-1 {
        fill: #9f9f9f;
        fill-rule: evenodd;
      }
    </style>
  </defs>
  <path id="kinder02-count_to_10" data-name="kinder02-count to 10" class="cls-1" d="M677,514.852a5.7,5.7,0,0,1,.246-0.841,2.273,2.273,0,0,1,2.221-1.389c0.5,0,1,0,1.517-.03a3.287,3.287,0,0,1-1.408-2.909,3.213,3.213,0,0,1,1.746-2.7,3.263,3.263,0,0,1-.007-5.777l-0.245-.164a3.109,3.109,0,0,1-1.487-2.96,3.054,3.054,0,0,1,1.936-2.722,0.355,0.355,0,0,0,.251-0.389c-0.008-1.187,0-2.374,0-3.561v-0.4c0.524,0,1.03-.007,1.535.013a0.4,0.4,0,0,1,.114.276c0.008,1.148.018,2.3,0,3.442a0.627,0.627,0,0,0,.415.7,2.984,2.984,0,0,1,1.769,2.591,3.13,3.13,0,0,1-1.444,2.984c-0.077.055-.159,0.1-0.279,0.179a3.232,3.232,0,0,1,1.733,2.894,3.2,3.2,0,0,1-1.731,2.887,3.306,3.306,0,0,1,.319,5.622h5.747a3.28,3.28,0,0,1-1.436-2.9,3.2,3.2,0,0,1,1.708-2.706c-0.216-.166-0.432-0.314-0.628-0.487a3.211,3.211,0,0,1,.853-5.369,0.348,0.348,0,0,0,.24-0.394q-0.006-4.674,0-9.347v-0.371h1.673v0.335q0,4.688,0,9.376a0.354,0.354,0,0,0,.231.4A3.012,3.012,0,0,1,694.5,503.7a3.129,3.129,0,0,1-1.487,3.129l-0.222.146a3.28,3.28,0,0,1,.277,5.619H698.7c-0.172-.212-0.381-0.462-0.583-0.718a3.2,3.2,0,0,1,1.148-4.917,0.51,0.51,0,0,0,.344-0.569q-0.012-7.417-.01-14.836c0-.669-0.055-0.547.52-0.555,0.35,0,.7,0,1.049.009a0.45,0.45,0,0,1,.09.038v0.388q0,7.491-.007,14.984a0.485,0.485,0,0,0,.343.536,3.209,3.209,0,0,1,.762,5.334L702,512.6c0.139,0.01.224,0.02,0.309,0.022,0.557,0.014,1.114.009,1.67,0.044a2.212,2.212,0,0,1,1.975,1.989,17.279,17.279,0,0,1,.013,2.218,2.281,2.281,0,0,1-2.29,2.125c-1.8,0-3.609,0-5.414,0q-9.41,0-18.82,0a2.241,2.241,0,0,1-2.2-1.375,5.634,5.634,0,0,1-.249-0.871v-1.9Zm14.514,2.391v0h12.072a0.658,0.658,0,0,0,.753-0.794c0-.406,0-0.811,0-1.217a0.708,0.708,0,0,0-.839-0.864q-8.217,0-16.435,0h-7.6a0.684,0.684,0,0,0-.782.806q0,0.624,0,1.246a0.67,0.67,0,0,0,.782.822h12.044Zm-7.575-13.163a1.351,1.351,0,1,0-1.332,1.419A1.369,1.369,0,0,0,683.939,504.08Zm8.932,5.788a1.358,1.358,0,1,0-1.356,1.421A1.421,1.421,0,0,0,692.871,509.868Zm-1.336-4.372a1.382,1.382,0,0,0,1.336-1.393A1.36,1.36,0,1,0,691.535,505.5Zm-7.6-7.184a1.348,1.348,0,1,0-2.694-.007,1.4,1.4,0,0,0,1.348,1.42A1.381,1.381,0,0,0,683.936,498.312Zm0,11.561a1.384,1.384,0,0,0-1.369-1.423A1.421,1.421,0,1,0,683.936,509.873Zm15.155-.014a1.382,1.382,0,0,0,1.335,1.425A1.421,1.421,0,1,0,699.091,509.859Z" transform="translate(-677 -491)"/>
</svg>
