<svg xmlns="http://www.w3.org/2000/svg" width="28" height="28" viewBox="0 0 28 28">
  <metadata><?xpacket begin="﻿" id="W5M0MpCehiHzreSzNTczkc9d"?>
<x:xmpmeta xmlns:x="adobe:ns:meta/" x:xmptk="Adobe XMP Core 5.6-c142 79.160924, 2017/07/13-01:06:39        ">
   <rdf:RDF xmlns:rdf="http://www.w3.org/1999/02/22-rdf-syntax-ns#">
      <rdf:Description rdf:about=""/>
   </rdf:RDF>
</x:xmpmeta>
                                                                                                    
                                                                                                    
                                                                                                    
                                                                                                    
                                                                                                    
                                                                                                    
                                                                                                    
                                                                                                    
                                                                                                    
                                                                                                    
                                                                                                    
                                                                                                    
                                                                                                    
                                                                                                    
                                                                                                    
                                                                                                    
                                                                                                    
                                                                                                    
                                                                                                    
                                                                                                    
                           
<?xpacket end="w"?></metadata>
<defs>
    <style>
      .cls-1 {
        fill: #9f9f9f;
        fill-rule: evenodd;
      }
    </style>
  </defs>
  <path id="kinder01-shape" class="cls-1" d="M410.509,519H389.465l-0.1-.034-0.068-.025-0.015,0a3.963,3.963,0,0,1-3.123-2.806c-0.044-.138-0.074-0.269-0.1-0.4-0.012-.049-0.023-0.1-0.036-0.148L386,515.508V494.445l0.048-.118c0.006-.015.012-0.031,0.019-0.046a3.9,3.9,0,0,1,2.635-3.068,4.331,4.331,0,0,1,.514-0.145c0.063-.015.126-0.03,0.189-0.047l0.082-.021h21.047l0.1,0.033,0.067,0.024,0.017,0.007a3.956,3.956,0,0,1,3.122,2.807c0.045,0.138.075,0.268,0.1,0.394,0.011,0.049.023,0.1,0.035,0.148l0.02,0.078v21.045l-0.035.1q-0.01.033-.024,0.066l-0.006.015a3.96,3.96,0,0,1-2.81,3.123c-0.137.044-.266,0.074-0.391,0.1l-0.147.035Zm-20.823-1.3H410.35l0.088-.02c0.1-.025.2-0.047,0.288-0.075a2.627,2.627,0,0,0,1.935-2.157,1.193,1.193,0,0,1,.035-0.13V494.65l-0.021-.091c-0.024-.1-0.047-0.2-0.075-0.289a2.626,2.626,0,0,0-2.154-1.932,0.847,0.847,0,0,1-.131-0.035H389.653c-0.045.012-.091,0.022-0.136,0.033a3.591,3.591,0,0,0-.364.1,2.642,2.642,0,0,0-1.814,2.137,0.768,0.768,0,0,1-.036.131V515.35c0.008,0.03.015,0.061,0.022,0.091,0.024,0.105.046,0.2,0.074,0.289a2.628,2.628,0,0,0,2.156,1.931A1.281,1.281,0,0,1,389.686,517.7Zm24.253-2h0Zm-27.882-21.365h0ZM406.037,514h-1.513c-0.375,0-.762,0-1.143,0a2.328,2.328,0,0,1-2.363-2.361c0-1.154,0-2.221,0-3.264a2.311,2.311,0,0,1,2.346-2.351c1.166-.006,2.243-0.006,3.291,0a2.317,2.317,0,0,1,2.338,2.332c0.007,1.181.007,2.267,0,3.319a2.327,2.327,0,0,1-2.315,2.324C406.464,514,406.25,514,406.037,514ZM405,512.69h0l0.521,0c0.374,0,.761,0,1.139,0a1.021,1.021,0,0,0,1.028-1.03c0.007-1.046.007-2.126,0-3.3a1.014,1.014,0,0,0-1.041-1.037c-1.044-.005-2.116-0.005-3.278,0a1.012,1.012,0,0,0-1.049,1.054c0,1.039,0,2.1,0,3.253a1.016,1.016,0,0,0,1.069,1.062c0.376,0,.76,0,1.131,0H405Zm-5.621,1.293h-8.772l4.386-8.771Zm-6.663-1.3h4.554l-2.277-4.553Zm12.286-8.7h0a3.989,3.989,0,0,1,.014-7.977h0.014a3.992,3.992,0,0,1,3.968,4h0A3.994,3.994,0,0,1,405,503.983Zm0.009-6.674a2.684,2.684,0,0,0-1.908,4.58,2.658,2.658,0,0,0,1.9.79h0a2.685,2.685,0,0,0,.019-5.37h-0.01Zm-6.043,6.653h-7.945v-7.945h7.945v7.945Zm-6.641-1.3h5.338V497.32h-5.338v5.339Z" transform="translate(-386 -491)"/>
</svg>
