<svg xmlns="http://www.w3.org/2000/svg" width="26" height="35" viewBox="0 0 26 35">
  <metadata><?xpacket begin="﻿" id="W5M0MpCehiHzreSzNTczkc9d"?>
<x:xmpmeta xmlns:x="adobe:ns:meta/" x:xmptk="Adobe XMP Core 5.6-c142 79.160924, 2017/07/13-01:06:39        ">
   <rdf:RDF xmlns:rdf="http://www.w3.org/1999/02/22-rdf-syntax-ns#">
      <rdf:Description rdf:about=""/>
   </rdf:RDF>
</x:xmpmeta>
                                                                                                    
                                                                                                    
                                                                                                    
                                                                                                    
                                                                                                    
                                                                                                    
                                                                                                    
                                                                                                    
                                                                                                    
                                                                                                    
                                                                                                    
                                                                                                    
                                                                                                    
                                                                                                    
                                                                                                    
                                                                                                    
                                                                                                    
                                                                                                    
                                                                                                    
                                                                                                    
                           
<?xpacket end="w"?></metadata>
<defs>
    <style>
      .cls-1 {
        fill: #9f9f9f;
        fill-rule: evenodd;
      }
    </style>
  </defs>
  <path id="kinder06-patterns" class="cls-1" d="M972.655,738.36c-0.6.088-1.159,0.176-1.723,0.254a14.123,14.123,0,0,1-6.762-.491,3.881,3.881,0,0,1-1.664-1.085,2.183,2.183,0,0,1-.506-1.53q0.039-3.629.09-7.258c0.025-1.677.032-3.355,0.112-5.03a11.835,11.835,0,0,1,1.242-5.043,6.308,6.308,0,0,1,5.9-3.665c0.089,0,.178-0.01.307-0.017,0-.461,0-0.9,0-1.346a0.87,0.87,0,0,1,.016-0.348,1.146,1.146,0,0,1,.267-0.267,0.75,0.75,0,0,1,.235.289c0.027,0.445.014,0.892,0.015,1.338v0.371c0.457,0.106.9,0.192,1.342,0.314a11.373,11.373,0,0,1,3.862,1.869,4.972,4.972,0,0,1,2.257,4.27l2.135-.244c0.057-.8.105-1.59,0.176-2.381,0.02-.222-0.039-0.584.321-0.546,0.4,0.042.215,0.4,0.2,0.624-0.041.77-.1,1.538-0.156,2.292,0.837,0.112,1.6.185,2.355,0.324a8.718,8.718,0,0,1,1.485.431,4.98,4.98,0,0,1,3.27,4.363,64.823,64.823,0,0,1,.436,12.478,3.184,3.184,0,0,1-2.844,3.283,23.49,23.49,0,0,1-3.517.35,40.891,40.891,0,0,1-6.219-.2,4.118,4.118,0,0,1-1.853-.592,1.671,1.671,0,0,1-.78-1.374C972.633,739.328,972.655,738.858,972.655,738.36Zm-1.23-3.3a7.616,7.616,0,0,1-.854.75c-0.433.283-.924,0.471-1.359,0.75a8.643,8.643,0,0,0-1.224.942,2.689,2.689,0,0,0-.384.749c0.318,0,.525.018,0.728,0,1.344-.133,2.686-0.281,4.031-0.407a0.333,0.333,0,0,0,.35-0.423c-0.028-1.138-.037-2.277-0.055-3.415a1.608,1.608,0,0,0-.024-0.191,1.88,1.88,0,0,0-1.221,1.26Zm15.555,4.616a3.881,3.881,0,0,0,.4-1.76,71.5,71.5,0,0,0-.35-11.008c-0.087-.807-0.269-1.6-0.418-2.462-1.5,1.282-2.413,1.471-3.46.771a2.5,2.5,0,0,1-.981-1.237,3.051,3.051,0,0,1,.257-2.427,11.05,11.05,0,0,0-5.108.14,5.21,5.21,0,0,0-3.864,3.863,12.418,12.418,0,0,0-.3,2.646c-0.029,1.842.035,3.686,0.042,5.53,0.007,1.64.044,3.283-.032,4.92-0.08,1.711.274,2.249,1.919,2.533a1.245,1.245,0,0,0,.171.02c1.763,0.079,3.526.176,5.29,0.228,0.783,0.023,1.569-.043,2.367-0.069a2.055,2.055,0,0,1,.787-2.546C984.708,738.2,985.755,738.469,986.98,739.673Zm-14.222-23.825a1.031,1.031,0,0,0-.056.124c-0.017.057-.028,0.114-0.04,0.171a10.889,10.889,0,0,1-3.56,6.074,17.641,17.641,0,0,1-3.384,2.071,7.887,7.887,0,0,0-2.287,1.662,2.97,2.97,0,0,0-.82,2.06c0.02,1.667-.012,3.335-0.022,5,0,0.087.012,0.174,0.018,0.261l0.117,0.089c0.222-.263.46-0.515,0.664-0.792,0.828-1.123,1.694-2.221,2.459-3.388a17.882,17.882,0,0,1,6.943-6.4,13.812,13.812,0,0,0,2.334-1.6,3.391,3.391,0,0,0,1.222-2.105,1.068,1.068,0,0,0-.257-0.994A9.51,9.51,0,0,0,972.758,715.848Zm-8.99,21.447a0.435,0.435,0,0,0,.024-0.1,4.624,4.624,0,0,1,2.638-4.316c0.8-.429,1.619-0.827,2.425-1.248a7.751,7.751,0,0,0,3.519-3.586,3.139,3.139,0,0,0,.276-1,7.479,7.479,0,0,1,.976-3.3,6.062,6.062,0,0,1,3.109-2.44,0.549,0.549,0,0,0,.324-0.207,2.93,2.93,0,0,0-.187-1.68l-0.514,1.168a3.082,3.082,0,0,1,.351.414,0.432,0.432,0,0,1-.188.227,2.532,2.532,0,0,1-.455-0.254A8.059,8.059,0,0,1,973.7,722.9c-0.539.309-1.085,0.608-1.626,0.914a13.206,13.206,0,0,0-3.943,3.249c-0.978,1.239-1.846,2.57-2.789,3.839a15.3,15.3,0,0,1-2.076,2.566,2.031,2.031,0,0,0-.73,1.855c0,0.071,0,.141,0,0.212A1.8,1.8,0,0,0,963.768,737.3Zm8.836-8.358a0.285,0.285,0,0,0-.078.006,1.739,1.739,0,0,0-.1.141,7.785,7.785,0,0,1-2.779,2.72c-0.758.433-1.557,0.793-2.318,1.222a10.219,10.219,0,0,0-1.708,1.1,3.738,3.738,0,0,0-1.273,3.164,0.477,0.477,0,0,0,.186.362,8.911,8.911,0,0,0,2.585.535,2.683,2.683,0,0,1,1.409-1.879,7.62,7.62,0,0,1,.945-0.5,3.82,3.82,0,0,0,1.845-1.615,1.747,1.747,0,0,1,1.288-.964v-4.292Zm-0.4-13.277c-0.222-.12-0.374-0.2-0.557.039a16.324,16.324,0,0,1-6.551,5.1,9.3,9.3,0,0,0-1.706,1.1,1.55,1.55,0,0,0-.622,1.14c-0.06.957-.073,1.916-0.1,2.873a0.178,0.178,0,0,0,.06.048,6.807,6.807,0,0,1,2.126-1.8c0.608-.353,1.23-0.68,1.855-1A10.271,10.271,0,0,0,972.205,715.66Zm-9.278,5.916a7.341,7.341,0,0,1,2.429-1.506,14.727,14.727,0,0,0,3.963-2.627c0.677-.641,1.3-1.346,1.967-2.045a6.523,6.523,0,0,0-3.137-.245,5.916,5.916,0,0,0-4.364,3.555A9.891,9.891,0,0,0,962.927,721.576Zm20.009,0.089a9.128,9.128,0,0,0-.343,1.091,1.955,1.955,0,0,0,1.125,2.152,1.915,1.915,0,0,0,2.254-.617,0.516,0.516,0,0,0,.006-0.844A5.262,5.262,0,0,0,982.936,721.665Zm3.725,18.619a2.046,2.046,0,0,0-2.152-1.2,1.444,1.444,0,0,0-1.14,1.909,0.343,0.343,0,0,0,.431.283,12.948,12.948,0,0,0,1.541-.317A9.828,9.828,0,0,0,986.661,740.284ZM977.305,715.9a3.879,3.879,0,0,1,.652-2.257,2.711,2.711,0,0,1,2.74-1.32,2.756,2.756,0,0,1,2.223,2.016,5.036,5.036,0,0,1-.19,3.473,15.445,15.445,0,0,1-.644,1.475,1,1,0,0,1-.348.258,1.64,1.64,0,0,1-.187-0.4,8.478,8.478,0,0,0-.186-1.271,1.205,1.205,0,0,0-1.164-.887,1.18,1.18,0,0,0-1.125.93c-0.116.34-.144,0.71-0.24,1.058a2.059,2.059,0,0,1-.235.427,1.307,1.307,0,0,1-.365-0.3A6.526,6.526,0,0,1,977.305,715.9Zm4.467-2.434a2.084,2.084,0,0,0-3.219.267,4.137,4.137,0,0,0-.133,4.443,2.067,2.067,0,0,1,1.549-1.739c-0.038-.144-0.069-0.266-0.1-0.387l0.514,0.206c0.271-.272.58-0.591,0.9-0.9a0.6,0.6,0,0,1,.235-0.072,2.032,2.032,0,0,1-.061.27,0.6,0.6,0,0,1-.109.141l0.324,0.376,0.534-.517-0.429-.116c-0.071-.165-0.132-0.287-0.174-0.415a0.751,0.751,0,0,1-.007-0.213,0.56,0.56,0,0,1,.182.026,0.726,0.726,0,0,1,.144.119l0.393-.137c-0.029.14-.059,0.281-0.068,0.326l0.321,0.478c0-1.16-.164-1.352-0.909-1.517C981.691,713.914,981.725,713.726,981.772,713.463Zm0.078,2.841a3.752,3.752,0,0,1,.363.312,0.131,0.131,0,1,1-.175.184,4.057,4.057,0,0,1-.324-0.307l-0.344.314c0.249,0.426.479,0.822,0.742,1.271,0.152-.606.318-1.186,0.434-1.777a1.592,1.592,0,0,0-.157-0.584Zm-0.413.018-0.279-.393-0.571.518,0.478,0.221ZM967,710.383a3.581,3.581,0,0,1,.818-2.249,2.628,2.628,0,0,1,2.744-1.061,2.863,2.863,0,0,1,2.151,2.323,5.6,5.6,0,0,1-.435,3.533,11.429,11.429,0,0,1-.516,1.111,0.89,0.89,0,0,1-.336.218,1.369,1.369,0,0,1-.176-0.372,5.823,5.823,0,0,0-.127-1.138,1.924,1.924,0,0,0-.629-0.839,0.975,0.975,0,0,0-1.527.353,10.246,10.246,0,0,0-.447,1.462,2.1,2.1,0,0,1-.224.392,1.132,1.132,0,0,1-.349-0.268A6.786,6.786,0,0,1,967,710.383Zm1.1,2.583a2.2,2.2,0,0,1,1.214-1.711,1.823,1.823,0,0,1,1.941.535c-0.015-.2-0.024-0.328-0.033-0.453l0.34,0.062,0.233-.258a1.373,1.373,0,0,1-.2-0.229,1.067,1.067,0,0,1-.069-0.264,0.919,0.919,0,0,1,.257.089c0.152,0.114.287,0.25,0.438,0.385,0.154-.693.154-0.693-0.274-0.989a1.7,1.7,0,0,1-.247.234,0.875,0.875,0,0,1-.26.07,1.135,1.135,0,0,1,.091-0.265,2.179,2.179,0,0,1,.238-0.269c-0.264-.26-0.51-0.519-0.165-0.877a0.076,0.076,0,0,0,0-.065c-0.306-.553.134-0.205,0.273-0.215a2.021,2.021,0,0,0-2.1-1.168,2.479,2.479,0,0,0-2.056,1.887A4.8,4.8,0,0,0,968.105,712.966Zm3.634-.212c0.248-.462.245-0.5-0.1-0.781a0.527,0.527,0,0,0-.2-0.058,0.732,0.732,0,0,0,.02.217C971.545,712.336,971.641,712.535,971.739,712.754Zm0.25-.792,0.119-.039c-0.011-.172-0.023-0.343-0.034-0.515l-0.364.188Zm-0.108-2.745-0.142.044a0.59,0.59,0,0,0,.082.278,0.814,0.814,0,0,0,.316.084l0.012-.089Zm4.113,18.706a9.963,9.963,0,0,1,.451-1.385,1.877,1.877,0,0,1,3.04-.6,2.524,2.524,0,0,1-.475,4.048A2.131,2.131,0,0,1,975.994,727.923Zm3.763-.344a1.753,1.753,0,0,0-.578-1.183,1.35,1.35,0,0,0-2.247.379,3.477,3.477,0,0,0-.324,1.205,1.514,1.514,0,0,0,1.052,1.592C978.71,729.92,979.766,729.017,979.757,727.579Zm5.233,6.8a1.929,1.929,0,0,1-1.927-1.992,2.07,2.07,0,0,1,2.008-2.109A2.053,2.053,0,0,1,984.99,734.382Zm0.038-3.545a1.51,1.51,0,0,0-1.425,1.577,1.367,1.367,0,0,0,1.43,1.412A1.5,1.5,0,0,0,985.028,730.837Zm-8.087,3.666a1.775,1.775,0,0,1-.989,1.642,1.478,1.478,0,0,1-1.684-.336,2.568,2.568,0,0,1-.925-1.56,1.268,1.268,0,0,1,.9-1.527,1.989,1.989,0,0,1,2.644,1.359A3.83,3.83,0,0,1,976.941,734.5Zm-0.539.041a1.241,1.241,0,0,0-.716-1.209,1.5,1.5,0,0,0-1.572.067,0.675,0.675,0,0,0-.255.719,2.1,2.1,0,0,0,.773,1.289,0.982,0.982,0,0,0,1.113.228A1.212,1.212,0,0,0,976.4,734.544Zm2.867,3.846a1.035,1.035,0,0,1-1.116-1.458c0.029-.121,0-0.258.038-0.377a1.329,1.329,0,0,1,.183-0.36,2.693,2.693,0,0,1,.215-0.212c0.1-.113.181-0.242,0.282-0.353a1.207,1.207,0,0,1,1.479-.4,1.49,1.49,0,0,1,.756,1.529A1.9,1.9,0,0,1,979.269,738.39Zm-0.017-.548a1.326,1.326,0,0,0,1.32-1.391,0.8,0.8,0,0,0-.5-0.735,0.617,0.617,0,0,0-.765.238,5.011,5.011,0,0,0-.606,1.119C978.505,737.622,978.689,737.838,979.252,737.842Zm-15.076-3.37-0.506.514a0.765,0.765,0,0,1-.24-0.275,0.486,0.486,0,0,1,.391-0.525A1.435,1.435,0,0,1,964.176,734.472Zm4.335-5.314a4.318,4.318,0,0,1-.515.395,0.493,0.493,0,0,1-.211-0.274,0.355,0.355,0,0,1,.361-0.407A1.208,1.208,0,0,1,968.511,729.158Zm-2.4,1.332a1.214,1.214,0,0,1,.237.416,2.036,2.036,0,0,1-.361.4,0.7,0.7,0,0,1-.211-0.294A2.259,2.259,0,0,1,966.108,730.49Zm6.593-6.626a1.336,1.336,0,0,1,.223.4,2.352,2.352,0,0,1-.4.357,0.8,0.8,0,0,1-.213-0.292A2.328,2.328,0,0,1,972.7,723.864Zm-7.476,8.282a0.887,0.887,0,0,1,.173.377,0.751,0.751,0,0,1-.263.288,0.936,0.936,0,0,1-.239-0.343,0.754,0.754,0,0,1,.2-0.328Zm4.941-5a1.061,1.061,0,0,1-.382.282,0.459,0.459,0,0,1-.259-0.315,0.372,0.372,0,0,1,.249-0.273A1.113,1.113,0,0,1,970.166,727.15Zm1.374,0.894a0.983,0.983,0,0,1-.38.264,0.385,0.385,0,0,1-.248-0.282,0.447,0.447,0,0,1,.277-0.295A1.071,1.071,0,0,1,971.54,728.044Zm-1.683,2a0.973,0.973,0,0,1-.393.224,0.824,0.824,0,0,1-.266-0.286,0.7,0.7,0,0,1,.288-0.214A1.063,1.063,0,0,1,969.857,730.039Zm1.472-4.547a1.139,1.139,0,0,1-.394.269,0.358,0.358,0,0,1-.242-0.238,0.444,0.444,0,0,1,.259-0.282A0.985,0.985,0,0,1,971.329,725.492Zm-3.137,5.844-0.429.229-0.1-.034a0.768,0.768,0,0,1,.094-0.344C967.925,731.037,968.064,731.135,968.192,731.336ZM965.4,721.9a1.666,1.666,0,0,1-.458.334,0.439,0.439,0,0,1-.26-0.249,0.645,0.645,0,0,1,.3-0.338A1.066,1.066,0,0,1,965.4,721.9Zm0.792-.017a1.274,1.274,0,0,1-.266-0.36,1.976,1.976,0,0,1,.338-0.379,0.763,0.763,0,0,1,.244.265A1.948,1.948,0,0,1,966.2,721.884Zm2.183-1.436a1.068,1.068,0,0,1-.268-0.381,1.3,1.3,0,0,1,.27-0.372,0.718,0.718,0,0,1,.26.244A1.871,1.871,0,0,1,968.378,720.448Zm-4.32,3.576a1.073,1.073,0,0,1-.245-0.387,0.643,0.643,0,0,1,.314-0.289,0.4,0.4,0,0,1,.221.231A1.736,1.736,0,0,1,964.058,724.024Zm-0.34-1.149a1.019,1.019,0,0,1-.25-0.388,0.479,0.479,0,0,1,.273-0.291,0.369,0.369,0,0,1,.258.226A1.5,1.5,0,0,1,963.718,722.875Zm4.057-.633a1.062,1.062,0,0,1-.241-0.4,0.881,0.881,0,0,1,.256-0.3,0.683,0.683,0,0,1,.238.27A1.211,1.211,0,0,1,967.775,722.242Zm2.274-3.663a1.37,1.37,0,0,1-.275-0.409,0.341,0.341,0,0,1,.209-0.235,0.481,0.481,0,0,1,.3.243A1.063,1.063,0,0,1,970.049,718.579Zm1.244,17.285a0.7,0.7,0,0,1,.19.292,1.067,1.067,0,0,1-.318.393,0.561,0.561,0,0,1-.262-0.219,2.149,2.149,0,0,1,.251-0.472Zm0.12-.8a0.752,0.752,0,0,1,.4.047,0.5,0.5,0,0,1,.031.4,0.3,0.3,0,0,1-.277.1,0.649,0.649,0,0,1-.187-0.327,0.541,0.541,0,0,1,.049-0.234Zm-0.6,2.911a1.174,1.174,0,0,1-.268-0.4,0.345,0.345,0,0,1,.243-0.236,0.414,0.414,0,0,1,.268.262A0.968,0.968,0,0,1,970.815,737.98Zm-1.494-.831a0.831,0.831,0,0,1,.367.156,0.737,0.737,0,0,1-.037.378l-0.125.025-0.292-.413Zm15.269-14.323a1.055,1.055,0,0,1-.395.24,1.275,1.275,0,0,1-.324-0.32,0.65,0.65,0,0,1,.282-0.215A1.436,1.436,0,0,1,984.59,722.826Zm0.869,0.883a0.981,0.981,0,0,1-.375.283,0.375,0.375,0,0,1-.245-0.279,0.381,0.381,0,0,1,.241-0.288A1,1,0,0,1,985.459,723.709Zm-1.633.069a0.963,0.963,0,0,1,.248.366,0.418,0.418,0,0,1-.259.273,0.349,0.349,0,0,1-.256-0.228A1.208,1.208,0,0,1,983.826,723.778ZM983.3,722.9a0.978,0.978,0,0,1-.37.259,0.8,0.8,0,0,1-.282-0.263,0.721,0.721,0,0,1,.273-0.242A1.008,1.008,0,0,1,983.3,722.9ZM985.121,740a1.7,1.7,0,0,1-.3-0.456,0.413,0.413,0,0,1,.29-0.217,0.661,0.661,0,0,1,.326.314A1.651,1.651,0,0,1,985.121,740Zm-0.314.658a1.169,1.169,0,0,1-.434.236,0.347,0.347,0,0,1-.215-0.272,0.368,0.368,0,0,1,.269-0.236A1.046,1.046,0,0,1,984.807,740.661Zm1.06-.175a0.975,0.975,0,0,1-.369.241,0.447,0.447,0,0,1-.238-0.3,0.355,0.355,0,0,1,.255-0.222A0.987,0.987,0,0,1,985.867,740.486Zm-1.594-.166c-0.449.086-.541,0-0.433-0.366Zm-5.947-12.972,0.432-.335a1.282,1.282,0,0,1,.233.354,0.249,0.249,0,0,1-.252.352A1.347,1.347,0,0,1,978.326,727.348Zm0.058,1.93a1.186,1.186,0,0,1-.337-0.375,0.251,0.251,0,0,1,.334-0.278,1.041,1.041,0,0,1,.329.266Zm-0.22-2.4a1.14,1.14,0,0,1-.393.266,1.279,1.279,0,0,1-.316-0.343,0.735,0.735,0,0,1,.306-0.239A1.2,1.2,0,0,1,978.164,726.879ZM977.4,728.21c-0.088-.457,0-0.55.361-0.44Zm7.585,3.665a2.644,2.644,0,0,1-.559.272,0.793,0.793,0,0,1-.269-0.274,3.191,3.191,0,0,1,.532-0.347,0.7,0.7,0,0,1,.289.2C984.979,731.775,984.981,731.825,984.984,731.875Zm1.062-.06a1.055,1.055,0,0,1-.4.259,0.416,0.416,0,0,1-.307-0.506,0.737,0.737,0,0,1,.266-0.286Zm-0.321.544a1.041,1.041,0,0,1,.221.408,1.067,1.067,0,0,1-.279.33,0.728,0.728,0,0,1-.245-0.3A1.355,1.355,0,0,1,985.725,732.359Zm-1.175,1.006a1.045,1.045,0,0,1-.245-0.387,0.362,0.362,0,0,1,.236-0.248,0.446,0.446,0,0,1,.274.269A1,1,0,0,1,984.55,733.365Zm-9.694.685c0.006-.134.01-0.245,0.019-0.435l0.374,0.307a1.637,1.637,0,0,1-.186.445,0.613,0.613,0,0,1-.361.2,0.253,0.253,0,0,1-.312-0.308,0.638,0.638,0,0,1,.313-0.235A0.314,0.314,0,0,1,974.856,734.05Zm0.96,0.952a1.018,1.018,0,0,1-.362.268,0.36,0.36,0,0,1-.253-0.224,0.449,0.449,0,0,1,.244-0.3A0.97,0.97,0,0,1,975.816,735Zm4,2.008a1.177,1.177,0,0,1-.242-0.422,0.349,0.349,0,0,1,.259-0.223,0.418,0.418,0,0,1,.248.285A0.99,0.99,0,0,1,979.815,737.01Zm-0.266-.176a1,1,0,0,1,.254.377,0.394,0.394,0,0,1-.267.254,0.353,0.353,0,0,1-.237-0.253A1.015,1.015,0,0,1,979.549,736.834Z" transform="translate(-962 -707)"/>
</svg>
