<svg xmlns="http://www.w3.org/2000/svg" width="29" height="23" viewBox="0 0 29 23">
  <metadata><?xpacket begin="﻿" id="W5M0MpCehiHzreSzNTczkc9d"?>
<x:xmpmeta xmlns:x="adobe:ns:meta/" x:xmptk="Adobe XMP Core 5.6-c142 79.160924, 2017/07/13-01:06:39        ">
   <rdf:RDF xmlns:rdf="http://www.w3.org/1999/02/22-rdf-syntax-ns#">
      <rdf:Description rdf:about=""/>
   </rdf:RDF>
</x:xmpmeta>
                                                                                                    
                                                                                                    
                                                                                                    
                                                                                                    
                                                                                                    
                                                                                                    
                                                                                                    
                                                                                                    
                                                                                                    
                                                                                                    
                                                                                                    
                                                                                                    
                                                                                                    
                                                                                                    
                                                                                                    
                                                                                                    
                                                                                                    
                                                                                                    
                                                                                                    
                                                                                                    
                           
<?xpacket end="w"?></metadata>
<defs>
    <style>
      .cls-1 {
        fill: #9f9f9f;
        fill-rule: evenodd;
      }
    </style>
  </defs>
  <path id="kinder05-compare" class="cls-1" d="M690.873,752.482q0-5.4,0-10.791c0-.571.116-0.691,0.664-0.691h12.812c0.52,0,.646.14,0.646,0.68q0,8.979,0,17.956a1.4,1.4,0,0,1-.411,1.086c-0.917.942-1.793,1.929-2.668,2.914a0.945,0.945,0,0,1-.855.361c-0.861-.05-1.727-0.017-2.59-0.017h-6.959c-0.531,0-.643-0.119-0.643-0.676Q690.872,757.894,690.873,752.482Zm10.077,10.589v-0.352q0-1.224,0-2.449a0.481,0.481,0,0,1,.577-0.592c0.728,0,1.456,0,2.184,0,0.417,0,.417,0,0.417-0.42V742.328c0-.432,0-0.435-0.4-0.435q-5.84,0-11.677,0a0.262,0.262,0,0,0-.314.326q0.008,10.263.005,20.526c0,0.107.014,0.214,0.023,0.331h9.189Zm0.89-2.482V762.4l1.651-1.814H701.84ZM676,752.481V741.655c0-.536.114-0.654,0.632-0.655h12.9c0.437,0,.572.172,0.57,0.631-0.01,2-.008,3.992-0.008,5.988q0,6.138,0,12.276a0.977,0.977,0,0,1-.287.721c-0.9.964-1.787,1.935-2.661,2.923a1.179,1.179,0,0,1-1.023.461c-1.493-.047-2.989-0.018-4.485-0.019q-2.534,0-5.068,0c-0.464,0-.578-0.126-0.578-0.613V752.481Zm13.214-10.563H676.881v21.147h9.2c0.006-.126.014-0.234,0.014-0.342,0-.826,0-1.652,0-2.479a0.465,0.465,0,0,1,.543-0.566c0.689,0,1.378,0,2.067,0h0.506V741.918Zm-2.225,18.67V762.4l1.652-1.814h-1.652Zm12.687-13.957a1.761,1.761,0,0,1,.126,2.634,1.731,1.731,0,0,1-1.165.48c-0.737.031-1.474,0.037-2.211,0.028a0.811,0.811,0,0,1-.9-0.938q-0.014-1.994,0-3.989a0.824,0.824,0,0,1,.922-0.943,17.878,17.878,0,0,1,2.294.062,1.567,1.567,0,0,1,.99,2.574C699.716,746.563,699.7,746.589,699.676,746.631Zm-3.585.179h0c0,0.654,0,1.308,0,1.962,0,0.367.048,0.422,0.405,0.421,0.678,0,1.357,0,2.034-.035a1.686,1.686,0,0,0,.694-0.187,1.12,1.12,0,0,0,.231-1.741,0.742,0.742,0,0,1-.113-1.129,0.937,0.937,0,0,0,.151-0.826,1.041,1.041,0,0,0-1.083-.779c-0.649-.017-1.3,0-1.948-0.013a0.322,0.322,0,0,0-.376.4C696.1,745.522,696.091,746.166,696.091,746.81Zm1.749,7.973h3.812a0.447,0.447,0,0,1,.551.428,0.457,0.457,0,0,1-.553.464q-3.8,0-7.6,0a0.5,0.5,0,0,1-.563-0.321,0.443,0.443,0,0,1,.477-0.576q1.935,0,3.871,0h0Zm0.024,2.355q1.891,0,3.783,0a0.449,0.449,0,0,1,.556.451,0.461,0.461,0,0,1-.548.442q-3.811,0-7.624,0a0.455,0.455,0,0,1-.554-0.463,0.444,0.444,0,0,1,.546-0.432h3.841v0Zm-0.022-3.817c-1.271,0-2.542.009-3.812-.01a0.685,0.685,0,0,1-.489-0.229,0.428,0.428,0,0,1,.424-0.654q1.674,0,3.347,0h4.336a0.456,0.456,0,1,1,.007.892h-3.813Zm-2.3,6.172c0.524,0,1.048,0,1.572,0a0.416,0.416,0,0,1,.49.426,0.437,0.437,0,0,1-.492.466q-1.572.007-3.144,0a0.439,0.439,0,0,1-.492-0.467,0.425,0.425,0,0,1,.494-0.426c0.524,0,1.048,0,1.572,0v0Zm-10.7-9.623a0.664,0.664,0,0,1-.576-0.4,6.558,6.558,0,0,1-.3-0.719,0.286,0.286,0,0,0-.316-0.233c-0.407.013-.815,0.014-1.222,0a0.3,0.3,0,0,0-.33.255,5.125,5.125,0,0,1-.267.667,0.688,0.688,0,0,1-.845.4,0.766,0.766,0,0,1-.571-0.834,1.6,1.6,0,0,1,.1-0.408c0.5-1.329,1-2.659,1.51-3.984a1.017,1.017,0,0,1,1.268-.772,1.08,1.08,0,0,1,.755.766q0.663,1.706,1.325,3.412a6.736,6.736,0,0,1,.3.879A0.8,0.8,0,0,1,684.84,749.87ZM683,744.394a0.49,0.49,0,0,0-.433.406l-0.928,2.439c-0.209.551-.427,1.1-0.617,1.658a0.4,0.4,0,0,0,.084.353c0.164,0.114.231-.061,0.281-0.191,0.108-.28.219-0.559,0.31-0.845a0.355,0.355,0,0,1,.388-0.281c0.64,0.007,1.28,0,1.92,0a0.363,0.363,0,0,1,.382.293,6.917,6.917,0,0,0,.337.865,0.677,0.677,0,0,0,.28.17,1.382,1.382,0,0,0,.094-0.334,0.82,0.82,0,0,0-.091-0.283c-0.162-.419-0.327-0.838-0.49-1.257l-0.989-2.543A0.548,0.548,0,0,0,683,744.394Zm-0.1,11.283c-1.261,0-2.522,0-3.783,0a0.481,0.481,0,0,1-.535-0.318,0.439,0.439,0,0,1,.473-0.577c1.058,0,2.115,0,3.173,0h4.511a0.451,0.451,0,0,1,.553.457,0.456,0.456,0,0,1-.55.436Q684.819,755.679,682.9,755.677Zm0.034,1.461c1.3,0,2.6,0,3.9,0a0.422,0.422,0,0,1,.459.432,0.445,0.445,0,0,1-.442.46c-0.067,0-.135,0-0.2,0h-7.508a1.26,1.26,0,0,1-.174,0,0.442,0.442,0,0,1-.4-0.471,0.408,0.408,0,0,1,.439-0.417c0.727-.007,1.455,0,2.183,0h1.746v0Zm0-3.817c-1.29,0-2.58,0-3.87,0a0.41,0.41,0,0,1-.468-0.314,0.78,0.78,0,0,1,.143-0.48,0.426,0.426,0,0,1,.317-0.1q3.871-.007,7.741,0a0.438,0.438,0,0,1,.5.457,0.432,0.432,0,0,1-.489.434c-1.29,0-2.58,0-3.871,0h0Zm-2.287,6.171c0.514,0,1.029,0,1.543,0a0.425,0.425,0,0,1,.507.44,0.44,0.44,0,0,1-.506.453q-1.558.007-3.116,0a0.445,0.445,0,0,1-.507-0.454,0.423,0.423,0,0,1,.506-0.44C679.593,759.49,680.118,759.492,680.642,759.492ZM696.566,747.9a4.838,4.838,0,0,1,.011-0.723,0.428,0.428,0,0,1,.229-0.308,12.259,12.259,0,0,1,1.736.066,0.881,0.881,0,0,1,.746.878,0.954,0.954,0,0,1-.6,1,3.4,3.4,0,0,1-.879.149c-0.279.023-.562,0.008-0.843,0-0.328,0-.394-0.073-0.4-0.4,0-.111,0-0.222,0-0.333V747.9Zm0.581,0.469c0.411,0,.788.015,1.163,0a0.406,0.406,0,0,0,.414-0.414,0.379,0.379,0,0,0-.344-0.466c-0.406-.033-0.817-0.009-1.233-0.009v0.894Zm0.286-1.684c-0.931-.012-0.874.033-0.867-0.92,0-.242,0-0.484,0-0.726a0.294,0.294,0,0,1,.321-0.34c0.465,0.009.932,0.009,1.394,0.058a0.827,0.827,0,0,1,.792.874,0.918,0.918,0,0,1-.774.976C698.015,746.656,697.722,746.661,697.433,746.686Zm-0.284-.59c0.38-.024.726-0.037,1.069-0.07a0.339,0.339,0,0,0,.292-0.383,0.267,0.267,0,0,0-.286-0.3c-0.351-.034-0.7-0.05-1.075-0.074V746.1ZM683.024,747.7c-0.233,0-.466,0-0.7,0a0.281,0.281,0,0,1-.312-0.4c0.235-.723.487-1.441,0.749-2.154a0.34,0.34,0,0,1,.253-0.194,0.394,0.394,0,0,1,.282.209c0.264,0.712.51,1.431,0.75,2.152a0.272,0.272,0,0,1-.268.387c-0.252.012-.5,0-0.756,0v0Zm-0.341-.614h0.687l-0.346-.982C682.894,746.482,682.8,746.769,682.683,747.089Z" transform="translate(-676 -741)"/>
</svg>
