<?xml version="1.0" encoding="utf-8"?>
<!-- Generator: Adobe Illustrator 22.1.0, SVG Export Plug-In . SVG Version: 6.00 Build 0)  -->
<svg version="1.1" id="Layer_1" xmlns="http://www.w3.org/2000/svg" xmlns:xlink="http://www.w3.org/1999/xlink" x="0px" y="0px"
	 viewBox="0 0 193.5 38.9" style="enable-background:new 0 0 193.5 38.9;" xml:space="preserve">
<style type="text/css">
	.st0{fill:#EC4233;}
	.st1{fill:#2556A4;}
</style>
<path class="st0" d="M36.1,0.7L22.5,4.8c-1.6,0.5-3.2,0.5-4.8-0.1L3.9,0.2C2-0.5,0,0.9,0,2.9v3.8v25.8c0,2.6,1.7,4.9,4.1,5.8l-2.9-1
	l2.9,1c1.6,0.5,3.3-0.7,3.3-2.3V19.3v-1.8v-2v-2.6v-1.8v-2l10.5,3.5c1.3,0.4,2.6,0.4,3.9,0l10.1-3.1v1.6v1.8v3v1.6v1.8v16.7
	c0,2,1.9,3.4,3.8,2.8l-0.1,0.2c2.1-0.6,3.5-2.6,3.5-4.7V6.8V3C39.2,1.4,37.7,0.3,36.1,0.7z"/>
<path class="st1" d="M47.2,4.6c0.8,0,1.5,0.3,2,0.8c0.6,0.6,0.9,1.3,0.9,2c0,0.8-0.3,1.5-0.9,2c-0.6,0.6-1.2,0.8-2,0.8
	c-0.8,0-1.5-0.3-2-0.8c-0.6-0.6-0.9-1.3-0.9-2c0-0.8,0.3-1.5,0.9-2C45.7,4.9,46.4,4.6,47.2,4.6z M47.2,38.9c0.8,0,1.5-0.3,2-0.9
	c0.6-0.6,0.9-1.2,0.9-2V15.8c0-0.8-0.3-1.5-0.9-2c-0.6-0.6-1.2-0.9-2-0.9c-0.8,0-1.5,0.3-2,0.9c-0.6,0.6-0.9,1.3-0.9,2V36
	c0,0.8,0.3,1.5,0.9,2C45.7,38.6,46.4,38.9,47.2,38.9z"/>
<path class="st1" d="M73,38.1c-0.6-0.5-0.8-1.2-0.8-2V24.6c0-1.5-0.5-2.7-1.5-3.7c-1-1-2.3-1.6-3.7-1.6h-0.1c-1.5,0-2.7,0.5-3.7,1.6
	c-1,1-1.6,2.3-1.6,3.7v11.5c0,0.8-0.3,1.4-0.8,2c-0.6,0.6-1.2,0.8-2,0.8s-1.4-0.3-2-0.8c-0.6-0.5-0.8-1.2-0.8-2V24.6
	c0-3,1.1-5.6,3.2-7.7c2.1-2.1,4.7-3.2,7.7-3.2h0.1c3,0,5.6,1.1,7.7,3.2c2.1,2.1,3.2,4.7,3.2,7.7v11.5c0,0.8-0.3,1.4-0.8,2
	c-0.6,0.6-1.2,0.8-2,0.8C74.2,38.9,73.5,38.6,73,38.1z"/>
<path class="st1" d="M91.6,14.3c1.8,0,3.5,0.4,5.1,1.3V7.3c0-0.8,0.3-1.4,0.8-1.9c0.5-0.5,1.2-0.8,1.9-0.8c0.8,0,1.4,0.3,1.9,0.8
	c0.5,0.5,0.8,1.2,0.8,1.9v21c0,2.9-1,5.4-3.1,7.5c-2.1,2.1-4.6,3.1-7.5,3.1h-0.1c-2.9,0-5.4-1-7.5-3.1c-2.1-2.1-3.1-4.6-3.1-7.5
	v-3.4c0-2.9,1-5.4,3.1-7.5C86.1,15.4,88.6,14.3,91.6,14.3L91.6,14.3z M86.4,28.3c0,1.4,0.5,2.6,1.5,3.6c1,1,2.2,1.5,3.6,1.5h0.1
	c1.4,0,2.6-0.5,3.6-1.5c1-1,1.5-2.2,1.5-3.6v-3.4c0-1.4-0.5-2.6-1.5-3.6c-1-1-2.2-1.5-3.6-1.5h-0.1c-1.4,0-2.6,0.5-3.6,1.5
	c-1,1-1.5,2.2-1.5,3.6V28.3z"/>
<path class="st0" d="M141.7,0.7l-13.7,4.1c-1.6,0.5-3.2,0.5-4.8-0.1l-13.8-4.6c-1.9-0.6-3.9,0.8-3.9,2.8v3.8v25.8
	c0,2.6,1.7,4.9,4.1,5.8l-2.9-1l2.9,1c1.6,0.5,3.3-0.7,3.3-2.3V19.3v-1.8v-2v-2.6v-1.8v-2l10.5,3.5c1.3,0.4,2.6,0.4,3.9,0l10.1-3.1
	v1.6v1.8v3v1.6v1.8v16.7c0,2,1.9,3.4,3.8,2.8l-0.1,0.2c2.1-0.6,3.5-2.6,3.5-4.7V6.8V3C144.8,1.4,143.2,0.3,141.7,0.7z"/>
<path class="st1" d="M169.6,36.1c0,0.8-0.3,1.4-0.8,2c-0.5,0.6-1.2,0.8-2,0.8c-1.1,0-2-0.5-2.5-1.5c-1.7,1-3.6,1.5-5.6,1.5h-0.1
	c-3,0-5.5-1.1-7.7-3.2c-2.1-2.1-3.2-4.7-3.2-7.7v-3.5c0-3,1.1-5.6,3.2-7.7c2.1-2.1,4.7-3.2,7.7-3.2h0.1c3,0,5.6,1.1,7.7,3.2
	c2.1,2.1,3.2,4.7,3.2,7.7V36.1z M158.7,33.3c1.5,0,2.7-0.5,3.7-1.5c1-1,1.6-2.3,1.6-3.7v-3.5c0-1.5-0.5-2.7-1.6-3.7
	c-1-1-2.3-1.6-3.7-1.6h-0.1c-1.4,0-2.7,0.5-3.7,1.6c-1,1-1.5,2.3-1.5,3.7v3.5c0,1.4,0.5,2.7,1.5,3.7C156,32.8,157.2,33.3,158.7,33.3
	L158.7,33.3z"/>
<path class="st1" d="M192.9,34.4c0.5,0.6,0.7,1.3,0.6,2.1c-0.1,0.8-0.5,1.4-1.1,1.9c-0.5,0.4-1.1,0.6-1.7,0.6
	c-0.9,0-1.7-0.4-2.2-1.1l-5.2-6.8l-5.2,6.8c-0.6,0.7-1.3,1.1-2.3,1.1c-0.6,0-1.2-0.2-1.7-0.6c-0.6-0.5-1-1.1-1.1-1.9
	c-0.1-0.8,0.1-1.5,0.5-2.1l6.2-8.1l-6.2-8.1c-0.5-0.6-0.6-1.3-0.5-2.1c0.1-0.8,0.5-1.4,1.1-1.9c0.6-0.5,1.3-0.6,2.1-0.5
	c0.8,0.1,1.4,0.5,1.9,1.1l5.2,6.8l5.2-6.8c0.5-0.6,1.1-1,1.9-1.1c0.8-0.1,1.5,0.1,2.1,0.5c0.6,0.5,1,1.1,1.1,1.9
	c0.1,0.8-0.1,1.5-0.6,2.1l-6.1,8.1L192.9,34.4z"/>
</svg>
