<svg xmlns="http://www.w3.org/2000/svg" width="22" height="22" viewBox="0 0 22 22">
  <metadata><?xpacket begin="﻿" id="W5M0MpCehiHzreSzNTczkc9d"?>
<x:xmpmeta xmlns:x="adobe:ns:meta/" x:xmptk="Adobe XMP Core 5.6-c142 79.160924, 2017/07/13-01:06:39        ">
   <rdf:RDF xmlns:rdf="http://www.w3.org/1999/02/22-rdf-syntax-ns#">
      <rdf:Description rdf:about=""/>
   </rdf:RDF>
</x:xmpmeta>
                                                                                                    
                                                                                                    
                                                                                                    
                                                                                                    
                                                                                                    
                                                                                                    
                                                                                                    
                                                                                                    
                                                                                                    
                                                                                                    
                                                                                                    
                                                                                                    
                                                                                                    
                                                                                                    
                                                                                                    
                                                                                                    
                                                                                                    
                                                                                                    
                                                                                                    
                                                                                                    
                           
<?xpacket end="w"?></metadata>
<defs>
    <style>
      .cls-1 {
        fill: #fff;
        fill-rule: evenodd;
      }
    </style>
  </defs>
  <path id="mathhead02" class="cls-1" d="M329.506,109.433a0.368,0.368,0,0,0,.494.16,31.385,31.385,0,0,1,3.244-1.443,0.367,0.367,0,0,0-.221-0.7,31.515,31.515,0,0,0-3.356,1.49A0.367,0.367,0,0,0,329.506,109.433Zm0.328-4.2a0.356,0.356,0,0,0,.166-0.04,31.385,31.385,0,0,1,3.244-1.443,0.367,0.367,0,0,0-.221-0.7,31.515,31.515,0,0,0-3.356,1.49A0.366,0.366,0,0,0,329.834,105.233Zm8.8-.733a0.366,0.366,0,0,0-.366.367v14.3a1.1,1.1,0,0,1-1.1,1.1h-8.8v-0.844a10.8,10.8,0,0,1,3.3-.623,18.863,18.863,0,0,1,5.384.715,0.371,0.371,0,0,0,.33-0.051,0.366,0.366,0,0,0,.152-0.3V103.033a0.365,0.365,0,0,0-.287-0.357s-0.287-.065-0.779-0.155a0.366,0.366,0,0,0-.132.721c0.187,0.035.344,0.065,0.465,0.09v15.347a20.708,20.708,0,0,0-5.133-.612,11.524,11.524,0,0,0-3.653.7,8.582,8.582,0,0,0-3.314-.7,24.682,24.682,0,0,0-5.5.628V103.317a24.145,24.145,0,0,1,5.5-.65,7.951,7.951,0,0,1,2.933.6V117.7a0.367,0.367,0,0,0,.556.314,41.967,41.967,0,0,1,6.893-3.266,0.367,0.367,0,0,0,.251-0.348V99.367a0.367,0.367,0,0,0-.5-0.343,39.053,39.053,0,0,0-5.931,2.966,0.367,0.367,0,0,0,.388.622A39.222,39.222,0,0,1,334.6,99.9v14.234a41.066,41.066,0,0,0-6.233,2.926v-14.03a0.368,0.368,0,0,0-.2-0.328,8.494,8.494,0,0,0-3.464-.772,23.791,23.791,0,0,0-5.968.748,0.366,0.366,0,0,0-.265.352v16.134a0.365,0.365,0,0,0,.366.366,0.347,0.347,0,0,0,.1-0.014,23.551,23.551,0,0,1,5.766-.719,7.941,7.941,0,0,1,2.933.6v0.863h-8.8a1.1,1.1,0,0,1-1.1-1.1v-14.3a0.367,0.367,0,1,0-.733,0v14.3A1.835,1.835,0,0,0,318.833,121h18.334A1.836,1.836,0,0,0,339,119.167v-14.3A0.367,0.367,0,0,0,338.633,104.5Zm-9.127,2.733a0.368,0.368,0,0,0,.494.16,31.385,31.385,0,0,1,3.244-1.443,0.367,0.367,0,0,0-.221-0.7,31.515,31.515,0,0,0-3.356,1.49A0.367,0.367,0,0,0,329.506,107.233Zm0,4.4a0.368,0.368,0,0,0,.494.16,31.385,31.385,0,0,1,3.244-1.443,0.367,0.367,0,0,0-.221-0.7,31.515,31.515,0,0,0-3.356,1.49A0.367,0.367,0,0,0,329.506,111.633Zm-3.622-5.828a11.632,11.632,0,0,0-4.946.174,0.367,0.367,0,0,0,.1.721,0.393,0.393,0,0,0,.095-0.012,11.052,11.052,0,0,1,4.588-.17A0.366,0.366,0,1,0,325.884,105.805Zm0,2.2a11.65,11.65,0,0,0-4.946.174,0.367,0.367,0,0,0,.1.721,0.393,0.393,0,0,0,.095-0.012,11.052,11.052,0,0,1,4.588-.17A0.366,0.366,0,1,0,325.884,108.005Zm3.622,5.828a0.368,0.368,0,0,0,.494.16,31.385,31.385,0,0,1,3.244-1.443,0.367,0.367,0,0,0-.221-0.7,31.515,31.515,0,0,0-3.356,1.49A0.367,0.367,0,0,0,329.506,113.833Zm-3.622-3.628a11.65,11.65,0,0,0-4.946.174,0.367,0.367,0,0,0,.1.721,0.351,0.351,0,0,0,.095-0.013,11.079,11.079,0,0,1,4.588-.169A0.366,0.366,0,1,0,325.884,110.205Zm0,4.4a11.632,11.632,0,0,0-4.946.174,0.367,0.367,0,0,0,.1.721,0.351,0.351,0,0,0,.095-0.013,11.06,11.06,0,0,1,4.588-.169A0.366,0.366,0,1,0,325.884,114.605Zm0-2.2a11.632,11.632,0,0,0-4.946.174,0.367,0.367,0,0,0,.1.721,0.351,0.351,0,0,0,.095-0.013,11.079,11.079,0,0,1,4.588-.169A0.366,0.366,0,1,0,325.884,112.405Z" transform="translate(-317 -99)"/>
</svg>
