<svg xmlns="http://www.w3.org/2000/svg" width="22" height="22" viewBox="0 0 22 22">
  <metadata><?xpacket begin="﻿" id="W5M0MpCehiHzreSzNTczkc9d"?>
<x:xmpmeta xmlns:x="adobe:ns:meta/" x:xmptk="Adobe XMP Core 5.6-c142 79.160924, 2017/07/13-01:06:39        ">
   <rdf:RDF xmlns:rdf="http://www.w3.org/1999/02/22-rdf-syntax-ns#">
      <rdf:Description rdf:about=""/>
   </rdf:RDF>
</x:xmpmeta>
                                                                                                    
                                                                                                    
                                                                                                    
                                                                                                    
                                                                                                    
                                                                                                    
                                                                                                    
                                                                                                    
                                                                                                    
                                                                                                    
                                                                                                    
                                                                                                    
                                                                                                    
                                                                                                    
                                                                                                    
                                                                                                    
                                                                                                    
                                                                                                    
                                                                                                    
                                                                                                    
                           
<?xpacket end="w"?></metadata>
<defs>
    <style>
      .cls-1 {
        fill: #fff;
        fill-rule: evenodd;
      }
    </style>
  </defs>
  <path id="mathhead04" class="cls-1" d="M853,104.2c-0.022-1.867-.978-2.9-2.691-2.9a6.075,6.075,0,0,0-1.72.283c0.042-.763.042-1.234,0.042-1.257V100H835.369v0.327c0,0.011,0,.489.043,1.258a6.038,6.038,0,0,0-1.721-.284c-1.713,0-2.669,1.029-2.691,2.9a8.966,8.966,0,0,0,1.245,4.861,7.869,7.869,0,0,0,2.642,2.633,6.181,6.181,0,0,0,3.181.87,5.208,5.208,0,0,0,.558-0.028l0.034,0a5.03,5.03,0,0,0,1.236.987,1.285,1.285,0,0,1,.628.859,1.076,1.076,0,0,0,.03,2.064v1.371h-1.768v1.431h-1.744V122h9.917v-2.758h-1.745v-1.431h-1.768V116.44a1.076,1.076,0,0,0,.03-2.064,1.285,1.285,0,0,1,.628-0.859,5.058,5.058,0,0,0,1.237-.987,5.4,5.4,0,0,0,.591.031h0a6.175,6.175,0,0,0,3.18-.87,7.87,7.87,0,0,0,2.643-2.633A8.975,8.975,0,0,0,853,104.2Zm-5.027-3.544c0,0.12-.008.27-0.015,0.446H836.044c-0.008-.176-0.013-0.326-0.016-0.446h11.945Zm0.444,3a5.158,5.158,0,0,1,1.531-.3,1.179,1.179,0,0,1,.922.313,1.494,1.494,0,0,1,.2,1.192,6.91,6.91,0,0,1-2.808,5.056,3.567,3.567,0,0,1-1.552.522A22.361,22.361,0,0,0,848.417,103.653Zm-12.5,2.276a18.773,18.773,0,0,0,1.319,4.4l0.052,0.111a3.563,3.563,0,0,1-1.551-.522,6.91,6.91,0,0,1-2.808-5.056,1.491,1.491,0,0,1,.2-1.191,1.175,1.175,0,0,1,.922-0.313,5.133,5.133,0,0,1,1.532.3C835.663,104.361,835.771,105.136,835.919,105.929Zm2.149,5.978a5.524,5.524,0,0,1-2.844-.776,7.626,7.626,0,0,1-3.571-6.926c0.018-1.514.685-2.25,2.038-2.25a5.663,5.663,0,0,1,1.765.333c0.016,0.219.035,0.439,0.055,0.658a5.388,5.388,0,0,0-1.459-.242,1.783,1.783,0,0,0-1.414.537,2.088,2.088,0,0,0-.355,1.71,9.2,9.2,0,0,0,1.093,3.364,6.2,6.2,0,0,0,2.01,2.153,4.362,4.362,0,0,0,2.256.648l0.006,0.01c0.033,0.059.067,0.116,0.1,0.173,0.011,0.018.021,0.036,0.032,0.053,0.033,0.054.065,0.107,0.1,0.158,0.012,0.02.025,0.039,0.037,0.058l0.068,0.1,0.067,0.1,0.066,0.094,0.031,0.044h-0.081Zm8.237,7.989v1.451H837.7V119.9h8.61Zm-2.859-1.431h1.115v0.777H839.44v-0.777h4.006Zm-2.238-.654V116.48h1.585v1.331h-1.585Zm2.371-2.407a0.422,0.422,0,0,1-.422.422h-2.313a0.423,0.423,0,1,1,0-.845h2.313A0.422,0.422,0,0,1,843.579,115.4Zm1.635-3.736a0.171,0.171,0,0,1-.011.014c-0.032.042-.065,0.082-0.1,0.122l-0.024.03c-0.036.043-.072,0.086-0.108,0.127l0,0.006a4.5,4.5,0,0,1-1.183.979,1.945,1.945,0,0,0-.966,1.381h-1.639a1.943,1.943,0,0,0-.967-1.381,4.438,4.438,0,0,1-1.1-.887l-0.08-.092a7.27,7.27,0,0,1-.91-1.334l-0.085-.157c-1.4-2.715-1.83-6.639-1.958-8.724h11.847q-0.007.137-.018,0.282s0,0.009,0,.014c-0.007.105-.015,0.211-0.023,0.316,0,0,0,.007,0,0.01-0.026.335-.057,0.671-0.092,1l-0.022.2a20.812,20.812,0,0,1-1.8,6.882l-0.093.172A7.882,7.882,0,0,1,845.214,111.668Zm3.562-.537a5.523,5.523,0,0,1-2.843.776h-0.082l0,0c0.042-.059.084-0.118,0.125-0.178l0.015-.022c0.035-.052.069-0.1,0.1-0.156,0.008-.014.017-0.027,0.026-0.04l0.111-.179,0.017-.028c0.029-.05.059-0.1,0.088-0.151,0.007-.012.014-0.023,0.02-0.035a4.362,4.362,0,0,0,2.256-.648,6.2,6.2,0,0,0,2.01-2.152,9.212,9.212,0,0,0,1.093-3.365,2.088,2.088,0,0,0-.355-1.71,1.783,1.783,0,0,0-1.414-.537,5.388,5.388,0,0,0-1.459.242q0.031-.334.054-0.641c0-.005,0-0.011,0-0.017a5.669,5.669,0,0,1,1.765-.333c1.353,0,2.02.736,2.038,2.25A7.626,7.626,0,0,1,848.776,111.131Zm-9.511-.551-0.546.36a5.841,5.841,0,0,0,.6.764l0.478-.446A5.069,5.069,0,0,1,839.265,110.58Zm-1.4-3.623-0.637.145a12.747,12.747,0,0,0,1.244,3.428l0.568-.323A12.129,12.129,0,0,1,837.862,106.957Zm12.2,7.374v-0.654h-0.552v-0.552h-0.654v0.552h-0.552v0.654h0.552v0.552h0.653v-0.552h0.551Zm-14.218,3.393v-0.653h-0.463v-0.463h-0.654v0.463h-0.463v0.654h0.462v0.463h0.653v-0.463h0.463Zm-2.748-5.342h0.617v0.653H833.1v-0.653Zm3.962,1.933h0.616v0.654H837.06v-0.654ZM847,116.282h0.616v0.653H847v-0.653Z" transform="translate(-831 -100)"/>
</svg>
