<svg xmlns="http://www.w3.org/2000/svg" width="28" height="16.938" viewBox="0 0 28 16.938">
  <metadata><?xpacket begin="﻿" id="W5M0MpCehiHzreSzNTczkc9d"?>
<x:xmpmeta xmlns:x="adobe:ns:meta/" x:xmptk="Adobe XMP Core 5.6-c142 79.160924, 2017/07/13-01:06:39        ">
   <rdf:RDF xmlns:rdf="http://www.w3.org/1999/02/22-rdf-syntax-ns#">
      <rdf:Description rdf:about=""/>
   </rdf:RDF>
</x:xmpmeta>
                                                                                                    
                                                                                                    
                                                                                                    
                                                                                                    
                                                                                                    
                                                                                                    
                                                                                                    
                                                                                                    
                                                                                                    
                                                                                                    
                                                                                                    
                                                                                                    
                                                                                                    
                                                                                                    
                                                                                                    
                                                                                                    
                                                                                                    
                                                                                                    
                                                                                                    
                                                                                                    
                           
<?xpacket end="w"?></metadata>
<defs>
    <style>
      .cls-1 {
        fill: #fff;
        fill-rule: evenodd;
      }
    </style>
  </defs>
  <path id="mathhead01" class="cls-1" d="M162.5,105.5h-1.362v-1.475a0.928,0.928,0,1,0-1.851,0V105.5h-1.362a1.005,1.005,0,0,0,0,2h1.362v1.475a0.928,0.928,0,1,0,1.851,0V107.5H162.5A1.005,1.005,0,0,0,162.5,105.5Zm6.145,2h4.667a1.005,1.005,0,0,0,0-2h-4.667A1.005,1.005,0,0,0,168.641,107.5Zm-6.124,9.557,1.117-1.209a1.062,1.062,0,0,0,0-1.417,0.877,0.877,0,0,0-1.309,0l-1.117,1.209-1.117-1.209a0.876,0.876,0,0,0-1.308,0,1.06,1.06,0,0,0,0,1.417l1.117,1.209-1.117,1.209a1.06,1.06,0,0,0,0,1.417,0.876,0.876,0,0,0,1.308,0l1.117-1.209,1.117,1.209a0.878,0.878,0,0,0,1.309,0,1.062,1.062,0,0,0,0-1.417Zm7.031,2.626a0.878,0.878,0,0,0,1.309,0l3.543-3.835a1.062,1.062,0,0,0,0-1.417,0.877,0.877,0,0,0-1.309,0l-3.543,3.835A1.062,1.062,0,0,0,169.548,119.686Zm0.655-5.4a0.857,0.857,0,1,1-.79.855A0.824,0.824,0,0,1,170.2,114.288Zm3.543,3.835a0.857,0.857,0,1,1-.789.854A0.824,0.824,0,0,1,173.746,118.123Zm10.333-9.092h-4.73a1,1,0,0,0,0,2h4.73A1,1,0,0,0,184.079,109.031Zm0,3.5h-4.73a1.005,1.005,0,0,0,0,2h4.73A1.005,1.005,0,0,0,184.079,112.527Z" transform="translate(-157 -103.031)"/>
</svg>
