<svg xmlns="http://www.w3.org/2000/svg" width="24" height="20" viewBox="0 0 24 20">
  <metadata><?xpacket begin="﻿" id="W5M0MpCehiHzreSzNTczkc9d"?>
<x:xmpmeta xmlns:x="adobe:ns:meta/" x:xmptk="Adobe XMP Core 5.6-c142 79.160924, 2017/07/13-01:06:39        ">
   <rdf:RDF xmlns:rdf="http://www.w3.org/1999/02/22-rdf-syntax-ns#">
      <rdf:Description rdf:about=""/>
   </rdf:RDF>
</x:xmpmeta>
                                                                                                    
                                                                                                    
                                                                                                    
                                                                                                    
                                                                                                    
                                                                                                    
                                                                                                    
                                                                                                    
                                                                                                    
                                                                                                    
                                                                                                    
                                                                                                    
                                                                                                    
                                                                                                    
                                                                                                    
                                                                                                    
                                                                                                    
                                                                                                    
                                                                                                    
                                                                                                    
                           
<?xpacket end="w"?></metadata>
<defs>
    <style>
      .cls-1 {
        fill: #fff;
        fill-rule: evenodd;
      }
    </style>
  </defs>
  <path id="mathhead03" class="cls-1" d="M559,109.832a4.254,4.254,0,0,1,.325-0.608,1.363,1.363,0,0,1,1.155-.506c0.9,0,1.8-.016,2.693.011a6.163,6.163,0,0,1,1.014.206c0.2-.233.459-0.54,0.726-0.84a1.2,1.2,0,1,1,1.809,1.561c-0.49.585-.969,1.183-1.5,1.73a1.861,1.861,0,0,0-.581,1.505,1.347,1.347,0,0,1-1.474,1.466c-0.882,0-1.765,0-2.647,0a1.383,1.383,0,0,1-1.483-1.061,0.257,0.257,0,0,0-.038-0.057v-3.406Zm4.68-.307a1.44,1.44,0,0,0-.282-0.07c-1.014-.014-2.028-0.034-3.043-0.025a0.637,0.637,0,0,0-.65.683q-0.009,1.435,0,2.87a0.635,0.635,0,0,0,.621.663q1.5,0.024,3,0a0.606,0.606,0,0,0,.6-0.692c-0.077.071-.158,0.141-0.235,0.215a1.161,1.161,0,0,1-1.756-.06c-0.426-.505-0.831-1.031-1.212-1.571a1.147,1.147,0,0,1,.285-1.613,1.182,1.182,0,0,1,1.632.222c0.078,0.095.156,0.188,0.25,0.3Zm-0.847,3.375a2.672,2.672,0,0,0,.464-0.343c0.942-1.08,1.873-2.17,2.806-3.257a1.458,1.458,0,0,0,.178-0.245,0.478,0.478,0,0,0-.716-0.6,2.64,2.64,0,0,0-.307.318q-1.014,1.178-2.026,2.356c-0.27.314-.477,0.308-0.735-0.022-0.124-.16-0.243-0.324-0.371-0.481a0.49,0.49,0,0,0-.718-0.12,0.47,0.47,0,0,0-.073.7q0.537,0.72,1.1,1.421A1.9,1.9,0,0,0,562.833,112.9Zm-3.833-9.7c0.041-.107.075-0.219,0.126-0.322a1.319,1.319,0,0,1,1.224-.8c0.99-.013,1.982-0.019,2.973.005a4.113,4.113,0,0,1,.851.215c0.216-.251.473-0.561,0.742-0.859a1.2,1.2,0,0,1,1.582-.256,1.183,1.183,0,0,1,.235,1.806c-0.438.526-.872,1.059-1.344,1.554a2.237,2.237,0,0,0-.76,1.792,1.243,1.243,0,0,1-1.3,1.35c-1,.036-2,0.026-3,0a1.306,1.306,0,0,1-1.282-1c-0.014-.043-0.032-0.085-0.048-0.128v-3.36Zm4.644-.278c0-.028,0-0.056,0-0.083-0.2-.02-0.393-0.057-0.59-0.058-0.859-.007-1.717,0-2.576,0a0.681,0.681,0,0,0-.77.777q0,1.317,0,2.635a0.7,0.7,0,0,0,.828.816q1.3,0,2.6,0a1.536,1.536,0,0,0,.3-0.024,0.613,0.613,0,0,0,.487-0.7l-0.147.158a1.2,1.2,0,0,1-1.906-.046q-0.573-.708-1.112-1.442a1.171,1.171,0,0,1,.246-1.675,1.211,1.211,0,0,1,1.655.233c0.073,0.087.142,0.178,0.23,0.288C563.151,103.5,563.4,103.213,563.644,102.927Zm-1.941.756a2.172,2.172,0,0,0-.422.339,0.432,0.432,0,0,0,.051.54q0.525,0.687,1.054,1.369a0.508,0.508,0,0,0,.881.022q1.44-1.673,2.877-3.347a0.478,0.478,0,0,0,.15-0.23,1.053,1.053,0,0,0-.069-0.478,0.359,0.359,0,0,0-.442-0.177,0.946,0.946,0,0,0-.4.262c-0.734.837-1.454,1.686-2.182,2.528a0.376,0.376,0,0,1-.674-0.009c-0.138-.169-0.256-0.355-0.406-0.512A3.077,3.077,0,0,0,561.7,103.683Zm-2.7,12.4a1.058,1.058,0,0,1,1.163-.721c1.139,0.024,2.279.006,3.418,0.007a0.942,0.942,0,0,1,1.074,1.073q0,1.737,0,3.473a0.94,0.94,0,0,1-1.07,1.076c-1.14,0-2.279-.018-3.418.007a1.062,1.062,0,0,1-1.167-.715v-4.2Zm2.835,4.208c0.593,0,1.186,0,1.78,0,0.275,0,.336-0.056.337-0.322q0-1.783,0-3.569c0-.271-0.059-0.329-0.331-0.329q-1.792,0-3.584,0c-0.282,0-.333.05-0.334,0.324q0,1.783,0,3.569c0,0.275.052,0.326,0.328,0.327C560.633,120.294,561.234,120.293,561.835,120.293Zm13.475-5.937q-3.091,0-6.182,0a1.359,1.359,0,0,1-1.428-1.035,1.838,1.838,0,0,1-.044-0.439q-0.006-1.329,0-2.659a1.386,1.386,0,0,1,1.519-1.5q6.158,0,12.318,0a1.391,1.391,0,0,1,1.5,1.5q0,1.307,0,2.612a1.391,1.391,0,0,1-1.522,1.525Q578.39,114.358,575.31,114.356Zm0.017-.7h6.184a0.687,0.687,0,0,0,.777-0.775q0-1.341,0-2.682a0.688,0.688,0,0,0-.775-0.778q-6.173,0-12.345,0a0.7,0.7,0,0,0-.81.812q0,1.294,0,2.589a0.706,0.706,0,0,0,.832.835h6.137Zm0-5.945q-3.079,0-6.161,0a1.361,1.361,0,0,1-1.361-.763,1.743,1.743,0,0,1-.149-0.7c-0.016-.909-0.011-1.819,0-2.729a1.356,1.356,0,0,1,1.455-1.441c1.757,0,3.514,0,5.271,0a0.408,0.408,0,0,1,.443.23,0.335,0.335,0,0,1-.246.452,1.236,1.236,0,0,1-.279.019h-5.13a0.688,0.688,0,0,0-.812.8q0,1.319,0,2.636a0.68,0.68,0,0,0,.783.788q6.185,0,12.369,0a0.683,0.683,0,0,0,.778-0.772q0-1.355,0-2.707a0.672,0.672,0,0,0-.752-0.748q-2.6,0-5.2,0c-0.372,0-.55-0.121-0.542-0.365s0.173-.336.541-0.336h5.13a1.384,1.384,0,0,1,1.527,1.516q0,1.306,0,2.613a1.383,1.383,0,0,1-1.523,1.5Q578.4,107.714,575.33,107.711Zm0,7.66c2.03,0,4.06.022,6.09-.009A1.454,1.454,0,0,1,583,116.935c-0.035.862-.006,1.726-0.008,2.589a1.365,1.365,0,0,1-1.477,1.468q-2.611,0-5.223,0a1.233,1.233,0,0,1-.211-0.01,0.289,0.289,0,0,1-.273-0.32,0.609,0.609,0,0,1,.234-0.331,0.532,0.532,0,0,1,.294-0.037q2.565,0,5.13,0a0.7,0.7,0,0,0,.823-0.817q0-1.319,0-2.636a0.674,0.674,0,0,0-.756-0.768q-6.207,0-12.414,0a0.667,0.667,0,0,0-.759.761q0,1.353,0,2.706a0.665,0.665,0,0,0,.765.753q2.482,0,4.965,0c0.1,0,.2,0,0.3,0a0.374,0.374,0,0,1,.449.36,0.358,0.358,0,0,1-.438.34c-1.773,0-3.545.007-5.318,0a1.347,1.347,0,0,1-1.431-1.439c-0.007-.9,0-1.8,0-2.706a1.362,1.362,0,0,1,1.491-1.475Q572.238,115.368,575.33,115.371ZM575.3,104.549h5.08a0.56,0.56,0,0,1,.275.017,0.689,0.689,0,0,1,.267.3,0.273,0.273,0,0,1-.209.341,0.846,0.846,0,0,1-.275.036q-5.115,0-10.23,0a0.508,0.508,0,0,1-.293-0.045,0.486,0.486,0,0,1-.2-0.323,0.575,0.575,0,0,1,.256-0.311,0.531,0.531,0,0,1,.274-0.019H575.3Zm0.01,13.981h-5.033a2.278,2.278,0,0,1-.234-0.006,0.343,0.343,0,0,1-.008-0.686,2.277,2.277,0,0,1,.234-0.008q5.057,0,10.113,0a1.254,1.254,0,0,1,.3.025,0.338,0.338,0,0,1-.014.657,1.518,1.518,0,0,1-.3.018h-5.057v0Zm-0.006-6.641h-5.056a1.824,1.824,0,0,1-.234-0.006A0.344,0.344,0,0,1,570,111.2a1.455,1.455,0,0,1,.256-0.011q5.081,0,10.16,0a1.128,1.128,0,0,1,.233.011,0.344,0.344,0,0,1-.023.683,1.659,1.659,0,0,1-.234,0h-5.08Z" transform="translate(-559 -101)"/>
</svg>
