<svg xmlns="http://www.w3.org/2000/svg" viewBox="0 0 458.55 424.63"><defs><style>.cls-1{isolation:isolate;}.cls-11,.cls-17,.cls-18,.cls-2,.cls-3,.cls-6,.cls-8{fill:none;}.cls-10,.cls-18,.cls-2,.cls-4,.cls-5,.cls-6,.cls-7,.cls-9{stroke:#3f4752;}.cls-11,.cls-17,.cls-2,.cls-3,.cls-4,.cls-5,.cls-6,.cls-8{stroke-linecap:round;stroke-linejoin:round;}.cls-2,.cls-8{stroke-width:3px;}.cls-3{stroke:#bfc8d1;}.cls-10,.cls-18,.cls-3,.cls-4,.cls-5,.cls-6,.cls-7,.cls-9{stroke-width:2px;}.cls-4{fill:#04b6b6;}.cls-5,.cls-7{fill:#bfc8d1;}.cls-10,.cls-18,.cls-7,.cls-9{stroke-miterlimit:10;}.cls-11,.cls-8{stroke:#fff;}.cls-9{fill:#c3edec;}.cls-10,.cls-12{fill:#fff;}.cls-11,.cls-17{stroke-width:6px;}.cls-13{fill:#fca33d;}.cls-14{fill:#3f4752;}.cls-15,.cls-19,.cls-20{fill:#feded1;}.cls-16{fill:#fec0a7;}.cls-17{stroke:#fca33d;}.cls-19{opacity:0.5;mix-blend-mode:multiply;}.cls-20{opacity:0.26;mix-blend-mode:screen;}</style></defs><title>npworkshop01</title><g class="cls-1"><g id="Layer_2" data-name="Layer 2"><g id="Objects"><polyline class="cls-2" points="400.47 108.54 410.04 119.71 419.61 108.54"/><polyline class="cls-2" points="400.47 124.22 410.04 135.39 419.61 124.22"/><polyline class="cls-2" points="400.47 139.9 410.04 151.07 419.61 139.9"/><polyline class="cls-2" points="42.76 310.43 33.19 299.26 23.62 310.43"/><polyline class="cls-2" points="42.76 294.75 33.19 283.58 23.62 294.75"/><polyline class="cls-2" points="42.76 279.07 33.19 267.9 23.62 279.07"/><polyline class="cls-2" points="224.56 402.16 235.73 392.59 224.56 383.01"/><polyline class="cls-2" points="240.24 402.16 251.41 392.59 240.24 383.01"/><polyline class="cls-2" points="255.92 402.16 267.09 392.59 255.92 383.01"/><line class="cls-3" x1="105.7" y1="300.17" x2="77.78" y2="300.17"/><line class="cls-3" x1="105.7" y1="294.17" x2="62.78" y2="294.17"/><line class="cls-3" x1="342.73" y1="163.63" x2="384.61" y2="163.63"/><line class="cls-3" x1="342.73" y1="169.63" x2="366.61" y2="169.63"/><line class="cls-3" x1="6.66" y1="30.96" x2="68.54" y2="30.96"/><line class="cls-3" x1="6.66" y1="36.96" x2="78.54" y2="36.96"/><line class="cls-3" x1="324.8" y1="409.82" x2="396.68" y2="409.82"/><line class="cls-3" x1="304.8" y1="415.82" x2="386.68" y2="415.82"/><line class="cls-3" x1="11" y1="181.17" x2="42.88" y2="181.17"/><line class="cls-3" x1="1" y1="187.17" x2="42.88" y2="187.17"/><line class="cls-3" x1="424.68" y1="210.92" x2="445.55" y2="210.92"/><line class="cls-3" x1="425.68" y1="216.92" x2="457.55" y2="216.92"/><line class="cls-3" x1="194.57" y1="1" x2="215.45" y2="1"/><line class="cls-3" x1="195.57" y1="7" x2="227.45" y2="7"/><rect class="cls-4" x="67.91" y="95.34" width="23.19" height="146.84" transform="translate(159 337.52) rotate(180)"/><polygon class="cls-5" points="91.09 242.18 67.91 242.18 79.5 259.74 91.09 242.18"/><line class="cls-6" x1="79.5" y1="259.74" x2="79.5" y2="266.92"/><rect class="cls-5" x="74.19" y="84.72" width="10.62" height="10.62" transform="translate(159 180.06) rotate(180)"/><line class="cls-6" x1="67.91" y1="109.74" x2="58.86" y2="109.74"/><line class="cls-6" x1="58.86" y1="100.17" x2="58.86" y2="152.03"/><circle class="cls-7" cx="360.56" cy="265.33" r="14.22"/><line class="cls-8" x1="360.56" y1="256.83" x2="360.56" y2="273.83"/><line class="cls-8" x1="369.06" y1="265.33" x2="352.06" y2="265.33"/><circle class="cls-7" cx="167.47" cy="50.42" r="14.22"/><line class="cls-8" x1="175.97" y1="50.42" x2="158.97" y2="50.42"/><path class="cls-9" d="M405.39,321.17h-18C384.72,309.91,376,307.89,371,307.7a1.05,1.05,0,0,0-.69,1.87c5.56,4.32,3.46,11.6,3.46,11.6h-8.37a16,16,0,0,0-16,16v29a16,16,0,0,0,16,16h40a16,16,0,0,0,16-16v-29A16,16,0,0,0,405.39,321.17Z"/><circle class="cls-10" cx="385.39" cy="351.27" r="20.83" transform="translate(-85.46 575.36) rotate(-67.8)"/><polyline class="cls-2" points="373.38 351.27 385.39 351.27 385.39 337.69"/><path class="cls-9" d="M391.56,87h-18c-2.67,11.26-11.36,13.28-16.4,13.47a1,1,0,0,1-.69-1.87C362,94.23,359.93,87,359.93,87h-8.37a16,16,0,0,1-16-16V42a16,16,0,0,1,16-16h40a16,16,0,0,1,16,16V71A16,16,0,0,1,391.56,87Z"/><polyline class="cls-11" points="354.23 53.2 367.23 70.5 388.89 42.33"/><path class="cls-9" d="M307,47.94H293.18c-2.06,8.67-8.76,10.23-12.63,10.37a.81.81,0,0,1-.54-1.44c4.29-3.32,2.67-8.93,2.67-8.93h-6.45a12.36,12.36,0,0,1-12.32-12.32V23.29A12.36,12.36,0,0,1,276.23,11H307a12.36,12.36,0,0,1,12.32,12.32V35.62A12.36,12.36,0,0,1,307,47.94Z"/><path class="cls-12" d="M281.79,29a4.06,4.06,0,1,0-4.06,4.06A4.06,4.06,0,0,0,281.79,29Z"/><path class="cls-12" d="M295.69,29a4.06,4.06,0,1,0-4.05,4.06A4.05,4.05,0,0,0,295.69,29Z"/><path class="cls-12" d="M309.6,29a4.06,4.06,0,1,0-4.06,4.06A4.06,4.06,0,0,0,309.6,29Z"/><path class="cls-9" d="M50.62,353.08h18C71.29,341.82,80,339.8,85,339.61a1,1,0,0,1,.69,1.87c-5.56,4.32-3.46,11.6-3.46,11.6h8.37a16,16,0,0,1,16,16v29a16,16,0,0,1-16,16h-40a16,16,0,0,1-16-16v-29A16,16,0,0,1,50.62,353.08Z"/><line class="cls-11" x1="56.96" y1="398.18" x2="85.55" y2="369.59"/><line class="cls-11" x1="85.55" y1="398.18" x2="56.96" y2="369.59"/><circle class="cls-13" cx="380.34" cy="216.08" r="20.04"/><path class="cls-12" d="M380.34,225.73a1.54,1.54,0,0,1-1.54-1.54V215.8a1.54,1.54,0,0,1,1.54-1.54,4.52,4.52,0,1,0-4.52-4.51,1.54,1.54,0,0,1-3.08,0,7.6,7.6,0,1,1,9.14,7.44v7A1.54,1.54,0,0,1,380.34,225.73Z"/><path class="cls-12" d="M382.12,229.66a1.79,1.79,0,1,0-1.78,1.79A1.78,1.78,0,0,0,382.12,229.66Z"/><circle class="cls-13" cx="120.25" cy="31.53" r="20.04"/><path class="cls-12" d="M122,44a1.78,1.78,0,1,0-1.78,1.78A1.77,1.77,0,0,0,122,44Z"/><path class="cls-12" d="M120.25,39.3a1.67,1.67,0,0,1-1.67-1.67V19a1.67,1.67,0,0,1,3.34,0V37.63A1.67,1.67,0,0,1,120.25,39.3Z"/><circle class="cls-13" cx="172.08" cy="404.59" r="20.04" transform="translate(-87.64 49.84) rotate(-13.17)"/><path class="cls-12" d="M168.7,415.18h0a1.88,1.88,0,0,1-1.48-.75l-8.06-10.72a1.86,1.86,0,1,1,3-2.24l6.58,8.77,11.94-15.52A1.86,1.86,0,1,1,183.6,397l-13.43,17.46A1.86,1.86,0,0,1,168.7,415.18Z"/><rect class="cls-14" x="120.15" y="93.67" width="205" height="265" rx="11.82" ry="11.82"/><polygon class="cls-15" points="313.64 107.67 131.65 107.67 131.65 334.17 293.92 334.17 313.64 314.44 313.64 107.67"/><polygon class="cls-16" points="292.92 313.44 316.06 313.44 292.92 336.58 292.92 313.44"/><path class="cls-14" d="M313.65,314.44l-19.73,19.73V314.44h19.73m4.82-2H291.92V339l3.41-3.42,19.73-19.73,3.41-3.41Z"/><rect class="cls-2" x="157.4" y="143.17" width="25" height="25"/><rect class="cls-2" x="157.4" y="187.17" width="25" height="25"/><rect class="cls-2" x="157.4" y="231.17" width="25" height="25"/><rect class="cls-2" x="157.4" y="275.17" width="25" height="25"/><rect class="cls-13" x="197.4" y="151.17" width="88" height="8"/><rect class="cls-13" x="197.4" y="196.17" width="88" height="8"/><rect class="cls-13" x="197.4" y="240.17" width="88" height="8"/><rect class="cls-13" x="197.4" y="284.17" width="88" height="8"/><polyline class="cls-17" points="158.75 147.69 168.95 161.25 185.93 139.17"/><polyline class="cls-17" points="158.75 192.65 168.95 206.21 185.93 184.13"/><path class="cls-7" d="M264.9,87.17H241.15a18.75,18.75,0,1,0-37.5,0H179.9a14.54,14.54,0,0,0-14.5,14.5v14.5h114v-14.5A14.54,14.54,0,0,0,264.9,87.17Zm-42.5-.75a4,4,0,1,1,4-4A4,4,0,0,1,222.4,86.42Z"/><line class="cls-18" x1="165.4" y1="103.67" x2="280.64" y2="103.67"/><path class="cls-3" d="M331.15,311.43v35.42a17.84,17.84,0,0,1-17.83,17.82H247.84"/><line class="cls-3" x1="331.15" y1="248.17" x2="331.15" y2="266.92"/><line class="cls-3" x1="331.15" y1="189.17" x2="331.15" y2="236.13"/><line class="cls-3" x1="331.15" y1="155.17" x2="331.15" y2="178.17"/><path class="cls-3" d="M313.32,87.67a17.84,17.84,0,0,1,17.83,17.82v10.68"/><line class="cls-3" x1="131.97" y1="87.67" x2="153.26" y2="87.67"/><line class="cls-3" x1="114.15" y1="155.67" x2="114.15" y2="105.49"/><line class="cls-3" x1="114.15" y1="195.17" x2="114.15" y2="168.76"/><line class="cls-3" x1="114.15" y1="216.74" x2="114.15" y2="208.67"/><path class="cls-3" d="M195,364.67H132a17.84,17.84,0,0,1-17.82-17.82V263.63"/><line class="cls-3" x1="234.11" y1="364.67" x2="211.15" y2="364.67"/><line class="cls-19" x1="222.4" y1="68.42" x2="222.4" y2="358.67"/><path class="cls-20" d="M222.4,68.42c-17,0-18.75,18.75-18.75,18.75H179.9c-11,0-12.43,7-12.43,7s-24.57-.54-35.5-.54-11.82,11.82-11.82,11.82V346.85c0,11.68,11.82,11.82,11.82,11.82H222.4Z"/></g></g></g></svg>