<svg xmlns="http://www.w3.org/2000/svg" viewBox="0 0 348.51 254.96"><defs><style>.cls-1{fill:#0384a4;}.cls-2{fill:#f95f1e;}.cls-3{fill:#dc3f18;}.cls-4{fill:#3187a3;}.cls-5{fill:#2c5771;}.cls-6{fill:#f4f4f4;}.cls-7{fill:#bfbfbf;}.cls-8{fill:#ddd;}.cls-9{fill:#efefef;}.cls-10{fill:#c9c9c9;}.cls-11{fill:#b7b7b7;}.cls-12{fill:#a8a8a8;}.cls-13{fill:#e5e5e5;}.cls-14{fill:#16aeba;}.cls-15{fill:#139ba4;}.cls-16{fill:#e8b58b;}.cls-17{fill:#333231;}.cls-18{fill:#f8611b;}.cls-19{fill:#dd3e1a;}.cls-20{fill:#a6a6a6;}.cls-21{fill:#3d2b2f;}.cls-22{fill:#c9f3ff;}.cls-23{fill:#e0e0e0;}.cls-24{fill:#7e9c9b;}.cls-25{fill:#231f20;}.cls-26{fill:#171717;}.cls-27{fill:#efba92;}.cls-28{fill:#dfa17a;}.cls-29{fill:#da921e;}.cls-30{fill:#eeb991;}.cls-31{fill:#e5ad88;}.cls-32{fill:#f54730;}.cls-33{fill:#fff;}.cls-34{fill:#333;}.cls-35{fill:#f58830;}.cls-36{fill:#202020;}.cls-37{fill:#141414;}.cls-38{fill:#808082;}.cls-39{fill:#b9bbbd;}.cls-40{fill:#a4a6a9;}.cls-41{fill:#eeefef;}.cls-42{fill:#e3e4e5;}.cls-43{fill:#ced0d1;}.cls-44{fill:none;}.cls-45{fill:#ff9196;}.cls-46{fill:#4fb1d4;}.cls-47{fill:#034f66;}</style></defs><title>npworkshop02</title><g id="Layer_2" data-name="Layer 2"><g id="OBJECTS"><polygon class="cls-1" points="257.11 53.3 260.32 30.53 260.32 30.53 257.11 53.3"/><path class="cls-1" d="M262.78,30.69a18,18,0,0,0-1.86-.94c0-.25.07-.5.1-.75a.45.45,0,0,0-.21-.43,19.2,19.2,0,0,0-5.47-2.39,21.44,21.44,0,0,0-8.47-.62c-.52.06-3.56,1-3.72.9A23.45,23.45,0,0,0,224,23.09a.52.52,0,0,0-.39.44c-.2,1.14-.34.92-1.47,1.19a.51.51,0,0,0-.39.43q-2.34,12.06-4.67,24.12a.48.48,0,0,0,.57.51,30.6,30.6,0,0,1,6.56-.36,33.16,33.16,0,0,1,6.42.87c2.58.6,4.65,2,7.08,2.86,1,.34,3.34-.57,4.38-.65,5.55-.45,11.12,1,16.22,3a.48.48,0,0,0,.64-.41l4-24A.46.46,0,0,0,262.78,30.69ZM258,54.85c.23-1.37-7.37-2.72-9-3a31.33,31.33,0,0,0-7.68-.26c-1.37.11-2.91.85-4.05.2-4.86-2.76-10.88-3.64-16.4-3.32-.78,0-1.55.11-2.32.2l-.39,0,.48-2.46q1.28-6.63,2.57-13.25c.35-1.84.71-3.67,1.06-5.51.12-.59.23-1.17.35-1.76s.41-.33,1.16-.41h0l-3.87,21.81a26.36,26.36,0,0,1,18.7,3.69s9.84-2.09,18.48,2.47l3.21-22.77h0a15.93,15.93,0,0,1,1.66.81c-.07.44-.14.88-.22,1.31l-.87,5.19q-1.12,6.78-2.27,13.57C258.43,52.56,258.23,53.7,258,54.85Zm-17-11.45.4-1.32a20.12,20.12,0,0,1,15,2.08l-.29,1.35C249.09,41.13,241.06,43.4,241.06,43.4Zm14.84,4-.29,1.35c-7.06-4.39-15.09-2.11-15.09-2.11l.4-1.32A20.06,20.06,0,0,1,255.9,47.39ZM258,31.1l-1.24,6.61C251.82,33.37,243,35.24,243,35.24l1-6.06A18.8,18.8,0,0,1,258,31.1Zm-16.3,8.67.39-1.32a20.14,20.14,0,0,1,15,2.08l-.29,1.35C249.74,37.5,241.71,39.77,241.71,39.77Zm-17.5-5.83.4-1.32a20.1,20.1,0,0,1,15,2.08l-.29,1.35C232.25,31.66,224.21,33.94,224.21,33.94Zm14.25,5.25-1.23,6.61c-5-4.34-13.82-2.46-13.82-2.46l1-6.07A18.8,18.8,0,0,1,238.46,39.19Zm-13.71-8.48.4-1.31a20.12,20.12,0,0,1,15,2.07l-.3,1.35C232.79,28.44,224.75,30.71,224.75,30.71Zm.65-3.63.4-1.32a20.12,20.12,0,0,1,15,2.08l-.29,1.35C233.43,24.81,225.4,27.08,225.4,27.08Z"/><polygon class="cls-1" points="62.64 38.97 59.64 50.5 61.83 51.07 63.62 44.19 64.77 44.49 62.98 51.37 64.6 51.8 65.89 46.86 67.04 47.16 65.75 52.09 67.16 52.46 68.45 47.52 69.6 47.82 68.31 52.76 69.72 53.13 71 48.19 72.16 48.49 70.87 53.43 72.28 53.79 73.56 48.86 74.72 49.16 73.43 54.09 74.98 54.5 76.77 47.61 77.93 47.91 76.14 54.8 77.76 55.22 79.04 50.28 80.19 50.58 78.91 55.52 80.31 55.89 81.6 50.95 82.75 51.25 81.47 56.19 82.87 56.55 84.16 51.61 85.31 51.91 84.03 56.85 85.43 57.22 86.72 52.28 87.87 52.58 86.59 57.52 88.14 57.92 89.93 51.04 91.08 51.34 89.29 58.22 90.91 58.64 92.2 53.71 93.35 54.01 92.06 58.94 93.47 59.31 94.75 54.37 95.91 54.67 94.62 59.61 96.03 59.98 97.31 55.04 98.47 55.34 97.18 60.28 98.59 60.64 99.87 55.7 101.03 56.01 99.74 60.94 101.29 61.35 103.08 54.46 104.23 54.76 102.44 61.65 104.23 62.11 107.23 50.58 62.64 38.97"/><path class="cls-1" d="M89.65,150.47,93,130.09l-32.87-5.32-3.3,20.38L78.1,148.6l4.23,7.49,1.07-6.63ZM64.93,132.92l20.61,3.34-.22,1.39-20.61-3.34ZM64,138.71l.22-1.39,20.61,3.34-.23,1.39Z"/><path class="cls-1" d="M129.36,114.37a2.42,2.42,0,0,0-2.24-.19c0-1.25-1-1.51-2.28-1.39l-.41-1.2c-.5-1.46-.53-1.07.35-2.11a10.6,10.6,0,0,0,2-5.82c6.85-.79,6-11.46-1.2-11.39l-.11,0h-.15c-.24-.83-.5-1.67-.81-2.48a.62.62,0,0,0-.59-.46c-6.44.2-13.39,2-18.57,6a.59.59,0,0,0-.16.6c.07.24.62,1.81.57,1.83a4.91,4.91,0,0,0-1.85,1.65,6.13,6.13,0,0,0-.69,5.25c.94,3.21,4.93,4.65,7.8,3.27a17.82,17.82,0,0,0,2.51,2.63,8,8,0,0,0,4,1.88c.07-.37.13-.38.2,0s.19.58.29.87.27.81.41,1.21c-1.12.53-1.67,1.42-1.16,2.56-1.52,1-2.69,3.45-.25,4.18,2.1.63,4.94-.83,6.93-1.4,1.68-.49,5.14-.78,6.15-2.5A2.35,2.35,0,0,0,129.36,114.37Zm-11.06-3h0c-2.69-.29-4.78-2-6.44-4.19a.46.46,0,0,0-.08-.25q-.76-1.05-1.44-2.16a.52.52,0,0,0-.14-.16,45.64,45.64,0,0,1-2.14-4.45c-.18-.4-.7-.34-1-.13-1.75,1.4-1.75,3.18-.53,4.91a2.66,2.66,0,0,0,1.7,1.09,1.68,1.68,0,0,0,.77,0,.75.75,0,0,1,.72.15c.19.3.4.59.6.88-5,2.28-8.81-5.84-3.42-8.33a.59.59,0,0,0,.28-.69c-.17-.47-.33-.94-.49-1.41a4.28,4.28,0,0,1-.14-.5l.47-.33a31.61,31.61,0,0,1,4.08-2.23,33.77,33.77,0,0,1,7.61-2.37c.28-.06,4.83-.53,4.69-.88.36,1,.65,1.94.94,2.92a.56.56,0,0,0,.6.43.58.58,0,0,0-.31.69v0a.59.59,0,0,0,.16.28.57.57,0,0,0,0,.32v0a.58.58,0,0,0,.16.29.65.65,0,0,0,0,.34,34.18,34.18,0,0,1,.71,4.94.57.57,0,0,0,.11.31.55.55,0,0,0-.08.32v0c0,.79,1.26.79,1.23,0v0a.59.59,0,0,0-.05-.19,3.25,3.25,0,0,0,2.06-3.19s0-.07,0-.11v0A3.22,3.22,0,0,0,126,94.81a.51.51,0,0,0,0-.21v0a.58.58,0,0,0-.14-.27.69.69,0,0,0,0-.32v0a.55.55,0,0,0-.4-.42l.23,0c5.54,0,6.37,8.09,1.26,8.9,0-.79-1.21-.78-1.23,0v.06a.59.59,0,0,0,.08.31.64.64,0,0,0-.11.3,9.75,9.75,0,0,1-2.78,6.64.57.57,0,0,0-.13.21.49.49,0,0,0-.24.08l-.08.06a.74.74,0,0,0-.22.25.64.64,0,0,0-.31.09h0a.56.56,0,0,0-.23.23.83.83,0,0,0-.34.07l-.13.06a.42.42,0,0,0-.2.17.53.53,0,0,0-.28,0l-.4.13-.06,0h-.06l-.29.07-.07,0h0l-.37.06h0l-.22,0h-.39l-.07,0-.06,0Zm-9.46-6.71c-1.64.11-2.25-1.72-1.51-3C107.79,102.62,108.29,103.64,108.84,104.63Zm17.45-8.51a1.93,1.93,0,0,1,.5,3.48C126.68,98.43,126.51,97.27,126.29,96.12Zm2.14,21.23-.76.22-3.46,1-3.94,1.14-1.36.39c-1.15.33-1.63-1.8-.54-2.11a.62.62,0,0,0,.37-.91c-.21-.93,0-1.45.69-1.55a.62.62,0,0,0,.43-.76l-.75-2.22h0l.54-.07h0l.37-.07h.13l.29-.08,0,0h.07l.4-.13a.7.7,0,0,0,.33-.25.86.86,0,0,0,.44-.06l.13-.06a.53.53,0,0,0,.21-.21.55.55,0,0,0,.36-.09h0a.57.57,0,0,0,.24-.25.72.72,0,0,0,.25-.07c.2.6.4,1.19.61,1.79l-.8.24c-.74.21-1.41.44-1.81.57-.76.23-.44,1.42.32,1.18l2.35-.72c1.23-.29,2.41-.35,2.07.67a.62.62,0,0,0,.76.76l.65-.19Q128.55,114.82,128.43,117.35Z"/><path class="cls-1" d="M293.43,90.08c-1.56,1.62-6.42-2.72-7.55-3.44l-11.13-7.07C273.63,78.86,269,77,270.28,75l5-7.8,7-11c.64-1,2.64-5.72,4.5-4.54L305.41,63.5c1.33.85,3.77,1.77,2.53,3.72l-4.78,7.53-9.79,15.41c-.29.46.45.84.73.39L305,73.42l4-6.36c1.28-2-1.64-3.28-2.92-4.1L287.24,51c-1.78-1.12-2.77.16-3.66,1.55l-5.88,9.25L269.93,74c-1.59,2.51,0,3.48,2.06,4.81l13.5,8.57c1.87,1.19,6.37,5.53,8.55,3.26C294.42,90.25,293.8,89.69,293.43,90.08Z"/><path class="cls-1" d="M304.49,69.83a1.58,1.58,0,0,1-2.18.48l-18-11.42a1.58,1.58,0,0,1-.48-2.18l1.35-2.13a1.58,1.58,0,0,1,2.18-.49l18,11.43a1.57,1.57,0,0,1,.49,2.18Z"/><path class="cls-1" d="M281.58,62.61h2.91a.68.68,0,0,1,.68.68v4.88a.68.68,0,0,1-.68.68h-2.91a.69.69,0,0,1-.69-.69V63.3a.69.69,0,0,1,.69-.69Z" transform="translate(75.77 269.38) rotate(-57.57)"/><rect class="cls-1" x="287.76" y="66.97" width="4.28" height="6.25" rx="0.69" ry="0.69" transform="translate(75.26 277.19) rotate(-57.57)"/><path class="cls-1" d="M295.38,71.38h2.91a.68.68,0,0,1,.68.68v4.88a.69.69,0,0,1-.69.69h-2.91a.69.69,0,0,1-.69-.69V72.07a.68.68,0,0,1,.68-.68Z" transform="translate(74.78 285.12) rotate(-57.58)"/><path class="cls-1" d="M278.36,67.67h2.91a.69.69,0,0,1,.69.69v4.88a.68.68,0,0,1-.68.68h-2.91a.69.69,0,0,1-.69-.69V68.36a.69.69,0,0,1,.69-.69Z" transform="translate(70 269) rotate(-57.57)"/><rect class="cls-1" x="284.54" y="72.03" width="4.28" height="6.25" rx="0.69" ry="0.69" transform="translate(69.51 276.83) rotate(-57.57)"/><rect class="cls-1" x="274.51" y="72.66" width="4.28" height="6.25" rx="0.69" ry="0.69" transform="translate(64.33 268.65) rotate(-57.57)"/><rect class="cls-1" x="281.37" y="77.02" width="4.28" height="6.25" rx="0.69" ry="0.69" transform="matrix(0.54, -0.84, 0.84, 0.54, 63.83, 276.47)"/><path class="cls-1" d="M296.83,79.07l-4.12-2.62a.69.69,0,0,0-.95.21l-.5.8-1.06,1.66-2.66,4.19c-.48.76-.61,1.54-.29,1.74l4.12,2.62c.31.21,1-.25,1.45-1l2.66-4.19,1-1.66L297,80A.69.69,0,0,0,296.83,79.07Z"/><rect class="cls-1" x="291.28" y="55.35" width="1.71" height="22.61" rx="0.17" ry="0.17" transform="matrix(0.54, -0.84, 0.84, 0.54, 79.22, 277.49)"/><path class="cls-2" d="M276.69,139.46l-32.6-15A3.14,3.14,0,0,0,240,126l-36.27,78.9a3.14,3.14,0,0,0,1.54,4.14l32.6,15Z"/><path class="cls-3" d="M276.69,139.46l32.6,15a3.13,3.13,0,0,1,1.53,4.14l-36.27,78.9a3.13,3.13,0,0,1-4.13,1.54l-32.6-15Z"/><path class="cls-4" d="M276.69,139.46l-32.6-15A3.14,3.14,0,0,0,240,126l-36.27,78.9a3.14,3.14,0,0,0,1.54,4.14l32.6,15Z"/><path class="cls-5" d="M276.69,139.46l32.6,15a3.13,3.13,0,0,1,1.53,4.14l-36.27,78.9a3.13,3.13,0,0,1-4.13,1.54l-32.6-15Z"/><rect class="cls-6" x="223.06" y="140.02" width="68.38" height="83.46" transform="translate(99.41 -90.83) rotate(24.69)"/><rect class="cls-7" x="206.5" y="215.69" width="68.37" height="4.16" transform="translate(112.95 -80.62) rotate(24.69)"/><rect class="cls-8" x="241.19" y="149.96" width="60.06" height="2.8" transform="translate(88 -99.44) rotate(24.69)"/><rect class="cls-8" x="237.93" y="157.05" width="60.06" height="2.8" transform="translate(90.66 -97.43) rotate(24.69)"/><rect class="cls-8" x="234.67" y="164.14" width="60.06" height="2.8" transform="translate(93.33 -95.43) rotate(24.69)"/><rect class="cls-8" x="231.42" y="171.22" width="60.06" height="2.8" transform="translate(95.99 -93.41) rotate(24.69)"/><rect class="cls-8" x="228.16" y="178.31" width="60.06" height="2.8" transform="translate(98.65 -91.41) rotate(24.69)"/><rect class="cls-8" x="224.9" y="185.4" width="60.06" height="2.8" transform="translate(101.31 -89.4) rotate(24.69)"/><rect class="cls-8" x="221.64" y="192.48" width="60.06" height="2.8" transform="translate(103.98 -87.39) rotate(24.69)"/><rect class="cls-8" x="218.39" y="199.57" width="60.06" height="2.8" transform="matrix(0.91, 0.42, -0.42, 0.91, 106.64, -85.38)"/><rect class="cls-8" x="215.13" y="206.66" width="60.06" height="2.8" transform="translate(109.3 -83.38) rotate(24.69)"/><rect class="cls-9" x="264.63" y="129.63" width="13.52" height="10.31" transform="translate(81.1 -101.03) rotate(24.69)"/><rect class="cls-10" x="276.92" y="135.27" width="13.52" height="10.31" transform="translate(482.77 386.52) rotate(-155.31)"/><rect class="cls-9" x="264.63" y="129.63" width="13.52" height="10.31" transform="translate(81.1 -101.03) rotate(24.69)"/><rect class="cls-10" x="276.92" y="135.27" width="13.52" height="10.31" transform="translate(482.77 386.52) rotate(-155.31)"/><path class="cls-11" d="M269.13,129.64a.74.74,0,0,1-1.34-.61.74.74,0,0,1,1-.36A.73.73,0,0,1,269.13,129.64Z"/><path class="cls-12" d="M290.39,139.42a.74.74,0,1,1-.36-1A.74.74,0,0,1,290.39,139.42Z"/><path class="cls-13" d="M251.34,237l-.9-1.05a1.68,1.68,0,0,0-2.36-.09l-3.49,3a1.67,1.67,0,0,0-.27,2.34l.9,1.05Z"/><path class="cls-10" d="M251.34,237l.9,1.05a1.67,1.67,0,0,1-.26,2.34l-3.5,3a1.67,1.67,0,0,1-2.35-.08l-.91-1.06Z"/><path class="cls-13" d="M251.34,237l-.9-1.05a1.68,1.68,0,0,0-2.36-.09l-3.49,3a1.67,1.67,0,0,0-.27,2.34l.9,1.05Z"/><path class="cls-10" d="M251.34,237l.9,1.05a1.67,1.67,0,0,1-.26,2.34l-3.5,3a1.67,1.67,0,0,1-2.35-.08l-.91-1.06Z"/><rect class="cls-14" x="241.67" y="219.64" width="51.47" height="3.05" transform="translate(-79.55 227.63) rotate(-40.66)"/><rect class="cls-15" x="243.65" y="221.95" width="51.47" height="3.04" transform="translate(-80.57 229.48) rotate(-40.66)"/><rect class="cls-14" x="241.67" y="219.64" width="51.47" height="3.05" transform="translate(-79.55 227.63) rotate(-40.66)"/><rect class="cls-15" x="243.65" y="221.95" width="51.47" height="3.04" transform="translate(-80.57 229.48) rotate(-40.66)"/><polygon class="cls-16" points="286.06 203.13 285.63 203.5 289.6 208.12 290.03 207.75 293.92 200.72 293.76 200.53 293.6 200.34 286.06 203.13"/><polygon class="cls-17" points="293.18 200.5 294.44 199.94 293.7 201.11 293.18 200.5"/><rect class="cls-18" x="247.23" y="236.36" width="1.42" height="3.04" transform="translate(-95.15 219.05) rotate(-40.67)"/><rect class="cls-19" x="249.21" y="238.67" width="1.42" height="3.04" transform="translate(-96.17 220.9) rotate(-40.67)"/><rect class="cls-18" x="247.23" y="236.36" width="1.42" height="3.04" transform="translate(-95.15 219.05) rotate(-40.67)"/><rect class="cls-19" x="249.21" y="238.67" width="1.42" height="3.04" transform="translate(-96.17 220.9) rotate(-40.67)"/><path class="cls-1" d="M43.88,105.72a7.38,7.38,0,0,0,.64,1.53l-.77,1a.81.81,0,0,0,.06,1.06l1.33,1.33a.79.79,0,0,0,1.06.06l1-.76a7.08,7.08,0,0,0,1.58.67l.15,1.24a.8.8,0,0,0,.79.71h1.89a.8.8,0,0,0,.79-.71l.14-1.2a6.88,6.88,0,0,0,1.69-.68l.94.74a.81.81,0,0,0,1.06-.06l1.33-1.33a.81.81,0,0,0,.07-1.07l-.73-.92a7,7,0,0,0,.7-1.67l1.12-.13a.8.8,0,0,0,.71-.79v-1.89a.81.81,0,0,0-.71-.79l-1.11-.13a7.15,7.15,0,0,0-.67-1.65l.68-.86a.79.79,0,0,0-.06-1.06L56.2,97a.81.81,0,0,0-1.06-.06l-.83.67a7,7,0,0,0-1.74-.73l-.12-1.08a.8.8,0,0,0-.8-.71H49.77a.78.78,0,0,0-.79.71l-.13,1.08a7.15,7.15,0,0,0-1.78.75l-.87-.69a.81.81,0,0,0-1.06.06l-1.33,1.34a.8.8,0,0,0-.06,1.06l.73.91a6.46,6.46,0,0,0-.66,1.67l-1.16.13a.8.8,0,0,0-.71.79v1.89a.8.8,0,0,0,.71.79Zm6.83-5.09a3.12,3.12,0,1,1-3.11,3.11A3.12,3.12,0,0,1,50.71,100.63Z"/><path class="cls-1" d="M59.35,97.09A7.53,7.53,0,0,0,60,98.61l-.77,1a.81.81,0,0,0,.06,1.06L60.61,102a.8.8,0,0,0,1.06.06l1-.77a7.08,7.08,0,0,0,1.58.67l.15,1.25a.8.8,0,0,0,.79.7h1.89a.8.8,0,0,0,.79-.7L68,102a7.32,7.32,0,0,0,1.69-.69l.94.74a.8.8,0,0,0,1.06-.06L73,100.65a.8.8,0,0,0,0-1.06l-.72-.93A6.7,6.7,0,0,0,73,97l1.13-.13a.81.81,0,0,0,.71-.8V94.19a.79.79,0,0,0-.71-.79l-1.11-.13a7,7,0,0,0-.67-1.65l.68-.86A.8.8,0,0,0,73,89.7l-1.33-1.33a.78.78,0,0,0-1.06-.06l-.83.66A7.38,7.38,0,0,0,68,88.24l-.12-1.08a.81.81,0,0,0-.8-.71H65.24a.81.81,0,0,0-.8.71l-.12,1.08a6.83,6.83,0,0,0-1.78.76l-.87-.69a.79.79,0,0,0-1.06.06L59.28,89.7a.8.8,0,0,0-.06,1.06l.73.92a6.26,6.26,0,0,0-.66,1.66l-1.16.14a.78.78,0,0,0-.71.79v1.88a.8.8,0,0,0,.71.8ZM66.18,92a3.12,3.12,0,1,1-3.11,3.11A3.12,3.12,0,0,1,66.18,92Z"/><path class="cls-1" d="M50,90.65a3.51,3.51,0,0,0,.33.77l-.4.5a.41.41,0,0,0,0,.54l.68.68a.41.41,0,0,0,.55,0l.49-.39a3.23,3.23,0,0,0,.81.34l.07.64a.4.4,0,0,0,.41.36h1a.4.4,0,0,0,.4-.36l.07-.61a4.06,4.06,0,0,0,.87-.35l.48.38a.41.41,0,0,0,.54,0l.68-.68a.41.41,0,0,0,0-.54l-.37-.47a3.71,3.71,0,0,0,.35-.85l.58-.07a.4.4,0,0,0,.36-.4v-1a.42.42,0,0,0-.36-.41L57,88.7a3.44,3.44,0,0,0-.34-.84l.35-.44a.44.44,0,0,0,0-.55l-.68-.67a.41.41,0,0,0-.54,0l-.43.34a3.89,3.89,0,0,0-.89-.37l-.06-.55a.4.4,0,0,0-.4-.36H53a.4.4,0,0,0-.4.36l-.07.55a3.77,3.77,0,0,0-.9.39l-.44-.36a.43.43,0,0,0-.55,0l-.68.68a.41.41,0,0,0,0,.54l.37.47a3.49,3.49,0,0,0-.33.85l-.6.06a.42.42,0,0,0-.36.41v1a.4.4,0,0,0,.36.4ZM53.45,88a1.59,1.59,0,1,1-1.6,1.59A1.6,1.6,0,0,1,53.45,88Z"/><path class="cls-1" d="M274.81,106.12l2.21-.29a.73.73,0,0,0,.19-.48v-.67s0-.38,0-.67a.68.68,0,0,0-.2-.47l-2.22-.23a.86.86,0,0,1-.38-.21,6.89,6.89,0,0,0-.58-1.53.86.86,0,0,1,.16-.41l1.5-1.64a.66.66,0,0,0-.15-.49l-.44-.51-.44-.51a.71.71,0,0,0-.46-.22L272.13,99a1,1,0,0,1-.43.09,6.58,6.58,0,0,0-1.42-.8.84.84,0,0,1-.14-.41c0-.24.1-2.23.1-2.23a.67.67,0,0,0-.44-.27l-.66-.11-.66-.11a.67.67,0,0,0-.5.12s-.56,1.91-.62,2.14a.83.83,0,0,1-.27.34,7.08,7.08,0,0,0-1.6.31,1,1,0,0,1-.38-.23l-1.35-1.76a.71.71,0,0,0-.51.06l-.58.35-.57.34a.71.71,0,0,0-.31.41l.9,2a.9.9,0,0,1,0,.44,7,7,0,0,0-1,1.26.88.88,0,0,1-.43.07l-2.17-.48a.68.68,0,0,0-.35.37c-.09.28-.22.64-.22.64s-.13.36-.22.63a.67.67,0,0,0,0,.51l2,1a.87.87,0,0,1,.29.33,7.39,7.39,0,0,0,0,1.63.86.86,0,0,1-.28.33l-2,1a.69.69,0,0,0,0,.51l.24.63.23.63a.68.68,0,0,0,.36.37l2.16-.54a.93.93,0,0,1,.44.07,6.84,6.84,0,0,0,1.05,1.23.81.81,0,0,1,0,.44l-.85,2.06a.67.67,0,0,0,.31.4c.25.15.59.33.59.33l.58.33a.71.71,0,0,0,.51.06s1.18-1.61,1.31-1.8a1,1,0,0,1,.38-.23c.26.07.52.13.79.18a7.4,7.4,0,0,0,.81.08.84.84,0,0,1,.28.34l.67,2.13a.68.68,0,0,0,.5.1l.66-.12.66-.12a.74.74,0,0,0,.43-.29s-.13-2-.15-2.22a1,1,0,0,1,.13-.42,6.8,6.8,0,0,0,1.4-.83,1,1,0,0,1,.44.08l1.87,1.2a.68.68,0,0,0,.46-.24l.42-.52.43-.51a.71.71,0,0,0,.14-.5l-1.54-1.6a.86.86,0,0,1-.16-.41,7,7,0,0,0,.53-1.54A.94.94,0,0,1,274.81,106.12Zm-2.55-.56a4.74,4.74,0,1,1-3.91-5.45A4.73,4.73,0,0,1,272.26,105.56Z"/><path class="cls-20" d="M29.39,231v8.08a5.51,5.51,0,0,0,5.51,5.51H178.83a5.51,5.51,0,0,0,5.5-5.51V231Z"/><path class="cls-21" d="M178.83,231V151.32a2.21,2.21,0,0,0-2.21-2.21H36.37a2.21,2.21,0,0,0-2.21,2.21V231Z"/><path class="cls-22" d="M171.06,231v-71.5a2,2,0,0,0-2-2H43.22a2,2,0,0,0-2,2V231Z"/><rect class="cls-23" x="29.39" y="230.99" width="154.94" height="4.5"/><rect class="cls-21" x="96.17" y="233.24" width="27.6" height="4.54"/><rect class="cls-24" x="128.59" y="199.05" width="30.48" height="14.08"/><rect class="cls-24" x="128.57" y="215.03" width="30.52" height="2.67"/><rect class="cls-24" x="128.57" y="219.57" width="30.52" height="2.67"/><rect class="cls-24" x="128.58" y="224.23" width="30.52" height="2.67"/><path class="cls-25" d="M195.22,170.06c-5.85,12-21.47,14.69-23.78,15.1-2.31-.41-17.86-3.09-23.71-15.1,0,0-46.58,7-47.25,28.62l.67,45.26,70.33-.67,70.33.67.66-45.26C241.81,177.05,195.22,170.06,195.22,170.06Z"/><path class="cls-26" d="M142,171.15a122.77,122.77,0,0,0-18.69,5.51c2.18,12.51,10.91,29,41.22,32.29l7.28-20.25C168.09,188,150.74,184.1,142,171.15Z"/><path class="cls-26" d="M180.56,209c29.73-3.22,38.09-19.31,40.42-31.75a118,118,0,0,0-18.86-5.79c-8.8,12.53-25.56,15.16-29.25,15.86Z"/><path class="cls-27" d="M189.45,151.55A40.54,40.54,0,0,1,171.93,159v.1l-.27-.05-.28.05V159a40.56,40.56,0,0,1-17.78-7.62c-.32,4.29-1.75,18.14-5.87,18.7,5.27,10.81,18.42,14.46,22.68,15.38h2.13c4.26-.92,17.42-4.57,22.68-15.38C190.92,169.48,189.69,155.11,189.45,151.55Z"/><path class="cls-28" d="M195.22,170.06c-4.3-.58-5.53-14.95-5.77-18.51A40.54,40.54,0,0,1,171.93,159v.1l-.27-.05-.28.05V159a40.47,40.47,0,0,1-12.29-4.15h0l22.1,27.75C186.32,180.28,192.13,176.41,195.22,170.06Z"/><path class="cls-29" d="M206.37,31.47c-.6-.48-1.21-.94-1.82-1.38l-.28-.21c-.59-.42-1.19-.82-1.79-1.2l-.35-.22c-.61-.38-1.22-.75-1.85-1.11a1.71,1.71,0,0,1-.23-.13c-.64-.35-1.27-.69-1.92-1l-.11-.05c-.65-.33-1.32-.63-2-.93l-.31-.13c-.65-.28-1.31-.55-2-.8l-.3-.11c-.68-.26-1.37-.5-2.06-.73l-.09,0c-.71-.23-1.42-.44-2.14-.64l-.11,0c-.71-.2-1.42-.37-2.13-.54l-.24-.05c-.71-.16-1.42-.31-2.13-.44l-.16,0c-1.5-.27-3-.48-4.48-.63h0c-.75-.08-1.49-.13-2.22-.18h-.11C159.32,19.82,142.82,27.4,143,36.46c0,0-27.2,2.5-18.47,41.93l5.74,26.2,4.49-22.46s13-7.49,15.73-23.46a49.42,49.42,0,0,0,22,19.14l.19.08c.55.25,1.1.48,1.67.71l.16.06c.54.21,1.09.42,1.65.61l.18.06c.58.21,1.18.4,1.78.59l.28.08c.59.18,1.18.35,1.79.5l.1,0c.62.16,1.26.31,1.91.45l.37.08c1.3.27,2.64.5,4,.68l.42.05c.69.09,1.39.16,2.1.22h.21c.66,0,1.33.09,2,.12l.44,0c.73,0,1.46,0,2.21,0h.39l2.05-.06h.41c.77,0,1.55-.09,2.34-.16l.51,0c.73-.07,1.47-.15,2.23-.25l.29,0c.82-.1,1.65-.23,2.49-.38l.59-.1q1.29-.23,2.61-.51l4.49,25,3.24-21.46S230.58,50.93,206.37,31.47Z"/><path class="cls-30" d="M215.64,92.2l-.94-2.09-2.34,15.48-4.49-25q-1.32.28-2.61.51l-.59.1c-.84.15-1.67.28-2.49.38l-.29,0c-.76.1-1.5.18-2.23.25l-.51,0c-.79.06-1.57.12-2.34.16h-.41l-2.05.06H194c-.75,0-1.48,0-2.21,0l-.44,0c-.67,0-1.34-.07-2-.12h-.21c-.71-.06-1.41-.13-2.1-.22l-.42-.05c-1.39-.18-2.73-.41-4-.68l-.37-.08c-.65-.14-1.29-.29-1.91-.45l-.1,0c-.61-.15-1.2-.32-1.79-.5l-.28-.08c-.6-.19-1.2-.38-1.78-.59l-.18-.06c-.56-.19-1.11-.4-1.65-.61l-.16-.06c-.57-.23-1.12-.46-1.67-.71l-.19-.08c-.55-.24-1.09-.49-1.61-.75a49.16,49.16,0,0,1-20.39-18.39c-2.75,16-15.73,23.46-15.73,23.46l-4.49,22.46L127.54,92.2c-1.08,0-8.4.59-6.86,12.31,1.67,12.64,6.66,19,12.65,15.64,0,0,8.23,33.84,38,38.83v.1l.28-.05.27.05V159c29.83-5,38-38.83,38-38.83,6,3.33,11-3,12.65-15.64S215.64,92.2,215.64,92.2Z"/><path class="cls-31" d="M210,120.15c6,3.33,11-3,12.65-15.64s-7-12.31-7-12.31l-.94-2.09-2.34,15.48-4.49-25q-1.32.28-2.61.51l-.59.1c-.84.15-1.67.28-2.49.38l-.29,0c-.76.1-1.5.18-2.23.25l-.51,0c-.79.06-1.57.12-2.34.16h-.41l-2.05.06H194c-.75,0-1.48,0-2.21,0l-.44,0c-.67,0-1.34-.07-2-.12h-.21c-.71-.06-1.41-.13-2.1-.22l-.42-.05c-1.39-.18-2.73-.41-4-.68l-.37-.08c-.65-.14-1.29-.29-1.91-.45l-.1,0c-.61-.15-1.2-.32-1.79-.5l-.28-.08c-.6-.19-1.2-.38-1.78-.59l-.18-.06c-.56-.19-1.11-.4-1.65-.61l-.16-.06c-.57-.23-1.12-.46-1.67-.71l-.19-.08c-.37-.16-.73-.34-1.09-.51V159h0v.1l.28-.05.27.05V159C201.76,154,210,120.15,210,120.15Z"/><path class="cls-32" d="M144.17,170.7A132.73,132.73,0,0,0,127.8,175c1.62,11.17,9,26.6,36.63,29.59l6.44-17.91C167.52,186.08,151.78,182.55,144.17,170.7Z"/><path class="cls-33" d="M147.73,170.06a127.18,127.18,0,0,0-12.7,2.78c.47,9.27,5.15,24.93,30.84,27.71l5.37-14.94C168.25,185.05,153.41,181.71,147.73,170.06Z"/><path class="cls-32" d="M214.65,174.75a130.81,130.81,0,0,0-16.34-4.27c-7.6,11.89-23.16,14.33-26.51,15l6.8,19.18C206.35,201.62,213.06,185.93,214.65,174.75Z"/><path class="cls-33" d="M195.3,169.9A125.65,125.65,0,0,1,208,172.67c-.47,9.28-5.15,24.93-30.85,27.71l-5.36-14.94C174.78,184.88,189.62,181.54,195.3,169.9Z"/><rect class="cls-34" x="98.7" y="15.16" width="3.92" height="25.22"/><path class="cls-35" d="M96.65,80S84.32,69.14,94.78,51.4h11.39s9.16,17.74-1.49,28.95a7.21,7.21,0,0,0-.19-5.79s-.37,6-3.92,9.34c0,0-3.36-5.79-2.24-10.46C98.33,73.44,96.46,77,96.65,80Z"/><path class="cls-34" d="M106.17,37.69H94.78a2.53,2.53,0,0,0-2.5,2.5V51.4a2.52,2.52,0,0,0,2.5,2.49h11.39a2.28,2.28,0,0,0,1.7-.67l.06-.06.07-.07a2.32,2.32,0,0,0,.67-1.69V40.19A2.53,2.53,0,0,0,106.17,37.69Z"/><path class="cls-36" d="M220.68,24.06H122.05a2.52,2.52,0,0,0-2.5,2.49V73.63a2.52,2.52,0,0,0,2.5,2.49h98.63a2.32,2.32,0,0,0,1.69-.67l.07-.06.06-.07a2.32,2.32,0,0,0,.67-1.69V26.55A2.51,2.51,0,0,0,220.68,24.06Z"/><path class="cls-37" d="M223.17,26.55a2.51,2.51,0,0,0-2.49-2.49H122.05a2.52,2.52,0,0,0-2.5,2.49V36.6l33.74,9.72,30.34,8.74c2.36.68,4.19-.16,6-.63l13.57-3.54,20-5.2Z"/><path class="cls-25" d="M272,23.75,192,5.51,173.56,1.32l-.73-.18-.12,0-2-.53,0,0-.78-.19h0a8.93,8.93,0,0,0-3.14-.31L139.37,4.59l-64,10.66c-.9.15-1.3.54-1.36,1-.3.62.08,1.4,1.44,1.88a3.75,3.75,0,0,0,1.28.38l76.58,22.07,30.34,8.74c2.36.68,4.19-.16,6-.63l13.57-3.53,70.49-18.38C275.7,26.27,274.15,24.23,272,23.75Z"/><path class="cls-25" d="M208,92s-2.89-2.53-13-2.53c-4.29,0-10,.43-14,2.19a17.24,17.24,0,0,0-2.86,1.65h0L176,95.13s-.8.73-4.13.76h-.45c-3.32,0-4.13-.76-4.13-.76l-2.16-1.83h0a17.76,17.76,0,0,0-2.87-1.65c-4-1.76-9.67-2.19-14-2.19-10.12,0-13,2.53-13,2.53h-6.07v3.4l2.6,2.46a80.18,80.18,0,0,0,1.72,8.54c1.08,4.23,2.38,9.73,7,11.29a28,28,0,0,0,9.1,1.13c4.14,0,10.27,0,12.86-3.86,2.44-3.68,3.37-8.49,4.23-12.75a2.34,2.34,0,0,1,1.34-1.53h7.09a2.34,2.34,0,0,1,1.34,1.53c.86,4.26,1.8,9.07,4.23,12.75,2.59,3.91,8.72,3.86,12.86,3.86a28,28,0,0,0,9.1-1.13c4.65-1.56,6-7.06,7-11.29a77.73,77.73,0,0,0,1.71-8.54l2.6-2.46V92Zm-44.13,8.88a31.77,31.77,0,0,1-1.38,6.75c-.64,2.36-1.33,5-3.31,6.66-2.26,1.87-6.23,2.29-9,2.37l-.56,0-.55,0c-3-.08-6.36-.43-8.88-2.16a6.88,6.88,0,0,1-2.51-3.7c-.08-.21-1.11-3.31-1-3.34a33.11,33.11,0,0,1-1.3-6.15,17.2,17.2,0,0,1-.2-3c.16-5.83,10.35-6.05,14.45-6.05a33.51,33.51,0,0,1,10.64,1.43,6.29,6.29,0,0,1,3.45,2.5C164.54,97.63,164,99.25,163.88,100.87Zm44.11.43a33.11,33.11,0,0,1-1.3,6.15c.09,0-.95,3.13-1,3.34a6.82,6.82,0,0,1-2.51,3.7c-2.52,1.73-5.9,2.08-8.88,2.16l-.55,0-.56,0c-2.81-.08-6.78-.5-9-2.37-2-1.63-2.67-4.3-3.31-6.66a31.77,31.77,0,0,1-1.38-6.75c-.13-1.62-.65-3.24.22-4.73a6.29,6.29,0,0,1,3.45-2.5,33.51,33.51,0,0,1,10.64-1.43c4.11,0,14.3.22,14.45,6.05A16.3,16.3,0,0,1,208,101.3Z"/><polygon class="cls-38" points="216.98 226.98 275.7 234.45 275.59 234.35 216.82 226.82 216.98 226.98"/><path class="cls-39" d="M216.74,227.43c.16-.31.12-.47.4-.43l.54.07,2.13.27,7.63,1,10.66,1.36L250,231.18l11.35,1.44,9,1.15,4.91.62.42.06c-2.64,3.86,1.3,9.71,5.68,9.73-7.27-.88-16-.91-24.1-1s-28.25.54-30.26.52a13.47,13.47,0,0,1-4.43-.37A10.72,10.72,0,0,1,217,237.7a12,12,0,0,1-.3-10.27Z"/><path class="cls-39" d="M223.37,225.56a5,5,0,0,1,4-1.89c.84.06,1.69.26,2.53.39l3,.49c2,.33,13.77,3.32,25.52,5.24,11.31,1.84,22.61,2.6,25,3a4,4,0,0,0-4.44,3.28A3.2,3.2,0,0,0,281.7,240l-24.1-1.54-24.1-1.54-6-.38c-.84-.06-1.73,0-2.56-.18a3.08,3.08,0,0,1-1.39-.56,6.14,6.14,0,0,1-2.05-6,8.46,8.46,0,0,1,1.9-4.27Z"/><path class="cls-40" d="M224.91,229.1a2,2,0,0,1,1.68-.73l2.9.37,6,.75,12,1.51,24,3,11.14,1.4a1.61,1.61,0,0,0-1.7,1.47,1.26,1.26,0,0,0,1.07,1.4l-24.09-2.09-24.08-2.09-5.17-.45-2.53-.22a2.36,2.36,0,0,1-1-.21c-1.45-.79-1-3.11-.16-4.13C224.92,229.09,224.9,229.12,224.91,229.1Z"/><path class="cls-41" d="M226.18,233.59a1.83,1.83,0,0,0,.83-.82c0-.07.38-1,.3-1h.05l.43.05,2,.19,7.57.76,10.74,1.08,11.94,1.2,11.15,1.11,8.36.84,3.6.36c.06,0,0,.16,0,.2a1.14,1.14,0,0,1-1,.88c-.48,0-1-.08-1.44-.12l-1.56-.13-3-.26-12.05-1-24.09-2-14.33-1.21a1.36,1.36,0,0,0,.6-.1C226.27,233.54,226.08,233.63,226.18,233.59Z"/><path class="cls-42" d="M229.14,231.32c0-1.39-1-3-2.48-3.23,3.92.45,7.84,1,11.76,1.51l12,1.53,24,3.07,6,.77c.81.1,1.67.14,2.46.32a2,2,0,0,1,1.1.69,2.67,2.67,0,0,1-2.23,4.18l-3.22-.2-8.11-.49-11-.68-12-.74-11-.68-8-.5-3.14-.19h0c2.67.16,4.16-3.1,4-5.36Z"/><path class="cls-43" d="M231.6,225.65a5.86,5.86,0,0,0-4.76-2.26,5.75,5.75,0,0,0-4.2,2.75,9,9,0,0,0-1.47,5.12,6,6,0,0,0,2.07,4.67,3.38,3.38,0,0,0,2.46.73,3.5,3.5,0,0,0,2.16-1.27,5.61,5.61,0,0,0,1.1-5,3.36,3.36,0,0,0-1.54-2,2.08,2.08,0,0,0-2.3.23,3.41,3.41,0,0,0-.59,4.57,1.44,1.44,0,0,0,1.92.3,2.3,2.3,0,0,0,.86-1.64.57.57,0,0,0-.22,0,2.66,2.66,0,0,1-.12.56,1.72,1.72,0,0,1-.86,1,1.46,1.46,0,0,1-1.78-1c-.63-1.46.25-4,2.1-4s2.61,2.21,2.49,3.75-1.06,3.63-2.78,4.16-3.25-.66-4-2.07a7.28,7.28,0,0,1-.48-5.27,7.56,7.56,0,0,1,2.89-4.42,4.71,4.71,0,0,1,4.78-.33c3.43,1.64,4.53,6,4.12,9.5s-2.24,7.41-5.56,9.19a6.58,6.58,0,0,1-5.1.54,9,9,0,0,1-4.27-3.27A13.21,13.21,0,0,1,216,229.67a9.89,9.89,0,0,1,.52-1.68,7.49,7.49,0,0,1,.38-.81c.11-.22.11-.2-.05-.35a12.12,12.12,0,0,0-.18,10.5c1.36,3.24,4.21,6.65,8,6.66s6.77-3.24,8.09-6.57,1.52-7.52-.41-10.74a9.15,9.15,0,0,0-.73-1Z"/><path class="cls-44" d="M224.62,244c11.73.07,23.65-.89,35.37-.82,7.21.05,14.21,1.13,21.41,1.18a6.09,6.09,0,0,0,1-.09,5.14,5.14,0,0,0,1-.28,4.9,4.9,0,0,0,.95-.46,5.4,5.4,0,0,0,.89-.64,7,7,0,0,0,.89-.92,7.18,7.18,0,0,0,.69-1.09,7.9,7.9,0,0,0,.48-1.2,8,8,0,0,0,.25-1.31,5.88,5.88,0,0,0,0-1.26,5.65,5.65,0,0,0-.28-1.18,5,5,0,0,0-.52-1.06,4.89,4.89,0,0,0-.72-.91l-54.45-8.3a8.31,8.31,0,0,1,1,1.55,10.29,10.29,0,0,1,.72,1.85,11.59,11.59,0,0,1,.38,2.08,12,12,0,0,1,0,2.24,14.67,14.67,0,0,1-.4,2.31,13.61,13.61,0,0,1-.74,2.15,12.13,12.13,0,0,1-1,1.92,11.18,11.18,0,0,1-1.31,1.65,9.07,9.07,0,0,1-1.3,1.13,7.21,7.21,0,0,1-1.38.81,7,7,0,0,1-1.44.49A6.71,6.71,0,0,1,224.62,244Z"/><path class="cls-41" d="M283.49,232.63a4.93,4.93,0,0,1,3.66,2.93,5.86,5.86,0,0,1,.32,3.58,6.4,6.4,0,0,1-6.09,5.21c-.51,0-10.08-1.1-21.39-1.18-15.81-.1-34.81.82-35.37.82,3.85,0,6.79-3.23,8.11-6.56a13,13,0,0,0,.43-9c-.82-2.36-2.62-4.6-5.2-5,.58.1,17.56,4,32.67,6.52,11.73,1.94,22.43,2.58,22.86,2.66Z"/><path class="cls-45" d="M259.36,241.87a10.32,10.32,0,0,0,.73-3.09,15.46,15.46,0,0,0,0-3.19,12.24,12.24,0,0,0-.75-3.09,6,6,0,0,0-1.82-2.58,6.31,6.31,0,0,1,1.78,2.6,12.91,12.91,0,0,1,.72,3.08,16,16,0,0,1,0,3.17,13.49,13.49,0,0,1-.23,1.57A9,9,0,0,1,259.36,241.87Z"/><path class="cls-46" d="M263.19,230.38c5.83.82,5,13.13,2,12.9-1.69,0-7-.06-7.26-.06,2.65.1,3.68-13.12-2.34-14.12C255.59,229.1,262.35,230.25,263.19,230.38Z"/><path class="cls-47" d="M342.63,243.2H5.88a5.88,5.88,0,0,0,0,11.76H342.63a5.88,5.88,0,0,0,0-11.76Z"/></g></g></svg>