<svg xmlns="http://www.w3.org/2000/svg" viewBox="0 0 619.74 819.88"><defs><style>.cls-1,.cls-28{fill:#fff;}.cls-2{fill:#e3e4e3;}.cls-3{fill:#f16838;}.cls-4{fill:#20464f;}.cls-5{fill:#67b5c9;}.cls-6{fill:#f99b1f;}.cls-7{fill:#fcc014;}.cls-8{fill:#214751;}.cls-9{fill:#149e8c;}.cls-10{fill:#f3b01c;}.cls-11{fill:#193a45;}.cls-12{fill:none;}.cls-13{fill:#f0c418;}.cls-14{fill:#fdce07;}.cls-15{fill:#e6a423;}.cls-16{fill:#f7e100;}.cls-17{fill:#e6e6e5;}.cls-18{fill:#f7ce2c;}.cls-19{fill:#f4f4f4;}.cls-20{fill:#518cb3;}.cls-21{fill:#c33a32;}.cls-22{fill:#f7d0a2;}.cls-23{fill:#041e41;}.cls-24{fill:#204851;}.cls-25{fill:#f5cd2d;}.cls-26{fill:#21464f;}.cls-27{fill:#5a8790;}.cls-28{opacity:0.3;}.cls-29{fill:#ed6833;}.cls-30{fill:#21597c;}</style></defs><title>npworkshop03</title><g id="Layer_2" data-name="Layer 2"><g id="Layer_1-2" data-name="Layer 1"><path class="cls-1" d="M292.3,314.65a83.29,83.29,0,1,0,112.16-36A83.29,83.29,0,0,0,292.3,314.65Z"/><path class="cls-2" d="M399.16,289.73c-36.33-18.68-81.08-8-105.79,23A83.26,83.26,0,0,1,443,385.28C451.63,348.2,434.28,307.78,399.16,289.73Z"/><path class="cls-3" d="M404.07,279.42a82.44,82.44,0,1,1-111,35.61,82.41,82.41,0,0,1,111-35.61m4.92-9.56a93.19,93.19,0,1,0,40.27,125.49A93.3,93.3,0,0,0,409,269.86Z"/><path class="cls-4" d="M369,287.59V275.31h-3.06v12.23h.45C367.25,287.53,368.12,287.57,369,287.59Z"/><path class="cls-4" d="M329.92,284.38l-2.64,1.52,6.11,10.59c.88-.51,1.77-1,2.67-1.48Z"/><path class="cls-4" d="M300.62,311.76l-1.52,2.64,10.59,6.12c.5-.88,1-1.75,1.58-2.61Z"/><path class="cls-4" d="M301.24,350.12h-12.3v3.06h12.24c0-.14,0-.3,0-.44C301.17,351.86,301.2,351,301.24,350.12Z"/><path class="cls-4" d="M298,389.19l1.53,2.65,10.59-6.13c-.52-.87-1-1.76-1.49-2.66Z"/><path class="cls-4" d="M325.39,418.49,328,420l6.12-10.6c-.88-.5-1.76-1-2.62-1.57Z"/><path class="cls-4" d="M363.77,417.88v12.29h3.05V417.94h-.44C365.5,418,364.63,417.91,363.77,417.88Z"/><path class="cls-4" d="M402.83,421.11l2.65-1.54L399.36,409c-.88.51-1.77,1-2.67,1.48Z"/><path class="cls-4" d="M432.13,393.72l1.53-2.64L423.06,385c-.5.9-1,1.77-1.57,2.62Z"/><path class="cls-4" d="M431.52,355.36h12.29V352.3H431.57c0,.14,0,.3,0,.44C431.59,353.62,431.55,354.49,431.52,355.36Z"/><path class="cls-4" d="M434.74,316.29l-1.52-2.65-10.59,6.11c.51.89,1,1.78,1.48,2.68Z"/><path class="cls-4" d="M407.36,287l-2.64-1.54-6.13,10.6c.89.5,1.76,1,2.62,1.57Z"/><path class="cls-4" d="M369.34,354.43a2.39,2.39,0,0,1-3.38-.07h0A2.39,2.39,0,0,1,366,351l48.32-46.34a2.39,2.39,0,0,1,3.38.07h0a2.4,2.4,0,0,1-.07,3.38Z"/><path class="cls-4" d="M338.09,317.81a2.38,2.38,0,0,1,.75-3.29h0a2.38,2.38,0,0,1,3.3.73l25,36.18a2.37,2.37,0,0,1-.74,3.29h0a2.38,2.38,0,0,1-3.3-.74Z"/><path class="cls-4" d="M372.49,352.74a6.11,6.11,0,1,1-6.11-6.12A6.12,6.12,0,0,1,372.49,352.74Z"/><path class="cls-5" d="M548.29,790.24a13.34,13.34,0,0,1-13.35,13.35H264.35A13.35,13.35,0,0,1,251,790.24V441.33A13.35,13.35,0,0,1,264.35,428H534.94a13.34,13.34,0,0,1,13.35,13.35Z"/><rect class="cls-1" x="275.04" y="452.01" width="249.22" height="327.55"/><path class="cls-6" d="M457.5,469.39V456a8,8,0,0,0-8-8H349.8a8,8,0,0,0-8,8v13.36Z"/><path class="cls-7" d="M457.5,463.57V450.22a8,8,0,0,0-8-8H349.8a8,8,0,0,0-8,8v13.35Z"/><path class="cls-7" d="M418.34,441.33a18.7,18.7,0,1,1-18.7-18.7A18.69,18.69,0,0,1,418.34,441.33Z"/><path class="cls-1" d="M407.64,441.33a8,8,0,1,1-8-8A8,8,0,0,1,407.64,441.33Z"/><rect class="cls-8" x="335.36" y="539.59" width="155.34" height="8.16"/><rect class="cls-8" x="335.36" y="573.12" width="155.34" height="8.15"/><rect class="cls-8" x="335.36" y="606.65" width="155.34" height="8.16"/><rect class="cls-8" x="335.36" y="640.16" width="155.34" height="8.16"/><path class="cls-9" d="M308,564.65a3.79,3.79,0,0,1-2.7-1.15l-6.12-6.43a3.73,3.73,0,0,1,5.4-5.15l3.21,3.37,10.84-13.21a3.73,3.73,0,0,1,5.76,4.73l-13.5,16.47a3.69,3.69,0,0,1-2.74,1.36Z"/><path class="cls-9" d="M308,596.86a3.72,3.72,0,0,1-2.7-1.16l-6.12-6.42a3.73,3.73,0,1,1,5.4-5.15l3.21,3.37,10.83-13.22a3.74,3.74,0,1,1,5.78,4.74l-13.51,16.47a3.73,3.73,0,0,1-2.74,1.37Z"/><path class="cls-9" d="M308,629.06a3.75,3.75,0,0,1-2.7-1.15l-6.12-6.42a3.73,3.73,0,0,1,5.4-5.15l3.21,3.37,10.84-13.21a3.73,3.73,0,1,1,5.76,4.73l-13.5,16.47a3.69,3.69,0,0,1-2.74,1.36Z"/><path class="cls-10" d="M266.84,487l-.13.4H242.29V505h23.27s3.54,44.73-24.95,63l-4.32,11c26.37-10,45.31-33.74,45.31-63.59V487Z"/><path class="cls-10" d="M106.44,579.87c1.06,2.24,1.65,6,2.91,8.08H172l.37-109.82H98.47V487H59v28.49C59,546,79.15,570.39,106.44,579.87ZM75,505H98.47v44.13a74.09,74.09,0,0,0,2.68,19.6C71.35,551,75,505,75,505Z"/><polygon class="cls-8" points="234.07 741.33 234.07 739.28 229.25 739.28 229.25 672.69 111.31 672.69 111.31 739.28 106.5 739.28 106.5 741.33 234.07 741.33"/><polygon class="cls-11" points="170.48 741.33 170.48 672.69 111.31 672.69 111.31 739.28 106.5 739.28 106.5 741.33 170.48 741.33"/><path class="cls-12" d="M243.69,503.4v44.13A73.66,73.66,0,0,1,241,567.12c29.8-17.74,26.15-63.72,26.15-63.72Z"/><path class="cls-12" d="M96.87,503.4H73.4s-3.65,46,26.15,63.72a73.66,73.66,0,0,1-2.68-19.59Z"/><path class="cls-13" d="M243.69,485.35v-8.83H170l-.49,145.62h4.43c27.31,0,51-18.1,62.42-42.36a69.82,69.82,0,0,0,46.9-65.95V485.35ZM241,567.12a73.66,73.66,0,0,0,2.68-19.59V503.4h23.47S270.81,549.38,241,567.12Z"/><path class="cls-14" d="M135.87,672.29h68.82a8.82,8.82,0,0,0-8.73-7.63h-10a5.21,5.21,0,0,0,0-10.42h-2.41V637.37a5.21,5.21,0,0,0,0-10.39v-8.85H170.27l.48-141.61H96.87v8.83H57.35v28.48a69.82,69.82,0,0,0,46.9,65.95c10.1,21.36,29.63,37.94,52.79,41.6V627a5.21,5.21,0,0,0,0,10.39v16.87h-2.4a5.21,5.21,0,1,0,0,10.42h-10A8.82,8.82,0,0,0,135.87,672.29ZM73.4,503.4H96.87v44.13a73.66,73.66,0,0,0,2.68,19.59C69.75,549.38,73.4,503.4,73.4,503.4Z"/><polygon class="cls-10" points="103.49 472.11 243.89 472.11 243.89 493.77 103.49 472.11"/><polygon class="cls-15" points="157.16 636.85 183.55 636.85 183.55 640.84 157.16 636.85"/><rect class="cls-14" x="90.05" y="461.68" width="160.46" height="15.24"/><rect class="cls-13" x="171.08" y="461.68" width="79.43" height="15.24"/><rect class="cls-16" x="103.69" y="461.68" width="16.05" height="15.24"/><path class="cls-10" d="M152.26,632.69a5.21,5.21,0,0,0,5.18,4.7h25.68a5.22,5.22,0,0,0,5.19-4.7Z"/><path class="cls-10" d="M149.43,659.3c0,.05,0,.1,0,.15a5.22,5.22,0,0,0,5.22,5.21h31.29a5.21,5.21,0,0,0,5.21-5.21c0-.05,0-.1,0-.15Z"/><path class="cls-16" d="M161.05,627a5.21,5.21,0,0,0,0,10.39v16.87h-2.4a5.21,5.21,0,1,0,0,10.42h4a5.21,5.21,0,1,1,0-10.42h2.41V637.37a5.21,5.21,0,0,1,0-10.39v-5.6c-62.38-31.33-41.52-144.86-41.52-144.86h-16S85,607.7,161.05,621.38Z"/><path class="cls-16" d="M154.43,664.67l-4.81-.4c-4.46,0-9.15,3.71-9.74,8h4C144.48,668,150,664.67,154.43,664.67Z"/><rect class="cls-10" x="243.89" y="485.75" width="32.89" height="17.65"/><path class="cls-13" d="M268.45,485.35l-5.85,18h4.56s3.55,44.73-24.94,63l-4.13,12.74a69.81,69.81,0,0,0,45.12-65.29V485.35Z"/><rect class="cls-17" x="136.38" y="687.93" width="69" height="44.13"/><path class="cls-1" d="M110,478.13c-6.94,2.54-9,4.6-11.54,11.53-2.53-6.93-4.6-9-11.53-11.53,6.93-2.54,9-4.6,11.53-11.53C101,473.53,103.07,475.59,110,478.13Z"/><path class="cls-18" d="M389.62,761.57H208.91a17.83,17.83,0,0,1-17.82-17.81v-.63a17.84,17.84,0,0,1,17.82-17.82H389.62v-7.65H208.91a25.5,25.5,0,0,0-25.46,25.47v.63a25.49,25.49,0,0,0,25.46,25.45H389.62Z"/><path class="cls-19" d="M389.62,722.44H208.27c-10.54,0-19.09,9.4-19.09,21s8.55,21,19.09,21H389.62Z"/><path class="cls-20" d="M389.62,812.24H208.91a17.83,17.83,0,0,1-17.82-17.81v-.64A17.83,17.83,0,0,1,208.91,776H389.62v-7.64H208.91a25.49,25.49,0,0,0-25.46,25.45v.64a25.49,25.49,0,0,0,25.46,25.45H389.62Z"/><path class="cls-19" d="M389.62,773.11H208.27c-10.54,0-19.09,9.4-19.09,21s8.55,21,19.09,21H389.62Z"/><polygon class="cls-21" points="340.15 738 340.15 761.1 348.58 752.2 357.39 761.52 357.59 761.52 357.59 738 340.15 738"/><polygon class="cls-22" points="461.24 426.84 515.41 476.18 531.86 444.26 461.24 426.84"/><path class="cls-22" d="M608.26,436.41c0,12.61-9.15,22.93-20.34,22.93l-69.13,24.44c-11.18,0-32-36.5-32-49.1L474.09,317.31c0-12.61,33.52,7.13,44.7,7.13h69.13c11.19,0,20.34,10.32,20.34,22.93Z"/><polygon class="cls-22" points="601.51 550.67 512.51 550.67 512.51 467.48 601.51 444.83 601.51 550.67"/><rect class="cls-1" x="547.11" y="468.85" width="18.57" height="125.34" transform="translate(15.75 1079.06) rotate(-89.05)"/><polygon class="cls-23" points="491.62 803.59 493.68 533.81 619 534.83 616 803.59 491.62 803.59"/><polygon class="cls-24" points="491.62 803.59 492.63 533.81 553.95 534.83 552.48 803.59 491.62 803.59"/><path class="cls-1" d="M594.91,564.13a7.1,7.1,0,1,0,7.2-7A7.09,7.09,0,0,0,594.91,564.13Z"/><path class="cls-25" d="M619.74,249.19a84.68,84.68,0,1,0-141.39,63.17h-.64A75.09,75.09,0,0,1,495.33,360l79.4-.28a75.07,75.07,0,0,1,16.85-47.17A84.47,84.47,0,0,0,619.74,249.19Z"/><path class="cls-1" d="M490.05,243.5a2.69,2.69,0,0,0-4.12-.59,3.72,3.72,0,0,0-.52,4.72,20.59,20.59,0,0,0,1.73,2.2l30.19,109.95a3,3,0,0,0,2.77,2.37A2.14,2.14,0,0,0,521,362a3.47,3.47,0,0,0,1.91-4.23L495,256.15c7,4,15.74,5.88,22.94,3.35a16.71,16.71,0,0,0,4.24-2.2,20.59,20.59,0,0,0,12.3,4.32,21.1,21.1,0,0,0,14.37-5.36,29.93,29.93,0,0,0,7.37,3.28c8.19,2.49,15.45,2,21.54-1.34L548.18,358a3.52,3.52,0,0,0,1.82,4.27,2.82,2.82,0,0,0,.93.17,3,3,0,0,0,2.81-2.29l32.49-109.49c.27-.36.56-.66.82-1a3.75,3.75,0,0,0-.44-4.74,2.7,2.7,0,0,0-4.13.54c-5.75,8.25-14.07,10.81-24.7,7.61a28,28,0,0,1-4.74-1.94,20,20,0,0,0,2.61-10.47c-.18-7.31-2.3-12.71-5.79-14.8a5.39,5.39,0,0,0-6.24.34c-3.11,2.33-4.67,7.69-4.28,14.7a18.26,18.26,0,0,0,4.56,11.18,16.12,16.12,0,0,1-17.2.46,24.67,24.67,0,0,0,3.46-11.81c.38-6.54-1.32-11.85-4.56-14.2a5.71,5.71,0,0,0-6.68-.25c-3.36,2.12-5.25,7.28-5.23,14.15a21.12,21.12,0,0,0,3.92,12.07,10.16,10.16,0,0,1-1.35.58C507.46,256.17,494.71,250.37,490.05,243.5Zm56.77-11.68a.34.34,0,0,1,.14-.08.38.38,0,0,1,.18.08c.85.51,2.49,3.05,2.65,9.05a12.51,12.51,0,0,1-1.64,6.52,11.2,11.2,0,0,1-2.94-7C544.91,235.22,546,232.42,546.82,231.82Zm-25.06.35a.37.37,0,0,1,.31-.12.89.89,0,0,1,.38.14c.83.62,2.15,3,1.86,8.1a17.34,17.34,0,0,1-2.14,7.93,13.82,13.82,0,0,1-2.6-7.85C519.56,235,520.94,232.68,521.76,232.17Z"/><path class="cls-26" d="M572.57,357.56l-75.7.26a3.85,3.85,0,0,0-3.84,3.86l.09,28.87a3.87,3.87,0,0,0,3.87,3.81l13.89,0,7.23,12.41,33.55-.1,7.13-12.49,13.9-.05a3.81,3.81,0,0,0,3.83-3.84l-.09-28.86A3.84,3.84,0,0,0,572.57,357.56Z"/><rect class="cls-27" x="531.61" y="326.19" width="6.52" height="84.08" transform="translate(161.14 899.27) rotate(-89.41)"/><polygon class="cls-27" points="576.7 388.22 492.62 387.35 492.7 380.84 576.76 381.7 576.7 388.22"/><path class="cls-22" d="M587.49,324.59l-56.3.47a16.12,16.12,0,1,0,.42,32.23l57.27.44Z"/><path class="cls-28" d="M520.67,339.15c-.6,10.93,6.89,13.19,16.65,12.7s11.26-8,11.24-10.63c-.06-6.72-5.57-9.05-11.81-10.58S521.25,329.15,520.67,339.15Z"/><path class="cls-22" d="M502.58,340.19a16.47,16.47,0,0,1,9.54,21.25h0A16.47,16.47,0,0,1,490.86,371l-23.1-8.79a16.46,16.46,0,0,1-9.52-21.25h0a16.46,16.46,0,0,1,21.25-9.54Z"/><path class="cls-22" d="M492.59,374.43a15.06,15.06,0,0,1,11,18.28h0a15.09,15.09,0,0,1-18.31,11l-21.93-5.5a15.08,15.08,0,0,1-10.95-18.29h0a15.08,15.08,0,0,1,18.3-11Z"/><path class="cls-22" d="M493.28,408.67A13.41,13.41,0,0,1,503,424.94h0a13.42,13.42,0,0,1-16.26,9.74l-19.48-4.91a13.4,13.4,0,0,1-9.75-16.25h0a13.41,13.41,0,0,1,16.26-9.73Z"/><path class="cls-28" d="M508.23,358.5c2.2-10.43-4.67-13.71-14.14-14.69s-12,6-12.39,8.57c-.93,6.48,4,9.54,9.8,11.93S506.2,368,508.23,358.5Z"/><path class="cls-28" d="M500.06,392.37c2-9.61-4.31-12.64-13-13.54s-11.08,5.56-11.43,7.9c-.86,6,3.71,8.79,9,11S498.19,401.17,500.06,392.37Z"/><path class="cls-28" d="M499,424.1c1.84-8.72-3.92-11.47-11.84-12.28s-10.05,5-10.36,7.16c-.78,5.43,3.36,8,8.2,10S497.3,432.09,499,424.1Z"/><path class="cls-22" d="M506.58,300.45a16.93,16.93,0,0,1,9.8,21.83h0a16.92,16.92,0,0,1-21.83,9.79l-23.74-9A16.92,16.92,0,0,1,461,301.21h0a16.9,16.9,0,0,1,21.82-9.79Z"/><path class="cls-28" d="M512.39,319.25c2.25-10.7-4.81-14.07-14.53-15.07s-12.34,6.19-12.72,8.79c-1,6.66,4.12,9.8,10.06,12.26S510.3,329.06,512.39,319.25Z"/><polygon class="cls-22" points="165.47 426.84 111.29 476.18 94.84 444.26 165.47 426.84"/><path class="cls-22" d="M18.44,436.41c0,12.61,9.16,22.93,20.34,22.93l69.13,24.44c11.19,0,32-36.5,32-49.1l1.7-87.31c0-12.61,6.23-53.47-4.95-53.47L38.78,324.44c-11.18,0-20.34,10.32-20.34,22.93Z"/><polygon class="cls-22" points="25.19 550.67 114.19 550.67 114.19 467.48 25.19 444.83 25.19 550.67"/><polygon class="cls-22" points="25.19 550.67 114.19 550.67 114.19 467.48 25.19 444.83 25.19 550.67"/><path class="cls-29" d="M99.59,463.73h-.07A31.52,31.52,0,0,1,70.27,430.1l9.44-135.84A31.51,31.51,0,0,1,113.25,265h.08a31.49,31.49,0,0,1,29.24,33.6l-9.44,135.85a31.52,31.52,0,0,1-33.54,29.26Z"/><path class="cls-30" d="M111.7,282.84A15.75,15.75,0,0,1,97.07,266l2.33-28.1a15.76,15.76,0,0,1,16.76-14.63h0a15.75,15.75,0,0,1,14.63,16.8l-2.34,28.1a15.73,15.73,0,0,1-16.76,14.62Z"/><path class="cls-22" d="M124.12,340.19a16.48,16.48,0,0,0-9.54,21.25h0A16.48,16.48,0,0,0,135.84,371l23.1-8.79a16.46,16.46,0,0,0,9.52-21.25h0a16.46,16.46,0,0,0-21.24-9.54Z"/><path class="cls-22" d="M134.12,374.43a15.06,15.06,0,0,0-11,18.28h0a15.08,15.08,0,0,0,18.3,11l21.93-5.5a15.08,15.08,0,0,0,11-18.29h0a15.07,15.07,0,0,0-18.29-11Z"/><path class="cls-22" d="M133.43,408.67a13.4,13.4,0,0,0-9.74,16.27h0a13.41,13.41,0,0,0,16.25,9.74l19.48-4.91a13.4,13.4,0,0,0,9.75-16.25h0a13.4,13.4,0,0,0-16.26-9.73Z"/><path class="cls-28" d="M118.47,358.5c-2.2-10.43,4.67-13.71,14.14-14.69s12,6,12.39,8.57c.93,6.48-4,9.54-9.8,11.93S120.5,368,118.47,358.5Z"/><path class="cls-28" d="M126.64,392.37c-2-9.61,4.31-12.64,13-13.54s11.07,5.56,11.42,7.9c.86,6-3.7,8.79-9,11S128.51,401.17,126.64,392.37Z"/><path class="cls-28" d="M127.71,424.1c-1.84-8.72,3.91-11.47,11.83-12.28s10.05,5,10.37,7.16c.78,5.43-3.36,8-8.21,10S129.41,432.09,127.71,424.1Z"/><path class="cls-22" d="M120.12,300.45a16.93,16.93,0,0,0-9.79,21.83h0a16.92,16.92,0,0,0,21.83,9.79l23.73-9a16.91,16.91,0,0,0,9.77-21.83h0a16.89,16.89,0,0,0-21.82-9.79Z"/><path class="cls-28" d="M114.32,319.25c-2.26-10.7,4.8-14.07,14.52-15.07s12.34,6.19,12.73,8.79c1,6.66-4.13,9.8-10.07,12.26S116.4,329.06,114.32,319.25Z"/><path class="cls-22" d="M39.22,324.59l56.3.47a16.12,16.12,0,0,1-.43,32.23l-57.27.44Z"/><path class="cls-28" d="M106,339.15c.61,10.93-6.88,13.19-16.64,12.7s-11.26-8-11.24-10.63c.06-6.72,5.56-9.05,11.81-10.58S105.46,329.15,106,339.15Z"/><rect class="cls-1" x="7.64" y="522.24" width="125.34" height="18.57" transform="matrix(1, -0.02, 0.02, 1, -8.77, 1.23)"/><polygon class="cls-23" points="135.09 803.59 133.03 533.81 7.7 534.83 10.71 803.59 135.09 803.59"/><polygon class="cls-24" points="135.09 803.59 134.08 533.81 72.76 534.83 74.22 803.59 135.09 803.59"/><path class="cls-1" d="M31.8,564.13a7.1,7.1,0,1,1-7.21-7A7.09,7.09,0,0,1,31.8,564.13Z"/><path class="cls-30" d="M215.92,42.2A123.13,123.13,0,0,0,30.22,204a122.37,122.37,0,0,0,84.66,42h0a123.13,123.13,0,0,0,101-203.7Zm-1.47,87.19A91.44,91.44,0,0,1,117,214.47h0a91.61,91.61,0,1,1,97.46-85.07Z"/><path class="cls-1" d="M129.21,31.71A91.58,91.58,0,1,0,117,214.46h0A91.58,91.58,0,1,0,129.21,31.71Z"/></g></g></svg>