<?xml version="1.0" encoding="utf-8"?>
<!-- Generator: Adobe Illustrator 22.1.0, SVG Export Plug-In . SVG Version: 6.00 Build 0)  -->
<svg version="1.1" id="Isolation_Mode" xmlns="http://www.w3.org/2000/svg" xmlns:xlink="http://www.w3.org/1999/xlink" x="0px"
	 y="0px" viewBox="0 0 771.8 597.9" style="enable-background:new 0 0 771.8 597.9;" xml:space="preserve">
<style type="text/css">
	.st0{fill:#578667;}
	.st1{fill:#DF9031;}
	.st2{fill:#B86D1B;}
	.st3{fill:#9F5214;}
	.st4{fill:#F5AE4C;}
	.st5{fill:#9A5409;}
	.st6{fill:#395A4B;}
	.st7{fill:#3A5255;}
	.st8{fill:#396250;}
	.st9{fill:#394D4B;}
	.st10{fill:#81DFEA;}
	.st11{fill:#4A90B6;}
	.st12{fill:#4ACDDB;}
	.st13{fill:#731412;}
	.st14{fill:#4E0A0B;}
	.st15{fill:#FDCA9F;}
	.st16{fill:#FF7B01;}
	.st17{fill:#C9360A;}
	.st18{fill:#FF4118;}
	.st19{fill:#FF5F18;}
	.st20{fill:#330E00;}
	.st21{fill:#DB1B0E;}
	.st22{fill:#F69D7D;}
	.st23{fill:#F6A47F;}
	.st24{fill:#CE6A3F;}
	.st25{fill:#BBF3EF;}
	.st26{fill:#FFFFFF;}
	.st27{fill:#8C261F;}
	.st28{fill:#E2D1A1;}
	.st29{fill:#FFFFC4;}
	.st30{fill:#F65B0A;}
	.st31{fill:#EA470A;}
	.st32{fill:#DC9D56;}
	.st33{fill:#982003;}
	.st34{fill:#CC470D;}
	.st35{fill:#B8222D;}
	.st36{fill:#BD3D0D;}
	.st37{fill:#8A1B03;}
	.st38{fill:#EF4E68;}
	.st39{fill:#FF7393;}
	.st40{fill:#4A77A1;}
	.st41{fill:#E3590D;}
</style>
<path class="st0" d="M223.9,14.2c-6,4.8-7.2,3.6-8.3,10.7c-1.2,7.2,16.7,264.7,26.2,298.1c0,0-27.4,26.1-26.2,32.1
	c1.2,6,514,2.3,519.9-1.2c6-3.6-22.7-29.7-22.7-29.7s21.5-121.6,26.2-211.1c4.8-89.4,4.8-102.6-7.2-103.7
	C720,8.2,223.9,14.2,223.9,14.2z"/>
<g>
	<g>
		<polygon class="st1" points="200.8,340.6 241.2,323.4 722.1,323.4 759.8,342.5 		"/>
		<path class="st2" d="M724.9,327.5c-28.1,5.1-56.1,9.4-84.3,12.2l109.1,0.4L724.9,327.5C724.9,327.5,724.9,327.5,724.9,327.5z"/>
		<path class="st2" d="M331.2,324.2l-50.1,6c0,0,21.5,8.3,21,8.3l70.7,0.2C359.4,335.2,344.2,329.4,331.2,324.2z"/>
		<polyline class="st3" points="200.8,340.6 203.5,349.3 756.5,346.8 759.8,342.5 200.8,340.6 		"/>
		<path class="st4" d="M241.2,323.4c0,0-22.7-202.8-20.3-313.8c0-0.9,0.8-1.6,1.7-1.6c25.4-1,338.8-13.5,510.6-5.1
			c0.9,0,1.7,0.8,1.7,1.7c-0.1,19.2-1.3,208.5-12.8,318.9H241.2z"/>
		<path class="st1" d="M729.5,59.4c-1.1,67.6-4,181.7-11.7,259.3H245.5c-1.3-11.7-5-47.4-9-92.6c-1.3-4.5-2.4-8.9-3.5-13.4
			c4.6,54.6,9.3,98.4,10.4,108.4h476.6c8.2-80,11.1-199.7,12.1-267.3C731.1,55.6,730.3,57.5,729.5,59.4z"/>
		<path class="st1" d="M594.2,4.8c7.5-0.8,15.1-1.6,22.6-2.3c-10.3-0.1-20.8-0.1-31.7-0.1c-42.5,0-86.2,0.5-128.1,1.2
			c-8.8,0.9-17.6,1.8-26.4,2.9c49.6-1,103.1-1.8,154.5-1.8C588.1,4.8,591.1,4.8,594.2,4.8z"/>
		<path class="st5" d="M247.3,317.1c-3.6-33.2-21.3-203.3-19.7-302.9c35-1.4,204.8-7.8,357.4-7.8c56.6,0,104.7,0.9,143.1,2.6
			c-0.2,34.8-1.8,203.4-12.2,308.1H247.3z"/>
		<path class="st6" d="M249.7,314.5c-4-37.7-20.7-200.2-19.5-297.9c38.3-1.5,205.2-7.7,354.8-7.7c55.3,0,102.5,0.9,140.4,2.5
			c-0.3,37.9-2,200.4-11.9,303.1H249.7z"/>
		<g>
			<path class="st7" d="M669.1,268.9l-4.4-6.6l-2.2,6.8C663.2,271.5,667.3,273.1,669.1,268.9z"/>
			<path class="st7" d="M673.9,265.3c1.6-0.3,3-0.9,4.3-1.5l-3.5-4.2C673.6,261.1,672.6,262.9,673.9,265.3z"/>
			<path class="st7" d="M671.1,276.6c-2.1-0.8-1.4-3.2-1.6-4.6c-3.4,5.3-6.4,13.4-0.7,18.2c1.9-8.5,4.3-6.3,6-16.1
				c3.7-2.5,8-0.9,8.4,1.8c0.3-1.1,1.9-1.4,3.5-2l-4.4-5.3C678.1,269.3,674.2,272.1,671.1,276.6z"/>
			<path class="st7" d="M679.7,262.9c-0.5,0.3-1,0.6-1.5,0.9l4,4.8c0.7-0.1,1.4-0.2,2.1-0.2L679.7,262.9z"/>
			<path class="st7" d="M667.8,127.8c1.8-1,2.3-2,2.1-2.6C668.3,126.4,667.1,127.4,667.8,127.8z"/>
			<path class="st7" d="M641.1,225.7c1,2.6,0.8,4.5-0.1,6.2c0.8,0.8,2,1.6,3.8,2.4C646.5,233,642.5,228.2,641.1,225.7z"/>
			<path class="st7" d="M677.8,248c-0.1,0.3-0.1,0.6-0.1,0.9C677.7,248.6,677.7,248.3,677.8,248z"/>
			<path class="st7" d="M348.2,20.8c0.3,0.4,0.5,0.5,0.8,0.8C348.9,20.8,348.7,20.4,348.2,20.8z"/>
			<path class="st7" d="M273.7,83.5l1.2-0.9c-0.4-1.1-0.7-2.2-1.2-3.3L273.7,83.5z"/>
			<path class="st7" d="M606.4,147.8c-0.6-0.2-1.2-0.2-1.9-0.3c-0.6,0.5-1.2,1.1-1.8,1.6C603.9,148.7,605.1,148.3,606.4,147.8z"/>
			<path class="st7" d="M566.3,119.3c-2.9,0.9-5.7,1.8-8.6,2.7c3.1,0.5,5.8,0.1,8.3-0.6C566.1,120.7,566.4,120,566.3,119.3z"/>
			<path class="st7" d="M652.7,284.1l1.6-0.1C653.8,283.8,653.3,283.8,652.7,284.1z"/>
			<g>
				<path class="st8" d="M690.8,110.4c-2.1,4.1-4.1,8.5-11.8,10.3c1.8,1.1,4.3,3.8,3.3,7.4c-1.1-2.6-1.6-6.1-2.9-6.7
					c-0.4,4.2-5.2,7.5-10.1,11c-0.8,0.5-1.5,1.1-2.3,1.7c-3.3-2.1-4.2-6-1.1-8.7c2.2-1.2,3.7-0.9,3.9-0.1c2.7-2.2,6.4-5.1,1.4-6
					l-0.2,2.9c-4.3-0.3-12.7,3-16.1,2.6c4.4-2,8.9-3.9,13.3-5.8c6.5-2.8,12.9-5.7,19-9.1l-2.5-5.1c0.6-0.5,1.2-1.1,1.8-1.7
					l-18.4-37.6c-0.6,0.5-1.2,1-1.9,1.6l-3.1-6.3c-5,3.3-9.7,6.9-14.1,10.9c0.9-2.5-0.1-4.4,2.8-6c-2.2-0.3-4.8,0.4-7.4,1.6
					c-2.6,1.3-5.1,3.1-7.4,5c-4.4,3.9-7.5,8.4-6.4,10.3c-4.8,2.3-3.1-2.7-7-2.9c-3.9,0.6-7,4.4-9.7,7.7c-2.8,3.4-5.3,6.3-8.3,5.1
					c-0.6-0.2-0.1-1.2,0.5-2.1c-2,2-5.6,4.2-8.4,6.2c-2.2,1.6-4,3.2-4,4.4c-2.8,2.4-5.3,5.4-8.2,6l-0.8-3.4
					c-3.7,2.1-6.3,4.3-8.3,6.4c-2,2.1-3.4,4.1-5,6.2c-1.2,1.6-2.5,3.2-4.1,4.8c-0.5,0.2-0.9,0.3-1.4,0.4c-0.1,0.4-0.2,0.7-0.3,1.1
					c-2.2,1.8-4.9,3.7-8.8,5.6l2.3,1.1c-1.1,0.6-2.2,1.2-3.2,1.8c-2.1,1.2-4.1,2.4-5.3,3.9c0,0,0,0,0,0.1c-1.7-0.1-3.5,0.4-5.3,2.9
					c-0.7,0-1.5,0.1-2.3,0.4l-5.5-5c-2.5,2.6-6.9,7.5-11.8,12.6c-2.7,1.6-5.8,3.6-8.6,5.8l8.1-5.2c-2.7,2.8-5.5,5.6-8.3,8.2
					c-0.6-0.3-0.9-0.9-0.9-2.1c-0.8,0.7-1.6,1.3-2.4,2c1.6-3,3.9-6.1,6.4-9c3.4-4.1,7.1-8,10-11.5c1.8-1.3,3.5-2.5,5.1-3.9
					c2.4-1.8,4.6-3.7,6.7-5.6c4.2-3.8,8-7.9,11.8-11.8c1.9-2,3.8-4,5.6-6.1c1.9-2,3.7-4.2,5.7-6.1c1.6-1.6,3.3-3.3,5-4.9
					c1.2-0.4,2.5-0.8,3.7-1.2c5-1.4,10.1-2.8,15.2-4c-2.4-0.1-4-1-5-2.2c4.3-0.6,9-2.2,14-4.4L580,36c-4.5,0.5-9.2,1.4-14.1,2.3
					c-1.5,0.3-3.1,0.6-4.7,0.9c0,0,0,0,0,0c0,0,0,0,0,0c-0.9,0.2-1.8,0.4-2.7,0.5c-2.5,0.6-5,1.1-7.5,1.7c-5,1.1-10,2.2-14.9,3
					c-4.9,0.9-9.6,1.6-14.1,1.9c4.3,0.6,1.5,7.4-2.5,9.6c-3.2-0.1-6.6,2.8-9.5,4.6c-2.9,1.8-5.1,2.5-6.1-1.9l2.1-0.5
					c-3.5-3.4-8.1-3.7-12.9-2.6c-4.8,1.1-9.8,3.5-14.5,5l2.5,11.5c-3.7-1-7.4-1.1-11-0.8c-3.7,0.3-7.3,1.2-11,2.4
					c-0.8,0.2-1.6,0.5-2.4,0.8c-0.7-3.3,2.1-5.4-4.2-5.9c0.8-3.2,1.2-6.7,3.3-9.1c3.2,0.2,6.5,0.2,9.5,0.1c-0.3,2-0.5,4.1-0.7,6.1
					c2.8-0.8,4.8-1.8,6.2-2.9c1.2-0.9,2-2,2.6-3c2,0.2,3.5,0.7,4.6,1.5c2-1.9,4.3-3.9,6.6-5.8l-19.5-42.9c-1.6,0.8-3.3,1.6-5,2.4
					l-0.4-0.9c-4.6,0.4-5.8,2.1-6.3,4.1c-2.9,1.4-5.7,2.9-8.3,4.5l-1.1-1.1c-3.6,2.7-7.2,5.7-10.7,8.8c-3,2.6-5.9,5.5-8.8,8.3
					c-1.3-0.8-2.4-2-3.6-2.5c2.2-2.1,5.4-3.2,6.2-5.3c-2,1.6-4.7,3.1-7.5,4.6c-2.8,1.5-5.9,3-8.6,4.7c-5.4,3.3-9.8,6.8-9.2,11
					c-12.7,1.6,3.3-9.6-11.6-1.6l1.1-3.2c-4.5,0.2-8.5,1-12.1,2.3c-0.4,0.1-0.7,0.3-1.1,0.4l-15.7-22.7c-2.4,0.4-4.7,1-7,2l-3.6-5.2
					c-1-0.2-1.9-0.7-2.8-1.8c0.2,3-2.5,13.2-6.4,17.5c-0.6-15.7-15.8,14.6-22.6,3.7c0.4,2.9-0.3,5.7-1.6,8.5l-11.5,10.5
					c-14.4,3.9-3.7-13.5-23.5-5.1c-6.7,4.6-16.4,18.8-12.7,19.6c3-1.2,8.4-1.5,10.1,1.6l-5.9,4.7c2,6.3,2.4,13.5,7.6,17.6
					c-0.8,2.3-1.5,4.6-1.7,6.8c-12.6,0.7-3-11.3-10.7-14.9c5.2,4.7-6.9,16.5-0.5,18.4c-8.8,1.4-6.2,2.6-13.9,0.1
					c2.3,3,2.6,4.7,1.9,5.9l30.8,36.8c1.5-2,5.7-2.2,6.3-7.9c5.7-0.7,7.7,1.1,9.1,1.8c0.4,0.2,0.7,0.3,1,0.3
					c-1.5,2.1-3.1,4.3-4.7,6.3c-1.8,2.3-3.7,4.5-5.6,6.6c-1.9,2-3.9,3.9-5.9,5.5c-2,1.7-4,3.1-6,4.3l0.7-3.9
					c-4.5,3.9-5.1,8.1-5.2,12.3c-0.1,0.2-0.3,0.4-0.4,0.7c-0.6-1.3-1.8-3.8,0.6-6.1c-2.6,1.9-7.2,4.6-11.9,7.7l9.3,8.9
					c-0.9,1.1-2.2,2.2-4.1,3.1l0.5-2.6c-0.7,0.8-1.5,1.6-2.2,2.4l26.8,25.8c1.7-1.1,3.4-2.3,5.1-3.5l6.9,6.6c3.4-3.7,6.6-7.6,8-11.1
					c1-2.5,1.1-4.8-0.4-6.5c4.4-3.3,8.8-6.7,13.2-9.8c5.5-3.7,10.9-7.1,16.4-9.8c5.5-2.6,11.1-4.4,16.6-5.2
					c-0.4-2.5,0.9-4.5,3.2-6.2c2.3-1.7,5.3-3.1,8.3-4.5c3-1.5,5.8-3,7.6-4.9c1.8-1.9,2.6-4.1,1.4-7.2c8.5-1.2,12.1-0.6,16.1-0.7
					c4.1-0.1,8.8-0.6,19.6-3.9c2.7-1.1,3.8-3.9,4.9-7c1.1-3.1,2.3-6.5,5.3-8.7l1.8,3.5c-2.4,2.5-4.6,4.9-6.8,7.4
					c-2.3,2.6-4.6,5.5-7.2,8.9c-1.3,1.7-2.7,3.6-4.2,5.7c-0.8,1.1-1.5,2.1-2.4,3.3c-0.8,1.2-1.7,2.4-2.6,3.7
					c1.7-0.2,3.3-0.6,4.5-0.6c1.2-0.1,2,0.2,2.1,1.4c-1.3,1.9-3.4,3.3-5.5,3.9c-2.1,0.6-4,0.5-4.8-0.7l0.4-1.3
					c-3.3,6.5-8.5,11.7-14.4,16.7c-2.9,2.5-6.1,4.8-9.3,7.1c-3.2,2.3-6.5,4.6-9.7,6.9c-3.2,2.3-6.4,4.6-9.4,6.9
					c-2.9,2.4-5.7,4.9-8.1,7.4c-2.4,2.5-4.6,5.2-6.2,7.9c-1.4,2.4-2.4,4.9-3,7.5c-0.4,0.1-0.8,0.2-1.2,0.3c0.3,0.2,0.6,0.4,0.8,0.7
					l-3.5,8.3c-1.3,1-2.9,1.9-4.7,2.6l3.8-0.5c-1,2.5-2,5.1-3,7.6c-1.6,0.2-3.2,0.3-4.7,0.4c-0.3-1.3-1.2-2-3.6-0.6
					c-0.9,3.1-1.8,5.9-2.9,8.5l36.2,35.4c2-2.3,4-4.3,6.1-6l1.5,1.5c3.1-1.3,6-3.2,8.1-8.4c0.4-0.2,0.7-0.5,1.1-0.7l0,4.5
					c0.7-1.8,2-4.1,3.5-6.6c6.4-3.7,12.5-7.6,17.8-14.5c8.9,2.1,17.6-2.6,26.4-9l21.4,28.1c1.4-1.4,2.7-2.8,4.1-4.2l0.8,1.1
					c1.3-1.7,2.5-3.6,3.7-5.5c1.3-1.2,2.7-2.5,4.1-3.6c4.6-3.7,9.8-7.1,16.4-10c5.8-1.7-0.8,5.4-1.6,7.8
					c15.1-12.6,32.5-18.7,46.8-29l17.3,21.8c2.5-2.5,5.3-5.2,8.2-8.1c3-2.8,6.1-5.9,9.6-9l-0.6,3.9c8.4-2.2,19.4-10.1,27.8-13.4
					c0.8-3.9,5.5-6,0.6-8.3c4.1,0.1,7.7-0.3,11.2-1.1c3.4-0.8,6.5-2,9.5-3.5c5.9-3,11.1-7,16.2-11.1c3.3-2.6,6.6-5.2,10-7.5
					c2.4,17-13.5,16.7-16.3,33.6c3-16.7-2.3-5.5-6.4-10.9c-3.9,1.3-9.3,3.9-9.5,1.5c-0.9,8.6-11,5.2-12.1,17.6
					c-0.6-0.4-1.4,0-2.3,0.6l-52.5,34.3l70-5.9c2.1-0.2,4.8-0.7,4.9,3.1c7.9-4.3-3.1-2.9-3.2-5.7c8.8-9.1,25.5-4.2,39.8-10.6
					c-0.3,0.9-0.6,1.8-0.9,2.7c-1.2,3.5-2.8,6.9-4.9,10c-1.9-0.9-2-2.6-1.6-4.6c0.2-1,0.5-2,0.7-3c0.2-1,0.4-2,0.4-2.8
					c-1.4,2.2-3.4,4.7-5.4,7.3l15.3,25.7c5.7-4,11-8.6,11.1-12.8l-4.5,0.2c1.5,0.8,1.6,4.5,0.2,6c-2.8,4-5.8,4.4-8.1,3.6l-12-20.2
					c1.9,0.2,3.7,1.2,4.5,1.9l-1.5,2l7,11.8l2.5-1.9c-1.4-1.3-2.9-2-4.3-2.3l-2.4-4c4.4-0.2,7.6-4.9,9.9-10.1c0.6-1.3,1.1-2.7,1.6-4
					c0.5-1.3,1-2.7,1.5-4c0.5-1.3,1-2.5,1.6-3.6c0.5-1.1,1.2-2.2,1.9-3c1.7,2.9,3.3,6,4.7,9.1c0.4-4.7,0.4-9.2,0.1-13.7
					c1.6-0.4,3.7-0.4,5.3,0.5c1.5,0.8,2.5,2.5,1.6,5.3c2.1-1.2,3.1-2.4,3.7-3.4c0.6-1.1,0.7-2.1,0.7-3c0.1-1.8,0.2-3.4,3.6-5.6
					l1.6,1.6c0,0.3-0.1,0.7-0.1,1c0.1-0.3,0.1-0.7,0.2-1l1.9,1.9c0.3-0.1,0.7-0.2,1.1-0.2l-2.9-2.9c0.1-1.4,0.2-2.8,0.3-4.2
					c0-1.5,0.1-2.9,0.1-4.4c0.7,1.1,2.3,1.3,3.4,1.8c1.1,0.5,1.7,1.3,0.1,3.5c0.9-1.1,1.6-2.1,2.2-3.2c0.6-1.1,1.1-2.2,1.5-3.2
					l6.6-17.9l-19.3,5.3c-4.8,1.3-8.2,4.1-11.2,6.2l-1.3-1.3c-0.1,0.3-0.3,0.5-0.5,0.8l1,1c-1.3,0.9-2.5,1.6-3.7,2
					c0.4-0.4,0.9-0.9,1.3-1.3c0.5-0.5,1-1.1,1.4-1.7l-1.4-1.4c-1.3,1.4-2.8,2.8-3.9,4.4c-0.7-0.2-1.3-0.4-2-0.9l1-0.9
					c-17.9,9,0.2,7-11.5,19l-5.5-4.8c1.5-4.1,1.5-5-3.2-2.8l-3.3-2.9c4.2-2.1,9.2-3.8,11-7.1c-5.5-5.8,9.1-14.1,16-25.1
					c1.4,2.5,19.8-14,30.1-20.5l0.7,1.2c-1.9-3.2-1-6.5,1-9.9l-9.1-13.7c1.1,0,2.3,0.2,3.6,0.4c2.4-7.3-11.9,2.9-10.8-4.5l1.4-0.8
					c4.4-1.7,9.7-1.9,14.4-1.6c5.1,0.2,9.4,0.8,10.8,0c6.8-1.5,8.4-5.2,9.9-9.2L690.8,110.4z M649.7,263.9c-0.5-1.3-1.1-2.9-1.8-4.5
					c1.6-1,3.1-2.1,4.6-3.5c0.2,0.8,0.4,1.5,0.6,2.3C653.5,260.1,653.4,262,649.7,263.9z M658.1,251.9c0.6-0.4,1.2-0.9,1.7-1.3
					c-0.2,0.8-0.5,1.7-0.7,2.6C658.9,252.6,658.6,252.2,658.1,251.9z M670.4,240.2c0.1-0.1,0.2-0.2,0.3-0.3l1.6,1.5
					C671.5,241.4,670.9,240.9,670.4,240.2z M678,245.7l-0.8-0.8C677.7,244.9,677.9,245.2,678,245.7z M674.8,236c0,0.1,0,0.3,0,0.4
					c0,1.3-0.2,2.8-0.4,4.3c-0.4,0.3-0.7,0.4-1,0.6l-2-2C672.4,238.1,673.6,237,674.8,236z M611.4,250.5c1.5-3.3,3.4-7,7.7-8.2
					c0.3,0.9,0.4,1.7,0.4,2.4c-0.3,0.6-0.3,1-0.1,1.2c-0.3,1.6-1,2.8-1.2,3.6C616.1,249.5,613.7,249.9,611.4,250.5z M627.7,243.7
					c-1.1,0.2-2.7,0.5-4.1,0.3c0.8-1.5,2.2-2.8,4-3.8L627.7,243.7z M527.7,232.3c-1.2-5.3,8.7-16.3,9.1-19.9
					c0.4,11.2,13.4-0.8,16.7,5.8c-4.7,1.4-9.9,3.2-11.8,8.1c1.4-2.4-1.7-7.1-1.4-5.7c-3.5,2.3-6.6,5.1-9.6,8.3
					C529.7,230,528.7,231.2,527.7,232.3z M309.6,137.2c1.7-1.5,3-2.5,4.1-3c-1,1.7-2.1,3.5-3.2,5.2c0,0.1-0.1,0.1-0.1,0.2
					C310,138.8,309.7,138,309.6,137.2z M490.3,118c-0.5,0.5-1.1,1-1.6,1.6C489.3,119,489.8,118.4,490.3,118z M500.8,210
					c-0.2,0.3-0.4,0.6-0.7,0.8C500.3,210.6,500.5,210.3,500.8,210z M439.5,132.4l2.1,1.3C440.1,134.2,439.2,134.1,439.5,132.4z
					 M444.9,129.9c1.7-1.4,3.7-2.6,5.9-3.4c0.1,0.2,0.2,0.4,0.3,0.6c0.8,1,2.2,1.7,1.7,4.4l-0.3,0.3c-1.4-1-3.6-0.6-5.7,0.1
					C445.8,131.3,445.1,130.7,444.9,129.9z M452.7,131.8C452.7,131.8,452.7,131.8,452.7,131.8C452.7,131.8,452.7,131.8,452.7,131.8
					C452.7,131.8,452.7,131.8,452.7,131.8z M443.4,76.3c-0.2,0.2-0.4,0.3-0.6,0.5c-1.8,1.3-3.7,2.8-5.8,4.4c0.7-2.1,1.4-4.2,2.6-5.9
					C440.8,75.8,442.1,76.2,443.4,76.3z M412.9,96.1c-0.3,0.1-0.7,0.1-1,0.2c-1.1,0.1-2.1,0.2-3.1,0.1c1-0.4,2.1-0.8,3.3-1
					C412.4,95.6,412.6,95.9,412.9,96.1z M344.9,81.2c-0.2,0.2-0.3,0.4-0.5,0.6C344.5,81.6,344.7,81.4,344.9,81.2z M438.1,131.5
					l0.7,0.4c-0.7,0.7-1.4,1.3-2,1.9C437.2,133,437.7,132.2,438.1,131.5z M614.6,140.3l-2.1,9.2c4.4-3.8,9.1-7.2,14.1-10.3
					c2.2,0.7,4,2.1,2.4,2.9c-19.8,5.6-6,8.3-18,15.1c-8.4-0.2-2.2-9-11.3-1.9c0.6-2.6,0.7-5.3,1.4-7.7c1.2-0.1,2.4-0.1,3.6,0
					c2.7-2.3,5.6-4.8,8.6-7.2C613.6,140.3,614.1,140.3,614.6,140.3z M548.5,181.6c0.2-0.3,0.4-0.6,0.7-0.9c0.8-0.3,1.5-0.6,2.3-0.9
					c0.1,0.1,0.2,0.3,0.3,0.5C550.6,180.9,549.5,181.4,548.5,181.6z M551.9,180.2c0-0.2,0.1-0.4,0.2-0.6c0.9-0.4,1.8-0.7,2.7-1.1
					C553.8,179.1,552.8,179.7,551.9,180.2z M552,181.1c-0.1-0.1-0.2-0.3-0.2-0.5C552,180.9,552,181.1,552,181.1z M556.2,217.5
					c-0.1-0.1-0.1-0.2-0.2-0.3c0.5-0.1,0.9-0.2,1.3-0.3c-0.1,0.1-0.2,0.2-0.3,0.3C556.7,217.4,556.5,217.4,556.2,217.5z
					 M593.6,199.2c-0.2,0.1-0.4,0.3-0.7,0.4C593.1,199.5,593.3,199.4,593.6,199.2z M621.8,195.6c1.9-1.7,3.8-3.1,5.8-4.4
					c1,1.2,1.7,2.6,1.7,4.1l-7.4,1C621.8,196.1,621.8,195.9,621.8,195.6z M664.4,187.3c-0.8-0.1-1.7-0.3-2.9-0.7
					c1-3.2,4.4-6.8,8.3-9.1C668.2,180.9,666.9,184.5,664.4,187.3z M655.5,127.2c-5.6,1.1-9.8,3-14,5c-3.9,1.9-7.7,3.8-12.6,5.5
					c0.3-0.2,0.6-0.4,1-0.6c3.1-1.8,6.2-3.5,9.4-5.1c3.2-1.6,6.4-3.2,9.6-4.6c0.6-0.3,1.2-0.5,1.8-0.8
					C650.9,127.6,652.9,127.6,655.5,127.2z M518.6,140.4c-4.2,3.1-7.8,6.6-8.2,9.3c1.9-2,3.8-5.5,6.7-5.7c-1.9,5-4.7,9.5-8.5,13.6
					c-1.9,2-4,3.9-6.4,5.7c-2.4,1.8-5,3.6-7.8,5.2c-2.6-6.2-8.1-5.4-14.8-2.5c1.1-1.8,2.2-3.6,3.2-5.4c2.1-3.8,4.1-7.6,6.3-11.4
					c2.3-3.7,4.7-7.5,8.2-10.8c3,3.8,8.4,3.7,14.1,2.1c5.6-1.6,11.6-4.5,15.6-6.4l0.3,0.6C524.5,136.4,521.4,138.3,518.6,140.4z
					 M589.5,82.5l-0.8-2.3c0.1-0.2,0.2-0.3,0.3-0.5l1.1,3C589.9,82.7,589.7,82.6,589.5,82.5z M576.3,45.8c-0.1,0.2-0.2,0.4-0.3,0.6
					l-1.7-4.5c0.2,0,0.3,0.1,0.5,0.1L576.3,45.8z M452.5,68.9c0-0.1,0-0.2,0.1-0.3C452.6,68.7,452.6,68.8,452.5,68.9z M452.3,68.6
					c0.1,0,0.2,0,0.2,0C452.4,68.6,452.4,68.6,452.3,68.6z M479.2,57.2l-1.7-3.8c0,0,0.1-0.1,0.2-0.1l1.7,3.8
					C479.3,57.2,479.3,57.2,479.2,57.2z M460.5,15.4l1.8,4c0,0-0.1,0.1-0.1,0.1l-1.8-4C460.4,15.5,460.4,15.4,460.5,15.4z
					 M298.5,75.7c-0.2,0.1-0.3,0.2-0.5,0.4C298.2,75.9,298.3,75.8,298.5,75.7z M342.4,161.4c-0.2,0.2-0.5,0.3-0.8,0.5
					C341.9,161.7,342.1,161.5,342.4,161.4z M397.5,110.8C397.5,110.8,397.5,110.8,397.5,110.8C397.5,110.9,397.5,110.9,397.5,110.8z
					 M332.1,253.9l1.9,1.8C332.1,257.5,332.1,255.9,332.1,253.9z M446.8,282.1l-20.3-26.7c0.1-0.1,0.2-0.2,0.4-0.3l18.1,23.7
					c1-0.7,1.9-1.4,2.8-2C448.6,278.7,448.1,280.5,446.8,282.1z M529.2,234.3C529.2,234.4,529.2,234.4,529.2,234.3
					C529.2,234.4,529.2,234.4,529.2,234.3C529.2,234.4,529.2,234.3,529.2,234.3z M624.8,202.2c-0.4-0.6-0.9-1.3-1.4-2.1
					c2.3-1.3,4.6-3.1,5.9-4.7C629.1,197.4,627.9,199.6,624.8,202.2z M650.3,196.7c1.3-0.1,2.6-0.1,3.9,0c-1.3,1.9-3.1,3.4-5.9,3.8
					C648.8,199.2,649.5,197.9,650.3,196.7z M676.3,164.1c-3.4,2-7.4,3.7-10.7,5.8c1.3-1.2,2.7-2.4,4.2-3.3
					C671.7,165.4,673.9,164.6,676.3,164.1z"/>
			</g>
			<path class="st7" d="M607.3,88.9c-0.3,0.4-0.8,0.9-1.2,1.5C606.7,89.8,607.1,89.4,607.3,88.9z"/>
			<path class="st7" d="M607.6,224.2c0.4,1.1,0.9,1.8,1.3,2.4c0,0,0.1,0,0.1,0L607.6,224.2z"/>
			<path class="st7" d="M515.8,152.3c0,0,0,0,0,0.1c0.4-0.3,0.7-0.6,1.1-0.9L515.8,152.3z"/>
			<path class="st7" d="M658.4,296.8c-0.2-0.4-0.2-0.7-0.2-1l-1.8,1.6L658.4,296.8z"/>
			<path class="st7" d="M658.2,295.8l1.8-1.6C659.1,294.7,658.3,295.1,658.2,295.8z"/>
			<path class="st7" d="M663.8,290.9l-3.7,3.3C661.5,293.6,663.5,293,663.8,290.9z"/>
			<path class="st7" d="M677.5,250.7c1.1-0.2,2.5-0.2,4.1-0.1l-1.7-1.7C678.8,249.2,678,249.7,677.5,250.7z"/>
			<path class="st7" d="M544.2,127.7c4.9-2,10.8-2.1,12.7-4.1C553.1,121.7,546.2,122.8,544.2,127.7z"/>
			<polygon class="st7" points="466.9,68.2 470.6,64.2 462.8,69.4 			"/>
		</g>
	</g>
	<g>
		<path class="st9" d="M278,320l0.5,7.3c0.1,1.8,1.6,3.2,3.4,3.2l41,0.6c2.7,0,5.2-1.2,6.9-3.3l4.2-5.4c1.2-1.6,1.9-3.5,1.8-5.6
			l-0.2-7.4L278,320z"/>
		<polygon class="st10" points="273.8,317.2 275.2,323.5 325,324.2 325,315.8 		"/>
		<polygon class="st11" points="337.6,305.9 337.6,311.6 325,324.2 325,315.8 		"/>
		<polygon class="st12" points="273.8,317.2 292.7,306.6 337.6,305.9 325,315.8 		"/>
	</g>
</g>
<g>
	<polygon class="st13" points="124.6,583.6 128.2,539.7 145.2,544 138.8,581.5 	"/>
	<path id="XMLID_46_" class="st14" d="M121.9,570.6l24.8-4.2c-0.1,4.5-2.8,14.2-2.8,14.2s35.4-7.2,35.4,10.2h-58.9L121.9,570.6z"/>
	<path class="st13" d="M168.5,587.3h6.4c-2-3.2-7.3-4.8-15.8-4.8c-0.1,0-0.2,0-0.4,0C162.2,583.8,165.4,585.5,168.5,587.3z"/>
	<polygon class="st13" points="74.4,583.6 77.9,539.7 94.9,544 88.5,581.5 	"/>
	<path class="st15" d="M261.1,213.3l5.8-1.6c2.1-1,3.6-2.8,4.4-5l2.5-7.5l-11.1,2.8l-3.9,8.1L261.1,213.3z"/>
	<path class="st15" d="M250.8,220.8c0.9,1.2,1.8,2.3,2.8,3.4c4.6-5.7,7.5-10.9,7.5-10.9l-6.2-12.1l-11.2,6
		C244.5,212.1,247.8,216.9,250.8,220.8z"/>
	<path class="st16" d="M261.5,198.9c-0.6-0.8,58.9-67.2,58.9-67.2l13.2,13.2l-65.4,62L261.5,198.9z"/>
	<path class="st15" d="M254.8,201.1c0,0,3.3-5.5,6.7-10.3c2.9-4,11.5,1.8,10.5,4.5c-1.3,3.2-8.7,1-8.7,1s7.5,10.2-4.8,13.1
		C246.2,212.3,254.8,201.1,254.8,201.1z"/>
	<path class="st17" d="M239,207.3l4.8-3.7c0,0,11.8,13,14.4,20.5l-6.5,5.6C251.7,229.8,241,219,239,207.3z"/>
	<path class="st15" d="M270.5,198c-1.4,3.4,7.5,6,7.9,3.2C278.8,198.3,271.9,194.6,270.5,198z"/>
	<path class="st15" d="M269.9,202.2c-1.4,3.4,7.5,6,7.9,3.2C278.2,202.6,271.3,198.8,269.9,202.2z"/>
	<path class="st15" d="M268,205.5c-1.4,3.4,6.1,5.8,6.5,3C274.9,205.7,269.4,202.1,268,205.5z"/>
	<path class="st18" d="M152.3,195.6l40.4,34.7l43.2-25.5c0,0,17.3,12.4,18.8,30.1c0,0-52.4,32.6-60.2,33.3
		c-7.8,0.7-43.2-31.9-43.2-31.9L152.3,195.6z"/>
	<path class="st19" d="M159.1,209.5c9.1,6.9,18.3,13.7,27.4,20.6c3.1,2.3,6.5,6.1,4.5,9.4c1.9-1.9,3.8-3.8,5.7-5.7
		c1.2,1.2,2.4,2.5,3.6,3.7c-1.3-1.4-1.1-3.8,0-5.3c1.1-1.6,2.9-2.5,4.6-3.4c9.1-4.8,18.2-9.6,27.3-14.4c2.9,0.8,5.6,2.4,6.6,5.2
		c-6.6-0.8-13.6,2.9-18.9,7c-6.9,5.3-13.7,10.7-20.5,16.1c-2.3-2.7-7.1-2.8-9.5-0.2C179.5,231.3,170.1,220,159.1,209.5z"/>
	<path class="st14" d="M88.5,327.3c0,0-24.3,35.8-10,52.8L66.9,556.7c0,0,47.4,9.2,36.8-4.2l11.3-184.8h9.2l-5,189.1
		c0,0,44.3,9.2,33.3-6.4c-2.6-3.7,7-217.2,7-217.2L88.5,327.3z"/>
	<path class="st13" d="M143.5,460.6c-1.3,20.5-1,41.5,2.7,61.7c0.7,3.6,1.5,7.1,2.6,10.5c0.2-15.1,1-42.5,2.9-92.6
		c0.6-14.7,1.2-29.4,1.7-43c-0.3,1.5-0.6,2.9-0.8,4.4C148.8,421.3,144.8,440.6,143.5,460.6z"/>
	<path class="st13" d="M101.9,470.3c-0.9,24.6-1.1,49.1-1.1,73.7l9.9-162C105.1,411.1,103,440.7,101.9,470.3z"/>
	<path class="st18" d="M59.5,200.5c0,0,39.7-36.1,92.8-5l16.3,151.5c0,0-30.5,24.8-100.6-0.7l6.4-72.9L59.5,200.5z"/>
	<path class="st19" d="M119.8,268.3c-2.1-3.8-35.7-31.1-41.5-47.1c9.3,6.6,18.6,13.1,28,19.7c-4-7.6-8-15.2-12-22.7
		c1.9,3.6,9,5.9,12.7,6.7c5.7,1.2,8.1-1.2,9.8,4.7C120.1,241,118.8,256.2,119.8,268.3z"/>
	<path class="st18" d="M59.5,200.5c-12.7,12.7-38.9,76.5-38.2,87.1c0.7,10.6,40.9,37.9,40.9,37.9l14.8-16.9L61,285l11.9-46.2
		L59.5,200.5z"/>
	<g id="XMLID_34_">
		<g id="XMLID_44_">
			<path id="XMLID_45_" class="st20" d="M155.9,314.2c-0.6-2.3-1.1-3.8-1.1-3.8l-72.3,3c0,0-0.3,1.5-0.6,4c0.4,0.5,0.6,0.9,0.6,0.9
				C114.7,331.5,138.1,331.5,155.9,314.2z"/>
		</g>
		<g id="XMLID_41_">
			<path id="XMLID_43_" class="st21" d="M78,311c-3.8,4.5-3.2,12.1,1.3,15.9c2.5,2.2,5.8,3.1,9.1,3.9c12.9,3.3,26.2,5.8,39.4,5
				c13.3-0.8,26.7-5.2,36.4-14.4c0.4-3.1,0.5-6.7-0.2-9.8c-0.7-3.1-2.9-6-5.9-6.8c-1.4-0.4-2.9-0.3-4.4-0.2
				C128.6,306.6,103.1,309.1,78,311z"/>
			<polygon class="st13" points="120.4,197 132.7,308.6 153.2,298.7 140.2,187.1 			"/>
		</g>
		<g id="XMLID_38_">
			<path id="XMLID_40_" class="st22" d="M115.8,186.9l-0.7-13.2l-15.7-9l-7.3,1.6C92.1,166.2,103.6,188.5,115.8,186.9z"/>
		</g>
		<path id="XMLID_37_" class="st14" d="M72.1,180.2c-13.9,8.9-9.4,14.2-8.7,15.6c0.7,1.4,38.5,19.3,51.8,19.5
			c13.3,0.2,32.7-24.5,29.9-29c-2.8-4.5-13.5-10.4-13.5-10.4L72.1,180.2z"/>
		<path id="XMLID_35_" class="st13" d="M86,166.6c16.7,5.9,26.3,4.9,42.1-3c5.2,2.4,10.1,5.3,13.1,10.2c-3.2,9.5-7,18.4-12.5,26.9
			c-0.8,1.3-1.7,2.6-3,3.3c-1.3,0.7-3.2,0.7-4.2-0.4c-14-2-27.4-7-40.4-12.5c-4.9-2.1-5.2-5.7-6.3-10.9c-0.6-3,4-5.6,4.9-8.6
			C80.6,168.7,83,165.6,86,166.6z"/>
	</g>
	<g>
		<path class="st15" d="M164.3,83.3c-0.9,25.1,14.9,115.2-74.3,95.1C15.7,161.5,34.7,73.6,34.7,73.6l65.1-20.2l63.9,12.8L164.3,83.3
			z"/>
		<path class="st23" d="M46.8,69.9l53-16.4l63.9,12.8l0.6,17c-0.4,11,2.4,34.6-1.8,55.8c-7.4,2.8-18.1-0.2-23.5-4.7
			c-6.2-5.1-10.3-14.8-11-22.4c-0.5-4.9-1.2-8.3-6.9-8.4c-1.8,0-4.7-0.2-6,1.1c-1.3,1.2-1.7,5.6-2.2,7.8
			c-2.9,10.8-8.2,22.8-20.6,24.2c-16.8,1.9-27.1-10.8-32.3-25.3c-2.9,0.7-6.4,2.1-9.4,2C50,100.4,44.7,83.9,46.8,69.9z"/>
		
			<ellipse transform="matrix(0.9664 -0.2572 0.2572 0.9664 -36.9046 25.8378)" class="st23" cx="80.3" cy="154" rx="12.1" ry="12.1"/>
		<path class="st23" d="M160.2,148.2c-2.9,9.1-7.6,17.3-14.9,23.2c-3-3.7-4.1-8.7-2.6-13.5C145,150.5,152.7,146.3,160.2,148.2z"/>
		<path class="st14" d="M51.5,120.3l7-2.9L54,90.8c0,0,14.1,5.9,9.1-20.8c0,0,9.5,8.7,16.4,6.7c0,0-6.8-3.3-9.2-7.5
			c0,0,14.1,7.6,26.4,7.4l2.3-3c0,0-9.3-6.5-10.7-6.1c-1.4,0.4,22.7,6.8,45.1,9.1l-30-9.1c0,0,43,11,71.3,3.4c15.4-4.1,26-11,26-11
			l-7.1-6.5c0,0-16.4,5.7-20.2,6c0,0,21.3-5.6,35.6-30.5c0,0-24.2,12.4-51.8-3c-27.6-15.4-97.4-46.8-124.5,8c0,0-21.7-7-30.4,13
			c-8.6,20,8,60.2,22.7,70.8C39.7,128.4,51.5,120.3,51.5,120.3z"/>
		<g>
			<path class="st24" d="M132.3,138.9c0.1,0.1,0.6,0.1,1.3-0.2c0.4-0.2,0.8-0.4,1.4-0.7c0.5-0.3,1.1-0.7,1.7-1.4
				c0.3-0.4,0.6-0.9,0.6-1.5c0.1-0.6,0-1.1-0.2-1.6c-0.3-1-0.8-1.8-1.2-2.6c-0.9-1.7-2-3.4-3-5.3c-4-7.6-6.3-14.3-7.1-14.1
				c-0.3,0.1-0.1,1.9,0.6,4.7c0.8,2.8,2.1,6.6,4.2,10.6c1,2,2.2,3.8,3.2,5.3c0.5,0.8,1,1.5,1.2,2.1c0.3,0.6,0.3,0.9,0.1,1.4
				c-0.2,0.5-0.7,0.9-1.1,1.3c-0.4,0.4-0.8,0.7-1,1C132.5,138.4,132.2,138.8,132.3,138.9z"/>
		</g>
		<g>
			<path class="st24" d="M107,135.5c-0.3,0.1-0.4,1.7,0.4,4.3c0.4,1.3,1.1,2.8,2.1,4.3c0.5,0.7,1.1,1.5,1.8,2.2
				c0.3,0.4,0.7,0.7,1.1,1.1c0.4,0.4,0.8,0.7,1.2,0.9c3.6,2.5,7.6,3,10.3,2.5c1.4-0.2,2.4-0.7,3.1-1.1c0.6-0.4,0.9-0.7,0.9-0.9
				c-0.1-0.2-0.5-0.1-1.2,0c-0.7,0.1-1.7,0.2-2.9,0.2c-1.2,0-2.6-0.2-4.1-0.6c-1.5-0.4-3.1-1.2-4.5-2.2c-3-2.1-4.9-5-6-7.2
				C107.9,136.9,107.3,135.4,107,135.5z"/>
		</g>
		<path class="st11" d="M131.2,94.6c0,0-9.2-7.2-17.6,0l1.3,2.3c0,0,6.6-4.7,14.8,0L131.2,94.6z"/>
		<polygon class="st11" points="67,101.4 38.2,111.5 39.4,113.4 67,105.1 		"/>
		<circle class="st25" cx="91.6" cy="106.9" r="26.8"/>
		<path class="st26" d="M97.4,84.4c1.3,0.3,2.6,0.8,3.8,1.4l-30.7,30.7c-0.6-1.2-1-2.5-1.4-3.8L97.4,84.4z"/>
		<path class="st26" d="M109,91.5c2,2.3,3.5,4.9,4.5,7.8l-29.5,29.5c-2.9-1-5.5-2.6-7.8-4.5L109,91.5z"/>
		<circle class="st25" cx="152.6" cy="106.9" r="26.8"/>
		<path class="st26" d="M166.2,88.1c3.2,2.3,5.7,5.4,7.4,8.9l-30.9,30.9c-3.6-1.7-6.6-4.3-8.9-7.4L166.2,88.1z"/>
		<path class="st26" d="M154.8,83.8c1.4,0.1,2.7,0.4,4,0.7l-28.6,28.6c-0.4-1.3-0.6-2.6-0.7-4L154.8,83.8z"/>
		<path class="st15" d="M52.7,122c-8.5-13-22.3-22.6-29.6-7.3c-7.3,15.3,8.4,51.4,36.8,41.2C72.8,151.2,57.6,129.5,52.7,122z"/>
		<path class="st23" d="M32.2,116.2c8.9-1.6,17.6,14.8,18.1,22c0.5,7.2-0.4,13.1-8.4,10c-8-3.1-11.5-12.3-7.2-18.4
			c4.3-6.1,11.4,5,11.4,5s-3-10.8-6.9-14.5C35.3,116.6,32.2,116.2,32.2,116.2z"/>
		<path class="st13" d="M118.7,57.7c-12.4,0.8-26.8-3.6-38.7-6.9c-7.5-2.1-17.5-4.8-22.8-11c12.5,4.6,26.6,6.5,39.8,7.6
			c13.4,1.2,27.5,3.8,40.9,1.3c-17.4,0.1-35.3-2.9-52.2-6.7c-9.7-2.2-23.2-4.1-31.3-9.7c7.9-1.7,15.5-4.7,23.9-5.5
			c9.5-0.9,18.9-0.7,28.2,1.4c-9.6-5.1-20.5-5.4-31.1-5.4c-11.1,0-21.2,4.5-30.8,9.7c1.2-8.9,16.5-16.3,23.5-17.9
			c26.3-5.9,56.6,5.1,80.1,17c2.7,1.4,20.9,14.1,23.7,10.7c-5.7,6.7-10,11.3-17,14.3c-13.2,5.5-28.1,5.9-42.3,4.4
			c-4.5-0.5-9.1-1.1-13.7-1.9C105.6,59.1,112.1,58.7,118.7,57.7z"/>
		<path class="st13" d="M15,45.4c5.5-4,11-5.1,16.5-3.9c-9,4.1-17.6,14.7-16.7,23.3c1.2-7,7.6-18.1,16-16.8
			c-2.4,3.4-6.4,8.3-5.8,12.7c2.5-3.8,4.8-10.2,9.7-11c-5,8.2-5,21.7-2.1,30.7c-0.2-8.4,2.3-23.8,9.4-29.4
			c6.1,4.7,3.6,19.5,4.1,26.4c3.4-2.3,5-10.1,5.1-17c0,0.1,0.1,0.1,0.1,0.2c0.5,1.4,1,3,1.5,4.5c2,6.9,3.8,21.6-6.6,23.2
			c-0.7,3.7,0.7,8.9,1.7,12.3c-5.2,2.8-15.3-2.8-20-5.4c-8.4-4.7-13.5-11.1-16.8-20.3C7.3,64.6,5.3,52.4,15,45.4z"/>
		<path class="st27" d="M130.6,27.6c-0.5-0.5-1.4-1.2-2.8-2c-2.4-1.3-5.8-2.5-8.5-3.1c-2.5-0.6-8.1-2.6-10.5-1.5
			c-7.8,3.4,13.5,7.9,16,8.4C128.6,30.1,132.6,29.6,130.6,27.6z"/>
		<path class="st27" d="M11.9,55.8c-2.2-1.4-4.8-0.4-5.7,5c-0.6,3.4-1,16.4,5.3,15.3c4.1-0.8,3.9-9,4-12
			C15.5,60.2,13.9,57,11.9,55.8z"/>
		<path class="st27" d="M17.7,83c-2.4-2.4-1.1-8.8,3.2-6.7C24.5,78,22.9,88.3,17.7,83z"/>
	</g>
	<g>
		<path class="st28" d="M114.3,298.5c-3.6-10.9,1.4-15.3,9.2-14.1c12.1,1.9,19.7-7.9,18.8-17.3l4.8,20.3L114.3,298.5z"/>
		<path class="st29" d="M54.2,282.4c0.2-0.8,2.3-11.8,2.3-11.8l57.8,26.3l55.3-27.7l4.9,14.7l-58.9,21.7L54.2,282.4z"/>
		<path class="st30" d="M120.1,301.1c-2.8,0-6.4,0-9.3,0.1l-61.7-23.5l19.2,55.8l49.2,15.9l46.3-15.9l18.5-55.8L120.1,301.1z"/>
		<path class="st31" d="M63.5,301c2.4,1.2,5.1,2.3,6.8,4.6c1.9,2.5,0.6,5,1.7,7.5c1,2.2,4,3.5,4.9,6.2c0.9,2.8-0.1,5.8-0.7,8.5
			c2.9,1.5,5,6.6,2,8.6c-6,3.9-13-3.7-15.1-8.5C59.4,319.1,55.2,308.4,63.5,301z"/>
		<polygon class="st31" points="64.1,294.3 99.9,307.8 99.2,317.3 65.2,304.1 		"/>
		<polygon class="st17" points="182.3,277.7 120.1,301.1 120.1,347.7 169.3,332.5 		"/>
		<path class="st31" d="M120.1,301.1v46.5c0,0-13.9,0.3-13.6-0.7c0.3-1,4.3-45.7,4.3-45.7L120.1,301.1z"/>
		<path class="st23" d="M56.5,332c-10-17.2-10.1-31.3,1.1-33.1c11.2-1.8,9.4,6.7,5.5,8.5c0,0,10.2,1.6,4.4,9.6
			c0,0,10.9,5.9,1.8,13.9C60.2,338.7,56.5,332,56.5,332z"/>
		<path class="st15" d="M51.7,311.4c0-2.9,1.2-7.2,4.3-8.4c4.2-1.6,4.3,3.2,1.3,4.9c3.6,0.7,9.4,3.3,3.5,6.4
			c-1.3,0.7-4.7,2.7-6.2,2.6c-2.9-0.3-1.7-3.5-2.7-5.9"/>
	</g>
	<path id="XMLID_31_" class="st14" d="M71.7,570.6l24.8-4.2c-0.1,4.5-2.8,14.2-2.8,14.2s35.4-7.2,35.4,10.2H70.1L71.7,570.6z"/>
	<path class="st13" d="M115.3,587.3h9.4c-2-3.2-7.3-4.8-15.8-4.8c-0.1,0-0.2,0-0.3,0C110.8,584.1,113.1,585.7,115.3,587.3z"/>
</g>
<path class="st32" d="M490.8,590.4c0-4.2,45.8-7.6,102.2-7.6c56.4,0,102.2,3.4,102.2,7.6c0,4.2-45.8,7.6-102.2,7.6"/>
<g>
	<polygon class="st33" points="426.4,529.8 437.5,444.8 375.6,444.8 367.9,529.8 	"/>
	<polygon class="st34" points="419,529.8 430.1,444.8 368.2,444.8 360.5,529.8 	"/>
	<rect x="394.1" y="529.8" class="st33" width="32.2" height="11.4"/>
	<rect x="416.1" y="541.1" class="st33" width="10.2" height="49.6"/>
	<rect x="340.8" y="529.8" class="st34" width="61.5" height="11.4"/>
	<rect x="340.8" y="541.1" class="st33" width="10.2" height="49.6"/>
	<rect x="392" y="541.1" class="st33" width="10.2" height="49.6"/>
	<g>
		<path class="st23" d="M355.5,532.7l-7.4,3.4l0.1,14.5l-6.6,7.1l-9.1-2.4c0,0-8.1-26.7-1.2-32.4c6.9-5.7,17.3-11.1,17.3-11.1
			L355.5,532.7z"/>
		<path class="st15" d="M355.5,532.7l-7.4,3.4l0,0.3c-1.2-1.2-2.4-2.4-3.2-3.7c-4.5,2.1-2.2,8.3-1.2,12c0.9,3.6,2.3,5.1,4.5,5.3
			l0,0.6l-6.6,7.1l-9.1-2.4c0,0-8.1-26.7-1.2-32.4c6.9-5.7,17.3-11.1,17.3-11.1L355.5,532.7z"/>
		<path class="st14" d="M388.1,508.8l-3.2-14.9c-7.6,1.8-15.1,3.9-22.3,6.8l-18.2,10.8c0.4,19.6,11,26.4,11,26.4l21.4-8.1
			C385.1,526.6,390,517.7,388.1,508.8z"/>
		<path class="st35" d="M351.5,563.4l-3.3-12.8c0,0-5.9,6.2-11.5,3.5c-5.6-2.6-5.7-4.4-5.7-4.4s-8.1-2.9-4.1,7.6
			c0,0-13.8,0.1-11.3,10.5L351.5,563.4z"/>
		<polygon class="st28" points="315.5,567.7 315.8,569.9 351.8,566.7 351.4,563.7 		"/>
		<path class="st23" d="M383.9,534.2l-7.4,3.4l0.1,14.5l-6.6,7.1l-9.1-2.4c0,0-8.1-26.7-1.2-32.4c6.9-5.7,17.3-11.1,17.3-11.1
			L383.9,534.2z"/>
		<path class="st15" d="M383.9,534.2l-7.4,3.4l0,0.3c-1.2-1.2-2.4-2.4-3.2-3.7c-4.5,2.1-2.2,8.3-1.2,12c0.9,3.6,2.3,5.1,4.5,5.3
			l0,0.6l-6.6,7.1l-9.1-2.4c0,0-8.1-26.7-1.2-32.4c6.9-5.7,17.3-11.1,17.3-11.1L383.9,534.2z"/>
		<path class="st14" d="M416.5,510.2l-3.2-14.9c-7.6,1.8-15.1,3.9-22.3,6.8l-25.8,13.7c6.8,17.7,18.5,23.5,18.5,23.5l21.4-8.1
			C413.5,528.1,418.4,519.1,416.5,510.2z"/>
		<path class="st13" d="M382.3,509.2l-14.1,7.5c1.2,1.5,2.4,3.1,3.6,4.6c8-3.9,16.4-7.3,24.6-11.1
			C391.7,510.1,387,509.8,382.3,509.2z"/>
		<path class="st35" d="M379.9,564.8l-3.3-12.8c0,0-5.9,6.2-11.5,3.5c-5.6-2.6-5.7-4.4-5.7-4.4s-8.1-2.9-4.1,7.6
			c0,0-13.8,0.1-11.3,10.5L379.9,564.8z"/>
		<polygon class="st28" points="343.9,569.2 344.2,571.4 380.2,568.1 379.8,565.2 		"/>
	</g>
	<g>
		<path class="st23" d="M342.3,363.2c-5.2-3.3-11.6-4.3-11.4,8.8c0.2,13.1,6.5,26,11.8,23.6C348,393.2,342.3,363.2,342.3,363.2z"/>
		<path class="st12" d="M408.1,441.6c0,0-18.9-0.6-22.8-0.3c-3.9,0.4-16.4,33.1-23.6,61.1c0,0,21,17,63.1,5.9L408.1,441.6z"/>
		<path class="st23" d="M405.2,428.4l-2,16.8c0,0-6.3,3-11.3-0.8l-1.7-17.5L405.2,428.4z"/>
		<path class="st15" d="M347.2,331.5c-7.4,24.8-30.6,102.2,47.8,101.4c78.4-0.7,88.2-84,88.2-84L426.3,308l-74.9,15.3L347.2,331.5z"
			/>
		<path class="st23" d="M426.3,308l-74.9,15.3l-4.1,8.2c-1.8,6-4.5,15.2-6.5,25.6c19.6-2,59.2-7.2,71.8-16.2c0,0-11,8.4-16.8,10.4
			c0,0,15-0.8,25-7.8c0.4-0.3,0.9-0.6,1.3-1c9.9-7.9-0.4,0.4-0.4,0.4s-1.5,23.8,23.5,22.2c9.1-0.6,15.8-13.2,20.6-29L426.3,308z"/>
		<path class="st14" d="M426.6,333.9c-7.9,10.8-8.4,22.5,4.7,29.3c0,0-16.5-11-2.6-28.4L426.6,333.9z"/>
		<path class="st14" d="M468.7,301.3c0,0,15.3-1.7,16.8-19.6c0,0-9.2,11.2-14.6,12.4l5-16.4l-11.6-9.3l1.6,33.2L468.7,301.3z"/>
		<path class="st14" d="M338.7,330.2l-20.5,5.8l-1.6-5l7-4.1l-7.8,1.6l-1.6-5.2c0,0,19.8-18.7,38.2-33.1c19.2-15,91.2-46.3,117.3,8
			c0,0,31.5-1.7,36.3,33.1c4.8,34.8-33.3,53.8-33.3,53.8l-24.8,4l-9.2-4.4l6.4-20.6c0,0-28.5-0.8-18.2-28c0,0-20.4,12.7-40.8,10.3
			c0,0,16.4-2.3,30.9-12.9c0,0-68.8,22.2-95.1,14.2l-2.3-7.4L338.7,330.2z"/>
		<path class="st13" d="M472.9,304.5c15.8-0.3,25.5,11.7,27.8,23.2c2.4,11.9-0.5,22.3-7.4,32.1c-3.1,4.4-8.4,9.2-13.3,11.4
			c6.7-5.6,7.7-18.7,6-26.4c-3.9,10.7-6.4,20.5-16.6,27.3c0,0,2.7-8.4,3.8-12.1l-7.8,8.5c0.3-8.2,2.9-21.7,2.9-21.7
			c-5.1,7.5-7.9,17.2-11.9,25.1c0,0-1.9-9.2-2.6-12.8c-2.2,4-3.6,9.2-6,13.2c-1-5.9,0.8-28.6,1.9-34.3l6,6.3l0-13.9
			c0,0,4.8-5,6.8-7.6c5.8,2,8.4,6.7,11.8,11c-0.5-5.6-1.3-11.6-5-15.8c10.1,2.9,17.7,10.8,20.2,18.7c0.8-7.5-7-18.8-16.4-21.9
			L472.9,304.5z"/>
		<path class="st13" d="M340.1,306.7c14.3-12.2,31.4-22.8,49.5-28.5c32.8-10.4,64.3,2,70.5,13.4c1.2,2.3,1.3,4.5,0.6,6.4
			c-9.7-6.2-19.7-11.2-31.5-13.6c-8.7-1.7-16.3-0.5-24.8,0c16.7-0.4,36.5,3.2,49.6,13.8c-31.9-4.4-51.5-3-80.8,4.8
			c-9.1,2.4-18.5,7.6-26.6,12.1c62.5-20,81-9.4,94.8-5.1c-26,0.1-55.5,12.1-57,11.8c1.5,0.3,3.1,0.6,4.6,0.7
			c11.9,1.4,24-0.5,35.9-1.6c-13.6,5.1-28,7.7-42.7,6.5c-19.5-1.6-36.6-7.4-56-4C327.6,317.7,336,310.3,340.1,306.7z"/>
		<path class="st27" d="M498.2,330.7c0.5-1.8,0.4-4.4-0.2-6.6c-1.2-3.8-4.3-10.1-8.4-11.5c-5.2-1.8-3.4,3.9-2,6.9
			c1.6,3.3,4,6.8,5.8,10.2C495.9,334.3,497.6,333.3,498.2,330.7z"/>
		<g>
			<path class="st24" d="M375.5,388.9c-0.1-0.2-0.8,0.2-2,0.5c-1.2,0.3-3.1,0.7-4.7-0.6c-1.6-1.2-2.7-3.9-3-6.8
				c-0.1-0.7-0.1-1.5,0-2.2c0-0.4,0.1-0.7,0.2-1.1c0-0.2,0.1-0.3,0.1-0.5l0.1-0.3l0-0.1l0,0l0,0c0,0,0,0.1,0,0l0,0l0-0.1
				c0.2-0.5,0.6-0.7,1.2-0.9c0.6-0.2,1.4-0.2,2.2,0c1.9,0.3,3.9,1.1,5.5,1.9l1.4,0.7l0.4-1.4c3.5-11.2,5.7-19.6,5.1-19.8
				c-0.6-0.2-3.8,7.9-7.5,19l1.8-0.7c-1.9-1-3.9-1.8-6.4-2.3c-1-0.1-2.1-0.2-3.3,0.1c-1.1,0.3-2.3,1.2-2.8,2.4l-0.1,0.2l0,0.1l0,0.1
				l0,0.1l-0.1,0.3c-0.1,0.2-0.1,0.5-0.2,0.8c-0.1,0.5-0.1,1-0.2,1.4c0,0.9,0,1.8,0.1,2.7c0.2,1.7,0.7,3.3,1.4,4.7
				c0.7,1.4,1.7,2.6,2.9,3.4c0.6,0.4,1.2,0.6,1.9,0.8c0.6,0.1,1.2,0.2,1.8,0.1c1.1-0.1,1.9-0.5,2.6-0.8
				C375.1,389.7,375.6,389,375.5,388.9z"/>
		</g>
		<path class="st14" d="M401.7,368.3c-0.1,3.4,2.6,6.2,6,6.2c3.4,0.1,6.2-2.6,6.2-6c0.1-3.4-2.6-6.2-6-6.2
			C404.5,362.2,401.7,364.9,401.7,368.3z"/>
		<path class="st14" d="M360.9,362.3c-0.1,3.4,2.6,6.2,6,6.2c3.4,0.1,6.2-2.6,6.2-6c0.1-3.4-2.6-6.2-6-6.2
			C363.8,356.2,361,358.9,360.9,362.3z"/>
		<path class="st14" d="M421.5,355.6c0.8-2.5,1.1-5.7-0.4-7.4c-1.6-1.8-5.2-2.7-7.4-3.3c-2-0.5-5.8-1.2-8-0.6
			c-2.7,0.8-2.3,3.2-3.4,5.7C402.3,350,415.1,352.6,421.5,355.6z"/>
		<path class="st14" d="M381.8,346.7c-6.3-2.9-15.2-4.7-18.8-4.3c0,0,0.1-6.2,2.8-7.4s14.4,1.9,16.7,3.7
			C384.8,340.5,381.8,346.7,381.8,346.7z"/>
		<path class="st23" d="M404.5,396.9c-0.1,7.9,6.2,14.5,14.1,14.6c7.9,0.1,14.5-6.2,14.6-14.1c0.1-7.9-6.2-14.5-14.1-14.6
			C411.1,382.7,404.6,389,404.5,396.9z"/>
		<path class="st23" d="M339.4,383.6c7.9,0.1,14.3,6.7,14.1,14.6c-0.1,5.7-3.4,10.5-8.2,12.7c-4.7-8-6.7-17.6-7-27.3
			C338.7,383.6,339,383.6,339.4,383.6z"/>
		<path class="st26" d="M396.9,391.8c-8,8.1-19.6,11.6-28.1,9.2c0,0,4.2,15,18.1,11.4C400.2,409,396.9,391.8,396.9,391.8z"/>
		<path class="st15" d="M449.9,390.2c12.5-9.9,29.1-14.7,31.2,2.6c2.1,17.3-25,47.4-49.3,28.1C420.7,412.1,442.7,395.9,449.9,390.2z
			"/>
		<path class="st23" d="M471.7,391.2c-8.1-4.5-22,8.7-24.8,15.5c-2.8,6.9-3.9,12.9,4.9,12.5c8.8-0.4,15.2-8.2,13-15.6
			c-2.2-7.4-12.8,1.1-12.8,1.1s6.4-9.5,11.4-11.9C468.5,390.6,471.7,391.2,471.7,391.2z"/>
		<path class="st15" d="M356.9,439.1l-32.3-15c0,0,4.3-6.2,2.4-7.9c-1.9-1.8-5.7,4-5.7,4s-4.7-10.4-7.5-8.7c-2.8,1.7,2.5,7,2.5,7
			s-5.3-5.5-7.4-2.9c-2.1,2.5,5.3,6,5.3,6s-6.4-2.4-6.9,0.6c-0.5,3,8.7,5.4,8.7,5.4s13.8,19.8,27.4,24c13.6,4.2,19.7-3.3,19.7-3.3
			L356.9,439.1z"/>
		<path class="st23" d="M316,427.6c0,0-6.8-1.8-8.4-4.2c3,1.6,6.3,2.6,9.6,2.1c3.1,6.7,9.2,10.8,15.6,14.3c3.3,1.8,8,4.3,12,3.9
			c4.4-0.5,4.3-4.1,4.3-8.1l7.6,3.6l6.3,9.2c0,0-6.2,7.5-19.7,3.3C329.8,447.4,316,427.6,316,427.6z"/>
		<path class="st11" d="M385.3,441.3c-10.5-2-31.6-7.4-31.6-7.4s-2.6,16.1-1.9,23.4c0,0,18.7,4.7,33.1-6.5L385.3,441.3z"/>
		<path class="st11" d="M361.7,502.4c1-3.9,2.1-7.9,3.3-11.9c4.3,2.8,9,4.8,13.7,6.1c6.4,1.8,17.8,2.6,21.9-3.2
			c4.5-6.3,3.5-7.8,3.4-17.6c-7.9,5.8-20.7,7.3-30.4,7.6c3.4-3.7,18-21.8,21.8-28.2c-4.7,1-15.2,3.8-19.6,3.6
			c4.1-10.3,7.7-17.3,9.5-17.5c3.9-0.4,22.8,0.3,22.8,0.3l16.7,66.7C382.7,519.4,361.7,502.4,361.7,502.4z"/>
		<path class="st12" d="M373.9,442.4c-4.9-1.5-11.6-3.5-16.5-4C359.4,445.7,368.7,448.3,373.9,442.4"/>
	</g>
	<g>
		<g>
			<path class="st15" d="M402.9,475.7l-44.7,2.3c0,0-4.3-7.6-7.5-8.4c-3.1-0.8,1.7,4.2,1.5,6c-4.1-3.5-10.4-3.8-14,0.9
				c-8.2,10.6,6,11.9,12.5,10.4c0,0,27,13.9,44.6,10.6c17.6-3.3,20.1-15.2,20.1-15.2L402.9,475.7z"/>
			<path class="st23" d="M402.4,477.9l-6.9,0.4c0.7,2.6-0.5,5.4-3.3,6.5c-9.6,3.9-20.6,4.5-30.8,3.7c-0.8-0.1-1.5-0.1-2.3-0.2
				c8.4,3.5,22.4,8.4,33.3,7.4l0,0c0.8-0.1,1.6-0.2,2.4-0.3c12.3-2.3,16.5-9,17.8-12L402.4,477.9z"/>
		</g>
		<path class="st11" d="M393.3,475.3l23,17.1c0,0,13.8-50.8-9.1-50.9L393.3,475.3z"/>
		<path class="st12" d="M410.2,459.6c2.6-5.2,0.9-10.2-2.1-14.5L398,469.7C403.1,468,407.6,464.9,410.2,459.6z"/>
	</g>
	<rect x="281.9" y="486.3" class="st33" width="178.3" height="7.4"/>
	<rect x="289.3" y="493.7" class="st34" width="163.5" height="24.9"/>
	<rect x="413.5" y="493.7" class="st36" width="39.3" height="24.9"/>
	<rect x="288.8" y="518.7" class="st33" width="8.3" height="72.1"/>
	<rect x="444" y="518.7" class="st37" width="8.3" height="72.1"/>
	<rect x="413.5" y="518.7" class="st37" width="8.3" height="72.1"/>
</g>
<g>
	<polygon class="st33" points="651.3,529.8 662.4,444.8 600.5,444.8 592.8,529.8 	"/>
	<polygon class="st34" points="643.9,529.8 655,444.8 593.1,444.8 585.4,529.8 	"/>
	<rect x="619" y="529.8" class="st33" width="32.2" height="11.4"/>
	<rect x="640.9" y="541.1" class="st33" width="10.2" height="49.6"/>
	<rect x="565.7" y="529.8" class="st34" width="61.5" height="11.4"/>
	<rect x="565.7" y="541.1" class="st33" width="10.2" height="49.6"/>
	<rect x="616.9" y="541.1" class="st33" width="10.2" height="49.6"/>
	<g>
		<path class="st23" d="M580.4,532.7l-7.4,3.4l0.1,14.5l-6.6,7.1l-9.1-2.4c0,0-8.1-26.7-1.2-32.4c6.9-5.7,17.3-11.1,17.3-11.1
			L580.4,532.7z"/>
		<path class="st15" d="M580.4,532.7l-7.4,3.4l0,0.3c-1.2-1.2-2.4-2.4-3.2-3.7c-4.5,2.1-2.2,8.3-1.2,12c0.9,3.6,2.3,5.1,4.5,5.3
			l0,0.6l-6.6,7.1l-9.1-2.4c0,0-8.1-26.7-1.2-32.4c6.9-5.7,17.3-11.1,17.3-11.1L580.4,532.7z"/>
		<path class="st35" d="M612.9,508.8l-3.2-14.9c-7.6,1.8-15.1,3.9-22.3,6.8l-18.2,10.8c0.4,19.6,11,26.4,11,26.4l21.4-8.1
			C610,526.6,614.9,517.7,612.9,508.8z"/>
		<path class="st38" d="M576.4,563.4l-3.3-12.8c0,0-5.9,6.2-11.5,3.5s-5.7-4.4-5.7-4.4s-8.1-2.9-4.1,7.6c0,0-13.8,0.1-11.3,10.5
			L576.4,563.4z"/>
		<polygon class="st28" points="540.4,567.7 540.7,569.9 576.6,566.7 576.3,563.7 		"/>
		<path class="st23" d="M608.8,534.2l-7.4,3.4l0.1,14.5l-6.6,7.1l-9.1-2.4c0,0-8.1-26.7-1.2-32.4c6.9-5.7,17.3-11.1,17.3-11.1
			L608.8,534.2z"/>
		<path class="st15" d="M608.8,534.2l-7.4,3.4l0,0.3c-1.2-1.2-2.4-2.4-3.2-3.7c-4.5,2.1-2.2,8.3-1.2,12c0.9,3.6,2.3,5.1,4.5,5.3
			l0,0.6l-6.6,7.1l-9.1-2.4c0,0-8.1-26.7-1.2-32.4c6.9-5.7,17.3-11.1,17.3-11.1L608.8,534.2z"/>
		<path class="st35" d="M641.3,510.2l-3.2-14.9c-7.6,1.8-15.1,3.9-22.3,6.8L590,515.9c6.8,17.7,18.5,23.5,18.5,23.5l21.4-8.1
			C638.4,528.1,643.3,519.1,641.3,510.2z"/>
		<path class="st39" d="M604.8,564.8l-3.3-12.8c0,0-5.9,6.2-11.5,3.5c-5.6-2.6-5.7-4.4-5.7-4.4s-8.1-2.9-4.1,7.6
			c0,0-13.8,0.1-11.3,10.5L604.8,564.8z"/>
		<polygon class="st28" points="568.8,569.2 569.1,571.4 605,568.1 604.7,565.2 		"/>
	</g>
	<g>
		<path class="st39" d="M633,441.6c0,0-18.9-0.6-22.8-0.3c-3.9,0.4-16.4,33.1-23.6,61.1c0,0,21,17,63.1,5.9L633,441.6z"/>
		<path class="st23" d="M630.1,428.4l-2,16.8c0,0-6.3,3-11.3-0.8l-1.7-17.5L630.1,428.4z"/>
		<path class="st15" d="M581.7,439.1l-32.3-15c0,0,4.3-6.2,2.4-7.9c-1.9-1.8-5.7,4-5.7,4s-4.7-10.4-7.5-8.7c-2.8,1.7,2.5,7,2.5,7
			s-5.3-5.5-7.4-2.9c-2.1,2.5,5.3,6,5.3,6s-6.4-2.4-6.9,0.6c-0.5,3,8.7,5.4,8.7,5.4s13.8,19.8,27.4,24c13.6,4.2,19.7-3.3,19.7-3.3
			L581.7,439.1z"/>
		<path class="st23" d="M540.9,427.6c0,0-6.8-1.8-8.4-4.2c3,1.6,6.3,2.6,9.6,2.1c3.1,6.7,9.2,10.8,15.6,14.3c3.3,1.8,8,4.3,12,3.9
			c4.4-0.5,4.3-4.1,4.3-8.1l7.6,3.6l6.3,9.2c0,0-6.2,7.5-19.7,3.3C554.7,447.4,540.9,427.6,540.9,427.6z"/>
		<path class="st38" d="M610.2,441.3c-10.5-2-31.6-7.4-31.6-7.4s-2.6,16.1-1.9,23.4c0,0,18.7,4.7,33.1-6.5L610.2,441.3z"/>
		<path class="st38" d="M586.5,502.4c1-3.9,2.1-7.9,3.3-11.9c4.3,2.8,9,4.8,13.7,6.1c6.4,1.8,17.8,2.6,21.9-3.2
			c4.5-6.3,3.5-7.8,3.4-17.6c-7.9,5.8-20.7,7.3-30.4,7.6c3.4-3.7,18-21.8,21.8-28.2c-4.7,1-15.2,3.8-19.6,3.6
			c4.1-10.3,7.7-17.3,9.5-17.5c3.9-0.4,22.8,0.3,22.8,0.3l16.7,66.7C607.6,519.4,586.5,502.4,586.5,502.4z"/>
		<path class="st39" d="M598.7,442.4c-4.9-1.5-11.6-3.5-16.5-4C584.2,445.7,593.6,448.3,598.7,442.4"/>
	</g>
	<g>
		<g>
			<path class="st15" d="M627.7,475.7L583,478c0,0-4.3-7.6-7.5-8.4c-3.1-0.8,1.7,4.2,1.5,6c-4.1-3.5-10.4-3.8-14,0.9
				c-8.2,10.6,6,11.9,12.5,10.4c0,0,27,13.9,44.6,10.6c17.6-3.3,20.1-15.2,20.1-15.2L627.7,475.7z"/>
			<path class="st23" d="M627.3,477.9l-6.9,0.4c0.7,2.6-0.5,5.4-3.3,6.5c-9.6,3.9-20.6,4.5-30.8,3.7c-0.8-0.1-1.5-0.1-2.3-0.2
				c8.4,3.5,22.4,8.4,33.3,7.4l0,0c0.8-0.1,1.6-0.2,2.4-0.3c12.3-2.3,16.5-9,17.8-12L627.3,477.9z"/>
		</g>
		<path class="st38" d="M618.2,475.3l23,17.1c0,0,13.8-50.8-9.1-50.9L618.2,475.3z"/>
		<path class="st39" d="M635,459.6c2.6-5.2,0.9-10.2-2.1-14.5l-10.1,24.5C628,468,632.4,464.9,635,459.6z"/>
	</g>
	<g>
		<path class="st33" d="M571.7,312.1c-11.2,12.2-27.7,39.4-3.6,46.9c24.1,7.4,15-45.8,15-45.8L571.7,312.1z"/>
		<path class="st15" d="M579.3,321.9c-0.4,0.9-22.2,45.5-16.7,74.4c5.6,28.9,62.1,49.1,93.2,29.8c31.2-19.3,37.3-69.2,37.3-69.2
			l-21.9-42.6c0,0-64.1-14.8-65-14.2C605.2,300.9,579.3,321.9,579.3,321.9z"/>
		<path class="st26" d="M622.9,393.9c-8,8.1-19.6,11.6-28.1,9.2c0,0,4.2,15,18.1,11.4C626.2,411.1,622.9,393.9,622.9,393.9z"/>
		<path class="st23" d="M579.3,321.9c0,0,25.9-21.1,26.8-21.7c1-0.7,65,14.2,65,14.2l21.6,42c-0.9,1.8-1.8,3.7-2.9,5.6
			c-3.7,6.6-10.5,9.8-14.1,15.8l-5.1,10.4c-9.2,1.5-16.7-10.6-18.8-18.1c-1.8-6.5-3.1-15.7-0.5-22.1c-4.9,5.1-10.4,7.1-17.3,7.7
			c4.4-2.1,9.7-4.5,12.9-8.2c-4,0.3-7.7,3.2-11.7,4.1c-4.3,1-8.7,0.8-13,1.1c-10.7,0.8-22.4,0.3-32.5-3.9c-7.3-3-12.8-6.7-16.9-11.5
			C576.3,328.3,579.2,322.3,579.3,321.9z"/>
		
			<ellipse transform="matrix(0.2349 -0.972 0.972 0.2349 101.9026 937.4716)" class="st23" cx="646.4" cy="404" rx="13.2" ry="13.2"/>
		<path class="st23" d="M562.7,396.4c-1-5.4-1.1-11.3-0.6-17.4c1-0.1,2-0.1,3.1,0c8,0.8,13.9,7.9,13.1,15.9
			c-0.6,6.2-5,11.1-10.8,12.7C565.1,404,563.4,400.3,562.7,396.4z"/>
		<g>
			<path class="st24" d="M590.5,399.7c0.1-0.1-0.1-0.6-0.5-1.5c-0.4-0.9-1-2.1-1.6-3.7c-0.3-0.8-0.5-1.7-0.6-2.6
				c-0.1-0.9,0-1.8,0.5-2.4c0.1-0.2,0.3-0.3,0.4-0.4c0,0,0.2-0.2,0.3-0.2l0.1-0.1l0,0l0,0l0,0c0,0-0.1,0.1-0.1,0l0,0l0.2-0.1
				c0.4-0.2,0.9-0.4,1.4-0.5c1-0.2,2-0.1,3,0.4c1.1,0.5,2.2,1.3,3,2.1l1.4,1.5l0.7-1.9c3-8.2,4.9-14.4,4.3-14.6
				c-0.6-0.2-3.4,5.7-6.6,13.7l2.1-0.4c-0.6-0.6-1.1-1.1-1.7-1.6c-0.6-0.5-1.3-0.9-2.1-1.3c-1.4-0.6-3.1-0.9-4.6-0.5
				c-0.8,0.2-1.4,0.5-2.1,0.9l-0.2,0.1l0,0l-0.1,0.1l0,0l-0.1,0.1c-0.1,0.1-0.2,0.1-0.4,0.3c-0.3,0.3-0.6,0.6-0.8,0.9
				c-0.4,0.7-0.6,1.4-0.7,2.1c-0.1,0.7,0,1.3,0.1,1.9c0.2,1.2,0.6,2.1,1,2.9c0.8,1.7,1.8,2.8,2.4,3.6
				C589.9,399.5,590.4,399.8,590.5,399.7z"/>
		</g>
		<g>
			<path class="st33" d="M615.7,372.5c-0.3,3.3,2.1,6.2,5.4,6.6c3.3,0.3,6.2-2.1,6.6-5.4c0.3-3.3-2.1-6.2-5.4-6.6
				C618.9,366.8,616,369.2,615.7,372.5z"/>
			<path class="st33" d="M625.6,374c0,0,6.2-0.6,7.8,0.7c2,1.6-8.6,1.3-8.6,1.3L625.6,374z"/>
		</g>
		<g>
			<path class="st33" d="M592.7,371.8c-1.5,3-5.2,4.1-8.1,2.6c-3-1.5-4.1-5.2-2.6-8.1c1.5-3,5.2-4.1,8.1-2.6
				C593.1,365.3,594.2,368.9,592.7,371.8z"/>
			<path class="st33" d="M583.5,367.7c0,0-4.9-3.8-7-3.6c-2.6,0.3,6.5,5.8,6.5,5.8L583.5,367.7z"/>
		</g>
		<path class="st33" d="M636.6,361.8c3.9-3.5-4.7-8.1-7.2-8.8c-4.4-1.3-10.2-1.3-14,1.5c-2.9,2.1-3.4,7.1,1.3,6.9
			c3.8-0.1,7-0.3,10.7,0.9C630.3,363.2,635.1,363.8,636.6,361.8z"/>
		<path class="st33" d="M599.6,357.2c4.1-2.9-2.8-8.7-4.8-9.8c-3.7-1.9-9-2.8-12.8-0.6c-3,1.7-4.4,6.4-0.1,7
			c3.4,0.5,6.3,0.8,9.4,2.5C593.7,357.5,597.9,358.9,599.6,357.2z"/>
		<path class="st40" d="M706.6,370.1c9.3-0.8,12.6-0.7,12.9,6.7c0,0,5.2-3.4,3.9,5.4c-1.3,8.7-20.9,26.1-25.6,22.5s-5-18.2-4.5-18.6
			c0.5-0.4,8-10.5,8.5-10.6C702.4,375.2,706.6,370.1,706.6,370.1z"/>
		<path class="st34" d="M661.6,331c-9.9,12.3-12.3,29.1-12.3,29.1s7.2-20.4,14.5-24.7C671.1,331.2,661.6,331,661.6,331z"/>
		<path class="st34" d="M665.3,327.5c-14,24.2-32.4,21.9-44.8,21.4c0,0,29.6-0.8,39.6-17L665.3,327.5z"/>
		<path class="st34" d="M661.1,335.2c-32.5,15.5-72.3,10.4-90-16.4c-17.7-26.8-32.6-28.7-32.6-28.7s33.9-43.2,82.6-32.5
			c48.8,10.8,59.1,49.1,59.1,49.1s39-11.9,52.3,18.1c13.3,30-27.1,48.1-27.1,48.1s3.4,12.1-8.4,15.8c-11.8,3.7-26.7,19.5-26,3.2
			c0,0-16.8-9.1-16.7-29.7C654.3,344.8,661.1,335.2,661.1,335.2z"/>
		<path class="st41" d="M672.3,324.9c-0.3,5.6,0.5,12.5,0.2,16.3c0,0.2,0,0.4-0.1,0.6c0-0.2,0-0.4,0.1-0.6c0.5-5.7,3.1-10.1,5-15
			c1.1,3.7,2.1,7.9,2.8,11.9c0.1,0.7,0.2,1.3,0.3,2c-0.1-0.6-0.2-1.3-0.3-2c-0.4-4.5,1.6-8.8,2.1-13.2c7.4,6.7,11.3,15.3,16.2,24
			c-1.3-10.3-4.6-23.1-13.8-29.6c5.3,0.2,11.5,0.5,16.2,2.8c-3.9-3.6-11-5.1-15.3-5.5c7.8-3.5,15.6-1.6,24.1-1.4
			c-5.9-3.8-13.8-4.4-21.3-3.1c0.4-0.1,0.7-0.3,1.1-0.4c12.4-4.3,26.3-1.3,34,11.6c5.8,9.8,4.4,22.7-2.7,32
			c-3.6,4.7-8.1,7.5-13,10.1c1.4-2.4,2.7-5.4,2.5-8.2c-5.6-0.2-10.2,4.6-15.1,7c-5.5,2.6-11.5,3.9-17.5,3.4
			C658.5,365.8,664.2,337.9,672.3,324.9z"/>
		<path class="st15" d="M671,392c9.2-5.5,28.3-9.4,31.1,1.6c2.8,11-15.1,38.2-31.7,37.9c-16.6-0.4-14.3-15.9-11.7-24.1
			C661.4,399.2,667.5,394.1,671,392z"/>
		<path class="st23" d="M694.8,396.8c-8.9-2.6-23.6,4.5-26.4,11.7c-2.9,7.1-4.3,17.3,4.7,14.1c9.1-3.1,17.3-15.4,10.5-16.9
			s-11.4,2.2-11.4,2.2s6.6-7.4,12.5-9.1C690.6,397,694.8,396.8,694.8,396.8z"/>
		<path class="st16" d="M723,338.3c0.7-5.3-0.2-15.5-6.5-17.5c-5-1.6-8.9,4.3-9.8,8.7C704.1,341.3,722.7,344.6,723,338.3z"/>
		<path class="st41" d="M571.8,272.5c16.2-7.4,35.4-7.6,52.6-4.4c9.6,1.8,18.2,3.9,26.5,9.2c8.2,5.2,19.6,14.7,20.7,24.1
			c0.1,0.5,0.1,0.9,0.1,1.4c-10.8-11.6-24-20.3-39-26.4c-9.1-3.7-20.1-7.7-29.9-6.8c15.5,3.4,29,9.4,41.9,18.7
			c7.6,5.5,13,11.6,19.5,18.1c-3.8-3.7-7.9-5-12.6-7.1c-4.1-1.8-8.1-4.7-12.4-6c-0.2,0-0.3-0.1-0.4-0.1c-0.3-0.1-0.7-0.2-1-0.2
			c0.3,0.1,0.7,0.1,1,0.2c0.1,0,0.3,0.1,0.4,0.1c6.3,2,14.6,9.7,19.2,13.8c-24.2,1.3-46.3-11.1-64.7-25.1
			c5.9,4.8,10.2,10.6,16.9,14.7c6.1,3.7,12,6.6,18.7,9c10.7,3.9,20.1,8.7,31.3,10.8c-8,3.2-20.2,2.4-27.8,0.5
			c-10.8-2.6-20.8-9.4-30.1-15.1c-12.1-7.4-34.7-21.2-49.8-15.2C556.5,279.7,565,275.6,571.8,272.5z"/>
		<g>
			<path class="st41" d="M578.1,295.9c20.1,7.3,36.1,27.9,58.6,27.6c-2.6,0.8-5.1,1.9-7.7,2.1c-12.4,1.1-23.3-4.3-33.3-11.5
				c-5.3-3.8-10.2-8.4-15.7-12.1c-6.2-4.1-13.9-6.3-20-9.6C566.2,292.5,572.3,293.8,578.1,295.9z"/>
		</g>
		<path class="st16" d="M596.7,272.3c-7.2-4.4-28.5,5.4-10.7,8c3.3,0.5,13,0.8,15.2-2.6C604.4,272.9,596.8,271.8,596.7,272.3z"/>
		<path class="st34" d="M566.8,324.7c-1.2,2.4-13.2,25.8-3.6,22.2C570.3,344.2,571.5,330,566.8,324.7z"/>
		<path class="st33" d="M718.9,360.1c25.4-6.8,55.3,14.2,52.8,41.8c-2.4,27.6-18.7,42.7-39,48.4c-20.3,5.7-23.9,19.5-12.9,22.4
			c0,0-14.5,0.8-25.7-14c-11.1-14.8-10.9-26.3-3.4-42.4c0,0-8.7-12,1.3-29.6C703.4,367,709.3,362.6,718.9,360.1z"/>
		<path class="st34" d="M769,399.1c-0.1-9.8-5.5-18.8-13.2-25.5c8.4,8.5,11.9,21.3,9.7,32.9c-1.1,5.7-3,9.6-6,14.6
			c5-17.2,1.4-32.6-11.4-45.9c-2.6-2.7-5.7-4.9-8.3-7.6c7.1,8.3,10.8,23.1,6.9,33.3c-4.6,12.3-14,19.2-24.3,26.3
			c-3.4,2.3-8.3,6.4-8.8,10.8c1-11.2,14.5-16.9,20.7-24.8c9.4-12,9.4-29.3,0.9-41.9c-2.5-3.7-5.9-5.6-8.7-8.7c3.8,9.7,9,22,4.2,32.3
			c-3,6.4-10.7,11.2-12.4,17.8c1.7-6.3,6.2-11.6,8.1-17.8c1.8-5.8,1.8-13.5-0.4-19.2c-0.3-0.7-0.6-1.3-0.9-1.8
			c1.2,15.7-6.2,30.3-16.3,42.9c-2.7,3.4-4.9,7.2-6.4,11.3l0,0.1c-0.5,2.3-0.8,4.7-1,7c0,0.1,0,0.1,0,0.2c-0.7,8.9,7.8,15.7,16.3,13
			c5.8-1.8,12.3-3.1,17.8-5.3C754.2,435.5,769.2,420.1,769,399.1z"/>
		<path class="st12" d="M717.5,380c1.2-0.6,2.8-1.1,3.4,0.4c0.6,1.7-1.3,4-2.1,5.2c-2.2,3-4.8,6.4-8.6,7.5c1.2-1.1,2.2-3.1,2.6-4.9
			c0.2-1.1,0-3.6-1.7-2.9c-0.3,0.1-0.8,1.1-1,1.4c-0.7,0.9-1.5,1.8-2.5,2.5c-1.4,0.9-3.1,1.4-4.7,1.8c3.8-1.8,5.3-7.4,5.4-11.2
			c0-1.2-0.4-2.4-0.4-3.5c0.1-1.3,0.6-1.5,1.8-2.1c1.9-1,4.2-1.6,5.9,0C717,375.4,717.6,378.1,717.5,380z"/>
	</g>
	<rect x="506.7" y="486.3" class="st33" width="178.3" height="7.4"/>
	<rect x="514.1" y="493.7" class="st34" width="163.5" height="24.9"/>
	<rect x="638.4" y="493.7" class="st36" width="39.3" height="24.9"/>
	<rect x="513.7" y="518.7" class="st33" width="8.3" height="72.1"/>
	<rect x="668.9" y="518.7" class="st37" width="8.3" height="72.1"/>
	<rect x="638.4" y="518.7" class="st37" width="8.3" height="72.1"/>
</g>
</svg>
