<?xml version="1.0" encoding="utf-8"?>
<!-- Generator: Adobe Illustrator 22.1.0, SVG Export Plug-In . SVG Version: 6.00 Build 0)  -->
<svg version="1.1" id="OBJECTS" xmlns="http://www.w3.org/2000/svg" xmlns:xlink="http://www.w3.org/1999/xlink" x="0px" y="0px"
	 viewBox="0 0 498.3 559.5" style="enable-background:new 0 0 498.3 559.5;" xml:space="preserve">
<style type="text/css">
	.st0{fill:#434242;}
	.st1{fill:#47A4FF;}
	.st2{fill:#F68F04;}
	.st3{fill:#73BAFF;}
	.st4{fill:#F1A30D;}
	.st5{fill:#FAB802;}
	.st6{fill:#FAD000;}
	.st7{fill:#FCEF67;}
	.st8{fill:none;stroke:#F5B903;stroke-miterlimit:10;}
	.st9{opacity:0.3;fill:#939389;}
	.st10{fill:none;stroke:#EDEEF2;stroke-width:3;stroke-miterlimit:10;}
	.st11{fill:#545351;}
	.st12{fill:#3B3A39;}
	.st13{opacity:0.3;fill:#FFEEF1;}
	.st14{fill:#99FFFA;}
	.st15{fill:#EAEAEA;}
	.st16{fill:#6EBC1A;}
	.st17{fill:#FFFFFF;}
	.st18{fill:#2889CD;}
	.st19{fill:#EDEEF2;}
	.st20{fill:#D3D3D3;}
	.st21{fill:#ECDCA8;}
	.st22{fill:#1D8246;}
	.st23{fill:#559C1C;}
	.st24{fill:#E53328;}
	.st25{fill:#E8E8E8;}
	.st26{display:none;}
	.st27{display:inline;}
	.st28{fill:#333231;}
	.st29{fill:none;stroke:#FAD000;stroke-width:2;stroke-miterlimit:10;}
	.st30{display:inline;opacity:0.1;fill:#939389;}
</style>
<g>
	
		<rect x="446.7" y="245.1" transform="matrix(0.57 -0.8216 0.8216 0.57 -18.8377 481.7418)" class="st0" width="8.4" height="27.6"/>
	
		<ellipse transform="matrix(0.1301 -0.9915 0.9915 0.1301 130.1208 624.8326)" class="st0" cx="421.2" cy="238.3" rx="32.6" ry="32.6"/>
	
		<ellipse transform="matrix(0.9438 -0.3305 0.3305 0.9438 -55.0748 152.5668)" class="st1" cx="421.2" cy="238.3" rx="28.4" ry="28.4"/>
	<path class="st2" d="M496.8,291c-2.8,3.9-8.2,4.8-12.1,2.1L456,272.8c-3.9-2.8-4.8-8.2-2.1-12.1l0,0c2.8-3.9,8.2-4.8,12.1-2.1
		l28.7,20.3C498.6,281.7,499.5,287.1,496.8,291L496.8,291z"/>
	<path class="st3" d="M398,221.9c-0.1,0.1-0.2,0.3-0.3,0.4l41.7,28.9l5,3.4c0.8-1.2,1.6-2.4,2.2-3.7c6.1-12.3,2.5-27.5-8.9-35.7
		C424.8,206.2,407.1,209.1,398,221.9z"/>
	<path class="st4" d="M456.9,258.2c-1.2,0.6-2.3,1.5-3.1,2.7c-0.1,0.1-0.1,0.2-0.2,0.3l8.4,5.8l34.7,24.1c2.6-3.9,1.7-9.2-2.2-11.9
		l-28.7-20.3C463.1,256.8,459.7,256.7,456.9,258.2z"/>
</g>
<g>
	<g>
		
			<rect x="43.7" y="192.4" transform="matrix(8.311525e-03 -1 1 8.311525e-03 -142.7368 251.9873)" class="st5" width="24" height="11.2"/>
		<path class="st6" d="M79.1,213.1c0.1-6.2-4.9-11.2-11.1-11.3l-24.8-0.2c-6.2-0.1-11.2,4.9-11.3,11.1
			C51.2,212.9,55.8,213,79.1,213.1z"/>
		<path class="st5" d="M0,136.2l35.9,0.3l0,5.3c0,0-21.6,0-28.9-0.2c-0.1,6.9,9.7,25.4,30,26.4c0,0,0,1.4,0,5.8
			C30.3,173.7,0.2,167.3,0,136.2z"/>
		<path class="st5" d="M113.2,137.2l-35.9-0.3l0,5.3c0,0,21.6,0.3,28.9,0.2c-0.1,6.9-10.1,25.2-30.4,25.9c0,0,0,1.4,0,5.8
			C82.3,174.2,112.5,168.2,113.2,137.2z"/>
		<path class="st5" d="M56.2,129.1l-34.9-0.3c-0.3,38.3,11.8,58.7,34.4,58.9c23.6,0.2,35.1-20.1,35.4-58.4L56.2,129.1z"/>
		<path class="st6" d="M21.3,136.4c-0.3,38.3,17.5,51.2,34.5,51.4s35-12.5,35.4-50.8L21.3,136.4z"/>
		<path class="st7" d="M45.2,156.2c0,0-0.9-10.3,10.6-10.2c10.1,0.1,11.1,7.3,11.1,8.8c-0.1,9.4-7.6,5.8-7.6,13.2L53,168
			c0.1-8.8,7.1-8.1,7.1-12.7c0-1.8-1-4.2-4-4.3c-3.5,0-4.9,2.7-4.9,5.2C47.8,156.2,45.2,156.2,45.2,156.2z"/>
		
			<rect x="52.4" y="170.9" transform="matrix(8.311590e-03 -1 1 8.311590e-03 -118.7963 228.6365)" class="st7" width="6.9" height="6.7"/>
		<path class="st8" d="M56.2,138.2"/>
	</g>
	<path class="st9" d="M56.2,129.1l-34.9-0.3c0,2.6,0,5.1,0.1,7.5l-0.2,0c0,0,0,0,0,0L0,136.2c0.1,23.9,18,33.2,29.3,36.3
		c3.2,5.2,7.2,8.9,11.5,11.3c0.1,0,0.1,0.1,0.2,0.1c0.3,0.2,0.6,0.3,0.8,0.5c2.6,1.4,5.4,2.3,8.4,2.8l-0.1,14.4l-6.8-0.1
		c-6.2-0.1-11.2,4.9-11.3,11.1c10.6,0.1,16.7,0.1,24,0.2l0.7-83.8L56.2,129.1z M7,141.6c3.1,0.1,8.8,0.1,14.4,0.2
		c0.4,9.5,2,17.3,4.4,23.6C13.1,159.9,6.9,147.1,7,141.6z"/>
</g>
<g>
	<path class="st6" d="M220.6,10.7c15,0,30,11,30,27.3c0,16.3-13.6,18.5-13.6,28.3c0,9.8,0,21.1,0,21.1l-16.4,0l-16.4,0
		c0,0,0-11.3,0-21.1c0-9.8-13.6-12-13.6-28.2C190.7,21.8,205.7,10.7,220.6,10.7z"/>
	<path class="st10" d="M205.2,36.2c1.9,0,3,1.7,4.8,1.7c1.8,0,2.7-8.4,10.8-8.4c8.1,0,8.7,8.4,10.8,8.4c2.1,0,3.2-1.7,4.7-1.7
		c1.5,0,3.2,0.7,3.2,3.1c0,2.3-18.7,21-18.6,42.5c0-21.5-18.8-41.2-18.8-42.4C202,38,203.3,36.2,205.2,36.2z"/>
	
		<ellipse transform="matrix(1 -1.444067e-03 1.444067e-03 1 -0.1326 0.3189)" class="st11" cx="220.8" cy="92" rx="11.2" ry="10.1"/>
	
		<rect x="203.6" y="76.7" transform="matrix(1 -1.464243e-03 1.464243e-03 1 -0.1242 0.3233)" class="st12" width="34.2" height="16.6"/>
	<path class="st13" d="M250.6,38.1c0,16.3-13.6,18.5-13.6,28.3c0,3.5,0,7.1,0,10.3l0.7,0l0,16.6l-6,0c-0.7,4.9-5.3,8.7-10.9,8.8
		l-0.1-91.3C235.7,10.9,250.6,21.9,250.6,38.1z"/>
</g>
<g>
	<path class="st14" d="M325.4,0h-42.6c-5.8,0-10.5,4.7-10.5,10.5v30.9c0,5.8,4.7,10.5,10.5,10.5h10.7c0.1,6.2-2.5,11.9-3.1,13.6
		c9-4.1,13.5-9.4,15.7-13.6h19.2c5.8,0,10.5-4.7,10.5-10.5V10.5C336,4.7,331.2,0,325.4,0z"/>
	<path class="st15" d="M372.4,44.2c-0.1-13.5-13-24.3-28.9-24.2c-15.9,0.1-28.8,11-28.7,24.5c0.1,13.5,13,24.3,28.9,24.2
		c0.4,0,0.8,0,1.2,0c2.7,3.9,7.6,8.4,16,11.6c-0.7-1.8-3.9-7.8-4-14.3C366.1,61.8,372.4,53.6,372.4,44.2z"/>
	<polygon class="st16" points="328.6,42.6 340.5,51.1 361.6,32.1 340.7,58.8 	"/>
	<g>
		<g>
			<path class="st6" d="M292.8,22.3c0,0-0.8-9.5,9.8-9.4c9.4,0.1,10.3,6.8,10.3,8.2c-0.1,8.7-7,5.4-7.1,12.2l-5.8,0
				c0.1-8.1,6.5-7.5,6.6-11.8c0-1.7-0.9-3.9-3.7-4c-3.2,0-4.5,2.5-4.5,4.8C295.3,22.3,292.8,22.3,292.8,22.3z"/>
			
				<rect x="299.7" y="35.2" transform="matrix(8.316471e-03 -1 1 8.316471e-03 262.0019 340.8993)" class="st6" width="6.4" height="6.2"/>
		</g>
	</g>
</g>
<g>
	<path class="st17" d="M351.6,548.5c0,3.9-3.1,7-7,7H171.4c-3.9,0-7-3.1-7-7V295.1c0-3.9,3.1-7,7-7h173.2c3.9,0,7,3.1,7,7V548.5z"/>
	<path class="st12" d="M344.6,559.5H171.4c-6.1,0-11-4.9-11-11V295.1c0-6.1,4.9-11,11-11h173.2c6.1,0,11,4.9,11,11v253.4
		C355.6,554.5,350.7,559.5,344.6,559.5z M171.4,292.1c-1.6,0-3,1.3-3,3v253.4c0,1.6,1.3,3,3,3h173.2c1.6,0,3-1.3,3-3V295.1
		c0-1.6-1.3-3-3-3H171.4z"/>
	<rect x="193.7" y="274.8" class="st6" width="128.7" height="43.5"/>
	<rect x="193.7" y="297.9" class="st5" width="128.7" height="20.4"/>
	<path class="st6" d="M275,274.8c0,8.9-7.2,16.1-16.1,16.1c-8.9,0-16.1-7.2-16.1-16.1c0-8.9,7.2-16.1,16.1-16.1
		C267.8,258.7,275,265.9,275,274.8z"/>
	<path class="st18" d="M266,274.8c0,3.9-3.2,7.1-7.1,7.1c-3.9,0-7.1-3.2-7.1-7.1c0-3.9,3.2-7.1,7.1-7.1
		C262.8,267.7,266,270.9,266,274.8z"/>
	<rect x="179.3" y="344.3" class="st19" width="147.3" height="3.6"/>
	<rect x="179.3" y="350.8" class="st19" width="96.8" height="3.6"/>
	<rect x="179.3" y="357.5" class="st19" width="73.6" height="3.6"/>
	<rect x="210.6" y="388.5" class="st19" width="117" height="5.6"/>
	<rect x="210.6" y="416.5" class="st19" width="117" height="5.6"/>
	<rect x="210.6" y="445" class="st19" width="117" height="5.6"/>
	<rect x="210.6" y="471.6" class="st19" width="117" height="5.6"/>
	<rect x="209.6" y="496.8" class="st19" width="117" height="5.6"/>
	<g>
		<g>
			<path class="st19" d="M198.2,382.1v15.9h-15.9v-15.9H198.2 M201.2,379.1h-21.9v21.9h21.9V379.1L201.2,379.1z"/>
		</g>
	</g>
	<g>
		<g>
			<path class="st19" d="M198.2,410.4v15.9h-15.9v-15.9H198.2 M201.2,407.4h-21.9v21.9h21.9V407.4L201.2,407.4z"/>
		</g>
	</g>
	<g>
		<g>
			<path class="st19" d="M198.2,438.8v15.9h-15.9v-15.9H198.2 M201.2,435.8h-21.9v21.9h21.9V435.8L201.2,435.8z"/>
		</g>
	</g>
	<g>
		<g>
			<path class="st19" d="M198.2,467.5v15.9h-15.9v-15.9H198.2 M201.2,464.5h-21.9v21.9h21.9V464.5L201.2,464.5z"/>
		</g>
	</g>
	<g>
		<g>
			<path class="st19" d="M198.2,495.7v15.9h-15.9v-15.9H198.2 M201.2,492.7h-21.9v21.9h21.9V492.7L201.2,492.7z"/>
		</g>
	</g>
	<polygon class="st16" points="181.2,384 189.7,390 204.7,376.6 189.8,395.5 	"/>
	<g>
		<path class="st2" d="M307.7,511.6c3,3,3,8,0,11l0,0c-3,3-8,3-11,0l-10.8-10.8c-3-3-3-8,0-11l0,0c3-3,8-3,11,0L307.7,511.6z"/>
		
			<rect x="289.7" y="508.8" transform="matrix(0.708 -0.7062 0.7062 0.708 -275.0388 359.7445)" class="st20" width="15.7" height="7.5"/>
		<polygon class="st21" points="208.5,434.5 219.6,423.4 198.3,413.1 		"/>
		<polygon class="st22" points="197.9,412.8 201.1,419.6 204.6,416.1 		"/>
		
			<rect x="246.6" y="412.2" transform="matrix(0.7071 -0.7071 0.7071 0.7071 -257.3951 317.4165)" class="st23" width="15.7" height="114.4"/>
		
			<rect x="251" y="412.2" transform="matrix(0.7071 -0.7071 0.7071 0.7071 -257.3936 317.4112)" class="st16" width="6.9" height="114.4"/>
	</g>
	<polygon class="st16" points="181.2,412.7 189.7,418.7 204.7,405.3 189.8,424.3 	"/>
</g>
<g>
	<path class="st17" d="M176.1,105.7c0,16.6-13.4,30.1-30.1,30.2c-16.6,0-30.1-13.4-30.2-30.1c0-16.6,13.4-30.1,30.1-30.2
		C162.5,75.6,176,89,176.1,105.7z"/>
	<path class="st24" d="M145.9,137.5c-17.5,0-31.7-14.2-31.7-31.7c0-17.5,14.2-31.8,31.7-31.8c17.5,0,31.8,14.2,31.8,31.7
		C177.7,123.2,163.5,137.4,145.9,137.5L145.9,137.5z M145.9,77.2c-15.8,0-28.5,12.8-28.5,28.6c0,15.7,12.8,28.4,28.5,28.4v1.6
		l0.1-1.6c15.7,0,28.5-12.8,28.4-28.6C174.4,90,161.6,77.2,145.9,77.2z"/>
	<path class="st24" d="M149.7,67.2c0,0.5-0.4,1-1,1l-5.9,0c-0.5,0-1-0.4-1-1l0-3c0-0.5,0.4-1,1-1l5.9,0c0.5,0,1,0.4,1,1L149.7,67.2z
		"/>
	
		<rect x="144.7" y="67.9" transform="matrix(1 -1.642795e-03 1.642795e-03 1 -0.1165 0.2397)" class="st24" width="2.4" height="6.3"/>
	<path class="st24" d="M145.7,73.6c-4.7,0-8.6-3.8-8.6-8.5c0-4.7,3.8-8.6,8.5-8.6c4.7,0,8.6,3.8,8.6,8.5
		C154.3,69.7,150.5,73.6,145.7,73.6L145.7,73.6z M145.7,58.1c-3.8,0-7,3.1-6.9,7c0,3.8,3.1,6.9,6.9,6.9v0.8l0-0.8
		c3.8,0,6.9-3.1,6.9-7C152.7,61.2,149.6,58.1,145.7,58.1z"/>
	<path class="st24" d="M150.6,105.8c0,2.6-2.1,4.8-4.8,4.8c-2.6,0-4.8-2.1-4.8-4.8c0-2.6,2.1-4.8,4.8-4.8
		C148.5,101,150.6,103.1,150.6,105.8z"/>
	<polygon class="st24" points="160.9,91.8 149.7,104.7 147.6,102.6 	"/>
	<path class="st24" d="M168.2,106.4c-0.4,0-0.8-0.4-0.8-0.8l0,0c0-0.4,0.4-0.8,0.8-0.8l3.5,0c0.4,0,0.8,0.4,0.8,0.8l0,0
		c0,0.4-0.4,0.8-0.8,0.8L168.2,106.4z"/>
	<path class="st24" d="M119.6,106.4c-0.4,0-0.8-0.4-0.8-0.8l0,0c0-0.4,0.4-0.8,0.8-0.8l3.5,0c0.4,0,0.8,0.4,0.8,0.8l0,0
		c0,0.4-0.4,0.8-0.8,0.8L119.6,106.4z"/>
	<path class="st24" d="M146.5,83c0,0.4-0.4,0.8-0.8,0.8l0,0c-0.4,0-0.8-0.4-0.8-0.8l0-3.5c0-0.4,0.4-0.8,0.8-0.8l0,0
		c0.4,0,0.8,0.4,0.8,0.8L146.5,83z"/>
	<path class="st24" d="M146.5,131.7c0,0.4-0.4,0.8-0.8,0.8l0,0c-0.4,0-0.8-0.4-0.8-0.8l0-3.5c0-0.4,0.4-0.8,0.8-0.8l0,0
		c0.4,0,0.8,0.4,0.8,0.8L146.5,131.7z"/>
</g>
<g>
	<path class="st17" d="M171.9,219.4l-45.1-22.9c-1.5,1.6-2.7,3.5-3.8,5.5l-2.2,4.3l-8.1,15.9c-6.5,12.9-1.4,28.6,11.5,35.1
		c12.9,6.5,28.6,1.4,35.1-11.5l8.1-15.9l2.2-4.3C170.7,223.7,171.5,221.6,171.9,219.4z"/>
	
		<rect x="108" y="251.9" transform="matrix(0.453 -0.8915 0.8915 0.453 -160.1237 251.4732)" class="st17" width="33.8" height="8.7"/>
	<path class="st17" d="M75.5,297.7l45.1,22.9c1.5-1.6,2.7-3.5,3.8-5.5l2.2-4.3l8.1-15.9c6.5-12.9,1.4-28.6-11.5-35.1
		c-12.9-6.5-28.6-1.4-35.1,11.5l-8.1,15.9l-2.2,4.3C76.7,293.5,75.9,295.6,75.5,297.7z"/>
	<path class="st16" d="M123.3,268.7l6.9-13.6l-7.6-3.9l-6.9,13.6c-8.2-2-17,1.8-21,9.7l-5.8,11.4l-1.6,3.1c-0.7,1.5-1.3,3-1.6,4.5
		l32.1,16.3c1-1.2,1.9-2.5,2.7-3.9l1.6-3.1l5.8-11.4C131.9,283.5,129.8,274.2,123.3,268.7z"/>
	<path class="st9" d="M119.5,204.6l1.6,0.8l-0.5,0.9l-8.1,15.9c-5.9,11.7-2.2,25.7,8.1,33.1l-1.4,2.7c-12.1-4-25.6,1.3-31.5,13
		L79.7,287l-0.5,0.9l-1.6-0.8c-2.8-1.4-6.3-0.3-7.7,2.5c-1.4,2.8-0.3,6.3,2.5,7.7l24.7,12.5l52.3-103l-24.7-12.5
		c-2.8-1.4-6.3-0.3-7.7,2.5C115.6,199.7,116.7,203.1,119.5,204.6z"/>
	<path class="st0" d="M177.2,227.4c-1.4,2.8-4.9,4-7.7,2.5l-49.7-25.3c-2.8-1.4-4-4.9-2.5-7.7l0,0c1.4-2.8,4.9-4,7.7-2.5l49.7,25.3
		C177.5,221.1,178.7,224.6,177.2,227.4L177.2,227.4z"/>
	<path class="st0" d="M70.2,289.7c1.4-2.8,4.9-4,7.7-2.5l49.7,25.3c2.8,1.4,4,4.9,2.5,7.7l0,0c-1.4,2.8-4.9,4-7.7,2.5l-49.7-25.3
		C69.9,296,68.7,292.5,70.2,289.7L70.2,289.7z"/>
	<path class="st16" d="M118.1,228.5c-3.9,7.8-1.8,17.1,4.6,22.6l-6.9,13.6l7.6,3.9l6.9-13.6c8.2,2,16.9-1.8,21-9.6L118.1,228.5z"/>
</g>
<g>
	<path class="st25" d="M375.1,120.1c0.1-16.7,16.1-30.1,35.8-30c19.7,0.1,35.6,13.6,35.5,30.3c-0.1,16.7-16.1,30.1-35.8,30
		c-0.5,0-1,0-1.5,0c-3.4,4.8-9.4,10.3-19.8,14.4c0.9-2.2,4.8-9.7,4.9-17.8C382.8,141.9,375.1,131.8,375.1,120.1z"/>
	<g>
		<g>
			<rect x="407.7" y="137.3" class="st24" width="6.6" height="5.6"/>
			<polygon class="st24" points="404.4,101 417.1,101.1 414.2,133.4 407.8,133.4 			"/>
		</g>
	</g>
</g>
<g class="st26">
	<g class="st27">
		<path class="st12" d="M214.1,169l-0.2,38.2c0,0,2.1,12.4,46.4,12.4c44.3,0,46.3-12.5,46.3-12.5v-40.2h-93"/>
		<polygon class="st28" points="332.8,158.8 260.4,129.5 258.8,129.5 186.4,158.8 258.5,188.1 260.7,188.1 		"/>
		<ellipse class="st12" cx="260.1" cy="157.3" rx="7.6" ry="3.3"/>
		<polyline class="st29" points="260.9,156.3 293.1,172.4 292.9,243.8 		"/>
		<path class="st6" d="M297.4,245.6c0,2.5-2.1,4.5-4.8,4.5c-2.6,0-4.8-2-4.8-4.5c0-2.5,2.1-4.5,4.8-4.5
			C295.3,241.1,297.4,243.1,297.4,245.6z"/>
		<g>
			<path class="st6" d="M296.6,254.5c-2.2-6.1-5.7-6.1-7.9,0c-2.2,6.1-0.4,11,3.9,11S298.8,260.6,296.6,254.5z"/>
		</g>
		<ellipse class="st28" cx="260.1" cy="157.3" rx="5.8" ry="2.5"/>
	</g>
	<path class="st30" d="M258.7,129.5l-72.4,29.3L214,170l-0.1,37.2c0,0,2.1,12.3,45.7,12.4v-90.1H258.7z"/>
</g>
</svg>
