<?xml version="1.0" encoding="utf-8"?>
<!-- Generator: Adobe Illustrator 22.1.0, SVG Export Plug-In . SVG Version: 6.00 Build 0)  -->
<svg version="1.1" id="OBJECTS" xmlns="http://www.w3.org/2000/svg" xmlns:xlink="http://www.w3.org/1999/xlink" x="0px" y="0px"
	 viewBox="0 0 426.8 300.7" style="enable-background:new 0 0 426.8 300.7;" xml:space="preserve">
<style type="text/css">
	.st0{fill:#F5841F;}
	.st1{fill:#493C35;}
	.st2{fill:#FDD0A4;}
	.st3{fill:#0098D1;}
	.st4{fill:#FDC489;}
	.st5{fill:#FFFFFF;}
	.st6{fill:#00AEEF;}
	.st7{fill:#623F12;}
	.st8{fill:#E6E7E8;}
	.st9{fill:#FBB040;}
	.st10{fill:#4E3003;}
	.st11{fill:#460E00;}
	.st12{fill:#F49A5E;}
	.st13{fill:#F07B57;}
	.st14{fill:#F15B5D;}
	.st15{fill:#F4838A;}
</style>
<g>
	<path class="st0" d="M321.7,126.7c-19.3,1.1-26.9,0.1-37.6,17.2c-10.7,17.1-19.6,58.1-16,71.6c3.7,13.5,71,17.4,86.5,11.1
		C370.3,220.1,371.2,123.9,321.7,126.7z"/>
	<path class="st1" d="M356.6,253.4c0,0-5.5-6.8,2-12c7.5-5.2,27.3,9.6,29.1,19.6c1.8,10-15.2,10.2-22.3,3.9
		C358.4,258.5,356.6,253.4,356.6,253.4z"/>
	<path class="st2" d="M319.6,263.5c0,0,10.2,15.2,20,18.6c9.8,3.4,29.9-25.8,31.2-27.5c2-2.9-4.6-10.5-10.9-9.3
		c-3.2,0.6-15.5,8.5-16.9,9.7c-1.4,1.2-2.2-3.1-2.2-3.1L319.6,263.5z"/>
	<path class="st1" d="M296.2,267.6c0,0,2.5-5.6,10.8-3.8c8.3,1.8,5.4,19.6,0,30.5c-5.4,10.9-14.9,5.8-16.6-1
		C288.7,286.5,289.8,274.9,296.2,267.6z"/>
	<path class="st2" d="M288.3,252.9c0,0-2.2,5.3-1.9,7.7c0.3,2.4,15.2,4.6,17.1,5c1.8,0.4,7.8,9.1-1.9,14.1c-4,2-29.2-5.8-35.3-9.2
		c-6.1-3.4-4.4-16-2.7-20.5C265.3,245.6,288.3,252.9,288.3,252.9z"/>
	<path class="st2" d="M353.5,152c0,0,30.4-13.6,44.1-27.3c5-5,0.9-12.7,4.5-14.6c3.6-1.8,4.5,5.5,4.5,5.5s5-13.6,10-11.8
		c5,1.8-4.5,13.6-4.5,13.6s10.9-9.1,13.2-4.5c2.3,4.5-10.5,9.6-10.5,9.6s11.4-2.3,11.8,0.5c0.5,2.7-9.1,5-11.4,5.9
		c-2.3,0.9-3.5,2.7-8.5,4c-5,1.4-24.6,24.9-51.8,34.5L353.5,152z"/>
	<path class="st2" d="M278.7,141.5c0,0-26.2-20.6-36.2-37.2c-3.6-6.1,2.2-12.6-0.9-15.2s-5.7,4.2-5.7,4.2s-1.5-14.4-6.8-13.9
		c-5.3,0.6,1.1,14.3,1.1,14.3s-8.4-11.5-11.7-7.6c-3.3,3.9,7.8,11.8,7.8,11.8s-10.5-5-11.6-2.4c-1.1,2.5,7.6,7.1,9.6,8.5
		c2,1.4,2.8,3.4,7.3,6c4.5,2.5,17.8,30.1,42,46L278.7,141.5z"/>
	<path class="st3" d="M277.1,213.9c0,0-17.3,29.1-19.1,33.7c-1.8,4.5,30.7,13,32,10.7c5.7-9.9,14.8-18.9,14.8-18.9
		s2.8,18.7,10.5,25.5c3.6,3.2,22.5-3.3,29.6-11.8c2.3-2.7-5.5-31.4-5.5-31.4L277.1,213.9z"/>
	<path class="st4" d="M302,134l-0.8,8.9c0,0-7.4,1-6.9,7.8c0.5,6.8,17.7,13.6,17.7,13.6l12.2-4.1l3.2-8.9l-1.4-7v-9.7L302,134z"/>
	<path class="st5" d="M301.4,143.9c0,0-18.5-5.5-24.6-7.5c-3.1-1-10.6,17.7-10.6,19.8c0,2,11.9,6.8,13.6,7.8
		c1.7,1-8.9,42.6-7.5,52.5c1.4,9.9,50.3,15.7,68.9,10.6c3.8-1-0.3-46.7,1-50.5c1.4-3.8,13.3-6.1,15.7-9.2c2.4-3.1-1.7-17.1-1.7-19.1
		s-30.5,0-30.5,0s-4.6,12.5-16.9,8.6C296.7,153.1,301.4,143.9,301.4,143.9z"/>
	<path class="st3" d="M306.1,164.2c0,0-6,34.5-6.7,37c-0.7,2.6,7.5,11.9,7.5,11.9s7.3-5.8,9-9c1.7-3.2-3.4-39.7-3.4-39.7
		L306.1,164.2z"/>
	<path class="st6" d="M303.2,159.6c0,0-0.3,6.8,6,7.8c6.3,1,7.3-6.1,7.3-6.1l-7.5-4.2L303.2,159.6z"/>
	<path class="st4" d="M255.7,68.1c0,0-10.5-4.5-10.2,6.8c0.2,11.4,5,17.1,13.2,16.1C266.9,90.2,255.7,68.1,255.7,68.1z"/>
	<path class="st4" d="M393.5,84.4c0,0,14,7.3,9,18.9c-3.8,8.9-14.3,14.2-21.8,7C373.3,103.2,386.7,85.2,393.5,84.4z"/>
	<path class="st2" d="M255.7,65.1c0,0-8.2,67.5,57.3,73c65.5,5.5,83.2-47.1,83.9-58c0.7-10.9-36.8-45-39.6-45
		c-2.7,0-27.3-4.8-27.3-4.8l-36.8,9.6L255.7,65.1z"/>
	<path class="st7" d="M354,46c0,0-36.8,35.5-102.3,23.2c0,0-16.4-44.3,38.2-61.4c54.6-17.1,77.1-2,83.9,5.5c0,0,40.9,16.4,25.2,76.4
		C399,89.7,366.9,83.6,354,46z"/>
	<path class="st8" d="M301.4,141.2c0,0-0.4,1.8,1,6.8c1.4,5,6.6,7.6,6.6,9s-6.4,5-9.1,5.9c-2.7,0.9-5.5-8.6-5.9-12.3
		C293.5,147,295,142.1,301.4,141.2z"/>
	<path class="st8" d="M326,143.4c0,0,2.6,2.6,3.6,6.7c1,4.1-7.7,15.2-9.2,16C318.8,167,309,157,309,157s7.4-0.8,11.3-4.4
		C324.5,148.7,326,143.4,326,143.4z"/>
	<path class="st5" d="M359.9,245.3c-1.2,0.2-3.8,1.5-6.5,3.1c3.7,2,10.5,6.4,12.5,13c2.7-3.5,4.6-6.2,5-6.7
		C372.8,251.7,366.2,244,359.9,245.3z"/>
	<path class="st5" d="M303.5,265.6c-0.8-0.2-3.8-0.7-7.1-1.4c1.6,3.6,3.3,10.5-3.7,14.8c4.3,0.9,7.7,1.2,9,0.6
		C311.3,274.7,305.3,266,303.5,265.6z"/>
	<path class="st9" d="M342.2,147.9c1.3,3.7,0.9,39.3,6.8,55.4c2.9,7.8,1.8,13.3-4.9,13.1c-6.7-0.2-13.4-63.3-11.2-67.4
		C335.1,144.8,340.6,143.4,342.2,147.9z"/>
	<path class="st9" d="M288,139.9c1.8-4.6,6.6-2.3,6.3,2.9c-0.3,5.2-14.9,48.4-19.3,51.3c-4.4,2.9-6.4-4.3-5.6-8.8
		C270.2,181,286.1,144.8,288,139.9z"/>
	<path class="st10" d="M400.9,81.2c-3.7,0.9-9.1-0.1-16.5-5.9c-18.8-14.8-25.2-42.1-25.2-42.1c-30.3,31.4-88.8,31.9-97.9,31.7
		c-5.7-0.2-9.5-3-11.6-5c0.6,5.7,2,9.4,2,9.4C317.1,81.5,354,46,354,46c13,37.5,45,43.7,45,43.7C399.8,86.8,400.4,83.9,400.9,81.2z"
		/>
	<path class="st7" d="M306.3,67.3c2.8-3.6-4.8-7.8-9.6-8.5c-4.8-0.7-12.5,7.4-11.8,9.6c0.7,2.3,5.7-5.2,11.5-4.4
		C302.3,64.9,303.6,70.7,306.3,67.3z"/>
	<g>
		<path class="st5" d="M295.3,70.7c-14.6,1.9-16.6,22.1-1.2,24C309.4,96.7,312.2,68.5,295.3,70.7z"/>
		
			<ellipse transform="matrix(0.1485 -0.9889 0.9889 0.1485 170.0507 362.4376)" class="st11" cx="295.5" cy="82.5" rx="7.6" ry="6"/>
		<path class="st5" d="M296.6,78.8c-0.3,2-2.1,3.3-4.1,3c-2-0.3-3.3-2.1-3-4.1c0.3-2,2.1-3.3,4.1-3C295.5,75,296.9,76.8,296.6,78.8z
			"/>
		<path class="st5" d="M298.5,86.1c-0.1,0.7-0.8,1.3-1.6,1.2c-0.7-0.1-1.3-0.8-1.2-1.6c0.1-0.7,0.8-1.3,1.6-1.2
			C298.1,84.7,298.6,85.4,298.5,86.1z"/>
	</g>
	<path class="st7" d="M337,70.6c-1.7-4.3,6.9-6,11.7-5.3C353.4,66,358.4,76,357,78c-1.4,2-3.9-6.7-9.7-7.5
		C341.5,69.6,338.5,74.7,337,70.6z"/>
	<g>
		<path class="st5" d="M346.5,77.1c13.4,6.1,9.3,26-5.9,23.3C325.4,97.8,330.9,70,346.5,77.1z"/>
		
			<ellipse transform="matrix(0.1485 -0.9889 0.9889 0.1485 205.0399 414.9312)" class="st11" cx="343.5" cy="88.4" rx="7.6" ry="6"/>
		<path class="st5" d="M344.6,84.7c-0.3,2-2.1,3.3-4.1,3s-3.3-2.1-3-4.1c0.3-2,2.1-3.3,4.1-3C343.5,80.9,344.8,82.8,344.6,84.7z"/>
		<path class="st5" d="M346.4,92c-0.1,0.7-0.8,1.3-1.6,1.2c-0.7-0.1-1.3-0.8-1.2-1.6c0.1-0.7,0.8-1.3,1.6-1.2
			C346,90.6,346.6,91.3,346.4,92z"/>
	</g>
	<path class="st12" d="M311.3,101.4c0.9-0.9,2.7,2.1,6,2.8c3.3,0.7,5.3-2.6,6.6-1.6c1.3,1.1-2.3,5.2-7.3,4.9
		C311.5,107.2,310.6,102.1,311.3,101.4z"/>
	<path class="st13" d="M302.7,112.3c1.3-1.4,24.6,0.5,27.1,3.1c2.6,2.7-5.8,13.6-16.3,11.7C303,125.2,301,114.1,302.7,112.3z"/>
</g>
<g>
	<path class="st10" d="M28.8,105.3c0,0,26.7,36.3,6.3,70.4c-4.6,7.6,30.6,21.4,74.5,20.8c43.9-0.6,56.4-10.3,58.5-14.7
		s-17.9-47.1-5.4-72.8S28.8,105.3,28.8,105.3z"/>
	<path class="st14" d="M81.2,135.1c-4.4,3-9.1,16.1-12.9,27.1c-3.8,11-12.3,40-5.9,48.8c6.4,8.9,64.4,4.6,72.7,1.6
		c8.3-3,8.6-15.3,7.8-24.1c-0.8-8.9-9.7-51.5-14-54.2C124.7,131.6,87.9,130.6,81.2,135.1z"/>
	<path class="st1" d="M57.1,255.3c0,0,2.3-8.4-6.7-10.2c-9-1.8-21.2,19.7-18.9,29.6c2.3,9.9,18.1,3.3,22-5.4
		C57.4,260.7,57.1,255.3,57.1,255.3z"/>
	<path class="st2" d="M95,249.8c0,0-3.3,18-10.9,25.1c-7.6,7-37.7-11.7-39.6-12.8c-3-1.8,0-11.5,6.3-12.9c3.1-0.7,17.6,1.5,19.4,2.1
		c1.8,0.6,0.8-3.7,0.8-3.7L95,249.8z"/>
	<path class="st1" d="M107.7,260.9c0,0-2.5-5.6-10.8-3.8c-8.3,1.8-5.4,19.6,0,30.5c5.4,10.9,14.9,5.8,16.6-1
		C115.2,279.8,114,268.2,107.7,260.9z"/>
	<path class="st2" d="M115.5,246.2c0,0,2.2,5.3,1.9,7.7c-0.3,2.4-15.2,4.6-17.1,5c-1.8,0.4-7.8,9.1,1.9,14.1c4,2,29.2-5.8,35.3-9.2
		c6.1-3.4,4.4-16,2.7-20.5C138.6,238.9,115.5,246.2,115.5,246.2z"/>
	<path class="st5" d="M50.8,249.2c1.2-0.3,4.1-0.1,7.2,0.2c-2.6,3.3-7.1,10-6.2,16.9c-3.9-2.2-6.7-3.9-7.2-4.2
		C41.5,260.2,44.5,250.6,50.8,249.2z"/>
	<path class="st5" d="M100.4,258.9c0.8-0.2,3.8-0.7,7.1-1.4c-1.6,3.6-3.3,10.5,3.7,14.8c-4.3,0.9-7.7,1.2-9,0.6
		C92.5,268,98.6,259.3,100.4,258.9z"/>
	<path class="st2" d="M143,143.2c0,0,26.5-14.2,37.9-27.4c4.2-4.8,0-11.5,3.1-13.4c3.2-1.9,4.4,4.6,4.4,4.6s3.6-12.6,8.2-11.3
		c4.6,1.3-3.2,12.6-3.2,12.6s9.2-8.9,11.6-4.9c2.3,3.9-8.8,9.3-8.8,9.3s10.1-2.8,10.7-0.4c0.6,2.4-7.9,5.1-9.8,6.1
		c-2,1-3,2.6-7.4,4.2c-4.4,1.6-20.5,24-44.4,34.4L143,143.2z"/>
	<path class="st2" d="M64,145.4c0,0-26.5-14.2-37.9-27.4c-4.2-4.8,0-11.5-3.1-13.4c-3.2-1.9-4.4,4.6-4.4,4.6s-3.6-12.6-8.2-11.3
		c-4.6,1.3,3.2,12.6,3.2,12.6s-9.2-8.9-11.6-4.9c-2.3,3.9,8.8,9.3,8.8,9.3S0.6,112,0,114.5c-0.6,2.4,7.9,5.1,9.8,6.1
		c2,1,3,2.6,7.4,4.2s20.5,24,44.4,34.4L64,145.4z"/>
	<path class="st3" d="M72.7,206.8c0,0-4.2,35.3-4.6,41.5c-0.4,6.2,54.6,8.3,76.7,0c3.3-1.2-9.8-44-9.8-44L72.7,206.8z"/>
	<path class="st5" d="M121,147.2c0,0,16-4.7,23.8-7.7c2-0.8,7.7,16.4,7.7,17.3c0,0.9-15.7,13.2-16.6,13.9
		c-0.9,0.8,2.8,33.4,2.8,36.3s-19.7,6.2-33.6,6.2c-13.9,0-30.7-3.1-32-3.8c-1.4-0.8,3.4-35.4,3.4-36.1c0-0.8-22.3-13.1-22.8-13.8
		c-0.5-0.8,7.2-17.5,7.8-17.7c0.6-0.2,27.2,6.5,30,6.8C94.4,148.7,121,147.2,121,147.2z"/>
	<path class="st3" d="M101.9,168.4c0,0-3.5,25.4-4.3,27.7l7.5,8.2c0,0,6.2-7.2,6.5-7.7c0.3-0.5-4-28.3-4-28.3L101.9,168.4z"/>
	<path class="st6" d="M97.9,164.5c0,0,1.5,7.2,7.1,6.9c5.6-0.3,6.3-6.9,6.3-6.9l-6.3-2.5L97.9,164.5z"/>
	<path class="st4" d="M91.5,139.1c0,0,0.8,7.4,1.2,12.3c0.4,4.9,6.6,10.7,12.3,10.7c5.7,0,11.1-9,11.9-12.3
		c0.8-3.3,0.4-12.7,0.4-12.7L91.5,139.1z"/>
	<path class="st2" d="M57.8,123.1c0,0,13.9,22.2,47.2,20.5s56.6-23,59.5-30.4s1.6-45.5,1.6-45.5s-31.6-18.9-33.2-19.3
		c-1.6-0.4-41.4-11.1-41.4-11.1l-29.1,5.3L47.6,62.8L32,87C32,87,45.1,120.6,57.8,123.1z"/>
	<path class="st7" d="M71.8,12.8C43.9,4.6,8.6,66.1,25.9,101c17.2,34.9,42.3,26.7,42.3,26.7C32,112.4,48.8,75.1,48.8,75.1
		C46,90.3,57,94.8,57,94.8c-6.6-20.5,16.4-44.3,16.4-44.3S87,72.2,114.9,70.2c27.9-2.1,41.4,18.9,41.4,18.9s2.1-5.3-1.2-12.7
		c0,0,17.6,37.3-11.1,47.6c0,0,30.8,7.4,38.1-27.5c7.4-34.9-0.4-65.6-34.9-82.5C112.8-2.8,71.8,12.8,71.8,12.8z"/>
	<path class="st8" d="M92.1,145.3c0,0-4.2,3.1-5.6,6.3c-1.4,3.2,5.2,15.2,7.5,16.6c2.3,1.4,11-6.2,11-6.2S94.5,157.9,92.1,145.3z"/>
	<path class="st8" d="M117.4,145.3c0,0-3.8,12.6-12.4,16.8c0,0,4.9,5.5,8.1,6.2c3.2,0.6,10.9-17.4,10.8-20.5
		C123.7,144.7,117.4,145.3,117.4,145.3z"/>
	<path class="st10" d="M144,123.9c9.9,0.1,22.3-6.5,23.4-26.1c1.1-19.6-15.6-36.2-15.6-36.2c2.7,8.6-1.1,12.1-1.1,12.1
		c-3.5-5.6-22.8-12.1-42.1-14c-19.3-1.9-30.3-22-30.3-22c-16.6,9.1-25.5,38.4-25.5,38.4c-2.4-5.1-1.9-16.9-1.9-16.9
		s-18.2,23.1-10.5,45.1c7.8,22,27.7,23.4,27.7,23.4C32,112.4,48.8,75.1,48.8,75.1C46,90.3,57,94.8,57,94.8
		c-6.6-20.5,16.4-44.3,16.4-44.3S87,72.2,114.9,70.2c27.9-2.1,41.4,18.9,41.4,18.9s2.1-5.3-1.2-12.7
		C155.1,76.3,172.7,113.7,144,123.9z"/>
	<path class="st15" d="M81.2,146.1c-2.5,1.9-6.9,35.6-11,42.9c-3.5,6.2,5.6,11.5,8,2.4c2.4-9.1,8.3-41,8-44.3S83.4,144.5,81.2,146.1
		z"/>
	<path class="st15" d="M130.9,144.2c-0.6-2.5-5.9-0.5-5.9,2.1c0,2.7,9.4,41.3,12.1,44.5c2.7,3.2,5.9,1.6,4.3-4
		C139.7,181.3,131.7,147.5,130.9,144.2z"/>
	<path class="st7" d="M88.7,76.5c2.3-4-5.8-7.1-10.6-7.2c-4.8-0.1-11.4,9-10.4,11.1c1,2.2,4.9-5.9,10.8-5.8
		C84.4,74.7,86.5,80.2,88.7,76.5z"/>
	<g>
		<path class="st5" d="M78.2,81.3c-14.2,3.8-13.5,24.1,2,24C95.6,105.2,94.8,76.8,78.2,81.3z"/>
		
			<ellipse transform="matrix(1.618422e-02 -0.9999 0.9999 1.618422e-02 -14.2282 171.4441)" class="st11" cx="80" cy="93" rx="7.6" ry="6"/>
		<path class="st5" d="M80.6,89.2c0,2-1.7,3.6-3.6,3.5c-2,0-3.6-1.7-3.5-3.6s1.7-3.6,3.6-3.5C79,85.6,80.6,87.2,80.6,89.2z"/>
		<path class="st5" d="M83.4,96.2c0,0.8-0.6,1.4-1.4,1.3c-0.8,0-1.4-0.6-1.3-1.4s0.6-1.4,1.4-1.3C82.8,94.8,83.4,95.4,83.4,96.2z"/>
	</g>
	<path class="st7" d="M119.5,75.7c-2.2-4,6-6.9,10.9-6.8c4.8,0.1,11.1,9.3,10,11.5c-1.1,2.1-4.7-6.1-10.6-6.2
		C123.9,74.1,121.6,79.5,119.5,75.7z"/>
	<g>
		<path class="st5" d="M129.9,80.9c14.1,4.3,12.7,24.5-2.7,23.9C111.7,104.2,113.5,75.9,129.9,80.9z"/>
		
			<ellipse transform="matrix(1.618222e-02 -0.9999 0.9999 1.618222e-02 33.8166 219.3081)" class="st11" cx="128.4" cy="92.5" rx="7.6" ry="6"/>
		<path class="st5" d="M128.9,88.7c0,2-1.7,3.6-3.6,3.5c-2,0-3.6-1.7-3.5-3.6c0-2,1.7-3.6,3.6-3.5C127.4,85.1,129,86.7,128.9,88.7z"
			/>
		<path class="st5" d="M131.8,95.7c0,0.8-0.6,1.4-1.4,1.3c-0.8,0-1.4-0.6-1.3-1.4c0-0.8,0.6-1.4,1.4-1.3
			C131.2,94.3,131.8,94.9,131.8,95.7z"/>
	</g>
	<path class="st12" d="M98.2,109.6c0.8-1,2.9,1.7,6.3,2c3.4,0.3,4.9-3.3,6.4-2.4c1.5,0.9-1.6,5.5-6.6,5.8
		C99.1,115.3,97.5,110.4,98.2,109.6z"/>
	<path class="st13" d="M91.1,121.5c1.1-1.5,24.4-2.8,27.3-0.5c2.9,2.3-3.9,14.2-14.6,13.7C93.1,134.3,89.7,123.6,91.1,121.5z"/>
</g>
</svg>
