<svg xmlns="http://www.w3.org/2000/svg" width="26.97" height="27" viewBox="0 0 26.97 27">
  <metadata><?xpacket begin="﻿" id="W5M0MpCehiHzreSzNTczkc9d"?>
<x:xmpmeta xmlns:x="adobe:ns:meta/" x:xmptk="Adobe XMP Core 5.6-c142 79.160924, 2017/07/13-01:06:39        ">
   <rdf:RDF xmlns:rdf="http://www.w3.org/1999/02/22-rdf-syntax-ns#">
      <rdf:Description rdf:about=""/>
   </rdf:RDF>
</x:xmpmeta>
                                                                                                    
                                                                                                    
                                                                                                    
                                                                                                    
                                                                                                    
                                                                                                    
                                                                                                    
                                                                                                    
                                                                                                    
                                                                                                    
                                                                                                    
                                                                                                    
                                                                                                    
                                                                                                    
                                                                                                    
                                                                                                    
                                                                                                    
                                                                                                    
                                                                                                    
                                                                                                    
                           
<?xpacket end="w"?></metadata>
<defs>
    <style>
      .cls-1 {
        fill: #545454;
        fill-rule: evenodd;
      }
    </style>
  </defs>
  <path id="question03" class="cls-1" d="M1022.33,189.328h-4.56l-1.01-1.9a0.407,0.407,0,0,0-.55-0.169,0.474,0.474,0,0,0-.17.591l3.93,7.382h2.4a7.488,7.488,0,0,0,2.07,4.472,8.008,8.008,0,0,0,3.8,2.278h0v5.907h-5.91V210h14.36v-2.109h-5.91V203.25a0.425,0.425,0,0,0-.85,0v4.641h-0.84v-5.78c0.17,0,.29.042,0.46,0.042h0.09a7.748,7.748,0,0,0,6.96-6.876h2.41l3.93-7.383a0.435,0.435,0,0,0-.76-0.422l-0.93,1.856h-4.56V183h-14.36v1.687a0.425,0.425,0,0,0,.85,0v-0.843h12.66v10.631a6.96,6.96,0,0,1-6.2,6.834,6.479,6.479,0,0,1-4.61-2.193,6.62,6.62,0,0,1-1.9-4.683v-5.527a0.394,0.394,0,0,0-.42-0.422,0.4,0.4,0,0,0-.42.422v0.422h0.04Zm13.51,19.828h-12.66v-0.422h12.66v0.422Zm2.71-14.765h-1.86V192.7h2.74Zm2.24-4.219-0.89,1.687h-3.21v-1.687h4.1Zm-18.46,0v1.687h-3.21l-0.88-1.687h4.09Zm-2.74,2.531h2.74v1.688h-1.86Zm3.16-5.062a0.4,0.4,0,0,0,.43-0.422v-0.844a0.425,0.425,0,0,0-.85,0v0.844A0.4,0.4,0,0,0,1022.75,187.641Zm1.69,4.218a5.07,5.07,0,1,0,5.07-5.062A5.2,5.2,0,0,0,1024.44,191.859Zm9.29,0a4.22,4.22,0,1,1-4.22-4.218A4.344,4.344,0,0,1,1033.73,191.859Zm-5.23-2.067a0.372,0.372,0,0,0-.17.549,0.382,0.382,0,0,0,.55.168l0.25-.126v3.586h-0.42a0.422,0.422,0,0,0,0,.843h1.69a0.422,0.422,0,0,0,0-.843h-0.42v-4.894Zm4.39-4.683a0.422,0.422,0,0,0,0-.843h-0.42a0.422,0.422,0,1,0,0,.843h0.42Zm1.69,0a0.422,0.422,0,0,0,0-.843h-0.42a0.422,0.422,0,1,0,0,.843h0.42Zm-3.38,0a0.422,0.422,0,0,0,0-.843h-0.42a0.422,0.422,0,0,0,0,.843h0.42Z" transform="translate(-1016.03 -183)"/>
</svg>
