<svg xmlns="http://www.w3.org/2000/svg" width="29" height="31" viewBox="0 0 29 31">
  <metadata><?xpacket begin="﻿" id="W5M0MpCehiHzreSzNTczkc9d"?>
<x:xmpmeta xmlns:x="adobe:ns:meta/" x:xmptk="Adobe XMP Core 5.6-c142 79.160924, 2017/07/13-01:06:39        ">
   <rdf:RDF xmlns:rdf="http://www.w3.org/1999/02/22-rdf-syntax-ns#">
      <rdf:Description rdf:about=""/>
   </rdf:RDF>
</x:xmpmeta>
                                                                                                    
                                                                                                    
                                                                                                    
                                                                                                    
                                                                                                    
                                                                                                    
                                                                                                    
                                                                                                    
                                                                                                    
                                                                                                    
                                                                                                    
                                                                                                    
                                                                                                    
                                                                                                    
                                                                                                    
                                                                                                    
                                                                                                    
                                                                                                    
                                                                                                    
                                                                                                    
                           
<?xpacket end="w"?></metadata>
<defs>
    <style>
      .cls-1 {
        fill: #545454;
        fill-rule: evenodd;
      }
    </style>
  </defs>
  <path id="question02" class="cls-1" d="M760.828,194.786l-6.807-4.838a0.536,0.536,0,0,0-.68.054,0.51,0.51,0,0,0-.054.668l4.924,6.689a1.876,1.876,0,0,0,1.37.752c0.049,0,.1.006,0.146,0.006a1.889,1.889,0,0,0,1.325-.54A1.82,1.82,0,0,0,760.828,194.786Zm-0.519,2.061a0.837,0.837,0,0,1-.646.234,0.824,0.824,0,0,1-.6-0.329l-3-4.081,4.151,2.951A0.8,0.8,0,0,1,760.309,196.847Zm12.9-4.4v0a0.033,0.033,0,0,0,0-.006,13.72,13.72,0,0,0-1.4-3.326c0-.011,0-0.022-0.011-0.033s-0.017-.016-0.023-0.026a14.069,14.069,0,0,0-1.876-2.485l1.129-1.109,0.744,0.731L774,183.994l-2.231-2.192-2.231,2.192,0.744,0.731-1.129,1.109a14.3,14.3,0,0,0-2.529-1.843c-0.01-.006-0.016-0.016-0.026-0.022s-0.023-.006-0.034-0.012a14.275,14.275,0,0,0-3.384-1.379l-0.006,0h0a14.443,14.443,0,0,0-2.093-.387v-0.6h0.789a1.292,1.292,0,1,0,0-2.583h-4.733a1.292,1.292,0,1,0,0,2.583h0.789v0.6a14.4,14.4,0,0,0-2.092.387h0l-0.006,0a14.3,14.3,0,0,0-3.384,1.38c-0.011,0-.023,0-0.034.011a0.3,0.3,0,0,0-.027.023,14.241,14.241,0,0,0-2.528,1.842l-1.129-1.109,0.743-.731-2.231-2.192L745,183.994l2.231,2.192,0.744-.731,1.129,1.109a14.063,14.063,0,0,0-1.875,2.485c-0.006.01-.017,0.016-0.023,0.026s-0.006.022-.011,0.033a13.641,13.641,0,0,0-1.4,3.326,0.011,0.011,0,0,0,0,.006,0.043,0.043,0,0,0,0,0,13.695,13.695,0,0,0,0,7.21v0s0,0,0,.008a13.68,13.68,0,0,0,1.4,3.324,0.219,0.219,0,0,0,.012.033c0.009,0.015.021,0.026,0.031,0.04a14.067,14.067,0,0,0,2.2,2.818,0.337,0.337,0,0,0,.021.031c0.01,0.009.022,0.013,0.032,0.021a14.247,14.247,0,0,0,2.882,2.173,0.3,0.3,0,0,0,.027.023,0.419,0.419,0,0,0,.049.02,14.27,14.27,0,0,0,3.369,1.371l0.006,0h0.008a14.418,14.418,0,0,0,7.333,0h0.008l0.006,0a14.27,14.27,0,0,0,3.369-1.371,0.434,0.434,0,0,0,.05-0.02c0.01-.006.016-0.016,0.026-0.023a14.254,14.254,0,0,0,2.883-2.173,0.337,0.337,0,0,0,.031-0.021,0.282,0.282,0,0,0,.021-0.031,14.067,14.067,0,0,0,2.2-2.818c0.01-.014.023-0.025,0.032-0.04s0-.022.011-0.033a13.722,13.722,0,0,0,1.4-3.324,0.026,0.026,0,0,1,0-.008v0A13.668,13.668,0,0,0,773.212,192.445Zm-1.444-9.182,0.744,0.731-0.744.731-0.744-.731Zm-25.285.731,0.744-.731,0.744,0.731-0.744.731Zm24.561,15.631,1.007,0.265a12.728,12.728,0,0,1-.919,2.164l-0.9-.51a0.53,0.53,0,0,0-.719.189,0.512,0.512,0,0,0,.193.706l0.9,0.508a13.04,13.04,0,0,1-1.452,1.858l-0.731-.718a0.531,0.531,0,0,0-.743,0,0.51,0.51,0,0,0,0,.731l0.73,0.717a13.126,13.126,0,0,1-1.891,1.427L766,206.083a0.529,0.529,0,0,0-.718-0.189,0.51,0.51,0,0,0-.192.7l0.518,0.882a13.152,13.152,0,0,1-2.2.9l-0.27-.989a0.525,0.525,0,0,0-.644-0.365,0.517,0.517,0,0,0-.372.633l0.269,0.985a13.34,13.34,0,0,1-2.365.306v-1.021a0.526,0.526,0,0,0-1.052,0v1.021a13.316,13.316,0,0,1-2.365-.306l0.268-.985a0.515,0.515,0,0,0-.372-0.633,0.526,0.526,0,0,0-.644.365l-0.27.989a13.187,13.187,0,0,1-2.2-.9l0.519-.882a0.511,0.511,0,0,0-.193-0.7,0.529,0.529,0,0,0-.718.189l-0.517.879a13.126,13.126,0,0,1-1.891-1.427l0.73-.717a0.51,0.51,0,0,0,0-.731,0.531,0.531,0,0,0-.743,0l-0.73.718a13.046,13.046,0,0,1-1.453-1.858l0.9-.508a0.511,0.511,0,0,0,.192-0.706,0.53,0.53,0,0,0-.718-0.189l-0.9.51a12.775,12.775,0,0,1-.919-2.164l1.007-.265a0.516,0.516,0,0,0,.372-0.633,0.525,0.525,0,0,0-.644-0.365l-1,.264a12.723,12.723,0,0,1-.31-2.324H747.4a0.517,0.517,0,1,0,0-1.034h-1.038a12.723,12.723,0,0,1,.31-2.324l1,0.265a0.541,0.541,0,0,0,.137.017,0.523,0.523,0,0,0,.507-0.382,0.515,0.515,0,0,0-.372-0.633l-1.007-.266a12.809,12.809,0,0,1,.919-2.164l0.9,0.51a0.532,0.532,0,0,0,.718-0.189,0.512,0.512,0,0,0-.193-0.706l-0.895-.508a12.968,12.968,0,0,1,1.452-1.858l0.73,0.718a0.534,0.534,0,0,0,.744,0,0.51,0.51,0,0,0,0-.731l-0.73-.718a13.236,13.236,0,0,1,1.891-1.427l0.516,0.881a0.533,0.533,0,0,0,.719.189,0.511,0.511,0,0,0,.192-0.706l-0.518-.882a13.152,13.152,0,0,1,2.2-.9l0.27,0.99a0.523,0.523,0,0,0,.507.382,0.541,0.541,0,0,0,.137-0.017,0.517,0.517,0,0,0,.372-0.633l-0.269-.986a13.242,13.242,0,0,1,1.893-.278c0.163-.012.31-0.021,0.453-0.027h0.02v1.021a0.526,0.526,0,0,0,1.052,0v-1.021h0.019c0.143,0.006.29,0.015,0.453,0.027a13.221,13.221,0,0,1,1.893.278l-0.268.986a0.516,0.516,0,0,0,.371.633,0.541,0.541,0,0,0,.137.017,0.525,0.525,0,0,0,.508-0.382l0.269-.99a13.162,13.162,0,0,1,2.2.9l-0.519.882a0.512,0.512,0,0,0,.193.706,0.532,0.532,0,0,0,.718-0.189l0.517-.881a13.349,13.349,0,0,1,1.891,1.427l-0.731.718a0.511,0.511,0,0,0,0,.731,0.534,0.534,0,0,0,.744,0l0.73-.718a13.046,13.046,0,0,1,1.453,1.858l-0.9.508a0.51,0.51,0,0,0-.192.706,0.532,0.532,0,0,0,.718.189l0.9-.51a12.69,12.69,0,0,1,.918,2.164l-1.007.266a0.515,0.515,0,0,0-.371.633,0.523,0.523,0,0,0,.507.382,0.541,0.541,0,0,0,.137-0.017l1-.265a12.723,12.723,0,0,1,.31,2.324h-1.039a0.517,0.517,0,1,0,0,1.034h1.039a12.723,12.723,0,0,1-.311,2.324l-1-.264a0.528,0.528,0,0,0-.644.365A0.517,0.517,0,0,0,771.044,199.625Zm-12.072-17.514V180.55h-1.841a0.259,0.259,0,1,1,0-.517h4.733a0.259,0.259,0,1,1,0,.517h-1.84v1.561c-0.185-.007-0.358-0.011-0.526-0.011S759.156,182.1,758.972,182.111Z" transform="translate(-745 -179)"/>
</svg>
