<svg xmlns="http://www.w3.org/2000/svg" width="32" height="25" viewBox="0 0 32 25">
  <metadata><?xpacket begin="﻿" id="W5M0MpCehiHzreSzNTczkc9d"?>
<x:xmpmeta xmlns:x="adobe:ns:meta/" x:xmptk="Adobe XMP Core 5.6-c142 79.160924, 2017/07/13-01:06:39        ">
   <rdf:RDF xmlns:rdf="http://www.w3.org/1999/02/22-rdf-syntax-ns#">
      <rdf:Description rdf:about=""/>
   </rdf:RDF>
</x:xmpmeta>
                                                                                                    
                                                                                                    
                                                                                                    
                                                                                                    
                                                                                                    
                                                                                                    
                                                                                                    
                                                                                                    
                                                                                                    
                                                                                                    
                                                                                                    
                                                                                                    
                                                                                                    
                                                                                                    
                                                                                                    
                                                                                                    
                                                                                                    
                                                                                                    
                                                                                                    
                                                                                                    
                           
<?xpacket end="w"?></metadata>
<defs>
    <style>
      .cls-1 {
        fill: #545454;
        fill-rule: evenodd;
      }
    </style>
  </defs>
  <path id="question01" class="cls-1" d="M519,205.483h-1.5a0.389,0.389,0,0,1-.353.482,4.759,4.759,0,0,0-.724.286,7.874,7.874,0,0,1-3.794.75c-7.747-.037-15.494-0.019-23.242-0.019h-0.373c-0.01-.161-0.019-0.311-0.03-0.5-0.3,0-.6,0-0.9,0A1.009,1.009,0,0,1,487,205.388c0-.3-0.008-0.6,0-0.905a1,1,0,0,1,.993-1c0.321-.011.642,0,0.984,0,0.012-.171.023-0.321,0.035-0.491h1.971v-1.988h6v0.964h-4.96v1.015h0.4q10.9,0,21.8.006a2,2,0,0,1,.692.13c0.768,0.29,1.523.614,2.291,0.905a0.346,0.346,0,0,1,.281.458H519v1Zm-10.014-1.478H492.028v1.96h16.958v-1.96Zm3.527,1.975c0.617,0,1.2,0,1.782,0a0.686,0.686,0,0,0,.239-0.054c0.591-.23,1.182-0.46,1.767-0.705a0.32,0.32,0,0,0,.184-0.222,0.369,0.369,0,0,0-.191-0.251c-0.408-.181-0.842-0.308-1.239-0.511a6.253,6.253,0,0,0-2.542-.255v2ZM510.022,204v1.96h1.463V204h-1.463Zm-20,0v1.959h0.962V204h-0.962Zm-2.007,1.467h0.965v-0.959h-0.965v0.959ZM519,201.985H498.02v-5.98h0.97v4.962h18.994V186.008h-2.97v-2.279c-0.112.095-.18,0.145-0.239,0.2-0.605.6-1.2,1.215-1.819,1.8a0.888,0.888,0,0,1-.54.25c-2.426.016-4.853,0.011-7.279,0.01a1.06,1.06,0,0,1-.114-0.015V185h0.334c2.208,0,4.416,0,6.624,0a0.688,0.688,0,0,0,.541-0.23c0.825-.839,1.661-1.666,2.492-2.5a0.538,0.538,0,0,1,.988.4c-0.006.759,0,1.518,0,2.322h3v16.988Zm-31.975-19.973h16.961v1.962h-0.981v-0.959h-14.98v10.972H490v2.2l0.07,0.046c0.168-.176.332-0.355,0.5-0.527,0.484-.487.962-0.982,1.464-1.451a0.9,0.9,0,0,1,.537-0.256c1.437-.02,2.874-0.01,4.311-0.008a0.5,0.5,0,0,1,.1.024v0.975H496.66c-1.208,0-2.416.005-3.624-.008a0.719,0.719,0,0,0-.567.242c-0.8.816-1.617,1.622-2.428,2.431a0.571,0.571,0,0,1-.18.169,1.243,1.243,0,0,1-.545.1,0.433,0.433,0,0,1-.315-0.481q0-1.046,0-2.092V195h-1.977V182.012Zm16.963,3.006v9.956h-5.963v-9.956h5.963Zm-4.973,8.95h3.961v-7.955h-3.961v7.955Zm-4.412-1.679a1.674,1.674,0,0,0-.578-0.506,2.675,2.675,0,0,0-.794.192,1.979,1.979,0,0,1-2.217-1.895c-0.038-1.059-.036-2.122,0-3.182a1.988,1.988,0,0,1,3.971,0c0.039,1.08.017,2.163,0,3.245a1.533,1.533,0,0,1-.157.628,0.313,0.313,0,0,0,.1.448c0.147,0.115.288,0.239,0.448,0.373C495.092,191.85,494.856,192.062,494.6,192.289Zm-1.182-2.7,0.512,0.7a1.832,1.832,0,0,0,.063-0.262c0-1.03.015-2.061-.006-3.09a0.974,0.974,0,0,0-.98-0.941,0.992,0.992,0,0,0-1,.953c-0.019.426,0,.853,0,1.28,0,0.6-.017,1.208.006,1.81a0.907,0.907,0,0,0,1.181.862l-0.5-.531Zm15.569,5.392H508v-2.971h-1.989v2.964H505v-0.313c0-1.539-.013-3.078,0-4.617a1.99,1.99,0,0,1,3.014-1.749,1.763,1.763,0,0,1,.961,1.546C509.009,191.541,508.99,193.245,508.99,194.978Zm-2.985-4.007H508c0-.362.017-0.7,0-1.043a0.993,0.993,0,0,0-1.982,0C505.988,190.265,506.005,190.607,506.005,190.971Zm-4.992,6v-0.962h14.972v0.962H501.013Zm0,2V198h13.47v0.962h-13.47Zm14.97-9.983h-5.964v-0.972h5.964v0.972Zm0,1.031v0.964h-5.959v-0.964h5.959Zm0,2v0.963h-5.962v-0.963h5.962Zm-0.01,2.965h-5.959v-0.963h5.959v0.963Zm-14.49-7.466v0.96h-0.966v-0.96h0.966Zm-0.963,2h0.961v0.962h-0.961v-0.962Zm0.96,2.97h-0.961v-0.966h0.961v0.966Z" transform="translate(-487 -182)"/>
</svg>
