<svg xmlns="http://www.w3.org/2000/svg" width="55" height="40" viewBox="0 0 55 40">
  <metadata><?xpacket begin="﻿" id="W5M0MpCehiHzreSzNTczkc9d"?>
<x:xmpmeta xmlns:x="adobe:ns:meta/" x:xmptk="Adobe XMP Core 5.6-c142 79.160924, 2017/07/13-01:06:39        ">
   <rdf:RDF xmlns:rdf="http://www.w3.org/1999/02/22-rdf-syntax-ns#">
      <rdf:Description rdf:about=""/>
   </rdf:RDF>
</x:xmpmeta>
                                                                                                    
                                                                                                    
                                                                                                    
                                                                                                    
                                                                                                    
                                                                                                    
                                                                                                    
                                                                                                    
                                                                                                    
                                                                                                    
                                                                                                    
                                                                                                    
                                                                                                    
                                                                                                    
                                                                                                    
                                                                                                    
                                                                                                    
                                                                                                    
                                                                                                    
                                                                                                    
                           
<?xpacket end="w"?></metadata>
<defs>
    <style>
      .cls-1 {
        fill: #c67b19;
        fill-rule: evenodd;
      }
    </style>
  </defs>
  <path class="cls-1" d="M1111.38,785.124h-19.07a16.82,16.82,0,0,0-4.84-7.86,16.2,16.2,0,0,0-12.87-4.159,16.627,16.627,0,0,0-14.51,14.879,16.934,16.934,0,0,0,3.21,11.8,16.445,16.445,0,0,0,9.69,6.308l4.07,4.128a1.747,1.747,0,0,0,1.25.531,1.828,1.828,0,0,0,.69-0.139,1.806,1.806,0,0,0,1.09-1.67v-2.89a16.9,16.9,0,0,0,1.96-.574v0.115a3.647,3.647,0,0,0,3.61,3.673h6.08l3.23,3.286a1.493,1.493,0,0,0,1.65.332,1.535,1.535,0,0,0,.93-1.415v-2.2h13.83a3.649,3.649,0,0,0,3.62-3.673V788.8A3.649,3.649,0,0,0,1111.38,785.124Zm-32.3,19.348a0.873,0.873,0,0,0-.71.861v3.607a0.049,0.049,0,0,1-.03.054,0.058,0.058,0,0,1-.07-0.012l-4.24-4.314a0.887,0.887,0,0,0-.44-0.24,14.7,14.7,0,0,1-8.91-5.7,15.124,15.124,0,0,1,1.32-19.536,14.644,14.644,0,0,1,8.79-4.35,15.314,15.314,0,0,1,1.71-.1,14.481,14.481,0,0,1,9.82,3.819,15.124,15.124,0,0,1,4.91,11.168A14.89,14.89,0,0,1,1079.08,804.472Zm34.2,1.119a1.913,1.913,0,0,1-1.9,1.924h-14.69a0.872,0.872,0,0,0-.87.875v2.553l-3.12-3.172a0.852,0.852,0,0,0-.61-0.256h-6.43a1.911,1.911,0,0,1-1.89-1.924v-0.853a16.728,16.728,0,0,0,9.18-15,17.034,17.034,0,0,0-.24-2.862h18.67a1.913,1.913,0,0,1,1.9,1.924v16.794h0Zm-4.96-13.68a0.854,0.854,0,0,0-1.22,0l-8.58,8.711-3.98-4.044a0.854,0.854,0,0,0-1.22,0,0.9,0.9,0,0,0,0,1.237l4.59,4.662a0.855,0.855,0,0,0,1.22,0l9.19-9.329A0.9,0.9,0,0,0,1108.32,791.911Zm-31.84,4.412h0a0.865,0.865,0,0,0-.86.875h0a0.865,0.865,0,0,0,.86.875h0a0.871,0.871,0,0,0,.86-0.875h0A0.871,0.871,0,0,0,1076.48,796.323Zm3.83-13.284a5.348,5.348,0,0,0-3.83-1.643,5.508,5.508,0,0,0-5.46,5.54,0.865,0.865,0,1,0,1.73,0,3.764,3.764,0,0,1,3.73-3.791,3.676,3.676,0,0,1,2.62,1.131,3.784,3.784,0,0,1-1.55,6.291,2.714,2.714,0,0,0-1.93,2.621v0.279a0.86,0.86,0,1,0,1.72,0v-0.279a0.981,0.981,0,0,1,.71-0.946,5.568,5.568,0,0,0,3.88-5.306A5.509,5.509,0,0,0,1080.31,783.039Z" transform="translate(-1060 -773)"/>
</svg>
