<svg xmlns="http://www.w3.org/2000/svg" width="106" height="91" viewBox="0 0 106 91">
  <metadata><?xpacket begin="﻿" id="W5M0MpCehiHzreSzNTczkc9d"?>
<x:xmpmeta xmlns:x="adobe:ns:meta/" x:xmptk="Adobe XMP Core 5.6-c142 79.160924, 2017/07/13-01:06:39        ">
   <rdf:RDF xmlns:rdf="http://www.w3.org/1999/02/22-rdf-syntax-ns#">
      <rdf:Description rdf:about=""/>
   </rdf:RDF>
</x:xmpmeta>
                                                                                                    
                                                                                                    
                                                                                                    
                                                                                                    
                                                                                                    
                                                                                                    
                                                                                                    
                                                                                                    
                                                                                                    
                                                                                                    
                                                                                                    
                                                                                                    
                                                                                                    
                                                                                                    
                                                                                                    
                                                                                                    
                                                                                                    
                                                                                                    
                                                                                                    
                                                                                                    
                           
<?xpacket end="w"?></metadata>
<defs>
    <style>
      .cls-1 {
        fill: #b2b2b2;
        fill-rule: evenodd;
      }
    </style>
  </defs>
  <path class="cls-1" d="M1035,124.237a2.445,2.445,0,0,1,2.4-1.237c2.55,0.061,5.11.017,7.66,0.021,1.54,0,2.04.4,2.35,1.867q1.98,9.123,3.95,18.246c0.05,0.231.14,0.455,0.26,0.85,2.41-1.955,5.23-1.7,8.01-1.7,20.88,0.006,41.75.063,62.63-.046,4.3-.023,8.36,3.559,7.2,8.638-0.15.662-.23,1.34-0.36,2.127l-3.44-.568c0.14-.822.28-1.555,0.4-2.29,0.45-2.685-.99-4.393-3.74-4.393q-32.715,0-65.42.035a6.826,6.826,0,0,0-2.92.818,2.413,2.413,0,0,0-1.29,2.761c0.36,2.26.6,4.539,0.9,6.91h1.29q26.97,0,53.93,0c1.31,0,2.13.657,2.14,1.707,0.02,1.072-.83,1.757-2.2,1.757q-26.715,0-53.42,0h-1.26c0.47,3.532.93,6.969,1.4,10.517h42.25c0.28,0,.56-0.012.83,0a1.778,1.778,0,0,1,1.8,1.744,1.731,1.731,0,0,1-1.82,1.709c-2.49.026-4.97,0.013-7.46,0.013l-34.05,0h-1.08c0.48,3.549.93,6.971,1.41,10.524h36.95c0.21,0,.41-0.007.62,0a1.788,1.788,0,0,1,1.89,1.762,1.739,1.739,0,0,1-1.94,1.69q-11.13.015-22.25,0.008l-13.67,0h-1.16c0.33,2.215.53,4.322,0.97,6.381,0.34,1.6,1.73,2.432,3.63,2.433q11.175,0.006,22.35,0,12.945-.006,25.88-0.014c4.73,0.005,8.58,3.217,9.06,7.5,0.54,4.852-2.23,8.681-7.1,9.806a2,2,0,0,0-.36.178h-2.48a4.826,4.826,0,0,0-.57-0.206,8.633,8.633,0,0,1-6.85-10.038,22.566,22.566,0,0,1,1.27-3.671h-29.61c0.11,0.218.17,0.339,0.24,0.453,3.24,5.532.55,11.747-5.74,13.276a1.62,1.62,0,0,0-.36.186h-2.48a4.661,4.661,0,0,0-.58-0.2,8.661,8.661,0,0,1-6.81-10.595,23.335,23.335,0,0,1,1.5-3.538c-3.25-1.6-4.19-2.863-4.73-6.547-0.38-2.606-.71-5.219-1.06-7.829q-1.41-10.525-2.82-21.05c-0.63-4.746-1.06-9.53-1.96-14.227-1.45-7.62-3.22-15.18-4.82-22.771a0.8,0.8,0,0,0-.96-0.767c-2,.027-4-0.04-6,0.026a2.42,2.42,0,0,1-2.4-1.239v-1.028Zm31.8,75.78a5.233,5.233,0,0,0-5.31,5.256,5.3,5.3,0,0,0,10.6-.1A5.2,5.2,0,0,0,1066.8,200.017Zm44.15,0a5.252,5.252,0,1,0,.08,10.5,5.344,5.344,0,0,0,5.26-5.362A5.272,5.272,0,0,0,1110.95,200.013ZM1141,186.681c-0.85,2.243-2.5,2.941-4.86,2.921-9.97-.084-19.94-0.051-29.91-0.02a3.915,3.915,0,0,1-3.83-1.921,3.816,3.816,0,0,1,.41-4.24q7.65-11.652,15.26-23.332c1.84-2.82,4.92-2.811,6.78.028q7.635,11.661,15.25,23.338c0.33,0.508.6,1.054,0.9,1.583v1.643Zm-3.38-.638c-5.44-8.334-10.75-16.459-16.17-24.749-5.43,8.323-10.75,16.464-16.16,24.749h32.33Zm-17.78-13.219c0-1.4-.02-2.807.01-4.21a1.727,1.727,0,1,1,3.45-.107q0.075,4.362,0,8.726a1.727,1.727,0,1,1-3.45-.1C1119.82,175.7,1119.84,174.261,1119.84,172.824Zm1.67,7.936a1.784,1.784,0,0,1,1.8,1.738,1.724,1.724,0,0,1-1.69,1.717,1.7,1.7,0,0,1-1.78-1.614A1.735,1.735,0,0,1,1121.51,180.76Z" transform="translate(-1035 -123)"/>
</svg>
