<svg xmlns="http://www.w3.org/2000/svg" viewBox="0 0 514.34 706.29"><defs><style>.cls-1{isolation:isolate;}.cls-12,.cls-2{fill:#277d96;}.cls-22,.cls-3,.cls-31{fill:#4dd194;}.cls-3,.cls-4,.cls-5{stroke:#fff;stroke-width:5.71px;}.cls-10,.cls-13,.cls-15,.cls-16,.cls-17,.cls-18,.cls-19,.cls-23,.cls-24,.cls-27,.cls-29,.cls-3,.cls-32,.cls-33,.cls-37,.cls-38,.cls-39,.cls-4,.cls-5,.cls-6{stroke-miterlimit:10;}.cls-21,.cls-28,.cls-4{fill:#ff4d7d;}.cls-11,.cls-13,.cls-32,.cls-33,.cls-5{fill:#c7e640;}.cls-10,.cls-16,.cls-17,.cls-18,.cls-19,.cls-23,.cls-24,.cls-29,.cls-35,.cls-36,.cls-38,.cls-39,.cls-6{fill:none;}.cls-6{stroke:#9fe3d2;stroke-width:1.9px;}.cls-17,.cls-18,.cls-19,.cls-23,.cls-24,.cls-29,.cls-34,.cls-35,.cls-36,.cls-6{stroke-linecap:round;}.cls-14,.cls-15,.cls-25,.cls-37,.cls-7{fill:#fff;}.cls-8{fill:#9fe3d2;}.cls-9{fill:#ffe;}.cls-10,.cls-27,.cls-34,.cls-35,.cls-36,.cls-37,.cls-38,.cls-39{stroke:#277d96;}.cls-10{stroke-width:3.81px;}.cls-12,.cls-28{opacity:0.5;}.cls-12,.cls-28,.cls-30,.cls-31,.cls-33{mix-blend-mode:multiply;}.cls-13,.cls-15,.cls-16,.cls-32,.cls-33{stroke:#c7e640;}.cls-13,.cls-15{stroke-width:1.21px;}.cls-14{opacity:0.3;}.cls-14,.cls-25{mix-blend-mode:overlay;}.cls-16{stroke-width:0.91px;}.cls-17,.cls-23{stroke:#f4f4f4;}.cls-17{stroke-width:1.67px;}.cls-18,.cls-24{stroke:#ff4d7d;}.cls-18,.cls-19{stroke-width:2.51px;}.cls-19{stroke:#4dd194;}.cls-20,.cls-27,.cls-30,.cls-34{fill:#5ad0d6;}.cls-23{stroke-width:1.46px;}.cls-24{stroke-width:2.2px;}.cls-25{opacity:0.35;}.cls-26{fill:#f4f4f4;}.cls-27{stroke-width:1.84px;}.cls-29{stroke:#ffe;stroke-width:2.85px;}.cls-32,.cls-33{stroke-width:0.94px;}.cls-33{opacity:0.91;}.cls-34,.cls-35,.cls-36{stroke-linejoin:round;stroke-width:1.63px;}.cls-36{stroke-dasharray:2.53 4.21;}.cls-37,.cls-38{stroke-width:1.83px;}.cls-39{stroke-width:1.36px;}.cls-40{fill:#146288;}</style></defs><title>Asset 1</title><g class="cls-1"><g id="Layer_2" data-name="Layer 2"><g id="objects"><path class="cls-2" d="M301.74,295.25c12.38-12.91,15.87-34.76,7.25-55-7.79-18.33-23.37-30.41-39.51-32.6,3.3-22.55-21.36-46.24-56.16-53.47-24.15-5-47-.81-60.68,9.58a42.64,42.64,0,0,0-55.43,13.14c-14.45-3-31.61,1.19-45.85,12.47-13.37,10.58-21.2,25.1-22.49,39A34.5,34.5,0,0,0,3.13,257.21a34,34,0,0,0,7,25.37,48.45,48.45,0,0,0,1.39,33.9c11,25.81,42.35,37.18,70.09,25.39A60.07,60.07,0,0,0,88,338.71c.4,1.19.83,2.38,1.33,3.56,11,25.81,42.35,37.18,70.09,25.39,1-.41,1.87-.84,2.79-1.28,7.57,8.31,20,11.65,31.76,8a81.78,81.78,0,0,0,5.61,13.49c11.68,22.2,31.95,36.29,52.46,38.91l9.26-8.37-.4-.38a45.85,45.85,0,0,1-32.32-43.81c0-.62,0-1.22,0-1.83,14.25,8.36,32.79,9.93,49.94,2.64,27.74-11.79,41.32-42.27,30.35-68.09A47.47,47.47,0,0,0,301.74,295.25Z"/><path class="cls-3" d="M278.54,375.06c27.74-11.79,41.32-42.27,30.35-68.09a47.47,47.47,0,0,0-7.15-11.72A44,44,0,0,0,313,272.07c-35.14-26.21-79.57-27.37-102.77-1.36-9.36,10.51-13.93,23.94-14.07,38.33-1.53-.42-3.07-.82-4.63-1.19C138.8,295.18,87.77,312,65.15,346.18a58.35,58.35,0,0,0,16.5-4.31A60.07,60.07,0,0,0,88,338.71c.4,1.19.83,2.38,1.33,3.56,11,25.81,42.35,37.18,70.09,25.39,1-.41,1.87-.84,2.79-1.28,7.57,8.31,20,11.65,31.76,8a81.78,81.78,0,0,0,5.61,13.49c11.68,22.2,31.95,36.29,52.46,38.91l9.26-8.37-.4-.38a45.85,45.85,0,0,1-32.32-43.81c0-.62,0-1.22,0-1.83C242.85,380.78,261.39,382.35,278.54,375.06Z"/><path class="cls-4" d="M308.89,307a47.47,47.47,0,0,0-7.15-11.72c12.38-12.91,15.87-34.76,7.25-55-7.79-18.33-23.37-30.41-39.51-32.6,3.3-22.55-21.36-46.24-56.16-53.47-24.15-5-47-.81-60.68,9.58-.39-.21-11.66,13.2-14.1,21.83-9,31.71,13.07,65.71,49.24,75.94a75.4,75.4,0,0,0,32.21,2c-1.89,14.25,1.56,28.27,10.9,38.93a46.19,46.19,0,0,0,20.73,13.47c-2,15.55,9,26.63,25.26,27.34,28.22,1.21,34.91-22,35.59-22.07A47.4,47.4,0,0,0,308.89,307Z"/><path class="cls-5" d="M96.24,281a26.67,26.67,0,0,0-32.13-41.42,40.8,40.8,0,0,0-29-12.2,24.47,24.47,0,0,0-6.2,1A34.5,34.5,0,0,0,3.13,257.21a34,34,0,0,0,7,25.37,48.45,48.45,0,0,0,1.39,33.9c11,25.81,42.35,37.18,70.09,25.39A60.07,60.07,0,0,0,88,338.71C88,338.88,103,325,101.53,304.1,100.94,295.81,99.62,287.93,96.24,281Z"/><path class="cls-6" d="M215,184.05v-54a26.83,26.83,0,0,1,26.83-26.82H404.59a20.15,20.15,0,0,1,20.15,20.15v18a20.16,20.16,0,0,0,20.16,20.15h46.7a21.8,21.8,0,0,1,21.79,21.79V296.1a25.64,25.64,0,0,1-25.64,25.64H274.34"/><path class="cls-7" d="M222.19,183.64a7.16,7.16,0,1,1-7.16-7.15A7.16,7.16,0,0,1,222.19,183.64Z"/><path class="cls-8" d="M223.14,183.64a8.11,8.11,0,1,0-8.11,8.11,8.11,8.11,0,0,0,8.11-8.11Zm-14.31,0a6.21,6.21,0,1,1,6.2,6.2,6.21,6.21,0,0,1-6.2-6.2Z"/><path class="cls-6" d="M215,333.81V436.33a26.83,26.83,0,0,0,26.83,26.82H433.31a25.76,25.76,0,0,1,25.76,25.76V654.05a25.76,25.76,0,0,1-25.76,25.76H174.78A26.82,26.82,0,0,1,148,653V347"/><path class="cls-7" d="M207.88,334.21a7.16,7.16,0,1,1,7.15,7.16A7.15,7.15,0,0,1,207.88,334.21Z"/><path class="cls-8" d="M206.93,334.21a8.11,8.11,0,1,0,8.1-8.1,8.12,8.12,0,0,0-8.1,8.1Zm14.31,0A6.21,6.21,0,1,1,215,328a6.21,6.21,0,0,1,6.21,6.2Z"/><circle class="cls-7" cx="147.96" cy="347.41" r="7.15"/><path class="cls-8" d="M156.07,347.41A8.11,8.11,0,1,1,148,339.3a8.12,8.12,0,0,1,8.11,8.11Zm-14.31,0a6.2,6.2,0,1,0,6.2-6.21,6.21,6.21,0,0,0-6.2,6.21Z"/><path class="cls-2" d="M312.64,674.5l-.12-1.07h0a3.18,3.18,0,0,1-2.59,1.26,2.41,2.41,0,0,1-2.59-2.43c0-2,1.82-3.17,5.09-3.15v-.18a1.74,1.74,0,0,0-1.92-1.95,4.2,4.2,0,0,0-2.21.63l-.35-1a5.31,5.31,0,0,1,2.78-.75c2.59,0,3.22,1.77,3.22,3.46v3.17a12.52,12.52,0,0,0,.14,2Zm-.23-4.32c-1.67,0-3.58.26-3.58,1.9a1.36,1.36,0,0,0,1.45,1.47,2.12,2.12,0,0,0,2.05-1.41,1.74,1.74,0,0,0,.08-.5Z"/><path class="cls-2" d="M317.1,666l1.21,1.82c.31.47.57.91.85,1.38h.06c.28-.51.56-.94.84-1.4l1.19-1.8h1.66L320,670.12l3,4.38h-1.74L320,672.59c-.33-.49-.61-1-.91-1.47h0c-.28.51-.58,1-.89,1.47l-1.23,1.91h-1.69l3-4.32L315.39,666Z"/><path class="cls-2" d="M323.66,668.67v-.55l.71-.68c1.69-1.61,2.45-2.47,2.46-3.47a1.18,1.18,0,0,0-1.31-1.29,2.25,2.25,0,0,0-1.41.56l-.28-.63a2.87,2.87,0,0,1,1.87-.68,1.87,1.87,0,0,1,2,1.93c0,1.22-.89,2.21-2.28,3.56l-.53.49v0h3v.74Z"/><path class="cls-2" d="M336.37,665.19v4.11h3.95v1.05h-3.95v4.15h-1.12v-4.15h-4V669.3h4v-4.11Z"/><path class="cls-2" d="M345.93,674.5c0-.58.07-1.44.07-2.19V662.08h1.52v5.32h0a3.14,3.14,0,0,1,2.88-1.56c2.1,0,3.59,1.75,3.57,4.32,0,3-1.91,4.53-3.79,4.53a3,3,0,0,1-2.84-1.59h-.05l-.07,1.4Zm1.59-3.4a3.17,3.17,0,0,0,.07.56,2.37,2.37,0,0,0,2.31,1.8c1.61,0,2.57-1.31,2.57-3.25,0-1.7-.87-3.15-2.52-3.15a2.45,2.45,0,0,0-2.34,1.89,3.53,3.53,0,0,0-.09.63Z"/><path class="cls-2" d="M356.42,666l1.21,1.82c.31.47.58.91.86,1.38h.05c.28-.51.56-.94.84-1.4l1.19-1.8h1.66l-2.89,4.09,3,4.38h-1.75l-1.24-1.91c-.34-.49-.62-1-.91-1.47h0c-.28.51-.58,1-.89,1.47l-1.22,1.91h-1.7l3-4.32L354.71,666Z"/><path class="cls-2" d="M372,665.19v4.11h4v1.05h-4v4.15h-1.12v-4.15h-3.95V669.3h3.95v-4.11Z"/><path class="cls-2" d="M387.67,674.18a5.64,5.64,0,0,1-2.43.49,4,4,0,0,1-4.21-4.32,4.3,4.3,0,0,1,4.54-4.49,5.19,5.19,0,0,1,2.14.43l-.35,1.19a3.6,3.6,0,0,0-1.79-.4,3.19,3.19,0,0,0-.05,6.37,4.4,4.4,0,0,0,1.89-.42Z"/><path class="cls-2" d="M171.83,566.67l-.11-.93h0a2.79,2.79,0,0,1-2.26,1.09,2.1,2.1,0,0,1-2.25-2.11c0-1.79,1.58-2.76,4.43-2.75v-.15a1.52,1.52,0,0,0-1.68-1.7,3.65,3.65,0,0,0-1.92.55l-.3-.89a4.62,4.62,0,0,1,2.42-.65c2.26,0,2.8,1.54,2.8,3v2.76a9.6,9.6,0,0,0,.13,1.77Zm-.2-3.77c-1.46,0-3.12.23-3.12,1.66a1.19,1.19,0,0,0,1.26,1.28,1.83,1.83,0,0,0,1.78-1.23,1.31,1.31,0,0,0,.08-.43Z"/><path class="cls-2" d="M175.71,559.3l1,1.58c.27.41.5.79.74,1.2h.05c.24-.44.49-.82.73-1.22l1-1.56h1.44l-2.51,3.56,2.59,3.81h-1.52L178.24,565c-.29-.43-.54-.84-.8-1.28h0c-.24.44-.5.83-.77,1.28l-1.07,1.66h-1.48l2.62-3.77-2.49-3.6Z"/><path class="cls-2" d="M181.42,561.6v-.48l.61-.6c1.48-1.4,2.14-2.15,2.15-3a1,1,0,0,0-1.14-1.13,2,2,0,0,0-1.23.49l-.25-.55a2.53,2.53,0,0,1,1.64-.58A1.62,1.62,0,0,1,185,557.4c0,1.07-.77,1.93-2,3.1l-.46.43v0h2.6v.65Z"/><path class="cls-2" d="M192.48,558.56v3.58h3.44v.92h-3.44v3.61h-1v-3.61h-3.44v-.92h3.44v-3.58Z"/><path class="cls-2" d="M200.81,566.67c0-.51.06-1.25.06-1.91v-8.91h1.32v4.63h0a2.75,2.75,0,0,1,2.51-1.35c1.83,0,3.13,1.52,3.11,3.76,0,2.63-1.66,3.94-3.3,3.94a2.63,2.63,0,0,1-2.47-1.38h0l-.06,1.22Zm1.38-3a2.53,2.53,0,0,0,.06.49,2.07,2.07,0,0,0,2,1.57c1.4,0,2.24-1.15,2.24-2.84,0-1.47-.76-2.74-2.19-2.74a2.13,2.13,0,0,0-2,1.65,2.58,2.58,0,0,0-.08.55Z"/><path class="cls-2" d="M209.94,559.3l1.05,1.58c.27.41.5.79.75,1.2h0c.25-.44.49-.82.73-1.22l1-1.56H215l-2.52,3.56,2.59,3.81h-1.52L212.47,565c-.29-.43-.54-.84-.8-1.28h0c-.24.44-.5.83-.77,1.28l-1.07,1.66h-1.47l2.61-3.77-2.49-3.6Z"/><path class="cls-2" d="M223.5,558.56v3.58H227v.92H223.5v3.61h-1v-3.61h-3.44v-.92h3.44v-3.58Z"/><path class="cls-2" d="M237.14,566.39a4.93,4.93,0,0,1-2.11.43,3.5,3.5,0,0,1-3.67-3.76,3.75,3.75,0,0,1,4-3.92,4.47,4.47,0,0,1,1.85.38l-.3,1a3.13,3.13,0,0,0-1.55-.35,2.56,2.56,0,0,0-2.61,2.79,2.53,2.53,0,0,0,2.56,2.75,3.91,3.91,0,0,0,1.64-.36Z"/><path class="cls-2" d="M241.43,561.53v-.91h7.86v.91Zm0,3v-.92h7.86v.92Z"/><path class="cls-2" d="M260.39,561.61c0,3.36-1.25,5.22-3.44,5.22-1.94,0-3.25-1.81-3.28-5.08s1.43-5.15,3.45-5.15S260.39,558.46,260.39,561.61Zm-5.38.15c0,2.58.8,4,2,4,1.37,0,2-1.6,2-4.13s-.63-4-2-4C255.87,557.64,255,559.07,255,561.76Z"/><circle class="cls-9" cx="55.79" cy="64.23" r="8.79"/><path class="cls-8" d="M68,67.05s-.26-.16-.66-.38-.89-.47-1.41-.71a10.05,10.05,0,0,0,0-3.46c.52-.24,1-.5,1.41-.71s.66-.38.66-.38a.54.54,0,0,0,.28-.34,1,1,0,0,0,0-.56l-.05-.16c0-.1-.09-.25-.14-.42s-.15-.37-.23-.59l-.29-.65c-.11-.22-.22-.44-.33-.64s-.22-.38-.32-.54l-.24-.37-.07-.1,0,0a1,1,0,0,0-.43-.35.52.52,0,0,0-.44,0s-.29.1-.7.27-.94.4-1.45.66a10.24,10.24,0,0,0-2.7-2.15c.14-.56.25-1.12.32-1.56s.11-.75.11-.75a.47.47,0,0,0-.09-.42.84.84,0,0,0-.18-.2.82.82,0,0,0-.26-.14l-.16-.07-.41-.15-.6-.18-.34-.1-.35-.08a12,12,0,0,0-1.33-.23l-.44-.05H57a.9.9,0,0,0-.55.12.49.49,0,0,0-.26.34s-.1.29-.23.72-.26,1-.38,1.55a9.93,9.93,0,0,0-3.37.76c-.35-.45-.73-.89-1-1.22s-.52-.55-.52-.55a.52.52,0,0,0-.39-.2l-.27,0a1,1,0,0,0-.27.11l-.14.08a4.27,4.27,0,0,0-.38.24l-.25.16-.27.18-.28.21-.29.22c-.19.15-.37.32-.55.47l-.45.42-.31.32-.11.12a.72.72,0,0,0-.15.92s.17.26.43.63c.13.18.28.4.45.62s.33.43.51.64a9.9,9.9,0,0,0-1.5,3.12h-.82c-.28,0-.55,0-.77,0l-.75.06a.5.5,0,0,0-.4.18,1.05,1.05,0,0,0-.24.51s0,.24-.07.61c0,.18,0,.39,0,.62s0,.47,0,.71,0,.49,0,.71,0,.44,0,.62c0,.37.07.61.07.61a1.05,1.05,0,0,0,.24.51.5.5,0,0,0,.4.18l.75.06c.22,0,.49,0,.77,0h.82a9.9,9.9,0,0,0,1.5,3.12c-.18.21-.35.43-.51.64s-.32.44-.45.62c-.26.37-.43.63-.43.63a.72.72,0,0,0,.15.92l.11.12.31.32.45.42c.18.15.36.32.55.46l.29.23.28.21.27.18.25.16.38.24.14.08a1,1,0,0,0,.27.11.86.86,0,0,0,.27,0,.48.48,0,0,0,.39-.19s.22-.21.52-.55.67-.77,1-1.22a9.93,9.93,0,0,0,3.37.76c.12.57.26,1.12.38,1.54s.23.73.23.73a.49.49,0,0,0,.26.34A.9.9,0,0,0,57,77l.16,0a2.73,2.73,0,0,0,.44,0,12,12,0,0,0,1.33-.23l.35-.08.34-.1.6-.18.41-.15.16-.07A.82.82,0,0,0,61,76a.84.84,0,0,0,.18-.2.47.47,0,0,0,.09-.42s0-.3-.11-.75-.18-1-.32-1.56a10.24,10.24,0,0,0,2.7-2.15c.51.26,1,.49,1.45.66s.7.27.7.27a.52.52,0,0,0,.44,0,1,1,0,0,0,.43-.35l0,0,.07-.1L66.9,71c.1-.16.2-.35.32-.54s.22-.42.33-.64l.29-.65c.08-.22.17-.42.23-.59s.1-.32.14-.42l.05-.16a1,1,0,0,0,0-.56A.54.54,0,0,0,68,67.05Zm-12.2,4.11a6.93,6.93,0,1,1,6.93-6.93A6.92,6.92,0,0,1,55.79,71.16Z"/><circle class="cls-9" cx="337.05" cy="463.15" r="13.48" transform="translate(-228.78 373.98) rotate(-45)"/><path class="cls-8" d="M355.75,467.48l-1-.58c-.58-.33-1.38-.73-2.18-1.1a15.38,15.38,0,0,0,0-5.3c.8-.36,1.6-.77,2.18-1.1s1-.58,1-.58a.79.79,0,0,0,.43-.52,1.54,1.54,0,0,0,0-.85,2.09,2.09,0,0,0-.08-.25c-.05-.16-.12-.38-.21-.64s-.22-.57-.35-.9-.29-.66-.45-1-.33-.67-.5-1-.34-.59-.49-.83l-.37-.57c0-.07-.08-.12-.1-.15l0-.06a1.46,1.46,0,0,0-.66-.54.82.82,0,0,0-.67,0s-.44.16-1.08.42-1.43.62-2.22,1a15.46,15.46,0,0,0-4.14-3.3c.22-.86.39-1.72.5-2.39s.17-1.14.17-1.14a.81.81,0,0,0-.14-.66,1.32,1.32,0,0,0-.28-.3,1.71,1.71,0,0,0-.4-.22l-.24-.09a6.54,6.54,0,0,0-.64-.24c-.26-.09-.58-.19-.91-.28l-.53-.15-.54-.13a20.23,20.23,0,0,0-2-.35c-.28,0-.51-.05-.67-.07h-.26a1.4,1.4,0,0,0-.83.17.82.82,0,0,0-.41.53s-.15.44-.34,1.11-.41,1.5-.59,2.36a15.08,15.08,0,0,0-5.17,1.18c-.54-.7-1.11-1.37-1.56-1.87s-.79-.85-.79-.85a.8.8,0,0,0-.6-.3,1.44,1.44,0,0,0-.41,0,1.72,1.72,0,0,0-.42.18l-.23.12-.57.36-.38.25-.42.29-.43.31-.44.35c-.3.22-.58.47-.84.7s-.5.47-.7.66-.36.37-.47.48l-.18.19a1.1,1.1,0,0,0-.22,1.41s.25.4.65,1c.2.29.44.61.7.95s.51.66.78,1a15.27,15.27,0,0,0-2.3,4.77H321.4l-1.18,0c-.69,0-1.15.09-1.15.09a.8.8,0,0,0-.62.28,1.56,1.56,0,0,0-.35.78l-.12.93c0,.27-.05.6-.08.95s0,.72,0,1.09,0,.75,0,1.09.05.68.08,1l.12.93a1.53,1.53,0,0,0,.35.77.77.77,0,0,0,.62.28s.46.05,1.15.1l1.18.05h1.26a15.06,15.06,0,0,0,2.3,4.77c-.27.33-.54.67-.78,1s-.5.67-.7,1c-.4.57-.65,1-.65,1a1.11,1.11,0,0,0,.22,1.42l.18.18.47.49c.2.19.44.42.7.65s.54.48.84.71l.44.34.43.32.42.29.38.24.57.36.23.13a1.68,1.68,0,0,0,.42.17,1.44,1.44,0,0,0,.41,0,.8.8,0,0,0,.6-.3s.32-.32.79-.84,1-1.17,1.56-1.87a15.31,15.31,0,0,0,5.17,1.17c.18.86.4,1.72.59,2.36s.34,1.11.34,1.11a.79.79,0,0,0,.41.53,1.4,1.4,0,0,0,.83.18l.26,0c.16,0,.39,0,.67-.07a17.72,17.72,0,0,0,2-.35l.54-.13.53-.14.91-.29.64-.23.24-.1a1.41,1.41,0,0,0,.4-.22,1.32,1.32,0,0,0,.28-.3.79.79,0,0,0,.14-.65s-.06-.46-.17-1.15-.28-1.53-.5-2.39a15.26,15.26,0,0,0,4.14-3.3c.79.4,1.6.76,2.22,1s1.08.42,1.08.42a.78.78,0,0,0,.67,0,1.55,1.55,0,0,0,.66-.55l0-.05.1-.16.37-.57c.15-.24.31-.52.49-.83s.33-.64.5-1,.32-.68.45-1,.26-.63.35-.89l.21-.65a1.74,1.74,0,0,0,.08-.24,1.58,1.58,0,0,0,0-.86A.84.84,0,0,0,355.75,467.48Zm-18.7,6.29a10.62,10.62,0,1,1,10.62-10.62A10.61,10.61,0,0,1,337.05,473.77Z"/><circle class="cls-9" cx="147.96" cy="519.63" r="18.67"/><path class="cls-8" d="M171.8,531.38s-.46-.45-1.16-1.1-1.62-1.42-2.59-2.17a21.1,21.1,0,0,0,1.15-3.5,21.89,21.89,0,0,0,.53-3.64c1.2-.24,2.4-.54,3.28-.8s1.53-.46,1.53-.46a1.11,1.11,0,0,0,.75-.57,2.14,2.14,0,0,0,.25-1.16,2.88,2.88,0,0,0,0-.35l-.09-.94c0-.39-.11-.84-.18-1.32s-.18-1-.29-1.5-.24-1-.37-1.47-.26-.9-.39-1.27-.24-.67-.32-.88-.07-.19-.09-.25l0-.09A2.08,2.08,0,0,0,173,509a1.11,1.11,0,0,0-.91-.19s-.64.07-1.59.22-2.12.38-3.31.67a21.46,21.46,0,0,0-4.53-5.77c.56-1.09,1.06-2.2,1.42-3.06s.59-1.49.59-1.49a1.08,1.08,0,0,0,0-.93,2,2,0,0,0-.29-.5,2.08,2.08,0,0,0-.46-.42l-.29-.2c-.19-.14-.46-.31-.79-.52s-.72-.44-1.15-.67l-.65-.37-.7-.34a28.05,28.05,0,0,0-2.62-1.12l-.89-.3-.34-.11a2,2,0,0,0-1.17,0,1,1,0,0,0-.72.58s-.34.54-.82,1.39-1,1.89-1.54,3a20.82,20.82,0,0,0-7.34-.05c-.51-1.12-1.06-2.2-1.52-3s-.79-1.39-.79-1.39a1.13,1.13,0,0,0-.72-.6,2,2,0,0,0-.56-.08,2,2,0,0,0-.62.1l-.34.1c-.22.06-.53.17-.89.3l-.6.21-.64.26c-.23.09-.46.18-.69.29l-.71.32c-.47.21-.92.46-1.35.69s-.81.46-1.15.66l-.79.5-.29.2a1.52,1.52,0,0,0-.75,1.84s.21.61.57,1.5c.18.44.39,1,.64,1.5s.48,1.05.74,1.58a21,21,0,0,0-4.62,5.71c-.57-.15-1.15-.28-1.69-.4s-1.13-.22-1.61-.3c-.94-.17-1.58-.25-1.58-.25a1.12,1.12,0,0,0-.92.19,2.17,2.17,0,0,0-.73.93l-.45,1.22c-.13.37-.26.8-.4,1.26s-.26,1-.39,1.46-.22,1-.31,1.49-.14.92-.2,1.31c-.08.77-.13,1.28-.13,1.28a2.05,2.05,0,0,0,.24,1.16,1.06,1.06,0,0,0,.73.58s.61.21,1.53.49c.46.14,1,.29,1.57.44s1.12.28,1.7.4a21.2,21.2,0,0,0,1.59,7.17c-.47.36-.94.73-1.37,1.08s-.88.74-1.23,1.06c-.72.64-1.19,1.09-1.19,1.09a1.53,1.53,0,0,0-.14,2l.18.31c.11.19.27.47.48.8s.45.71.73,1.1.58.82.91,1.22l.48.6c.16.2.33.39.49.57l.47.52.43.45.67.67.26.24a2.16,2.16,0,0,0,.51.36,1.91,1.91,0,0,0,.54.18,1.16,1.16,0,0,0,.91-.21s.54-.34,1.33-.9,1.75-1.25,2.7-2a21.31,21.31,0,0,0,6.59,3.23c0,1.22,0,2.44.05,3.37s.12,1.6.12,1.6a1.1,1.1,0,0,0,.38.85,2.06,2.06,0,0,0,1.07.5l.35,0a9.09,9.09,0,0,0,.93.12,25.36,25.36,0,0,0,2.84.17h.78l.75,0c.48,0,.93-.06,1.32-.1s.71-.07.94-.11l.35-.05a2.39,2.39,0,0,0,.61-.17,1.74,1.74,0,0,0,.47-.31,1.14,1.14,0,0,0,.4-.85s.07-.63.13-1.6.11-2.15.09-3.37a21.41,21.41,0,0,0,6.63-3.15c.93.79,1.91,1.54,2.67,2.07s1.32.91,1.32.91a1.1,1.1,0,0,0,.9.23,2.11,2.11,0,0,0,1.06-.52l.07-.07.19-.17.68-.66c.28-.27.58-.6.91-1s.66-.76,1-1.15.64-.82.93-1.22.54-.76.75-1.09l.49-.8c.13-.2.19-.31.19-.31a2.19,2.19,0,0,0,.29-1.15A1.11,1.11,0,0,0,171.8,531.38ZM144.6,534a14.71,14.71,0,1,1,17.68-11A14.72,14.72,0,0,1,144.6,534Z"/><polyline class="cls-10" points="464.3 149.2 492.53 92.72 430.02 35.15"/><circle class="cls-2" cx="426.13" cy="35.83" r="10.18" transform="translate(322.72 450.77) rotate(-80.81)"/><circle class="cls-11" cx="411.48" cy="58.65" r="10.94" transform="translate(280.86 453.23) rotate(-79.8)"/><path class="cls-2" d="M497.7,92.72a5.17,5.17,0,1,1-5.17-5.16A5.16,5.16,0,0,1,497.7,92.72Z"/><path class="cls-12" d="M497.7,92.72a5.17,5.17,0,1,1-5.17-5.16A5.16,5.16,0,0,1,497.7,92.72Z"/><path class="cls-2" d="M452,147.29h28.59a7.22,7.22,0,0,1,7.22,7.22v4a0,0,0,0,1,0,0h-43a0,0,0,0,1,0,0v-4A7.22,7.22,0,0,1,452,147.29Z"/><path class="cls-2" d="M445,152.07c-.12,1-.22,1.9-.22,2.45v3.55h43v-3.55a19.74,19.74,0,0,0-.11-2.45Z"/><path class="cls-12" d="M445,152.07c-.12,1-.22,1.9-.22,2.45v3.55h43v-3.55a19.74,19.74,0,0,0-.11-2.45Z"/><path class="cls-2" d="M434.53,73.18a27.26,27.26,0,1,0-45.84-29.51Z"/><circle class="cls-2" cx="426.39" cy="35.44" r="5.38"/><polygon class="cls-13" points="269.6 99.59 269.6 6.28 345.66 6.28 345.66 82.9 345.66 91.24 345.66 99.59 269.6 99.59"/><rect class="cls-14" x="269.6" y="6.28" width="38.03" height="93.31"/><path class="cls-15" d="M345.66.61H274.83a5.24,5.24,0,0,0-5.23,5.23h0a5.25,5.25,0,0,0,5.23,5.24h70.83Z"/><line class="cls-16" x1="269.6" y1="5.84" x2="345.66" y2="5.84"/><line class="cls-16" x1="270.69" y1="3.27" x2="345.66" y2="3.27"/><line class="cls-16" x1="269.6" y1="8.41" x2="345.66" y2="8.41"/><polygon class="cls-7" points="334.64 32.62 329.33 27.77 324.02 32.62 324.02 10.32 334.64 10.32 334.64 32.62"/><path class="cls-8" d="M371.76,88.26V86.64a10.06,10.06,0,0,1,9.54-10l-.49,0H319.35a10.06,10.06,0,0,0-10,10v1.62a10.06,10.06,0,0,0,10,10h61.46l.49,0A10.06,10.06,0,0,1,371.76,88.26Z"/><line class="cls-17" x1="310.43" y1="80.66" x2="372.68" y2="80.66"/><line class="cls-17" x1="310.43" y1="84.06" x2="371.33" y2="84.06"/><line class="cls-17" x1="310.43" y1="87.45" x2="370.89" y2="87.45"/><line class="cls-17" x1="310.43" y1="90.85" x2="371.15" y2="90.85"/><line class="cls-17" x1="310.43" y1="94.24" x2="372.68" y2="94.24"/><path class="cls-18" d="M380.81,98.29H319.35a10.06,10.06,0,0,1-10-10V86.64a10.06,10.06,0,0,1,10-10h61.46"/><path class="cls-8" d="M310.24,63.21V61.59a10.05,10.05,0,0,0-9.54-10c.16,0,.32,0,.49,0h61.45a10.07,10.07,0,0,1,10,10v1.62a10.06,10.06,0,0,1-10,10H301.19l-.49,0A10.06,10.06,0,0,0,310.24,63.21Z"/><line class="cls-17" x1="371.57" y1="55.61" x2="309.32" y2="55.61"/><line class="cls-17" x1="371.57" y1="59" x2="310.66" y2="59"/><line class="cls-17" x1="371.57" y1="62.4" x2="311.11" y2="62.4"/><line class="cls-17" x1="371.57" y1="65.79" x2="310.85" y2="65.79"/><line class="cls-17" x1="371.57" y1="69.19" x2="309.32" y2="69.19"/><path class="cls-19" d="M301.19,73.24h61.45a10.06,10.06,0,0,0,10-10V61.59a10.07,10.07,0,0,0-10-10H301.19"/><rect class="cls-11" x="429" y="221.55" width="13.83" height="74.04"/><rect class="cls-2" x="430.94" y="227.3" width="9.95" height="5.42"/><rect class="cls-2" x="430.94" y="234.76" width="9.95" height="2.93"/><rect class="cls-2" x="430.94" y="284.34" width="9.95" height="5.42"/><rect class="cls-2" x="430.94" y="279.36" width="9.95" height="2.93"/><rect class="cls-14" x="435.91" y="221.55" width="6.92" height="74.04"/><rect class="cls-20" x="466.65" y="189.88" width="17.98" height="127.3" transform="translate(-43.87 109.94) rotate(-12.61)"/><rect class="cls-2" x="458.46" y="200.94" width="12.93" height="9.31" transform="translate(-33.67 106.44) rotate(-12.61)"/><rect class="cls-2" x="460.79" y="213.51" width="12.93" height="5.05" transform="translate(-35.89 107.2) rotate(-12.61)"/><rect class="cls-2" x="479.86" y="296.65" width="12.93" height="9.31" transform="translate(-54.04 113.42) rotate(-12.61)"/><rect class="cls-2" x="477.53" y="288.35" width="12.93" height="5.05" transform="translate(-51.82 112.66) rotate(-12.61)"/><rect class="cls-14" x="475.53" y="188.9" width="8.99" height="127.3" transform="translate(-43.55 110.87) rotate(-12.61)"/><rect class="cls-21" x="390.58" y="227.39" width="24.5" height="68.2"/><rect class="cls-2" x="390.58" y="234.19" width="24.5" height="6.98"/><rect class="cls-2" x="390.58" y="281.74" width="24.5" height="6.98"/><rect class="cls-14" x="402.83" y="227.39" width="12.25" height="68.2"/><rect class="cls-22" x="416.54" y="236.87" width="10.97" height="58.72"/><rect class="cls-2" x="419.32" y="241.2" width="5.42" height="50.06"/><rect class="cls-14" x="422.02" y="236.87" width="5.49" height="58.72"/><rect class="cls-21" x="444.31" y="226.97" width="13.83" height="68.61"/><rect class="cls-2" x="444.31" y="257.39" width="13.83" height="7.78"/><rect class="cls-14" x="451.23" y="226.97" width="6.92" height="68.61"/><path class="cls-8" d="M456.09,308.9v-1.42a8.81,8.81,0,0,1,8.36-8.76l-.43,0H384.37a8.81,8.81,0,0,0-8.79,8.78v1.42a8.81,8.81,0,0,0,8.79,8.79H464l.43,0A8.82,8.82,0,0,1,456.09,308.9Z"/><line class="cls-23" x1="376.55" y1="302.25" x2="456.9" y2="302.25"/><line class="cls-23" x1="376.55" y1="305.22" x2="455.72" y2="305.22"/><line class="cls-23" x1="376.55" y1="308.19" x2="455.33" y2="308.19"/><line class="cls-23" x1="376.55" y1="311.17" x2="455.56" y2="311.17"/><line class="cls-23" x1="376.55" y1="314.14" x2="456.9" y2="314.14"/><path class="cls-24" d="M464,317.69H384.37a8.81,8.81,0,0,1-8.79-8.79v-1.42a8.81,8.81,0,0,1,8.79-8.78H464"/><polygon class="cls-2" points="264.54 37.09 259.67 44.18 254.8 37.09 259.67 23.04 264.54 37.09"/><polygon class="cls-25" points="264.54 37.09 259.67 44.18 259.67 23.04 264.54 37.09"/><rect class="cls-2" x="258.47" y="42.19" width="2.4" height="55.88"/><path class="cls-26" d="M260.87,36.91a1.2,1.2,0,1,1-1.2-1.2A1.2,1.2,0,0,1,260.87,36.91Z"/><rect class="cls-2" x="257.68" y="41.91" width="3.98" height="1.9" rx="0.86" ry="0.86"/><path class="cls-8" d="M191.68,584.81h78.15a8.85,8.85,0,0,1,8.85,8.85v103.8a8.85,8.85,0,0,1-8.85,8.85H191.68a8.84,8.84,0,0,1-8.84-8.84V593.65A8.85,8.85,0,0,1,191.68,584.81Z"/><rect class="cls-27" x="195.07" y="598.43" width="71.37" height="27.21" rx="3.61" ry="3.61"/><line class="cls-27" x1="195.07" y1="632.21" x2="266.44" y2="632.21"/><rect class="cls-2" x="195.07" y="640.47" width="11.04" height="11.04" rx="1.08" ry="1.08"/><rect class="cls-2" x="210.15" y="640.47" width="11.04" height="11.04" rx="1.08" ry="1.08"/><rect class="cls-2" x="225.23" y="640.47" width="11.04" height="11.04" rx="1.08" ry="1.08"/><rect class="cls-2" x="240.31" y="640.47" width="11.04" height="11.04" rx="1.08" ry="1.08"/><rect class="cls-2" x="255.39" y="640.47" width="11.04" height="11.04" rx="1.08" ry="1.08"/><rect class="cls-2" x="195.07" y="654.88" width="11.04" height="11.04" rx="1.08" ry="1.08"/><rect class="cls-2" x="210.15" y="654.88" width="11.04" height="11.04" rx="1.08" ry="1.08"/><rect class="cls-2" x="225.23" y="654.88" width="11.04" height="11.04" rx="1.08" ry="1.08"/><rect class="cls-2" x="240.31" y="654.88" width="11.04" height="11.04" rx="1.08" ry="1.08"/><rect class="cls-2" x="255.39" y="654.88" width="11.04" height="11.04" rx="1.08" ry="1.08"/><rect class="cls-2" x="195.07" y="669.29" width="11.04" height="11.04" rx="1.08" ry="1.08"/><rect class="cls-2" x="210.15" y="669.29" width="11.04" height="11.04" rx="1.08" ry="1.08"/><rect class="cls-2" x="225.23" y="669.29" width="11.04" height="11.04" rx="1.08" ry="1.08"/><rect class="cls-21" x="240.31" y="669.29" width="20.6" height="11.04" rx="1.47" ry="1.47"/><rect class="cls-21" x="255.39" y="669.29" width="11.04" height="19.93" rx="1.45" ry="1.45"/><rect class="cls-2" x="195.07" y="683.7" width="11.04" height="11.04" rx="1.08" ry="1.08"/><rect class="cls-2" x="210.15" y="683.7" width="11.04" height="11.04" rx="1.08" ry="1.08"/><rect class="cls-2" x="225.23" y="683.7" width="11.04" height="11.04" rx="1.08" ry="1.08"/><rect class="cls-2" x="240.31" y="683.7" width="11.04" height="11.04" rx="1.08" ry="1.08"/><rect class="cls-21" x="255.39" y="683.7" width="11.04" height="11.04" rx="1.08" ry="1.08"/><path class="cls-21" d="M384.52,528.29a36.71,36.71,0,0,0,11,50.68h0l5.9-9.18h0a25.77,25.77,0,0,1-5.42-4.67l-2.94,2.57c-.28-.32-.56-.66-.84-1l3-2.44A25.24,25.24,0,0,1,392,559l-3.54,1.64c-.18-.4-.36-.8-.52-1.21l3.6-1.47a25.89,25.89,0,0,1-1.65-6l-3.85.58c-.06-.43-.12-.87-.16-1.3l3.86-.41a25.74,25.74,0,0,1,.09-6.2l-3.84-.52c.06-.43.13-.87.2-1.29l3.82.69a25.47,25.47,0,0,1,1.83-5.92L388.33,536c.17-.39.36-.79.56-1.18l3.45,1.74c.41-.8.86-1.6,1.35-2.37a25.47,25.47,0,0,1,2.09-2.8l-2.95-2.51c.28-.33.58-.66.87-1l2.83,2.63a26,26,0,0,1,4.75-4l-2.11-3.24c.36-.24.74-.47,1.11-.69l2,3.33a26.6,26.6,0,0,1,5.69-2.48l-1.13-3.72,1.27-.35,1,3.77a25.4,25.4,0,0,1,6.14-.79l0-3.9c.43,0,.87,0,1.31,0l-.14,3.89a25.69,25.69,0,0,1,6.12,1l1.07-3.75c.41.11.83.25,1.25.38l-1.24,3.7a26.12,26.12,0,0,1,5.77,2.77h0l5.91-9.18h0A36.71,36.71,0,0,0,384.52,528.29Z"/><polygon class="cls-21" points="392.9 582.56 402.8 588.93 409.3 578.81 405.85 576.59 406.42 575.7 409.88 577.92 412.74 573.47 409.28 571.25 409.86 570.36 413.31 572.59 416.17 568.14 412.72 565.92 413.29 565.03 416.74 567.25 419.6 562.8 416.15 560.58 416.72 559.69 420.18 561.91 423.04 557.47 419.58 555.24 420.15 554.36 423.61 556.58 426.47 552.13 423.01 549.91 423.59 549.02 427.04 551.24 429.9 546.79 426.45 544.57 427.02 543.68 430.47 545.9 433.33 541.46 429.88 539.24 430.45 538.35 433.91 540.57 436.77 536.12 433.31 533.9 433.88 533.01 437.34 535.23 440.2 530.79 436.75 528.57 437.32 527.67 440.77 529.9 447.28 519.78 437.39 513.41 392.9 582.56"/><rect class="cls-14" x="376.5" y="546.64" width="82.22" height="5.88" transform="matrix(0.54, -0.84, 0.84, 0.54, -270.52, 603.46)"/><path class="cls-2" d="M468,626.51v-1.35h5.4v-4.81H468V619h5.4v-4.82H468v-1.34h5.4V608H468V606.7h5.4v-4.82H468v-1.34h5.4v-4.81H468v-1.34h5.4v-4.82H468v-1.34h5.4v-4.82H468v-1.34h5.4v-4.81H468v-1.34h5.4V571.1H468v-1.34h5.4V565H468v-1.34h5.4v-4.82H468v-1.34h5.4v-4.82H468v-1.34h5.4v-4.81H468v-1.34h5.4v-4.82H468V539h5.4v-4.81H468v-1.34h5.4V528H468v-1.34h5.4V510.55L393,635.42h80.42v-8.91Zm-7.17-5H416.55l44.25-68.71Z"/><polygon class="cls-14" points="387.43 628.47 382.95 635.42 463.37 635.42 463.37 628.47 387.43 628.47"/><path class="cls-2" d="M341.56,688.46l1.2,1.82c.32.47.58.91.86,1.38h.05c.28-.51.56-.95.84-1.4l1.19-1.8h1.66l-2.88,4.09,3,4.37H345.7l-1.24-1.9c-.33-.49-.61-1-.91-1.47h0c-.28.5-.58,1-.9,1.47l-1.22,1.9h-1.7l3-4.32-2.87-4.14Z"/><path class="cls-2" d="M348.12,691.1v-.55l.7-.68c1.69-1.61,2.46-2.47,2.47-3.47a1.18,1.18,0,0,0-1.32-1.29,2.2,2.2,0,0,0-1.4.56l-.29-.64a3,3,0,0,1,1.88-.67,1.87,1.87,0,0,1,2,1.93c0,1.22-.89,2.21-2.29,3.56l-.53.48v0h3v.75Z"/><path class="cls-2" d="M356.89,688.46l1.85,5c.19.56.4,1.22.54,1.73h0c.15-.51.33-1.15.54-1.76l1.68-5h1.62l-2.3,6c-1.11,2.9-1.86,4.39-2.91,5.3a4.23,4.23,0,0,1-1.88,1l-.39-1.3a3.94,3.94,0,0,0,1.35-.75,4.68,4.68,0,0,0,1.29-1.71,1.1,1.1,0,0,0,.12-.37,1.25,1.25,0,0,0-.1-.4l-3.13-7.8Z"/><rect class="cls-21" x="204.92" y="497.69" width="30.7" height="30.7" rx="3.55" ry="3.55"/><rect class="cls-28" x="204.92" y="497.69" width="30.7" height="30.7" rx="3.55" ry="3.55"/><rect class="cls-21" x="204.18" y="496.22" width="30.7" height="30.7" rx="3.55" ry="3.55"/><line class="cls-29" x1="212.05" y1="511.57" x2="227.02" y2="511.57"/><rect class="cls-20" x="317.5" y="499.9" width="30.7" height="30.7" rx="3.55" ry="3.55"/><rect class="cls-30" x="317.5" y="499.9" width="30.7" height="30.7" rx="3.55" ry="3.55"/><rect class="cls-20" x="316.76" y="498.43" width="30.7" height="30.7" rx="3.55" ry="3.55"/><line class="cls-29" x1="324.63" y1="510.58" x2="339.6" y2="510.58"/><line class="cls-29" x1="324.63" y1="516.98" x2="339.6" y2="516.98"/><rect class="cls-22" x="242.44" y="498.43" width="30.7" height="30.7" rx="3.55" ry="3.55"/><rect class="cls-31" x="242.44" y="498.43" width="30.7" height="30.7" rx="3.55" ry="3.55"/><rect class="cls-22" x="241.71" y="496.95" width="30.7" height="30.7" rx="3.55" ry="3.55"/><line class="cls-29" x1="249.57" y1="512.31" x2="264.55" y2="512.31"/><line class="cls-29" x1="257.06" y1="519.79" x2="257.06" y2="504.82"/><rect class="cls-32" x="279.97" y="499.16" width="30.7" height="30.7" rx="3.55" ry="3.55"/><rect class="cls-33" x="279.97" y="499.16" width="30.7" height="30.7" rx="3.55" ry="3.55"/><rect class="cls-32" x="279.23" y="497.69" width="30.7" height="30.7" rx="3.55" ry="3.55"/><line class="cls-29" x1="289.29" y1="518.34" x2="299.88" y2="507.75"/><circle class="cls-9" cx="290.03" cy="508.49" r="1.84"/><path class="cls-9" d="M301,517.6a1.84,1.84,0,1,1-1.84-1.84A1.84,1.84,0,0,1,301,517.6Z"/><polygon class="cls-34" points="325.2 612.37 306.61 602.25 306.68 564.09 325.27 574.21 325.2 612.37"/><polygon class="cls-34" points="325.27 574.21 306.68 564.09 342.04 559.12 360.63 569.24 325.27 574.21"/><polygon class="cls-35" points="360.63 569.24 360.56 607.4 325.2 612.37 325.27 574.21 360.63 569.24"/><polyline class="cls-36" points="306.61 602.25 341.63 597.29 341.7 559.12"/><line class="cls-36" x1="360.56" y1="607.4" x2="341.63" y2="597.29"/><ellipse class="cls-37" cx="362.59" cy="221.04" rx="9.75" ry="12.47" transform="matrix(0.42, -0.91, 0.91, 0.42, 8.78, 455.87)"/><path class="cls-37" d="M317.65,200c-2.28,4.88.93,11.2,7.17,14.11s13.14,1.33,15.42-3.55-.93-11.2-7.16-14.12S319.94,195.15,317.65,200Z"/><path class="cls-38" d="M351.29,215.76s1.17-2.49-4.42-5.11-6.63-.06-6.63-.06"/><path class="cls-38" d="M317.65,200l3.91-21.54a2,2,0,0,0-3-2l-3,1.88"/><line class="cls-39" x1="281.26" y1="180.24" x2="396.47" y2="180.24"/><path class="cls-40" d="M270.44,135.08h12.31c.84,0,1.86,0,1.86,1.1s-1,1.14-1.86,1.14H270.44V148h14c.95,0,1.86.11,1.86,1.1s-1,1.14-1.86,1.14H270c-1.94,0-2.16-.23-2.16-2.17V125.16c0-1.94.26-2.17,2.16-2.17h13.79c.84,0,1.9,0,1.9,1.14s-1,1.11-1.9,1.11H270.44Z"/><path class="cls-40" d="M306.08,148.72c0,.87,0,1.93-1.18,1.93s-1.14-1.06-1.14-1.93V138a7.23,7.23,0,0,0-.79-4,4.56,4.56,0,0,0-3.8-1.87,6.23,6.23,0,0,0-5.48,3.5c-.57,1.22-.68,2.74-.68,6.08v7.07c0,.87,0,1.93-1.14,1.93s-1.18-1-1.18-1.93V132c0-.84,0-1.94,1.18-1.94S293,131.09,293,132v1.44a7.27,7.27,0,0,1,6.35-3.34,6.7,6.7,0,0,1,5.24,2.09c1.44,1.63,1.48,4,1.48,5.21Z"/><path class="cls-40" d="M326.75,131.73c0-.64,0-1.67,1.14-1.67s1.18.76,1.18,2.2V148c0,3.12-.15,6.12-2.55,8.13-1.4,1.18-3.49,2.13-6.91,2.13-3.19,0-5.05-.8-6.42-2.28a5.37,5.37,0,0,1-1.56-2.85,1.09,1.09,0,0,1,1.1-1.14c.61,0,.69.15,1.33,1.37,1.07,2,2.66,3,5.55,3,4.33,0,6-1.94,6.5-3.3s.6-2.17.64-5.93a7.27,7.27,0,0,1-2.2,2.16,8.75,8.75,0,0,1-4.83,1.33c-8.32,0-9-8.09-9-10.26,0-4.25,2.17-10.33,8.85-10.33a8.41,8.41,0,0,1,7.22,3.65Zm-6.8,17c3,0,6.84-2,6.84-8.2,0-6.39-3.65-8.59-6.91-8.59-3.08,0-6.77,2-6.77,8.32S316.42,148.75,320,148.75Z"/><path class="cls-40" d="M337.47,148.75c0,.84,0,1.9-1.14,1.9s-1.18-1-1.18-1.9V124.48c0-.88,0-1.94,1.14-1.94s1.18,1.06,1.18,1.94Z"/><path class="cls-40" d="M344.65,126.26a1.48,1.48,0,0,1-1.48-1.48,1.46,1.46,0,0,1,1.48-1.48,1.48,1.48,0,0,1,1.48,1.48A1.5,1.5,0,0,1,344.65,126.26Zm1.14,22.49c0,.84,0,1.9-1.14,1.9s-1.18-1-1.18-1.9V132c0-.88,0-1.94,1.18-1.94s1.14,1.14,1.14,1.94Z"/><path class="cls-40" d="M358.14,150.65c-3.11,0-4.6-.83-5.55-1.67a5.73,5.73,0,0,1-2-3.72,1.13,1.13,0,0,1,1.14-1.07c.69,0,.91.61,1.18,1.26a5.43,5.43,0,0,0,5.43,3.3c3.73,0,5.36-1.9,5.36-3.72,0-2.47-2.62-3.12-3.87-3.46-4-1.1-5.55-1.33-7-2.39a4.43,4.43,0,0,1-1.83-3.61c0-1.22.76-5.51,6.92-5.51,6.61,0,7.18,4.48,7.18,4.83a1,1,0,0,1-1.06,1c-.5,0-.77-.15-1.11-1.17a3.76,3.76,0,0,0-3-2.47A6.18,6.18,0,0,0,358,132c-2.51,0-4.75,1.06-4.75,3.15,0,2.28,2.43,3,5.74,3.77,3.08.68,7.1,1.63,7.1,5.81C366,146.32,365.17,150.65,358.14,150.65Z"/><path class="cls-40" d="M386.07,148.72c0,.87,0,1.93-1.18,1.93s-1.18-1.06-1.18-1.93V138a7.24,7.24,0,0,0-.75-4,4.53,4.53,0,0,0-3.8-1.83,6.13,6.13,0,0,0-5.44,3.46c-.57,1.22-.68,2.74-.68,6.08v7.07c0,.87,0,1.93-1.18,1.93s-1.18-1-1.18-1.93V124.48c0-.84,0-1.94,1.18-1.94s1.18,1.06,1.18,1.94v8.92a7.18,7.18,0,0,1,6.3-3.34,6.72,6.72,0,0,1,5.25,2.09c1.44,1.63,1.48,4,1.48,5.21Z"/><path class="cls-40" d="M307.2,410.54c.49-1.29.65-1.67,1.75-1.67,2.2,0,2.54,0,2.54,2.17V434.4c0,1,0,2.13-1.25,2.13s-1.33-1.18-1.29-2.17l.42-22.72-8.86,23.22c-.42,1.1-.64,1.67-1.52,1.67s-1.14-.57-1.55-1.71l-8.71-23.18.38,22.8c0,.91,0,2.09-1.25,2.09s-1.25-1.14-1.25-2.09V411c0-1.33,0-2.17,1.63-2.17,1.22,0,1.37,0,1.6.11.49.27.57.38,1,1.56L299,432.43Z"/><path class="cls-40" d="M330.15,419.66c-.83-1.6-2.81-1.9-4.44-1.9-1.22,0-4.87.23-5.89,2.81-.57,1.41-.69,1.75-1.45,1.75a1.11,1.11,0,0,1-1.1-1.14c0-.91,1.22-5.24,8.21-5.24,7.52,0,7.52,4.06,7.52,8.2,0,1-.07,5.36-.07,6.27a11.58,11.58,0,0,0,.3,3,12.18,12.18,0,0,1,.53,2.09,1.08,1.08,0,0,1-1.1,1c-1.25,0-1.48-1.6-1.71-3.46a10.9,10.9,0,0,1-8.13,3.42c-3.91,0-6.19-2.51-6.19-5.55,0-4.75,4.56-5.47,7.41-5.92,3.79-.61,5.66-.88,6.64-1.37C330.68,421.6,330.65,420.61,330.15,419.66Zm-5.47,7.26c-2.09.42-5.62.72-5.62,3.87,0,1.18.76,3.61,4.22,3.61,2.35,0,5.69-1.18,6.76-3.61.53-1.25.68-2.62.64-5.28C329.47,426.12,327.08,426.42,324.68,426.92Z"/><path class="cls-40" d="M341.36,416.39h2.13c.53,0,1.48,0,1.48.84s-1,.87-1.48.87h-2.13v13c0,2.35.27,3.42,2.21,3.42.26,0,1.37-.15,1.59-.15a.86.86,0,0,1,.88.91c0,.87-1.07,1.14-2.7,1.14-4.29,0-4.29-2.78-4.29-5.06V418.1h-1.18c-.53,0-1.48,0-1.48-.83s1-.88,1.48-.88h1.18V412.9c0-1.48,0-2.47,1.14-2.47s1.17.95,1.17,2.35Z"/><path class="cls-40" d="M364.43,434.59c0,.88,0,1.94-1.18,1.94s-1.18-1.06-1.18-1.94V423.84a7.18,7.18,0,0,0-.76-4,4.53,4.53,0,0,0-3.8-1.82,6.12,6.12,0,0,0-5.43,3.46c-.57,1.21-.68,2.73-.68,6.08v7.06c0,.88,0,1.94-1.18,1.94s-1.18-1-1.18-1.94V410.35c0-.83,0-1.94,1.18-1.94s1.18,1.07,1.18,1.94v8.93a7.18,7.18,0,0,1,6.3-3.34A6.69,6.69,0,0,1,363,418c1.44,1.63,1.48,4,1.48,5.2Z"/><path class="cls-40" d="M376.47,436.53c-3.11,0-4.59-.84-5.54-1.67a5.68,5.68,0,0,1-2.05-3.72,1.12,1.12,0,0,1,1.14-1.07c.68,0,.91.61,1.17,1.25a5.46,5.46,0,0,0,5.44,3.31c3.72,0,5.35-1.9,5.35-3.72,0-2.47-2.62-3.12-3.87-3.46-4-1.1-5.55-1.33-7-2.39a4.44,4.44,0,0,1-1.82-3.61c0-1.22.76-5.51,6.91-5.51,6.61,0,7.18,4.48,7.18,4.82a1,1,0,0,1-1.06,1c-.5,0-.76-.15-1.1-1.18a3.79,3.79,0,0,0-3-2.47,6.45,6.45,0,0,0-1.94-.26c-2.5,0-4.74,1.06-4.74,3.15,0,2.28,2.43,3,5.73,3.76,3.08.69,7.11,1.64,7.11,5.81C384.38,432.2,383.5,436.53,376.47,436.53Z"/></g></g></g></svg>