<svg xmlns="http://www.w3.org/2000/svg" width="13.56" height="12.875" viewBox="0 0 13.56 12.875">
  <metadata><?xpacket begin="﻿" id="W5M0MpCehiHzreSzNTczkc9d"?>
<x:xmpmeta xmlns:x="adobe:ns:meta/" x:xmptk="Adobe XMP Core 5.6-c142 79.160924, 2017/07/13-01:06:39        ">
   <rdf:RDF xmlns:rdf="http://www.w3.org/1999/02/22-rdf-syntax-ns#">
      <rdf:Description rdf:about=""/>
   </rdf:RDF>
</x:xmpmeta>
                                                                                                    
                                                                                                    
                                                                                                    
                                                                                                    
                                                                                                    
                                                                                                    
                                                                                                    
                                                                                                    
                                                                                                    
                                                                                                    
                                                                                                    
                                                                                                    
                                                                                                    
                                                                                                    
                                                                                                    
                                                                                                    
                                                                                                    
                                                                                                    
                                                                                                    
                                                                                                    
                           
<?xpacket end="w"?></metadata>
<defs>
    <style>
      .cls-1 {
        fill: #d99a04;
        fill-rule: evenodd;
      }
    </style>
  </defs>
  <path id="_" data-name="" class="cls-1" d="M1071.03,488.521a0.753,0.753,0,0,1,.52.3,0.812,0.812,0,0,1,.18.553,0.782,0.782,0,0,1-.24.528l-2.69,2.592,0.64,3.674a0.812,0.812,0,0,1-.12.566,0.727,0.727,0,0,1-.47.339,0.783,0.783,0,0,1-.58-0.075l-3.32-1.711L1061.63,497a0.783,0.783,0,0,1-.58.075,0.752,0.752,0,0,1-.47-0.339,0.812,0.812,0,0,1-.12-0.566l0.64-3.674-2.69-2.592a0.782,0.782,0,0,1-.24-0.528,0.812,0.812,0,0,1,.18-0.553,0.775,0.775,0,0,1,.52-0.3l3.7-.529,1.65-3.321a0.747,0.747,0,0,1,.44-0.4,0.862,0.862,0,0,1,.58,0,0.794,0.794,0,0,1,.45.4l1.64,3.321Zm-3.52,3.547,2.53-2.465-3.52-.5-1.57-3.17-1.57,3.17-3.52.5,2.53,2.465-0.58,3.5,3.14-1.661,3.14,1.661Z" transform="translate(-1058.16 -484.219)"/>
</svg>
