<svg xmlns="http://www.w3.org/2000/svg" width="13.562" height="12.875" viewBox="0 0 13.562 12.875">
  <metadata><?xpacket begin="﻿" id="W5M0MpCehiHzreSzNTczkc9d"?>
<x:xmpmeta xmlns:x="adobe:ns:meta/" x:xmptk="Adobe XMP Core 5.6-c142 79.160924, 2017/07/13-01:06:39        ">
   <rdf:RDF xmlns:rdf="http://www.w3.org/1999/02/22-rdf-syntax-ns#">
      <rdf:Description rdf:about=""/>
   </rdf:RDF>
</x:xmpmeta>
                                                                                                    
                                                                                                    
                                                                                                    
                                                                                                    
                                                                                                    
                                                                                                    
                                                                                                    
                                                                                                    
                                                                                                    
                                                                                                    
                                                                                                    
                                                                                                    
                                                                                                    
                                                                                                    
                                                                                                    
                                                                                                    
                                                                                                    
                                                                                                    
                                                                                                    
                                                                                                    
                           
<?xpacket end="w"?></metadata>
<defs>
    <style>
      .cls-1 {
        fill: #fab206;
        fill-rule: evenodd;
      }
    </style>
  </defs>
  <path id="_" data-name="" class="cls-1" d="M915.722,484.671a0.774,0.774,0,0,1,.444-0.4,0.871,0.871,0,0,1,.583,0,0.772,0.772,0,0,1,.443.4l1.647,3.321,3.7,0.529a0.768,0.768,0,0,1,.52.3,0.829,0.829,0,0,1,.177.553,0.762,0.762,0,0,1-.241.528l-2.686,2.592,0.634,3.674a0.788,0.788,0,0,1-.114.566,0.742,0.742,0,0,1-.469.339,0.787,0.787,0,0,1-.583-0.075l-3.32-1.711L913.137,497a0.784,0.784,0,0,1-.582.075,0.742,0.742,0,0,1-.469-0.339,0.788,0.788,0,0,1-.114-0.566l0.633-3.674-2.686-2.592a0.77,0.77,0,0,1-.241-0.528,0.836,0.836,0,0,1,.178-0.553,0.764,0.764,0,0,1,.519-0.3l3.7-.529Z" transform="translate(-909.688 -484.219)"/>
</svg>
