<svg xmlns="http://www.w3.org/2000/svg" xmlns:xlink="http://www.w3.org/1999/xlink" viewBox="0 0 439.03 411.99"><defs><style>.cls-1,.cls-31,.cls-35,.cls-9{fill:none;}.cls-2{fill:#ffcebb;}.cls-3{fill:#fff;}.cls-4{fill:#1e1e1e;}.cls-5{fill:#e26640;}.cls-6{fill:#53c1d4;}.cls-7{fill:#008caf;}.cls-8{fill:#004b61;}.cls-9{stroke:#003846;stroke-miterlimit:10;}.cls-10{fill:#d8d8d8;}.cls-11{fill:#ffa27c;}.cls-12{fill:#ededed;}.cls-13{fill:#f7bdaa;}.cls-14{fill:#466da5;}.cls-15{fill:#232020;}.cls-16{fill:#c93131;}.cls-17{opacity:0.5;}.cls-18{fill:#ffa49f;}.cls-19{fill:#a51613;}.cls-20{fill:#fffcf3;}.cls-21{fill:#bababa;}.cls-22{fill:#ffd8b8;}.cls-23{clip-path:url(#clip-path);}.cls-24{fill:#381b0b;}.cls-25{fill:#911717;}.cls-26{fill:#f7c74d;}.cls-27{fill:#ef9797;}.cls-28{fill:#84817f;}.cls-29{fill:#9e9d9d;}.cls-30{fill:#824082;}.cls-31{stroke:#fff;stroke-width:0.5px;}.cls-31,.cls-35{stroke-linecap:round;stroke-linejoin:round;}.cls-32{clip-path:url(#clip-path-2);}.cls-33{fill:#f4f4f4;}.cls-34{fill:#d8a636;}.cls-35{stroke:#bababa;stroke-width:0.75px;}.cls-36{fill:#003846;}.cls-37{fill:#ffcd00;}.cls-38{fill:#3a1e0b;}.cls-39{fill:#6a0202;}.cls-40{fill:#924b91;}.cls-41{clip-path:url(#clip-path-3);}.cls-42{clip-path:url(#clip-path-4);}</style><clipPath id="clip-path"><path class="cls-1" d="M141.7,84.52c0,.67,7.37-22.73,12.7-33.4,7.34-14.66,12.1-29.31,18.1-44,10,29.34,29,73.4,29.13,78.07,1.39,44.64-1.26,98.65,1.4,143.31,2,39.34-1.33,79.34-2.66,118.67-.67,20-12,22.67-30.67,22.67-19.33,0-30-5.34-30-24.67-.67-36-1.33-70.67,1.33-106.67C143.7,196.52,141.7,84.52,141.7,84.52Z"/></clipPath><clipPath id="clip-path-2"><path class="cls-1" d="M42.87,364a43,43,0,0,1,.86,9.67c-.06,1.77-.12,6.13-2.42,6.54l-1.86.31c-1.7.28-3.4.56-5.09.88a51.09,51.09,0,0,0-5.07,1.18c-.92.28-2.31.6-2.92,1.42-10.69,10.61,26,7,30.5,7,.5-9,0-17.5,2.5-26.5C53.87,365,48.37,365.52,42.87,364Z"/></clipPath><clipPath id="clip-path-3"><path class="cls-1" d="M71.87,171.52c9.5,8,25.5,9.5,36.5,5.5,3.5,19-39,19.5-36.5-5.5"/></clipPath><clipPath id="clip-path-4"><path class="cls-1" d="M53.37,344.52c-5.46,0-10.86-.91-16.3-1.19-1.72-.09-3.44-.07-5.16-.13-1.27,0-2.69-.34-3.8.5s-1.26,2.49-1.76,3.61a40.92,40.92,0,0,0-1.8,4.07c-1.87,5.79-3.81,11.28-4.58,17.39-.57,4.57-1.62,12,.52,16.33,6,13,9.88-12.08,10.88-16.58,3-10,11.5-9.5,21-7C52.37,355.52,52.87,350,53.37,344.52Z"/></clipPath></defs><title>Asset 1</title><g id="Layer_2" data-name="Layer 2"><g id="OBJECTS"><path class="cls-2" d="M350.37,291.21c0,8.5-1.42,25.85-1.92,33.85-1,17.5,0,43.66-1.58,57.12-7.5-1.5-23.35-9.24-24.73-4.51-1.5,5.12,21.46,11.28,32.46,13.78l.77-1.43c-1.5-28.5,6.12-70.81,6.12-98.81Z"/><path class="cls-3" d="M356.5,371c-.07.8-.13,1.6-.15,2.39-.08,3.26-.3,7.33-2.83,9.74-1.41,1.35-3.15,1.34-4.91.72-1-.34-2.49-.76-3-1.65s.08-2.42.05-3.43a57.22,57.22,0,0,1,.24-7.05c.26-3,.65-6,.7-9.05,0-1.5-1.5-5.19,1.1-4.44a29.89,29.89,0,0,0,2.89,1.11c1.84.36,4.8.65,6.46-.32a2.56,2.56,0,0,1,.77,2.47C357.5,364.7,356.82,367.88,356.5,371Z"/><path class="cls-4" d="M356.21,381.71a5.65,5.65,0,0,0-.85-.35c-3.23-1.09-7.83,1.82-10.27-2.5-3.9,1.43-10.47-2.71-14.44-3.51-2-.39-5.7-1.52-8-.87-4.41,1.21-.64,5.37,1.29,7.32,2.77,2.81,7.15,3.83,10.89,5,6.94,2.12,14.09,3.34,21.09,5.25.23.07.9-6.15.93-6.73C356.92,383,357.19,382.27,356.21,381.71Z"/><path class="cls-5" d="M295,166.19c.68,10.44.58,7,.66,9.85.34,11.65,1.44,23.43,2.74,35,1.81,16.08,3.08,32.43,8.56,47.75,2.44,6.81,4.81,13.21,8.72,19.3,1.66,2.59,3.49,7,6.27,8.37a18.6,18.6,0,0,1,.8-5.5c1.05.83,14.8,12,11.62,4.56,4.72,1.75,7.14,8.06,13,7.93a8,8,0,0,0-.87-3.68c4.43,3.6,8.92,7.6,14.91,8.08,3.48.28,6.77-.67,4.74-4.84,7.87,4,13.43,6.29,22.54,6,7.17-.24,10.92-3.87,13.55-10.41,3.25,4.57,5.62-2.49,5.12-5.23,1.75,9.19,12.06,0,9.77-6.59,1.54,1.29,3.74,4.13,5.94,2.69,1.92-1.26,1.27-4.56.32-6.33,1.58,1.37,4.33,5.21,6.06,2.49,1.12-1.77-1-5-1.86-6.3,3.93,1.43,7.45,3.21,11.45,1-4.17-7.79-8.2-14.38-11.61-22.66-6.93-16.84-13.6-34.85-18.35-52.52a235.12,235.12,0,0,1-6.9-39c-1.33-13.93-3.28-29.35-11.9-40.9-4.82-6.44-9-11.48-16.78-14.56-7.27-2.88-15.2-3.36-22.94-3.17a63.12,63.12,0,0,0-26.17,6.72c-9.58,5-21.43,9-28,18-9,12.33-15.34,32.33-11.67,47.67,2.67-5,4.67-10.67,7.33-16v1a38.33,38.33,0,0,0,.34,16.33c.66-1.67,1.33-3.67,2.66-5"/><path class="cls-6" d="M400,198.86c8,5.8,12,15.17,13.91,24.58,2.9,14.33,5.1,32.5-5.91,44.08-6.64,7.2-15.95,13.7-26,14.56-9.7.83-18.9-6.47-24.63-13.82a57.28,57.28,0,0,1-10.07-18.74c-3.17-10.78-2.26-22.67,1.63-33.13,3.63-9.8,9.44-20.71,20.25-23.45C379.05,190.46,391.78,192.86,400,198.86Z"/><path class="cls-7" d="M362.87,278.56a16.69,16.69,0,0,0,5.27,1.55,31.07,31.07,0,0,0,14.28-1.85,29.62,29.62,0,0,0,16.95-15.74c9.66-21.33,2.66-39.66-10.67-57-9.33-11.66-23.67-14.33-36.33-5-9.67,7-11.34,20.67-11.34,31.67,0,11.24,2,23.27,8.42,32.74,2.34,3.46,3.71,6.51,7,9.2A31.65,31.65,0,0,0,362.87,278.56Z"/><path class="cls-4" d="M425.07,346.1a11.41,11.41,0,0,1-.4-1.21c-1.13-4-.85-8.55-.47-12.64a27.85,27.85,0,0,0-.62-10.06c-.41-1.73-1.36-4.72-.49-6.44,1-1.89,4.26-3.24,6.11-4,3-1.18,4-.52,4.72,2.53a53.19,53.19,0,0,1,.15,23.55c-.5,2.45-2.45,13.31-6.93,10.85A4.74,4.74,0,0,1,425.07,346.1Z"/><path class="cls-3" d="M415,339.78a2.59,2.59,0,0,1-1.27.17c-3.74-.54-3.56-5.59-3.27-8.44.46-4.61,4.59-7.12,7.82-9.81,2.07-1.73,5.45-7.08,8.4-4.64a5.65,5.65,0,0,1,1.63,4.43c-.13,3.44-2.78,5.89-4.78,8.41C421.9,332,418.2,338.56,415,339.78Z"/><path class="cls-2" d="M397.74,356.54c2.08-.17,4.24-2.41,5.6-3.67,4.05-3.73,7.22-8.19,10.87-12.29,2.36-2.65,4.53-6.93,1.76-10.34-2.9-3.58-7.38.84-9.61,2.81s-5.37,3.84-6.6,6.45c-2.32-7-4.7-14.22-7.06-21.31-1-3-2-10.33-4.33-11.33-4.47-1.92-9.2,2.61-9.8,6.88-.72,5.16,3.42,11.72,5,16.56,1.07,3.27,2.49,6.38,3.83,9.55s2.58,6.09,4,9c1.22,2.48,2.4,7.44,5.88,7.66A2,2,0,0,0,397.74,356.54Z"/><path class="cls-8" d="M336.24,286c-.9,4.72-2,9.43-2.92,14.37-.45,2.47-3.59,10.33-2.24,12.58.67,1.35,6.73,3.48,8.53,4.38,3.59,1.8,6.7,3.51,10.74,4.4,10.78,2.47,22.94.65,33.5-2.05,5.61-1.34,11.68-2.91,16.39-5.83,2.92-1.8,4.27-4.5,6.51-6.74-1.57-6.29-5.61-11.68-7.63-17.74A118.55,118.55,0,0,0,394,275.23c-1.34-2.92-2.41-7.41-4.71-14.37,0,0-16.84,14.6-49.18,6.74C340.06,267.6,336.92,282.64,336.24,286Z"/><path class="cls-9" d="M376.89,266.15c2.18,13.08,5.61,25.37,9,37.5,1.12,4,2.69,10.79,3.82,13.71"/><path class="cls-9" d="M385.37,262.4c4.91,12.61,7.68,22.39,11.28,33.17,1.12,3.14,4.72,13.45,5.76,15.56"/><path class="cls-9" d="M364.54,268.62c2.69,17.08,5.15,36,6.53,52.54"/><path class="cls-9" d="M351.51,268.84c-.59,11.79.61,23.33-1.4,34.83-.92,5.24-1.27,12.6-2.16,16.41"/><path class="cls-9" d="M335.57,314.43a256.09,256.09,0,0,0,6.29-27.4c.89-6.06.67-13.47,3.14-19.31"/><path class="cls-10" d="M319.62,222.91a17.4,17.4,0,0,0-1.89-9.19,10.57,10.57,0,0,0-3.07-3.48c-.8-.58-1.16-.9-2-.34a3.11,3.11,0,0,0-1.15,1.5c-1.27,3.32-.76,7.63-.36,11.06.31,2.62.55,7.26,2.66,9.21C318.28,235.71,319.62,226.06,319.62,222.91Z"/><path class="cls-2" d="M305.49,220.16a51.06,51.06,0,0,1-16-7.14A45.91,45.91,0,0,1,277,200.5c-7.23-11.35-11.82-24.14-15.59-37-1.67-5.66-2.67-11.66-4.67-16.66a86.15,86.15,0,0,0-4.53-8.68c-.77-1.42-1.52-2.85-2.15-4.33a24.88,24.88,0,0,1-1.69-4.47,4,4,0,0,1-.07-2.33c.48-1,1.72.31,2.16.82a11.89,11.89,0,0,1,1.65,3.11c.38.88.45,2,1.15,2.72.21.22.79.8,1.11.66s.2-.66.17-.94a22.08,22.08,0,0,0-1-4.89,12.29,12.29,0,0,1-1-4.86,4.52,4.52,0,0,1,.7-2.14c.29-.45,1.32-1.38,1.91-.91-.79-.63.38-1.88.83-2.34s.58-.62,1.13-.51a3.66,3.66,0,0,1,1.67,1.09c2.33-7.67,7.33,11,7.67,14-.67-4,4.62-8.11,4.3-1.68-.19,3.68-.3,6.68-1.64,9.68-2,5.66-3.66,6.33-2.33,12,1.33,5,3,9.66,4.67,14.33A83.77,83.77,0,0,0,282,188a61,61,0,0,0,13,13.61,70.08,70.08,0,0,0,13.38,7.12,62,62,0,0,0,12.52,3.54c3.56.73,16.76,1.44,15.78,7.25-.39,2.26-3,2.93-5,3.59-8.29,2.74-17.95-.7-26-2.92Z"/><path class="cls-11" d="M260,144.19l0-.57,0-.58a6.61,6.61,0,0,1,.3-1.14,7,7,0,0,1,.56-1,6.78,6.78,0,0,1,.78-.92,7.54,7.54,0,0,1,.94-.75,6.5,6.5,0,0,1,1.09-.54,6.71,6.71,0,0,1,1.19-.31l.62,0,.62,0-.54.48c.05-1.22.14-2.45.26-3.67s.28-2.41.5-3.63c.14,1.22.21,2.45.23,3.67s0,2.43,0,3.63l0,.51-.53,0-.5,0-.5,0a5.48,5.48,0,0,0-1,.23,6.69,6.69,0,0,0-.95.42,8.22,8.22,0,0,0-.87.58,7.46,7.46,0,0,0-.77.72,6.85,6.85,0,0,0-.64.86,6.77,6.77,0,0,0-.49,1A8.1,8.1,0,0,0,260,144.19Z"/><path class="cls-11" d="M255.09,120.33s.34.69.73,1.75.84,2.51,1.21,4a38.7,38.7,0,0,1,.76,4.08A17.81,17.81,0,0,1,258,132s-.33-.69-.71-1.76a39.37,39.37,0,0,1-1.18-4,39.85,39.85,0,0,1-.79-4.07A18.43,18.43,0,0,1,255.09,120.33Z"/><path class="cls-11" d="M258.81,118.52s.28.74.57,1.86c.08.27.16.58.23.9l.29,1c.2.68.38,1.41.57,2.14.39,1.48.71,3,.89,4.13a18.8,18.8,0,0,1,.23,1.92,17.44,17.44,0,0,1-.78-1.78,37.41,37.41,0,0,1-1.31-4c-.17-.76-.34-1.52-.46-2.24a10.4,10.4,0,0,1-.22-2A18.57,18.57,0,0,1,258.81,118.52Z"/><path class="cls-11" d="M255.09,134.62s.08-.14.23-.35a5.71,5.71,0,0,1,.69-.86,8.39,8.39,0,0,1,1.19-1,12.17,12.17,0,0,1,1.51-1l.83-.4c.26-.14.55-.22.81-.33a11.4,11.4,0,0,1,1.49-.44,9.23,9.23,0,0,1,1.51-.24,14.83,14.83,0,0,1-1.3.77c-.79.43-1.83,1-2.87,1.52-.51.28-1,.54-1.5.82-.23.15-.48.26-.69.39s-.41.25-.6.36c-.39.2-.7.44-.93.57Z"/><path class="cls-12" d="M356.68,204.72c4.49-.67,15.18-6.54,18.77-2.95,2,2.25,4.07,11.16,4.78,14,2.35,9.41,3.41,15.61,5.43,22.8,2.25,7.41,4.92,15.11,5.82,22.74.45,3.59-2,5.84-4.71,8.31-5.84,5.61-16.17,10.1-24.26,10.55a59.84,59.84,0,0,1-20.88-3.59c-4.49-1.57-4.26-2-4.26-7,0-9.66.89-19.31.67-29,0-3.94.26-7.18-.75-7.49a37.12,37.12,0,0,0-10-.82c-3.62.14-8.73.75-12.09.3,1.75-.4,2.31-8.6,1.9-10.82-1.11-6-1.9-10.8-3.73-12.16l4.35-.67S347.69,205.85,356.68,204.72Z"/><path class="cls-6" d="M386.09,215.28c-4.26.9-11.45,3.14-14.59,6.51-3.82,4-6.19,15.8-4.39,21,4.71,13,22.8,5.75,31.11-1,5.61,6.51-1.35,9-7,11.45-5.17,2.24-9.88,4-15.72,3.59-6.29-.45-12.35-2.47-15.05-8.53a26.69,26.69,0,0,1-.67-18.64c2.92-9.66,13.49-17.74,22.7-20.21A58,58,0,0,1,386.09,215.28Z"/><path class="cls-6" d="M338.08,244.59a16.89,16.89,0,0,1-5.88-4.94c-1.85-2.71-2.83-6.64-3.5-9.8-1-4.69,0-8.95,1.2-13.53.66-2.44,1.64-5.37,3.34-7.27a17.47,17.47,0,0,1,2.25-2.3c1.49-1.18,2.66-.15,3.37,1.46,1.08,2.45-.67,4.89-1.54,7.14a31.11,31.11,0,0,0-1.46,13.47,15.78,15.78,0,0,0,1.22,4.87,6.43,6.43,0,0,0,.94,1.49Z"/><path class="cls-3" d="M356,200.23c-3.87,1.38-8,2.4-11.93,3.49-2,.55-4,1.11-6,1.49-.71.14-1.44,0-2.12.19-.94.24-1.68,1-2.66,1.13.1.74,4.84,9.87,6.12,11.27,5.1-3.05,5.1-3.05,9-5.16,1.59-.85,7.17,5.52,11.13,8.49,5.39-5.62,16.49-16.87,23-21.36-1.12-1.8-9.29-4-11.53-4.48-.45,0-4.49,1.8-5.39,2C362.51,198.21,359.15,199.11,356,200.23Z"/><path class="cls-13" d="M351.31,198.11A19.22,19.22,0,0,0,345.9,202c-1.59,1.53-2.91,3.95-2,6.17,1,2.55,4.43,3,6.93,2.89,4.33-.19,10.17-3.38,12.69-6.76,2.65-3.55,3-7.31-2.34-8.12C357.66,195.68,354.54,196.84,351.31,198.11Z"/><path class="cls-14" d="M325.68,103.55c3.85-3.44,24.48-4.37,30.55-3.24a37.15,37.15,0,0,1,22,13.47c9.54,12.4,13.25,41.77,10.11,46-.57-3.25-5.49-24.66-13.5-33-23.22-24.23-57.15-19.32-57.15-19.32S324.52,104.59,325.68,103.55Z"/><path class="cls-2" d="M298.52,159.59c4.71,13.47,1.34,31,10.33,42.66,8.3,10.56,24.47,10.78,36.37,8.76,10.78-1.8,23.13-9.65,31-16.84,3.59-3.59,6.74-7.41,10.11-11,1.34-1.35,1.34-1.57,2.92-2.25,1.79-.9,3.36-.9,5.38-2.47,4.72-3.59,9.21-10.33,7-16.39-3.82-9.21-13.48-1.12-16.17,4.49-.09-3.24.28-4.91-3.38-10.11-1.07-1.51-18-19.31-21.77-23.8-3.15-3.59-5.17-8.53-8.31-11.9-1.8,4-3.59,8.76-6.51,12.13-4,4.49-4.72,1.34-4.49-2.92-.45,2-1.59,5.89-3.37,4.71-1.12-3.14.9-7.63,2-10.78-2.92,7-12.42,14-19.93,20.31C311.83,150.81,298.52,159.59,298.52,159.59Z"/><path class="cls-15" d="M324,179.59c.78-1.91-.19-4.07-2.44-4-1.88.09-2.42,2.41-1.79,3.88.72,1.69,3.48,1.83,4.21.13Z"/><path class="cls-5" d="M310,155.77a5.84,5.84,0,0,1,4.71-4"/><path class="cls-5" d="M348.37,142.07c2-.89,4.26.68,5.84,2.25"/><path class="cls-15" d="M358.25,167.67c-.86-1.84-3.75-2.73-4.71-.45s.7,5.28,3.25,4.23A2.68,2.68,0,0,0,358.25,167.67Z"/><path class="cls-11" d="M329.73,177.78a26.35,26.35,0,0,1-2,2.53,12,12,0,0,0-1,1.23,5.27,5.27,0,0,0-.38.63c-.13.21-.11.42-.21.61v0l0,.51.11.5.2.47.28.45.35.4.4.36a5.62,5.62,0,0,0,.93.59l.51.23.54.17a5.84,5.84,0,0,0,1.11.18h.58l.57-.08.56-.17.54-.26c-.15.13-.29.28-.46.41l-.54.31-.59.23q-.31.08-.63.12a5.06,5.06,0,0,1-1.29,0l-.63-.12-.62-.21a6.74,6.74,0,0,1-1.15-.62,5,5,0,0,1-1-.93c-.13-.18-.25-.38-.38-.57s-.18-.43-.26-.64l-.06-.68.07-.7v0h-.08a3.54,3.54,0,0,1,.31-.9,4.51,4.51,0,0,1,.48-.72,10.91,10.91,0,0,1,1.15-1.2c.41-.35.81-.71,1.25-1S329.31,178.12,329.73,177.78Z"/><path class="cls-16" d="M332,194.62c3.59,3.82,9.65,5.16,13.92,1.35,3.81-3.15,7.18-9.21,5.39-14.38-4.46,5-11.6,10.59-18.67,12.59Z"/><g class="cls-17"><path class="cls-18" d="M370.37,170.59c-.13-2.06-2.36-2.24-3.92-1.66s-4.54,3.58-1.93,4.75C366.44,174.54,370.54,173.06,370.37,170.59Z"/></g><g class="cls-17"><path class="cls-18" d="M317.38,186.53c-1-1.84-4.38-1-5.64.07a2.45,2.45,0,0,0,.15,3.76C314,191.88,319,189.35,317.38,186.53Z"/></g><path class="cls-19" d="M260.87,187.52c25,8,49.5,18,74.5,26.5,12,4,28.5,6.5,30,20,2,16.5,1,34.5,1,51.5,0,28,1.5,95,1.5,100.5,0,9.5,0,6.5-8,6.5-5,0-12.14.84-17.14,2.84-2,.5-6.1,2.37-7.1,4.37.48,6,1,13.1-3.65,12.18C277.68,401.25,215.37,377,215.37,371c0-20.06-7.11-174.9-4.57-180.4,2.27-4.93,8.95-8.2,13.94-9.34C236.86,178.52,249.53,183.89,260.87,187.52Z"/><path class="cls-20" d="M216.37,200.52c31.5,16,67.5,21.45,100,34.45,4.52,1.8,10.84,4,12,5.05,6.4,5.67,7.06,165.2,7.56,165.7,5.3-4.45,19.56-12.16,25.56-13.16.59-9.82-3.63-135.57-3.63-150.57,0-6.5,1.62-9.89-3.38-14.39-6.5-5-110.11-44.08-122.11-42.08-5,1-26,9-15,15.5"/><path class="cls-21" d="M222.37,191.52l1.92.53c1.21.36,3,.83,5,1.47s4.51,1.35,7.09,2.18l8.1,2.6,8.06,2.72c2.57.87,4.95,1.75,7,2.47s3.74,1.38,4.93,1.82l1.86.71-1.92-.53c-1.22-.36-3-.83-5.05-1.47s-4.51-1.34-7.09-2.17l-8.1-2.6-8.06-2.73c-2.57-.87-4.94-1.75-7-2.47s-3.74-1.38-4.93-1.81Z"/><path class="cls-21" d="M227.37,188.52l2.73.91c1.73.6,4.21,1.42,7.16,2.47s6.42,2.24,10.1,3.58l11.54,4.21,11.59,4.05c3.7,1.29,7.13,2.57,10.08,3.62s5.39,2,7.11,2.64l2.69,1-2.75-.84c-1.75-.56-4.25-1.31-7.23-2.29s-6.48-2.07-10.19-3.33l-11.65-3.93-11.49-4.34c-3.67-1.38-7.06-2.74-10-3.87s-5.34-2.13-7-2.81Z"/><path class="cls-21" d="M328.37,240l.46-1.29c.08-.2.16-.43.26-.67s.26-.49.41-.75l.48-.87a6.9,6.9,0,0,1,.64-.87c.24-.3.48-.62.75-.92l.93-.88a6.21,6.21,0,0,1,1-.85,10.8,10.8,0,0,1,1.16-.8,18.34,18.34,0,0,1,2.63-1.29,10.46,10.46,0,0,1,1.42-.51c.48-.15,1-.32,1.45-.44,1-.22,2-.45,2.95-.58s1.95-.23,2.88-.34,1.84-.12,2.7-.12,1.67,0,2.42,0c1.49,0,2.73.11,3.6.14l1.37.1-1.37.1-3.59.23c-.74,0-1.54.1-2.39.17s-1.73.19-2.65.27-1.87.23-2.81.41-1.91.37-2.86.6c-.48.11-.93.27-1.4.4a9.93,9.93,0,0,0-1.36.48c-.44.18-.9.32-1.32.53l-1.23.62c-.41.2-.76.48-1.14.7a7.2,7.2,0,0,0-1,.74l-.93.78c-.28.27-.53.56-.78.83a11.44,11.44,0,0,0-1.23,1.56l-.48.68-.33.64Z"/><path class="cls-21" d="M342.87,229.52s0,.53.09,1.46.14,2.26.19,3.85.13,3.46.16,5.45.05,4.12.06,6.24,0,4.25-.06,6.24-.12,3.85-.16,5.45-.15,2.92-.19,3.85-.09,1.46-.09,1.46,0-.53-.1-1.46-.14-2.26-.18-3.85-.13-3.45-.16-5.45-.05-4.11-.06-6.24,0-4.25.06-6.24.11-3.85.16-5.45.14-2.92.18-3.85S342.87,229.52,342.87,229.52Z"/><path class="cls-21" d="M340.29,230s0,1.08,0,3,0,4.59,0,7.82-.1,7,0,11.06.06,8.35.1,12.66.07,8.63.1,12.67,0,7.82,0,11.06-.09,5.94-.11,7.82-.06,3-.06,3-.05-1.08-.13-3-.19-4.59-.26-7.82-.19-7-.3-11.06-.21-8.35-.23-12.67,0-8.64,0-12.69c0-2,.06-4,.14-5.83s.14-3.6.21-5.22c.12-3.24.28-5.93.37-7.82S340.29,230,340.29,230Z"/><path class="cls-21" d="M343.75,400.46s-.09-1.43-.25-3.93-.36-6.06-.61-10.34c-.12-2.15-.24-4.47-.37-6.92s-.27-5-.37-7.72c-.2-5.36-.47-11.07-.65-16.79-.07-2.86-.14-5.71-.22-8.53s-.09-5.58-.14-8.26-.06-5.28-.08-7.73.05-4.79.07-6.93.05-4.11.11-5.86.2-3.26.28-4.51c.16-2.49.26-3.92.26-3.92s0,1.43-.07,3.93c0,1.25-.06,2.77-.09,4.51s.05,3.71.08,5.85.05,4.46.09,6.92.14,5,.21,7.72.11,5.45.21,8.26.2,5.67.29,8.52c.35,11.43.69,22.86.95,31.43.1,4.29.19,7.86.25,10.37S343.75,400.46,343.75,400.46Z"/><path class="cls-21" d="M347.7,397.57l-.18-2.13c-.1-1.35-.27-3.28-.41-5.6-.07-1.16-.17-2.42-.19-3.75s-.1-2.74-.11-4.19c-.05-2.91-.1-6-.15-9.12s0-6.2,0-9.11c0-1.45,0-2.85.05-4.19s0-2.58,0-3.75c0-2.32.05-4.26.07-5.61s.05-2.14.05-2.14l.14,2.13c.07,1.35.21,3.29.3,5.61.05,1.17.13,2.43.15,3.76s.08,2.73.09,4.19c0,2.9.07,6,.11,9.1s0,6.19,0,9.1c0,1.45,0,2.85,0,4.18s0,2.59,0,3.76c.05,2.32,0,4.26,0,5.62S347.7,397.57,347.7,397.57Z"/><path class="cls-21" d="M298.52,217.12l1.77.46c1.13.31,2.75.72,4.67,1.29s4.17,1.19,6.56,1.91,4.94,1.52,7.48,2.32,5.08,1.64,7.44,2.48,4.56,1.64,6.44,2.32,3.44,1.29,4.53,1.7l1.71.67-1.78-.49c-1.12-.33-2.73-.76-4.64-1.35s-4.15-1.25-6.53-2l-7.46-2.37c-2.54-.82-5.08-1.63-7.45-2.43s-4.58-1.57-6.47-2.22-3.45-1.25-4.55-1.64Z"/><path class="cls-21" d="M217.12,193.27l0,0,.13.06.27.12.53.25,1.06.51c.7.35,1.4.68,2.11,1.08l0,0c2.42.89,4.86,1.74,7.26,2.67s4.87,1.7,7.29,2.59,4.89,1.67,7.31,2.57c1.21.43,2.44.84,3.65,1.29s2.43.88,3.64,1.36c-1.26-.29-2.51-.63-3.77-1s-2.49-.69-3.74-1q-3.72-1.09-7.4-2.31t-7.3-2.66c-2.4-1-4.76-2-7.14-3.06h0l0,0c-.62-.43-1.3-.84-2-1.26l-1-.61-.5-.32-.25-.15-.12-.08S217,193.22,217.12,193.27Z"/><path class="cls-21" d="M339.37,226l.45.09c.3,0,.67.08,1.13.16.94.15,2.17.42,3.39.75a32.84,32.84,0,0,1,3.31,1.1c.89.35,1.47.65,1.47.65a9.84,9.84,0,0,1-1.61-.1,24.63,24.63,0,0,1-6.73-1.86c-.22-.09-.44-.2-.61-.29l-.45-.24C339.49,226.12,339.37,226,339.37,226Z"/><path class="cls-21" d="M349.62,229.27s.2.84.36,2.1.32,2.95.39,4.64,0,3.37,0,4.64-.21,2.12-.21,2.12-.2-.84-.37-2.1-.32-2.95-.38-4.64,0-3.37,0-4.64S349.62,229.27,349.62,229.27Z"/><path class="cls-2" d="M296.17,265c.32-.24.31-.74-.19-1.68s-5.21-5.08-3.08-5.9c1.45-.56,3.24,1,4.26,2A10.12,10.12,0,0,0,301,262a23.63,23.63,0,0,1,5.74,3c1.77,1.35,3.56,4.36,6,4.5,2,.12,4.95-.9,7-1.28,4.81-.87,12.25-3.05,17-4.25,15.69-4,28.7-30.09,35.7-42.09,13,3.5,2.3,22.5-3.7,28.5-8,6.5-10.8,17.17-25.63,22.17-5.52,1.86-14.2,3.09-19.93,4.07-8.94,1.53-17.37,4.51-26.61,3.94-1.84-.12-12.63-2.48-11.14-5.22-1.93-1.75-5.93-1.89-6.22-5.44a9.86,9.86,0,0,1,1.36,0c-3.58-.58,0-2.8,1.6-3.19-.83-.6-2.14-1.1-1.95-2.43s6.59,0,7.52.15a49.24,49.24,0,0,0,5.82.74C294.71,265.18,295.74,265.31,296.17,265Z"/><path class="cls-11" d="M282.18,266.65s.83.06,2,.27c.61.07,1.31.18,2.06.31l2.33.44c.79.16,1.58.32,2.32.51s1.43.31,2,.47c1.18.3,2,.58,2,.58s-.82,0-2.05,0c-.62,0-1.34-.06-2.1-.17s-1.56-.26-2.36-.41a23.53,23.53,0,0,1-2.34-.56c-.74-.2-1.43-.41-2-.62A19.94,19.94,0,0,1,282.18,266.65Z"/><path class="cls-11" d="M280.58,269.84s.9,0,2.21.23a20.72,20.72,0,0,1,2.22.4c.81.17,1.67.41,2.52.62s1.69.42,2.48.65c.39.11.77.22,1.14.29s.71.16,1,.23c1.28.31,2.14.6,2.14.6s-.89,0-2.23,0c-.33,0-.69,0-1.07-.07a6.18,6.18,0,0,1-1.19-.16c-.82-.15-1.69-.35-2.55-.54s-1.69-.48-2.47-.74l-2.15-.69C281.4,270.21,280.58,269.84,280.58,269.84Z"/><path class="cls-11" d="M285.44,275.31a16.13,16.13,0,0,1,1.67,0c.5,0,1.07.1,1.68.18s1.26.1,1.9.17,1.27.18,1.89.25,1.17.16,1.66.25a15,15,0,0,1,1.63.32,13.46,13.46,0,0,1-1.66.26c-.49,0-1.08.05-1.7,0-.31,0-.63,0-1,0l-1-.11c-.66-.09-1.33-.17-1.94-.3s-1.15-.32-1.62-.48A15.56,15.56,0,0,1,285.44,275.31Z"/><path class="cls-3" d="M380.39,242.76c3.31-5.61,5.18-12.23,3.05-18.33-.75-2.13-2.54-5.77-4.75-6.79-3.48-1.61-6.26.84-8.8,2.85a63.39,63.39,0,0,0-5.84,5.28,149.84,149.84,0,0,0-10.18,11.75,90.69,90.69,0,0,0,12,12c1.79,1.24,3.93,3.84,4.88,3.2,1.52-1.05,3.33-1.85,4.6-3.22A40.41,40.41,0,0,0,380.39,242.76Z"/><path class="cls-22" d="M141.7,84.52c0,.67,7.37-22.73,12.7-33.4,7.34-14.66,12.1-29.31,18.1-44,10,29.34,29,73.4,29.13,78.07,1.39,44.64-1.26,98.65,1.4,143.31,2,39.34-1.33,79.34-2.66,118.67-.67,20-12,22.67-30.67,22.67-19.33,0-30-5.34-30-24.67-.67-36-1.33-70.67,1.33-106.67C143.7,196.52,141.7,84.52,141.7,84.52Z"/><g class="cls-23"><path class="cls-24" d="M187.7,32.52a5.71,5.71,0,0,0,.06-1.49c-.26-3.73-1.88-6.4-3.51-9.62S180.75,15,179,11.72c-2-3.8-3.48-7.85-6.64-10.88-2.68-2.56-5.23,1.33-5.92,3.85-1.84,6.71-5.15,12.92-7.34,19.52-1.74,5.26-3.68,12.78,1.23,17C166.37,46.52,186.37,39.86,187.7,32.52Z"/><path class="cls-25" d="M138.37,80.52C149,93.86,160,107.35,172,120,180,104.69,195,91.86,207,79.86c4,23.33.67,48.66.67,72v58.66c0,39.34-.67,78.67-.67,117.34,0,18-6.66,40.66-24,48.66-13.33,6.67-40,4-48-11.33-4.66-8.67-2-22.67-2.66-32-.67-14-2-27.33-3.34-41.33a502,502,0,0,1,2-100c2.67-24,7.34-47.34,6.67-71.34,0-13.33-.67-31.33.67-41.33"/></g><path class="cls-26" d="M183.7,147.86c0,27.33,2.67,157.33,3.33,196,0,11.33,4.67,48.66-19.33,39.33-12-4.67-9.33-30.67-9.33-40.67,1.33-48,0-94.66-1.34-142-.66-29.33-.83-95,.59-98.19,2.73-6.12,7.26-11.68,12.08-17.81,0,0,8.8,9.25,13.25,19.76C184.31,107.51,183.7,137.19,183.7,147.86Z"/><path class="cls-27" d="M156.84,393.52c11.29,2,29.49,2,38.9-5.33,11.29-8.67,8.15-34,5.64-46.67-18.82,8.67-43.29,8.67-62.11,1.34C139.27,342.86,129.86,388.19,156.84,393.52Z"/><path class="cls-28" d="M203,336.52a36.36,36.36,0,0,1-3.32,2.49c-7,4.6-15.25,6.61-23.44,7.07a80.5,80.5,0,0,1-25.31-2.85q-2.94-.8-5.84-1.79c-1.75-.6-3.93-1.12-5.47-2.2-.74-.53-1.14-1.05-2.13-.64a2.93,2.93,0,0,0-1.44,1.65,8.05,8.05,0,0,0-.34,4.78c.52,2.07,1.43,3.68,3.45,4.34.94.3,1.89.55,2.84.79a105.49,105.49,0,0,0,14.24,2.26,147.42,147.42,0,0,0,17.58.73,81.47,81.47,0,0,0,16.55-1.76c3.9-.89,8.28-2.21,11.18-5.22C204.14,343.49,204.36,339.9,203,336.52Z"/><path class="cls-29" d="M136.42,332.13a7.22,7.22,0,0,0-.59,3.57c1,7,8.12,7.59,13.38,8.67A90.68,90.68,0,0,0,172,346.52c6.88,0,40-4,30-17.33.41.54-10.07,4.9-10.94,5.15a77.48,77.48,0,0,1-26.57,2.74c-4.09-.24-8.1-1-12.16-1.37-3.87-.38-8-.92-11.39-3.07-.2-.13-2.4-2.26-1.94-2.43C137.75,330.65,137,330.81,136.42,332.13Z"/><path class="cls-2" d="M61.2,273c-1.54,9.68-2.74,19.48-3.83,29.57C55.12,319.75,50.9,336.68,48.8,354c-.48,3.93-.27,7.88-1.15,11.75-.52,2.27.05,5-.67,7.13,1.54.19,3.49.72,5,.51.72-.11.56.31,1.15-.29a5.61,5.61,0,0,0,1.55-2.94c1.61-6.48,3.57-13,4.67-19.59,2-11.5,4.5-23,6.5-34.5,2.5-13.75,4.5-27.37,7.56-40.69"/><path class="cls-12" d="M58.37,353.52a23.52,23.52,0,0,1-.38,7.1,58.9,58.9,0,0,1-2.28,9.72c-.94,2.86-2.14,6.17-4.41,8.28a4.07,4.07,0,0,1-2.83,1.24c-2.52-.07-3.1-1.91-3.1-4,0-2.53.09-5.06.16-7.59.14-5.07.34-10.14.34-15.21C49.87,353,54.37,353.52,58.37,353.52Z"/><path class="cls-30" d="M42.87,364a43,43,0,0,1,.86,9.67c-.06,1.77-.12,6.13-2.42,6.54l-1.86.31c-1.7.28-3.4.56-5.09.88a51.09,51.09,0,0,0-5.07,1.18c-.92.28-2.31.6-2.92,1.42-6.18,10.51,25.58,6.6,30.5,7,.5-9,0-17.5,2.5-26.5C53.87,365,48.37,365.52,42.87,364Z"/><path class="cls-31" d="M37.87,381c1.5,1.5,4.45,2.42,6,3.89"/><path class="cls-31" d="M41.31,380.23a37.61,37.61,0,0,0,7.64,4"/><path class="cls-31" d="M42.87,378.52a46.22,46.22,0,0,0,7.72,2.5"/><path class="cls-31" d="M43.87,376.2c2.5.5,4.47.32,7,.82"/><path class="cls-31" d="M43.87,373a38.72,38.72,0,0,1,7.07.5"/><path class="cls-31" d="M50.36,365c1,6.5.51,12.51,0,19-4,.5-7,1.25-11.39,1.05"/><g class="cls-32"><path class="cls-33" d="M40.37,388.52c4,0,13-.61,16.64-.61,2.55.93,3.05,2.24,1.78,5.2-.44,1-.88,1.06-2.13,1.31a52.52,52.52,0,0,1-13.42.83c-4.18-.31-8.35.06-12.54-.68-3-.53-6.12-1.43-8.15-3.86-2.38-2.86,0-6.17,2.27-8.26a11.47,11.47,0,0,1,6-2.58c2-.29,3.79,1.4,5.39,2.53A11.17,11.17,0,0,1,39,385.07C39.15,385.32,40.63,388.52,40.37,388.52Z"/><path class="cls-31" d="M50.87,388.55c-.08-2.41,2.57-5,6.23-3.78"/><path class="cls-3" d="M53.87,373c-.59,1.57-.76,3.6.75,4.7a3.45,3.45,0,0,0,5.18-1.54c.45-1.48-.35-3.11-1.11-4.34C57.3,369.6,54.76,371.23,53.87,373Z"/></g><path class="cls-34" d="M74.67,182.47c-24,6.53-43.55,51.6-25.64,72.72,18.67,22,72,19.33,76-12.67,1.34-11.33.67-35.33-5.33-44.67-8-14-25.33-16-40-16C79.7,181.85,75.67,182.19,74.67,182.47Z"/><path class="cls-2" d="M12,159.26a20.86,20.86,0,0,1-.77,2.51c-.79,2.09-2,3.08-3.4,4.69a9.76,9.76,0,0,0-1.88,3.06A18.56,18.56,0,0,0,5,177.35a33,33,0,0,0,1.4,6.88,8,8,0,0,0,4,5.07c4.6,2.27,5.45,8.09,7.06,12.37a101.33,101.33,0,0,0,5.14,11.81,27.55,27.55,0,0,0,5.78,8.14,6.42,6.42,0,0,0,4.43,1.9c9.5-.5,23.41-8.67,33.41-11.17,9.36-2.13,38.71,0,50.59-.33,12-.5,12.58,3.08,34.58,6.42-5.74,4.52-30.44,13.25-33.94,22.25-2,5.5,1.13,29.05,3.18,33.3,2.3.16,1.18-4.22,1.18-9,1.5,3.5,4.68,10.47,6.22,9.13.72-.39-3.74-10.62-3-10.49,4.61,3.21,6.36,7.67,8.07,7.44,1.22-1.59-3.05-6.38-6.1-10.12,2.5,1.5,8.83,4.63,9.35,3.54-.27-2.71-4.17-3.35-7.09-5.95-1.55-1.37-.1-11.7-4.94-16,9.13-4,41.78-19.51,42.28-24.84-.67-5.92-19.75-8.75-29.25-11.25-11-3-29.59-9.92-40.59-11.42-12-2-17.91.42-29.41,4.42-10.5,4-20.67,10.75-34.5,14.5-5-6-8.5-14.5-11.5-21.5-.44-1-.7-2-1.13-3-.27-.62-1.26-5.38-.37-6.95a10.28,10.28,0,0,0,1.06-3.47,15,15,0,0,0,.19-6.15c-.48-1.89-1.77-3.53-2.3-5.45-.19-.71-.53-1.47-.69-2.17a7.35,7.35,0,0,1,.18-2.55c.11-1.07.1-2.15.2-3.21.22-2.35-.14-6-1.93-7.82-1.55-1.53-3.48.06-3.79,1.72C12.42,155.41,12.41,157.35,12,159.26Z"/><path class="cls-31" d="M43.57,368.8a36.67,36.67,0,0,1,7.3.22"/><path class="cls-35" d="M25.39,387a72.4,72.4,0,0,0,16,1.5"/><path class="cls-2" d="M49.87,347c7,1.5,18.5,2,25,1,9-1.5,8-9.5,10-18,1.5-8.5,3-17,3-25.5,17.5-2,16.5,7,11,20.5-3,8-4.5,21-9.5,27.5-6,7.5-17,4-25.5,4s-22.5,3.5-29-3.5c7.5-3.5,10-6.5,18.5-4.5"/><path class="cls-8" d="M83.37,252.52c-6-1.09-11.87-3.21-18-3.67-2.37-.18-5.21-.62-6.7,1.55-1.93,2.84-1.82,6.81-2.88,10-1.41,4.24-3.27,8.33-4.44,12.64-3.5,10-6,21-10,31,8.5,6.5,22,9.5,32,12,1.5-4,2.32-6.94,4.5-12,4.12,11,3.79,13.21,4.61,14.31.39.53,20.39-1.33,32.89-5.81-3.5-16-6-32.5-8-48.5-.5-7,0-6.5-5-8.5C96.87,253,88.87,253.52,83.37,252.52Z"/><path class="cls-36" d="M77.87,304s0-.78-.08-2.16c0-.68-.05-1.51-.08-2.47,0-.48,0-1,0-1.52s0-1.1.07-1.69c.05-1.18.12-2.46.18-3.81s.24-2.77.39-4.24.31-3,.55-4.51.45-3.08.67-4.64c1.1-6.17,2.2-12.34,3-17,.43-2.32.69-4.26.92-5.61s.36-2.13.36-2.13-.06.78-.17,2.15c-.06.69-.13,1.52-.21,2.47s-.17,2-.35,3.2c-.31,2.33-.63,5.06-1.12,8l-1.47,9.09c-.25,1.55-.5,3.09-.74,4.62s-.42,3-.61,4.47-.43,2.86-.52,4.2-.24,2.6-.35,3.76-.18,2.25-.22,3.2-.07,1.79-.1,2.48Z"/><path class="cls-36" d="M77.24,258.27s0,.15,0,.42a10,10,0,0,1,0,1.21c0,1-.1,2.53-.31,4.3s-.45,3.82-.75,6-.63,4.54-.9,6.88-.51,4.68-.63,6.88c0,1.1-.09,2.16-.06,3.17A20.35,20.35,0,0,0,74.9,290a10.5,10.5,0,0,0,.6,2.28l.21.46.25.4a3.11,3.11,0,0,0,.53.64,2.72,2.72,0,0,0,1,.63l.4.15-.42-.1a2.79,2.79,0,0,1-1.09-.53,3.3,3.3,0,0,1-.62-.62c-.1-.13-.2-.27-.31-.4s-.17-.31-.26-.47a8.57,8.57,0,0,1-.83-2.34,21.75,21.75,0,0,1-.4-2.88,31,31,0,0,1-.09-3.23c0-2.24.25-4.61.52-7s.64-4.7,1-6.89.76-4.22,1.07-6,.57-3.2.67-4.23A13.48,13.48,0,0,0,77.24,258.27Z"/><path class="cls-36" d="M98.37,265.4s0,.21.13.58a6.3,6.3,0,0,0,.16.67c.09.24.15.52.27.81a8.86,8.86,0,0,0,.4.92,8.55,8.55,0,0,0,.56,1,10.19,10.19,0,0,0,.71,1,13.29,13.29,0,0,0,1.8,1.66c.34.22.65.48,1,.66s.67.38,1,.53.64.28.93.41.57.22.82.29l.65.18.59.13-.61.06a6.9,6.9,0,0,1-1.6-.1,10.33,10.33,0,0,1-1.06-.27,7,7,0,0,1-1.12-.46,8.06,8.06,0,0,1-1.14-.64,9.4,9.4,0,0,1-1.06-.85,9.65,9.65,0,0,1-.93-1,7.72,7.72,0,0,1-.71-1.11,6.05,6.05,0,0,1-.49-1.12,7,7,0,0,1-.28-1.06,8.37,8.37,0,0,1-.09-.92,3.74,3.74,0,0,1,0-.69C98.34,265.61,98.37,265.4,98.37,265.4Z"/><path class="cls-36" d="M54.87,266.52l.46-.13c.29-.09.7-.24,1.18-.41,1-.35,2.23-.85,3.44-1.43a17.35,17.35,0,0,0,3.15-1.87c.21-.15.36-.32.53-.45a3.58,3.58,0,0,0,.39-.37l.35-.34s-.06.17-.18.45a2.32,2.32,0,0,1-.27.51,3.89,3.89,0,0,1-.42.6,5.65,5.65,0,0,1-.58.65,6.74,6.74,0,0,1-.75.63,10.33,10.33,0,0,1-1.79,1.1,12.92,12.92,0,0,1-2,.72,10.4,10.4,0,0,1-1.78.36,6.57,6.57,0,0,1-1.29,0A3.23,3.23,0,0,1,54.87,266.52Z"/><path class="cls-3" d="M45.37,203.71c2,6,7,13.69,9.5,20.28,5.34-2.57,6.14-2,10.5-4.47-3,13.5-8.37,27.47-11.87,40C64,260,101.57,264,108.57,268c-.7-17-1.7-32-1.7-47,6-.5,14.56,3.5,20.56,4,2.5-6.5,4.44-13.5,7.94-20.5-8.33-1.51-15.48-6.05-23.65-8-6.91-1.61-12.31-5.43-18.85-8-4.8-1.87-13-2-17.5.42-7.25,4-9.16,5.59-15.16,8.09C56.21,198.61,45.37,203.71,45.37,203.71Z"/><path class="cls-37" d="M74.37,197.52c.84-2.54,2.1-5.66.66-8.2-1.22-2.15-3.8-3.07-5.64-1a17.09,17.09,0,0,0-2.44,4,31.86,31.86,0,0,0-2.55,9.88c-.62,5.13-1.25,10.27-1.42,15.45a15.28,15.28,0,0,0,.08,3.64c.84,3.78,2,.51,2.83-1.35,1.24-2.89,2.68-5.69,3.74-8.66C71.25,206.7,72.57,202,74.37,197.52Z"/><path class="cls-37" d="M107.37,227.52l.13-.15c5.09-5.88,8.67-14.51,8.73-22.33,0-3.54-.84-7.28-3.58-9.73-.93-.84-3.87-3.11-5.06-2.57-1.81.8-.72,4.73-.72,6.17,0,3.18,0,6.37,0,9.56C107,214.82,107.09,221.17,107.37,227.52Z"/><path class="cls-34" d="M64.37,221l.19-1.57c.14-1,.31-2.43.58-4.13s.56-3.7.92-5.82.76-4.39,1.17-6.65,1-4.49,1.58-6.58,1-4,1.49-5.71.85-3.05,1.12-4,.45-1.52.45-1.52l-.27,1.56c-.18,1-.41,2.42-.76,4.11s-.71,3.66-1.17,5.76-1,4.34-1.46,6.58-.85,4.52-1.29,6.63-.87,4.07-1.23,5.76-.72,3.08-.94,4.07Z"/><path class="cls-34" d="M107.87,226.52s0-.54-.05-1.49c0-.47,0-1.05,0-1.71a18.83,18.83,0,0,1,0-2.22c0-.81.09-1.7.15-2.63s.14-1.91.24-2.92c.19-2,.46-4.17.71-6.32s.52-4.29.66-6.3c.06-1,.22-2,.24-2.9s.06-1.8.09-2.61c0-.4,0-.79,0-1.16s0-.71,0-1c0-.66,0-1.23,0-1.71,0-.95,0-1.49,0-1.49s.08.54.21,1.48c.06.47.14,1,.23,1.7,0,.33.09.68.14,1.05s0,.76,0,1.16c0,.82,0,1.7.07,2.64s0,1.92-.09,2.94-.08,2.07-.22,3.13l-.33,3.23c-.28,2.14-.56,4.29-.82,6.3-.12,1-.3,2-.4,2.89s-.21,1.79-.31,2.59c-.22,1.6-.28,3-.38,3.91S107.87,226.52,107.87,226.52Z"/><path class="cls-12" d="M93.37,205c4.33-1.86,7.73-5.69,5-10.37A13.68,13.68,0,0,0,87,188.15c-6.87.21-8.85,9.28-5.49,14.21C84.25,206.47,89.09,206.86,93.37,205Z"/><path class="cls-13" d="M87.73,202.77c2.35.32,5.84-.45,7-2.44,1.07-1.74.51-4.06-.34-5.76-1.37-2.75-4.48-5.57-7.76-4.34-3,1.11-3.86,4.14-3.62,7a5.75,5.75,0,0,0,4,5.37A6.66,6.66,0,0,0,87.73,202.77Z"/><path class="cls-38" d="M119.37,105c-.5-2-1.84-9.08.5-9.5,4,1.5,5.5,6,4.5,10.5,3-12,10-3,2,1.5,7,4.5,14.5,3.5,20.5,11,4,5,8.5,13.5,5.5,20,0-1-1-2-1.5-3.5,0,2-.5,4-.5,6l-3-7.5a36.12,36.12,0,0,1,1,5c2.33,13.33,1.5,23.5-9,33.5-9.5,9.5-24,12-37,11-14.5-1-32-3-44.5-11.5-15-9.5-18.5-20.5-18-37-1,1-2.5,2-3.5,3-10.5-14.5,33.5-39.5,43.5-41-2.5-.5-7.92-1.33-7.5-3C85.37,84,119.37,105,119.37,105Z"/><path class="cls-2" d="M50.53,149a67.66,67.66,0,0,0,.17,13.42c-1-7.5-11.58-4.25-11.58,3.25,0,6.5,4.25,10.83,13.08,9.83,1.83,17.5,23.5,22.67,38.17,23,13.08.3,29.33-.67,37.06-14.46,7.5,5.5,16.92-3,16.94-12,0-9.25-9-3.5-13,0-1.5-6,1-13,.5-19.5-1.5,2.5-3,3.5-5,5-.5-10.5-.5-21.5-5-31.5-3,4-5,9-10,11-3.5,1.5-10,2.5-8-3.5-4,5-12.61,7.58-14.5,5-.5-.67,2.5-4.5,4-6.5-12,6,1-8,1.5-10-7.5,3-14,5-22,5.5a44,44,0,0,1,2.5-7.5c-3,6-9.5,9.5-13,15-3,4.5-5,10.5-7,15.5.3-.76-.39-2.8-.5-3.62-.2-1.35-.39-2.69-.55-4s-.28-2.69-.33-4c0-.42.27-2.45.07-2.06A55.27,55.27,0,0,0,50.53,149Z"/><path class="cls-15" d="M78.37,157.52c1.22-2-1-3.86-2.75-4.33a3.08,3.08,0,0,0-3.33,2.6c0,1.14.08,2.09,1.12,2.73A3.87,3.87,0,0,0,78.37,157.52Z"/><path class="cls-38" d="M73.8,136.26c.26.47,1.21.15,1.59.09a14.45,14.45,0,0,0,2.06-.52c.38-.13,1.53-.38,1.65-.84s-.64-.78-1-.84a6.17,6.17,0,0,0-1.91.15,3.3,3.3,0,0,0-1.5.64,4,4,0,0,0-.68.68c-.16.19-.33.37-.22.6A.05.05,0,0,0,73.8,136.26Z"/><path class="cls-38" d="M120.41,143.8c.21-.05.36-.18.27-.45a6.32,6.32,0,0,0-1.54-2.25c-.61-.59-2.82-2.39-3.54-1.47-.57.74.64,1.62,1.14,2,.65.52,1.23,1.11,1.9,1.61a2.75,2.75,0,0,0,1.14.55A1.69,1.69,0,0,0,120.41,143.8Z"/><path class="cls-15" d="M113.2,158.82c-1.76-.1-3.42,1-3.37,2.79a3.14,3.14,0,0,0,5.65,1.88A2.88,2.88,0,0,0,113.2,158.82Z"/><path class="cls-11" d="M92.37,158l-.13.25c-.09.16-.19.41-.38.7a9.4,9.4,0,0,1-.8,1A12.24,12.24,0,0,1,89.85,161a17.48,17.48,0,0,1-1.61,1,3,3,0,0,0-.67.59l-.11.18,0,0h0v0l-.06.12a4,4,0,0,0-.22.48,5.27,5.27,0,0,0-.1,4,3.13,3.13,0,0,0,1.3,1.48,4.55,4.55,0,0,0,.94.39l.12,0s.06,0,.09,0l.28,0,.54.09c.35,0,.65,0,1,0a7.52,7.52,0,0,0,1-.15,4.94,4.94,0,0,0,.87-.29,3,3,0,0,0,.78-.38,6.62,6.62,0,0,0,1.23-.9c.3-.33.56-.65.76-.92.31-.59.51-.94.51-.94s-.11.37-.34,1c-.16.3-.38.67-.65,1.08a6.29,6.29,0,0,1-1.2,1.14,3.82,3.82,0,0,1-.81.5,4.21,4.21,0,0,1-1,.39,8,8,0,0,1-1.07.26,9.16,9.16,0,0,1-1.17.05l-.55-.06-.27,0-.19,0-.14,0a4.35,4.35,0,0,1-1.18-.45A4.19,4.19,0,0,1,86.11,168a5.48,5.48,0,0,1-.4-2.51,6.81,6.81,0,0,1,.62-2.33,4.48,4.48,0,0,1,.26-.49l.06-.12,0,0,0-.05,0-.06.19-.25a3.62,3.62,0,0,1,.92-.7c.64-.36,1.19-.53,1.66-.85s.92-.61,1.29-.9a11,11,0,0,0,.89-.8C92.13,158.34,92.37,158,92.37,158Z"/><path class="cls-39" d="M71.87,171.52c9.5,8,25.5,9.5,36.5,5.5,3.5,19-39,19.5-36.5-5.5"/><path class="cls-3" d="M65.87,347.75a1.51,1.51,0,0,1,.37.07c.35.13.49.32.32.62a11.14,11.14,0,0,0-1,4.19c-.2,1.88-.39,3.77-.75,5.63a10,10,0,0,1-3.29.27c-3.78-.18-7.75-.61-11.51-.09a21.63,21.63,0,0,1-9.61-.92c-3.21-1.35-4.8-4.13-2.48-7.12A12.28,12.28,0,0,1,42,347.15a16.16,16.16,0,0,1,2.69-1.1,4.72,4.72,0,0,1,2.88,0,49.74,49.74,0,0,0,8.33,1.18c1.94.08,3.89.13,5.83.28a11.91,11.91,0,0,1,1.72.19A23.71,23.71,0,0,0,65.87,347.75Z"/><path class="cls-40" d="M53.37,344.52c-5.46,0-10.86-.91-16.3-1.19-1.72-.09-3.44-.07-5.16-.13-1.27,0-2.69-.34-3.8.5s-1.26,2.49-1.76,3.61a40.92,40.92,0,0,0-1.8,4.07c-1.87,5.79-3.81,11.28-4.58,17.39-.57,4.57-1.25,10.46.9,14.75,6,13,9.5-10.5,10.5-15,3-10,11.5-9.5,21-7C52.37,355.52,52.87,350,53.37,344.52Z"/><path class="cls-31" d="M25.28,373.52c1.5-5.5,2.09-15,7.09-17.5,3.5-2,19-.5,20-.5"/><path class="cls-31" d="M26.37,370.75c1.5.5,2.55,1.64,4.05,2.64"/><path class="cls-31" d="M27.37,366.44a13.91,13.91,0,0,1,4,2.08"/><path class="cls-31" d="M28.62,361.46c-.5,0,2.52,2.06,4,3.06"/><path class="cls-31" d="M30.42,357.54A19.68,19.68,0,0,0,34.87,362"/><path class="cls-31" d="M34.19,355.52c1,2,2.14,3.49,3.14,5.49"/><path class="cls-31" d="M39.87,355c.5,1.5,1,3.57,1.5,5.07"/><path class="cls-31" d="M44.45,355.06c-.5,1.5,0,3.56.42,5"/><path class="cls-31" d="M48.87,355.52a21.46,21.46,0,0,0,.5,5.28"/><g class="cls-41"><path class="cls-16" d="M73.39,183.54a3.51,3.51,0,0,1,2-1.29,29.2,29.2,0,0,1,7.43-1.08,37.93,37.93,0,0,1,9.76,1.8c2.8.88,5.82,2.06,8,4.09.82.77,3.07,2.74,3.11,4s-3.51,1.67-4.45,2.1a12.65,12.65,0,0,1-6.78.76c-2-.24-4-.53-6-.75a23.82,23.82,0,0,1-6.8-1.8A15.7,15.7,0,0,1,74.34,188a3.82,3.82,0,0,1-.77-1.61c-.27-.85-.83-1.66-.35-2.55C73.27,183.72,73.33,183.63,73.39,183.54Z"/><path class="cls-3" d="M70.87,167.52c-1.05,21.29,42,17.5,39.5,7-11,1.5-30.5,0-39.5-7"/></g><path class="cls-11" d="M16,169a4.35,4.35,0,0,1-.12.48,8.44,8.44,0,0,0-.21,1.25,13.9,13.9,0,0,0-.07,1.77c0,.64.07,1.34.14,2,.15,1.39.35,2.79.46,3.86a15.92,15.92,0,0,1,.11,1.8,15.41,15.41,0,0,1-.67-1.68,18,18,0,0,1-.89-3.88,12,12,0,0,1,0-2.16,7.91,7.91,0,0,1,.39-1.86,5.23,5.23,0,0,1,.59-1.21Z"/><path class="cls-2" d="M13.19,168.8c-.39-.22-.78-.2-1-.55.91-.63,2.27-.16,2.84-1.48,1.23-2.85-4-4.16-6.15-4A11,11,0,0,0,1.59,167c-1.16,1.53-1.13,3.13-1.2,5,0,.93.06,1.82.1,2.74s-.4,1.85-.4,2.92a5.5,5.5,0,0,0,.83,2.87c.38.51.89.5,1.29.89.53.55.17.31.24.94.21,2,1.54,4.45,3.83,4.5-.14,1.64,1.74,2.31,3,2.43a6.05,6.05,0,0,0,5.13-1.81c2-2.12.18-5.6-2.66-4.34,2.72-1.21,2.4-6.89-.69-7.31.56.07,1.69-.81,2.08-1.18a4.45,4.45,0,0,0,1.34-2.91A3.07,3.07,0,0,0,13.19,168.8Z"/><path class="cls-11" d="M9.42,189.55c2.33.1,6.63-1,6.27-4.08-.27-2.32-2.87-2.73-4.66-2.13l.76.33c2.12-1.17,2.75-4.43,1.56-6.49-.27-.47-1.44-1.71-1.63-1.16a14.4,14.4,0,0,1,1.34-.74,4.73,4.73,0,0,0,1.39-1.53,4.17,4.17,0,0,0-.29-4.58c-.25-.36-1.07-.48-.63-1.11.14-.2,1.32-.35,1.62-.66,2.53-2.59-2.69-4.37-4.34-4.69-.42-.08-1,.22-.3.35,1.35.27,4.11.89,4.13,2.67,0,1.61-1.73,1.82-2.88,2.38a.11.11,0,0,0,0,.2c1.38,1,2.51,1.8,2.23,3.75-.22,1.51-1.46,3.37-3.11,3.62-.41.06-.22.31.08.37,3.15.74,2.2,6.12,0,7.32-.35.2.59.38.75.33a3.88,3.88,0,0,1,2.9,1.24,2.46,2.46,0,0,1-.44,2.23c-1.05,1.53-3.24,2-5,2-.68,0-.2.4.22.42Z"/><path class="cls-11" d="M0,174.91l.28-.59.35-.66.22-.4.33-.4c.22-.28.48-.59.76-.9a11.81,11.81,0,0,1,1-.86,6.18,6.18,0,0,1,1.14-.81c.42-.23.82-.5,1.26-.7L6.65,169a11.05,11.05,0,0,1,1.32-.4,10.25,10.25,0,0,1,1.26-.28c.4-.07.79-.12,1.14-.16a14.56,14.56,0,0,1,1.72-.08l.64,0-.62.18c-.4.13-1,.23-1.63.44l-1.08.33c-.38.09-.76.26-1.17.4s-.83.26-1.24.46l-1.24.54c-.42.18-.8.43-1.19.63l-.59.32-.53.36c-.33.26-.71.46-1,.7s-.56.5-.82.72l-.38.32-.3.34-.49.55Z"/><path class="cls-11" d="M2.18,181.76s0-.17.16-.46a5.1,5.1,0,0,1,.54-1.15c.14-.23.31-.48.49-.73a5.49,5.49,0,0,1,.65-.73A5.74,5.74,0,0,1,4.8,178l.87-.64.94-.5a6,6,0,0,1,.95-.4,5.69,5.69,0,0,1,.91-.3c.29-.08.57-.14.83-.2a10.12,10.12,0,0,1,1.27-.16l.48,0-.43.22c-.28.14-.68.28-1.14.51l-.75.35c-.27.11-.53.28-.82.41-.57.26-1.14.62-1.72.94a19.32,19.32,0,0,0-1.58,1.13c-.22.21-.5.37-.68.58s-.4.38-.58.55a11.38,11.38,0,0,0-.84.94Z"/><path class="cls-11" d="M6.37,187a2.43,2.43,0,0,1,.23-.17c.08,0,.14-.14.23-.21l.27-.26a17.64,17.64,0,0,1,1.61-1.31A16.12,16.12,0,0,1,10.47,184a7.3,7.3,0,0,1,.9-.43,4.41,4.41,0,0,1-.52.87,6.41,6.41,0,0,1-.68.75,8.18,8.18,0,0,1-.88.74,7.66,7.66,0,0,1-1.91,1A2.38,2.38,0,0,1,7,187a1,1,0,0,1-.32,0Z"/><g class="cls-42"><path class="cls-3" d="M12.87,377.52c-.35-2.61.26-5.45.73-8a93,93,0,0,1,3-11.73,54.94,54.94,0,0,1,5.63-12.74,16,16,0,0,1,3.42-4c1.43-1.12,4.25-2.31,5.17.19.68,1.84-1.52,5.3-2.19,7-1,2.58-2.07,5.16-3,7.77A68.47,68.47,0,0,0,21.37,373c5.5-.5,12.5,4.5,10.5,11C28.37,396.52,13.87,385.52,12.87,377.52Z"/><path class="cls-31" d="M28.87,347.65a6.94,6.94,0,0,0,2.56.53,6,6,0,0,0,4.44-1.66,4.61,4.61,0,0,0,1.25-2.6,2.38,2.38,0,0,0,0-.6"/><path class="cls-3" d="M40.37,352.52a2.57,2.57,0,0,0,.33.33c2.56,2.34,6.28,0,6.78-3.07.28-1.72-.65-2.75-2.1-3.47a4,4,0,0,0-3.12-.68,4.12,4.12,0,0,0-2.7,2.08A4.22,4.22,0,0,0,40.37,352.52Z"/></g><path class="cls-35" d="M23.37,387.52c-1.82-4-2.32-9.57-1.82-16.18"/></g></g></svg>