<svg xmlns="http://www.w3.org/2000/svg" xmlns:xlink="http://www.w3.org/1999/xlink" version="1.1" id="Capa_1" x="0px" y="0px" viewBox="0 0 115.669 115.669" style="enable-background:new 0 0 115.669 115.669;" xml:space="preserve" fill="#DF8F9C">
	<path d="M57.834,0C25.896,0,0.001,25.894,0.001,57.834c0,31.939,25.895,57.835,57.834,57.835c31.941,0,57.834-25.896,57.834-57.835   C115.669,25.894,89.777,0,57.834,0z M15.872,64.362l11.785-6.527l-11.785-6.527l2.907-5.249l21.262,11.776L18.779,69.61   L15.872,64.362z M57.636,97.436c-10.04,0-18.208-7.281-18.208-16.231h6c0,5.642,5.477,10.231,12.208,10.231   c6.731,0,12.208-4.59,12.208-10.231h6C75.844,90.154,67.676,97.436,57.636,97.436z M91.842,66.199   c-4.619,0-8.364-3.744-8.364-8.363c0-4.621,3.745-8.365,8.364-8.365s8.364,3.744,8.364,8.365   C100.206,62.455,96.461,66.199,91.842,66.199z"/>
</svg>