<svg xmlns="http://www.w3.org/2000/svg" xmlns:xlink="http://www.w3.org/1999/xlink" version="1.1" id="Capa_1" x="0px" y="0px" viewBox="0 0 115.668 115.668" style="enable-background:new 0 0 115.668 115.668;" xml:space="preserve" fill="#965e8c">
	<path d="M57.834,0C25.893,0,0,25.893,0,57.834c0,31.94,25.893,57.834,57.834,57.834c31.94,0,57.834-25.894,57.834-57.834   C115.668,25.893,89.775,0,57.834,0z M37.065,54.244l-6.409,5.433l1.993,8.169c0.352,1.524-1.328,2.735-2.658,1.914l-7.152-4.417   l-7.152,4.417c-1.367,0.86-3.048-0.39-2.657-1.914l1.993-8.169l-6.409-5.433c-1.212-1.016-0.586-2.971,1.014-3.126l8.403-0.627   l3.166-7.776c0.626-1.446,2.697-1.446,3.283,0l3.166,7.776l8.403,0.627C37.651,51.235,38.276,53.227,37.065,54.244z M57.635,97.437   c-10.04,0-18.208-7.281-18.208-16.231h6c0,5.642,5.477,10.231,12.208,10.231c6.73,0,12.208-4.591,12.208-10.231h6   C75.843,90.153,67.675,97.437,57.635,97.437z M102.638,67.846c0.353,1.524-1.328,2.735-2.657,1.914l-7.152-4.417l-7.152,4.417   c-1.367,0.86-3.049-0.39-2.658-1.914l1.994-8.169l-6.41-5.433c-1.213-1.016-0.586-2.971,1.016-3.126l8.401-0.627l3.166-7.776   c0.627-1.446,2.697-1.446,3.283,0l3.166,7.776l8.403,0.627c1.603,0.117,2.228,2.109,1.017,3.126l-6.41,5.433L102.638,67.846z"/>
</svg>